<svg id="Layer_1" data-name="Layer 1" xmlns="http://www.w3.org/2000/svg" xmlns:xlink="http://www.w3.org/1999/xlink" viewBox="0 0 840 195"><defs><style>.cls-1{fill:none;}.cls-2{fill:#b198b4;}.cls-3{fill:#95ba29;}.cls-4{fill:#22b7e9;}.cls-5{fill:#0055a4;}.cls-6{fill:#633169;}.cls-7{clip-path:url(#clip-path);}.cls-8{fill:#2e2014;}.cls-9{fill:#fff;}.cls-10{fill:#00a6e1;}.cls-11{fill:#7a5080;}</style><clipPath id="clip-path"><rect class="cls-1" x="6.5" width="827.72" height="195"/></clipPath></defs><rect class="cls-2" x="136.35" y="155.17" width="34.47" height="15.63"/><rect class="cls-2" x="349.77" y="156.35" width="34.47" height="14.45"/><rect class="cls-2" x="563.18" y="159.89" width="34.46" height="10.91"/><rect class="cls-2" x="776.59" y="167.85" width="34.46" height="2.95"/><rect class="cls-3" x="83" y="142.49" width="34.47" height="28.31"/><rect class="cls-3" x="296.41" y="137.48" width="34.47" height="33.32"/><rect class="cls-3" x="509.83" y="148.1" width="34.46" height="22.71"/><rect class="cls-3" x="723.24" y="162.54" width="34.47" height="8.26"/><rect class="cls-4" x="83" y="142.49" width="34.47" height="28.31"/><rect class="cls-4" x="296.41" y="137.48" width="34.47" height="33.32"/><rect class="cls-4" x="509.83" y="148.1" width="34.46" height="22.71"/><rect class="cls-4" x="723.24" y="162.54" width="34.47" height="8.26"/><rect class="cls-3" x="29.65" y="64.05" width="34.47" height="99.37"/><rect class="cls-3" x="243.06" y="83.22" width="34.46" height="80.8"/><rect class="cls-3" x="456.48" y="101.21" width="34.47" height="62.22"/><rect class="cls-3" x="669.89" y="160.19" width="34.47" height="3.83"/><rect class="cls-5" x="29.65" y="163.43" width="34.47" height="7.37"/><rect class="cls-5" x="243.06" y="164.02" width="34.46" height="6.78"/><rect class="cls-5" x="456.48" y="163.43" width="34.47" height="7.37"/><rect class="cls-5" x="669.89" y="164.02" width="34.47" height="6.78"/><line class="cls-6" x1="313.55" y1="61.68" x2="100.11" y2="25.32"/><rect class="cls-6" x="205.83" y="-64.76" width="2" height="216.51" transform="translate(129.22 240.09) rotate(-80.33)"/><line class="cls-6" x1="526.99" y1="86.3" x2="313.55" y2="61.68"/><rect class="cls-6" x="419.27" y="-33.44" width="2" height="214.86" transform="translate(298.6 483.01) rotate(-83.42)"/><line class="cls-6" x1="740.43" y1="158.13" x2="526.99" y2="86.3"/><rect class="cls-6" x="632.71" y="9.62" width="2" height="225.2" transform="translate(315.75 683.84) rotate(-71.4)"/><rect class="cls-6" x="94.11" y="19.32" width="12" height="12"/><rect class="cls-6" x="307.55" y="55.68" width="12" height="12"/><rect class="cls-6" x="520.98" y="80.3" width="12" height="12"/><rect class="cls-6" x="734.42" y="152.13" width="12" height="12"/><g class="cls-7"><rect class="cls-8" x="6.45" y="170.69" width="827.77" height="0.5"/></g><g class="cls-7"><path class="cls-8" d="M305,188.81h-6.61v-1l2.62-2.65c.5-.5.92-.95,1.27-1.34a4.84,4.84,0,0,0,.79-1.15,2.82,2.82,0,0,0,.27-1.24,1.62,1.62,0,0,0-.49-1.26,1.92,1.92,0,0,0-1.28-.42,3.06,3.06,0,0,0-1.29.25,6.16,6.16,0,0,0-1.12.7l-.65-.83a6,6,0,0,1,1.35-.83,4.11,4.11,0,0,1,1.71-.34,3.19,3.19,0,0,1,2.21.71,2.48,2.48,0,0,1,.82,2,3.36,3.36,0,0,1-.33,1.47,5.93,5.93,0,0,1-.89,1.35c-.39.45-.83.92-1.35,1.42l-2.08,2.06v.05H305Z"/><path class="cls-8" d="M313.24,183.8a9.71,9.71,0,0,1-.34,2.77,3.48,3.48,0,0,1-1.07,1.77,2.89,2.89,0,0,1-1.92.61,2.7,2.7,0,0,1-2.5-1.36,7.44,7.44,0,0,1-.81-3.79,10.11,10.11,0,0,1,.33-2.77,3.44,3.44,0,0,1,1.06-1.76,2.93,2.93,0,0,1,1.92-.61,2.73,2.73,0,0,1,2.5,1.35A7.3,7.3,0,0,1,313.24,183.8Zm-5.4,0a7.6,7.6,0,0,0,.47,3.08,1.62,1.62,0,0,0,1.6,1,1.66,1.66,0,0,0,1.6-1,10.12,10.12,0,0,0,0-6.16,1.65,1.65,0,0,0-1.6-1,1.62,1.62,0,0,0-1.6,1A7.61,7.61,0,0,0,307.84,183.8Z"/><path class="cls-8" d="M319,188.81h-1.2v-7c0-.4,0-.73,0-1s0-.49,0-.76c-.15.15-.29.28-.41.38s-.28.24-.46.39l-1.06.87-.64-.82,2.7-2.1h1Z"/><path class="cls-8" d="M328.84,183.09a12.47,12.47,0,0,1-.19,2.12,5.93,5.93,0,0,1-.69,1.89,3.71,3.71,0,0,1-1.4,1.35,4.78,4.78,0,0,1-2.32.5l-.65,0a3.22,3.22,0,0,1-.61-.11v-1.05a4,4,0,0,0,1.24.18,3.47,3.47,0,0,0,1.61-.32,2.56,2.56,0,0,0,1-.87,3.74,3.74,0,0,0,.54-1.29,7.73,7.73,0,0,0,.2-1.55h-.08a2.7,2.7,0,0,1-2.38,1.16,2.79,2.79,0,0,1-2.08-.79,3,3,0,0,1-.79-2.23,3.93,3.93,0,0,1,.39-1.81,2.76,2.76,0,0,1,1.11-1.16,3.38,3.38,0,0,1,1.69-.4,3.19,3.19,0,0,1,1.72.48,3.3,3.3,0,0,1,1.22,1.46A5.86,5.86,0,0,1,328.84,183.09Zm-3.39-3.38a1.86,1.86,0,0,0-1.42.58,2.42,2.42,0,0,0-.56,1.75,2.3,2.3,0,0,0,.47,1.52,1.84,1.84,0,0,0,1.45.55,2.34,2.34,0,0,0,1.16-.27,2.27,2.27,0,0,0,.77-.7,1.59,1.59,0,0,0,.27-.87,3.16,3.16,0,0,0-.24-1.19,2.48,2.48,0,0,0-.71-1A1.83,1.83,0,0,0,325.45,179.71Z"/><path class="cls-8" d="M91.47,188.81H84.86v-1l2.62-2.65c.49-.5.91-.95,1.26-1.34a4.56,4.56,0,0,0,.79-1.15,2.82,2.82,0,0,0,.27-1.24,1.59,1.59,0,0,0-.49-1.26,1.89,1.89,0,0,0-1.27-.42,3,3,0,0,0-1.29.25,5.55,5.55,0,0,0-1.12.7l-.66-.83a6,6,0,0,1,1.35-.83,4.13,4.13,0,0,1,1.72-.34,3.21,3.21,0,0,1,2.21.71,2.48,2.48,0,0,1,.81,2,3.5,3.5,0,0,1-.32,1.47,6.35,6.35,0,0,1-.9,1.35c-.38.45-.83.92-1.34,1.42l-2.09,2.06v.05h5.06Z"/><path class="cls-8" d="M99.75,183.8a10.11,10.11,0,0,1-.33,2.77,3.55,3.55,0,0,1-1.07,1.77,2.9,2.9,0,0,1-1.93.61,2.7,2.7,0,0,1-2.5-1.36,7.55,7.55,0,0,1-.8-3.79,10.11,10.11,0,0,1,.33-2.77,3.5,3.5,0,0,1,1-1.76,2.94,2.94,0,0,1,1.92-.61A2.75,2.75,0,0,1,98.93,180,7.3,7.3,0,0,1,99.75,183.8Zm-5.4,0a7.78,7.78,0,0,0,.47,3.08,1.77,1.77,0,0,0,3.2,0,9.92,9.92,0,0,0,0-6.16,1.76,1.76,0,0,0-3.2,0A7.79,7.79,0,0,0,94.35,183.8Z"/><path class="cls-8" d="M105.49,188.81h-1.2v-7c0-.4,0-.73,0-1s0-.49,0-.76a4.51,4.51,0,0,1-.42.38l-.45.39-1.07.87-.64-.82,2.7-2.1h1Z"/><path class="cls-8" d="M112.19,178.68a3.55,3.55,0,0,1,2.15.61,2.08,2.08,0,0,1,.84,1.78,2,2,0,0,1-.26,1.05,2.71,2.71,0,0,1-.69.79,6.16,6.16,0,0,1-1,.61,9.21,9.21,0,0,1,1.12.67,3.1,3.1,0,0,1,.8.86,2.19,2.19,0,0,1,.3,1.17,2.44,2.44,0,0,1-.89,2,3.64,3.64,0,0,1-2.38.73,3.87,3.87,0,0,1-2.49-.7,2.46,2.46,0,0,1-.86-2,2.4,2.4,0,0,1,.29-1.18,2.75,2.75,0,0,1,.76-.87,5.34,5.34,0,0,1,1-.62,4.61,4.61,0,0,1-1.24-1,2.27,2.27,0,0,1-.51-1.52,2,2,0,0,1,.4-1.29,2.34,2.34,0,0,1,1.06-.81A3.9,3.9,0,0,1,112.19,178.68Zm-2.1,7.6a1.6,1.6,0,0,0,.51,1.21,2.3,2.3,0,0,0,1.6.48,2.28,2.28,0,0,0,1.56-.48,1.6,1.6,0,0,0,.54-1.25,1.51,1.51,0,0,0-.57-1.21,5.24,5.24,0,0,0-1.53-.85l-.22-.09a4.58,4.58,0,0,0-1.41.91A1.8,1.8,0,0,0,110.09,186.28Zm2.08-6.61a2,2,0,0,0-1.27.37,1.26,1.26,0,0,0-.49,1.07,1.49,1.49,0,0,0,.24.87,2.3,2.3,0,0,0,.67.6,8.76,8.76,0,0,0,.92.46,4.32,4.32,0,0,0,1.23-.74,1.49,1.49,0,0,0,.49-1.19,1.26,1.26,0,0,0-.49-1.07A2.07,2.07,0,0,0,112.17,179.67Z"/><path class="cls-8" d="M518,188.81h-6.61v-1l2.62-2.65c.5-.5.92-.95,1.27-1.34a4.84,4.84,0,0,0,.79-1.15,2.82,2.82,0,0,0,.27-1.24,1.62,1.62,0,0,0-.49-1.26,1.92,1.92,0,0,0-1.28-.42,3.06,3.06,0,0,0-1.29.25,6.16,6.16,0,0,0-1.12.7l-.65-.83a6,6,0,0,1,1.35-.83,4.11,4.11,0,0,1,1.71-.34,3.21,3.21,0,0,1,2.21.71,2.45,2.45,0,0,1,.82,2,3.36,3.36,0,0,1-.33,1.47,5.93,5.93,0,0,1-.89,1.35,19.06,19.06,0,0,1-1.35,1.42l-2.08,2.06v.05H518Z"/><path class="cls-8" d="M526.25,183.8a9.71,9.71,0,0,1-.34,2.77,3.48,3.48,0,0,1-1.07,1.77,2.89,2.89,0,0,1-1.92.61,2.7,2.7,0,0,1-2.5-1.36,7.44,7.44,0,0,1-.81-3.79,10.11,10.11,0,0,1,.33-2.77,3.44,3.44,0,0,1,1.06-1.76,2.93,2.93,0,0,1,1.92-.61,2.73,2.73,0,0,1,2.5,1.35A7.3,7.3,0,0,1,526.25,183.8Zm-5.4,0a7.81,7.81,0,0,0,.46,3.08,1.78,1.78,0,0,0,3.21,0,10.12,10.12,0,0,0,0-6.16,1.77,1.77,0,0,0-3.21,0A7.82,7.82,0,0,0,520.85,183.8Z"/><path class="cls-8" d="M534.38,188.81h-6.6v-1l2.61-2.65c.5-.5.92-.95,1.27-1.34a4.84,4.84,0,0,0,.79-1.15,2.82,2.82,0,0,0,.27-1.24,1.62,1.62,0,0,0-.49-1.26,1.9,1.9,0,0,0-1.28-.42,3,3,0,0,0-1.28.25,5.55,5.55,0,0,0-1.12.7l-.66-.83a6,6,0,0,1,1.35-.83,4.11,4.11,0,0,1,1.71-.34,3.24,3.24,0,0,1,2.22.71,2.48,2.48,0,0,1,.81,2,3.5,3.5,0,0,1-.32,1.47,6.35,6.35,0,0,1-.9,1.35c-.38.45-.83.92-1.34,1.42l-2.09,2.06v.05h5Z"/><path class="cls-8" d="M542.67,183.8a10.11,10.11,0,0,1-.33,2.77,3.56,3.56,0,0,1-1.08,1.77,2.89,2.89,0,0,1-1.92.61,2.7,2.7,0,0,1-2.5-1.36,7.44,7.44,0,0,1-.8-3.79,10.54,10.54,0,0,1,.32-2.77,3.51,3.51,0,0,1,1.06-1.76,2.94,2.94,0,0,1,1.92-.61,2.76,2.76,0,0,1,2.51,1.35A7.3,7.3,0,0,1,542.67,183.8Zm-5.4,0a7.6,7.6,0,0,0,.47,3.08,1.62,1.62,0,0,0,1.6,1,1.65,1.65,0,0,0,1.6-1,9.92,9.92,0,0,0,0-6.16,1.64,1.64,0,0,0-1.6-1,1.62,1.62,0,0,0-1.6,1A7.61,7.61,0,0,0,537.27,183.8Z"/></g><path class="cls-6" d="M308.06,42.34a2.23,2.23,0,0,1-.57,1.61,2.82,2.82,0,0,1-1.5.79v0a2.88,2.88,0,0,1,1.78.76,2.21,2.21,0,0,1,.6,1.61,2.91,2.91,0,0,1-.41,1.55,2.75,2.75,0,0,1-1.25,1.06,5.44,5.44,0,0,1-2.18.37,8.18,8.18,0,0,1-1.45-.12,4.87,4.87,0,0,1-1.29-.42V48.45a5.93,5.93,0,0,0,1.36.49,6.3,6.3,0,0,0,1.4.17,2.92,2.92,0,0,0,1.94-.53,1.85,1.85,0,0,0,.59-1.45,1.45,1.45,0,0,0-.73-1.35,4.36,4.36,0,0,0-2.07-.41h-1v-1h1a2.86,2.86,0,0,0,1.87-.52,1.66,1.66,0,0,0,.64-1.37,1.37,1.37,0,0,0-.49-1.13,2.09,2.09,0,0,0-1.33-.4,3.64,3.64,0,0,0-1.39.24,7.25,7.25,0,0,0-1.13.6l-.62-.84a5.37,5.37,0,0,1,1.33-.73,5,5,0,0,1,1.8-.3,3.35,3.35,0,0,1,2.33.7A2.29,2.29,0,0,1,308.06,42.34Z"/><path class="cls-6" d="M310.64,50l4.1-8.87h-5.39V40h6.7v1L312,50Z"/><path class="cls-6" d="M316.15,49.25a.81.81,0,0,1,.86-.94,1,1,0,0,1,.61.21.87.87,0,0,1,.27.73.91.91,0,0,1-.27.73,1,1,0,0,1-.61.22.93.93,0,0,1-.61-.22A1,1,0,0,1,316.15,49.25Z"/><path class="cls-6" d="M326.08,50h-6.61V49l2.62-2.65c.49-.5.91-.95,1.26-1.34a4.62,4.62,0,0,0,.8-1.15,3,3,0,0,0,.26-1.24,1.59,1.59,0,0,0-.49-1.26,1.87,1.87,0,0,0-1.27-.42,3,3,0,0,0-1.29.25,5.84,5.84,0,0,0-1.12.7l-.66-.83a6,6,0,0,1,1.35-.83,4.13,4.13,0,0,1,1.72-.34,3.21,3.21,0,0,1,2.21.71,2.48,2.48,0,0,1,.81,2,3.5,3.5,0,0,1-.32,1.47,5.67,5.67,0,0,1-.9,1.35c-.38.45-.83.92-1.34,1.42L321,48.83v.05h5.06Z"/><g class="cls-7"><path class="cls-6" d="M95.19,11.38H93.73v2.27H92.54V11.38H87.76V10.33l4.7-6.74h1.27v6.68h1.46Zm-2.65-1.11V7.12c0-.48,0-.9,0-1.24s0-.66,0-1h0c-.08.18-.17.37-.28.57A4.39,4.39,0,0,1,92,6l-3,4.27Z"/><path class="cls-6" d="M102.27,7.92a11.53,11.53,0,0,1-.19,2.12,5.53,5.53,0,0,1-.68,1.89,3.71,3.71,0,0,1-1.4,1.35,4.69,4.69,0,0,1-2.32.51c-.18,0-.4,0-.66,0a3.37,3.37,0,0,1-.6-.1V12.6a4,4,0,0,0,1.23.18,3.62,3.62,0,0,0,1.62-.32,2.73,2.73,0,0,0,1-.88,3.74,3.74,0,0,0,.54-1.29,8.42,8.42,0,0,0,.2-1.54h-.09a2.7,2.7,0,0,1-.89.81,2.86,2.86,0,0,1-1.49.35,2.82,2.82,0,0,1-2.07-.79,3,3,0,0,1-.8-2.24,3.74,3.74,0,0,1,.4-1.8A2.71,2.71,0,0,1,97.2,3.92a3.28,3.28,0,0,1,1.69-.41,3.21,3.21,0,0,1,1.72.48,3.3,3.3,0,0,1,1.22,1.46A6.07,6.07,0,0,1,102.27,7.92ZM98.89,4.54a1.88,1.88,0,0,0-1.42.58,2.42,2.42,0,0,0-.56,1.75,2.3,2.3,0,0,0,.47,1.52,1.79,1.79,0,0,0,1.45.55A2.34,2.34,0,0,0,100,8.67a2.25,2.25,0,0,0,.77-.69,1.61,1.61,0,0,0,.27-.87,3.12,3.12,0,0,0-.24-1.19,2.44,2.44,0,0,0-.71-1A1.84,1.84,0,0,0,98.89,4.54Z"/><path class="cls-6" d="M103.37,12.89a.89.89,0,0,1,.25-.73.91.91,0,0,1,.6-.21,1,1,0,0,1,.62.21.9.9,0,0,1,.26.73.92.92,0,0,1-.26.73.94.94,0,0,1-.62.22.87.87,0,0,1-.6-.22A.92.92,0,0,1,103.37,12.89Z"/><path class="cls-6" d="M106.42,9.38a11.64,11.64,0,0,1,.19-2.13,5.69,5.69,0,0,1,.68-1.89A3.71,3.71,0,0,1,108.69,4a4.71,4.71,0,0,1,2.31-.5l.65,0a2.66,2.66,0,0,1,.58.1V4.69a2.93,2.93,0,0,0-.58-.13,4.44,4.44,0,0,0-.63,0,3.53,3.53,0,0,0-1.61.32,2.55,2.55,0,0,0-1,.88A3.74,3.74,0,0,0,107.86,7a9.21,9.21,0,0,0-.21,1.55h.08a2.89,2.89,0,0,1,.9-.83,2.81,2.81,0,0,1,1.47-.34,2.84,2.84,0,0,1,2.1.79,3,3,0,0,1,.8,2.24,3.44,3.44,0,0,1-.86,2.47,3.07,3.07,0,0,1-2.32.9,3.19,3.19,0,0,1-1.72-.48,3.26,3.26,0,0,1-1.23-1.46A5.93,5.93,0,0,1,106.42,9.38Zm3.39,3.37a1.88,1.88,0,0,0,1.42-.57,2.43,2.43,0,0,0,.55-1.76,2.26,2.26,0,0,0-.48-1.51,1.83,1.83,0,0,0-1.45-.56,2.25,2.25,0,0,0-1.15.28,2,2,0,0,0-.76.7,1.52,1.52,0,0,0-.28.86,3.12,3.12,0,0,0,.24,1.19,2.3,2.3,0,0,0,.72,1A1.79,1.79,0,0,0,109.81,12.75Z"/></g><path class="cls-6" d="M521.17,74.33h-6.61v-1l2.62-2.64c.49-.51.92-1,1.27-1.35a4.84,4.84,0,0,0,.79-1.15,2.93,2.93,0,0,0,.26-1.24,1.55,1.55,0,0,0-.49-1.25,1.83,1.83,0,0,0-1.27-.43,3,3,0,0,0-1.29.25,5.84,5.84,0,0,0-1.12.7l-.66-.82a5.71,5.71,0,0,1,1.35-.84,4.13,4.13,0,0,1,1.72-.34,3.26,3.26,0,0,1,2.21.71,2.48,2.48,0,0,1,.81,2,3.36,3.36,0,0,1-.32,1.47,5.72,5.72,0,0,1-.9,1.36c-.38.44-.83.92-1.34,1.41l-2.09,2.06v0h5.06Z"/><path class="cls-6" d="M525.59,64.2a3.56,3.56,0,0,1,2.16.61,2.29,2.29,0,0,1,.58,2.83,2.59,2.59,0,0,1-.69.79,5.22,5.22,0,0,1-1,.61,8.5,8.5,0,0,1,1.12.67,3,3,0,0,1,.81.86,2.23,2.23,0,0,1,.3,1.18,2.44,2.44,0,0,1-.9,2,3.62,3.62,0,0,1-2.38.74,3.82,3.82,0,0,1-2.48-.71,2.43,2.43,0,0,1-.86-2,2.31,2.31,0,0,1,.29-1.19,2.75,2.75,0,0,1,.76-.87,5.91,5.91,0,0,1,1-.62,4.82,4.82,0,0,1-1.25-1,2.32,2.32,0,0,1-.5-1.52,2.14,2.14,0,0,1,.39-1.29,2.52,2.52,0,0,1,1.07-.81A3.82,3.82,0,0,1,525.59,64.2Zm-2.1,7.6A1.59,1.59,0,0,0,524,73a2.3,2.3,0,0,0,1.6.49,2.28,2.28,0,0,0,1.56-.49,1.6,1.6,0,0,0,.54-1.25,1.52,1.52,0,0,0-.58-1.21,5.27,5.27,0,0,0-1.52-.85l-.23-.08a4.29,4.29,0,0,0-1.4.91A1.73,1.73,0,0,0,523.49,71.8Zm2.09-6.61a2.13,2.13,0,0,0-1.28.37,1.29,1.29,0,0,0-.49,1.07,1.49,1.49,0,0,0,.25.87,2,2,0,0,0,.66.6,10.05,10.05,0,0,0,.93.47,5,5,0,0,0,1.22-.74,1.49,1.49,0,0,0,.5-1.2,1.26,1.26,0,0,0-.49-1.07A2.15,2.15,0,0,0,525.58,65.19Z"/><path class="cls-6" d="M530.37,73.58a.89.89,0,0,1,.25-.73.91.91,0,0,1,.6-.21,1,1,0,0,1,.62.21.9.9,0,0,1,.26.73.92.92,0,0,1-.26.73.94.94,0,0,1-.62.22.87.87,0,0,1-.6-.22A.92.92,0,0,1,530.37,73.58Z"/><path class="cls-6" d="M536.86,64.2a3.56,3.56,0,0,1,2.16.61,2.29,2.29,0,0,1,.58,2.83,2.59,2.59,0,0,1-.69.79,5.22,5.22,0,0,1-1,.61,8.5,8.5,0,0,1,1.12.67,3,3,0,0,1,.81.86,2.23,2.23,0,0,1,.3,1.18,2.44,2.44,0,0,1-.9,2,3.62,3.62,0,0,1-2.38.74,3.82,3.82,0,0,1-2.48-.71,2.7,2.7,0,0,1-.58-3.17,2.91,2.91,0,0,1,.77-.87,5.55,5.55,0,0,1,1-.62,4.82,4.82,0,0,1-1.25-1,2.32,2.32,0,0,1-.5-1.52,2.14,2.14,0,0,1,.39-1.29,2.52,2.52,0,0,1,1.07-.81A3.82,3.82,0,0,1,536.86,64.2Zm-2.1,7.6a1.56,1.56,0,0,0,.52,1.21,2.79,2.79,0,0,0,3.16,0,1.6,1.6,0,0,0,.54-1.25,1.52,1.52,0,0,0-.58-1.21,5.27,5.27,0,0,0-1.52-.85l-.23-.08a4.29,4.29,0,0,0-1.4.91A1.73,1.73,0,0,0,534.76,71.8Zm2.09-6.61a2.13,2.13,0,0,0-1.28.37,1.29,1.29,0,0,0-.49,1.07,1.49,1.49,0,0,0,.25.87,2,2,0,0,0,.66.6,10.05,10.05,0,0,0,.93.47,5,5,0,0,0,1.22-.74,1.52,1.52,0,0,0,.5-1.2,1.26,1.26,0,0,0-.49-1.07A2.15,2.15,0,0,0,536.85,65.19Z"/><path class="cls-9" d="M257.13,170.7h-6.61v-1l2.62-2.64c.49-.5.92-.95,1.27-1.34a5.27,5.27,0,0,0,.79-1.15,3,3,0,0,0,.26-1.25A1.55,1.55,0,0,0,255,162a1.83,1.83,0,0,0-1.27-.43,3.16,3.16,0,0,0-1.29.25,5.84,5.84,0,0,0-1.12.7l-.66-.82a5.71,5.71,0,0,1,1.35-.84,4.29,4.29,0,0,1,1.72-.34,3.21,3.21,0,0,1,2.21.72,2.44,2.44,0,0,1,.81,1.94,3.5,3.5,0,0,1-.32,1.47,5.72,5.72,0,0,1-.9,1.36,18.89,18.89,0,0,1-1.34,1.41l-2.09,2.06v.06h5.06Z"/><path class="cls-9" d="M259.3,169.94a.81.81,0,0,1,.85-.94,1,1,0,0,1,.62.21.88.88,0,0,1,.26.73.89.89,0,0,1-.26.73.92.92,0,0,1-.62.22.87.87,0,0,1-.6-.22A.92.92,0,0,1,259.3,169.94Z"/><path class="cls-9" d="M269.6,163a2.21,2.21,0,0,1-.57,1.6,2.76,2.76,0,0,1-1.5.79v.06a2.78,2.78,0,0,1,1.78.76,2.2,2.2,0,0,1,.6,1.61,3,3,0,0,1-.41,1.55,2.63,2.63,0,0,1-1.25,1.05,5.4,5.4,0,0,1-2.18.38,8.26,8.26,0,0,1-1.45-.12,4.56,4.56,0,0,1-1.29-.43v-1.15a5.5,5.5,0,0,0,1.36.49,5.76,5.76,0,0,0,1.4.17,2.92,2.92,0,0,0,1.94-.52,1.86,1.86,0,0,0,.59-1.45,1.41,1.41,0,0,0-.73-1.35,4.21,4.21,0,0,0-2.07-.42h-1V165h1a2.9,2.9,0,0,0,1.86-.51,1.69,1.69,0,0,0,.64-1.38,1.35,1.35,0,0,0-.49-1.12,2,2,0,0,0-1.33-.4,3.76,3.76,0,0,0-1.38.23,6.64,6.64,0,0,0-1.14.61l-.61-.84a5,5,0,0,1,3.12-1,3.35,3.35,0,0,1,2.33.7A2.31,2.31,0,0,1,269.6,163Z"/><path class="cls-9" d="M470.63,170.7H464v-1l2.62-2.64c.49-.5.92-.95,1.27-1.34a5.27,5.27,0,0,0,.79-1.15,3,3,0,0,0,.26-1.25,1.55,1.55,0,0,0-.49-1.25,1.83,1.83,0,0,0-1.27-.43,3.16,3.16,0,0,0-1.29.25,5.84,5.84,0,0,0-1.12.7l-.66-.82a5.71,5.71,0,0,1,1.35-.84,4.29,4.29,0,0,1,1.72-.34,3.21,3.21,0,0,1,2.21.72,2.44,2.44,0,0,1,.81,1.94,3.36,3.36,0,0,1-.32,1.47,5.72,5.72,0,0,1-.9,1.36,18.89,18.89,0,0,1-1.34,1.41l-2.09,2.06v.06h5.06Z"/><path class="cls-9" d="M472.8,169.94a.81.81,0,0,1,.85-.94,1,1,0,0,1,.62.21.88.88,0,0,1,.26.73.89.89,0,0,1-.26.73.94.94,0,0,1-.62.22.87.87,0,0,1-.6-.22A.92.92,0,0,1,472.8,169.94Z"/><path class="cls-9" d="M479.94,164.57a3.67,3.67,0,0,1,2.44.76,2.7,2.7,0,0,1,.92,2.17,3.12,3.12,0,0,1-1,2.45,4,4,0,0,1-2.75.89,7.46,7.46,0,0,1-1.46-.14,4,4,0,0,1-1.13-.41v-1.16a4.21,4.21,0,0,0,1.23.48,5.61,5.61,0,0,0,1.37.18,2.84,2.84,0,0,0,1.79-.53,1.93,1.93,0,0,0,.68-1.63,1.89,1.89,0,0,0-.6-1.5,2.89,2.89,0,0,0-1.91-.53,6,6,0,0,0-.89.07c-.34.05-.61.09-.82.14l-.61-.39.38-4.72h5v1.12h-4l-.24,2.9.64-.1A6.25,6.25,0,0,1,479.94,164.57Z"/><path class="cls-8" d="M253.57,77.4H247v-1l2.62-2.65c.5-.5.92-1,1.27-1.34a5,5,0,0,0,.79-1.15,2.82,2.82,0,0,0,.27-1.24,1.6,1.6,0,0,0-.49-1.26,1.92,1.92,0,0,0-1.28-.43,3.06,3.06,0,0,0-1.29.26,5.66,5.66,0,0,0-1.12.7l-.65-.83a5.68,5.68,0,0,1,1.35-.83,4.12,4.12,0,0,1,1.71-.35,3.2,3.2,0,0,1,2.21.72,2.43,2.43,0,0,1,.82,1.94,3.38,3.38,0,0,1-.33,1.48,6.16,6.16,0,0,1-.89,1.35c-.39.45-.83.92-1.35,1.42l-2.08,2.06v0h5Z"/><path class="cls-8" d="M261.87,71.67a11.64,11.64,0,0,1-.19,2.13,5.69,5.69,0,0,1-.68,1.89A3.71,3.71,0,0,1,259.6,77a4.8,4.8,0,0,1-2.32.5l-.66,0a3.25,3.25,0,0,1-.6-.11V76.35a4,4,0,0,0,1.23.18,3.49,3.49,0,0,0,1.62-.32,2.71,2.71,0,0,0,1-.87,3.74,3.74,0,0,0,.54-1.29,8.53,8.53,0,0,0,.2-1.55h-.09a2.72,2.72,0,0,1-.89.82,2.86,2.86,0,0,1-1.49.34,2.82,2.82,0,0,1-2.08-.79,3,3,0,0,1-.79-2.23,3.81,3.81,0,0,1,.4-1.81,2.76,2.76,0,0,1,1.11-1.16,3.38,3.38,0,0,1,1.69-.41,3.22,3.22,0,0,1,1.72.49,3.33,3.33,0,0,1,1.22,1.45A6.1,6.1,0,0,1,261.87,71.67Zm-3.38-3.37a1.88,1.88,0,0,0-1.43.58,2.45,2.45,0,0,0-.55,1.74,2.27,2.27,0,0,0,.47,1.52,1.8,1.8,0,0,0,1.45.56,2.24,2.24,0,0,0,1.16-.28,2,2,0,0,0,.76-.69,1.52,1.52,0,0,0,.28-.87,3.12,3.12,0,0,0-.24-1.19,2.51,2.51,0,0,0-.71-1A1.83,1.83,0,0,0,258.49,68.3Z"/><path class="cls-8" d="M263.65,76.65a.81.81,0,0,1,.86-.94,1,1,0,0,1,.61.21.87.87,0,0,1,.27.73.89.89,0,0,1-.27.72.93.93,0,0,1-.61.23.89.89,0,0,1-.61-.23A1,1,0,0,1,263.65,76.65Z"/><path class="cls-8" d="M268.19,77.4l4.1-8.88H266.9V67.4h6.71v1l-4.06,9Z"/><path class="cls-8" d="M466.58,95.36H460v-1l2.62-2.65c.5-.5.92-1,1.27-1.34a4.84,4.84,0,0,0,.79-1.15,2.82,2.82,0,0,0,.27-1.24,1.62,1.62,0,0,0-.49-1.26,1.92,1.92,0,0,0-1.28-.42,3.06,3.06,0,0,0-1.29.25,6.16,6.16,0,0,0-1.12.7l-.65-.83a6,6,0,0,1,1.35-.83,4.11,4.11,0,0,1,1.71-.34,3.21,3.21,0,0,1,2.21.71,2.45,2.45,0,0,1,.82,2,3.36,3.36,0,0,1-.33,1.47,5.93,5.93,0,0,1-.89,1.35,19.06,19.06,0,0,1-1.35,1.42l-2.08,2.06v0h5.05Z"/><path class="cls-8" d="M474.73,87.7a2.23,2.23,0,0,1-.57,1.61,2.86,2.86,0,0,1-1.5.79v.05a2.91,2.91,0,0,1,1.78.76,2.21,2.21,0,0,1,.6,1.61,2.91,2.91,0,0,1-.41,1.55,2.67,2.67,0,0,1-1.25,1.05,5.26,5.26,0,0,1-2.18.38,8.18,8.18,0,0,1-1.45-.12,4.87,4.87,0,0,1-1.29-.42V93.81a5.93,5.93,0,0,0,1.36.49,6.28,6.28,0,0,0,1.39.17,2.89,2.89,0,0,0,1.94-.53,1.82,1.82,0,0,0,.6-1.45,1.44,1.44,0,0,0-.74-1.35,4.29,4.29,0,0,0-2.06-.41h-1v-1h1a2.88,2.88,0,0,0,1.87-.52,1.66,1.66,0,0,0,.64-1.37,1.37,1.37,0,0,0-.49-1.13,2.09,2.09,0,0,0-1.33-.4,3.64,3.64,0,0,0-1.39.24,7.25,7.25,0,0,0-1.13.6l-.62-.84a5.37,5.37,0,0,1,1.33-.73,5,5,0,0,1,1.79-.3,3.36,3.36,0,0,1,2.34.7A2.32,2.32,0,0,1,474.73,87.7Z"/><path class="cls-8" d="M477.18,94.61a.89.89,0,0,1,.25-.73.91.91,0,0,1,.6-.21,1,1,0,0,1,.62.21,1.11,1.11,0,0,1,0,1.45.93.93,0,0,1-.62.23.88.88,0,0,1-.6-.23A.9.9,0,0,1,477.18,94.61Z"/><path class="cls-8" d="M480.92,91.09a11.53,11.53,0,0,1,.19-2.12,5.69,5.69,0,0,1,.68-1.89,3.71,3.71,0,0,1,1.4-1.35,4.71,4.71,0,0,1,2.31-.5l.65,0a3.44,3.44,0,0,1,.58.1V86.4a3,3,0,0,0-.58-.12,4.46,4.46,0,0,0-.63,0,3.52,3.52,0,0,0-1.61.33,2.55,2.55,0,0,0-1,.88,3.74,3.74,0,0,0-.54,1.29,9.21,9.21,0,0,0-.21,1.55h.08a2.78,2.78,0,0,1,.9-.83,2.81,2.81,0,0,1,1.47-.35,2.84,2.84,0,0,1,2.1.8,3,3,0,0,1,.8,2.24,3.44,3.44,0,0,1-.86,2.47,3.1,3.1,0,0,1-2.32.89A3.24,3.24,0,0,1,482.6,95a3.32,3.32,0,0,1-1.23-1.46A5.94,5.94,0,0,1,480.92,91.09Zm3.39,3.38a1.88,1.88,0,0,0,1.42-.57,2.43,2.43,0,0,0,.55-1.76,2.24,2.24,0,0,0-.48-1.51,1.84,1.84,0,0,0-1.45-.56,2.35,2.35,0,0,0-1.15.27,2.15,2.15,0,0,0-.76.7,1.56,1.56,0,0,0-.28.86,3.13,3.13,0,0,0,.24,1.2,2.3,2.3,0,0,0,.72,1A1.79,1.79,0,0,0,484.31,94.47Z"/><path class="cls-8" d="M684.62,111.34a2.22,2.22,0,0,1-.57,1.6,2.79,2.79,0,0,1-1.5.79v.06a2.85,2.85,0,0,1,1.78.75,2.21,2.21,0,0,1,.6,1.61,3,3,0,0,1-.41,1.56,2.73,2.73,0,0,1-1.25,1.05,5.44,5.44,0,0,1-2.18.37,8.41,8.41,0,0,1-1.46-.11,5,5,0,0,1-1.28-.43v-1.15a5.57,5.57,0,0,0,1.35.49,6.44,6.44,0,0,0,1.4.17,2.89,2.89,0,0,0,1.94-.53,1.82,1.82,0,0,0,.6-1.45,1.44,1.44,0,0,0-.74-1.35,4.32,4.32,0,0,0-2.06-.41h-1v-1h1a2.88,2.88,0,0,0,1.87-.52,1.66,1.66,0,0,0,.64-1.37,1.41,1.41,0,0,0-.49-1.13,2.08,2.08,0,0,0-1.33-.39,3.61,3.61,0,0,0-1.39.23,6.56,6.56,0,0,0-1.13.61l-.62-.84a5.16,5.16,0,0,1,1.32-.73,4.85,4.85,0,0,1,1.8-.31,3.31,3.31,0,0,1,2.33.7A2.32,2.32,0,0,1,684.62,111.34Z"/><path class="cls-8" d="M686.52,118.24a.81.81,0,0,1,.86-.94,1,1,0,0,1,.61.21.87.87,0,0,1,.27.73.89.89,0,0,1-.27.73.92.92,0,0,1-.61.22.88.88,0,0,1-.61-.22A1,1,0,0,1,686.52,118.24Z"/><path class="cls-8" d="M689.7,114.73a11.64,11.64,0,0,1,.19-2.13,5.69,5.69,0,0,1,.68-1.89,3.78,3.78,0,0,1,1.4-1.35,4.71,4.71,0,0,1,2.31-.5l.65,0a2.55,2.55,0,0,1,.58.1V110a3,3,0,0,0-.57-.13,4.64,4.64,0,0,0-.63,0,3.47,3.47,0,0,0-1.61.32,2.58,2.58,0,0,0-1,.88,3.74,3.74,0,0,0-.54,1.29,9.21,9.21,0,0,0-.21,1.55H691a2.75,2.75,0,0,1,.89-.83,2.81,2.81,0,0,1,1.47-.34,2.84,2.84,0,0,1,2.1.79,3,3,0,0,1,.8,2.25,3.43,3.43,0,0,1-.86,2.46,3.07,3.07,0,0,1-2.32.89,3.18,3.18,0,0,1-1.72-.47,3.33,3.33,0,0,1-1.23-1.46A5.93,5.93,0,0,1,689.7,114.73Zm3.39,3.37a1.9,1.9,0,0,0,1.43-.57,2.46,2.46,0,0,0,.54-1.75,2.27,2.27,0,0,0-.48-1.52,1.83,1.83,0,0,0-1.45-.56A2.25,2.25,0,0,0,692,114a2.06,2.06,0,0,0-.76.7,1.58,1.58,0,0,0-.27.86,3.11,3.11,0,0,0,.23,1.19,2.3,2.3,0,0,0,.72,1A1.79,1.79,0,0,0,693.09,118.1Z"/><path class="cls-9" d="M43.47,170.7h-6.6v-1L39.48,167c.5-.5.92-.95,1.27-1.34a5.27,5.27,0,0,0,.79-1.15,2.86,2.86,0,0,0,.27-1.25,1.55,1.55,0,0,0-.49-1.25,1.85,1.85,0,0,0-1.28-.43,3.14,3.14,0,0,0-1.28.25,5.55,5.55,0,0,0-1.12.7l-.66-.82a5.71,5.71,0,0,1,1.35-.84,4.28,4.28,0,0,1,1.71-.34,3.24,3.24,0,0,1,2.22.72,2.44,2.44,0,0,1,.81,1.94,3.5,3.5,0,0,1-.32,1.47,6.4,6.4,0,0,1-.9,1.36,18.89,18.89,0,0,1-1.34,1.41l-2.09,2.06v.06h5Z"/><path class="cls-9" d="M45.64,169.94a.91.91,0,0,1,.26-.73.88.88,0,0,1,.6-.21.94.94,0,0,1,.61.21.88.88,0,0,1,.27.73.85.85,0,0,1-.88.95.84.84,0,0,1-.6-.22A.92.92,0,0,1,45.64,169.94Z"/><path class="cls-9" d="M52.78,164.57a3.7,3.7,0,0,1,2.45.76,2.69,2.69,0,0,1,.91,2.17,3.15,3.15,0,0,1-1,2.45,4,4,0,0,1-2.75.89A7.38,7.38,0,0,1,51,170.7a3.82,3.82,0,0,1-1.13-.41v-1.16a4.14,4.14,0,0,0,1.22.48,5.69,5.69,0,0,0,1.38.18,2.86,2.86,0,0,0,1.79-.53,1.93,1.93,0,0,0,.67-1.63,1.89,1.89,0,0,0-.6-1.5,2.84,2.84,0,0,0-1.9-.53,6.2,6.2,0,0,0-.9.07c-.33.05-.6.09-.81.14l-.62-.39.38-4.72h5v1.12h-4l-.24,2.9.65-.1A6.19,6.19,0,0,1,52.78,164.57Z"/><path class="cls-9" d="M39.27,72.22a2.24,2.24,0,0,1-.56,1.6,2.79,2.79,0,0,1-1.51.79v.06a2.86,2.86,0,0,1,1.79.76A2.23,2.23,0,0,1,39.58,77a3,3,0,0,1-.4,1.55,2.65,2.65,0,0,1-1.26,1,5.38,5.38,0,0,1-2.17.38,8.3,8.3,0,0,1-1.46-.12A4.56,4.56,0,0,1,33,79.47V78.32a5.5,5.5,0,0,0,1.36.49,5.82,5.82,0,0,0,1.4.17,2.91,2.91,0,0,0,1.94-.52A1.83,1.83,0,0,0,38.29,77a1.41,1.41,0,0,0-.73-1.35,4.22,4.22,0,0,0-2.07-.41h-1V74.19h1a3,3,0,0,0,1.87-.51A1.71,1.71,0,0,0,38,72.3a1.35,1.35,0,0,0-.49-1.12,2,2,0,0,0-1.33-.4,3.55,3.55,0,0,0-1.38.24,7.82,7.82,0,0,0-1.14.6l-.61-.84a5.12,5.12,0,0,1,1.32-.73,5.07,5.07,0,0,1,1.8-.31,3.38,3.38,0,0,1,2.33.7A2.31,2.31,0,0,1,39.27,72.22Z"/><path class="cls-9" d="M47.69,72.22a2.21,2.21,0,0,1-.57,1.6,2.79,2.79,0,0,1-1.5.79v.06a2.85,2.85,0,0,1,1.78.76A2.2,2.2,0,0,1,48,77a3,3,0,0,1-.41,1.55,2.67,2.67,0,0,1-1.25,1,5.43,5.43,0,0,1-2.18.38,8.38,8.38,0,0,1-1.46-.12,4.6,4.6,0,0,1-1.28-.43V78.32a5.57,5.57,0,0,0,1.35.49,5.88,5.88,0,0,0,1.4.17,2.89,2.89,0,0,0,1.94-.52,1.84,1.84,0,0,0,.6-1.45A1.42,1.42,0,0,0,46,75.66a4.2,4.2,0,0,0-2.06-.41h-1V74.19h1a2.94,2.94,0,0,0,1.87-.51,1.69,1.69,0,0,0,.64-1.38,1.38,1.38,0,0,0-.49-1.12,2,2,0,0,0-1.33-.4,3.6,3.6,0,0,0-1.39.24,7.25,7.25,0,0,0-1.13.6l-.62-.84a5.48,5.48,0,0,1,1.32-.73,5.07,5.07,0,0,1,1.8-.31,3.41,3.41,0,0,1,2.34.7A2.34,2.34,0,0,1,47.69,72.22Z"/><path class="cls-9" d="M50.14,79.12a.8.8,0,0,1,.85-.93.92.92,0,0,1,.62.21.84.84,0,0,1,.26.72.89.89,0,0,1-.26.73.92.92,0,0,1-.62.22.87.87,0,0,1-.6-.22A.92.92,0,0,1,50.14,79.12Z"/><path class="cls-9" d="M54.67,79.88,58.78,71H53.39V69.88h6.7v1l-4.06,9Z"/><path class="cls-9" d="M253.85,99h-6.61V98l2.62-2.64c.5-.51.92-.95,1.27-1.35a5,5,0,0,0,.79-1.14,2.86,2.86,0,0,0,.27-1.25,1.58,1.58,0,0,0-.49-1.25,1.87,1.87,0,0,0-1.28-.43,3.06,3.06,0,0,0-1.29.25,6.16,6.16,0,0,0-1.12.7l-.65-.82a5.71,5.71,0,0,1,1.35-.84,4.28,4.28,0,0,1,1.71-.34,3.24,3.24,0,0,1,2.21.71,2.45,2.45,0,0,1,.82,2,3.36,3.36,0,0,1-.33,1.47,6,6,0,0,1-.89,1.36,17.26,17.26,0,0,1-1.35,1.41l-2.08,2.06v.06h5Z"/><path class="cls-9" d="M256.71,99l4.1-8.88h-5.39V89h6.71v1l-4.06,9Z"/><path class="cls-9" d="M262.92,98.26a.91.91,0,0,1,.26-.73.88.88,0,0,1,.6-.21.94.94,0,0,1,.61.21.88.88,0,0,1,.27.73.85.85,0,0,1-.88.95.84.84,0,0,1-.6-.22A.92.92,0,0,1,262.92,98.26Z"/><path class="cls-9" d="M273.76,96.75H272.3V99h-1.19V96.75h-4.78v-1L271,89h1.27v6.68h1.46Zm-2.65-1.11V92.49c0-.48,0-.9,0-1.24s0-.66.05-1h-.05c-.08.18-.17.37-.28.57a4.39,4.39,0,0,1-.32.52l-3,4.27Z"/><path class="cls-9" d="M467.67,117h-6.6v-1l2.61-2.65c.5-.5.92-1,1.27-1.34a4.94,4.94,0,0,0,.79-1.15,2.83,2.83,0,0,0,.27-1.25,1.58,1.58,0,0,0-.49-1.25,1.9,1.9,0,0,0-1.28-.43,3.14,3.14,0,0,0-1.28.25,6,6,0,0,0-1.12.7l-.66-.82a5.37,5.37,0,0,1,1.35-.83,4.12,4.12,0,0,1,1.71-.35,3.22,3.22,0,0,1,2.22.72,2.44,2.44,0,0,1,.81,1.94A3.44,3.44,0,0,1,467,111a6.4,6.4,0,0,1-.9,1.36,18.89,18.89,0,0,1-1.34,1.41l-2.09,2.06v.06h5.05Z"/><path class="cls-9" d="M473.41,117h-1.2v-7c0-.4,0-.72,0-1s0-.5,0-.76a4.51,4.51,0,0,1-.42.38l-.45.39-1.07.87-.64-.83,2.7-2.1h1Z"/><path class="cls-9" d="M477.08,116.22a.94.94,0,0,1,.25-.73.92.92,0,0,1,.61-.21.94.94,0,0,1,.61.21.88.88,0,0,1,.27.73.85.85,0,0,1-.88,1,.88.88,0,0,1-.61-.22A1,1,0,0,1,477.08,116.22Z"/><path class="cls-9" d="M484.08,117h-1.2v-7c0-.4,0-.72,0-1s0-.5,0-.76a3.48,3.48,0,0,1-.41.38c-.12.1-.28.23-.45.39l-1.07.87-.64-.83,2.7-2.1h1Z"/><path class="cls-3" d="M683.33,135.29h-1.2v-7c0-.4,0-.72,0-1s0-.5,0-.76a4.5,4.5,0,0,1-.41.38c-.13.1-.28.23-.46.39l-1.06.87-.64-.83,2.7-2.1h1Z"/><path class="cls-3" d="M686.35,134.54a.9.9,0,0,1,.26-.73.88.88,0,0,1,.6-.21.94.94,0,0,1,.61.21.87.87,0,0,1,.27.73.89.89,0,0,1-.27.72.91.91,0,0,1-.61.23.85.85,0,0,1-.6-.23A.92.92,0,0,1,686.35,134.54Z"/><path class="cls-3" d="M696.11,127.63a2.25,2.25,0,0,1-.57,1.61,2.79,2.79,0,0,1-1.5.79v.05a2.94,2.94,0,0,1,1.79.76,2.25,2.25,0,0,1,.59,1.61A2.94,2.94,0,0,1,696,134a2.63,2.63,0,0,1-1.25,1.05,5.4,5.4,0,0,1-2.18.38,8.26,8.26,0,0,1-1.45-.12,4.56,4.56,0,0,1-1.29-.43v-1.14a5.93,5.93,0,0,0,1.36.49,6.27,6.27,0,0,0,1.4.16,2.92,2.92,0,0,0,1.94-.52,1.85,1.85,0,0,0,.59-1.45,1.43,1.43,0,0,0-.73-1.35,4.22,4.22,0,0,0-2.07-.41h-1v-1h1a2.9,2.9,0,0,0,1.86-.52,1.67,1.67,0,0,0,.64-1.37,1.37,1.37,0,0,0-.49-1.13,2,2,0,0,0-1.33-.4,3.55,3.55,0,0,0-1.38.24,6.92,6.92,0,0,0-1.14.6l-.61-.84a4.93,4.93,0,0,1,3.12-1,3.35,3.35,0,0,1,2.33.7A2.27,2.27,0,0,1,696.11,127.63Z"/><path class="cls-5" d="M684.42,158.31h-6.61v-1l2.62-2.64c.5-.51.92-.95,1.27-1.35a5,5,0,0,0,.79-1.14,2.86,2.86,0,0,0,.27-1.25,1.58,1.58,0,0,0-.49-1.25,1.85,1.85,0,0,0-1.28-.43,3.06,3.06,0,0,0-1.29.25,6.16,6.16,0,0,0-1.12.7l-.65-.82a5.71,5.71,0,0,1,1.35-.84,4.28,4.28,0,0,1,1.71-.34,3.24,3.24,0,0,1,2.21.71,2.45,2.45,0,0,1,.82,2,3.36,3.36,0,0,1-.33,1.47,6,6,0,0,1-.89,1.36,17.26,17.26,0,0,1-1.35,1.41l-2.08,2.06v.06h5Z"/><path class="cls-5" d="M686.31,157.55a.94.94,0,0,1,.25-.73.92.92,0,0,1,.61-.21,1,1,0,0,1,.61.21.88.88,0,0,1,.27.73.89.89,0,0,1-.27.73.92.92,0,0,1-.61.22.88.88,0,0,1-.61-.22A1,1,0,0,1,686.31,157.55Z"/><path class="cls-5" d="M696.07,150.65a2.21,2.21,0,0,1-.57,1.6,2.79,2.79,0,0,1-1.5.79v.06a2.82,2.82,0,0,1,1.78.75,2.23,2.23,0,0,1,.6,1.61A3,3,0,0,1,696,157a2.67,2.67,0,0,1-1.25,1,5.43,5.43,0,0,1-2.18.38,8.18,8.18,0,0,1-1.45-.12,4.56,4.56,0,0,1-1.29-.43v-1.15a5.5,5.5,0,0,0,1.36.49,6.3,6.3,0,0,0,1.4.17,2.92,2.92,0,0,0,1.94-.52,1.86,1.86,0,0,0,.59-1.45,1.42,1.42,0,0,0-.74-1.35,4.14,4.14,0,0,0-2.06-.42h-1v-1h1a2.88,2.88,0,0,0,1.87-.52,1.66,1.66,0,0,0,.64-1.37,1.35,1.35,0,0,0-.49-1.12,2,2,0,0,0-1.33-.4,3.85,3.85,0,0,0-1.39.23,6.56,6.56,0,0,0-1.13.61l-.62-.84a5.06,5.06,0,0,1,1.33-.73,4.78,4.78,0,0,1,1.8-.31,3.35,3.35,0,0,1,2.33.7A2.31,2.31,0,0,1,696.07,150.65Z"/><path class="cls-8" d="M38.88,50.63a2.23,2.23,0,0,1-.57,1.61,2.79,2.79,0,0,1-1.5.79v0a2.94,2.94,0,0,1,1.79.76,2.25,2.25,0,0,1,.59,1.61A2.91,2.91,0,0,1,38.78,57a2.63,2.63,0,0,1-1.25,1,5.23,5.23,0,0,1-2.18.38,8.26,8.26,0,0,1-1.45-.12,4.87,4.87,0,0,1-1.29-.42V56.74a5.93,5.93,0,0,0,1.36.49,6.3,6.3,0,0,0,1.4.17,2.92,2.92,0,0,0,1.94-.53,1.85,1.85,0,0,0,.59-1.45,1.43,1.43,0,0,0-.73-1.35,4.22,4.22,0,0,0-2.07-.41h-1v-1h1A2.9,2.9,0,0,0,37,52.09a1.67,1.67,0,0,0,.64-1.37,1.37,1.37,0,0,0-.49-1.13,2,2,0,0,0-1.33-.4,3.55,3.55,0,0,0-1.38.24,7.34,7.34,0,0,0-1.14.6l-.61-.84A5.12,5.12,0,0,1,34,48.46a5.07,5.07,0,0,1,1.8-.31,3.4,3.4,0,0,1,2.33.7A2.31,2.31,0,0,1,38.88,50.63Z"/><path class="cls-8" d="M41.18,54a11.53,11.53,0,0,1,.19-2.12A5.53,5.53,0,0,1,42.05,50a3.71,3.71,0,0,1,1.4-1.35,4.6,4.6,0,0,1,2.31-.51l.65,0a2.66,2.66,0,0,1,.58.1v1a2.37,2.37,0,0,0-.58-.12,4.46,4.46,0,0,0-.63-.05,3.66,3.66,0,0,0-1.61.32,2.57,2.57,0,0,0-1,.89,3.78,3.78,0,0,0-.54,1.28,9.47,9.47,0,0,0-.21,1.56h.08a2.67,2.67,0,0,1,.9-.83A2.81,2.81,0,0,1,44.86,52a2.88,2.88,0,0,1,2.1.79,3,3,0,0,1,.8,2.25,3.44,3.44,0,0,1-.86,2.47,3.1,3.1,0,0,1-2.32.89A3.24,3.24,0,0,1,42.86,58a3.32,3.32,0,0,1-1.23-1.46A5.94,5.94,0,0,1,41.18,54Zm3.39,3.38A1.88,1.88,0,0,0,46,56.83a2.44,2.44,0,0,0,.55-1.76,2.24,2.24,0,0,0-.48-1.51A1.84,1.84,0,0,0,44.61,53a2.35,2.35,0,0,0-1.15.27,2.06,2.06,0,0,0-.76.7,1.54,1.54,0,0,0-.28.86,3.21,3.21,0,0,0,.24,1.2,2.37,2.37,0,0,0,.72,1A1.79,1.79,0,0,0,44.57,57.4Z"/><path class="cls-8" d="M49.8,57.54a.81.81,0,0,1,.86-.94,1,1,0,0,1,.61.21.87.87,0,0,1,.27.73.89.89,0,0,1-.27.72.93.93,0,0,1-.61.23.89.89,0,0,1-.61-.23A1,1,0,0,1,49.8,57.54Z"/><path class="cls-8" d="M60.41,58.29h-6.6v-1l2.61-2.65c.5-.5.92-.95,1.27-1.34a5,5,0,0,0,.79-1.15,2.82,2.82,0,0,0,.27-1.24,1.6,1.6,0,0,0-.49-1.26A1.9,1.9,0,0,0,57,49.21a3,3,0,0,0-1.28.25,5.14,5.14,0,0,0-1.12.7l-.66-.83a5.68,5.68,0,0,1,1.35-.83A4.12,4.12,0,0,1,57,48.15a3.24,3.24,0,0,1,2.22.72A2.46,2.46,0,0,1,60,50.81a3.51,3.51,0,0,1-.32,1.48,6.61,6.61,0,0,1-.9,1.35c-.38.45-.83.92-1.34,1.42l-2.09,2.06v.05h5Z"/><path class="cls-10" d="M97.4,131a11.45,11.45,0,0,1-.19,2.12,5.53,5.53,0,0,1-.68,1.89,3.71,3.71,0,0,1-1.4,1.35,4.72,4.72,0,0,1-2.32.5l-.66,0a3.37,3.37,0,0,1-.6-.1v-1.05a3.88,3.88,0,0,0,1.23.18,3.51,3.51,0,0,0,1.62-.33,2.59,2.59,0,0,0,1-.87,3.57,3.57,0,0,0,.55-1.29,8.41,8.41,0,0,0,.2-1.55h-.09a2.62,2.62,0,0,1-.89.82,2.88,2.88,0,0,1-1.49.35,2.84,2.84,0,0,1-2.08-.79,3.07,3.07,0,0,1-.79-2.24,3.86,3.86,0,0,1,.39-1.8A2.87,2.87,0,0,1,92.33,127a3.37,3.37,0,0,1,1.68-.4A3.08,3.08,0,0,1,97,128.51,5.9,5.9,0,0,1,97.4,131ZM94,127.61a1.91,1.91,0,0,0-1.42.57,2.43,2.43,0,0,0-.55,1.75,2.3,2.3,0,0,0,.47,1.52A1.78,1.78,0,0,0,94,132a2.37,2.37,0,0,0,1.16-.27,2,2,0,0,0,.76-.69,1.63,1.63,0,0,0,.28-.87,3.12,3.12,0,0,0-.24-1.19,2.37,2.37,0,0,0-.72-1A1.79,1.79,0,0,0,94,127.61Z"/><path class="cls-10" d="M99.18,136a.89.89,0,0,1,.25-.73.91.91,0,0,1,.6-.21,1,1,0,0,1,.62.21.87.87,0,0,1,.27.73.89.89,0,0,1-.27.73.92.92,0,0,1-.62.22.87.87,0,0,1-.6-.22A.92.92,0,0,1,99.18,136Z"/><path class="cls-10" d="M102.92,132.44a11.64,11.64,0,0,1,.19-2.13,5.69,5.69,0,0,1,.68-1.89,3.71,3.71,0,0,1,1.4-1.35,4.71,4.71,0,0,1,2.31-.5l.65,0a2.66,2.66,0,0,1,.58.1v1a2.93,2.93,0,0,0-.58-.13,4.44,4.44,0,0,0-.63,0,3.53,3.53,0,0,0-1.61.32,2.55,2.55,0,0,0-1,.88,3.74,3.74,0,0,0-.54,1.29,9.21,9.21,0,0,0-.21,1.55h.08a2.89,2.89,0,0,1,.9-.83,2.81,2.81,0,0,1,1.47-.34,2.84,2.84,0,0,1,2.1.79,3,3,0,0,1,.8,2.25,3.43,3.43,0,0,1-.86,2.46,3.07,3.07,0,0,1-2.32.89,3.18,3.18,0,0,1-1.72-.47,3.26,3.26,0,0,1-1.23-1.46A5.93,5.93,0,0,1,102.92,132.44Zm3.39,3.37a1.88,1.88,0,0,0,1.42-.57,2.42,2.42,0,0,0,.55-1.75,2.27,2.27,0,0,0-.48-1.52,1.83,1.83,0,0,0-1.45-.56,2.25,2.25,0,0,0-1.15.28,2,2,0,0,0-.76.7,1.52,1.52,0,0,0-.28.86,3.12,3.12,0,0,0,.24,1.19,2.3,2.3,0,0,0,.72,1A1.79,1.79,0,0,0,106.31,135.81Z"/><path class="cls-11" d="M147.06,143.26a3.62,3.62,0,0,1,2.44.77,2.67,2.67,0,0,1,.92,2.17,3.11,3.11,0,0,1-1,2.44,4,4,0,0,1-2.75.89,7.28,7.28,0,0,1-1.45-.14,3.71,3.71,0,0,1-1.14-.41v-1.16a4,4,0,0,0,1.23.48,5.69,5.69,0,0,0,1.38.18,2.83,2.83,0,0,0,1.78-.53,1.93,1.93,0,0,0,.68-1.63,1.89,1.89,0,0,0-.6-1.5,2.87,2.87,0,0,0-1.91-.53,7.7,7.7,0,0,0-.89.07l-.81.14-.62-.39.38-4.72h5v1.12h-4l-.24,2.9.64-.1A8.12,8.12,0,0,1,147.06,143.26Z"/><path class="cls-11" d="M152.53,148.63a.91.91,0,0,1,.26-.73.88.88,0,0,1,.6-.21.94.94,0,0,1,.61.21.88.88,0,0,1,.27.73.85.85,0,0,1-.88,1,.84.84,0,0,1-.6-.22A.92.92,0,0,1,152.53,148.63Z"/><path class="cls-11" d="M162.84,141.73a2.21,2.21,0,0,1-.57,1.6,2.79,2.79,0,0,1-1.5.79v.06a2.85,2.85,0,0,1,1.78.76,2.2,2.2,0,0,1,.6,1.61,3,3,0,0,1-.41,1.55,2.67,2.67,0,0,1-1.25,1.05,5.43,5.43,0,0,1-2.18.38,8.38,8.38,0,0,1-1.46-.12,4.6,4.6,0,0,1-1.28-.43v-1.15a5.57,5.57,0,0,0,1.35.49,5.88,5.88,0,0,0,1.4.17,2.89,2.89,0,0,0,1.94-.52,1.84,1.84,0,0,0,.6-1.45,1.42,1.42,0,0,0-.74-1.35,4.19,4.19,0,0,0-2.06-.42h-1v-1h1a2.93,2.93,0,0,0,1.87-.52,1.69,1.69,0,0,0,.64-1.38,1.38,1.38,0,0,0-.49-1.12,2,2,0,0,0-1.33-.4,3.6,3.6,0,0,0-1.39.24,7.25,7.25,0,0,0-1.13.6l-.62-.84a5.48,5.48,0,0,1,1.32-.73,5.07,5.07,0,0,1,1.8-.31,3.36,3.36,0,0,1,2.33.7A2.32,2.32,0,0,1,162.84,141.73Z"/><path class="cls-10" d="M305,131.62h-1.21v-7c0-.4,0-.73,0-1s0-.49,0-.75l-.41.37-.46.39-1.06.87-.65-.82,2.7-2.1h1Z"/><path class="cls-10" d="M312.16,131.62H311v-7c0-.4,0-.73,0-1s0-.49,0-.75c-.15.14-.28.27-.41.37l-.45.39-1.07.87-.64-.82,2.7-2.1h1Z"/><path class="cls-10" d="M315.83,130.87a.89.89,0,0,1,.25-.73.91.91,0,0,1,.6-.21,1,1,0,0,1,.62.21,1.11,1.11,0,0,1,0,1.45.93.93,0,0,1-.62.23.88.88,0,0,1-.6-.23A.9.9,0,0,1,315.83,130.87Z"/><path class="cls-10" d="M326.13,124a2.27,2.27,0,0,1-.56,1.61,2.86,2.86,0,0,1-1.51.79v.06a2.88,2.88,0,0,1,1.79.75,2.25,2.25,0,0,1,.59,1.61,2.91,2.91,0,0,1-.4,1.55,2.65,2.65,0,0,1-1.26,1,5.21,5.21,0,0,1-2.17.38,8.3,8.3,0,0,1-1.46-.12,4.87,4.87,0,0,1-1.29-.42v-1.15a5.93,5.93,0,0,0,1.36.49,6.37,6.37,0,0,0,1.4.17,2.9,2.9,0,0,0,1.94-.53,1.81,1.81,0,0,0,.59-1.45,1.43,1.43,0,0,0-.73-1.35,4.34,4.34,0,0,0-2.07-.41h-1v-1h1a2.89,2.89,0,0,0,1.87-.52,1.68,1.68,0,0,0,.63-1.37,1.37,1.37,0,0,0-.49-1.13,2.07,2.07,0,0,0-1.33-.4,3.55,3.55,0,0,0-1.38.24,7.82,7.82,0,0,0-1.14.6l-.61-.84a4.93,4.93,0,0,1,3.12-1,3.35,3.35,0,0,1,2.33.7A2.29,2.29,0,0,1,326.13,124Z"/><path class="cls-10" d="M519.56,141.93l4.1-8.88h-5.39v-1.12H525v.95l-4.06,9.05Z"/><path class="cls-10" d="M525.77,141.17a.91.91,0,0,1,.26-.73.9.9,0,0,1,.6-.21.94.94,0,0,1,.61.21.88.88,0,0,1,.27.73.85.85,0,0,1-.88,1,.86.86,0,0,1-.6-.22A.92.92,0,0,1,525.77,141.17Z"/><path class="cls-10" d="M530.3,141.93l4.1-8.88H529v-1.12h6.7v.95l-4.06,9.05Z"/><path class="cls-11" d="M364.63,148.42h-1.45v2.27H362v-2.27H357.2v-1l4.7-6.73h1.28v6.68h1.45Zm-2.64-1.1v-3.15c0-.49,0-.9,0-1.24s0-.67.05-1H362a6,6,0,0,1-.28.58,5.4,5.4,0,0,1-.32.52l-3,4.27Z"/><path class="cls-11" d="M366.33,149.93a.89.89,0,0,1,.25-.72.91.91,0,0,1,.6-.21,1,1,0,0,1,.62.21.86.86,0,0,1,.26.72.89.89,0,0,1-.26.73.93.93,0,0,1-.62.23.88.88,0,0,1-.6-.23A.92.92,0,0,1,366.33,149.93Z"/><path class="cls-11" d="M376.38,145a11.45,11.45,0,0,1-.19,2.12,5.68,5.68,0,0,1-.69,1.9,3.64,3.64,0,0,1-1.4,1.35,4.76,4.76,0,0,1-2.31.5l-.66,0a3.25,3.25,0,0,1-.6-.11v-1.05a3.88,3.88,0,0,0,1.23.18,3.68,3.68,0,0,0,1.62-.32,2.62,2.62,0,0,0,1-.88,3.62,3.62,0,0,0,.55-1.28,7.73,7.73,0,0,0,.19-1.55h-.08a2.66,2.66,0,0,1-.9.82,3.23,3.23,0,0,1-3.56-.45,3,3,0,0,1-.79-2.23,3.93,3.93,0,0,1,.39-1.81,2.73,2.73,0,0,1,1.12-1.16,3.37,3.37,0,0,1,1.68-.41,3.17,3.17,0,0,1,1.72.49,3.21,3.21,0,0,1,1.22,1.45A5.93,5.93,0,0,1,376.38,145ZM373,141.59a1.89,1.89,0,0,0-1.42.57,2.45,2.45,0,0,0-.55,1.75,2.23,2.23,0,0,0,.47,1.52,1.78,1.78,0,0,0,1.45.56,2.29,2.29,0,0,0,1.16-.28,2.12,2.12,0,0,0,.76-.69,1.59,1.59,0,0,0,.27-.87,3.31,3.31,0,0,0-.23-1.19,2.43,2.43,0,0,0-.72-1A1.81,1.81,0,0,0,373,141.59Z"/><path class="cls-11" d="M577.35,146.69a2.22,2.22,0,0,1-.57,1.6,2.76,2.76,0,0,1-1.5.79v.06a2.82,2.82,0,0,1,1.78.75,2.21,2.21,0,0,1,.6,1.61,3,3,0,0,1-.41,1.56,2.79,2.79,0,0,1-1.25,1.05,5.44,5.44,0,0,1-2.18.37,8.22,8.22,0,0,1-1.45-.11,4.9,4.9,0,0,1-1.29-.43v-1.15a5.5,5.5,0,0,0,1.36.49,6.3,6.3,0,0,0,1.4.17,2.92,2.92,0,0,0,1.94-.53,1.85,1.85,0,0,0,.59-1.45,1.44,1.44,0,0,0-.74-1.35,4.26,4.26,0,0,0-2.06-.41h-1v-1.05h1a2.86,2.86,0,0,0,1.87-.52,1.66,1.66,0,0,0,.64-1.37,1.38,1.38,0,0,0-.49-1.13,2.08,2.08,0,0,0-1.33-.39,3.65,3.65,0,0,0-1.39.23,7.25,7.25,0,0,0-1.13.6l-.62-.83a5.07,5.07,0,0,1,3.13-1,3.35,3.35,0,0,1,2.33.7A2.31,2.31,0,0,1,577.35,146.69Z"/><path class="cls-11" d="M579.8,153.59a.89.89,0,0,1,.25-.73.91.91,0,0,1,.6-.21,1,1,0,0,1,.62.21.87.87,0,0,1,.27.73.91.91,0,0,1-.27.73.92.92,0,0,1-.62.22.87.87,0,0,1-.6-.22A.94.94,0,0,1,579.8,153.59Z"/><path class="cls-11" d="M584.34,154.34l4.1-8.87h-5.39v-1.12h6.7v1l-4.06,9Z"/><g class="cls-7"><path class="cls-8" d="M731.48,188.81h-6.61v-1l2.62-2.65c.49-.5.91-.95,1.26-1.34a4.56,4.56,0,0,0,.79-1.15,2.82,2.82,0,0,0,.27-1.24,1.59,1.59,0,0,0-.49-1.26,1.89,1.89,0,0,0-1.27-.42,3,3,0,0,0-1.29.25,5.55,5.55,0,0,0-1.12.7l-.66-.83a6,6,0,0,1,1.35-.83,4.13,4.13,0,0,1,1.72-.34,3.21,3.21,0,0,1,2.21.71,2.48,2.48,0,0,1,.81,2,3.5,3.5,0,0,1-.32,1.47,6,6,0,0,1-.9,1.35c-.38.45-.83.92-1.34,1.42l-2.09,2.06v.05h5.06Z"/><path class="cls-8" d="M739.76,183.8a10.11,10.11,0,0,1-.33,2.77,3.55,3.55,0,0,1-1.07,1.77,2.9,2.9,0,0,1-1.93.61,2.7,2.7,0,0,1-2.5-1.36,7.55,7.55,0,0,1-.8-3.79,10.11,10.11,0,0,1,.33-2.77,3.5,3.5,0,0,1,1-1.76,2.94,2.94,0,0,1,1.92-.61,2.75,2.75,0,0,1,2.51,1.35A7.3,7.3,0,0,1,739.76,183.8Zm-5.4,0a7.78,7.78,0,0,0,.47,3.08,1.63,1.63,0,0,0,1.6,1,1.67,1.67,0,0,0,1.61-1,10.12,10.12,0,0,0,0-6.16,1.66,1.66,0,0,0-1.61-1,1.63,1.63,0,0,0-1.6,1A7.79,7.79,0,0,0,734.36,183.8Z"/><path class="cls-8" d="M747.9,188.81h-6.61v-1l2.62-2.65c.49-.5.92-.95,1.26-1.34a4.62,4.62,0,0,0,.8-1.15,3,3,0,0,0,.26-1.24,1.59,1.59,0,0,0-.49-1.26,1.87,1.87,0,0,0-1.27-.42,3,3,0,0,0-1.29.25,5.84,5.84,0,0,0-1.12.7l-.66-.83a6,6,0,0,1,1.35-.83,4.13,4.13,0,0,1,1.72-.34,3.21,3.21,0,0,1,2.21.71,2.48,2.48,0,0,1,.81,2,3.5,3.5,0,0,1-.32,1.47,5.67,5.67,0,0,1-.9,1.35c-.38.45-.83.92-1.34,1.42l-2.09,2.06v.05h5.06Z"/><path class="cls-8" d="M753.64,188.81h-1.21v-7c0-.4,0-.73,0-1s0-.49,0-.76c-.15.15-.29.28-.41.38s-.28.24-.46.39l-1.06.87-.65-.82,2.71-2.1h1Z"/></g><path class="cls-6" d="M738.8,129.48h-1.46v2.27h-1.19v-2.27h-4.79v-1l4.71-6.73h1.27v6.68h1.46Zm-2.65-1.1v-3.16c0-.48,0-.89,0-1.23s0-.67.05-1h-.05c-.08.18-.17.37-.28.58s-.22.37-.33.52l-3,4.27Z"/><path class="cls-6" d="M739.81,131a.81.81,0,0,1,.85-.94,1,1,0,0,1,.62.21,1.15,1.15,0,0,1,0,1.46,1,1,0,0,1-.62.23.88.88,0,0,1-.6-.23A.92.92,0,0,1,739.81,131Z"/><path class="cls-6" d="M749.42,124.09a2.2,2.2,0,0,1-.56,1.6,2.87,2.87,0,0,1-1.51.8v.05a2.86,2.86,0,0,1,1.79.76,2.23,2.23,0,0,1,.59,1.61,2.93,2.93,0,0,1-.4,1.55,2.65,2.65,0,0,1-1.26,1,5.38,5.38,0,0,1-2.17.38,8.3,8.3,0,0,1-1.46-.12,4.56,4.56,0,0,1-1.29-.43V130.2a6.09,6.09,0,0,0,1.36.48,5.82,5.82,0,0,0,1.4.17,2.91,2.91,0,0,0,1.94-.52,1.81,1.81,0,0,0,.59-1.45,1.41,1.41,0,0,0-.73-1.35,4.22,4.22,0,0,0-2.07-.41h-1v-1.05h1a3,3,0,0,0,1.87-.52,1.71,1.71,0,0,0,.63-1.38,1.35,1.35,0,0,0-.49-1.12,2,2,0,0,0-1.33-.4,3.55,3.55,0,0,0-1.38.24,7.82,7.82,0,0,0-1.14.6l-.61-.84a5.12,5.12,0,0,1,1.32-.73,5.07,5.07,0,0,1,1.8-.31,3.38,3.38,0,0,1,2.33.7A2.31,2.31,0,0,1,749.42,124.09Z"/><path class="cls-10" d="M738.45,147.82h-6.61v-1l2.62-2.65c.49-.5.92-1,1.26-1.34a4.62,4.62,0,0,0,.8-1.15,3,3,0,0,0,.26-1.24,1.57,1.57,0,0,0-.49-1.26,1.89,1.89,0,0,0-1.27-.42,3,3,0,0,0-1.29.25,5.84,5.84,0,0,0-1.12.7l-.66-.83a6,6,0,0,1,1.35-.83,4.13,4.13,0,0,1,1.72-.34,3.21,3.21,0,0,1,2.21.71,2.46,2.46,0,0,1,.81,1.95,3.5,3.5,0,0,1-.32,1.47,6,6,0,0,1-.9,1.35c-.38.45-.83.92-1.34,1.42l-2.09,2.06v0h5.06Z"/><path class="cls-10" d="M739.93,147.07a.81.81,0,0,1,.86-.94,1,1,0,0,1,.61.21.87.87,0,0,1,.27.73.89.89,0,0,1-.27.72.93.93,0,0,1-.61.23.89.89,0,0,1-.61-.23A1,1,0,0,1,739.93,147.07Z"/><path class="cls-10" d="M746.43,137.69a3.55,3.55,0,0,1,2.15.61,2.07,2.07,0,0,1,.84,1.78,2,2,0,0,1-.26,1,2.71,2.71,0,0,1-.69.79,6.16,6.16,0,0,1-1,.61,8.09,8.09,0,0,1,1.12.67,2.84,2.84,0,0,1,.8.86,2.08,2.08,0,0,1,.31,1.17,2.45,2.45,0,0,1-.9,2,3.64,3.64,0,0,1-2.38.73,3.81,3.81,0,0,1-2.49-.71,2.43,2.43,0,0,1-.86-2,2.4,2.4,0,0,1,.29-1.18,3,3,0,0,1,.76-.88,5.59,5.59,0,0,1,1-.61,4.5,4.5,0,0,1-1.25-1,2.22,2.22,0,0,1-.5-1.51,2.1,2.1,0,0,1,.39-1.29,2.43,2.43,0,0,1,1.06-.82A4.09,4.09,0,0,1,746.43,137.69Zm-2.1,7.6a1.57,1.57,0,0,0,.52,1.21,2.82,2.82,0,0,0,3.15,0,1.6,1.6,0,0,0,.54-1.25A1.54,1.54,0,0,0,748,144a5.34,5.34,0,0,0-1.53-.84l-.22-.09a4.4,4.4,0,0,0-1.41.91A1.78,1.78,0,0,0,744.33,145.29Zm2.08-6.61a2,2,0,0,0-1.27.37,1.25,1.25,0,0,0-.49,1.07,1.49,1.49,0,0,0,.24.87,2.14,2.14,0,0,0,.67.59,8.77,8.77,0,0,0,.92.47,4.32,4.32,0,0,0,1.23-.74,1.51,1.51,0,0,0,.5-1.19,1.28,1.28,0,0,0-.49-1.07A2.1,2.1,0,0,0,746.41,138.68Z"/><path class="cls-11" d="M788.81,161.79H787.6v-7c0-.4,0-.73,0-1s0-.49,0-.76c-.15.15-.29.28-.41.38l-.46.39-1.06.87-.65-.82,2.7-2.1h1Z"/><path class="cls-11" d="M791.77,161a.9.9,0,0,1,.26-.73.88.88,0,0,1,.6-.21.94.94,0,0,1,.61.21,1.11,1.11,0,0,1,0,1.45.91.91,0,0,1-.61.23.85.85,0,0,1-.6-.23A.9.9,0,0,1,791.77,161Z"/><path class="cls-11" d="M801.38,156.78a9.71,9.71,0,0,1-.34,2.77,3.48,3.48,0,0,1-1.07,1.77,2.89,2.89,0,0,1-1.92.61,2.69,2.69,0,0,1-2.5-1.36,7.44,7.44,0,0,1-.81-3.79,10.11,10.11,0,0,1,.33-2.77,3.44,3.44,0,0,1,1.06-1.76,2.91,2.91,0,0,1,1.92-.61,2.73,2.73,0,0,1,2.5,1.35A7.3,7.3,0,0,1,801.38,156.78Zm-5.41,0a7.78,7.78,0,0,0,.47,3.08,1.64,1.64,0,0,0,1.61,1,1.66,1.66,0,0,0,1.6-1,10.12,10.12,0,0,0,0-6.16,1.77,1.77,0,0,0-3.21,0A7.79,7.79,0,0,0,796,156.78Z"/></svg>