<?xml version="1.0" encoding="utf-8"?>
<!-- Generator: Adobe Illustrator 24.2.1, SVG Export Plug-In . SVG Version: 6.00 Build 0)  -->
<svg version="1.1" id="Layer_1" xmlns="http://www.w3.org/2000/svg" xmlns:xlink="http://www.w3.org/1999/xlink" x="0px" y="0px"
	 viewBox="0 0 900 900" style="enable-background:new 0 0 900 900;" xml:space="preserve">
<style type="text/css">
	.st0{fill:#12A639;}
	.st1{fill:#009EE4;}
	.st2{fill:#D50065;}
	.st3{fill:#EE7003;}
	.st4{fill:#FFFFFF;}
	.st5{opacity:0.3;}
	.st6{clip-path:url(#SVGID_2_);}
	.st7{clip-path:url(#SVGID_4_);}
	.st8{fill:#614388;}
	.st9{opacity:0.6;}
	.st10{clip-path:url(#SVGID_6_);}
	.st11{clip-path:url(#SVGID_8_);}
	.st12{fill:#0054A8;}
	.st13{opacity:0.85;}
	.st14{clip-path:url(#SVGID_10_);}
	.st15{clip-path:url(#SVGID_12_);}
	.st16{fill:#009791;}
	.st17{opacity:0.4;}
	.st18{clip-path:url(#SVGID_14_);}
	.st19{clip-path:url(#SVGID_16_);}
	.st20{fill:#84BB00;}
	.st21{fill:#00A829;}
	.st22{fill:#F80067;}
	.st23{fill:#FF7000;}
	.st24{fill:#009FE7;}
	.st25{fill:#006BA6;}
</style>
<g>
	<g>
		<g>
			<path class="st0" d="M450.1,450l-18.7-180.7h0C421.9,199.7,444,126.6,497.5,73c91-91,238.6-91,329.6,0c91,91,91,238.6,0,329.6
				c-53.5,53.5-126.6,75.6-196.3,66.1v0L450.1,450z"/>
		</g>
	</g>
	<g>
		<g>
			<path class="st1" d="M450.1,450l18.7,180.7h0c9.5,69.7-12.6,142.8-66.1,196.3c-91,91-238.6,91-329.6,0c-91-91-91-238.6,0-329.6
				c53.5-53.5,126.6-75.6,196.3-66.1v0L450.1,450z"/>
		</g>
	</g>
	<g>
		<g>
			<path class="st2" d="M450.1,450l180.7-18.7v0c69.7-9.5,142.8,12.6,196.3,66.1c91,91,91,238.6,0,329.6s-238.6,91-329.6,0
				c-53.5-53.5-75.6-126.6-66.1-196.3h0L450.1,450z"/>
		</g>
		<g>
			<path class="st3" d="M450.1,450l-180.7,18.7v0c-69.6,9.5-142.8-12.6-196.3-66.1c-91-91-91-238.6,0-329.6c91-91,238.6-91,329.6,0
				c53.5,53.5,75.6,126.6,66.1,196.3h0L450.1,450z"/>
		</g>
	</g>
	<g>
		<g>
			<path class="st4" d="M303.5,596.6c81,81,212.2,81,293.2,0c81-81,81-212.2,0-293.2s-212.2-81-293.2,0S222.5,515.6,303.5,596.6"/>
		</g>
	</g>
	<g>
		<g class="st5">
			<g>
				<g>
					<g>
						<defs>
							<rect id="SVGID_1_" x="632.2" y="382.9" width="132.1" height="132.1"/>
						</defs>
						<clipPath id="SVGID_2_">
							<use xlink:href="#SVGID_1_"  style="overflow:visible;"/>
						</clipPath>
						<g class="st6">
							<g>
								<g>
									<defs>
										<rect id="SVGID_3_" x="632.2" y="382.9" width="132.1" height="132.1"/>
									</defs>
									<clipPath id="SVGID_4_">
										<use xlink:href="#SVGID_3_"  style="overflow:visible;"/>
									</clipPath>
									<g class="st7">
										<path class="st8" d="M758.8,450c-32.4-14.7-67.5-21.6-102.4-20.8c1.4,13.8,1.4,27.7,0,41.5
											C691.3,471.6,726.4,464.7,758.8,450"/>
									</g>
								</g>
							</g>
						</g>
					</g>
				</g>
			</g>
		</g>
		<g class="st9">
			<g>
				<g>
					<g>
						<defs>
							<rect id="SVGID_5_" x="385.1" y="630" width="132.1" height="132.1"/>
						</defs>
						<clipPath id="SVGID_6_">
							<use xlink:href="#SVGID_5_"  style="overflow:visible;"/>
						</clipPath>
						<g class="st10">
							<g>
								<g>
									<defs>
										<rect id="SVGID_7_" x="385.1" y="630" width="132.1" height="132.1"/>
									</defs>
									<clipPath id="SVGID_8_">
										<use xlink:href="#SVGID_7_"  style="overflow:visible;"/>
									</clipPath>
									<g class="st11">
										<path class="st12" d="M429.3,656.3c-0.9,34.9,6,70,20.8,102.4c14.7-32.4,21.6-67.5,20.8-102.4
											C457.1,657.7,443.1,657.7,429.3,656.3"/>
									</g>
								</g>
							</g>
						</g>
					</g>
				</g>
			</g>
		</g>
		<g class="st13">
			<g>
				<g>
					<g>
						<defs>
							<rect id="SVGID_9_" x="138" y="382.9" width="132.1" height="132.1"/>
						</defs>
						<clipPath id="SVGID_10_">
							<use xlink:href="#SVGID_9_"  style="overflow:visible;"/>
						</clipPath>
						<g class="st14">
							<g>
								<g>
									<defs>
										<rect id="SVGID_11_" x="138" y="382.9" width="132.1" height="132.1"/>
									</defs>
									<clipPath id="SVGID_12_">
										<use xlink:href="#SVGID_11_"  style="overflow:visible;"/>
									</clipPath>
									<g class="st15">
										<path class="st16" d="M243.8,429.2c-34.9-0.9-70,6-102.4,20.8c32.4,14.7,67.5,21.6,102.4,20.8
											C242.4,457,242.4,443,243.8,429.2"/>
									</g>
								</g>
							</g>
						</g>
					</g>
				</g>
			</g>
		</g>
		<g class="st17">
			<g>
				<g>
					<g>
						<defs>
							<rect id="SVGID_13_" x="385.1" y="135.8" width="132.1" height="132.1"/>
						</defs>
						<clipPath id="SVGID_14_">
							<use xlink:href="#SVGID_13_"  style="overflow:visible;"/>
						</clipPath>
						<g class="st18">
							<g>
								<g>
									<defs>
										<rect id="SVGID_15_" x="385.1" y="135.8" width="132.1" height="132.1"/>
									</defs>
									<clipPath id="SVGID_16_">
										<use xlink:href="#SVGID_15_"  style="overflow:visible;"/>
									</clipPath>
									<g class="st19">
										<path class="st20" d="M470.9,243.7c0.9-34.9-6-70-20.8-102.4c-14.7,32.4-21.6,67.5-20.8,102.4
											C443.1,242.3,457.1,242.3,470.9,243.7"/>
									</g>
								</g>
							</g>
						</g>
					</g>
				</g>
			</g>
		</g>
	</g>
	<g>
		<g>
			<path class="st21" d="M578.9,321.1c30.2,30.2,47.6,68.5,52.1,108c1.5,0,2.9,0,4.4,0.1c-4.5-40.6-22.3-80.1-53.4-111.2
				s-70.5-48.9-111.2-53.4c0,1.5,0.1,2.9,0.1,4.4C510.3,273.5,548.6,290.9,578.9,321.1"/>
		</g>
		<g>
			<path class="st22" d="M578.9,578.9c-30.2,30.2-68.5,47.6-108,52.1c0,1.5,0,2.9-0.1,4.4c40.7-4.5,80.1-22.3,111.2-53.4
				c31.1-31.1,48.9-70.5,53.4-111.2c-1.5,0-2.9,0.1-4.4,0.1C626.5,510.3,609.1,548.6,578.9,578.9"/>
		</g>
		<g>
			<path class="st23" d="M281.2,381.4c9.1-22.6,22.6-42.9,40-60.2c30.2-30.2,68.5-47.6,108-52.1c0-1.5,0-2.9,0.1-4.4
				c-40.7,4.5-80.1,22.3-111.2,53.4c-17.8,17.8-31.5,38.5-40.9,61.7c-6.5,16-10.6,32.6-12.5,49.7c1.5-0.1,2.9-0.1,4.4-0.2
				C270.9,412.8,274.9,396.8,281.2,381.4"/>
		</g>
		<g>
			<path class="st24" d="M321.1,578.9c-17.4-17.4-30.8-37.6-40-60.2c-6.2-15.4-10.3-31.5-12.1-47.9c-1.5,0-2.9-0.1-4.4-0.2
				c1.9,17.1,6,33.7,12.5,49.7c9.4,23.2,23.1,43.9,40.9,61.7c31.1,31.1,70.5,48.9,111.2,53.4c0-1.5-0.1-2.9-0.1-4.4
				C389.7,626.5,351.4,609.1,321.1,578.9"/>
		</g>
		<g>
			<path class="st23" d="M446.8,266.3c-2.8,2.8-4.1,8.3-4.2,12.1c3.8-5.1,8.8-9.6,14.8-12.1c-6-2.4-10.8-7.1-14.8-12.1
				C442.9,258.2,443.9,263.2,446.8,266.3"/>
		</g>
		<g>
			<path class="st22" d="M453.2,633.7c2.8,2.8,4.1,8.3,4.2,12.1c-3.8-5.1-8.8-9.6-14.8-12.1c6-2.4,10.8-7.2,14.8-12.1
				C457.1,625.7,456.1,630.7,453.2,633.7"/>
		</g>
		<g>
			<path class="st24" d="M266.2,453.2c-2.8,2.8-8.3,4.1-12.1,4.2c5.1-3.8,9.6-8.8,12.1-14.8c2.4,6,7.1,10.8,12.1,14.8
				C274.3,457.1,269.3,456.1,266.2,453.2"/>
		</g>
		<g>
			<path class="st21" d="M633.7,446.8c-2.8-2.8-8.3-4.1-12.1-4.2c5.1,3.8,9.6,8.8,12.1,14.8c2.4-6,7.2-10.8,12.1-14.8
				C641.8,442.9,636.8,443.9,633.7,446.8"/>
		</g>
	</g>
</g>
<g>
	<polygon class="st4" points="564,156.7 567.2,158.2 567.2,175 564,176.4 564,179.5 575.8,179.5 575.8,176.4 572.7,175 572.7,158.2 
		575.8,156.7 575.8,153.6 564,153.6 	"/>
	<path class="st4" d="M593.6,179.5h5.4v-12.9c0-2.5-0.6-4.4-1.9-5.5c-1.3-1.1-3-1.7-5.1-1.7c-1.2,0-2.4,0.2-3.5,0.7
		c-1.1,0.5-2,1.2-2.6,2.2h-0.3l-0.7-2.5h-4.1v19.8h5.4v-9.3c0-2.1,0.3-3.7,0.9-4.8c0.6-1.1,1.7-1.7,3.4-1.7c1.1,0,1.9,0.4,2.4,1.1
		c0.5,0.7,0.8,1.8,0.8,3.2V179.5z"/>
	<path class="st4" d="M615.7,179.5l7.5-19.8h-5.7l-3.8,11.3c-0.5,1.4-0.7,2.8-0.8,4.1h-0.1c0-0.6-0.1-1.2-0.3-2
		c-0.1-0.7-0.3-1.4-0.5-2.1l-3.8-11.3h-5.7l7.6,19.8H615.7z"/>
	<path class="st4" d="M639.9,179.6c1.1-0.2,2.1-0.6,3.1-1.1v-4.2c-1.1,0.5-2.2,0.9-3.2,1.2c-1.1,0.3-2.2,0.4-3.5,0.4
		c-1.5,0-2.7-0.4-3.6-1.3c-0.9-0.9-1.3-2.1-1.4-3.6h12.8v-2.6c0-2.9-0.8-5.1-2.4-6.7c-1.6-1.6-3.8-2.3-6.5-2.3
		c-1.9,0-3.5,0.4-4.9,1.2c-1.4,0.8-2.5,1.9-3.3,3.5c-0.8,1.5-1.2,3.5-1.2,5.8c0,2.3,0.4,4.2,1.3,5.7c0.9,1.5,2.1,2.6,3.6,3.3
		c1.5,0.7,3.3,1.1,5.3,1.1C637.5,179.9,638.8,179.8,639.9,179.6z M632.6,164.2c0.7-0.7,1.5-1,2.6-1c1.3,0,2.2,0.4,2.8,1.2
		c0.6,0.8,0.9,1.8,1,3h-7.6C631.5,166,631.9,164.9,632.6,164.2z"/>
	<path class="st4" d="M650.5,169.5c0.8,0.5,1.8,1,3.1,1.6c1.3,0.5,2.2,1,2.8,1.3c0.6,0.3,1,0.6,1.2,0.9c0.2,0.3,0.3,0.6,0.3,0.9
		c0,0.5-0.2,0.9-0.7,1.2s-1.2,0.5-2.2,0.5c-0.9,0-2-0.2-3.3-0.5s-2.4-0.7-3.4-1.2v4.5c1,0.4,2,0.7,3,0.9s2.2,0.3,3.6,0.3
		c2.8,0,4.9-0.5,6.3-1.6c1.4-1.1,2.1-2.6,2.1-4.6c0-1.2-0.2-2.1-0.7-2.9c-0.4-0.7-1.1-1.4-1.9-1.9c-0.8-0.5-1.8-1-2.9-1.4
		c-1.2-0.5-2-0.9-2.6-1.2c-0.6-0.3-1-0.6-1.2-0.8c-0.2-0.3-0.3-0.5-0.3-0.9c0-0.9,0.8-1.3,2.4-1.3c0.9,0,1.8,0.1,2.7,0.4
		c0.9,0.3,1.8,0.6,2.8,1l1.6-3.9c-1.2-0.6-2.3-1-3.4-1.2c-1.1-0.2-2.3-0.4-3.5-0.4c-2.4,0-4.3,0.5-5.7,1.4c-1.4,0.9-2.1,2.3-2.1,4.1
		c0,1.1,0.2,2,0.6,2.8C649.2,168.4,649.7,169,650.5,169.5z"/>
	<path class="st4" d="M671.9,179.3c0.9,0.4,2,0.6,3.2,0.6c1,0,2-0.1,2.8-0.3c0.9-0.2,1.6-0.4,2.2-0.7v-4c-0.6,0.2-1.1,0.3-1.7,0.5
		s-1.1,0.2-1.7,0.2c-0.7,0-1.3-0.2-1.7-0.6c-0.4-0.4-0.7-0.9-0.7-1.7v-9.5h5.6v-4.1h-5.6v-4.2h-3.4l-1.6,4.2l-3,1.8v2.3h2.6v9.5
		c0,1.7,0.3,3,0.8,4C670.2,178.3,671,178.9,671.9,179.3z"/>
	<path class="st4" d="M715.1,179.5v-12.9c0-2.5-0.6-4.4-1.7-5.5c-1.2-1.1-2.8-1.7-5.1-1.7c-1.1,0-2.2,0.2-3.3,0.7
		c-1.1,0.5-1.9,1.2-2.5,2.2h-0.5c-0.6-1-1.3-1.7-2.3-2.2c-1-0.5-2.2-0.7-3.7-0.7c-1.1,0-2.2,0.2-3.3,0.7c-1.1,0.5-1.9,1.2-2.5,2.2
		h-0.3l-0.7-2.5H685v19.8h5.4v-9.3c0-2.1,0.3-3.7,0.9-4.8c0.6-1.1,1.6-1.7,3.1-1.7c2,0,3,1.4,3,4.3v11.6h5.4v-9.9
		c0-1.9,0.3-3.4,0.9-4.4c0.6-1,1.6-1.5,3-1.5c2,0,3,1.4,3,4.3v11.6H715.1z"/>
	<path class="st4" d="M737.4,178.5v-4.2c-1.1,0.5-2.2,0.9-3.2,1.2c-1.1,0.3-2.2,0.4-3.5,0.4c-1.5,0-2.7-0.4-3.6-1.3
		c-0.9-0.9-1.3-2.1-1.4-3.6h12.8v-2.6c0-2.9-0.8-5.1-2.4-6.7c-1.6-1.6-3.8-2.3-6.5-2.3c-1.9,0-3.5,0.4-4.9,1.2
		c-1.4,0.8-2.5,1.9-3.3,3.5c-0.8,1.5-1.2,3.5-1.2,5.8c0,2.3,0.4,4.2,1.3,5.7c0.9,1.5,2.1,2.6,3.6,3.3c1.5,0.7,3.3,1.1,5.3,1.1
		c1.5,0,2.8-0.1,3.9-0.3C735.4,179.3,736.4,179,737.4,178.5z M727.1,164.2c0.7-0.7,1.5-1,2.6-1c1.3,0,2.2,0.4,2.8,1.2
		c0.6,0.8,0.9,1.8,1,3h-7.6C726,166,726.4,164.9,727.1,164.2z"/>
	<path class="st4" d="M755.1,159.4c-1.2,0-2.4,0.2-3.5,0.7c-1.1,0.5-2,1.2-2.6,2.2h-0.3l-0.7-2.5h-4.1v19.8h5.4v-9.3
		c0-2.1,0.3-3.7,0.9-4.8c0.6-1.1,1.7-1.7,3.4-1.7c1.1,0,1.9,0.4,2.4,1.1c0.5,0.7,0.8,1.8,0.8,3.2v11.6h5.4v-12.9
		c0-2.5-0.6-4.4-1.9-5.5C758.9,159.9,757.2,159.4,755.1,159.4z"/>
	<path class="st4" d="M778.7,175.4c-0.6,0.1-1.1,0.2-1.7,0.2c-0.7,0-1.3-0.2-1.7-0.6c-0.4-0.4-0.7-0.9-0.7-1.7v-9.5h5.6v-4.1h-5.6
		v-4.2h-3.4l-1.6,4.2l-3,1.8v2.3h2.6v9.5c0,1.7,0.3,3,0.8,4c0.5,0.9,1.3,1.6,2.2,2s2,0.6,3.2,0.6c1,0,2-0.1,2.8-0.3
		c0.9-0.2,1.6-0.4,2.2-0.7v-4C779.8,175.2,779.2,175.3,778.7,175.4z"/>
	<path class="st4" d="M607.6,208.9c-0.9-0.7-2.1-1.3-3.4-2c-1.6-0.8-2.8-1.4-3.7-2c-0.8-0.5-1.2-1.3-1.2-2.2c0-0.8,0.3-1.4,0.8-1.9
		c0.6-0.5,1.4-0.7,2.4-0.7c1,0,2,0.1,2.9,0.4c0.9,0.3,2,0.6,3.2,1.1l1.8-4.3c-1.4-0.6-2.6-1-3.8-1.3c-1.2-0.3-2.5-0.5-3.8-0.5
		c-2.7,0-4.9,0.6-6.4,1.9c-1.6,1.3-2.4,3.1-2.4,5.4c0,1.2,0.2,2.2,0.6,3c0.4,0.8,0.9,1.6,1.6,2.2c0.6,0.6,1.3,1.1,2,1.5s1.4,0.7,2,1
		c1,0.5,1.8,0.9,2.6,1.3c0.7,0.4,1.3,0.8,1.8,1.3c0.4,0.5,0.7,1,0.7,1.7c0,0.8-0.3,1.5-0.9,2c-0.6,0.5-1.5,0.8-2.9,0.8
		c-1.3,0-2.6-0.2-3.9-0.7c-1.3-0.4-2.6-0.9-3.8-1.5v5.1c2.2,1,4.6,1.6,7.3,1.6c3,0,5.4-0.7,7.1-2.1c1.7-1.4,2.5-3.2,2.5-5.5
		c0-1.4-0.3-2.5-0.8-3.4C609.2,210.4,608.5,209.6,607.6,208.9z"/>
	<path class="st4" d="M624,218c-0.7,0-1.3-0.2-1.7-0.6c-0.4-0.4-0.7-0.9-0.7-1.7v-9.5h5.6v-4.1h-5.6v-4.2h-3.4l-1.6,4.2l-3,1.8v2.3
		h2.6v9.5c0,1.7,0.3,3,0.8,4c0.5,0.9,1.3,1.6,2.2,2s2,0.6,3.2,0.6c1,0,2-0.1,2.8-0.3c0.9-0.2,1.6-0.4,2.2-0.7v-4
		c-0.6,0.2-1.1,0.3-1.7,0.5S624.6,218,624,218z"/>
	<path class="st4" d="M643.4,201.7c-1.3,0-2.5,0.4-3.5,1.1s-1.8,1.6-2.4,2.6h-0.3l-0.8-3.3h-4.1v19.8h5.4v-10.1c0-1.3,0.3-2.3,0.8-3
		s1.2-1.3,2.1-1.6s1.7-0.5,2.7-0.5c0.2,0,0.5,0,0.8,0.1c0.3,0,0.6,0.1,0.8,0.1l0.4-5.1c-0.2,0-0.5-0.1-0.9-0.1
		C644,201.7,643.7,201.7,643.4,201.7z"/>
	<path class="st4" d="M663.2,203.4c-1.4-1.1-3.5-1.7-6.1-1.7c-1.4,0-2.8,0.2-4.1,0.5c-1.3,0.3-2.5,0.8-3.5,1.3l1.8,3.7
		c0.9-0.4,1.8-0.8,2.8-1c0.9-0.3,1.9-0.4,2.8-0.4c1,0,1.7,0.2,2.3,0.7c0.5,0.5,0.8,1.2,0.8,2.3v0.9l-3.4,0.1c-3,0.1-5.2,0.7-6.6,1.7
		c-1.5,1-2.2,2.5-2.2,4.6c0,2.2,0.6,3.7,1.7,4.8c1.2,1,2.6,1.5,4.4,1.5c1.6,0,2.9-0.2,3.9-0.7c0.9-0.5,1.8-1.3,2.7-2.3h0.1l1.1,2.7
		h3.8v-13.2C665.4,206.3,664.7,204.6,663.2,203.4z M660,214.4c0,1.3-0.4,2.2-1.2,2.9c-0.8,0.7-1.8,1-2.9,1c-0.8,0-1.4-0.2-1.9-0.5
		c-0.5-0.4-0.7-0.9-0.7-1.8c0-0.9,0.3-1.7,1-2.3c0.7-0.6,1.9-0.9,3.6-0.9l2.1-0.1V214.4z"/>
	<path class="st4" d="M680.2,218c-0.7,0-1.3-0.2-1.7-0.6c-0.4-0.4-0.7-0.9-0.7-1.7v-9.5h5.6v-4.1h-5.6v-4.2h-3.4l-1.6,4.2l-3,1.8
		v2.3h2.6v9.5c0,1.7,0.3,3,0.8,4c0.5,0.9,1.3,1.6,2.2,2s2,0.6,3.2,0.6c1,0,2-0.1,2.8-0.3c0.9-0.2,1.6-0.4,2.2-0.7v-4
		c-0.6,0.2-1.1,0.3-1.7,0.5S680.8,218,680.2,218z"/>
	<path class="st4" d="M696.7,201.7c-1.9,0-3.5,0.4-4.9,1.2c-1.4,0.8-2.5,1.9-3.3,3.5c-0.8,1.5-1.2,3.5-1.2,5.8
		c0,2.3,0.4,4.2,1.3,5.7c0.9,1.5,2.1,2.6,3.6,3.3c1.5,0.7,3.3,1.1,5.3,1.1c1.5,0,2.8-0.1,3.9-0.3c1.1-0.2,2.1-0.6,3.1-1.1v-4.2
		c-1.1,0.5-2.2,0.9-3.2,1.2c-1.1,0.3-2.2,0.4-3.5,0.4c-1.5,0-2.7-0.4-3.6-1.3c-0.9-0.9-1.3-2.1-1.4-3.6h12.8v-2.6
		c0-2.9-0.8-5.1-2.4-6.7C701.6,202.5,699.4,201.7,696.7,201.7z M692.9,209.7c0.1-1.4,0.5-2.5,1.2-3.2c0.7-0.7,1.5-1,2.6-1
		c1.3,0,2.2,0.4,2.8,1.2c0.6,0.8,0.9,1.8,1,3H692.9z"/>
	<path class="st4" d="M723.2,204.6H723c-1.4-1.9-3.3-2.9-5.7-2.9c-2.4,0-4.2,0.9-5.6,2.7s-2,4.3-2,7.6c0,3.2,0.7,5.7,2,7.5
		c1.3,1.8,3.2,2.7,5.5,2.7c1.2,0,2.3-0.2,3.2-0.7s1.8-1.2,2.4-2.3h0.1c0,0.3-0.1,0.7-0.1,1.2c0,0.4,0,0.9,0,1.3v0.4
		c0,3-1.4,4.5-4.2,4.5c-2.7,0-5.3-0.5-7.7-1.5v4.3c1.1,0.4,2.3,0.7,3.5,0.9c1.2,0.2,2.5,0.3,3.9,0.3c3.3,0,5.7-0.7,7.4-2.2
		s2.5-3.6,2.5-6.5v-19.9h-4.6L723.2,204.6z M723.1,212.7c0,2-0.3,3.3-1,4.1c-0.7,0.8-1.7,1.2-3.1,1.2c-2.6,0-3.9-2-3.9-5.9
		c0-4,1.3-6,3.8-6c1.5,0,2.5,0.5,3.2,1.4c0.7,0.9,1,2.4,1,4.6V212.7z"/>
	<path class="st4" d="M743.1,213.2c-0.2,0.6-0.4,1.1-0.5,1.7c-0.1,0.6-0.2,1.1-0.3,1.8h-0.1c0-0.6-0.1-1.2-0.2-1.8
		c-0.1-0.6-0.2-1.1-0.4-1.7l-3.7-11.1h-5.9l7.9,19.7l-0.3,1c-0.3,1-0.8,1.8-1.5,2.5c-0.7,0.7-1.5,1-2.7,1c-0.4,0-0.8,0-1.2-0.1
		s-0.7-0.1-0.9-0.1v4.3c0.3,0.1,0.7,0.1,1.2,0.2c0.4,0.1,1,0.1,1.6,0.1c1.9,0,3.5-0.5,5-1.5c1.4-1,2.5-2.6,3.3-4.6l8.4-22.4h-5.8
		L743.1,213.2z"/>
</g>
<g>
	<path class="st4" d="M114.5,673.4h2.4c2.5,0,4.5-0.4,6-1.2c1.5-0.8,2.5-1.9,3.1-3.2c0.6-1.3,0.9-2.7,0.9-4.2c0-2.5-0.8-4.5-2.3-5.9
		c-1.5-1.4-4-2.2-7.3-2.2H109v25.9h5.5V673.4z M114.5,661.2h2.5c2.9,0,4.4,1.3,4.4,3.8c0,1.4-0.5,2.4-1.4,3
		c-0.9,0.6-2.1,0.9-3.7,0.9h-1.8V661.2z"/>
	<path class="st4" d="M145.2,682.6c1.1-0.2,2.1-0.6,3.1-1.1v-4.2c-1.1,0.5-2.2,0.9-3.2,1.2c-1.1,0.3-2.2,0.4-3.5,0.4
		c-1.5,0-2.7-0.4-3.6-1.3c-0.9-0.9-1.3-2.1-1.4-3.6h12.8v-2.6c0-2.9-0.8-5.1-2.4-6.7c-1.6-1.6-3.8-2.3-6.5-2.3
		c-1.9,0-3.5,0.4-4.9,1.2c-1.4,0.8-2.5,1.9-3.3,3.5c-0.8,1.5-1.2,3.5-1.2,5.8c0,2.3,0.4,4.2,1.3,5.7s2.1,2.6,3.6,3.3
		c1.5,0.7,3.3,1.1,5.3,1.1C142.8,683,144.1,682.9,145.2,682.6z M137.9,667.3c0.7-0.7,1.5-1,2.6-1c1.3,0,2.2,0.4,2.8,1.2
		c0.6,0.8,0.9,1.8,1,3h-7.6C136.8,669,137.2,668,137.9,667.3z"/>
	<path class="st4" d="M166.4,667.5c0.3,0,0.6,0.1,0.8,0.1l0.4-5.1c-0.2,0-0.5-0.1-0.9-0.1c-0.4,0-0.7,0-0.9,0
		c-1.3,0-2.5,0.4-3.5,1.1s-1.8,1.6-2.4,2.6h-0.3l-0.8-3.3h-4.1v19.8h5.4v-10.1c0-1.3,0.3-2.2,0.8-3c0.5-0.7,1.2-1.3,2.1-1.6
		c0.8-0.3,1.7-0.5,2.6-0.5C165.8,667.5,166.1,667.5,166.4,667.5z"/>
	<path class="st4" d="M179.9,654.9c-1.4,0-2.7,0.2-3.7,0.6s-1.9,1-2.4,2c-0.6,0.9-0.9,2.2-0.9,3.9v1.5l-3,1.5v2.6h3v15.8h5.4v-15.8
		h4.7v-4.1h-4.7v-1.2c0-0.7,0.2-1.3,0.5-1.7c0.4-0.5,0.9-0.7,1.7-0.7c0.6,0,1.2,0.1,1.7,0.2c0.5,0.1,0.9,0.2,1.4,0.3l1.4-4
		c-0.5-0.2-1.2-0.4-2.1-0.6C181.9,654.9,181,654.9,179.9,654.9z"/>
	<path class="st4" d="M200.4,663.6c-1.4-0.8-3.1-1.2-4.9-1.2c-3,0-5.4,0.9-7.1,2.6c-1.7,1.8-2.6,4.3-2.6,7.6c0,2.2,0.4,4.1,1.2,5.6
		c0.8,1.5,2,2.7,3.4,3.5c1.4,0.8,3.1,1.2,4.9,1.2c3,0,5.3-0.9,7.1-2.7c1.7-1.8,2.6-4.3,2.6-7.6c0-2.2-0.4-4-1.2-5.6
		C202.9,665.6,201.8,664.4,200.4,663.6z M198.5,677.1c-0.6,1-1.7,1.5-3.1,1.5c-1.5,0-2.5-0.5-3.1-1.5c-0.6-1-1-2.5-1-4.4
		s0.3-3.4,1-4.4c0.6-1,1.7-1.5,3.1-1.5c1.5,0,2.5,0.5,3.1,1.5c0.6,1,1,2.5,1,4.4S199.1,676.1,198.5,677.1z"/>
	<path class="st4" d="M215.8,672.5c0-1.3,0.3-2.2,0.8-3c0.5-0.7,1.2-1.3,2.1-1.6c0.8-0.3,1.7-0.5,2.6-0.5c0.2,0,0.5,0,0.8,0.1
		c0.3,0,0.6,0.1,0.8,0.1l0.4-5.1c-0.2,0-0.5-0.1-0.9-0.1c-0.4,0-0.7,0-0.9,0c-1.3,0-2.5,0.4-3.5,1.1s-1.8,1.6-2.4,2.6h-0.3l-0.8-3.3
		h-4.1v19.8h5.4V672.5z"/>
	<path class="st4" d="M257.8,682.6v-12.9c0-2.5-0.6-4.4-1.7-5.5c-1.1-1.1-2.8-1.7-5.1-1.7c-1.1,0-2.2,0.2-3.3,0.7
		c-1.1,0.5-1.9,1.2-2.5,2.2h-0.5c-0.6-1-1.3-1.7-2.3-2.2c-1-0.5-2.2-0.7-3.7-0.7c-1.1,0-2.2,0.2-3.3,0.7c-1.1,0.5-1.9,1.2-2.5,2.2
		h-0.3l-0.7-2.5h-4.1v19.8h5.4v-9.3c0-2.1,0.3-3.7,0.9-4.8c0.6-1.1,1.6-1.7,3.1-1.7c2,0,3,1.4,3,4.3v11.6h5.4v-9.9
		c0-1.9,0.3-3.4,0.9-4.4c0.6-1,1.6-1.5,3-1.5c2,0,3,1.4,3,4.3v11.6H257.8z"/>
	<path class="st4" d="M269.1,683c1.6,0,2.9-0.2,3.9-0.7c0.9-0.5,1.8-1.3,2.7-2.3h0.1l1.1,2.7h3.8v-13.2c0-2.4-0.7-4.1-2.1-5.3
		c-1.4-1.1-3.5-1.7-6.1-1.7c-1.4,0-2.8,0.2-4.1,0.5c-1.3,0.3-2.5,0.8-3.5,1.3l1.8,3.7c0.9-0.4,1.8-0.8,2.8-1
		c0.9-0.3,1.9-0.4,2.8-0.4c1,0,1.7,0.2,2.3,0.7s0.8,1.2,0.8,2.3v0.9l-3.4,0.1c-3,0.1-5.2,0.7-6.6,1.7c-1.5,1-2.2,2.5-2.2,4.6
		c0,2.2,0.6,3.7,1.7,4.8C265.9,682.5,267.4,683,269.1,683z M269.6,674.5c0.7-0.6,1.9-0.9,3.6-0.9l2.1-0.1v1.6c0,1.3-0.4,2.2-1.2,2.9
		c-0.8,0.7-1.8,1-2.9,1c-0.8,0-1.4-0.2-1.9-0.5c-0.5-0.4-0.7-0.9-0.7-1.8C268.5,675.8,268.9,675,269.6,674.5z"/>
	<path class="st4" d="M292.5,673.3c0-2.1,0.3-3.7,0.9-4.8c0.6-1.1,1.7-1.7,3.4-1.7c1.1,0,1.9,0.4,2.4,1.1s0.8,1.8,0.8,3.2v11.6h5.4
		v-12.9c0-2.5-0.6-4.4-1.9-5.5c-1.3-1.1-3-1.7-5.1-1.7c-1.2,0-2.4,0.2-3.5,0.7c-1.1,0.5-2,1.2-2.6,2.2H292l-0.7-2.5h-4.1v19.8h5.4
		V673.3z"/>
	<path class="st4" d="M323.3,682.6c0.9-0.2,1.8-0.6,2.6-1.1v-4.6c-0.8,0.5-1.7,1-2.5,1.3c-0.9,0.3-1.9,0.5-3,0.5
		c-1.3,0-2.4-0.5-3.1-1.4c-0.7-0.9-1.1-2.4-1.1-4.4c0-4,1.4-6,4.2-6c0.7,0,1.5,0.1,2.2,0.3c0.7,0.2,1.5,0.5,2.4,0.8l1.6-4.2
		c-0.8-0.4-1.6-0.7-2.6-0.9c-1-0.3-2.2-0.4-3.5-0.4c-1.9,0-3.6,0.4-5.1,1.1c-1.5,0.7-2.6,1.9-3.4,3.4c-0.8,1.5-1.2,3.5-1.2,5.9
		c0,3.5,0.8,6.1,2.4,7.7c1.6,1.6,3.9,2.4,6.8,2.4C321.3,683,322.4,682.9,323.3,682.6z"/>
	<path class="st4" d="M344.3,682.6c1.1-0.2,2.1-0.6,3.1-1.1v-4.2c-1.1,0.5-2.2,0.9-3.2,1.2c-1.1,0.3-2.2,0.4-3.5,0.4
		c-1.5,0-2.7-0.4-3.6-1.3c-0.9-0.9-1.3-2.1-1.4-3.6h12.8v-2.6c0-2.9-0.8-5.1-2.4-6.7c-1.6-1.6-3.8-2.3-6.5-2.3
		c-1.9,0-3.5,0.4-4.9,1.2c-1.4,0.8-2.5,1.9-3.3,3.5c-0.8,1.5-1.2,3.5-1.2,5.8c0,2.3,0.4,4.2,1.3,5.7s2.1,2.6,3.6,3.3
		c1.5,0.7,3.3,1.1,5.3,1.1C341.9,683,343.2,682.9,344.3,682.6z M337,667.3c0.7-0.7,1.5-1,2.6-1c1.3,0,2.2,0.4,2.8,1.2
		c0.6,0.8,0.9,1.8,1,3h-7.6C335.9,669,336.3,668,337,667.3z"/>
	<path class="st4" d="M119.3,718.9h-0.1l-6.1-19.8h-7.5V725h4.9v-12.1c0-0.9,0-1.9-0.1-3c0-1.1-0.1-2.2-0.1-3.1c0-1-0.1-1.7-0.1-2.2
		h0.1l6.2,20.3h5l6.7-20.3h0.1c0,0.5-0.1,1.2-0.1,2.2c0,1-0.1,2-0.1,3c0,1.1-0.1,2-0.1,2.8V725h5.1v-25.9h-7.5L119.3,718.9z"/>
	<path class="st4" d="M154.5,706.5c-1.4-1.1-3.5-1.7-6.1-1.7c-1.4,0-2.8,0.2-4.1,0.5c-1.3,0.3-2.5,0.8-3.5,1.3l1.8,3.7
		c0.9-0.4,1.8-0.8,2.8-1c0.9-0.3,1.9-0.4,2.8-0.4c1,0,1.7,0.2,2.3,0.7s0.8,1.2,0.8,2.3v0.9l-3.4,0.1c-3,0.1-5.2,0.7-6.6,1.7
		c-1.5,1-2.2,2.5-2.2,4.6c0,2.2,0.6,3.7,1.7,4.8c1.2,1,2.6,1.5,4.4,1.5c1.6,0,2.9-0.2,3.9-0.7c0.9-0.5,1.8-1.3,2.7-2.3h0.1l1.1,2.7
		h3.8v-13.2C156.7,709.4,156,707.6,154.5,706.5z M151.3,717.4c0,1.3-0.4,2.2-1.2,2.9c-0.8,0.7-1.8,1-2.9,1c-0.8,0-1.4-0.2-1.9-0.5
		c-0.5-0.4-0.7-0.9-0.7-1.8c0-0.9,0.3-1.7,1-2.3c0.7-0.6,1.9-0.9,3.6-0.9l2.1-0.1V717.4z"/>
	<path class="st4" d="M174.4,704.8c-1.2,0-2.4,0.2-3.5,0.7c-1.1,0.5-2,1.2-2.6,2.2H168l-0.7-2.5h-4.1V725h5.4v-9.3
		c0-2.1,0.3-3.7,0.9-4.8c0.6-1.1,1.7-1.7,3.4-1.7c1.1,0,1.9,0.4,2.4,1.1s0.8,1.8,0.8,3.2V725h5.4v-12.9c0-2.5-0.6-4.4-1.9-5.5
		C178.2,705.4,176.5,704.8,174.4,704.8z"/>
	<path class="st4" d="M202.1,706.5c-1.4-1.1-3.5-1.7-6.1-1.7c-1.4,0-2.8,0.2-4.1,0.5c-1.3,0.3-2.5,0.8-3.5,1.3l1.8,3.7
		c0.9-0.4,1.8-0.8,2.8-1c0.9-0.3,1.9-0.4,2.8-0.4c1,0,1.7,0.2,2.3,0.7s0.8,1.2,0.8,2.3v0.9l-3.4,0.1c-3,0.1-5.2,0.7-6.6,1.7
		c-1.5,1-2.2,2.5-2.2,4.6c0,2.2,0.6,3.7,1.7,4.8c1.2,1,2.6,1.5,4.4,1.5c1.6,0,2.9-0.2,3.9-0.7c0.9-0.5,1.8-1.3,2.7-2.3h0.1l1.1,2.7
		h3.8v-13.2C204.2,709.4,203.5,707.6,202.1,706.5z M198.9,717.4c0,1.3-0.4,2.2-1.2,2.9c-0.8,0.7-1.8,1-2.9,1c-0.8,0-1.4-0.2-1.9-0.5
		c-0.5-0.4-0.7-0.9-0.7-1.8c0-0.9,0.3-1.7,1-2.3c0.7-0.6,1.9-0.9,3.6-0.9l2.1-0.1V717.4z"/>
	<path class="st4" d="M223,707.7h-0.1c-1.4-1.9-3.3-2.9-5.7-2.9c-2.4,0-4.2,0.9-5.6,2.7c-1.4,1.8-2,4.3-2,7.6c0,3.2,0.7,5.7,2,7.5
		c1.3,1.8,3.2,2.7,5.5,2.7c1.2,0,2.3-0.2,3.2-0.7c0.9-0.5,1.8-1.2,2.4-2.2h0.1c0,0.3-0.1,0.7-0.1,1.2c0,0.4,0,0.9,0,1.3v0.4
		c0,3-1.4,4.5-4.2,4.5c-2.7,0-5.3-0.5-7.7-1.5v4.3c1.1,0.4,2.3,0.7,3.5,0.9c1.2,0.2,2.5,0.3,3.9,0.3c3.3,0,5.7-0.7,7.4-2.2
		c1.7-1.5,2.5-3.6,2.5-6.5v-19.9h-4.6L223,707.7z M223,715.8c0,2-0.3,3.3-1,4.1c-0.7,0.8-1.7,1.2-3.1,1.2c-2.6,0-3.9-2-3.9-5.9
		c0-4,1.3-6,3.8-6c1.5,0,2.5,0.5,3.2,1.4c0.7,0.9,1,2.4,1,4.6V715.8z"/>
	<path class="st4" d="M242.7,704.8c-1.9,0-3.5,0.4-4.9,1.2c-1.4,0.8-2.5,1.9-3.3,3.5c-0.8,1.5-1.2,3.5-1.2,5.8
		c0,2.3,0.4,4.2,1.3,5.7s2.1,2.6,3.6,3.3c1.5,0.7,3.3,1.1,5.3,1.1c1.5,0,2.8-0.1,3.9-0.3c1.1-0.2,2.1-0.6,3.1-1.1v-4.2
		c-1.1,0.5-2.2,0.9-3.2,1.2c-1.1,0.3-2.2,0.4-3.5,0.4c-1.5,0-2.7-0.4-3.6-1.3c-0.9-0.9-1.3-2.1-1.4-3.6h12.8v-2.6
		c0-2.9-0.8-5.1-2.4-6.7C247.6,705.6,245.4,704.8,242.7,704.8z M238.9,712.8c0.1-1.4,0.5-2.5,1.2-3.2c0.7-0.7,1.5-1,2.6-1
		c1.3,0,2.2,0.4,2.8,1.2c0.6,0.8,0.9,1.8,1,3H238.9z"/>
	<path class="st4" d="M280.2,704.8c-1.1,0-2.2,0.2-3.3,0.7c-1.1,0.5-1.9,1.2-2.5,2.2h-0.5c-0.6-1-1.3-1.7-2.3-2.2
		c-1-0.5-2.2-0.7-3.7-0.7c-1.1,0-2.2,0.2-3.3,0.7c-1.1,0.5-1.9,1.2-2.5,2.2h-0.3l-0.7-2.5h-4.1V725h5.4v-9.3c0-2.1,0.3-3.7,0.9-4.8
		c0.6-1.1,1.6-1.7,3.1-1.7c2,0,3,1.4,3,4.3V725h5.4V715c0-1.9,0.3-3.4,0.9-4.4c0.6-1,1.6-1.5,3-1.5c2,0,3,1.4,3,4.3V725h5.4v-12.9
		c0-2.5-0.6-4.4-1.7-5.5C284.1,705.4,282.4,704.8,280.2,704.8z"/>
	<path class="st4" d="M301.6,704.8c-1.9,0-3.5,0.4-4.9,1.2c-1.4,0.8-2.5,1.9-3.3,3.5c-0.8,1.5-1.2,3.5-1.2,5.8
		c0,2.3,0.4,4.2,1.3,5.7s2.1,2.6,3.6,3.3c1.5,0.7,3.3,1.1,5.3,1.1c1.5,0,2.8-0.1,3.9-0.3c1.1-0.2,2.1-0.6,3.1-1.1v-4.2
		c-1.1,0.5-2.2,0.9-3.2,1.2c-1.1,0.3-2.2,0.4-3.5,0.4c-1.5,0-2.7-0.4-3.6-1.3c-0.9-0.9-1.3-2.1-1.4-3.6h12.8v-2.6
		c0-2.9-0.8-5.1-2.4-6.7C306.5,705.6,304.4,704.8,301.6,704.8z M297.8,712.8c0.1-1.4,0.5-2.5,1.2-3.2c0.7-0.7,1.5-1,2.6-1
		c1.3,0,2.2,0.4,2.8,1.2c0.6,0.8,0.9,1.8,1,3H297.8z"/>
	<path class="st4" d="M327.1,704.8c-1.2,0-2.4,0.2-3.5,0.7c-1.1,0.5-2,1.2-2.6,2.2h-0.3l-0.7-2.5h-4.1V725h5.4v-9.3
		c0-2.1,0.3-3.7,0.9-4.8c0.6-1.1,1.7-1.7,3.4-1.7c1.1,0,1.9,0.4,2.4,1.1s0.8,1.8,0.8,3.2V725h5.4v-12.9c0-2.5-0.6-4.4-1.9-5.5
		C330.9,705.4,329.2,704.8,327.1,704.8z"/>
	<path class="st4" d="M350.7,720.9c-0.6,0.1-1.1,0.2-1.7,0.2c-0.7,0-1.3-0.2-1.7-0.6c-0.4-0.4-0.7-0.9-0.7-1.7v-9.5h5.6v-4.1h-5.6
		V701h-3.4l-1.6,4.2l-3,1.8v2.3h2.6v9.5c0,1.7,0.3,3,0.8,4c0.5,0.9,1.3,1.6,2.2,2c0.9,0.4,2,0.6,3.2,0.6c1,0,2-0.1,2.8-0.3
		c0.9-0.2,1.6-0.4,2.2-0.7v-4C351.8,720.6,351.2,720.8,350.7,720.9z"/>
</g>
<g>
	<polygon class="st4" points="151.4,176.3 148.3,174.8 148.3,158.1 151.4,156.6 151.4,153.5 139.6,153.5 139.6,156.6 142.8,158.1 
		142.8,174.8 139.6,176.3 139.6,179.4 151.4,179.4 	"/>
	<path class="st4" d="M161.7,170.1c0-2.1,0.3-3.7,0.9-4.8c0.6-1.1,1.7-1.7,3.4-1.7c1.1,0,1.9,0.4,2.4,1.1c0.5,0.7,0.8,1.8,0.8,3.2
		v11.6h5.4v-12.9c0-2.5-0.6-4.4-1.9-5.5s-3-1.7-5.1-1.7c-1.2,0-2.4,0.2-3.5,0.7c-1.1,0.5-2,1.2-2.6,2.2h-0.3l-0.7-2.5h-4.1v19.8h5.4
		V170.1z"/>
	<path class="st4" d="M192.6,179.4c0.9-0.2,1.8-0.6,2.6-1.1v-4.6c-0.8,0.5-1.7,1-2.5,1.3c-0.9,0.3-1.9,0.5-3,0.5
		c-1.3,0-2.4-0.5-3.1-1.4c-0.7-0.9-1.1-2.4-1.1-4.4c0-4,1.4-6,4.2-6c0.7,0,1.5,0.1,2.2,0.3c0.7,0.2,1.5,0.5,2.4,0.8l1.6-4.2
		c-0.8-0.4-1.6-0.7-2.6-0.9c-1-0.3-2.2-0.4-3.5-0.4c-1.9,0-3.6,0.4-5.1,1.1c-1.5,0.7-2.6,1.9-3.4,3.4c-0.8,1.5-1.2,3.5-1.2,5.9
		c0,3.5,0.8,6.1,2.4,7.7c1.6,1.6,3.9,2.4,6.8,2.4C190.5,179.8,191.7,179.7,192.6,179.4z"/>
	<path class="st4" d="M208.8,159.2c-1.9,0-3.5,0.4-4.9,1.2c-1.4,0.8-2.5,1.9-3.3,3.5c-0.8,1.5-1.2,3.5-1.2,5.8
		c0,2.3,0.4,4.2,1.3,5.7c0.9,1.5,2.1,2.6,3.6,3.3c1.5,0.7,3.3,1.1,5.3,1.1c1.5,0,2.8-0.1,3.9-0.3c1.1-0.2,2.1-0.6,3.1-1.1v-4.2
		c-1.1,0.5-2.2,0.9-3.2,1.2c-1.1,0.3-2.2,0.4-3.5,0.4c-1.5,0-2.7-0.4-3.6-1.3c-0.9-0.9-1.3-2.1-1.4-3.6h12.8v-2.6
		c0-2.9-0.8-5.1-2.4-6.7C213.7,160,211.6,159.2,208.8,159.2z M205,167.2c0.1-1.4,0.5-2.5,1.2-3.2c0.7-0.7,1.5-1,2.6-1
		c1.3,0,2.2,0.4,2.8,1.2c0.6,0.8,0.9,1.8,1,3H205z"/>
	<path class="st4" d="M228.4,170.1c0-2.1,0.3-3.7,0.9-4.8c0.6-1.1,1.7-1.7,3.4-1.7c1.1,0,1.9,0.4,2.4,1.1c0.5,0.7,0.8,1.8,0.8,3.2
		v11.6h5.4v-12.9c0-2.5-0.6-4.4-1.9-5.5s-3-1.7-5.1-1.7c-1.2,0-2.4,0.2-3.5,0.7c-1.1,0.5-2,1.2-2.6,2.2h-0.3l-0.7-2.5H223v19.8h5.4
		V170.1z"/>
	<path class="st4" d="M248.4,173.2c0,1.7,0.3,3,0.8,4s1.3,1.6,2.2,2c0.9,0.4,2,0.6,3.2,0.6c1,0,2-0.1,2.8-0.3
		c0.9-0.2,1.6-0.4,2.2-0.7v-4c-0.6,0.2-1.1,0.3-1.7,0.5c-0.6,0.1-1.1,0.2-1.7,0.2c-0.7,0-1.3-0.2-1.7-0.6c-0.4-0.4-0.7-0.9-0.7-1.7
		v-9.5h5.6v-4.1h-5.6v-4.2h-3.4l-1.6,4.2l-3,1.8v2.3h2.6V173.2z"/>
	<rect x="264.4" y="159.6" class="st4" width="5.4" height="19.8"/>
	<path class="st4" d="M269.2,152.4c-0.6-0.4-1.3-0.6-2.1-0.6c-0.8,0-1.5,0.2-2.1,0.6c-0.6,0.4-0.9,1.1-0.9,2.1c0,1,0.3,1.7,0.9,2.1
		c0.6,0.4,1.3,0.6,2.1,0.6c0.8,0,1.5-0.2,2.1-0.6c0.6-0.4,0.9-1.1,0.9-2.1C270.1,153.5,269.8,152.8,269.2,152.4z"/>
	<path class="st4" d="M284.8,170.9c-0.5,1.4-0.7,2.8-0.8,4.1h-0.1c0-0.6-0.1-1.2-0.3-2c-0.1-0.7-0.3-1.4-0.5-2.1l-3.8-11.3h-5.7
		l7.6,19.8h5.6l7.6-19.8h-5.7L284.8,170.9z"/>
	<path class="st4" d="M307.2,175.7c-1.5,0-2.7-0.4-3.6-1.3c-0.9-0.9-1.3-2.1-1.4-3.6H315v-2.6c0-2.9-0.8-5.1-2.4-6.7
		c-1.6-1.6-3.8-2.3-6.5-2.3c-1.9,0-3.5,0.4-4.9,1.2c-1.4,0.8-2.5,1.9-3.3,3.5c-0.8,1.5-1.2,3.5-1.2,5.8c0,2.3,0.4,4.2,1.3,5.7
		c0.9,1.5,2.1,2.6,3.6,3.3c1.5,0.7,3.3,1.1,5.3,1.1c1.5,0,2.8-0.1,3.9-0.3c1.1-0.2,2.1-0.6,3.1-1.1v-4.2c-1.1,0.5-2.2,0.9-3.2,1.2
		C309.6,175.6,308.5,175.7,307.2,175.7z M303.6,164.1c0.7-0.7,1.5-1,2.6-1c1.3,0,2.2,0.4,2.8,1.2c0.6,0.8,0.9,1.8,1,3h-7.6
		C302.5,165.8,302.9,164.8,303.6,164.1z"/>
	<polygon class="st4" points="123.9,221.8 129.3,221.8 129.3,211.5 138.1,211.5 138.1,207 129.3,207 129.3,200.4 138.8,200.4 
		138.8,195.9 123.9,195.9 	"/>
	<path class="st4" d="M155.4,201.6c-1.3,0-2.5,0.4-3.5,1.1s-1.8,1.6-2.4,2.6h-0.3l-0.8-3.3h-4.1v19.8h5.4v-10.1c0-1.3,0.3-2.3,0.8-3
		c0.5-0.7,1.2-1.3,2.1-1.6s1.7-0.5,2.6-0.5c0.2,0,0.5,0,0.8,0.1c0.3,0,0.6,0.1,0.8,0.1l0.4-5.1c-0.2,0-0.5-0.1-0.9-0.1
		C156,201.6,155.7,201.6,155.4,201.6z"/>
	<path class="st4" d="M175.2,203.3c-1.4-1.1-3.5-1.7-6.1-1.7c-1.4,0-2.8,0.2-4.1,0.5s-2.5,0.8-3.5,1.3l1.8,3.7
		c0.9-0.4,1.8-0.8,2.8-1c0.9-0.3,1.9-0.4,2.8-0.4c1,0,1.7,0.2,2.3,0.7c0.5,0.5,0.8,1.2,0.8,2.3v0.9l-3.4,0.1c-3,0.1-5.2,0.7-6.6,1.7
		c-1.5,1-2.2,2.5-2.2,4.6c0,2.2,0.6,3.7,1.7,4.8s2.6,1.5,4.4,1.5c1.6,0,2.9-0.2,3.9-0.7c0.9-0.5,1.8-1.3,2.7-2.3h0.1l1.1,2.7h3.8
		v-13.2C177.3,206.2,176.6,204.4,175.2,203.3z M171.9,214.2c0,1.3-0.4,2.2-1.2,2.9c-0.8,0.7-1.8,1-2.9,1c-0.8,0-1.4-0.2-1.9-0.5
		c-0.5-0.4-0.7-0.9-0.7-1.8c0-0.9,0.3-1.7,1-2.3c0.7-0.6,1.9-0.9,3.6-0.9l2.1-0.1V214.2z"/>
	<path class="st4" d="M207,201.6c-1.1,0-2.2,0.2-3.3,0.7c-1.1,0.5-1.9,1.2-2.5,2.2h-0.5c-0.6-1-1.3-1.7-2.3-2.2
		c-1-0.5-2.2-0.7-3.7-0.7c-1.1,0-2.2,0.2-3.3,0.7c-1.1,0.5-1.9,1.2-2.5,2.2h-0.3l-0.7-2.5h-4.1v19.8h5.4v-9.3c0-2.1,0.3-3.7,0.9-4.8
		c0.6-1.1,1.6-1.7,3.1-1.7c2,0,3,1.4,3,4.3v11.6h5.4v-9.9c0-1.9,0.3-3.4,0.9-4.4c0.6-1,1.6-1.5,3-1.5c2,0,3,1.4,3,4.3v11.6h5.4
		v-12.9c0-2.5-0.6-4.4-1.7-5.5S209.3,201.6,207,201.6z"/>
	<path class="st4" d="M228.5,201.6c-1.9,0-3.5,0.4-4.9,1.2c-1.4,0.8-2.5,1.9-3.3,3.5c-0.8,1.5-1.2,3.5-1.2,5.8
		c0,2.3,0.4,4.2,1.3,5.7c0.9,1.5,2.1,2.6,3.6,3.3c1.5,0.7,3.3,1.1,5.3,1.1c1.5,0,2.8-0.1,3.9-0.3c1.1-0.2,2.1-0.6,3.1-1.1v-4.2
		c-1.1,0.5-2.2,0.9-3.2,1.2c-1.1,0.3-2.2,0.4-3.5,0.4c-1.5,0-2.7-0.4-3.6-1.3c-0.9-0.9-1.3-2.1-1.4-3.6h12.8v-2.6
		c0-2.9-0.8-5.1-2.4-6.7C233.4,202.4,231.2,201.6,228.5,201.6z M224.7,209.6c0.1-1.4,0.5-2.5,1.2-3.2c0.7-0.7,1.5-1,2.6-1
		c1.3,0,2.2,0.4,2.8,1.2c0.6,0.8,0.9,1.8,1,3H224.7z"/>
	<path class="st4" d="M262.2,210.7c-0.2,0.6-0.3,1.4-0.5,2.2c-0.2,0.9-0.3,1.7-0.4,2.5c-0.1,0.8-0.2,1.4-0.3,1.8h-0.1
		c0-0.5-0.1-1.1-0.2-1.9s-0.2-1.5-0.4-2.3c-0.1-0.7-0.3-1.3-0.3-1.6l-2.3-9.5h-6l-2.4,9.5c0,0.2-0.1,0.5-0.2,1
		c-0.1,0.5-0.2,1-0.3,1.6s-0.2,1.2-0.3,1.8c-0.1,0.6-0.1,1-0.1,1.4h-0.1c-0.1-0.5-0.2-1.1-0.3-1.9c-0.1-0.8-0.2-1.6-0.4-2.4
		c-0.1-0.8-0.3-1.6-0.5-2.2l-2.3-8.8h-5.4l5.6,19.8h5.8l1.6-6.9c0.1-0.4,0.2-1.1,0.4-1.9c0.2-0.8,0.4-1.7,0.6-2.6s0.4-1.8,0.6-2.6
		c0.2-0.8,0.3-1.4,0.4-1.7h0.1c0.1,0.4,0.2,0.9,0.4,1.7c0.2,0.8,0.4,1.6,0.6,2.6c0.2,0.9,0.4,1.8,0.6,2.6c0.2,0.8,0.3,1.4,0.4,1.8
		l1.5,6.9h5.9l5.7-19.8h-5.3L262.2,210.7z"/>
	<path class="st4" d="M287.3,202.8c-1.4-0.8-3.1-1.2-4.9-1.2c-3,0-5.4,0.9-7.1,2.6c-1.7,1.8-2.6,4.3-2.6,7.6c0,2.2,0.4,4.1,1.2,5.6
		c0.8,1.5,2,2.7,3.4,3.5c1.4,0.8,3.1,1.2,4.9,1.2c3,0,5.3-0.9,7.1-2.7c1.7-1.8,2.6-4.3,2.6-7.6c0-2.2-0.4-4-1.2-5.6
		C289.9,204.7,288.8,203.6,287.3,202.8z M285.5,216.3c-0.6,1-1.7,1.5-3.1,1.5c-1.5,0-2.5-0.5-3.1-1.5c-0.6-1-1-2.5-1-4.4
		c0-2,0.3-3.4,1-4.4c0.6-1,1.7-1.5,3.1-1.5c1.5,0,2.5,0.5,3.1,1.5c0.6,1,1,2.5,1,4.4C286.4,213.8,286.1,215.3,285.5,216.3z"/>
	<path class="st4" d="M308.4,201.6c-1.3,0-2.5,0.4-3.5,1.1s-1.8,1.6-2.4,2.6h-0.3l-0.8-3.3h-4.1v19.8h5.4v-10.1c0-1.3,0.3-2.3,0.8-3
		c0.5-0.7,1.2-1.3,2.1-1.6s1.7-0.5,2.6-0.5c0.2,0,0.5,0,0.8,0.1c0.3,0,0.6,0.1,0.8,0.1l0.4-5.1c-0.2,0-0.5-0.1-0.9-0.1
		C309,201.6,308.7,201.6,308.4,201.6z"/>
	<path class="st4" d="M326,210.6l7.9-8.6h-6.1l-5.6,6c-0.4,0.5-0.8,1-1.2,1.5c-0.4,0.5-0.8,1-1.1,1.5h-0.1c0.1-0.7,0.1-1.5,0.2-2.2
		c0.1-0.7,0.1-1.5,0.1-2.2v-12.3h-5.4v27.6h5.4v-6.2l2.3-1.9l5.7,8h6.2L326,210.6z"/>
</g>
<g>
	<path class="st4" d="M619.9,660.9c0.9,0,1.9,0.2,2.9,0.5c1,0.3,2,0.7,2.9,1.2l1.8-4.5c-1.2-0.6-2.4-1-3.7-1.3
		c-1.3-0.3-2.6-0.5-3.9-0.5c-2.6,0-4.8,0.6-6.6,1.7c-1.8,1.1-3.2,2.7-4.1,4.7c-0.9,2-1.4,4.3-1.4,6.9c0,2.7,0.4,5,1.2,7
		c0.8,2,2.1,3.5,3.8,4.6c1.7,1.1,3.9,1.7,6.6,1.7c1.4,0,2.6-0.1,3.7-0.3c1.1-0.2,2.2-0.6,3.4-1V677c-1.2,0.4-2.4,0.8-3.4,1
		c-1.1,0.2-2.1,0.4-3.2,0.4c-2.3,0-3.9-0.8-5-2.3c-1-1.5-1.5-3.6-1.5-6.4c0-2.7,0.6-4.9,1.7-6.5
		C616.2,661.7,617.8,660.9,619.9,660.9z"/>
	<path class="st4" d="M646.7,664.1c-1.4-1.1-3.5-1.7-6.1-1.7c-1.4,0-2.8,0.2-4.1,0.5c-1.3,0.3-2.5,0.8-3.5,1.3l1.8,3.7
		c0.9-0.4,1.8-0.8,2.8-1s1.9-0.4,2.8-0.4c1,0,1.7,0.2,2.3,0.7c0.5,0.5,0.8,1.2,0.8,2.3v0.9l-3.4,0.1c-3,0.1-5.2,0.7-6.6,1.7
		c-1.5,1-2.2,2.5-2.2,4.6c0,2.2,0.6,3.7,1.7,4.8c1.2,1,2.6,1.5,4.4,1.5c1.6,0,2.9-0.2,3.9-0.7c0.9-0.5,1.8-1.3,2.7-2.3h0.1l1.1,2.7
		h3.8v-13.2C648.8,667,648.1,665.3,646.7,664.1z M643.4,675.1c0,1.3-0.4,2.2-1.2,2.9c-0.8,0.7-1.8,1-2.9,1c-0.8,0-1.4-0.2-1.9-0.5
		c-0.5-0.4-0.7-0.9-0.7-1.8c0-0.9,0.3-1.7,1-2.3c0.7-0.6,1.9-0.9,3.6-0.9l2.1-0.1V675.1z"/>
	<path class="st4" d="M660.7,683.4c0-0.9-0.1-1.9-0.3-2.9h0.3c0.5,0.7,1.2,1.2,2.1,1.8c0.8,0.5,2,0.8,3.4,0.8c2.2,0,4.1-0.9,5.5-2.6
		c1.4-1.7,2.1-4.3,2.1-7.7c0-3.4-0.7-5.9-2.1-7.6c-1.4-1.7-3.2-2.6-5.4-2.6c-1.4,0-2.6,0.3-3.5,0.9c-0.9,0.6-1.6,1.3-2.1,2.1h-0.3
		l-0.8-2.6h-4.4v28.5h5.4V683.4z M660.7,672.1c0-1.8,0.3-3.1,0.9-4c0.6-0.9,1.6-1.3,3-1.3c2.5,0,3.7,1.9,3.7,5.8
		c0,1.9-0.3,3.4-0.9,4.4c-0.6,1-1.5,1.5-2.7,1.5c-1.5,0-2.5-0.5-3.1-1.5c-0.6-1-0.9-2.5-0.9-4.4V672.1z"/>
	<rect x="679.1" y="662.8" class="st4" width="5.4" height="19.8"/>
	<path class="st4" d="M679.8,659.8c0.6,0.4,1.3,0.6,2.1,0.6c0.8,0,1.5-0.2,2.1-0.6c0.6-0.4,0.9-1.1,0.9-2.1c0-1-0.3-1.7-0.9-2.1
		c-0.6-0.4-1.3-0.6-2.1-0.6c-0.8,0-1.5,0.2-2.1,0.6c-0.6,0.4-0.9,1.1-0.9,2.1C678.9,658.7,679.2,659.4,679.8,659.8z"/>
	<path class="st4" d="M694.7,682.4c0.9,0.4,2,0.6,3.2,0.6c1,0,2-0.1,2.8-0.3c0.9-0.2,1.6-0.4,2.2-0.7v-4c-0.6,0.2-1.1,0.3-1.7,0.5
		c-0.6,0.1-1.1,0.2-1.7,0.2c-0.7,0-1.3-0.2-1.7-0.6c-0.4-0.4-0.7-0.9-0.7-1.7v-9.5h5.6v-4.1h-5.6v-4.2h-3.4l-1.6,4.2l-3,1.8v2.3h2.6
		v9.5c0,1.7,0.3,3,0.8,4C693,681.4,693.8,682,694.7,682.4z"/>
	<path class="st4" d="M724.1,669.4c0-2.4-0.7-4.1-2.1-5.3c-1.4-1.1-3.5-1.7-6.1-1.7c-1.4,0-2.8,0.2-4.1,0.5
		c-1.3,0.3-2.5,0.8-3.5,1.3l1.8,3.7c0.9-0.4,1.8-0.8,2.8-1s1.9-0.4,2.8-0.4c1,0,1.7,0.2,2.3,0.7c0.5,0.5,0.8,1.2,0.8,2.3v0.9
		l-3.4,0.1c-3,0.1-5.2,0.7-6.6,1.7c-1.5,1-2.2,2.5-2.2,4.6c0,2.2,0.6,3.7,1.7,4.8c1.2,1,2.6,1.5,4.4,1.5c1.6,0,2.9-0.2,3.9-0.7
		c0.9-0.5,1.8-1.3,2.7-2.3h0.1l1.1,2.7h3.8V669.4z M718.8,675.1c0,1.3-0.4,2.2-1.2,2.9c-0.8,0.7-1.8,1-2.9,1c-0.8,0-1.4-0.2-1.9-0.5
		c-0.5-0.4-0.7-0.9-0.7-1.8c0-0.9,0.3-1.7,1-2.3c0.7-0.6,1.9-0.9,3.6-0.9l2.1-0.1V675.1z"/>
	<rect x="730.6" y="655" class="st4" width="5.4" height="27.6"/>
	<path class="st4" d="M585.6,699l-9.1,26h5.9l1.9-6.2h9.4l1.9,6.2h5.9l-9.2-26H585.6z M585.7,714.2l1.9-6c0.1-0.3,0.2-0.7,0.4-1.4
		c0.2-0.6,0.4-1.3,0.6-2c0.2-0.7,0.4-1.3,0.5-1.8c0.1,0.5,0.3,1.1,0.5,1.7s0.4,1.3,0.6,1.9c0.2,0.6,0.4,1.2,0.5,1.6l1.9,6H585.7z"/>
	<rect x="605.3" y="697.4" class="st4" width="5.4" height="27.6"/>
	<rect x="617.2" y="697.4" class="st4" width="5.4" height="27.6"/>
	<path class="st4" d="M642.6,706c-1.4-0.8-3.1-1.2-4.9-1.2c-3,0-5.4,0.9-7.1,2.6c-1.7,1.8-2.6,4.3-2.6,7.6c0,2.2,0.4,4.1,1.2,5.6
		c0.8,1.5,2,2.7,3.4,3.5c1.4,0.8,3.1,1.2,4.9,1.2c3,0,5.3-0.9,7.1-2.7c1.7-1.8,2.6-4.3,2.6-7.6c0-2.2-0.4-4-1.2-5.6
		C645.2,708,644,706.8,642.6,706z M640.7,719.5c-0.6,1-1.7,1.5-3.1,1.5c-1.5,0-2.5-0.5-3.1-1.5c-0.6-1-1-2.5-1-4.4s0.3-3.4,1-4.4
		c0.6-1,1.7-1.5,3.1-1.5c1.5,0,2.5,0.5,3.1,1.5c0.6,1,1,2.5,1,4.4S641.4,718.5,640.7,719.5z"/>
	<path class="st4" d="M661.1,709.2c0.7,0,1.5,0.1,2.2,0.3s1.5,0.5,2.4,0.8l1.6-4.2c-0.8-0.4-1.6-0.7-2.6-0.9c-1-0.3-2.2-0.4-3.5-0.4
		c-1.9,0-3.6,0.4-5.1,1.1s-2.6,1.9-3.4,3.4c-0.8,1.5-1.2,3.5-1.2,5.9c0,3.5,0.8,6.1,2.4,7.7c1.6,1.6,3.9,2.4,6.8,2.4
		c1.4,0,2.5-0.1,3.4-0.3c0.9-0.2,1.8-0.6,2.6-1.1v-4.6c-0.8,0.5-1.7,1-2.5,1.3c-0.9,0.3-1.9,0.5-3,0.5c-1.3,0-2.4-0.5-3.1-1.4
		c-0.7-0.9-1.1-2.4-1.1-4.4C656.9,711.2,658.3,709.2,661.1,709.2z"/>
	<path class="st4" d="M686.4,706.5c-1.4-1.1-3.5-1.7-6.1-1.7c-1.4,0-2.8,0.2-4.1,0.5c-1.3,0.3-2.5,0.8-3.5,1.3l1.8,3.7
		c0.9-0.4,1.8-0.8,2.8-1s1.9-0.4,2.8-0.4c1,0,1.7,0.2,2.3,0.7c0.5,0.5,0.8,1.2,0.8,2.3v0.9l-3.4,0.1c-3,0.1-5.2,0.7-6.6,1.7
		c-1.5,1-2.2,2.5-2.2,4.6c0,2.2,0.6,3.7,1.7,4.8c1.2,1,2.6,1.5,4.4,1.5c1.6,0,2.9-0.2,3.9-0.7c0.9-0.5,1.8-1.3,2.7-2.3h0.1l1.1,2.7
		h3.8v-13.2C688.5,709.4,687.8,707.6,686.4,706.5z M683.1,717.4c0,1.3-0.4,2.2-1.2,2.9c-0.8,0.7-1.8,1-2.9,1c-0.8,0-1.4-0.2-1.9-0.5
		c-0.5-0.4-0.7-0.9-0.7-1.8c0-0.9,0.3-1.7,1-2.3c0.7-0.6,1.9-0.9,3.6-0.9l2.1-0.1V717.4z"/>
	<path class="st4" d="M703.3,721c-0.7,0-1.3-0.2-1.7-0.6c-0.4-0.4-0.7-0.9-0.7-1.7v-9.5h5.6v-4.1H701V701h-3.4l-1.6,4.2l-3,1.8v2.3
		h2.6v9.5c0,1.7,0.3,3,0.8,4c0.5,0.9,1.3,1.6,2.2,2s2,0.6,3.2,0.6c1,0,2-0.1,2.8-0.3c0.9-0.2,1.6-0.4,2.2-0.7v-4
		c-0.6,0.2-1.1,0.3-1.7,0.5C704.5,721,703.9,721,703.3,721z"/>
	<path class="st4" d="M716.4,698c-0.6-0.4-1.3-0.6-2.1-0.6c-0.8,0-1.5,0.2-2.1,0.6c-0.6,0.4-0.9,1.1-0.9,2.1c0,1,0.3,1.7,0.9,2.1
		c0.6,0.4,1.3,0.6,2.1,0.6c0.8,0,1.5-0.2,2.1-0.6c0.6-0.4,0.9-1.1,0.9-2.1C717.3,699,717,698.3,716.4,698z"/>
	<rect x="711.6" y="705.2" class="st4" width="5.4" height="19.8"/>
	<path class="st4" d="M737,706c-1.4-0.8-3.1-1.2-4.9-1.2c-3,0-5.4,0.9-7.1,2.6c-1.7,1.8-2.6,4.3-2.6,7.6c0,2.2,0.4,4.1,1.2,5.6
		c0.8,1.5,2,2.7,3.4,3.5c1.4,0.8,3.1,1.2,4.9,1.2c3,0,5.3-0.9,7.1-2.7c1.7-1.8,2.6-4.3,2.6-7.6c0-2.2-0.4-4-1.2-5.6
		C739.6,708,738.4,706.8,737,706z M735.1,719.5c-0.6,1-1.7,1.5-3.1,1.5c-1.5,0-2.5-0.5-3.1-1.5c-0.6-1-1-2.5-1-4.4s0.3-3.4,1-4.4
		c0.6-1,1.7-1.5,3.1-1.5c1.5,0,2.5,0.5,3.1,1.5c0.6,1,1,2.5,1,4.4S735.8,718.5,735.1,719.5z"/>
	<path class="st4" d="M763.4,706.5c-1.3-1.1-3-1.7-5.1-1.7c-1.2,0-2.4,0.2-3.5,0.7c-1.1,0.5-2,1.2-2.6,2.2h-0.3l-0.7-2.5H747V725
		h5.4v-9.3c0-2.1,0.3-3.7,0.9-4.8c0.6-1.1,1.7-1.7,3.4-1.7c1.1,0,1.9,0.4,2.4,1.1c0.5,0.7,0.8,1.8,0.8,3.2V725h5.4v-12.9
		C765.3,709.5,764.7,707.7,763.4,706.5z"/>
</g>
<g>
	<g>
		<path class="st25" d="M384.6,391.5c0,3.9-1.1,6.9-3.4,8.9c-2.2,2-5.4,3-9.4,3h-6.6v-23.3h7.3c2.4,0,4.6,0.4,6.4,1.3
			s3.2,2.2,4.2,3.9C384.1,386.9,384.6,389,384.6,391.5z M379.5,391.6c0-2.6-0.6-4.5-1.7-5.7c-1.1-1.2-2.8-1.8-4.9-1.8h-2.6v15.2h2.1
			C377.1,399.3,379.5,396.7,379.5,391.6z"/>
		<path class="st25" d="M397.2,385.2c2.5,0,4.4,0.7,5.8,2.1s2.2,3.4,2.2,6v2.4h-11.5c0,1.4,0.5,2.5,1.2,3.2c0.8,0.8,1.8,1.2,3.2,1.2
			c1.1,0,2.2-0.1,3.1-0.3c0.9-0.2,1.9-0.6,2.9-1.1v3.8c-0.9,0.4-1.8,0.8-2.8,1c-1,0.2-2.1,0.3-3.5,0.3c-1.8,0-3.4-0.3-4.7-1
			c-1.4-0.7-2.5-1.7-3.2-3c-0.8-1.3-1.2-3-1.2-5.1c0-2.1,0.4-3.8,1.1-5.2c0.7-1.4,1.7-2.4,3-3.1C394,385.6,395.5,385.2,397.2,385.2z
			 M397.2,388.7c-1,0-1.7,0.3-2.4,0.9c-0.6,0.6-1,1.6-1.1,2.8h6.8c0-1.1-0.3-2-0.9-2.7C399.2,389,398.4,388.7,397.2,388.7z"/>
		<path class="st25" d="M414.8,403.4H410v-24.8h4.9V403.4z"/>
		<path class="st25" d="M423.2,378.5c0.7,0,1.3,0.2,1.9,0.5c0.5,0.3,0.8,1,0.8,1.9c0,0.9-0.3,1.5-0.8,1.9c-0.5,0.3-1.1,0.5-1.9,0.5
			c-0.7,0-1.4-0.2-1.9-0.5c-0.5-0.3-0.8-1-0.8-1.9c0-0.9,0.3-1.5,0.8-1.9C421.8,378.7,422.4,378.5,423.2,378.5z M425.6,385.5v17.8
			h-4.9v-17.8H425.6z"/>
		<path class="st25" d="M435.7,403.4l-6.8-17.8h5.1l3.4,10.2c0.2,0.6,0.3,1.2,0.5,1.9c0.1,0.7,0.2,1.2,0.2,1.8h0.1
			c0.1-1.2,0.3-2.4,0.7-3.7l3.4-10.2h5.1l-6.8,17.8H435.7z"/>
		<path class="st25" d="M458.2,385.2c2.5,0,4.4,0.7,5.8,2.1s2.2,3.4,2.2,6v2.4h-11.5c0,1.4,0.5,2.5,1.2,3.2c0.8,0.8,1.8,1.2,3.2,1.2
			c1.1,0,2.2-0.1,3.1-0.3c0.9-0.2,1.9-0.6,2.9-1.1v3.8c-0.9,0.4-1.8,0.8-2.8,1c-1,0.2-2.1,0.3-3.5,0.3c-1.8,0-3.4-0.3-4.7-1
			c-1.4-0.7-2.4-1.7-3.2-3c-0.8-1.3-1.2-3-1.2-5.1c0-2.1,0.4-3.8,1.1-5.2c0.7-1.4,1.7-2.4,3-3.1
			C455.1,385.6,456.5,385.2,458.2,385.2z M458.3,388.7c-1,0-1.7,0.3-2.4,0.9c-0.6,0.6-1,1.6-1.1,2.8h6.8c0-1.1-0.3-2-0.9-2.7
			C460.2,389,459.4,388.7,458.3,388.7z"/>
		<path class="st25" d="M481,385.2c0.2,0,0.5,0,0.8,0c0.3,0,0.6,0.1,0.8,0.1l-0.4,4.6c-0.2,0-0.4-0.1-0.7-0.1s-0.5,0-0.8,0
			c-0.8,0-1.6,0.1-2.4,0.4c-0.8,0.3-1.4,0.8-1.8,1.4s-0.7,1.5-0.7,2.7v9.1H471v-17.8h3.7l0.7,3h0.2c0.5-0.9,1.2-1.7,2.2-2.4
			S479.8,385.2,481,385.2z"/>
		<path class="st25" d="M489.1,378.5c0.7,0,1.3,0.2,1.9,0.5c0.5,0.3,0.8,1,0.8,1.9c0,0.9-0.3,1.5-0.8,1.9c-0.5,0.3-1.1,0.5-1.9,0.5
			c-0.7,0-1.4-0.2-1.9-0.5c-0.5-0.3-0.8-1-0.8-1.9c0-0.9,0.3-1.5,0.8-1.9C487.7,378.7,488.4,378.5,489.1,378.5z M491.5,385.5v17.8
			h-4.9v-17.8H491.5z"/>
		<path class="st25" d="M507.5,385.2c1.9,0,3.5,0.5,4.6,1.6c1.2,1,1.7,2.7,1.7,5v11.6H509V393c0-1.3-0.2-2.2-0.7-2.9
			c-0.5-0.6-1.2-1-2.2-1c-1.5,0-2.5,0.5-3,1.5c-0.5,1-0.8,2.5-0.8,4.4v8.4h-4.9v-17.8h3.7l0.7,2.3h0.3c0.6-0.9,1.3-1.6,2.3-2
			C505.4,385.4,506.4,385.2,507.5,385.2z"/>
		<path class="st25" d="M525.5,385.2c2.2,0,3.9,0.9,5.2,2.6h0.1l0.4-2.3h4.1v17.9c0,2.5-0.8,4.5-2.3,5.8c-1.5,1.3-3.7,2-6.7,2
			c-1.3,0-2.4-0.1-3.5-0.2c-1.1-0.2-2.1-0.4-3.2-0.8v-3.9c2.2,0.9,4.5,1.4,7,1.4c2.5,0,3.8-1.4,3.8-4.1v-0.4c0-0.3,0-0.7,0-1.1
			c0-0.4,0.1-0.8,0.1-1.1h-0.1c-0.6,0.9-1.3,1.6-2.2,2s-1.8,0.6-2.9,0.6c-2.1,0-3.8-0.8-4.9-2.4c-1.2-1.6-1.8-3.9-1.8-6.8
			c0-2.9,0.6-5.2,1.8-6.8C521.6,386,523.3,385.2,525.5,385.2z M527,389.2c-2.3,0-3.4,1.8-3.4,5.4c0,3.6,1.2,5.3,3.5,5.3
			c1.2,0,2.2-0.4,2.8-1.1c0.6-0.7,0.9-1.9,0.9-3.7v-0.6c0-1.9-0.3-3.3-0.9-4.1C529.2,389.6,528.3,389.2,527,389.2z"/>
	</g>
	<g>
		<path class="st25" d="M367.4,435.6c0,2.1-0.7,3.7-2.2,4.9c-1.5,1.2-3.6,1.8-6.4,1.8c-2.5,0-4.7-0.5-6.6-1.4v-4.6
			c1.1,0.5,2.3,0.9,3.4,1.3c1.2,0.4,2.4,0.6,3.5,0.6c1.2,0,2.1-0.2,2.6-0.7c0.5-0.5,0.8-1.1,0.8-1.8c0-0.6-0.2-1.1-0.6-1.5
			c-0.4-0.4-0.9-0.8-1.6-1.2c-0.7-0.4-1.4-0.7-2.3-1.2c-0.5-0.3-1.1-0.6-1.8-0.9s-1.2-0.8-1.8-1.3c-0.6-0.5-1.1-1.2-1.4-1.9
			c-0.4-0.8-0.6-1.7-0.6-2.7c0-2.1,0.7-3.7,2.1-4.9c1.4-1.2,3.3-1.7,5.8-1.7c1.2,0,2.4,0.1,3.5,0.4c1.1,0.3,2.2,0.7,3.5,1.2
			l-1.6,3.9c-1.1-0.4-2-0.8-2.9-1c-0.8-0.2-1.7-0.4-2.6-0.4c-0.9,0-1.7,0.2-2.2,0.7c-0.5,0.4-0.8,1-0.8,1.7c0,0.8,0.4,1.5,1.1,2
			c0.7,0.5,1.8,1.1,3.3,1.8c1.2,0.6,2.2,1.2,3.1,1.8c0.8,0.6,1.5,1.3,1.9,2.2C367.1,433.4,367.4,434.4,367.4,435.6z"/>
		<path class="st25" d="M388.4,424.3v17.8h-3.7l-0.7-2.3h-0.3c-0.6,0.9-1.3,1.6-2.3,2c-1,0.4-2,0.6-3.2,0.6c-1.9,0-3.5-0.5-4.6-1.6
			c-1.2-1-1.7-2.7-1.7-5v-11.6h4.9v10.4c0,1.3,0.2,2.2,0.7,2.9c0.5,0.6,1.2,1,2.2,1c1.5,0,2.5-0.5,3-1.5c0.5-1,0.8-2.5,0.8-4.4v-8.4
			H388.4z"/>
		<path class="st25" d="M406.7,436.8c0,1.8-0.6,3.2-1.9,4.2c-1.3,1-3.2,1.5-5.7,1.5c-1.2,0-2.3-0.1-3.2-0.2
			c-0.9-0.2-1.8-0.4-2.7-0.8v-4c1,0.4,2,0.8,3.1,1.1c1.1,0.3,2.1,0.4,2.9,0.4c0.9,0,1.6-0.1,2-0.4c0.4-0.3,0.6-0.7,0.6-1.1
			c0-0.3-0.1-0.6-0.2-0.8c-0.2-0.2-0.5-0.5-1.1-0.8c-0.5-0.3-1.4-0.7-2.5-1.2c-1.1-0.5-2.1-1-2.8-1.4c-0.7-0.5-1.2-1-1.6-1.7
			c-0.3-0.7-0.5-1.5-0.5-2.5c0-1.7,0.6-2.9,1.9-3.7s3-1.2,5.1-1.2c1.1,0,2.2,0.1,3.2,0.3c1,0.2,2,0.6,3.1,1.1l-1.5,3.5
			c-0.9-0.4-1.7-0.7-2.5-0.9c-0.8-0.2-1.6-0.4-2.4-0.4c-1.4,0-2.2,0.4-2.2,1.2c0,0.3,0.1,0.5,0.3,0.8c0.2,0.2,0.5,0.5,1.1,0.7
			c0.5,0.3,1.3,0.6,2.4,1c1,0.4,1.9,0.8,2.6,1.3c0.7,0.4,1.3,1,1.7,1.7C406.5,434.9,406.7,435.8,406.7,436.8z"/>
		<path class="st25" d="M418.8,438.5c0.5,0,1.1,0,1.6-0.1s1-0.2,1.5-0.4v3.6c-0.5,0.2-1.2,0.4-1.9,0.6c-0.8,0.2-1.6,0.2-2.5,0.2
			c-1.1,0-2-0.2-2.9-0.5s-1.5-0.9-2-1.8c-0.5-0.8-0.7-2-0.7-3.6v-8.6h-2.3v-2.1l2.7-1.6l1.4-3.8h3.1v3.8h5v3.7h-5v8.6
			c0,0.7,0.2,1.2,0.6,1.5C417.7,438.4,418.2,438.5,418.8,438.5z"/>
		<path class="st25" d="M433.6,423.9c2.4,0,4.2,0.5,5.5,1.6c1.3,1,1.9,2.6,1.9,4.8v11.9h-3.4l-0.9-2.4h-0.1c-0.8,1-1.6,1.7-2.4,2.1
			c-0.8,0.4-2,0.7-3.5,0.7c-1.6,0-2.9-0.5-4-1.4s-1.6-2.3-1.6-4.3c0-1.9,0.7-3.3,2-4.2c1.3-0.9,3.3-1.4,6-1.5l3.1-0.1v-0.8
			c0-0.9-0.2-1.6-0.7-2.1c-0.5-0.4-1.2-0.7-2-0.7c-0.9,0-1.7,0.1-2.5,0.4c-0.8,0.3-1.7,0.6-2.5,0.9l-1.6-3.3c0.9-0.5,2-0.9,3.2-1.2
			C431.1,424,432.4,423.9,433.6,423.9z M436.2,433.8l-1.9,0.1c-1.6,0-2.7,0.3-3.3,0.8c-0.6,0.5-0.9,1.2-0.9,2.1
			c0,0.7,0.2,1.3,0.7,1.6c0.4,0.3,1,0.5,1.7,0.5c1,0,1.9-0.3,2.6-0.9s1.1-1.5,1.1-2.6V433.8z"/>
		<path class="st25" d="M449.3,417.3c0.7,0,1.3,0.2,1.9,0.5c0.5,0.3,0.8,1,0.8,1.9c0,0.9-0.3,1.5-0.8,1.9c-0.5,0.3-1.1,0.5-1.9,0.5
			c-0.7,0-1.4-0.2-1.9-0.5c-0.5-0.3-0.8-1-0.8-1.9c0-0.9,0.3-1.5,0.8-1.9C447.9,417.4,448.6,417.3,449.3,417.3z M451.7,424.3v17.8
			h-4.9v-17.8H451.7z"/>
		<path class="st25" d="M467.8,423.9c1.9,0,3.5,0.5,4.6,1.6c1.2,1,1.7,2.7,1.7,5v11.6h-4.9v-10.4c0-1.3-0.2-2.2-0.7-2.9
			c-0.5-0.6-1.2-1-2.2-1c-1.5,0-2.5,0.5-3,1.5c-0.5,1-0.8,2.5-0.8,4.4v8.4h-4.9v-17.8h3.7l0.7,2.3h0.3c0.6-0.9,1.3-1.6,2.3-2
			C465.6,424.1,466.6,423.9,467.8,423.9z"/>
		<path class="st25" d="M487.2,423.9c2.4,0,4.2,0.5,5.5,1.6c1.3,1,1.9,2.6,1.9,4.8v11.9h-3.4l-0.9-2.4h-0.1c-0.8,1-1.6,1.7-2.4,2.1
			c-0.8,0.4-2,0.7-3.5,0.7c-1.6,0-2.9-0.5-4-1.4c-1-0.9-1.6-2.3-1.6-4.3c0-1.9,0.7-3.3,2-4.2c1.3-0.9,3.3-1.4,6-1.5l3.1-0.1v-0.8
			c0-0.9-0.2-1.6-0.7-2.1c-0.5-0.4-1.2-0.7-2-0.7s-1.7,0.1-2.5,0.4c-0.8,0.3-1.7,0.6-2.5,0.9l-1.6-3.3c0.9-0.5,2-0.9,3.2-1.2
			C484.7,424,485.9,423.9,487.2,423.9z M489.8,433.8l-1.9,0.1c-1.6,0-2.7,0.3-3.3,0.8c-0.6,0.5-0.9,1.2-0.9,2.1
			c0,0.7,0.2,1.3,0.7,1.6c0.4,0.3,1,0.5,1.7,0.5c1,0,1.9-0.3,2.6-0.9s1.1-1.5,1.1-2.6V433.8z"/>
		<path class="st25" d="M505.3,417.3v5.8c0,0.7,0,1.3-0.1,2s-0.1,1.2-0.1,1.5h0.2c0.5-0.7,1.1-1.4,1.9-1.9c0.8-0.5,1.9-0.8,3.1-0.8
			c2,0,3.6,0.8,4.9,2.3c1.2,1.6,1.9,3.9,1.9,6.9c0,3-0.6,5.4-1.9,6.9c-1.3,1.6-2.9,2.4-5,2.4c-1.3,0-2.3-0.2-3.1-0.7
			c-0.8-0.5-1.4-1-1.8-1.6H505l-0.8,2h-3.7v-24.8H505.3z M508.8,427.8c-1.3,0-2.2,0.4-2.7,1.2c-0.5,0.8-0.8,2-0.8,3.6v0.5
			c0,1.7,0.3,3,0.8,4s1.4,1.4,2.8,1.4c1,0,1.8-0.5,2.4-1.4s0.9-2.3,0.9-4c0-1.7-0.3-3.1-0.9-3.9
			C510.6,428.3,509.8,427.8,508.8,427.8z"/>
		<path class="st25" d="M526.8,442.1h-4.9v-24.8h4.9V442.1z"/>
		<path class="st25" d="M540,423.9c2.5,0,4.4,0.7,5.8,2.1s2.2,3.4,2.2,6v2.4h-11.5c0,1.4,0.5,2.5,1.2,3.2c0.8,0.8,1.8,1.2,3.2,1.2
			c1.1,0,2.2-0.1,3.1-0.3c0.9-0.2,1.9-0.6,2.9-1.1v3.8c-0.9,0.4-1.8,0.8-2.8,1c-1,0.2-2.1,0.3-3.5,0.3c-1.8,0-3.4-0.3-4.7-1
			c-1.4-0.7-2.5-1.7-3.2-3s-1.2-3-1.2-5.1c0-2.1,0.4-3.8,1.1-5.2c0.7-1.4,1.7-2.4,3-3.1C536.9,424.3,538.3,423.9,540,423.9z
			 M540.1,427.4c-1,0-1.7,0.3-2.4,0.9c-0.6,0.6-1,1.6-1.1,2.8h6.8c0-1.1-0.3-2-0.9-2.7C542,427.7,541.2,427.4,540.1,427.4z"/>
	</g>
	<g>
		<path class="st25" d="M350.1,457.5c3.2,0,5.5,0.6,7,1.7s2.3,2.9,2.3,5.3c0,1.1-0.2,2-0.6,2.8c-0.4,0.8-0.9,1.5-1.6,2
			c-0.7,0.6-1.4,1-2.1,1.4l6.9,10.2h-5.5l-5.6-9h-2.6v9h-4.9v-23.3H350.1z M349.8,461.5h-1.5v6.3h1.6c1.6,0,2.8-0.3,3.5-0.8
			c0.7-0.5,1.1-1.3,1.1-2.4c0-1.1-0.4-1.9-1.1-2.4C352.5,461.8,351.3,461.5,349.8,461.5z"/>
		<path class="st25" d="M372.7,462.6c2.5,0,4.4,0.7,5.8,2.1c1.4,1.4,2.2,3.4,2.2,6v2.4h-11.5c0,1.4,0.5,2.5,1.2,3.2
			c0.8,0.8,1.8,1.2,3.2,1.2c1.1,0,2.2-0.1,3.1-0.3c0.9-0.2,1.9-0.6,2.9-1.1v3.8c-0.9,0.4-1.8,0.8-2.8,1c-1,0.2-2.1,0.3-3.5,0.3
			c-1.8,0-3.4-0.3-4.7-1c-1.4-0.7-2.5-1.7-3.2-3c-0.8-1.3-1.2-3-1.2-5.1s0.4-3.8,1.1-5.2c0.7-1.4,1.7-2.4,3-3.1
			C369.5,463,371,462.6,372.7,462.6z M372.7,466.1c-1,0-1.7,0.3-2.4,0.9c-0.6,0.6-1,1.6-1.1,2.8h6.8c0-1.1-0.3-2-0.9-2.7
			C374.7,466.5,373.8,466.1,372.7,466.1z"/>
		<path class="st25" d="M392.9,477.2c0.5,0,1.1,0,1.6-0.1s1-0.2,1.5-0.4v3.6c-0.5,0.2-1.2,0.4-1.9,0.6c-0.8,0.2-1.6,0.2-2.5,0.2
			c-1.1,0-2-0.2-2.9-0.5c-0.8-0.3-1.5-0.9-2-1.8c-0.5-0.8-0.7-2-0.7-3.6v-8.6h-2.3v-2.1l2.7-1.6l1.4-3.8h3.1v3.8h5v3.7h-5v8.6
			c0,0.7,0.2,1.2,0.6,1.5S392.3,477.2,392.9,477.2z"/>
		<path class="st25" d="M416.8,463v17.8h-3.7l-0.7-2.3h-0.3c-0.6,0.9-1.3,1.6-2.3,2c-1,0.4-2,0.6-3.2,0.6c-1.9,0-3.5-0.5-4.6-1.6
			c-1.2-1-1.7-2.7-1.7-5V463h4.9v10.4c0,1.3,0.2,2.2,0.7,2.9c0.5,0.6,1.2,1,2.2,1c1.5,0,2.5-0.5,3-1.5c0.5-1,0.8-2.5,0.8-4.4V463
			H416.8z"/>
		<path class="st25" d="M432.6,462.6c0.2,0,0.5,0,0.8,0c0.3,0,0.6,0.1,0.8,0.1l-0.4,4.6c-0.2,0-0.4-0.1-0.7-0.1c-0.3,0-0.5,0-0.8,0
			c-0.8,0-1.6,0.1-2.4,0.4c-0.8,0.3-1.4,0.8-1.8,1.4c-0.5,0.7-0.7,1.5-0.7,2.7v9.1h-4.9V463h3.7l0.7,3h0.2c0.5-0.9,1.2-1.7,2.2-2.4
			C430.4,463,431.4,462.6,432.6,462.6z"/>
		<path class="st25" d="M448.5,462.6c1.9,0,3.5,0.5,4.6,1.6s1.7,2.7,1.7,5v11.6h-4.9v-10.4c0-1.3-0.2-2.2-0.7-2.9
			c-0.5-0.6-1.2-1-2.2-1c-1.5,0-2.5,0.5-3,1.5c-0.5,1-0.8,2.5-0.8,4.4v8.4h-4.9V463h3.7l0.7,2.3h0.3c0.6-0.9,1.3-1.6,2.3-2
			C446.3,462.8,447.3,462.6,448.5,462.6z"/>
		<path class="st25" d="M473.1,475.5c0,1.8-0.6,3.2-1.9,4.2c-1.3,1-3.2,1.5-5.7,1.5c-1.2,0-2.3-0.1-3.2-0.2
			c-0.9-0.2-1.8-0.4-2.7-0.8v-4c1,0.4,2,0.8,3.1,1.1c1.1,0.3,2.1,0.4,2.9,0.4c0.9,0,1.6-0.1,2-0.4c0.4-0.3,0.6-0.7,0.6-1.1
			c0-0.3-0.1-0.6-0.2-0.8c-0.2-0.2-0.5-0.5-1.1-0.8c-0.5-0.3-1.4-0.7-2.5-1.2c-1.1-0.5-2.1-1-2.8-1.4c-0.7-0.5-1.2-1-1.6-1.7
			c-0.3-0.7-0.5-1.5-0.5-2.5c0-1.7,0.6-2.9,1.9-3.7s3-1.2,5.1-1.2c1.1,0,2.2,0.1,3.2,0.3c1,0.2,2,0.6,3.1,1.1l-1.5,3.5
			c-0.9-0.4-1.7-0.7-2.5-0.9c-0.8-0.2-1.6-0.4-2.4-0.4c-1.4,0-2.2,0.4-2.2,1.2c0,0.3,0.1,0.5,0.3,0.8c0.2,0.2,0.5,0.5,1.1,0.7
			c0.5,0.3,1.3,0.6,2.4,1c1,0.4,1.9,0.8,2.6,1.3s1.3,1,1.7,1.7C472.9,473.6,473.1,474.5,473.1,475.5z"/>
		<path class="st25" d="M503.1,471.9c0,3-0.8,5.2-2.3,6.9c-1.6,1.6-3.7,2.4-6.4,2.4c-1.7,0-3.1-0.4-4.4-1.1
			c-1.3-0.7-2.3-1.8-3.1-3.2c-0.7-1.4-1.1-3.1-1.1-5c0-3,0.8-5.2,2.3-6.8c1.5-1.6,3.7-2.4,6.4-2.4c1.7,0,3.2,0.4,4.4,1.1
			s2.3,1.8,3,3.1S503.1,469.9,503.1,471.9z M490.8,471.9c0,1.8,0.3,3.1,0.9,4c0.6,0.9,1.5,1.4,2.8,1.4c1.3,0,2.2-0.5,2.8-1.4
			c0.6-0.9,0.9-2.2,0.9-4c0-1.8-0.3-3.1-0.9-4s-1.5-1.3-2.8-1.3c-1.3,0-2.2,0.4-2.8,1.3S490.8,470.1,490.8,471.9z"/>
		<path class="st25" d="M512.2,480.8l-6.8-17.8h5.1l3.4,10.2c0.2,0.6,0.3,1.2,0.5,1.9c0.1,0.7,0.2,1.2,0.2,1.8h0.1
			c0.1-1.2,0.3-2.4,0.7-3.7l3.4-10.2h5.1l-6.8,17.8H512.2z"/>
		<path class="st25" d="M534.7,462.6c2.5,0,4.4,0.7,5.8,2.1c1.4,1.4,2.2,3.4,2.2,6v2.4h-11.5c0,1.4,0.5,2.5,1.2,3.2
			c0.8,0.8,1.8,1.2,3.2,1.2c1.1,0,2.2-0.1,3.1-0.3c0.9-0.2,1.9-0.6,2.9-1.1v3.8c-0.9,0.4-1.8,0.8-2.8,1c-1,0.2-2.1,0.3-3.5,0.3
			c-1.8,0-3.4-0.3-4.7-1c-1.4-0.7-2.5-1.7-3.2-3c-0.8-1.3-1.2-3-1.2-5.1s0.4-3.8,1.1-5.2c0.7-1.4,1.7-2.4,3-3.1
			C531.6,463,533,462.6,534.7,462.6z M534.7,466.1c-1,0-1.7,0.3-2.4,0.9c-0.6,0.6-1,1.6-1.1,2.8h6.8c0-1.1-0.3-2-0.9-2.7
			C536.7,466.5,535.9,466.1,534.7,466.1z"/>
		<path class="st25" d="M557.4,462.6c0.2,0,0.5,0,0.8,0c0.3,0,0.6,0.1,0.8,0.1l-0.4,4.6c-0.2,0-0.4-0.1-0.7-0.1c-0.3,0-0.5,0-0.8,0
			c-0.8,0-1.6,0.1-2.4,0.4c-0.8,0.3-1.4,0.8-1.8,1.4c-0.5,0.7-0.7,1.5-0.7,2.7v9.1h-4.9V463h3.7l0.7,3h0.2c0.5-0.9,1.2-1.7,2.2-2.4
			S556.2,462.6,557.4,462.6z"/>
	</g>
	<g>
		<path class="st25" d="M336.3,516c0.5,0,1.1,0,1.6-0.1s1-0.2,1.5-0.4v3.6c-0.5,0.2-1.2,0.4-1.9,0.6c-0.8,0.2-1.6,0.2-2.5,0.2
			c-1.1,0-2-0.2-2.9-0.5c-0.8-0.3-1.5-0.9-2-1.8c-0.5-0.8-0.7-2-0.7-3.6v-8.6H327v-2.1l2.7-1.6l1.4-3.8h3.1v3.8h5v3.7h-5v8.6
			c0,0.7,0.2,1.2,0.6,1.5S335.7,516,336.3,516z"/>
		<path class="st25" d="M348.7,494.7v5.1c0,0.9,0,1.7-0.1,2.5c-0.1,0.8-0.1,1.4-0.1,1.7h0.3c0.6-0.9,1.3-1.6,2.2-2
			c0.9-0.4,1.9-0.6,3-0.6c1.9,0,3.5,0.5,4.6,1.6c1.2,1,1.8,2.7,1.8,5v11.6h-4.9v-10.4c0-2.6-1-3.9-2.9-3.9c-1.5,0-2.5,0.5-3,1.5
			c-0.6,1-0.8,2.5-0.8,4.4v8.4h-4.9v-24.8H348.7z"/>
		<path class="st25" d="M373.4,501.4c2.5,0,4.4,0.7,5.8,2.1c1.4,1.4,2.2,3.4,2.2,6v2.4h-11.5c0,1.4,0.5,2.5,1.2,3.2
			c0.8,0.8,1.8,1.2,3.2,1.2c1.1,0,2.2-0.1,3.1-0.3c0.9-0.2,1.9-0.6,2.9-1.1v3.8c-0.9,0.4-1.8,0.8-2.8,1c-1,0.2-2.1,0.3-3.5,0.3
			c-1.8,0-3.4-0.3-4.7-1c-1.4-0.7-2.5-1.7-3.2-3c-0.8-1.3-1.2-3-1.2-5.1s0.4-3.8,1.1-5.2c0.7-1.4,1.7-2.4,3-3.1
			C370.3,501.7,371.7,501.4,373.4,501.4z M373.4,504.8c-1,0-1.7,0.3-2.4,0.9c-0.6,0.6-1,1.6-1.1,2.8h6.8c0-1.1-0.3-2-0.9-2.7
			C375.4,505.2,374.6,504.8,373.4,504.8z"/>
		<path class="st25" d="M395.9,519.5v-23.3h4.9v19.2h9.5v4.1H395.9z"/>
		<path class="st25" d="M431,510.6c0,3-0.8,5.2-2.3,6.9c-1.6,1.6-3.7,2.4-6.4,2.4c-1.7,0-3.1-0.4-4.4-1.1c-1.3-0.7-2.3-1.8-3.1-3.2
			c-0.7-1.4-1.1-3.1-1.1-5c0-3,0.8-5.2,2.3-6.8s3.7-2.4,6.4-2.4c1.7,0,3.2,0.4,4.4,1.1c1.3,0.7,2.3,1.8,3,3.1
			C430.6,506.9,431,508.6,431,510.6z M418.7,510.6c0,1.8,0.3,3.1,0.9,4c0.6,0.9,1.5,1.4,2.8,1.4c1.3,0,2.2-0.5,2.8-1.4
			c0.6-0.9,0.9-2.2,0.9-4c0-1.8-0.3-3.1-0.9-4s-1.5-1.3-2.8-1.3c-1.3,0-2.2,0.4-2.8,1.3C418.9,507.5,418.7,508.8,418.7,510.6z"/>
		<path class="st25" d="M445.9,501.4c1.9,0,3.5,0.5,4.6,1.6s1.7,2.7,1.7,5v11.6h-4.9v-10.4c0-1.3-0.2-2.2-0.7-2.9
			c-0.5-0.6-1.2-1-2.2-1c-1.5,0-2.5,0.5-3,1.5c-0.5,1-0.8,2.5-0.8,4.4v8.4h-4.9v-17.8h3.7l0.7,2.3h0.3c0.6-0.9,1.3-1.6,2.3-2
			C443.8,501.6,444.8,501.4,445.9,501.4z"/>
		<path class="st25" d="M463.9,501.4c2.2,0,3.9,0.9,5.2,2.6h0.1l0.4-2.3h4.1v17.9c0,2.5-0.8,4.5-2.3,5.8s-3.7,2-6.7,2
			c-1.3,0-2.4-0.1-3.5-0.2s-2.1-0.4-3.2-0.8v-3.9c2.2,0.9,4.5,1.4,7,1.4c2.5,0,3.8-1.4,3.8-4.1v-0.4c0-0.3,0-0.7,0-1.1
			c0-0.4,0.1-0.8,0.1-1.1h-0.1c-0.6,0.9-1.3,1.6-2.2,2s-1.8,0.6-2.9,0.6c-2.1,0-3.8-0.8-4.9-2.4c-1.2-1.6-1.8-3.9-1.8-6.8
			c0-2.9,0.6-5.2,1.8-6.8C460.1,502.2,461.7,501.4,463.9,501.4z M465.4,505.3c-2.3,0-3.4,1.8-3.4,5.4c0,3.6,1.2,5.3,3.5,5.3
			c1.2,0,2.2-0.4,2.8-1.1c0.6-0.7,0.9-1.9,0.9-3.7v-0.6c0-1.9-0.3-3.3-0.9-4.1C467.7,505.7,466.7,505.3,465.4,505.3z"/>
		<path class="st25" d="M498.2,519.5h-4.9v-19.2H487v-4.1h17.6v4.1h-6.3V519.5z"/>
		<path class="st25" d="M515.9,501.4c2.5,0,4.4,0.7,5.8,2.1c1.4,1.4,2.2,3.4,2.2,6v2.4h-11.5c0,1.4,0.5,2.5,1.2,3.2
			c0.8,0.8,1.8,1.2,3.2,1.2c1.1,0,2.2-0.1,3.1-0.3c0.9-0.2,1.9-0.6,2.9-1.1v3.8c-0.9,0.4-1.8,0.8-2.8,1c-1,0.2-2.1,0.3-3.5,0.3
			c-1.8,0-3.4-0.3-4.7-1c-1.4-0.7-2.5-1.7-3.2-3c-0.8-1.3-1.2-3-1.2-5.1s0.4-3.8,1.1-5.2c0.7-1.4,1.7-2.4,3-3.1
			C512.8,501.7,514.3,501.4,515.9,501.4z M516,504.8c-1,0-1.7,0.3-2.4,0.9c-0.6,0.6-1,1.6-1.1,2.8h6.8c0-1.1-0.3-2-0.9-2.7
			C518,505.2,517.1,504.8,516,504.8z"/>
		<path class="st25" d="M538.7,501.4c0.2,0,0.5,0,0.8,0c0.3,0,0.6,0.1,0.8,0.1l-0.4,4.6c-0.2,0-0.4-0.1-0.7-0.1c-0.3,0-0.5,0-0.8,0
			c-0.8,0-1.6,0.1-2.4,0.4c-0.8,0.3-1.4,0.8-1.8,1.4c-0.5,0.7-0.7,1.5-0.7,2.7v9.1h-4.9v-17.8h3.7l0.7,3h0.2
			c0.5-0.9,1.2-1.7,2.2-2.4S537.5,501.4,538.7,501.4z"/>
		<path class="st25" d="M565.3,501.4c2,0,3.6,0.5,4.6,1.6c1,1,1.6,2.7,1.6,5v11.6h-4.9v-10.4c0-2.6-0.9-3.9-2.7-3.9
			c-1.3,0-2.2,0.5-2.7,1.4c-0.5,0.9-0.8,2.2-0.8,4v9h-4.9v-10.4c0-2.6-0.9-3.9-2.7-3.9c-1.4,0-2.3,0.5-2.8,1.5s-0.8,2.5-0.8,4.4v8.4
			h-4.9v-17.8h3.7l0.7,2.3h0.3c0.5-0.9,1.3-1.6,2.2-2c0.9-0.4,1.9-0.6,3-0.6c1.3,0,2.4,0.2,3.3,0.6c0.9,0.4,1.6,1.1,2.1,2h0.4
			c0.5-0.9,1.3-1.6,2.3-2C563.3,501.6,564.3,501.4,565.3,501.4z"/>
	</g>
</g>
</svg>
