<svg id="Layer_1" data-name="Layer 1" xmlns="http://www.w3.org/2000/svg" xmlns:xlink="http://www.w3.org/1999/xlink" viewBox="0 0 450 575"><defs><style>.cls-1{fill:none;}.cls-2{fill:#006ba6;}.cls-3{fill:#22b7e9;}.cls-4{fill:#434c50;}.cls-5{fill:#1d1d1b;}.cls-6{clip-path:url(#clip-path);}</style><clipPath id="clip-path"><rect class="cls-1" width="450" height="570.18"/></clipPath></defs><rect class="cls-2" x="38.38" y="32.1" width="274.15" height="19.17"/><rect class="cls-3" x="38.38" y="65.65" width="387.06" height="19.17"/><rect class="cls-3" x="38.38" y="99.2" width="276.42" height="19.17"/><rect class="cls-3" x="38.38" y="132.75" width="290.38" height="19.17"/><rect class="cls-3" x="38.38" y="166.3" width="228.08" height="19.17"/><rect class="cls-3" x="38.38" y="199.86" width="253.39" height="19.17"/><rect class="cls-3" x="38.38" y="233.41" width="256.31" height="19.17"/><rect class="cls-3" x="38.38" y="266.96" width="257.93" height="19.17"/><rect class="cls-3" x="38.38" y="300.51" width="207.97" height="19.17"/><rect class="cls-3" x="38.38" y="334.06" width="261.17" height="19.17"/><rect class="cls-3" x="38.38" y="367.62" width="170.66" height="19.17"/><rect class="cls-3" x="38.38" y="401.17" width="190.77" height="19.17"/><rect class="cls-3" x="38.38" y="434.72" width="175.2" height="19.17"/><rect class="cls-3" x="38.38" y="468.27" width="215.75" height="19.17"/><rect class="cls-3" x="38.38" y="501.82" width="187.53" height="19.17"/><rect class="cls-3" x="38.38" y="535.38" width="179.74" height="19.17"/><path class="cls-4" d="M12.36,113.22h-1v-6c0-.35,0-.62,0-.83s0-.43,0-.65a3.2,3.2,0,0,1-.36.32l-.38.34-.92.74-.55-.7,2.32-1.8h.87Z"/><path class="cls-4" d="M21.21,108.32a9.91,9.91,0,0,1-.17,1.81,4.74,4.74,0,0,1-.58,1.62,3.18,3.18,0,0,1-1.2,1.16,4,4,0,0,1-2,.43l-.56,0a2.62,2.62,0,0,1-.52-.09v-.9a3.15,3.15,0,0,0,1.06.16,3,3,0,0,0,1.38-.28,2.13,2.13,0,0,0,.87-.75,3,3,0,0,0,.47-1.1,7,7,0,0,0,.17-1.33h-.07a2.4,2.4,0,0,1-.77.71A2.51,2.51,0,0,1,18,110a2.44,2.44,0,0,1-1.79-.68,2.59,2.59,0,0,1-.67-1.91,3.38,3.38,0,0,1,.33-1.55,2.43,2.43,0,0,1,1-1,2.89,2.89,0,0,1,1.44-.34,2.68,2.68,0,0,1,1.48.41,2.77,2.77,0,0,1,1,1.25A5,5,0,0,1,21.21,108.32Zm-2.91-2.9a1.64,1.64,0,0,0-1.22.5,2.09,2.09,0,0,0-.47,1.5,1.94,1.94,0,0,0,.4,1.3,1.56,1.56,0,0,0,1.24.47,2.08,2.08,0,0,0,1-.23,1.8,1.8,0,0,0,.65-.6,1.3,1.3,0,0,0,.24-.74,2.66,2.66,0,0,0-.21-1,2,2,0,0,0-.61-.84A1.57,1.57,0,0,0,18.3,105.42Z"/><path class="cls-4" d="M12.36,146.82h-1v-6c0-.35,0-.62,0-.83s0-.43,0-.65a3.2,3.2,0,0,1-.36.32l-.38.34-.92.74-.55-.7,2.32-1.8h.87Z"/><path class="cls-4" d="M18.39,138.14a3,3,0,0,1,1.84.52,1.79,1.79,0,0,1,.72,1.53,1.77,1.77,0,0,1-.22.9,2.51,2.51,0,0,1-.59.68,5.2,5.2,0,0,1-.82.52,7.37,7.37,0,0,1,1,.57,2.54,2.54,0,0,1,.69.74,1.88,1.88,0,0,1,.26,1,2.1,2.1,0,0,1-.77,1.71,3.11,3.11,0,0,1-2,.63,3.3,3.3,0,0,1-2.13-.6,2.27,2.27,0,0,1-.49-2.71,2.24,2.24,0,0,1,.65-.75,4.68,4.68,0,0,1,.88-.53,4,4,0,0,1-1.07-.87,1.94,1.94,0,0,1-.43-1.3,1.79,1.79,0,0,1,.34-1.11,2.07,2.07,0,0,1,.91-.69A3.36,3.36,0,0,1,18.39,138.14Zm-1.8,6.51a1.35,1.35,0,0,0,.44,1,1.94,1.94,0,0,0,1.37.41,1.94,1.94,0,0,0,1.34-.41,1.4,1.4,0,0,0,.46-1.07,1.31,1.31,0,0,0-.49-1,4.59,4.59,0,0,0-1.31-.73l-.19-.07a3.72,3.72,0,0,0-1.21.78A1.49,1.49,0,0,0,16.59,144.65ZM18.38,139a1.73,1.73,0,0,0-1.1.32,1.06,1.06,0,0,0-.42.91,1.28,1.28,0,0,0,.21.75,1.77,1.77,0,0,0,.57.51c.24.14.51.27.79.4a3.82,3.82,0,0,0,1.05-.64,1.25,1.25,0,0,0,.43-1,1.06,1.06,0,0,0-.42-.91A1.74,1.74,0,0,0,18.38,139Z"/><path class="cls-4" d="M12.36,180.42h-1v-6c0-.35,0-.62,0-.83s0-.42,0-.65a3.2,3.2,0,0,1-.36.32l-.38.34-.92.74-.55-.7,2.32-1.8h.87Z"/><path class="cls-4" d="M16.6,180.42l3.51-7.6H15.49v-1h5.75v.81l-3.48,7.75Z"/><path class="cls-4" d="M12.36,214h-1v-6c0-.35,0-.62,0-.83s0-.42,0-.65a3.2,3.2,0,0,1-.36.32l-.38.34-.92.74-.55-.7,2.32-1.8h.87Z"/><path class="cls-4" d="M15.63,210.36a9.91,9.91,0,0,1,.16-1.81,4.75,4.75,0,0,1,.59-1.62,3.09,3.09,0,0,1,1.19-1.16,4,4,0,0,1,2-.43c.17,0,.35,0,.56,0a2.75,2.75,0,0,1,.5.08v.9a3.15,3.15,0,0,0-.5-.1,3.27,3.27,0,0,0-.54,0,3,3,0,0,0-1.38.28,2.26,2.26,0,0,0-.87.75,3.46,3.46,0,0,0-.46,1.11,8.9,8.9,0,0,0-.18,1.33h.07a2.3,2.3,0,0,1,.77-.71,2.4,2.4,0,0,1,1.26-.3,2.44,2.44,0,0,1,1.8.68,2.57,2.57,0,0,1,.69,1.93,2.93,2.93,0,0,1-.74,2.11,2.64,2.64,0,0,1-2,.77,2.76,2.76,0,0,1-1.47-.41A2.85,2.85,0,0,1,16,212.49,5.07,5.07,0,0,1,15.63,210.36Zm2.9,2.9a1.63,1.63,0,0,0,1.22-.49,2.06,2.06,0,0,0,.47-1.5,2,2,0,0,0-.41-1.3,1.55,1.55,0,0,0-1.24-.48,2.07,2.07,0,0,0-1,.23,1.8,1.8,0,0,0-.65.6,1.35,1.35,0,0,0-.24.74,2.71,2.71,0,0,0,.21,1,2,2,0,0,0,.61.84A1.56,1.56,0,0,0,18.53,213.26Z"/><path class="cls-4" d="M12.36,247.62h-1v-6c0-.35,0-.62,0-.83s0-.42,0-.65a3.2,3.2,0,0,1-.36.32l-.38.34-.92.74-.55-.7,2.32-1.8h.87Z"/><path class="cls-4" d="M18.27,242.37a3.14,3.14,0,0,1,2.09.66,2.31,2.31,0,0,1,.79,1.86A2.67,2.67,0,0,1,20.3,247a3.39,3.39,0,0,1-2.36.77,5.51,5.51,0,0,1-1.25-.13,3.45,3.45,0,0,1-1-.34v-1a3.34,3.34,0,0,0,1,.41,5.06,5.06,0,0,0,1.18.16,2.46,2.46,0,0,0,1.53-.45,1.66,1.66,0,0,0,.59-1.4,1.64,1.64,0,0,0-.52-1.29,2.44,2.44,0,0,0-1.63-.45,5.63,5.63,0,0,0-.77.06l-.7.12-.52-.34.32-4h4.3v1h-3.4L17,242.5l.55-.08A6,6,0,0,1,18.27,242.37Z"/><path class="cls-4" d="M12.36,281.22h-1v-6c0-.35,0-.62,0-.83s0-.43,0-.65a3.2,3.2,0,0,1-.36.32l-.38.34-.92.74-.55-.7,2.32-1.8h.87Z"/><path class="cls-4" d="M21.59,279.28H20.34v1.94h-1v-1.94h-4.1v-.9l4-5.77h1.09v5.72h1.25Zm-2.27-.95v-2.7c0-.41,0-.77,0-1.06s0-.57,0-.83h-.05a4.35,4.35,0,0,1-.24.49,3.39,3.39,0,0,1-.27.44l-2.57,3.66Z"/><path class="cls-4" d="M12.36,314.83h-1v-6c0-.35,0-.62,0-.83s0-.43,0-.65q-.2.19-.36.33l-.38.33-.92.75-.55-.71,2.32-1.8h.87Z"/><path class="cls-4" d="M20.88,308.26a1.91,1.91,0,0,1-.48,1.37,2.37,2.37,0,0,1-1.29.68v.05a2.47,2.47,0,0,1,1.53.65,1.9,1.9,0,0,1,.51,1.38,2.54,2.54,0,0,1-.35,1.33,2.21,2.21,0,0,1-1.08.9,4.49,4.49,0,0,1-1.86.33,6.92,6.92,0,0,1-1.25-.11,3.94,3.94,0,0,1-1.1-.36v-1a4.45,4.45,0,0,0,1.16.42,5.18,5.18,0,0,0,1.2.15,2.48,2.48,0,0,0,1.66-.45,1.58,1.58,0,0,0,.51-1.24,1.22,1.22,0,0,0-.63-1.16,3.6,3.6,0,0,0-1.77-.36h-.83V310h.84a2.49,2.49,0,0,0,1.61-.44,1.46,1.46,0,0,0,.54-1.18,1.16,1.16,0,0,0-.42-1,1.74,1.74,0,0,0-1.14-.34,3.06,3.06,0,0,0-1.19.2,6.55,6.55,0,0,0-1,.52l-.53-.72a4.71,4.71,0,0,1,1.14-.63,4.32,4.32,0,0,1,1.54-.26,2.88,2.88,0,0,1,2,.6A2,2,0,0,1,20.88,308.26Z"/><path class="cls-4" d="M12.36,348.42h-1v-6c0-.35,0-.62,0-.83s0-.43,0-.65q-.2.19-.36.33l-.38.33-.92.75-.55-.71,2.32-1.8h.87Z"/><path class="cls-4" d="M21.21,348.42H15.54v-.87l2.25-2.27c.42-.43.78-.82,1.08-1.15a4.29,4.29,0,0,0,.68-1,2.43,2.43,0,0,0,.23-1.06,1.36,1.36,0,0,0-.42-1.08,1.63,1.63,0,0,0-1.09-.36,2.68,2.68,0,0,0-1.11.21,5.76,5.76,0,0,0-1,.6l-.56-.7A4.64,4.64,0,0,1,16.8,340a3.45,3.45,0,0,1,1.47-.29,2.74,2.74,0,0,1,1.89.61,2.09,2.09,0,0,1,.7,1.67,2.9,2.9,0,0,1-.28,1.26,5,5,0,0,1-.77,1.16,14,14,0,0,1-1.15,1.21l-1.78,1.77v0h4.33Z"/><path class="cls-4" d="M12.36,382h-1v-6c0-.35,0-.62,0-.83s0-.43,0-.65a3.2,3.2,0,0,1-.36.32l-.38.34-.92.74-.55-.7,2.32-1.8h.87Z"/><path class="cls-4" d="M19.23,382h-1v-6c0-.35,0-.62,0-.83s0-.43,0-.65a3.19,3.19,0,0,1-.35.32l-.39.34-.91.74-.56-.7,2.32-1.8h.88Z"/><path class="cls-4" d="M12.36,415.62h-1v-6c0-.35,0-.62,0-.83s0-.43,0-.65q-.2.19-.36.33l-.38.33-.92.75-.55-.71,2.32-1.8h.87Z"/><path class="cls-4" d="M21.24,411.33a8.28,8.28,0,0,1-.29,2.38,3,3,0,0,1-.91,1.51,2.49,2.49,0,0,1-1.65.53,2.32,2.32,0,0,1-2.15-1.17,6.46,6.46,0,0,1-.69-3.25,8.65,8.65,0,0,1,.29-2.38,2.92,2.92,0,0,1,.9-1.5,2.49,2.49,0,0,1,1.65-.53,2.34,2.34,0,0,1,2.14,1.16A6.2,6.2,0,0,1,21.24,411.33Zm-4.63,0A6.64,6.64,0,0,0,17,414a1.52,1.52,0,0,0,2.75,0,8.67,8.67,0,0,0,0-5.27,1.52,1.52,0,0,0-2.75,0A6.58,6.58,0,0,0,16.61,411.33Z"/><path class="cls-4" d="M14.38,444.93a8.52,8.52,0,0,1-.29,2.37,3,3,0,0,1-.92,1.52,2.49,2.49,0,0,1-1.65.52,2.3,2.3,0,0,1-2.14-1.17,6.39,6.39,0,0,1-.69-3.24A9.09,9.09,0,0,1,9,442.55a2.93,2.93,0,0,1,.91-1.5,2.45,2.45,0,0,1,1.64-.53,2.36,2.36,0,0,1,2.15,1.16A6.29,6.29,0,0,1,14.38,444.93Zm-4.63,0a6.64,6.64,0,0,0,.4,2.64,1.41,1.41,0,0,0,1.37.87,1.43,1.43,0,0,0,1.38-.87,8.67,8.67,0,0,0,0-5.27,1.44,1.44,0,0,0-1.38-.88,1.41,1.41,0,0,0-1.37.88A6.55,6.55,0,0,0,9.75,444.93Z"/><path class="cls-4" d="M21.21,444.32a9.91,9.91,0,0,1-.17,1.81,4.74,4.74,0,0,1-.58,1.62,3.18,3.18,0,0,1-1.2,1.16,4,4,0,0,1-2,.43l-.56,0a2.62,2.62,0,0,1-.52-.09v-.9a3.15,3.15,0,0,0,1.06.16,3.08,3.08,0,0,0,1.38-.27,2.29,2.29,0,0,0,.87-.75,3.08,3.08,0,0,0,.47-1.11,7,7,0,0,0,.17-1.33h-.07a2.4,2.4,0,0,1-.77.71A2.51,2.51,0,0,1,18,446a2.44,2.44,0,0,1-1.79-.68,2.59,2.59,0,0,1-.67-1.91,3.38,3.38,0,0,1,.33-1.55,2.43,2.43,0,0,1,1-1,2.89,2.89,0,0,1,1.44-.34,2.68,2.68,0,0,1,1.48.41,2.77,2.77,0,0,1,1,1.25A5,5,0,0,1,21.21,444.32Zm-2.91-2.9a1.64,1.64,0,0,0-1.22.5,2.11,2.11,0,0,0-.47,1.5,1.94,1.94,0,0,0,.4,1.3,1.52,1.52,0,0,0,1.24.47,2.08,2.08,0,0,0,1-.23,1.8,1.8,0,0,0,.65-.6,1.3,1.3,0,0,0,.24-.74,2.66,2.66,0,0,0-.21-1,2,2,0,0,0-.61-.84A1.57,1.57,0,0,0,18.3,441.42Z"/><path class="cls-4" d="M14.38,478.53a8.65,8.65,0,0,1-.29,2.38,3,3,0,0,1-.92,1.51,2.49,2.49,0,0,1-1.65.53,2.32,2.32,0,0,1-2.14-1.17,6.44,6.44,0,0,1-.69-3.25A9.09,9.09,0,0,1,9,476.15a3,3,0,0,1,.91-1.5,2.45,2.45,0,0,1,1.64-.53,2.36,2.36,0,0,1,2.15,1.16A6.29,6.29,0,0,1,14.38,478.53Zm-4.63,0a6.6,6.6,0,0,0,.4,2.64,1.41,1.41,0,0,0,1.37.87,1.43,1.43,0,0,0,1.38-.87,8.67,8.67,0,0,0,0-5.27,1.43,1.43,0,0,0-1.38-.87,1.41,1.41,0,0,0-1.37.87A6.58,6.58,0,0,0,9.75,478.53Z"/><path class="cls-4" d="M18.39,474.14a3,3,0,0,1,1.84.53,2,2,0,0,1,.5,2.42,2.37,2.37,0,0,1-.59.68,5.2,5.2,0,0,1-.82.52,6.43,6.43,0,0,1,1,.58,2.39,2.39,0,0,1,.69.73,1.9,1.9,0,0,1,.26,1,2.1,2.1,0,0,1-.77,1.71,3.11,3.11,0,0,1-2,.63,3.3,3.3,0,0,1-2.13-.61,2.27,2.27,0,0,1-.49-2.71,2.24,2.24,0,0,1,.65-.75,4.68,4.68,0,0,1,.88-.53,4,4,0,0,1-1.07-.87,1.92,1.92,0,0,1-.43-1.3,1.81,1.81,0,0,1,.34-1.11,2.07,2.07,0,0,1,.91-.69A3.36,3.36,0,0,1,18.39,474.14Zm-1.8,6.51a1.33,1.33,0,0,0,.44,1,1.94,1.94,0,0,0,1.37.42,1.94,1.94,0,0,0,1.34-.42,1.38,1.38,0,0,0,.46-1.07,1.33,1.33,0,0,0-.49-1,4.59,4.59,0,0,0-1.31-.73l-.19-.07a3.72,3.72,0,0,0-1.21.78A1.49,1.49,0,0,0,16.59,480.65ZM18.38,475a1.79,1.79,0,0,0-1.1.32,1.08,1.08,0,0,0-.42.92,1.27,1.27,0,0,0,.21.74,1.77,1.77,0,0,0,.57.51c.24.14.51.27.79.4a3.8,3.8,0,0,0,1.05-.63,1.27,1.27,0,0,0,.43-1,1.08,1.08,0,0,0-.42-.92A1.81,1.81,0,0,0,18.38,475Z"/><path class="cls-4" d="M14.38,512.13a8.52,8.52,0,0,1-.29,2.37,3,3,0,0,1-.92,1.52,2.49,2.49,0,0,1-1.65.52,2.31,2.31,0,0,1-2.14-1.16,6.46,6.46,0,0,1-.69-3.25A9.09,9.09,0,0,1,9,509.75a2.93,2.93,0,0,1,.91-1.5,2.45,2.45,0,0,1,1.64-.53,2.36,2.36,0,0,1,2.15,1.16A6.29,6.29,0,0,1,14.38,512.13Zm-4.63,0a6.64,6.64,0,0,0,.4,2.64,1.41,1.41,0,0,0,1.37.87,1.43,1.43,0,0,0,1.38-.87,8.67,8.67,0,0,0,0-5.27,1.44,1.44,0,0,0-1.38-.88,1.41,1.41,0,0,0-1.37.88A6.55,6.55,0,0,0,9.75,512.13Z"/><path class="cls-4" d="M16.6,516.42l3.51-7.6H15.49v-1h5.75v.81l-3.48,7.75Z"/><rect class="cls-5" x="38.49" y="3.3" width="0.96" height="565.44"/><path class="cls-4" d="M14.34,79.62H8.68v-.87l2.24-2.27c.43-.43.79-.81,1.09-1.15a4.24,4.24,0,0,0,.68-1,2.54,2.54,0,0,0,.23-1.07,1.41,1.41,0,0,0-.42-1.08,1.66,1.66,0,0,0-1.1-.36,2.67,2.67,0,0,0-1.1.21,5.76,5.76,0,0,0-1,.6l-.57-.71a5.8,5.8,0,0,1,1.16-.71,3.67,3.67,0,0,1,1.47-.29,2.78,2.78,0,0,1,1.9.61,2.12,2.12,0,0,1,.7,1.67,3,3,0,0,1-.28,1.26A5.3,5.3,0,0,1,13,75.64c-.33.38-.71.79-1.15,1.21L10,78.62v0h4.33Z"/><path class="cls-4" d="M21.24,75.33A8.28,8.28,0,0,1,21,77.71,3,3,0,0,1,20,79.22a2.49,2.49,0,0,1-1.65.53,2.34,2.34,0,0,1-2.15-1.17,6.46,6.46,0,0,1-.69-3.25A8.65,8.65,0,0,1,15.84,73a2.92,2.92,0,0,1,.9-1.5,2.49,2.49,0,0,1,1.65-.53,2.34,2.34,0,0,1,2.14,1.16A6.17,6.17,0,0,1,21.24,75.33Zm-4.63,0A6.6,6.6,0,0,0,17,78a1.52,1.52,0,0,0,2.75,0,8.7,8.7,0,0,0,0-5.28,1.52,1.52,0,0,0-2.75,0A6.58,6.58,0,0,0,16.61,75.33Z"/><path class="cls-4" d="M14.38,545.73a8.52,8.52,0,0,1-.29,2.37,3,3,0,0,1-.92,1.52,2.49,2.49,0,0,1-1.65.52A2.32,2.32,0,0,1,9.38,549a6.39,6.39,0,0,1-.69-3.24A9.09,9.09,0,0,1,9,543.35a2.93,2.93,0,0,1,.91-1.5,2.45,2.45,0,0,1,1.64-.53,2.36,2.36,0,0,1,2.15,1.16A6.27,6.27,0,0,1,14.38,545.73Zm-4.63,0a6.64,6.64,0,0,0,.4,2.64,1.41,1.41,0,0,0,1.37.87,1.43,1.43,0,0,0,1.38-.87,8.67,8.67,0,0,0,0-5.27,1.44,1.44,0,0,0-1.38-.88,1.41,1.41,0,0,0-1.37.88A6.55,6.55,0,0,0,9.75,545.73Z"/><path class="cls-4" d="M15.63,546.36a9.91,9.91,0,0,1,.16-1.81,4.75,4.75,0,0,1,.59-1.62,3.09,3.09,0,0,1,1.19-1.16,4,4,0,0,1,2-.43c.17,0,.35,0,.56,0a2.75,2.75,0,0,1,.5.08v.9a3.15,3.15,0,0,0-.5-.1,3.27,3.27,0,0,0-.54,0,3,3,0,0,0-1.38.28,2.26,2.26,0,0,0-.87.75,3.46,3.46,0,0,0-.46,1.11,8.9,8.9,0,0,0-.18,1.33h.07a2.43,2.43,0,0,1,.77-.72,2.5,2.5,0,0,1,1.26-.29,2.44,2.44,0,0,1,1.8.68,2.56,2.56,0,0,1,.69,1.92,3,3,0,0,1-.74,2.12,2.64,2.64,0,0,1-2,.76,2.75,2.75,0,0,1-1.47-.4A2.85,2.85,0,0,1,16,548.49,5.07,5.07,0,0,1,15.63,546.36Zm2.9,2.9a1.63,1.63,0,0,0,1.22-.49,2.07,2.07,0,0,0,.47-1.51,1.94,1.94,0,0,0-.41-1.29,1.55,1.55,0,0,0-1.24-.48,2.07,2.07,0,0,0-1,.23,1.8,1.8,0,0,0-.65.6,1.35,1.35,0,0,0-.24.74,2.71,2.71,0,0,0,.21,1,2,2,0,0,0,.61.84A1.56,1.56,0,0,0,18.53,549.26Z"/><path class="cls-4" d="M14.34,46H8.68v-.87l2.24-2.27c.43-.43.79-.82,1.09-1.15a4.47,4.47,0,0,0,.68-1,2.54,2.54,0,0,0,.23-1.07,1.41,1.41,0,0,0-.42-1.08,1.66,1.66,0,0,0-1.1-.36,2.67,2.67,0,0,0-1.1.21,5.76,5.76,0,0,0-1,.6l-.57-.71a5.37,5.37,0,0,1,1.16-.71,3.67,3.67,0,0,1,1.47-.29,2.78,2.78,0,0,1,1.9.61,2.12,2.12,0,0,1,.7,1.67,3,3,0,0,1-.28,1.26A5.3,5.3,0,0,1,13,42c-.33.38-.71.79-1.15,1.21L10,45v0h4.33Z"/><path class="cls-4" d="M19.23,46h-1V40c0-.35,0-.62,0-.83s0-.42,0-.65a3.19,3.19,0,0,1-.35.32l-.39.34-.91.74-.56-.7,2.32-1.8h.88Z"/><path class="cls-4" d="M330.81,108.32a10.88,10.88,0,0,1-.16,1.81,5,5,0,0,1-.59,1.62,3.18,3.18,0,0,1-1.2,1.16,4,4,0,0,1-2,.43l-.56,0a2.62,2.62,0,0,1-.52-.09v-.9a3.19,3.19,0,0,0,1.06.16,3,3,0,0,0,1.38-.28,2.13,2.13,0,0,0,.87-.75,3,3,0,0,0,.47-1.1,7,7,0,0,0,.17-1.33h-.07a2.4,2.4,0,0,1-.77.71,2.51,2.51,0,0,1-1.27.29,2.4,2.4,0,0,1-1.78-.68,2.55,2.55,0,0,1-.68-1.91,3.38,3.38,0,0,1,.33-1.55,2.43,2.43,0,0,1,1-1,2.89,2.89,0,0,1,1.44-.34,2.68,2.68,0,0,1,1.48.41,2.77,2.77,0,0,1,1,1.25A5,5,0,0,1,330.81,108.32Zm-2.91-2.9a1.6,1.6,0,0,0-1.21.5,2,2,0,0,0-.48,1.5,2,2,0,0,0,.4,1.3,1.56,1.56,0,0,0,1.25.47,2.07,2.07,0,0,0,1-.23,1.92,1.92,0,0,0,.66-.6,1.37,1.37,0,0,0,.23-.74,2.85,2.85,0,0,0-.2-1,2,2,0,0,0-.62-.84A1.57,1.57,0,0,0,327.9,105.42Z"/><path class="cls-4" d="M344.73,141.92a10.88,10.88,0,0,1-.16,1.81,5,5,0,0,1-.59,1.62,3.18,3.18,0,0,1-1.2,1.16,4,4,0,0,1-2,.43l-.56,0a2.62,2.62,0,0,1-.52-.09v-.9a3.19,3.19,0,0,0,1.06.16,3,3,0,0,0,1.38-.28,2.13,2.13,0,0,0,.87-.75,3,3,0,0,0,.47-1.1,7,7,0,0,0,.17-1.33h-.07a2.4,2.4,0,0,1-.77.71,2.51,2.51,0,0,1-1.27.29,2.4,2.4,0,0,1-1.78-.68,2.55,2.55,0,0,1-.68-1.91,3.38,3.38,0,0,1,.33-1.55,2.43,2.43,0,0,1,1-1,2.89,2.89,0,0,1,1.44-.34,2.68,2.68,0,0,1,1.48.41,2.77,2.77,0,0,1,1,1.25A5,5,0,0,1,344.73,141.92Zm-2.91-2.9a1.6,1.6,0,0,0-1.21.5,2,2,0,0,0-.48,1.5,2,2,0,0,0,.4,1.3,1.56,1.56,0,0,0,1.25.47,2.07,2.07,0,0,0,1-.23,1.92,1.92,0,0,0,.66-.6,1.37,1.37,0,0,0,.23-.74,2.85,2.85,0,0,0-.2-1,2,2,0,0,0-.62-.84A1.57,1.57,0,0,0,341.82,139Z"/><path class="cls-4" d="M277.72,180.42l3.52-7.6h-4.62v-1h5.74v.81l-3.48,7.75Z"/><path class="cls-4" d="M305,205.34a3,3,0,0,1,1.84.52,1.94,1.94,0,0,1,.5,2.43,2.35,2.35,0,0,1-.59.68,5.2,5.2,0,0,1-.82.52,7.16,7.16,0,0,1,1,.57,2.54,2.54,0,0,1,.69.74,1.8,1.8,0,0,1,.26,1,2.11,2.11,0,0,1-.77,1.72,3.11,3.11,0,0,1-2,.63,3.33,3.33,0,0,1-2.13-.61,2.31,2.31,0,0,1-.49-2.71,2.48,2.48,0,0,1,.66-.75,4.31,4.31,0,0,1,.87-.53,4,4,0,0,1-1.07-.87,2,2,0,0,1-.43-1.3,1.79,1.79,0,0,1,.34-1.11,2.07,2.07,0,0,1,.91-.69A3.36,3.36,0,0,1,305,205.34Zm-1.8,6.51a1.35,1.35,0,0,0,.44,1,2.44,2.44,0,0,0,2.71,0,1.36,1.36,0,0,0,.46-1.07,1.28,1.28,0,0,0-.49-1,4.59,4.59,0,0,0-1.31-.73l-.19-.07a3.72,3.72,0,0,0-1.21.78A1.54,1.54,0,0,0,303.15,211.85Zm1.79-5.66a1.73,1.73,0,0,0-1.1.32,1.06,1.06,0,0,0-.42.91,1.28,1.28,0,0,0,.21.75,1.77,1.77,0,0,0,.57.51,8.51,8.51,0,0,0,.8.4,3.91,3.91,0,0,0,1-.64,1.25,1.25,0,0,0,.43-1,1.06,1.06,0,0,0-.42-.91A1.74,1.74,0,0,0,304.94,206.19Z"/><path class="cls-4" d="M307.83,238.94a3,3,0,0,1,1.84.52,1.94,1.94,0,0,1,.5,2.43,2.23,2.23,0,0,1-.59.68,5.2,5.2,0,0,1-.82.52,6.26,6.26,0,0,1,1,.58,2.39,2.39,0,0,1,.69.73,1.88,1.88,0,0,1,.26,1,2.11,2.11,0,0,1-.77,1.72,3.11,3.11,0,0,1-2,.63,3.33,3.33,0,0,1-2.13-.61,2.31,2.31,0,0,1-.49-2.71,2.48,2.48,0,0,1,.66-.75,4.31,4.31,0,0,1,.87-.53,4,4,0,0,1-1.07-.87,2,2,0,0,1-.43-1.3,1.79,1.79,0,0,1,.34-1.11,2.07,2.07,0,0,1,.91-.69A3.36,3.36,0,0,1,307.83,238.94Zm-1.8,6.51a1.35,1.35,0,0,0,.44,1,2.44,2.44,0,0,0,2.71,0,1.36,1.36,0,0,0,.46-1.07,1.28,1.28,0,0,0-.49-1,4.59,4.59,0,0,0-1.31-.73l-.19-.07a3.72,3.72,0,0,0-1.21.78A1.54,1.54,0,0,0,306,245.45Zm1.79-5.66a1.79,1.79,0,0,0-1.1.32,1.06,1.06,0,0,0-.42.91,1.28,1.28,0,0,0,.21.75,1.77,1.77,0,0,0,.57.51,8.51,8.51,0,0,0,.8.4,3.91,3.91,0,0,0,1-.64,1.25,1.25,0,0,0,.43-1,1.06,1.06,0,0,0-.42-.91A1.81,1.81,0,0,0,307.82,239.79Z"/><path class="cls-4" d="M309.27,272.54a3,3,0,0,1,1.84.52,1.79,1.79,0,0,1,.72,1.53,1.77,1.77,0,0,1-.22.9,2.51,2.51,0,0,1-.59.68,5.2,5.2,0,0,1-.82.52,6.76,6.76,0,0,1,1,.57,2.54,2.54,0,0,1,.69.74,1.88,1.88,0,0,1,.26,1,2.1,2.1,0,0,1-.77,1.71,3.11,3.11,0,0,1-2,.63,3.33,3.33,0,0,1-2.13-.6,2.09,2.09,0,0,1-.74-1.7,2.07,2.07,0,0,1,.25-1,2.24,2.24,0,0,1,.65-.75,4.68,4.68,0,0,1,.88-.53,4,4,0,0,1-1.07-.87,1.94,1.94,0,0,1-.43-1.3,1.79,1.79,0,0,1,.34-1.11,2.07,2.07,0,0,1,.91-.69A3.36,3.36,0,0,1,309.27,272.54Zm-1.8,6.51a1.35,1.35,0,0,0,.44,1,2.44,2.44,0,0,0,2.71,0,1.4,1.4,0,0,0,.46-1.07,1.28,1.28,0,0,0-.49-1,4.59,4.59,0,0,0-1.31-.73l-.19-.07a3.72,3.72,0,0,0-1.21.78A1.49,1.49,0,0,0,307.47,279.05Zm1.78-5.66a1.72,1.72,0,0,0-1.09.32,1.06,1.06,0,0,0-.42.91,1.28,1.28,0,0,0,.21.75,1.77,1.77,0,0,0,.57.51c.24.14.51.27.79.4a3.82,3.82,0,0,0,1.05-.64,1.25,1.25,0,0,0,.43-1,1.06,1.06,0,0,0-.42-.91A1.75,1.75,0,0,0,309.25,273.39Z"/><path class="cls-4" d="M256.59,311.17a9.94,9.94,0,0,1,.16-1.82,4.75,4.75,0,0,1,.59-1.62,3.09,3.09,0,0,1,1.19-1.16,4,4,0,0,1,2-.43l.56,0a2.66,2.66,0,0,1,.5.09v.9a2.35,2.35,0,0,0-.49-.11,3.44,3.44,0,0,0-.54,0,3,3,0,0,0-1.39.28,2.16,2.16,0,0,0-.86.75,3.27,3.27,0,0,0-.47,1.11,8.9,8.9,0,0,0-.18,1.33h.07a2.43,2.43,0,0,1,.77-.72,2.5,2.5,0,0,1,1.26-.29,2.44,2.44,0,0,1,1.8.68,2.57,2.57,0,0,1,.69,1.93,2.93,2.93,0,0,1-.74,2.11,2.64,2.64,0,0,1-2,.77,2.76,2.76,0,0,1-1.47-.41,2.79,2.79,0,0,1-1-1.25A5,5,0,0,1,256.59,311.17Zm2.9,2.89a1.58,1.58,0,0,0,1.22-.49,2,2,0,0,0,.47-1.5,2,2,0,0,0-.41-1.3,1.55,1.55,0,0,0-1.24-.48,2.07,2.07,0,0,0-1,.23,1.8,1.8,0,0,0-.65.6,1.35,1.35,0,0,0-.24.74,2.67,2.67,0,0,0,.21,1,2.08,2.08,0,0,0,.61.84A1.56,1.56,0,0,0,259.49,314.06Z"/><path class="cls-4" d="M312.63,339.74a3,3,0,0,1,1.84.52,1.94,1.94,0,0,1,.5,2.43,2.23,2.23,0,0,1-.59.68,5.2,5.2,0,0,1-.82.52,6.24,6.24,0,0,1,1,.57,2.54,2.54,0,0,1,.69.74,1.9,1.9,0,0,1,.26,1,2.12,2.12,0,0,1-.77,1.71,3.16,3.16,0,0,1-2,.62,3.33,3.33,0,0,1-2.13-.6,2.27,2.27,0,0,1-.49-2.71,2.27,2.27,0,0,1,.66-.75,4.31,4.31,0,0,1,.87-.53,4,4,0,0,1-1.07-.87,1.94,1.94,0,0,1-.43-1.3,1.79,1.79,0,0,1,.34-1.11,2.07,2.07,0,0,1,.91-.69A3.36,3.36,0,0,1,312.63,339.74Zm-1.8,6.51a1.35,1.35,0,0,0,.44,1,2.4,2.4,0,0,0,2.71,0,1.36,1.36,0,0,0,.46-1.07,1.3,1.3,0,0,0-.49-1,4.59,4.59,0,0,0-1.31-.73l-.19-.07a3.72,3.72,0,0,0-1.21.78A1.49,1.49,0,0,0,310.83,346.25Zm1.79-5.66a1.79,1.79,0,0,0-1.1.32,1.07,1.07,0,0,0-.42.92,1.27,1.27,0,0,0,.21.74,1.77,1.77,0,0,0,.57.51c.24.14.51.27.79.4a3.82,3.82,0,0,0,1.05-.64,1.24,1.24,0,0,0,.43-1,1.07,1.07,0,0,0-.42-.92A1.81,1.81,0,0,0,312.62,340.59Z"/><path class="cls-4" d="M221.79,376.77a3.14,3.14,0,0,1,2.09.66,2.31,2.31,0,0,1,.79,1.86,2.68,2.68,0,0,1-.85,2.09,3.38,3.38,0,0,1-2.36.76,6.17,6.17,0,0,1-1.25-.12,3.45,3.45,0,0,1-1-.34v-1a3.6,3.6,0,0,0,1,.41,5,5,0,0,0,1.18.15,2.4,2.4,0,0,0,1.53-.45,1.9,1.9,0,0,0,.07-2.68,2.44,2.44,0,0,0-1.63-.45,5.63,5.63,0,0,0-.77.06l-.7.12-.52-.34.32-4h4.3v1h-3.4l-.2,2.48.55-.08A4.6,4.6,0,0,1,221.79,376.77Z"/><path class="cls-4" d="M239.31,412a9.91,9.91,0,0,1,.16-1.81,4.75,4.75,0,0,1,.59-1.62,3.09,3.09,0,0,1,1.19-1.16,4,4,0,0,1,2-.43l.56,0a2.75,2.75,0,0,1,.5.08V408a2.35,2.35,0,0,0-.49-.11,3.44,3.44,0,0,0-.54,0,3,3,0,0,0-1.38.28,2.13,2.13,0,0,0-.87.75,3.27,3.27,0,0,0-.47,1.11,8.9,8.9,0,0,0-.18,1.33h.08a2.39,2.39,0,0,1,.76-.72,2.5,2.5,0,0,1,1.26-.29,2.44,2.44,0,0,1,1.8.68,2.57,2.57,0,0,1,.69,1.93,3,3,0,0,1-.74,2.11,2.63,2.63,0,0,1-2,.77,2.76,2.76,0,0,1-1.47-.41,2.79,2.79,0,0,1-1.05-1.25A5.07,5.07,0,0,1,239.31,412Zm2.9,2.9a1.62,1.62,0,0,0,1.23-.49,2.11,2.11,0,0,0,.46-1.5,1.9,1.9,0,0,0-.41-1.3,1.55,1.55,0,0,0-1.24-.48,2.07,2.07,0,0,0-1,.23,1.89,1.89,0,0,0-.65.6,1.34,1.34,0,0,0-.23.74,2.69,2.69,0,0,0,.2,1,2.08,2.08,0,0,0,.61.84A1.56,1.56,0,0,0,242.21,414.86Z"/><path class="cls-4" d="M226.59,444a3.14,3.14,0,0,1,2.09.66,2.28,2.28,0,0,1,.79,1.86,2.65,2.65,0,0,1-.85,2.09,3.38,3.38,0,0,1-2.36.76,6.07,6.07,0,0,1-1.24-.12,3.41,3.41,0,0,1-1-.34v-1a3.6,3.6,0,0,0,1.05.41,5,5,0,0,0,1.19.15,2.39,2.39,0,0,0,1.52-.45,1.9,1.9,0,0,0,.07-2.68,2.44,2.44,0,0,0-1.63-.45,5.63,5.63,0,0,0-.77.06l-.7.12-.52-.34.32-4h4.3v1h-3.4l-.2,2.48.55-.08A4.6,4.6,0,0,1,226.59,444Z"/><path class="cls-4" d="M265.72,482.83l3.52-7.61h-4.62v-1h5.74v.81l-3.48,7.76Z"/><path class="cls-4" d="M236.45,512.73a10,10,0,0,1,.16-1.82,5,5,0,0,1,.59-1.62,3.23,3.23,0,0,1,1.19-1.16,4,4,0,0,1,2-.43l.55,0a2.52,2.52,0,0,1,.5.09v.9a2.21,2.21,0,0,0-.49-.11,5.09,5.09,0,0,0-.54,0,3.14,3.14,0,0,0-1.38.28,2.15,2.15,0,0,0-.87.76,3.28,3.28,0,0,0-.46,1.1,7,7,0,0,0-.18,1.33h.07a2.21,2.21,0,0,1,.77-.71,2.35,2.35,0,0,1,1.26-.3,2.47,2.47,0,0,1,1.8.68,2.62,2.62,0,0,1,.68,1.93,2.93,2.93,0,0,1-.74,2.11,2.62,2.62,0,0,1-2,.77,2.67,2.67,0,0,1-2.53-1.66A5,5,0,0,1,236.45,512.73Zm2.91,2.89a1.6,1.6,0,0,0,1.22-.49,2.09,2.09,0,0,0,.47-1.5,1.9,1.9,0,0,0-.42-1.3,1.54,1.54,0,0,0-1.24-.48,1.92,1.92,0,0,0-1,.24,1.74,1.74,0,0,0-.66.6,1.39,1.39,0,0,0-.23.73,2.86,2.86,0,0,0,.2,1,2.08,2.08,0,0,0,.61.84A1.61,1.61,0,0,0,239.36,515.62Z"/><path class="cls-4" d="M439.23,79.62h-1v-6c0-.35,0-.62,0-.83s0-.42,0-.65a3.19,3.19,0,0,1-.35.32l-.39.34-.91.74-.55-.7,2.31-1.8h.88Z"/><path class="cls-4" d="M448.07,79.62h-5.66v-.87l2.24-2.27c.43-.43.79-.81,1.09-1.15a4.58,4.58,0,0,0,.68-1,2.53,2.53,0,0,0,.22-1.07,1.37,1.37,0,0,0-.42-1.08,1.61,1.61,0,0,0-1.09-.36,2.67,2.67,0,0,0-1.1.21,5,5,0,0,0-1,.6l-.57-.71a5.53,5.53,0,0,1,1.16-.71,3.67,3.67,0,0,1,1.47-.29,2.78,2.78,0,0,1,1.9.61,2.11,2.11,0,0,1,.69,1.67,3,3,0,0,1-.27,1.26,5.3,5.3,0,0,1-.77,1.16c-.33.38-.71.79-1.15,1.21l-1.79,1.77v0h4.33Z"/><path class="cls-4" d="M228.27,546.37a9.94,9.94,0,0,1,.16-1.82,4.75,4.75,0,0,1,.59-1.62,3.09,3.09,0,0,1,1.19-1.16,4,4,0,0,1,2-.43l.56,0a2.66,2.66,0,0,1,.5.09v.9a2.35,2.35,0,0,0-.49-.11,3.44,3.44,0,0,0-.54,0,3,3,0,0,0-1.39.28,2.16,2.16,0,0,0-.86.75,3.27,3.27,0,0,0-.47,1.11,8.9,8.9,0,0,0-.18,1.33h.08a2.17,2.17,0,0,1,.76-.71,2.4,2.4,0,0,1,1.26-.3,2.44,2.44,0,0,1,1.8.68,2.57,2.57,0,0,1,.69,1.93,2.93,2.93,0,0,1-.74,2.11,2.63,2.63,0,0,1-2,.77,2.76,2.76,0,0,1-1.47-.41,2.79,2.79,0,0,1-1.05-1.25A5,5,0,0,1,228.27,546.37Zm2.9,2.89a1.62,1.62,0,0,0,1.23-.49,2.09,2.09,0,0,0,.46-1.5,1.9,1.9,0,0,0-.41-1.3,1.55,1.55,0,0,0-1.24-.48,2.07,2.07,0,0,0-1,.23,1.89,1.89,0,0,0-.65.6,1.35,1.35,0,0,0-.24.74,2.67,2.67,0,0,0,.21,1,2.08,2.08,0,0,0,.61.84A1.56,1.56,0,0,0,231.17,549.26Z"/><path class="cls-4" d="M325.59,37.34a3,3,0,0,1,1.84.52,1.94,1.94,0,0,1,.5,2.43,2.35,2.35,0,0,1-.59.68,5.2,5.2,0,0,1-.82.52,7.16,7.16,0,0,1,1,.57,2.54,2.54,0,0,1,.69.74,1.88,1.88,0,0,1,.26,1,2.14,2.14,0,0,1-.77,1.72,3.11,3.11,0,0,1-2,.63,3.33,3.33,0,0,1-2.13-.61,2.27,2.27,0,0,1-.49-2.71,2.48,2.48,0,0,1,.66-.75,4.31,4.31,0,0,1,.87-.53,4,4,0,0,1-1.07-.87,1.94,1.94,0,0,1-.43-1.3,1.79,1.79,0,0,1,.34-1.11,2.07,2.07,0,0,1,.91-.69A3.36,3.36,0,0,1,325.59,37.34Zm-1.8,6.51a1.35,1.35,0,0,0,.44,1,2.44,2.44,0,0,0,2.71,0,1.36,1.36,0,0,0,.46-1.07,1.28,1.28,0,0,0-.49-1,4.59,4.59,0,0,0-1.31-.73l-.19-.07a3.72,3.72,0,0,0-1.21.78A1.49,1.49,0,0,0,323.79,43.85Zm1.79-5.66a1.73,1.73,0,0,0-1.1.32,1.06,1.06,0,0,0-.42.91,1.28,1.28,0,0,0,.21.75,1.77,1.77,0,0,0,.57.51c.24.14.51.27.79.4a3.82,3.82,0,0,0,1.05-.64,1.25,1.25,0,0,0,.43-1,1.06,1.06,0,0,0-.42-.91A1.74,1.74,0,0,0,325.58,38.19Z"/><g class="cls-6"><path class="cls-4" d="M6,8.07,8.27,3.86H9.44L6.58,9.1v3.32H5.5V9.15L2.64,3.86H3.82Z"/><path class="cls-4" d="M12.34,5.87a2.69,2.69,0,0,1,1.41.36,2.34,2.34,0,0,1,.92,1A3.45,3.45,0,0,1,15,8.78v.63h-4.4a2.37,2.37,0,0,0,.56,1.66,1.9,1.9,0,0,0,1.49.58,4.49,4.49,0,0,0,1.09-.12,5.85,5.85,0,0,0,1-.33v.92a4.08,4.08,0,0,1-1,.32,5.43,5.43,0,0,1-1.14.1A3.37,3.37,0,0,1,11,12.17a2.69,2.69,0,0,1-1.09-1.1A3.82,3.82,0,0,1,9.5,9.26a4.22,4.22,0,0,1,.35-1.82,2.69,2.69,0,0,1,1-1.16A2.76,2.76,0,0,1,12.34,5.87Zm0,.87a1.54,1.54,0,0,0-1.2.48,2.36,2.36,0,0,0-.52,1.35h3.28a2.25,2.25,0,0,0-.39-1.32A1.36,1.36,0,0,0,12.33,6.74Z"/><path class="cls-4" d="M19.06,5.88a2.55,2.55,0,0,1,1.74.52A2.14,2.14,0,0,1,21.36,8v4.38H20.6l-.21-.91h-.05a3,3,0,0,1-.88.78,2.72,2.72,0,0,1-1.28.25,2.25,2.25,0,0,1-1.45-.46,1.75,1.75,0,0,1-.58-1.44,1.72,1.72,0,0,1,.76-1.49,4.56,4.56,0,0,1,2.33-.57l1.09,0V8.17A1.47,1.47,0,0,0,20,7.05a1.41,1.41,0,0,0-1-.31,3,3,0,0,0-1,.15,6,6,0,0,0-.85.34l-.33-.79a4.63,4.63,0,0,1,1-.39A4.3,4.3,0,0,1,19.06,5.88Zm1.26,3.4-.95,0a3.22,3.22,0,0,0-1.66.38,1.09,1.09,0,0,0-.46,1,.93.93,0,0,0,.33.79,1.33,1.33,0,0,0,.84.25,2,2,0,0,0,1.35-.45,1.67,1.67,0,0,0,.55-1.38Z"/><path class="cls-4" d="M26.35,5.87l.39,0,.37.05-.13,1a1.7,1.7,0,0,0-.35-.06l-.35,0a1.72,1.72,0,0,0-.92.27,1.89,1.89,0,0,0-.69.76A2.39,2.39,0,0,0,24.41,9v3.43H23.35V6h.87l.12,1.18h.05a2.89,2.89,0,0,1,.8-.91A1.83,1.83,0,0,1,26.35,5.87Z"/></g></svg>