<svg id="Layer_1" data-name="Layer 1" xmlns="http://www.w3.org/2000/svg" xmlns:xlink="http://www.w3.org/1999/xlink" viewBox="0 0 450 670"><defs><style>.cls-1{fill:none;}.cls-2{fill:#12a639;}.cls-3{fill:#59c174;}.cls-4{fill:#633169;}.cls-5{fill:#b198b4;}.cls-6{fill:#434c50;}.cls-7{clip-path:url(#clip-path);}.cls-8{fill:#1d1d1b;}.cls-9{fill:#fff;}</style><clipPath id="clip-path"><rect class="cls-1" width="446.14" height="667"/></clipPath></defs><rect class="cls-2" x="265.84" y="30.89" width="180.31" height="19.17"/><rect class="cls-3" x="265.84" y="64.44" width="121.53" height="19.17"/><rect class="cls-3" x="265.84" y="97.99" width="130.47" height="19.17"/><rect class="cls-3" x="265.84" y="131.54" width="73.49" height="19.17"/><rect class="cls-3" x="265.84" y="165.09" width="84.6" height="19.17"/><rect class="cls-3" x="265.84" y="198.64" width="130.01" height="19.17"/><rect class="cls-3" x="265.84" y="232.2" width="85.38" height="19.17"/><rect class="cls-3" x="265.84" y="265.75" width="45.27" height="19.17"/><rect class="cls-3" x="265.84" y="299.3" width="59.52" height="19.17"/><rect class="cls-3" x="265.84" y="332.85" width="69.71" height="19.17"/><rect class="cls-3" x="265.84" y="366.4" width="40.25" height="19.17"/><rect class="cls-3" x="265.84" y="399.96" width="27.25" height="19.17"/><rect class="cls-3" x="265.84" y="433.51" width="73.95" height="19.17"/><rect class="cls-3" x="265.84" y="467.06" width="76.95" height="19.17"/><rect class="cls-3" x="265.84" y="500.61" width="24.99" height="19.17"/><rect class="cls-3" x="265.84" y="534.16" width="61.27" height="19.17"/><rect class="cls-3" x="265.84" y="567.72" width="23.14" height="19.17"/><rect class="cls-3" x="265.84" y="601.27" width="5.86" height="19.17"/><rect class="cls-3" x="265.84" y="634.82" width="1.48" height="19.17"/><rect class="cls-4" x="39.93" y="31.16" width="225.62" height="19.17"/><rect class="cls-5" x="116.5" y="64.71" width="149.05" height="19.17"/><rect class="cls-5" x="154.72" y="98.26" width="110.83" height="19.17"/><rect class="cls-5" x="133.19" y="131.82" width="132.36" height="19.17"/><rect class="cls-5" x="191.23" y="165.37" width="74.32" height="19.17"/><rect class="cls-5" x="125.95" y="198.92" width="139.6" height="19.17"/><rect class="cls-5" x="126.46" y="232.47" width="139.09" height="19.17"/><rect class="cls-5" x="155.78" y="266.02" width="109.77" height="19.17"/><rect class="cls-5" x="174.68" y="299.58" width="90.87" height="19.17"/><rect class="cls-5" x="163.34" y="333.13" width="102.21" height="19.17"/><rect class="cls-5" x="206.31" y="366.68" width="59.24" height="19.17"/><rect class="cls-5" x="217.42" y="400.23" width="48.13" height="19.17"/><rect class="cls-5" x="224.8" y="433.78" width="40.75" height="19.17"/><rect class="cls-5" x="118.35" y="467.34" width="147.2" height="19.17"/><rect class="cls-5" x="193.21" y="500.89" width="72.33" height="19.17"/><rect class="cls-5" x="170.03" y="534.44" width="95.52" height="19.17"/><rect class="cls-5" x="206.95" y="567.99" width="58.6" height="19.17"/><rect class="cls-5" x="250.52" y="601.54" width="15.03" height="19.17"/><rect class="cls-5" x="265.37" y="635.1" width="0.18" height="19.17"/><path class="cls-6" d="M12.38,112.22h-1v-6c0-.35,0-.62,0-.83s0-.43,0-.65a4.47,4.47,0,0,1-.35.32l-.39.34-.91.74-.56-.7,2.32-1.8h.87Z"/><path class="cls-6" d="M21.23,107.32a10.88,10.88,0,0,1-.16,1.81,5,5,0,0,1-.59,1.62,3.18,3.18,0,0,1-1.2,1.16,4,4,0,0,1-2,.43l-.56,0a2.62,2.62,0,0,1-.52-.09v-.9a3.19,3.19,0,0,0,1.06.16,3,3,0,0,0,1.38-.28,2.13,2.13,0,0,0,.87-.75,3,3,0,0,0,.47-1.1,7,7,0,0,0,.17-1.33h-.07a2.4,2.4,0,0,1-.77.71,2.51,2.51,0,0,1-1.27.29,2.4,2.4,0,0,1-1.78-.68,2.55,2.55,0,0,1-.68-1.91,3.38,3.38,0,0,1,.33-1.55,2.5,2.5,0,0,1,1-1,2.89,2.89,0,0,1,1.44-.34,2.68,2.68,0,0,1,1.48.41,2.77,2.77,0,0,1,1,1.25A5,5,0,0,1,21.23,107.32Zm-2.91-2.9a1.6,1.6,0,0,0-1.21.5,2,2,0,0,0-.48,1.5,2,2,0,0,0,.4,1.3,1.58,1.58,0,0,0,1.25.47,2.07,2.07,0,0,0,1-.23,1.92,1.92,0,0,0,.66-.6,1.37,1.37,0,0,0,.23-.74,2.85,2.85,0,0,0-.2-1,2,2,0,0,0-.62-.84A1.57,1.57,0,0,0,18.32,104.42Z"/><path class="cls-6" d="M12.38,145.82h-1v-6c0-.35,0-.62,0-.83s0-.43,0-.65a4.47,4.47,0,0,1-.35.32l-.39.34-.91.74-.56-.7,2.32-1.8h.87Z"/><path class="cls-6" d="M18.41,137.14a3.07,3.07,0,0,1,1.85.52,1.95,1.95,0,0,1,.49,2.43,2.35,2.35,0,0,1-.59.68,5.2,5.2,0,0,1-.82.52,6.24,6.24,0,0,1,1,.57,2.54,2.54,0,0,1,.69.74,1.8,1.8,0,0,1,.26,1,2.07,2.07,0,0,1-.77,1.71,3.11,3.11,0,0,1-2,.63,3.33,3.33,0,0,1-2.13-.6,2.31,2.31,0,0,1-.49-2.71,2.27,2.27,0,0,1,.66-.75,4.31,4.31,0,0,1,.87-.53,4,4,0,0,1-1.07-.87,2,2,0,0,1-.43-1.3,1.79,1.79,0,0,1,.34-1.11,2.13,2.13,0,0,1,.91-.69A3.36,3.36,0,0,1,18.41,137.14Zm-1.8,6.51a1.38,1.38,0,0,0,.44,1,1.94,1.94,0,0,0,1.37.41,1.94,1.94,0,0,0,1.34-.41,1.36,1.36,0,0,0,.46-1.07,1.28,1.28,0,0,0-.49-1,4.59,4.59,0,0,0-1.31-.73l-.19-.07a3.72,3.72,0,0,0-1.21.78A1.54,1.54,0,0,0,16.61,143.65ZM18.4,138a1.73,1.73,0,0,0-1.1.32,1.06,1.06,0,0,0-.42.91,1.28,1.28,0,0,0,.21.75,1.77,1.77,0,0,0,.57.51,8.51,8.51,0,0,0,.8.4,4.14,4.14,0,0,0,1.05-.64,1.27,1.27,0,0,0,.42-1,1.06,1.06,0,0,0-.42-.91A1.74,1.74,0,0,0,18.4,138Z"/><path class="cls-6" d="M12.38,179.42h-1v-6c0-.35,0-.62,0-.83s0-.42,0-.65a4.47,4.47,0,0,1-.35.32l-.39.34-.91.74-.56-.7,2.32-1.8h.87Z"/><path class="cls-6" d="M16.62,179.42l3.52-7.6H15.52v-1h5.74v.81l-3.48,7.75Z"/><path class="cls-6" d="M12.38,213h-1v-6c0-.35,0-.62,0-.83s0-.42,0-.65a4.47,4.47,0,0,1-.35.32l-.39.34-.91.74-.56-.7,2.32-1.8h.87Z"/><path class="cls-6" d="M15.65,209.36a9.91,9.91,0,0,1,.16-1.81,4.75,4.75,0,0,1,.59-1.62,3.09,3.09,0,0,1,1.19-1.16,4,4,0,0,1,2-.43,5.53,5.53,0,0,1,.56,0,2.75,2.75,0,0,1,.5.08v.9a3.26,3.26,0,0,0-.49-.1,3.44,3.44,0,0,0-.54,0,3,3,0,0,0-1.38.28,2.13,2.13,0,0,0-.87.75,3.27,3.27,0,0,0-.47,1.11,8.9,8.9,0,0,0-.18,1.33h.08a2.26,2.26,0,0,1,.76-.71,2.4,2.4,0,0,1,1.26-.3,2.44,2.44,0,0,1,1.8.68,2.57,2.57,0,0,1,.69,1.93,2.93,2.93,0,0,1-.74,2.11,2.63,2.63,0,0,1-2,.77,2.76,2.76,0,0,1-1.47-.41A2.85,2.85,0,0,1,16,211.49,5.07,5.07,0,0,1,15.65,209.36Zm2.9,2.9a1.66,1.66,0,0,0,1.23-.49,2.11,2.11,0,0,0,.46-1.5,1.9,1.9,0,0,0-.41-1.3,1.55,1.55,0,0,0-1.24-.48,2.07,2.07,0,0,0-1,.23,1.89,1.89,0,0,0-.65.6,1.34,1.34,0,0,0-.23.74,2.69,2.69,0,0,0,.2,1,2.08,2.08,0,0,0,.61.84A1.56,1.56,0,0,0,18.55,212.26Z"/><path class="cls-6" d="M12.38,246.62h-1v-6c0-.35,0-.62,0-.83s0-.42,0-.65a4.47,4.47,0,0,1-.35.32l-.39.34-.91.74-.56-.7,2.32-1.8h.87Z"/><path class="cls-6" d="M18.29,241.37a3.14,3.14,0,0,1,2.09.66,2.28,2.28,0,0,1,.79,1.86,2.64,2.64,0,0,1-.85,2.09,3.39,3.39,0,0,1-2.36.77,5.42,5.42,0,0,1-1.24-.13,3.41,3.41,0,0,1-1-.34v-1a3.34,3.34,0,0,0,1,.41,5.14,5.14,0,0,0,1.19.16,2.5,2.5,0,0,0,1.53-.45,1.68,1.68,0,0,0,.58-1.4,1.6,1.6,0,0,0-.52-1.29,2.44,2.44,0,0,0-1.63-.45,5.75,5.75,0,0,0-.77.06q-.44.06-.69.12L16,242.1l.32-4h4.3v1h-3.4L17,241.5l.55-.08A6,6,0,0,1,18.29,241.37Z"/><path class="cls-6" d="M12.38,280.22h-1v-6c0-.35,0-.62,0-.83s0-.43,0-.65a4.47,4.47,0,0,1-.35.32l-.39.34-.91.74-.56-.7,2.32-1.8h.87Z"/><path class="cls-6" d="M21.61,278.28H20.36v1.94h-1v-1.94h-4.1v-.9l4-5.77h1.09v5.72h1.25Zm-2.27-.95v-2.7c0-.41,0-.77,0-1.06s0-.57,0-.83h0l-.24.49a4.91,4.91,0,0,1-.28.44l-2.57,3.66Z"/><path class="cls-6" d="M12.38,313.82h-1v-6c0-.35,0-.62,0-.83s0-.43,0-.65a4.47,4.47,0,0,1-.35.32l-.39.34-.91.74-.56-.7,2.32-1.8h.87Z"/><path class="cls-6" d="M20.9,307.26a1.91,1.91,0,0,1-.48,1.37,2.44,2.44,0,0,1-1.29.68v.05a2.47,2.47,0,0,1,1.53.65,1.9,1.9,0,0,1,.51,1.38,2.54,2.54,0,0,1-.35,1.33,2.35,2.35,0,0,1-1.07.9,4.58,4.58,0,0,1-1.87.32,7,7,0,0,1-1.25-.1,4.3,4.3,0,0,1-1.1-.36v-1a4.59,4.59,0,0,0,1.16.42,5.18,5.18,0,0,0,1.2.15,2.48,2.48,0,0,0,1.66-.45,1.58,1.58,0,0,0,.51-1.25,1.21,1.21,0,0,0-.63-1.15,3.6,3.6,0,0,0-1.77-.36h-.82V309h.84a2.54,2.54,0,0,0,1.6-.44,1.46,1.46,0,0,0,.54-1.18,1.16,1.16,0,0,0-.42-1,1.74,1.74,0,0,0-1.14-.35,3,3,0,0,0-1.18.21,6.11,6.11,0,0,0-1,.51l-.52-.72a4.45,4.45,0,0,1,1.13-.62,4.15,4.15,0,0,1,1.54-.26,2.88,2.88,0,0,1,2,.6A2,2,0,0,1,20.9,307.26Z"/><path class="cls-6" d="M12.38,347.42h-1v-6c0-.35,0-.62,0-.83s0-.43,0-.65l-.35.33c-.11.08-.24.2-.39.33l-.91.75-.56-.71,2.32-1.8h.87Z"/><path class="cls-6" d="M21.23,347.42H15.56v-.87l2.25-2.27c.42-.43.78-.82,1.08-1.15a4.29,4.29,0,0,0,.68-1,2.43,2.43,0,0,0,.23-1.06,1.36,1.36,0,0,0-.42-1.08,1.61,1.61,0,0,0-1.09-.36,2.71,2.71,0,0,0-1.11.21,5.76,5.76,0,0,0-1,.6l-.56-.7a4.83,4.83,0,0,1,1.16-.72,3.45,3.45,0,0,1,1.47-.29,2.74,2.74,0,0,1,1.89.61,2.09,2.09,0,0,1,.7,1.67,2.9,2.9,0,0,1-.28,1.26,5.25,5.25,0,0,1-.76,1.16,16,16,0,0,1-1.16,1.21l-1.78,1.77v0h4.33Z"/><path class="cls-6" d="M12.38,381h-1v-6c0-.35,0-.62,0-.83s0-.43,0-.65a4.47,4.47,0,0,1-.35.32l-.39.34-.91.74-.56-.7,2.32-1.8h.87Z"/><path class="cls-6" d="M19.25,381h-1v-6c0-.35,0-.62,0-.83l0-.65a2.48,2.48,0,0,1-.35.32l-.39.34-.91.74-.55-.7,2.31-1.8h.88Z"/><path class="cls-6" d="M12.38,414.62h-1v-6c0-.35,0-.62,0-.83s0-.43,0-.65l-.35.33c-.11.08-.24.2-.39.33l-.91.75-.56-.71,2.32-1.8h.87Z"/><path class="cls-6" d="M21.26,410.33a8.68,8.68,0,0,1-.28,2.38,3.08,3.08,0,0,1-.92,1.51,2.49,2.49,0,0,1-1.65.53,2.31,2.31,0,0,1-2.14-1.17,6.46,6.46,0,0,1-.69-3.25,8.68,8.68,0,0,1,.28-2.38,3,3,0,0,1,.9-1.5,2.49,2.49,0,0,1,1.65-.53,2.37,2.37,0,0,1,2.15,1.16A6.3,6.3,0,0,1,21.26,410.33Zm-4.63,0A6.82,6.82,0,0,0,17,413a1.52,1.52,0,0,0,2.75,0,8.48,8.48,0,0,0,0-5.27,1.52,1.52,0,0,0-2.75,0A6.76,6.76,0,0,0,16.63,410.33Z"/><path class="cls-6" d="M14.4,443.93a8.16,8.16,0,0,1-.29,2.37,3,3,0,0,1-.92,1.52,2.47,2.47,0,0,1-1.65.52,2.3,2.3,0,0,1-2.14-1.17,6.39,6.39,0,0,1-.69-3.24A8.65,8.65,0,0,1,9,441.55a2.85,2.85,0,0,1,.9-1.5,2.47,2.47,0,0,1,1.64-.53,2.36,2.36,0,0,1,2.15,1.16A6.2,6.2,0,0,1,14.4,443.93Zm-4.63,0a6.64,6.64,0,0,0,.4,2.64,1.41,1.41,0,0,0,1.37.87,1.42,1.42,0,0,0,1.38-.87,8.67,8.67,0,0,0,0-5.27,1.43,1.43,0,0,0-1.38-.88,1.41,1.41,0,0,0-1.37.88A6.55,6.55,0,0,0,9.77,443.93Z"/><path class="cls-6" d="M21.23,443.32a10.88,10.88,0,0,1-.16,1.81,5,5,0,0,1-.59,1.62,3.18,3.18,0,0,1-1.2,1.16,4,4,0,0,1-2,.43l-.56,0a2.62,2.62,0,0,1-.52-.09v-.9a3.19,3.19,0,0,0,1.06.16,3.08,3.08,0,0,0,1.38-.27,2.29,2.29,0,0,0,.87-.75,3.08,3.08,0,0,0,.47-1.11,7,7,0,0,0,.17-1.33h-.07a2.4,2.4,0,0,1-.77.71,2.51,2.51,0,0,1-1.27.29,2.4,2.4,0,0,1-1.78-.68,2.55,2.55,0,0,1-.68-1.91,3.38,3.38,0,0,1,.33-1.55,2.5,2.5,0,0,1,1-1,2.89,2.89,0,0,1,1.44-.34,2.68,2.68,0,0,1,1.48.41,2.77,2.77,0,0,1,1,1.25A5,5,0,0,1,21.23,443.32Zm-2.91-2.9a1.6,1.6,0,0,0-1.21.5,2.06,2.06,0,0,0-.48,1.5,2,2,0,0,0,.4,1.3,1.54,1.54,0,0,0,1.25.47,2.07,2.07,0,0,0,1-.23,1.92,1.92,0,0,0,.66-.6,1.37,1.37,0,0,0,.23-.74,2.85,2.85,0,0,0-.2-1,2,2,0,0,0-.62-.84A1.57,1.57,0,0,0,18.32,440.42Z"/><path class="cls-6" d="M14.4,477.53a8.28,8.28,0,0,1-.29,2.38,3,3,0,0,1-.92,1.51,2.48,2.48,0,0,1-1.65.53,2.32,2.32,0,0,1-2.14-1.17,6.44,6.44,0,0,1-.69-3.25A8.65,8.65,0,0,1,9,475.15a2.89,2.89,0,0,1,.9-1.5,2.47,2.47,0,0,1,1.64-.53,2.36,2.36,0,0,1,2.15,1.16A6.2,6.2,0,0,1,14.4,477.53Zm-4.63,0a6.6,6.6,0,0,0,.4,2.64,1.41,1.41,0,0,0,1.37.87,1.42,1.42,0,0,0,1.38-.87,8.67,8.67,0,0,0,0-5.27,1.42,1.42,0,0,0-1.38-.87,1.41,1.41,0,0,0-1.37.87A6.58,6.58,0,0,0,9.77,477.53Z"/><path class="cls-6" d="M18.41,473.14a3,3,0,0,1,1.85.53,1.93,1.93,0,0,1,.49,2.42,2.23,2.23,0,0,1-.59.68,5.2,5.2,0,0,1-.82.52,5.55,5.55,0,0,1,1,.58,2.39,2.39,0,0,1,.69.73,1.81,1.81,0,0,1,.26,1,2.07,2.07,0,0,1-.77,1.71,3.11,3.11,0,0,1-2,.63,3.33,3.33,0,0,1-2.13-.61,2.31,2.31,0,0,1-.49-2.71,2.27,2.27,0,0,1,.66-.75,4.31,4.31,0,0,1,.87-.53,4,4,0,0,1-1.07-.87,2,2,0,0,1-.43-1.3,1.81,1.81,0,0,1,.34-1.11,2.13,2.13,0,0,1,.91-.69A3.36,3.36,0,0,1,18.41,473.14Zm-1.8,6.51a1.37,1.37,0,0,0,.44,1,1.94,1.94,0,0,0,1.37.42,1.94,1.94,0,0,0,1.34-.42,1.35,1.35,0,0,0,.46-1.07,1.3,1.3,0,0,0-.49-1,4.59,4.59,0,0,0-1.31-.73l-.19-.07a3.72,3.72,0,0,0-1.21.78A1.54,1.54,0,0,0,16.61,479.65ZM18.4,474a1.79,1.79,0,0,0-1.1.32,1.08,1.08,0,0,0-.42.92,1.27,1.27,0,0,0,.21.74,1.77,1.77,0,0,0,.57.51,8.51,8.51,0,0,0,.8.4,4.12,4.12,0,0,0,1.05-.63,1.3,1.3,0,0,0,.42-1,1.08,1.08,0,0,0-.42-.92A1.81,1.81,0,0,0,18.4,474Z"/><path class="cls-6" d="M14.4,511.13a8.16,8.16,0,0,1-.29,2.37,2.94,2.94,0,0,1-.92,1.52,2.47,2.47,0,0,1-1.65.52,2.31,2.31,0,0,1-2.14-1.16,6.46,6.46,0,0,1-.69-3.25A8.65,8.65,0,0,1,9,508.75a2.85,2.85,0,0,1,.9-1.5,2.47,2.47,0,0,1,1.64-.53,2.36,2.36,0,0,1,2.15,1.16A6.2,6.2,0,0,1,14.4,511.13Zm-4.63,0a6.64,6.64,0,0,0,.4,2.64,1.41,1.41,0,0,0,1.37.87,1.42,1.42,0,0,0,1.38-.87,8.67,8.67,0,0,0,0-5.27,1.43,1.43,0,0,0-1.38-.88,1.41,1.41,0,0,0-1.37.88A6.55,6.55,0,0,0,9.77,511.13Z"/><path class="cls-6" d="M16.62,515.42l3.52-7.6H15.52v-1h5.74v.81l-3.48,7.75Z"/><path class="cls-6" d="M14.4,544.73a8.16,8.16,0,0,1-.29,2.37,3,3,0,0,1-.92,1.52,2.47,2.47,0,0,1-1.65.52A2.32,2.32,0,0,1,9.4,548a6.39,6.39,0,0,1-.69-3.24A8.65,8.65,0,0,1,9,542.35a2.85,2.85,0,0,1,.9-1.5,2.47,2.47,0,0,1,1.64-.53,2.36,2.36,0,0,1,2.15,1.16A6.17,6.17,0,0,1,14.4,544.73Zm-4.63,0a6.64,6.64,0,0,0,.4,2.64,1.41,1.41,0,0,0,1.37.87,1.42,1.42,0,0,0,1.38-.87,8.67,8.67,0,0,0,0-5.27,1.43,1.43,0,0,0-1.38-.88,1.41,1.41,0,0,0-1.37.88A6.55,6.55,0,0,0,9.77,544.73Z"/><path class="cls-6" d="M15.65,545.36a9.91,9.91,0,0,1,.16-1.81,4.75,4.75,0,0,1,.59-1.62,3.09,3.09,0,0,1,1.19-1.16,4,4,0,0,1,2-.43,5.53,5.53,0,0,1,.56,0,2.75,2.75,0,0,1,.5.08v.9a3.26,3.26,0,0,0-.49-.1,3.44,3.44,0,0,0-.54,0,3,3,0,0,0-1.38.28,2.13,2.13,0,0,0-.87.75,3.27,3.27,0,0,0-.47,1.11,8.9,8.9,0,0,0-.18,1.33h.08a2.39,2.39,0,0,1,.76-.72,2.5,2.5,0,0,1,1.26-.29,2.44,2.44,0,0,1,1.8.68,2.56,2.56,0,0,1,.69,1.92,3,3,0,0,1-.74,2.12,2.62,2.62,0,0,1-2,.76,2.75,2.75,0,0,1-1.47-.4A2.85,2.85,0,0,1,16,547.49,5.07,5.07,0,0,1,15.65,545.36Zm2.9,2.9a1.66,1.66,0,0,0,1.23-.49,2.12,2.12,0,0,0,.46-1.51,1.89,1.89,0,0,0-.41-1.29,1.55,1.55,0,0,0-1.24-.48,2.07,2.07,0,0,0-1,.23,1.89,1.89,0,0,0-.65.6,1.34,1.34,0,0,0-.23.74,2.69,2.69,0,0,0,.2,1,2.08,2.08,0,0,0,.61.84A1.56,1.56,0,0,0,18.55,548.26Z"/><path class="cls-6" d="M14.4,578.33a8.28,8.28,0,0,1-.29,2.38,3,3,0,0,1-.92,1.51,2.48,2.48,0,0,1-1.65.53,2.32,2.32,0,0,1-2.14-1.17,6.46,6.46,0,0,1-.69-3.25A8.65,8.65,0,0,1,9,576a2.85,2.85,0,0,1,.9-1.5,2.47,2.47,0,0,1,1.64-.53,2.36,2.36,0,0,1,2.15,1.16A6.2,6.2,0,0,1,14.4,578.33Zm-4.63,0a6.64,6.64,0,0,0,.4,2.64,1.41,1.41,0,0,0,1.37.87,1.42,1.42,0,0,0,1.38-.87,8.67,8.67,0,0,0,0-5.27,1.42,1.42,0,0,0-1.38-.87,1.41,1.41,0,0,0-1.37.87A6.58,6.58,0,0,0,9.77,578.33Z"/><path class="cls-6" d="M18.29,577.37a3.14,3.14,0,0,1,2.09.66,2.28,2.28,0,0,1,.79,1.86,2.65,2.65,0,0,1-.85,2.09,3.39,3.39,0,0,1-2.36.77,5.42,5.42,0,0,1-1.24-.13,3.41,3.41,0,0,1-1-.34v-1a3.9,3.9,0,0,0,1,.42,5.66,5.66,0,0,0,1.19.14,2.38,2.38,0,0,0,1.53-.45,1.66,1.66,0,0,0,.58-1.39,1.6,1.6,0,0,0-.52-1.29,2.44,2.44,0,0,0-1.63-.45,5.75,5.75,0,0,0-.77.06q-.44.06-.69.12L16,578.1l.32-4h4.3v1h-3.4L17,577.5l.55-.08A4.6,4.6,0,0,1,18.29,577.37Z"/><path class="cls-6" d="M14.4,611.93a8.16,8.16,0,0,1-.29,2.37,3,3,0,0,1-.92,1.52,2.47,2.47,0,0,1-1.65.52,2.3,2.3,0,0,1-2.14-1.17,6.39,6.39,0,0,1-.69-3.24A8.65,8.65,0,0,1,9,609.55a2.85,2.85,0,0,1,.9-1.5,2.47,2.47,0,0,1,1.64-.53,2.36,2.36,0,0,1,2.15,1.16A6.2,6.2,0,0,1,14.4,611.93Zm-4.63,0a6.64,6.64,0,0,0,.4,2.64,1.41,1.41,0,0,0,1.37.87,1.42,1.42,0,0,0,1.38-.87,8.67,8.67,0,0,0,0-5.27,1.43,1.43,0,0,0-1.38-.88,1.41,1.41,0,0,0-1.37.88A6.55,6.55,0,0,0,9.77,611.93Z"/><path class="cls-6" d="M21.61,614.28H20.36v1.94h-1v-1.94h-4.1v-.9l4-5.77h1.09v5.72h1.25Zm-2.27-.95v-2.7c0-.41,0-.77,0-1.06s0-.57,0-.83h0l-.24.49a4.91,4.91,0,0,1-.28.44l-2.57,3.66Z"/><path class="cls-6" d="M14.4,645.53a8.28,8.28,0,0,1-.29,2.38,3,3,0,0,1-.92,1.51,2.48,2.48,0,0,1-1.65.53,2.32,2.32,0,0,1-2.14-1.17,6.44,6.44,0,0,1-.69-3.25A8.65,8.65,0,0,1,9,643.15a2.89,2.89,0,0,1,.9-1.5,2.47,2.47,0,0,1,1.64-.53,2.36,2.36,0,0,1,2.15,1.16A6.2,6.2,0,0,1,14.4,645.53Zm-4.63,0a6.6,6.6,0,0,0,.4,2.64,1.41,1.41,0,0,0,1.37.87,1.42,1.42,0,0,0,1.38-.87,8.67,8.67,0,0,0,0-5.27,1.42,1.42,0,0,0-1.38-.87,1.41,1.41,0,0,0-1.37.87A6.58,6.58,0,0,0,9.77,645.53Z"/><path class="cls-6" d="M20.9,643.26a1.91,1.91,0,0,1-.48,1.37,2.37,2.37,0,0,1-1.29.68v.05a2.47,2.47,0,0,1,1.53.65,1.9,1.9,0,0,1,.51,1.38,2.54,2.54,0,0,1-.35,1.33,2.23,2.23,0,0,1-1.07.9,4.57,4.57,0,0,1-1.87.33,7,7,0,0,1-1.25-.11,3.94,3.94,0,0,1-1.1-.36v-1a4.59,4.59,0,0,0,1.16.42,5.18,5.18,0,0,0,1.2.15,2.48,2.48,0,0,0,1.66-.45,1.58,1.58,0,0,0,.51-1.24,1.22,1.22,0,0,0-.63-1.16,3.6,3.6,0,0,0-1.77-.36h-.82V645h.84a2.48,2.48,0,0,0,1.6-.44,1.46,1.46,0,0,0,.54-1.18,1.16,1.16,0,0,0-.42-1,1.74,1.74,0,0,0-1.14-.34,3,3,0,0,0-1.18.2,6.18,6.18,0,0,0-1,.52l-.52-.72a4.46,4.46,0,0,1,1.13-.63,4.36,4.36,0,0,1,1.54-.26,2.88,2.88,0,0,1,2,.6A2,2,0,0,1,20.9,643.26Z"/><g class="cls-7"><rect class="cls-8" x="265.55" y="2.3" width="0.96" height="666.24"/></g><path class="cls-6" d="M14.37,78.62H8.7v-.87l2.24-2.27c.43-.43.79-.81,1.09-1.15a4.24,4.24,0,0,0,.68-1,2.54,2.54,0,0,0,.23-1.07,1.37,1.37,0,0,0-.42-1.08,1.64,1.64,0,0,0-1.1-.36,2.67,2.67,0,0,0-1.1.21,5.76,5.76,0,0,0-1,.6l-.56-.71A5.28,5.28,0,0,1,10,70.23a3.59,3.59,0,0,1,1.46-.29,2.75,2.75,0,0,1,1.9.61,2.12,2.12,0,0,1,.7,1.67,3,3,0,0,1-.28,1.26A5,5,0,0,1,13,74.64a15.6,15.6,0,0,1-1.15,1.21L10,77.62v0h4.34Z"/><path class="cls-6" d="M21.26,74.33A8.68,8.68,0,0,1,21,76.71a3.08,3.08,0,0,1-.92,1.51,2.49,2.49,0,0,1-1.65.53,2.33,2.33,0,0,1-2.14-1.17,6.46,6.46,0,0,1-.69-3.25A8.68,8.68,0,0,1,15.86,72a3,3,0,0,1,.9-1.5,2.49,2.49,0,0,1,1.65-.53,2.37,2.37,0,0,1,2.15,1.16A6.28,6.28,0,0,1,21.26,74.33Zm-4.63,0A6.79,6.79,0,0,0,17,77a1.52,1.52,0,0,0,2.75,0,8.51,8.51,0,0,0,0-5.28,1.52,1.52,0,0,0-2.75,0A6.76,6.76,0,0,0,16.63,74.33Z"/><path class="cls-6" d="M14.37,45H8.7v-.87l2.24-2.27c.43-.43.79-.82,1.09-1.15a4.47,4.47,0,0,0,.68-1,2.54,2.54,0,0,0,.23-1.07,1.37,1.37,0,0,0-.42-1.08,1.64,1.64,0,0,0-1.1-.36,2.67,2.67,0,0,0-1.1.21,5.76,5.76,0,0,0-1,.6l-.56-.71A4.93,4.93,0,0,1,10,36.63a3.59,3.59,0,0,1,1.46-.29,2.75,2.75,0,0,1,1.9.61,2.12,2.12,0,0,1,.7,1.67,3,3,0,0,1-.28,1.26A5,5,0,0,1,13,41a15.6,15.6,0,0,1-1.15,1.21L10,44v0h4.34Z"/><path class="cls-6" d="M19.25,45h-1V39c0-.35,0-.62,0-.83s0-.42,0-.65a2.48,2.48,0,0,1-.35.32l-.39.34-.91.74-.55-.7,2.31-1.8h.88Z"/><path class="cls-9" d="M209.73,112.22h-5.67v-.87l2.25-2.27c.42-.43.78-.82,1.08-1.15a4.29,4.29,0,0,0,.68-1,2.46,2.46,0,0,0,.23-1.06,1.36,1.36,0,0,0-.42-1.08,1.63,1.63,0,0,0-1.09-.36,2.68,2.68,0,0,0-1.11.21,5.76,5.76,0,0,0-1,.6l-.56-.71a4.93,4.93,0,0,1,1.16-.71,3.45,3.45,0,0,1,1.47-.29,2.74,2.74,0,0,1,1.89.61,2.09,2.09,0,0,1,.7,1.67,2.9,2.9,0,0,1-.28,1.26,5,5,0,0,1-.77,1.16,15.6,15.6,0,0,1-1.15,1.21l-1.79,1.77v0h4.34Z"/><path class="cls-9" d="M217,110.28h-1.24v1.94h-1v-1.94H210.6v-.9l4-5.77h1.1v5.72H217Zm-2.26-1v-2.7c0-.41,0-.77,0-1.06s0-.57.05-.83h-.05l-.24.49a4.91,4.91,0,0,1-.28.44l-2.57,3.66Z"/><path class="cls-9" d="M198.93,145.82h-5.67V145l2.24-2.27c.43-.43.79-.82,1.09-1.15a4.29,4.29,0,0,0,.68-1,2.46,2.46,0,0,0,.23-1.06,1.36,1.36,0,0,0-.42-1.08A1.64,1.64,0,0,0,196,138a2.67,2.67,0,0,0-1.1.21,5.76,5.76,0,0,0-1,.6l-.56-.71a4.93,4.93,0,0,1,1.16-.71,3.43,3.43,0,0,1,1.46-.29,2.75,2.75,0,0,1,1.9.61,2.12,2.12,0,0,1,.7,1.67,3,3,0,0,1-.28,1.26,5,5,0,0,1-.77,1.16,15.6,15.6,0,0,1-1.15,1.21l-1.79,1.77v0h4.34Z"/><path class="cls-9" d="M205.79,140.92a10.88,10.88,0,0,1-.16,1.81,5,5,0,0,1-.59,1.62,3.18,3.18,0,0,1-1.2,1.16,4,4,0,0,1-2,.43l-.56,0a2.62,2.62,0,0,1-.52-.09v-.9a3.19,3.19,0,0,0,1.06.16,3,3,0,0,0,1.38-.28,2.13,2.13,0,0,0,.87-.75,3,3,0,0,0,.47-1.1,7,7,0,0,0,.17-1.33h-.07a2.4,2.4,0,0,1-.77.71,2.51,2.51,0,0,1-1.27.29,2.4,2.4,0,0,1-1.78-.68,2.59,2.59,0,0,1-.68-1.91,3.38,3.38,0,0,1,.33-1.55,2.5,2.5,0,0,1,1-1,2.89,2.89,0,0,1,1.44-.34,2.68,2.68,0,0,1,1.48.41,2.77,2.77,0,0,1,1,1.25A5,5,0,0,1,205.79,140.92Zm-2.91-2.9a1.6,1.6,0,0,0-1.21.5,2,2,0,0,0-.48,1.5,2,2,0,0,0,.4,1.3,1.58,1.58,0,0,0,1.25.47,2.07,2.07,0,0,0,1-.23,1.92,1.92,0,0,0,.66-.6,1.37,1.37,0,0,0,.23-.74,2.85,2.85,0,0,0-.2-1,2,2,0,0,0-.62-.84A1.57,1.57,0,0,0,202.88,138Z"/><path class="cls-9" d="M226,179.42h-1v-6c0-.35,0-.62,0-.83s0-.42,0-.65a4.47,4.47,0,0,1-.35.32l-.39.34-.91.74-.56-.7,2.32-1.8H226Z"/><path class="cls-9" d="M229.25,175.76a9.91,9.91,0,0,1,.16-1.81,4.75,4.75,0,0,1,.59-1.62,3.09,3.09,0,0,1,1.19-1.16,4,4,0,0,1,2-.43,5.53,5.53,0,0,1,.56,0,2.75,2.75,0,0,1,.5.08v.9a3.26,3.26,0,0,0-.49-.1,3.44,3.44,0,0,0-.54,0,3,3,0,0,0-1.38.28,2.13,2.13,0,0,0-.87.75,3.07,3.07,0,0,0-.46,1.11,7.74,7.74,0,0,0-.19,1.33h.08a2.39,2.39,0,0,1,.76-.72,2.51,2.51,0,0,1,1.27-.29,2.47,2.47,0,0,1,1.8.68,2.61,2.61,0,0,1,.68,1.93,2.93,2.93,0,0,1-.74,2.11,2.61,2.61,0,0,1-2,.76,2.76,2.76,0,0,1-1.48-.4,2.85,2.85,0,0,1-1.05-1.25A5.07,5.07,0,0,1,229.25,175.76Zm2.9,2.9a1.66,1.66,0,0,0,1.23-.49,2.11,2.11,0,0,0,.46-1.5,1.9,1.9,0,0,0-.41-1.3,1.54,1.54,0,0,0-1.24-.48,2,2,0,0,0-1,.23,1.83,1.83,0,0,0-.66.6,1.34,1.34,0,0,0-.23.74,2.69,2.69,0,0,0,.2,1,2.08,2.08,0,0,0,.61.84A1.58,1.58,0,0,0,232.15,178.66Z"/><path class="cls-9" d="M195,206.46a1.89,1.89,0,0,1-.48,1.37,2.44,2.44,0,0,1-1.29.68v.05a2.44,2.44,0,0,1,1.52.65,1.9,1.9,0,0,1,.52,1.38,2.54,2.54,0,0,1-.35,1.33,2.33,2.33,0,0,1-1.08.9,4.49,4.49,0,0,1-1.86.33,6.92,6.92,0,0,1-1.25-.11,4,4,0,0,1-1.11-.36v-1a4.52,4.52,0,0,0,1.17.42,5.12,5.12,0,0,0,1.2.15,2.48,2.48,0,0,0,1.66-.45,1.58,1.58,0,0,0,.51-1.25,1.21,1.21,0,0,0-.63-1.15,3.6,3.6,0,0,0-1.77-.36h-.83v-.9h.84a2.55,2.55,0,0,0,1.61-.44,1.46,1.46,0,0,0,.54-1.18,1.16,1.16,0,0,0-.42-1,1.74,1.74,0,0,0-1.14-.34,3.06,3.06,0,0,0-1.19.2,6,6,0,0,0-1,.51l-.53-.71a4.24,4.24,0,0,1,1.14-.63,4.11,4.11,0,0,1,1.54-.26,2.9,2.9,0,0,1,2,.6A2,2,0,0,1,195,206.46Z"/><path class="cls-9" d="M202.22,208.73a8.56,8.56,0,0,1-.28,2.37,3.07,3.07,0,0,1-.92,1.52,2.49,2.49,0,0,1-1.65.53,2.33,2.33,0,0,1-2.14-1.17,6.46,6.46,0,0,1-.69-3.25,8.68,8.68,0,0,1,.28-2.38,3,3,0,0,1,.9-1.5,2.49,2.49,0,0,1,1.65-.53,2.37,2.37,0,0,1,2.15,1.16A6.28,6.28,0,0,1,202.22,208.73Zm-4.63,0a6.79,6.79,0,0,0,.4,2.64,1.52,1.52,0,0,0,2.75,0,6.43,6.43,0,0,0,.42-2.65,6.36,6.36,0,0,0-.42-2.63,1.52,1.52,0,0,0-2.75,0A6.76,6.76,0,0,0,197.59,208.73Z"/><path class="cls-9" d="M195.48,240.06a1.93,1.93,0,0,1-.48,1.38,2.5,2.5,0,0,1-1.29.67v0a2.44,2.44,0,0,1,1.52.65,1.9,1.9,0,0,1,.52,1.38,2.54,2.54,0,0,1-.35,1.33,2.27,2.27,0,0,1-1.08.9,4.49,4.49,0,0,1-1.86.33,6.92,6.92,0,0,1-1.25-.11,4,4,0,0,1-1.11-.36v-1a4.52,4.52,0,0,0,1.17.42,5.12,5.12,0,0,0,1.2.15,2.48,2.48,0,0,0,1.66-.45,1.58,1.58,0,0,0,.51-1.24A1.22,1.22,0,0,0,194,243a3.6,3.6,0,0,0-1.77-.36h-.83v-.9h.84a2.5,2.5,0,0,0,1.6-.44,1.44,1.44,0,0,0,.55-1.18,1.17,1.17,0,0,0-.42-1,1.74,1.74,0,0,0-1.14-.34,3.06,3.06,0,0,0-1.19.2,6.94,6.94,0,0,0-1,.51l-.53-.71a4.24,4.24,0,0,1,1.14-.63,4.11,4.11,0,0,1,1.54-.26,2.9,2.9,0,0,1,2,.6A2,2,0,0,1,195.48,240.06Z"/><path class="cls-9" d="M202.7,242.33a8.68,8.68,0,0,1-.28,2.38,3.08,3.08,0,0,1-.92,1.51,2.49,2.49,0,0,1-1.65.53,2.33,2.33,0,0,1-2.14-1.17,6.46,6.46,0,0,1-.69-3.25,8.68,8.68,0,0,1,.28-2.38,3,3,0,0,1,.9-1.5,2.49,2.49,0,0,1,1.65-.53,2.37,2.37,0,0,1,2.15,1.16A6.28,6.28,0,0,1,202.7,242.33Zm-4.63,0a6.79,6.79,0,0,0,.4,2.64,1.52,1.52,0,0,0,2.75,0,8.51,8.51,0,0,0,0-5.28,1.52,1.52,0,0,0-2.75,0A6.76,6.76,0,0,0,198.07,242.33Z"/><path class="cls-9" d="M210.45,280.22h-5.67v-.87l2.24-2.27c.43-.43.79-.82,1.09-1.15a4.29,4.29,0,0,0,.68-1,2.46,2.46,0,0,0,.23-1.06,1.36,1.36,0,0,0-.42-1.08,1.64,1.64,0,0,0-1.1-.36,2.67,2.67,0,0,0-1.1.21,5.76,5.76,0,0,0-1,.6l-.56-.71a4.93,4.93,0,0,1,1.16-.71,3.43,3.43,0,0,1,1.46-.29,2.75,2.75,0,0,1,1.9.61,2.12,2.12,0,0,1,.7,1.67,3,3,0,0,1-.28,1.26,5,5,0,0,1-.77,1.16,15.6,15.6,0,0,1-1.15,1.21l-1.79,1.77v0h4.34Z"/><path class="cls-9" d="M217.69,278.28h-1.25v1.94h-1v-1.94h-4.1v-.9l4-5.77h1.09v5.72h1.25Zm-2.27-.95v-2.7c0-.41,0-.77,0-1.06s0-.57,0-.83h0l-.24.49a4.91,4.91,0,0,1-.28.44l-2.57,3.66Z"/><path class="cls-9" d="M219.81,313.82h-5.67V313l2.24-2.27c.43-.43.79-.82,1.09-1.15a4.29,4.29,0,0,0,.68-1,2.46,2.46,0,0,0,.23-1.06,1.36,1.36,0,0,0-.42-1.08,1.64,1.64,0,0,0-1.1-.36,2.67,2.67,0,0,0-1.1.21,5.76,5.76,0,0,0-1,.6l-.56-.71a4.93,4.93,0,0,1,1.16-.71,3.43,3.43,0,0,1,1.46-.29,2.75,2.75,0,0,1,1.9.61,2.12,2.12,0,0,1,.7,1.67,3,3,0,0,1-.28,1.26,5,5,0,0,1-.77,1.16c-.33.38-.71.79-1.15,1.21l-1.79,1.77v0h4.34Z"/><path class="cls-9" d="M226.71,309.53a8.52,8.52,0,0,1-.29,2.37,3.12,3.12,0,0,1-.92,1.52,2.49,2.49,0,0,1-1.65.52,2.31,2.31,0,0,1-2.14-1.17,6.39,6.39,0,0,1-.69-3.24,8.68,8.68,0,0,1,.28-2.38,3,3,0,0,1,.9-1.5,2.49,2.49,0,0,1,1.65-.53,2.37,2.37,0,0,1,2.15,1.16A6.27,6.27,0,0,1,226.71,309.53Zm-4.64,0a6.82,6.82,0,0,0,.4,2.64,1.52,1.52,0,0,0,2.75,0,8.48,8.48,0,0,0,0-5.27,1.51,1.51,0,0,0-2.75,0A6.73,6.73,0,0,0,222.07,309.53Z"/><path class="cls-9" d="M214.05,347h-5.67v-.88l2.24-2.27c.43-.43.79-.81,1.09-1.15a4.24,4.24,0,0,0,.68-1,2.5,2.5,0,0,0,.23-1.07,1.36,1.36,0,0,0-.42-1.08,1.64,1.64,0,0,0-1.1-.36,2.67,2.67,0,0,0-1.1.21,5.76,5.76,0,0,0-1,.6l-.56-.7a5,5,0,0,1,1.16-.72,3.59,3.59,0,0,1,1.46-.29,2.75,2.75,0,0,1,1.9.61,2.12,2.12,0,0,1,.7,1.67,3,3,0,0,1-.28,1.26,5,5,0,0,1-.77,1.16,14,14,0,0,1-1.15,1.21l-1.79,1.77V346h4.34Z"/><path class="cls-9" d="M220.91,347h-5.66v-.88l2.24-2.27c.42-.43.78-.81,1.08-1.15a4,4,0,0,0,.68-1,2.5,2.5,0,0,0,.23-1.07,1.36,1.36,0,0,0-.42-1.08,1.61,1.61,0,0,0-1.09-.36,2.71,2.71,0,0,0-1.11.21,5.76,5.76,0,0,0-1,.6l-.56-.7a5.17,5.17,0,0,1,1.16-.72,3.64,3.64,0,0,1,1.47-.29,2.74,2.74,0,0,1,1.89.61,2.09,2.09,0,0,1,.7,1.67,3,3,0,0,1-.27,1.26,5.69,5.69,0,0,1-.77,1.16,16,16,0,0,1-1.16,1.21l-1.78,1.77V346h4.33Z"/><path class="cls-9" d="M233.67,380.54h-1v-6c0-.35,0-.62,0-.83s0-.43,0-.65c-.13.13-.24.24-.35.33s-.24.2-.39.33l-.91.75-.56-.71,2.32-1.8h.88Z"/><path class="cls-9" d="M242.19,374a1.91,1.91,0,0,1-.49,1.37,2.31,2.31,0,0,1-1.29.68v.05a2.47,2.47,0,0,1,1.53.65,1.9,1.9,0,0,1,.51,1.38,2.54,2.54,0,0,1-.35,1.33,2.29,2.29,0,0,1-1.07.9,4.57,4.57,0,0,1-1.87.33,7,7,0,0,1-1.25-.11,3.94,3.94,0,0,1-1.1-.36v-1a4.59,4.59,0,0,0,1.16.42,5.18,5.18,0,0,0,1.2.15,2.51,2.51,0,0,0,1.67-.45,1.58,1.58,0,0,0,.51-1.25,1.21,1.21,0,0,0-.63-1.15,3.6,3.6,0,0,0-1.77-.36h-.83v-.9H239a2.46,2.46,0,0,0,1.6-.44,1.47,1.47,0,0,0,.55-1.18,1.16,1.16,0,0,0-.42-1,1.74,1.74,0,0,0-1.14-.34,3,3,0,0,0-1.19.2,6,6,0,0,0-1,.51l-.53-.71a4.17,4.17,0,0,1,1.13-.63,4.36,4.36,0,0,1,1.54-.26,2.86,2.86,0,0,1,2,.6A2,2,0,0,1,242.19,374Z"/><path class="cls-9" d="M239.18,414.14h-1v-6c0-.35,0-.62,0-.83s0-.43,0-.65a3.19,3.19,0,0,1-.35.32l-.39.34-.92.74-.55-.7,2.32-1.8h.87Z"/><path class="cls-9" d="M248.07,409.85a8.52,8.52,0,0,1-.29,2.37,3.12,3.12,0,0,1-.92,1.52,2.49,2.49,0,0,1-1.65.52,2.29,2.29,0,0,1-2.14-1.17,6.39,6.39,0,0,1-.69-3.24,8.68,8.68,0,0,1,.28-2.38,2.93,2.93,0,0,1,.91-1.5,2.45,2.45,0,0,1,1.64-.53,2.37,2.37,0,0,1,2.15,1.16A6.29,6.29,0,0,1,248.07,409.85Zm-4.64,0a6.82,6.82,0,0,0,.4,2.64,1.52,1.52,0,0,0,2.75,0,8.48,8.48,0,0,0,0-5.27,1.51,1.51,0,0,0-2.75,0A6.73,6.73,0,0,0,243.43,409.85Z"/><path class="cls-9" d="M248.2,442.84a11.09,11.09,0,0,1-.16,1.82,5.14,5.14,0,0,1-.59,1.62,3.16,3.16,0,0,1-1.2,1.15,4,4,0,0,1-2,.44,4,4,0,0,1-.56,0,2.11,2.11,0,0,1-.52-.08v-.91a3.15,3.15,0,0,0,1.06.16,3.08,3.08,0,0,0,1.38-.27,2.29,2.29,0,0,0,.87-.75,3.08,3.08,0,0,0,.47-1.11,7,7,0,0,0,.17-1.33h-.07a2.4,2.4,0,0,1-.77.71,2.51,2.51,0,0,1-1.27.29,2.37,2.37,0,0,1-1.78-.68,2.55,2.55,0,0,1-.68-1.91,3.38,3.38,0,0,1,.33-1.55,2.35,2.35,0,0,1,1-1,3,3,0,0,1,2.92.06,2.77,2.77,0,0,1,1,1.25A5,5,0,0,1,248.2,442.84ZM245.29,440a1.59,1.59,0,0,0-1.21.49,2.06,2.06,0,0,0-.48,1.5,2,2,0,0,0,.4,1.3,1.53,1.53,0,0,0,1.25.47,2.07,2.07,0,0,0,1-.23,1.92,1.92,0,0,0,.66-.6,1.34,1.34,0,0,0,.23-.74,2.66,2.66,0,0,0-.21-1,2.05,2.05,0,0,0-.61-.84A1.56,1.56,0,0,0,245.29,440Z"/><path class="cls-9" d="M191.4,474.78a1.91,1.91,0,0,1-.48,1.37,2.37,2.37,0,0,1-1.29.68v.05a2.47,2.47,0,0,1,1.53.65,1.9,1.9,0,0,1,.51,1.38,2.54,2.54,0,0,1-.35,1.33,2.33,2.33,0,0,1-1.08.9,4.5,4.5,0,0,1-1.86.32,7,7,0,0,1-1.25-.1A4.3,4.3,0,0,1,186,481v-1a4.45,4.45,0,0,0,1.16.42,5.18,5.18,0,0,0,1.2.15,2.48,2.48,0,0,0,1.66-.45,1.58,1.58,0,0,0,.51-1.25,1.21,1.21,0,0,0-.63-1.15,3.6,3.6,0,0,0-1.77-.36h-.83v-.9h.84a2.49,2.49,0,0,0,1.61-.44,1.46,1.46,0,0,0,.54-1.18,1.16,1.16,0,0,0-.42-1,1.74,1.74,0,0,0-1.14-.35,3.05,3.05,0,0,0-1.19.21,6.47,6.47,0,0,0-1,.51l-.53-.72a4.7,4.7,0,0,1,1.14-.62,4.32,4.32,0,0,1,1.54-.26,2.88,2.88,0,0,1,2,.6A2,2,0,0,1,191.4,474.78Z"/><path class="cls-9" d="M198.59,481.34h-5.66v-.87l2.24-2.27c.42-.43.79-.82,1.08-1.15a4,4,0,0,0,.68-1,2.43,2.43,0,0,0,.23-1.06,1.36,1.36,0,0,0-.42-1.08,1.61,1.61,0,0,0-1.09-.36,2.75,2.75,0,0,0-1.11.21,5.76,5.76,0,0,0-1,.6l-.56-.7a4.83,4.83,0,0,1,1.16-.72,3.48,3.48,0,0,1,1.47-.29,2.74,2.74,0,0,1,1.89.61,2.09,2.09,0,0,1,.7,1.67,3,3,0,0,1-.27,1.26,5.69,5.69,0,0,1-.77,1.16,16,16,0,0,1-1.16,1.21l-1.78,1.77v0h4.33Z"/><path class="cls-9" d="M190.2,72.06a1.93,1.93,0,0,1-.48,1.38,2.5,2.5,0,0,1-1.29.67v0a2.49,2.49,0,0,1,1.53.65,1.94,1.94,0,0,1,.51,1.38,2.54,2.54,0,0,1-.35,1.33,2.27,2.27,0,0,1-1.08.9,4.49,4.49,0,0,1-1.86.33,6.92,6.92,0,0,1-1.25-.11,3.84,3.84,0,0,1-1.1-.36v-1a4.45,4.45,0,0,0,1.16.42,5.18,5.18,0,0,0,1.2.15,2.48,2.48,0,0,0,1.66-.45,1.58,1.58,0,0,0,.51-1.24,1.22,1.22,0,0,0-.63-1.16,3.6,3.6,0,0,0-1.77-.36h-.83v-.9H187a2.55,2.55,0,0,0,1.61-.44,1.46,1.46,0,0,0,.54-1.18,1.17,1.17,0,0,0-.42-1,1.74,1.74,0,0,0-1.14-.34,3.06,3.06,0,0,0-1.19.2,6.94,6.94,0,0,0-1,.51l-.53-.71A4.4,4.4,0,0,1,186,70.2a4.11,4.11,0,0,1,1.54-.26,2.9,2.9,0,0,1,2,.6A2,2,0,0,1,190.2,72.06Z"/><path class="cls-9" d="M197.39,78.62h-5.66v-.87L194,75.48c.42-.43.78-.81,1.08-1.15a4.24,4.24,0,0,0,.68-1,2.54,2.54,0,0,0,.23-1.07,1.37,1.37,0,0,0-.42-1.08,1.61,1.61,0,0,0-1.09-.36,2.71,2.71,0,0,0-1.11.21,5.76,5.76,0,0,0-1,.6l-.56-.71a5.53,5.53,0,0,1,1.16-.71,3.64,3.64,0,0,1,1.47-.29,2.74,2.74,0,0,1,1.89.61,2.09,2.09,0,0,1,.7,1.67,3,3,0,0,1-.27,1.26,5.69,5.69,0,0,1-.77,1.16c-.33.38-.72.79-1.16,1.21l-1.78,1.77v0h4.33Z"/><path class="cls-9" d="M227,515h-1v-6c0-.35,0-.62,0-.83s0-.42,0-.65l-.35.33c-.11.08-.24.2-.39.33l-.91.75-.56-.71,2.32-1.8H227Z"/><path class="cls-9" d="M230.21,511.29a9.94,9.94,0,0,1,.16-1.82,4.75,4.75,0,0,1,.59-1.62,3.09,3.09,0,0,1,1.19-1.16,4,4,0,0,1,2-.43l.56,0a2.66,2.66,0,0,1,.5.09v.9a2.35,2.35,0,0,0-.49-.11,3.44,3.44,0,0,0-.54,0,3,3,0,0,0-1.38.28,2.13,2.13,0,0,0-.87.75,3.07,3.07,0,0,0-.46,1.11,7.74,7.74,0,0,0-.19,1.33h.08a2.26,2.26,0,0,1,.76-.71,2.41,2.41,0,0,1,1.27-.3,2.47,2.47,0,0,1,1.8.68,2.61,2.61,0,0,1,.68,1.93,2.93,2.93,0,0,1-.74,2.11,2.63,2.63,0,0,1-2,.77,2.76,2.76,0,0,1-1.47-.41,2.79,2.79,0,0,1-1.05-1.25A5,5,0,0,1,230.21,511.29Zm2.9,2.89a1.62,1.62,0,0,0,1.23-.49,2.09,2.09,0,0,0,.46-1.5,1.9,1.9,0,0,0-.41-1.3,1.54,1.54,0,0,0-1.24-.48,2,2,0,0,0-1,.23,1.83,1.83,0,0,0-.66.6,1.34,1.34,0,0,0-.23.74,2.66,2.66,0,0,0,.2,1,2.08,2.08,0,0,0,.61.84A1.58,1.58,0,0,0,233.11,514.18Z"/><path class="cls-9" d="M217.41,548.54h-5.67v-.87L214,545.4c.43-.43.79-.82,1.09-1.15a4.29,4.29,0,0,0,.68-1,2.43,2.43,0,0,0,.23-1.06,1.36,1.36,0,0,0-.42-1.08,1.64,1.64,0,0,0-1.1-.36,2.67,2.67,0,0,0-1.1.21,5.76,5.76,0,0,0-1,.6l-.56-.7a4.64,4.64,0,0,1,1.16-.72,3.59,3.59,0,0,1,1.46-.29,2.75,2.75,0,0,1,1.9.61,2.12,2.12,0,0,1,.7,1.67,3,3,0,0,1-.28,1.26,5,5,0,0,1-.77,1.16,14,14,0,0,1-1.15,1.21l-1.79,1.77v0h4.34Z"/><path class="cls-9" d="M222.29,548.54h-1v-6c0-.35,0-.62,0-.83l0-.65a3.46,3.46,0,0,1-.35.33c-.11.08-.24.2-.39.33l-.91.75-.55-.71,2.31-1.8h.88Z"/><path class="cls-9" d="M233.91,582.14h-1v-6c0-.35,0-.62,0-.83s0-.43,0-.65a3.19,3.19,0,0,1-.35.32l-.39.34-.91.74-.56-.7,2.32-1.8h.88Z"/><path class="cls-9" d="M242.43,575.58a1.91,1.91,0,0,1-.49,1.37,2.37,2.37,0,0,1-1.29.68v0a2.47,2.47,0,0,1,1.53.65,1.9,1.9,0,0,1,.51,1.38,2.54,2.54,0,0,1-.35,1.33,2.35,2.35,0,0,1-1.07.9,4.58,4.58,0,0,1-1.87.32,7,7,0,0,1-1.25-.1,4.3,4.3,0,0,1-1.1-.36v-1a4.59,4.59,0,0,0,1.16.42,5.18,5.18,0,0,0,1.2.15,2.51,2.51,0,0,0,1.67-.45,1.58,1.58,0,0,0,.51-1.25,1.21,1.21,0,0,0-.63-1.15,3.6,3.6,0,0,0-1.77-.36h-.83v-.9h.84a2.52,2.52,0,0,0,1.6-.44,1.47,1.47,0,0,0,.55-1.18,1.16,1.16,0,0,0-.42-1,1.74,1.74,0,0,0-1.14-.35,3,3,0,0,0-1.19.21,6,6,0,0,0-1,.51l-.53-.72a4.45,4.45,0,0,1,1.13-.62,4.15,4.15,0,0,1,1.54-.26,2.86,2.86,0,0,1,2,.6A2,2,0,0,1,242.43,575.58Z"/><path class="cls-9" d="M260.83,609.18a1.91,1.91,0,0,1-.48,1.37,2.37,2.37,0,0,1-1.29.68v0a2.47,2.47,0,0,1,1.53.65,1.9,1.9,0,0,1,.51,1.38,2.54,2.54,0,0,1-.35,1.33,2.21,2.21,0,0,1-1.08.9,4.49,4.49,0,0,1-1.86.33,7,7,0,0,1-1.25-.11,3.94,3.94,0,0,1-1.1-.36v-1a4.59,4.59,0,0,0,1.16.42,5.18,5.18,0,0,0,1.2.15,2.48,2.48,0,0,0,1.66-.45,1.58,1.58,0,0,0,.51-1.24,1.22,1.22,0,0,0-.63-1.16,3.6,3.6,0,0,0-1.77-.36h-.83v-.9h.85a2.48,2.48,0,0,0,1.6-.44,1.46,1.46,0,0,0,.54-1.18,1.16,1.16,0,0,0-.42-1,1.74,1.74,0,0,0-1.14-.34,3.06,3.06,0,0,0-1.19.2,6.55,6.55,0,0,0-1,.52l-.53-.72a4.71,4.71,0,0,1,1.14-.63,4.36,4.36,0,0,1,1.54-.26,2.88,2.88,0,0,1,2,.6A2,2,0,0,1,260.83,609.18Z"/><path class="cls-6" d="M257.59,645.05a8.56,8.56,0,0,1-.28,2.37,3.12,3.12,0,0,1-.92,1.52,2.49,2.49,0,0,1-1.65.52,2.29,2.29,0,0,1-2.14-1.17,6.39,6.39,0,0,1-.69-3.24,8.68,8.68,0,0,1,.28-2.38,3,3,0,0,1,.9-1.5,2.49,2.49,0,0,1,1.65-.53,2.37,2.37,0,0,1,2.15,1.16A6.3,6.3,0,0,1,257.59,645.05Zm-4.63,0a6.82,6.82,0,0,0,.4,2.64,1.52,1.52,0,0,0,2.75,0,8.48,8.48,0,0,0,0-5.27,1.51,1.51,0,0,0-2.75,0A6.73,6.73,0,0,0,253,645.05Z"/><path class="cls-9" d="M330.45,112.22h-5.67v-.87l2.25-2.27c.42-.43.78-.82,1.08-1.15a4.29,4.29,0,0,0,.68-1,2.46,2.46,0,0,0,.23-1.06,1.36,1.36,0,0,0-.42-1.08,1.64,1.64,0,0,0-1.1-.36,2.67,2.67,0,0,0-1.1.21,5.76,5.76,0,0,0-1,.6l-.56-.71a4.93,4.93,0,0,1,1.16-.71,3.43,3.43,0,0,1,1.46-.29,2.76,2.76,0,0,1,1.9.61,2.09,2.09,0,0,1,.7,1.67,3,3,0,0,1-.28,1.26,5,5,0,0,1-.77,1.16c-.33.38-.71.79-1.15,1.21l-1.79,1.77v0h4.34Z"/><path class="cls-9" d="M334.49,103.54a3.07,3.07,0,0,1,1.85.52,1.95,1.95,0,0,1,.49,2.43,2.35,2.35,0,0,1-.59.68,5.6,5.6,0,0,1-.81.52,7.37,7.37,0,0,1,1,.57,2.85,2.85,0,0,1,.69.74,1.88,1.88,0,0,1,.25,1,2.09,2.09,0,0,1-.76,1.71,3.15,3.15,0,0,1-2,.63,3.3,3.3,0,0,1-2.13-.6,2.3,2.3,0,0,1-.5-2.71,2.38,2.38,0,0,1,.66-.75,4.31,4.31,0,0,1,.87-.53,3.8,3.8,0,0,1-1.06-.87,2,2,0,0,1-.44-1.3,1.79,1.79,0,0,1,.34-1.11,2.13,2.13,0,0,1,.91-.69A3.4,3.4,0,0,1,334.49,103.54Zm-1.8,6.51a1.38,1.38,0,0,0,.44,1,2.44,2.44,0,0,0,2.71,0,1.36,1.36,0,0,0,.46-1.07,1.28,1.28,0,0,0-.49-1,4.59,4.59,0,0,0-1.31-.73l-.19-.07a3.72,3.72,0,0,0-1.21.78A1.54,1.54,0,0,0,332.69,110.05Zm1.79-5.66a1.7,1.7,0,0,0-1.09.32,1.06,1.06,0,0,0-.42.91,1.28,1.28,0,0,0,.21.75,1.67,1.67,0,0,0,.57.51,8.29,8.29,0,0,0,.79.4,4.14,4.14,0,0,0,1-.64,1.27,1.27,0,0,0,.42-1,1.06,1.06,0,0,0-.42-.91A1.74,1.74,0,0,0,334.48,104.39Z"/><path class="cls-9" d="M300.14,145.82h-1v-6c0-.35,0-.62,0-.83s0-.43,0-.65a3.19,3.19,0,0,1-.35.32l-.39.34-.92.74-.55-.7,2.32-1.8h.87Z"/><path class="cls-9" d="M303.41,142.16a9.91,9.91,0,0,1,.16-1.81,5,5,0,0,1,.59-1.62,3.09,3.09,0,0,1,1.19-1.16,4,4,0,0,1,2-.43,5.53,5.53,0,0,1,.56,0,2.75,2.75,0,0,1,.5.08v.9a3,3,0,0,0-.49-.1,3.44,3.44,0,0,0-.54,0,3,3,0,0,0-1.38.28,2.13,2.13,0,0,0-.87.75,3.07,3.07,0,0,0-.46,1.11,7.74,7.74,0,0,0-.19,1.33h.08a2.39,2.39,0,0,1,.76-.72,2.51,2.51,0,0,1,1.27-.29,2.47,2.47,0,0,1,1.8.68,2.6,2.6,0,0,1,.68,1.92,2.94,2.94,0,0,1-.74,2.12,2.61,2.61,0,0,1-2,.76,2.76,2.76,0,0,1-1.48-.4,2.85,2.85,0,0,1-1.05-1.25A5.07,5.07,0,0,1,303.41,142.16Zm2.9,2.9a1.66,1.66,0,0,0,1.23-.49,2.12,2.12,0,0,0,.46-1.51,1.89,1.89,0,0,0-.41-1.29,1.54,1.54,0,0,0-1.24-.48,2,2,0,0,0-1,.23,1.83,1.83,0,0,0-.66.6,1.34,1.34,0,0,0-.23.74,2.69,2.69,0,0,0,.2,1,2.08,2.08,0,0,0,.61.84A1.58,1.58,0,0,0,306.31,145.06Z"/><path class="cls-9" d="M305.67,179.42h-1v-6c0-.35,0-.62,0-.83s0-.42,0-.65a3.19,3.19,0,0,1-.35.32l-.39.34-.91.74-.56-.7,2.32-1.8h.88Z"/><path class="cls-9" d="M311.69,170.74a3.07,3.07,0,0,1,1.85.52,1.79,1.79,0,0,1,.72,1.53,1.87,1.87,0,0,1-.22.9,2.56,2.56,0,0,1-.6.68,5.6,5.6,0,0,1-.81.52,7.37,7.37,0,0,1,1,.57,2.85,2.85,0,0,1,.69.74,1.88,1.88,0,0,1,.25,1,2.13,2.13,0,0,1-.76,1.72,3.2,3.2,0,0,1-2,.62,3.3,3.3,0,0,1-2.13-.6,2.3,2.3,0,0,1-.5-2.71,2.62,2.62,0,0,1,.66-.75,4.31,4.31,0,0,1,.87-.53,3.8,3.8,0,0,1-1.06-.87,2,2,0,0,1-.44-1.3,1.85,1.85,0,0,1,.34-1.11,2.13,2.13,0,0,1,.91-.69A3.4,3.4,0,0,1,311.69,170.74Zm-1.8,6.51a1.38,1.38,0,0,0,.44,1,2.44,2.44,0,0,0,2.71,0,1.36,1.36,0,0,0,.46-1.07,1.28,1.28,0,0,0-.49-1,4.46,4.46,0,0,0-1.31-.73l-.19-.07a3.72,3.72,0,0,0-1.21.78A1.54,1.54,0,0,0,309.89,177.25Zm1.79-5.66a1.7,1.7,0,0,0-1.09.32,1.06,1.06,0,0,0-.42.91,1.28,1.28,0,0,0,.21.75,1.77,1.77,0,0,0,.57.51,8.29,8.29,0,0,0,.79.4,4.14,4.14,0,0,0,1.05-.64,1.27,1.27,0,0,0,.42-1,1.06,1.06,0,0,0-.42-.91A1.74,1.74,0,0,0,311.68,171.59Z"/><path class="cls-9" d="M330.21,213h-5.67v-.87l2.25-2.27c.42-.43.78-.82,1.08-1.15a4.47,4.47,0,0,0,.68-1,2.54,2.54,0,0,0,.23-1.07,1.37,1.37,0,0,0-.42-1.08,1.64,1.64,0,0,0-1.1-.36,2.67,2.67,0,0,0-1.1.21,5.76,5.76,0,0,0-1,.6l-.56-.71a5.07,5.07,0,0,1,1.15-.71,3.67,3.67,0,0,1,1.47-.29,2.76,2.76,0,0,1,1.9.61,2.12,2.12,0,0,1,.7,1.67,3,3,0,0,1-.28,1.26,5,5,0,0,1-.77,1.16c-.33.38-.71.79-1.15,1.21L325.87,212v0h4.34Z"/><path class="cls-9" d="M334.25,204.34a3.07,3.07,0,0,1,1.85.52,1.8,1.8,0,0,1,.72,1.53,1.77,1.77,0,0,1-.23.9,2.35,2.35,0,0,1-.59.68,5.6,5.6,0,0,1-.81.52,8.69,8.69,0,0,1,1,.57,2.65,2.65,0,0,1,.68.74,1.8,1.8,0,0,1,.26,1,2.13,2.13,0,0,1-.76,1.72,3.15,3.15,0,0,1-2,.63,3.3,3.3,0,0,1-2.13-.61,2.3,2.3,0,0,1-.5-2.71,2.48,2.48,0,0,1,.66-.75,4.31,4.31,0,0,1,.87-.53,4,4,0,0,1-1.07-.87,2,2,0,0,1-.43-1.3,1.79,1.79,0,0,1,.34-1.11,2.13,2.13,0,0,1,.91-.69A3.4,3.4,0,0,1,334.25,204.34Zm-1.8,6.51a1.38,1.38,0,0,0,.44,1,2.44,2.44,0,0,0,2.71,0,1.36,1.36,0,0,0,.46-1.07,1.28,1.28,0,0,0-.49-1,4.59,4.59,0,0,0-1.31-.73l-.19-.07a3.72,3.72,0,0,0-1.21.78A1.54,1.54,0,0,0,332.45,210.85Zm1.79-5.66a1.68,1.68,0,0,0-1.09.32,1.06,1.06,0,0,0-.42.91,1.21,1.21,0,0,0,.21.75,1.73,1.73,0,0,0,.56.51c.25.14.51.27.8.4a4.14,4.14,0,0,0,1.05-.64,1.27,1.27,0,0,0,.42-1,1.06,1.06,0,0,0-.42-.91A1.74,1.74,0,0,0,334.24,205.19Z"/><path class="cls-9" d="M306.14,246.62h-1v-6c0-.35,0-.62,0-.83s0-.42,0-.65a3.19,3.19,0,0,1-.35.32l-.39.34-.92.74-.55-.7,2.32-1.8h.87Z"/><path class="cls-9" d="M315,241.72a11.09,11.09,0,0,1-.16,1.82,5,5,0,0,1-.59,1.61,3.11,3.11,0,0,1-1.2,1.16,4,4,0,0,1-2,.44c-.16,0-.34,0-.56,0a2,2,0,0,1-.52-.09v-.89a3.53,3.53,0,0,0,1.06.15,3,3,0,0,0,1.39-.28,2.26,2.26,0,0,0,.87-.75,3.12,3.12,0,0,0,.46-1.1,6.28,6.28,0,0,0,.17-1.33h-.07a2.3,2.3,0,0,1-.77.71,2.51,2.51,0,0,1-1.27.29,2.4,2.4,0,0,1-1.78-.68,2.59,2.59,0,0,1-.68-1.91,3.38,3.38,0,0,1,.33-1.55,2.41,2.41,0,0,1,1-1,3,3,0,0,1,2.92.06,2.85,2.85,0,0,1,1.05,1.25A5.19,5.19,0,0,1,315,241.72Zm-2.91-2.89a1.59,1.59,0,0,0-1.21.49,2.08,2.08,0,0,0-.48,1.5,2,2,0,0,0,.4,1.3,1.54,1.54,0,0,0,1.25.47,2,2,0,0,0,1-.23,2,2,0,0,0,.66-.59,1.43,1.43,0,0,0,.23-.75,2.85,2.85,0,0,0-.2-1,2.22,2.22,0,0,0-.61-.84A1.61,1.61,0,0,0,312.08,238.83Z"/><path class="cls-9" d="M286,280.22h-1v-6c0-.35,0-.62,0-.83s0-.43,0-.65a4.47,4.47,0,0,1-.35.32l-.39.34-.92.74-.55-.7,2.32-1.8H286Z"/><path class="cls-9" d="M294.87,275.93a8.52,8.52,0,0,1-.29,2.37,3.12,3.12,0,0,1-.92,1.52,2.49,2.49,0,0,1-1.65.52,2.31,2.31,0,0,1-2.14-1.17,6.39,6.39,0,0,1-.69-3.24,8.68,8.68,0,0,1,.28-2.38,2.93,2.93,0,0,1,.91-1.5,2.45,2.45,0,0,1,1.64-.53,2.37,2.37,0,0,1,2.15,1.16A6.27,6.27,0,0,1,294.87,275.93Zm-4.64,0a6.82,6.82,0,0,0,.4,2.64,1.52,1.52,0,0,0,2.75,0,8.48,8.48,0,0,0,0-5.27,1.51,1.51,0,0,0-2.75,0A6.73,6.73,0,0,0,290.23,275.93Z"/><path class="cls-9" d="M293,313.82h-1v-6c0-.35,0-.62,0-.83s0-.43,0-.65a3.19,3.19,0,0,1-.35.32l-.39.34-.91.74-.56-.7,2.32-1.8H293Z"/><path class="cls-9" d="M301.47,307.26a1.91,1.91,0,0,1-.49,1.37,2.37,2.37,0,0,1-1.29.68v.05a2.47,2.47,0,0,1,1.53.65,1.9,1.9,0,0,1,.51,1.38,2.54,2.54,0,0,1-.35,1.33,2.35,2.35,0,0,1-1.07.9,4.58,4.58,0,0,1-1.87.32,7,7,0,0,1-1.25-.1,4.3,4.3,0,0,1-1.1-.36v-1a4.59,4.59,0,0,0,1.16.42,5.18,5.18,0,0,0,1.2.15,2.51,2.51,0,0,0,1.67-.45,1.58,1.58,0,0,0,.51-1.25,1.21,1.21,0,0,0-.63-1.15,3.6,3.6,0,0,0-1.77-.36h-.83V309h.84a2.52,2.52,0,0,0,1.6-.44,1.47,1.47,0,0,0,.55-1.18,1.16,1.16,0,0,0-.42-1,1.74,1.74,0,0,0-1.14-.35,3,3,0,0,0-1.19.21,6,6,0,0,0-1,.51l-.53-.72a4.45,4.45,0,0,1,1.13-.62,4.15,4.15,0,0,1,1.54-.26,2.86,2.86,0,0,1,2,.6A2,2,0,0,1,301.47,307.26Z"/><path class="cls-9" d="M298.22,347h-1v-6c0-.35,0-.62,0-.83s0-.42,0-.65c-.13.13-.24.24-.35.33s-.24.2-.39.33l-.92.75-.55-.71,2.32-1.8h.87Z"/><path class="cls-9" d="M304.13,341.69a3.14,3.14,0,0,1,2.09.66,2.28,2.28,0,0,1,.79,1.86,2.65,2.65,0,0,1-.85,2.09,3.39,3.39,0,0,1-2.36.77,6.07,6.07,0,0,1-1.24-.12,3.4,3.4,0,0,1-1-.35v-1a3.6,3.6,0,0,0,1.05.42,5.1,5.1,0,0,0,1.19.15,2.38,2.38,0,0,0,1.53-.46,1.62,1.62,0,0,0,.58-1.39,1.6,1.6,0,0,0-.52-1.29,2.42,2.42,0,0,0-1.63-.45,5.75,5.75,0,0,0-.77.06c-.28,0-.52.08-.69.12l-.53-.34.32-4h4.3v1H303l-.2,2.48.55-.08A6,6,0,0,1,304.13,341.69Z"/><path class="cls-9" d="M288.76,375.64a11.09,11.09,0,0,1-.16,1.82,5.14,5.14,0,0,1-.59,1.62,3.16,3.16,0,0,1-1.2,1.15,4,4,0,0,1-2,.44,4,4,0,0,1-.56,0,2,2,0,0,1-.52-.09v-.9a3.19,3.19,0,0,0,1.06.16,3.08,3.08,0,0,0,1.38-.27,2.29,2.29,0,0,0,.87-.75,3.08,3.08,0,0,0,.47-1.11,7,7,0,0,0,.17-1.33h-.07a2.4,2.4,0,0,1-.77.71,2.51,2.51,0,0,1-1.27.29,2.37,2.37,0,0,1-1.78-.68,2.55,2.55,0,0,1-.68-1.91,3.38,3.38,0,0,1,.33-1.55,2.41,2.41,0,0,1,1-1,3,3,0,0,1,2.92.06,2.77,2.77,0,0,1,1,1.25A5,5,0,0,1,288.76,375.64Zm-2.91-2.89a1.59,1.59,0,0,0-1.21.49,2.06,2.06,0,0,0-.48,1.5,2,2,0,0,0,.4,1.3,1.54,1.54,0,0,0,1.25.47,2.07,2.07,0,0,0,1-.23,1.92,1.92,0,0,0,.66-.6,1.34,1.34,0,0,0,.23-.74,2.85,2.85,0,0,0-.2-1,2,2,0,0,0-.62-.84A1.56,1.56,0,0,0,285.85,372.75Z"/><path class="cls-9" d="M276.7,410.48a9.91,9.91,0,0,1,.16-1.81,4.75,4.75,0,0,1,.59-1.62,3.09,3.09,0,0,1,1.19-1.16,4,4,0,0,1,2-.43,5.53,5.53,0,0,1,.56,0,2.75,2.75,0,0,1,.5.08v.9a3.26,3.26,0,0,0-.49-.1,3.44,3.44,0,0,0-.54,0,3,3,0,0,0-1.39.28,2.16,2.16,0,0,0-.86.75,3.27,3.27,0,0,0-.47,1.11,8.9,8.9,0,0,0-.18,1.33h.08a2.29,2.29,0,0,1,.76-.72,2.5,2.5,0,0,1,1.26-.29,2.44,2.44,0,0,1,1.8.68,2.56,2.56,0,0,1,.69,1.92,3,3,0,0,1-.74,2.12,2.62,2.62,0,0,1-2,.76,2.75,2.75,0,0,1-1.47-.4,2.85,2.85,0,0,1-1.05-1.25A5.07,5.07,0,0,1,276.7,410.48Zm2.9,2.9a1.66,1.66,0,0,0,1.23-.49,2.12,2.12,0,0,0,.46-1.51,1.89,1.89,0,0,0-.41-1.29,1.55,1.55,0,0,0-1.24-.48,2.07,2.07,0,0,0-1,.23,1.89,1.89,0,0,0-.65.6,1.35,1.35,0,0,0-.24.74,2.71,2.71,0,0,0,.21,1,2.08,2.08,0,0,0,.61.84A1.56,1.56,0,0,0,279.6,413.38Z"/><path class="cls-9" d="M300.38,447.75h-1v-6c0-.35,0-.62,0-.83s0-.43,0-.65c-.13.13-.24.24-.35.33s-.24.2-.39.33l-.91.75-.56-.71,2.32-1.8h.87Z"/><path class="cls-9" d="M303.65,444.08a9.91,9.91,0,0,1,.16-1.81,5,5,0,0,1,.59-1.62,3.09,3.09,0,0,1,1.19-1.16,4,4,0,0,1,2-.43l.56,0a2,2,0,0,1,.5.09v.9a2.21,2.21,0,0,0-.49-.11,3.44,3.44,0,0,0-.54,0,3,3,0,0,0-1.38.28,2.13,2.13,0,0,0-.87.75,3.07,3.07,0,0,0-.46,1.11,6.89,6.89,0,0,0-.18,1.33h.07a2.39,2.39,0,0,1,.76-.72,2.51,2.51,0,0,1,1.27-.29,2.47,2.47,0,0,1,1.8.68,2.61,2.61,0,0,1,.68,1.93,3,3,0,0,1-.74,2.11,2.62,2.62,0,0,1-2,.77,2.67,2.67,0,0,1-2.53-1.66A5.07,5.07,0,0,1,303.65,444.08Zm2.9,2.9a1.62,1.62,0,0,0,1.23-.49,2.09,2.09,0,0,0,.47-1.5,1.9,1.9,0,0,0-.42-1.3,1.54,1.54,0,0,0-1.24-.48,2,2,0,0,0-1,.23,1.92,1.92,0,0,0-.66.6,1.34,1.34,0,0,0-.23.74,2.9,2.9,0,0,0,.2,1,2.08,2.08,0,0,0,.61.84A1.58,1.58,0,0,0,306.55,447Z"/><path class="cls-9" d="M301.83,481.34h-1v-6c0-.35,0-.62,0-.83s0-.43,0-.65c-.13.13-.24.24-.35.33s-.24.2-.39.33l-.91.75-.56-.71,2.32-1.8h.88Z"/><path class="cls-9" d="M306.06,481.34l3.52-7.6H305v-1h5.75v.81l-3.48,7.75Z"/><path class="cls-9" d="M278.62,509.69a3.14,3.14,0,0,1,2.09.66,2.28,2.28,0,0,1,.79,1.86,2.65,2.65,0,0,1-.85,2.09,3.39,3.39,0,0,1-2.36.77A6.24,6.24,0,0,1,277,515a3.44,3.44,0,0,1-1-.35v-1a3.6,3.6,0,0,0,1.05.42,5.1,5.1,0,0,0,1.19.15,2.34,2.34,0,0,0,1.52-.46,1.63,1.63,0,0,0,.59-1.39,1.6,1.6,0,0,0-.52-1.29,2.44,2.44,0,0,0-1.63-.45,5.63,5.63,0,0,0-.77.06q-.44.06-.69.12l-.53-.34.32-4h4.3v1h-3.4l-.2,2.48.55-.08A6,6,0,0,1,278.62,509.69Z"/><path class="cls-9" d="M293.91,548.54h-1v-6c0-.35,0-.62,0-.83s0-.43,0-.65c-.13.13-.24.24-.35.33s-.24.2-.39.33l-.91.75-.56-.71L293,540h.88Z"/><path class="cls-9" d="M302.43,542a1.91,1.91,0,0,1-.49,1.37,2.31,2.31,0,0,1-1.29.68v.05a2.47,2.47,0,0,1,1.53.65,1.9,1.9,0,0,1,.51,1.38,2.54,2.54,0,0,1-.35,1.33,2.29,2.29,0,0,1-1.07.9,4.57,4.57,0,0,1-1.87.33,7,7,0,0,1-1.25-.11,3.94,3.94,0,0,1-1.1-.36v-1a4.59,4.59,0,0,0,1.16.42,5.18,5.18,0,0,0,1.2.15,2.51,2.51,0,0,0,1.67-.45,1.58,1.58,0,0,0,.51-1.25,1.21,1.21,0,0,0-.63-1.15,3.6,3.6,0,0,0-1.77-.36h-.83v-.9h.84a2.46,2.46,0,0,0,1.6-.44,1.47,1.47,0,0,0,.55-1.18,1.16,1.16,0,0,0-.42-1,1.74,1.74,0,0,0-1.14-.34,3,3,0,0,0-1.19.2,6,6,0,0,0-1,.51l-.53-.71a4.17,4.17,0,0,1,1.13-.63,4.36,4.36,0,0,1,1.54-.26,2.86,2.86,0,0,1,2,.6A2,2,0,0,1,302.43,542Z"/><path class="cls-9" d="M277.42,576.89a3.14,3.14,0,0,1,2.09.66,2.28,2.28,0,0,1,.79,1.86,2.65,2.65,0,0,1-.85,2.09,3.38,3.38,0,0,1-2.36.76,6.24,6.24,0,0,1-1.25-.12,3.45,3.45,0,0,1-1-.34v-1a3.6,3.6,0,0,0,1.05.41,5,5,0,0,0,1.19.15,2.39,2.39,0,0,0,1.52-.45,1.9,1.9,0,0,0,.07-2.68,2.44,2.44,0,0,0-1.63-.45,5.63,5.63,0,0,0-.77.06q-.44.06-.69.12l-.53-.34.32-4h4.3v1h-3.4l-.2,2.48.55-.08A4.6,4.6,0,0,1,277.42,576.89Z"/><path class="cls-6" d="M283.25,615.75h-1v-6c0-.35,0-.62,0-.83s0-.43,0-.65q-.19.19-.36.33c-.11.08-.24.2-.39.33l-.91.75-.55-.71,2.31-1.8h.88Z"/><path class="cls-6" d="M281,645.05a8.52,8.52,0,0,1-.29,2.37,3.12,3.12,0,0,1-.92,1.52,2.49,2.49,0,0,1-1.65.52,2.29,2.29,0,0,1-2.14-1.17,6.39,6.39,0,0,1-.69-3.24,8.68,8.68,0,0,1,.28-2.38,2.93,2.93,0,0,1,.91-1.5,2.45,2.45,0,0,1,1.64-.53,2.37,2.37,0,0,1,2.15,1.16A6.29,6.29,0,0,1,281,645.05Zm-4.64,0a6.82,6.82,0,0,0,.4,2.64,1.52,1.52,0,0,0,2.75,0,8.48,8.48,0,0,0,0-5.27,1.51,1.51,0,0,0-2.75,0A6.73,6.73,0,0,0,276.31,645.05Z"/><path class="cls-9" d="M326.12,78.62h-5.66v-.87l2.25-2.27c.42-.43.78-.81,1.08-1.15a4.24,4.24,0,0,0,.68-1,2.54,2.54,0,0,0,.23-1.07,1.37,1.37,0,0,0-.42-1.08,1.64,1.64,0,0,0-1.1-.36,2.67,2.67,0,0,0-1.1.21,5.76,5.76,0,0,0-1,.6l-.56-.71a5.45,5.45,0,0,1,1.15-.71,3.67,3.67,0,0,1,1.47-.29,2.76,2.76,0,0,1,1.9.61,2.12,2.12,0,0,1,.7,1.67,3,3,0,0,1-.28,1.26,5,5,0,0,1-.77,1.16c-.33.38-.71.79-1.15,1.21l-1.79,1.77v0h4.33Z"/><path class="cls-9" d="M327.41,75a9.91,9.91,0,0,1,.16-1.81,5,5,0,0,1,.59-1.62,3.09,3.09,0,0,1,1.19-1.16,4,4,0,0,1,2-.43,5.53,5.53,0,0,1,.56,0,2.75,2.75,0,0,1,.5.08v.9a3,3,0,0,0-.49-.1,3.44,3.44,0,0,0-.54,0,3,3,0,0,0-1.38.28,2.13,2.13,0,0,0-.87.75,3.07,3.07,0,0,0-.46,1.11,7.74,7.74,0,0,0-.19,1.33h.08a2.26,2.26,0,0,1,.76-.71,2.41,2.41,0,0,1,1.27-.3,2.47,2.47,0,0,1,1.8.68,2.61,2.61,0,0,1,.68,1.93,2.93,2.93,0,0,1-.74,2.11,2.62,2.62,0,0,1-2,.77,2.77,2.77,0,0,1-1.48-.41,2.85,2.85,0,0,1-1.05-1.25A5.07,5.07,0,0,1,327.41,75Zm2.9,2.9a1.66,1.66,0,0,0,1.23-.49,2.11,2.11,0,0,0,.46-1.5,1.9,1.9,0,0,0-.41-1.3,1.54,1.54,0,0,0-1.24-.48,2,2,0,0,0-1,.23,1.83,1.83,0,0,0-.66.6,1.34,1.34,0,0,0-.23.74,2.69,2.69,0,0,0,.2,1,2.08,2.08,0,0,0,.61.84A1.58,1.58,0,0,0,330.31,77.86Z"/><path class="cls-9" d="M152.75,43.08H151.5V45h-1V43.08h-4.1v-.9l4-5.77h1.09v5.72h1.25Zm-2.27-.95v-2.7c0-.41,0-.77,0-1.06s0-.57,0-.83h0a4.35,4.35,0,0,1-.24.49,3.86,3.86,0,0,1-.27.44l-2.57,3.66Z"/><path class="cls-9" d="M159.23,40.12a11.09,11.09,0,0,1-.16,1.82,5,5,0,0,1-.59,1.61,3.18,3.18,0,0,1-1.2,1.16,4,4,0,0,1-2,.44c-.16,0-.35,0-.56,0a2.62,2.62,0,0,1-.52-.09v-.9a3.19,3.19,0,0,0,1.06.16,3,3,0,0,0,1.38-.28,2.13,2.13,0,0,0,.87-.75,3,3,0,0,0,.47-1.1,7,7,0,0,0,.17-1.33h-.07a2.4,2.4,0,0,1-.77.71,2.51,2.51,0,0,1-1.27.29,2.4,2.4,0,0,1-1.78-.68,2.55,2.55,0,0,1-.68-1.91,3.38,3.38,0,0,1,.33-1.55,2.41,2.41,0,0,1,1-1,3,3,0,0,1,2.92.06,2.77,2.77,0,0,1,1,1.25A5,5,0,0,1,159.23,40.12Zm-2.91-2.89a1.59,1.59,0,0,0-1.21.49,2,2,0,0,0-.48,1.5,2,2,0,0,0,.4,1.3,1.58,1.58,0,0,0,1.25.47,2,2,0,0,0,1-.23,2,2,0,0,0,.66-.59,1.43,1.43,0,0,0,.23-.75,2.85,2.85,0,0,0-.2-1,2.07,2.07,0,0,0-.62-.84A1.56,1.56,0,0,0,156.32,37.23Z"/><path class="cls-9" d="M355.08,38.46a1.85,1.85,0,0,1-.49,1.37,2.37,2.37,0,0,1-1.29.68v.05a2.42,2.42,0,0,1,1.53.65,1.9,1.9,0,0,1,.51,1.38,2.53,2.53,0,0,1-.34,1.33,2.38,2.38,0,0,1-1.08.9,4.49,4.49,0,0,1-1.86.33,6.92,6.92,0,0,1-1.25-.11,3.84,3.84,0,0,1-1.1-.36v-1a4.45,4.45,0,0,0,1.16.42,5.12,5.12,0,0,0,1.2.15,2.48,2.48,0,0,0,1.66-.45,1.58,1.58,0,0,0,.51-1.25,1.21,1.21,0,0,0-.63-1.15,3.6,3.6,0,0,0-1.77-.36H351v-.9h.84a2.55,2.55,0,0,0,1.61-.44,1.46,1.46,0,0,0,.54-1.18,1.16,1.16,0,0,0-.42-1,1.74,1.74,0,0,0-1.14-.34,3.06,3.06,0,0,0-1.19.2,6,6,0,0,0-1,.51l-.53-.71a4.24,4.24,0,0,1,1.14-.63,4.11,4.11,0,0,1,1.54-.26,2.88,2.88,0,0,1,2,.6A2,2,0,0,1,355.08,38.46Z"/><path class="cls-9" d="M362.27,40.12a11.09,11.09,0,0,1-.16,1.82,5,5,0,0,1-.59,1.61,3.11,3.11,0,0,1-1.2,1.16,4,4,0,0,1-2,.44c-.16,0-.34,0-.56,0a2.62,2.62,0,0,1-.52-.09v-.9a3.23,3.23,0,0,0,1.06.16A3,3,0,0,0,359.7,44a2.26,2.26,0,0,0,.87-.75,3.12,3.12,0,0,0,.46-1.1,6.28,6.28,0,0,0,.17-1.33h-.07a2.3,2.3,0,0,1-.77.71,2.51,2.51,0,0,1-1.27.29,2.4,2.4,0,0,1-1.78-.68,2.59,2.59,0,0,1-.68-1.91,3.38,3.38,0,0,1,.33-1.55,2.41,2.41,0,0,1,1-1,2.81,2.81,0,0,1,1.45-.35,2.76,2.76,0,0,1,1.47.41A2.85,2.85,0,0,1,361.89,38,5.19,5.19,0,0,1,362.27,40.12Zm-2.9-2.89a1.6,1.6,0,0,0-1.22.49,2,2,0,0,0-.48,1.5,2,2,0,0,0,.41,1.3,1.54,1.54,0,0,0,1.24.47,2,2,0,0,0,1-.23,2,2,0,0,0,.66-.59,1.43,1.43,0,0,0,.23-.75,2.85,2.85,0,0,0-.2-1,2.15,2.15,0,0,0-.61-.84A1.6,1.6,0,0,0,359.37,37.23Z"/><g class="cls-7"><path class="cls-6" d="M6.06,7.07,8.29,2.86H9.46L6.6,8.1v3.32H5.52V8.15L2.67,2.86H3.84Z"/><path class="cls-6" d="M12.36,4.87a2.72,2.72,0,0,1,1.42.36,2.32,2.32,0,0,1,.91,1A3.32,3.32,0,0,1,15,7.78v.63h-4.4a2.37,2.37,0,0,0,.56,1.66,1.9,1.9,0,0,0,1.49.58,4.49,4.49,0,0,0,1.09-.12,6.28,6.28,0,0,0,1-.33v.92a4.31,4.31,0,0,1-1,.32,5.43,5.43,0,0,1-1.14.1A3.4,3.4,0,0,1,11,11.17a2.61,2.61,0,0,1-1.08-1.1,3.82,3.82,0,0,1-.39-1.81,4.22,4.22,0,0,1,.35-1.82,2.64,2.64,0,0,1,2.49-1.57Zm0,.87a1.55,1.55,0,0,0-1.2.48,2.36,2.36,0,0,0-.52,1.35h3.28a2.25,2.25,0,0,0-.39-1.32A1.34,1.34,0,0,0,12.35,5.74Z"/><path class="cls-6" d="M19.08,4.88a2.55,2.55,0,0,1,1.74.52A2.1,2.1,0,0,1,21.38,7v4.38h-.76l-.21-.91h0a3.16,3.16,0,0,1-.89.78,2.68,2.68,0,0,1-1.27.25,2.26,2.26,0,0,1-1.46-.46,1.75,1.75,0,0,1-.57-1.44,1.72,1.72,0,0,1,.75-1.49,4.56,4.56,0,0,1,2.33-.57l1.09,0V7.17A1.43,1.43,0,0,0,20,6.05a1.41,1.41,0,0,0-1-.31,3.06,3.06,0,0,0-1,.15,6.55,6.55,0,0,0-.85.34l-.33-.79a4.85,4.85,0,0,1,1-.39A4.4,4.4,0,0,1,19.08,4.88Zm1.26,3.4-.95,0a3.22,3.22,0,0,0-1.66.38,1.09,1.09,0,0,0-.46,1,.93.93,0,0,0,.33.79,1.33,1.33,0,0,0,.84.25,2,2,0,0,0,1.35-.45,1.67,1.67,0,0,0,.55-1.38Z"/><path class="cls-6" d="M26.38,4.87l.38,0,.37.05-.13,1a1.7,1.7,0,0,0-.35-.06l-.34,0a1.73,1.73,0,0,0-.93.27,1.89,1.89,0,0,0-.69.76A2.39,2.39,0,0,0,24.43,8v3.43H23.38V5h.86l.12,1.18h.05a3,3,0,0,1,.8-.91A1.83,1.83,0,0,1,26.38,4.87Z"/></g></svg>