<svg id="Layer_1" data-name="Layer 1" xmlns="http://www.w3.org/2000/svg" xmlns:xlink="http://www.w3.org/1999/xlink" viewBox="0 0 450 705"><defs><style>.cls-1{fill:none;}.cls-2{fill:#006ba6;}.cls-3{fill:#33aba6;}.cls-4{fill:#434c50;}.cls-5{clip-path:url(#clip-path);}.cls-6{fill:#1d1d1b;}</style><clipPath id="clip-path"><rect class="cls-1" width="450" height="702"/></clipPath></defs><rect x="38.66" y="24.68" width="0.48" height="671.04"/><rect x="38.9" y="678.71" width="9.94" height="0.48"/><rect x="38.9" y="645.16" width="9.94" height="0.48"/><rect x="38.9" y="611.6" width="9.94" height="0.48"/><rect x="38.9" y="578.05" width="9.94" height="0.48"/><rect x="38.9" y="544.5" width="9.94" height="0.48"/><rect x="38.9" y="510.95" width="9.94" height="0.48"/><rect x="38.9" y="477.4" width="9.94" height="0.48"/><rect x="38.9" y="443.84" width="9.94" height="0.48"/><rect x="38.9" y="410.29" width="9.94" height="0.48"/><rect x="38.9" y="376.74" width="9.94" height="0.48"/><rect x="38.9" y="343.19" width="9.94" height="0.48"/><rect x="38.9" y="309.64" width="9.94" height="0.48"/><rect x="38.9" y="276.08" width="9.94" height="0.48"/><rect x="38.9" y="242.53" width="9.94" height="0.48"/><rect x="38.9" y="208.98" width="9.94" height="0.48"/><rect x="38.9" y="175.43" width="9.94" height="0.48"/><rect x="38.9" y="141.88" width="9.94" height="0.48"/><rect x="38.9" y="108.32" width="9.94" height="0.48"/><rect x="38.9" y="74.77" width="9.94" height="0.48"/><rect x="38.9" y="41.22" width="9.94" height="0.48"/><rect class="cls-2" x="38.9" y="31.87" width="378.28" height="19.17"/><rect class="cls-3" x="38.9" y="65.43" width="303.77" height="19.17"/><rect class="cls-3" x="38.9" y="98.98" width="310.86" height="19.17"/><rect class="cls-3" x="38.9" y="132.53" width="306.28" height="19.17"/><rect class="cls-3" x="38.9" y="166.08" width="272.99" height="19.17"/><rect class="cls-3" x="38.9" y="199.63" width="240.8" height="19.17"/><rect class="cls-3" x="38.9" y="233.19" width="264.68" height="19.17"/><rect class="cls-3" x="38.9" y="266.74" width="222.05" height="19.17"/><rect class="cls-3" x="38.9" y="300.29" width="213.92" height="19.17"/><rect class="cls-3" x="38.9" y="333.84" width="196.51" height="19.17"/><rect class="cls-3" x="38.9" y="367.39" width="191.54" height="19.17"/><rect class="cls-3" x="38.9" y="400.95" width="184.74" height="19.17"/><rect class="cls-3" x="38.9" y="434.5" width="129.45" height="19.17"/><rect class="cls-3" x="38.9" y="468.05" width="183.81" height="19.17"/><rect class="cls-3" x="38.9" y="501.6" width="162.84" height="19.17"/><rect class="cls-3" x="38.9" y="535.15" width="128.17" height="19.17"/><rect class="cls-3" x="38.9" y="568.71" width="102.79" height="19.17"/><rect class="cls-3" x="38.9" y="602.26" width="89.46" height="19.17"/><rect class="cls-3" x="38.9" y="635.81" width="60.23" height="19.17"/><rect class="cls-3" x="38.9" y="669.36" width="76.3" height="19.17"/><path class="cls-4" d="M12.36,113.22h-1v-6c0-.35,0-.62,0-.83s0-.43,0-.65a3.2,3.2,0,0,1-.36.32l-.38.34-.92.74-.55-.7,2.32-1.8h.87Z"/><path class="cls-4" d="M21.21,108.32a9.91,9.91,0,0,1-.17,1.81,4.74,4.74,0,0,1-.58,1.62,3.18,3.18,0,0,1-1.2,1.16,4,4,0,0,1-2,.43l-.56,0a2.62,2.62,0,0,1-.52-.09v-.9a3.15,3.15,0,0,0,1.06.16,3,3,0,0,0,1.38-.28,2.13,2.13,0,0,0,.87-.75,3,3,0,0,0,.47-1.1,7,7,0,0,0,.17-1.33h-.07a2.4,2.4,0,0,1-.77.71A2.51,2.51,0,0,1,18,110a2.44,2.44,0,0,1-1.79-.68,2.59,2.59,0,0,1-.67-1.91,3.38,3.38,0,0,1,.33-1.55,2.43,2.43,0,0,1,1-1,2.89,2.89,0,0,1,1.44-.34,2.68,2.68,0,0,1,1.48.41,2.77,2.77,0,0,1,1,1.25A5,5,0,0,1,21.21,108.32Zm-2.91-2.9a1.64,1.64,0,0,0-1.22.5,2.09,2.09,0,0,0-.47,1.5,1.94,1.94,0,0,0,.4,1.3,1.56,1.56,0,0,0,1.24.47,2.08,2.08,0,0,0,1-.23,1.8,1.8,0,0,0,.65-.6,1.3,1.3,0,0,0,.24-.74,2.66,2.66,0,0,0-.21-1,2,2,0,0,0-.61-.84A1.57,1.57,0,0,0,18.3,105.42Z"/><path class="cls-4" d="M12.36,146.82h-1v-6c0-.35,0-.62,0-.83s0-.43,0-.65a3.2,3.2,0,0,1-.36.32l-.38.34-.92.74-.55-.7,2.32-1.8h.87Z"/><path class="cls-4" d="M18.39,138.14a3,3,0,0,1,1.84.52,1.79,1.79,0,0,1,.72,1.53,1.77,1.77,0,0,1-.22.9,2.51,2.51,0,0,1-.59.68,5.2,5.2,0,0,1-.82.52,7.37,7.37,0,0,1,1,.57,2.54,2.54,0,0,1,.69.74,1.88,1.88,0,0,1,.26,1,2.1,2.1,0,0,1-.77,1.71,3.11,3.11,0,0,1-2,.63,3.3,3.3,0,0,1-2.13-.6,2.27,2.27,0,0,1-.49-2.71,2.24,2.24,0,0,1,.65-.75,4.68,4.68,0,0,1,.88-.53,4,4,0,0,1-1.07-.87,1.94,1.94,0,0,1-.43-1.3,1.79,1.79,0,0,1,.34-1.11,2.07,2.07,0,0,1,.91-.69A3.36,3.36,0,0,1,18.39,138.14Zm-1.8,6.51a1.35,1.35,0,0,0,.44,1,1.94,1.94,0,0,0,1.37.41,1.94,1.94,0,0,0,1.34-.41,1.4,1.4,0,0,0,.46-1.07,1.31,1.31,0,0,0-.49-1,4.59,4.59,0,0,0-1.31-.73l-.19-.07a3.72,3.72,0,0,0-1.21.78A1.49,1.49,0,0,0,16.59,144.65ZM18.38,139a1.73,1.73,0,0,0-1.1.32,1.06,1.06,0,0,0-.42.91,1.28,1.28,0,0,0,.21.75,1.77,1.77,0,0,0,.57.51c.24.14.51.27.79.4a3.82,3.82,0,0,0,1.05-.64,1.25,1.25,0,0,0,.43-1,1.06,1.06,0,0,0-.42-.91A1.74,1.74,0,0,0,18.38,139Z"/><path class="cls-4" d="M12.36,180.42h-1v-6c0-.35,0-.62,0-.83s0-.42,0-.65a3.2,3.2,0,0,1-.36.32l-.38.34-.92.74-.55-.7,2.32-1.8h.87Z"/><path class="cls-4" d="M16.6,180.42l3.51-7.6H15.49v-1h5.75v.81l-3.48,7.75Z"/><path class="cls-4" d="M12.36,214h-1v-6c0-.35,0-.62,0-.83s0-.42,0-.65a3.2,3.2,0,0,1-.36.32l-.38.34-.92.74-.55-.7,2.32-1.8h.87Z"/><path class="cls-4" d="M15.63,210.36a9.91,9.91,0,0,1,.16-1.81,4.75,4.75,0,0,1,.59-1.62,3.09,3.09,0,0,1,1.19-1.16,4,4,0,0,1,2-.43c.17,0,.35,0,.56,0a2.75,2.75,0,0,1,.5.08v.9a3.15,3.15,0,0,0-.5-.1,3.27,3.27,0,0,0-.54,0,3,3,0,0,0-1.38.28,2.26,2.26,0,0,0-.87.75,3.46,3.46,0,0,0-.46,1.11,8.9,8.9,0,0,0-.18,1.33h.07a2.3,2.3,0,0,1,.77-.71,2.4,2.4,0,0,1,1.26-.3,2.44,2.44,0,0,1,1.8.68,2.57,2.57,0,0,1,.69,1.93,2.93,2.93,0,0,1-.74,2.11,2.64,2.64,0,0,1-2,.77,2.76,2.76,0,0,1-1.47-.41A2.85,2.85,0,0,1,16,212.49,5.07,5.07,0,0,1,15.63,210.36Zm2.9,2.9a1.63,1.63,0,0,0,1.22-.49,2.06,2.06,0,0,0,.47-1.5,2,2,0,0,0-.41-1.3,1.55,1.55,0,0,0-1.24-.48,2.07,2.07,0,0,0-1,.23,1.8,1.8,0,0,0-.65.6,1.35,1.35,0,0,0-.24.74,2.71,2.71,0,0,0,.21,1,2,2,0,0,0,.61.84A1.56,1.56,0,0,0,18.53,213.26Z"/><path class="cls-4" d="M12.36,247.62h-1v-6c0-.35,0-.62,0-.83s0-.42,0-.65a3.2,3.2,0,0,1-.36.32l-.38.34-.92.74-.55-.7,2.32-1.8h.87Z"/><path class="cls-4" d="M18.27,242.37a3.14,3.14,0,0,1,2.09.66,2.31,2.31,0,0,1,.79,1.86A2.67,2.67,0,0,1,20.3,247a3.39,3.39,0,0,1-2.36.77,5.51,5.51,0,0,1-1.25-.13,3.45,3.45,0,0,1-1-.34v-1a3.34,3.34,0,0,0,1,.41,5.06,5.06,0,0,0,1.18.16,2.46,2.46,0,0,0,1.53-.45,1.66,1.66,0,0,0,.59-1.4,1.64,1.64,0,0,0-.52-1.29,2.44,2.44,0,0,0-1.63-.45,5.63,5.63,0,0,0-.77.06l-.7.12-.52-.34.32-4h4.3v1h-3.4L17,242.5l.55-.08A6,6,0,0,1,18.27,242.37Z"/><path class="cls-4" d="M12.36,281.22h-1v-6c0-.35,0-.62,0-.83s0-.43,0-.65a3.2,3.2,0,0,1-.36.32l-.38.34-.92.74-.55-.7,2.32-1.8h.87Z"/><path class="cls-4" d="M21.59,279.28H20.34v1.94h-1v-1.94h-4.1v-.9l4-5.77h1.09v5.72h1.25Zm-2.27-.95v-2.7c0-.41,0-.77,0-1.06s0-.57,0-.83h-.05a4.35,4.35,0,0,1-.24.49,3.39,3.39,0,0,1-.27.44l-2.57,3.66Z"/><path class="cls-4" d="M12.36,314.82h-1v-6c0-.35,0-.62,0-.83s0-.43,0-.65a3.2,3.2,0,0,1-.36.32l-.38.34-.92.74-.55-.7,2.32-1.8h.87Z"/><path class="cls-4" d="M20.88,308.26a1.91,1.91,0,0,1-.48,1.37,2.44,2.44,0,0,1-1.29.68v.05a2.47,2.47,0,0,1,1.53.65,1.9,1.9,0,0,1,.51,1.38,2.54,2.54,0,0,1-.35,1.33,2.33,2.33,0,0,1-1.08.9,4.5,4.5,0,0,1-1.86.32,7,7,0,0,1-1.25-.1,4.3,4.3,0,0,1-1.1-.36v-1a4.45,4.45,0,0,0,1.16.42,5.18,5.18,0,0,0,1.2.15,2.48,2.48,0,0,0,1.66-.45,1.58,1.58,0,0,0,.51-1.25,1.21,1.21,0,0,0-.63-1.15,3.6,3.6,0,0,0-1.77-.36h-.83V310h.84a2.55,2.55,0,0,0,1.61-.44,1.46,1.46,0,0,0,.54-1.18,1.16,1.16,0,0,0-.42-1,1.74,1.74,0,0,0-1.14-.35,3.05,3.05,0,0,0-1.19.21,6.47,6.47,0,0,0-1,.51l-.53-.72a4.7,4.7,0,0,1,1.14-.62,4.11,4.11,0,0,1,1.54-.26,2.88,2.88,0,0,1,2,.6A2,2,0,0,1,20.88,308.26Z"/><path class="cls-4" d="M12.36,348.42h-1v-6c0-.35,0-.62,0-.83s0-.42,0-.65a3.2,3.2,0,0,1-.36.32l-.38.34-.92.74-.55-.7,2.32-1.8h.87Z"/><path class="cls-4" d="M21.21,348.42H15.54v-.87l2.25-2.27c.42-.43.78-.82,1.08-1.15a4.47,4.47,0,0,0,.68-1,2.54,2.54,0,0,0,.23-1.07,1.36,1.36,0,0,0-.42-1.08,1.63,1.63,0,0,0-1.09-.36,2.68,2.68,0,0,0-1.11.21,5.76,5.76,0,0,0-1,.6l-.56-.71A4.93,4.93,0,0,1,16.8,340a3.45,3.45,0,0,1,1.47-.29,2.74,2.74,0,0,1,1.89.61,2.09,2.09,0,0,1,.7,1.67,2.9,2.9,0,0,1-.28,1.26,5,5,0,0,1-.77,1.16,15.6,15.6,0,0,1-1.15,1.21l-1.78,1.77v0h4.33Z"/><path class="cls-4" d="M12.36,382h-1v-6c0-.35,0-.62,0-.83s0-.43,0-.65a3.2,3.2,0,0,1-.36.32l-.38.34-.92.74-.55-.7,2.32-1.8h.87Z"/><path class="cls-4" d="M19.23,382h-1v-6c0-.35,0-.62,0-.83s0-.43,0-.65a3.19,3.19,0,0,1-.35.32l-.39.34-.91.74-.56-.7,2.32-1.8h.88Z"/><path class="cls-4" d="M12.36,415.62h-1v-6c0-.35,0-.62,0-.83s0-.43,0-.65q-.2.19-.36.33l-.38.33-.92.75-.55-.71,2.32-1.8h.87Z"/><path class="cls-4" d="M21.24,411.33a8.28,8.28,0,0,1-.29,2.38,3,3,0,0,1-.91,1.51,2.49,2.49,0,0,1-1.65.53,2.32,2.32,0,0,1-2.15-1.17,6.46,6.46,0,0,1-.69-3.25,8.65,8.65,0,0,1,.29-2.38,2.92,2.92,0,0,1,.9-1.5,2.49,2.49,0,0,1,1.65-.53,2.34,2.34,0,0,1,2.14,1.16A6.2,6.2,0,0,1,21.24,411.33Zm-4.63,0A6.64,6.64,0,0,0,17,414a1.52,1.52,0,0,0,2.75,0,8.67,8.67,0,0,0,0-5.27,1.52,1.52,0,0,0-2.75,0A6.58,6.58,0,0,0,16.61,411.33Z"/><path class="cls-4" d="M14.38,444.93a8.52,8.52,0,0,1-.29,2.37,3,3,0,0,1-.92,1.52,2.49,2.49,0,0,1-1.65.52,2.3,2.3,0,0,1-2.14-1.17,6.39,6.39,0,0,1-.69-3.24A9.09,9.09,0,0,1,9,442.55a2.93,2.93,0,0,1,.91-1.5,2.45,2.45,0,0,1,1.64-.53,2.36,2.36,0,0,1,2.15,1.16A6.29,6.29,0,0,1,14.38,444.93Zm-4.63,0a6.64,6.64,0,0,0,.4,2.64,1.41,1.41,0,0,0,1.37.87,1.43,1.43,0,0,0,1.38-.87,8.67,8.67,0,0,0,0-5.27,1.44,1.44,0,0,0-1.38-.88,1.41,1.41,0,0,0-1.37.88A6.55,6.55,0,0,0,9.75,444.93Z"/><path class="cls-4" d="M21.21,444.32a9.91,9.91,0,0,1-.17,1.81,4.74,4.74,0,0,1-.58,1.62,3.18,3.18,0,0,1-1.2,1.16,4,4,0,0,1-2,.43l-.56,0a2.62,2.62,0,0,1-.52-.09v-.9a3.15,3.15,0,0,0,1.06.16,3.08,3.08,0,0,0,1.38-.27,2.29,2.29,0,0,0,.87-.75,3.08,3.08,0,0,0,.47-1.11,7,7,0,0,0,.17-1.33h-.07a2.4,2.4,0,0,1-.77.71A2.51,2.51,0,0,1,18,446a2.44,2.44,0,0,1-1.79-.68,2.59,2.59,0,0,1-.67-1.91,3.38,3.38,0,0,1,.33-1.55,2.43,2.43,0,0,1,1-1,2.89,2.89,0,0,1,1.44-.34,2.68,2.68,0,0,1,1.48.41,2.77,2.77,0,0,1,1,1.25A5,5,0,0,1,21.21,444.32Zm-2.91-2.9a1.64,1.64,0,0,0-1.22.5,2.11,2.11,0,0,0-.47,1.5,1.94,1.94,0,0,0,.4,1.3,1.52,1.52,0,0,0,1.24.47,2.08,2.08,0,0,0,1-.23,1.8,1.8,0,0,0,.65-.6,1.3,1.3,0,0,0,.24-.74,2.66,2.66,0,0,0-.21-1,2,2,0,0,0-.61-.84A1.57,1.57,0,0,0,18.3,441.42Z"/><path class="cls-4" d="M14.38,478.53a8.65,8.65,0,0,1-.29,2.38,3,3,0,0,1-.92,1.51,2.49,2.49,0,0,1-1.65.53,2.32,2.32,0,0,1-2.14-1.17,6.44,6.44,0,0,1-.69-3.25A9.09,9.09,0,0,1,9,476.15a3,3,0,0,1,.91-1.5,2.45,2.45,0,0,1,1.64-.53,2.36,2.36,0,0,1,2.15,1.16A6.29,6.29,0,0,1,14.38,478.53Zm-4.63,0a6.6,6.6,0,0,0,.4,2.64,1.41,1.41,0,0,0,1.37.87,1.43,1.43,0,0,0,1.38-.87,8.67,8.67,0,0,0,0-5.27,1.43,1.43,0,0,0-1.38-.87,1.41,1.41,0,0,0-1.37.87A6.58,6.58,0,0,0,9.75,478.53Z"/><path class="cls-4" d="M18.39,474.14a3,3,0,0,1,1.84.53,2,2,0,0,1,.5,2.42,2.37,2.37,0,0,1-.59.68,5.2,5.2,0,0,1-.82.52,6.43,6.43,0,0,1,1,.58,2.39,2.39,0,0,1,.69.73,1.9,1.9,0,0,1,.26,1,2.1,2.1,0,0,1-.77,1.71,3.11,3.11,0,0,1-2,.63,3.3,3.3,0,0,1-2.13-.61,2.27,2.27,0,0,1-.49-2.71,2.24,2.24,0,0,1,.65-.75,4.68,4.68,0,0,1,.88-.53,4,4,0,0,1-1.07-.87,1.92,1.92,0,0,1-.43-1.3,1.81,1.81,0,0,1,.34-1.11,2.07,2.07,0,0,1,.91-.69A3.36,3.36,0,0,1,18.39,474.14Zm-1.8,6.51a1.33,1.33,0,0,0,.44,1,1.94,1.94,0,0,0,1.37.42,1.94,1.94,0,0,0,1.34-.42,1.38,1.38,0,0,0,.46-1.07,1.33,1.33,0,0,0-.49-1,4.59,4.59,0,0,0-1.31-.73l-.19-.07a3.72,3.72,0,0,0-1.21.78A1.49,1.49,0,0,0,16.59,480.65ZM18.38,475a1.79,1.79,0,0,0-1.1.32,1.08,1.08,0,0,0-.42.92,1.27,1.27,0,0,0,.21.74,1.77,1.77,0,0,0,.57.51c.24.14.51.27.79.4a3.8,3.8,0,0,0,1.05-.63,1.27,1.27,0,0,0,.43-1,1.08,1.08,0,0,0-.42-.92A1.81,1.81,0,0,0,18.38,475Z"/><path class="cls-4" d="M14.38,512.13a8.52,8.52,0,0,1-.29,2.37,3,3,0,0,1-.92,1.52,2.49,2.49,0,0,1-1.65.52,2.31,2.31,0,0,1-2.14-1.16,6.46,6.46,0,0,1-.69-3.25A9.09,9.09,0,0,1,9,509.75a2.93,2.93,0,0,1,.91-1.5,2.45,2.45,0,0,1,1.64-.53,2.36,2.36,0,0,1,2.15,1.16A6.29,6.29,0,0,1,14.38,512.13Zm-4.63,0a6.64,6.64,0,0,0,.4,2.64,1.41,1.41,0,0,0,1.37.87,1.43,1.43,0,0,0,1.38-.87,8.67,8.67,0,0,0,0-5.27,1.44,1.44,0,0,0-1.38-.88,1.41,1.41,0,0,0-1.37.88A6.55,6.55,0,0,0,9.75,512.13Z"/><path class="cls-4" d="M16.6,516.42l3.51-7.6H15.49v-1h5.75v.81l-3.48,7.75Z"/><path class="cls-4" d="M14.38,545.73a8.52,8.52,0,0,1-.29,2.37,3,3,0,0,1-.92,1.52,2.49,2.49,0,0,1-1.65.52A2.32,2.32,0,0,1,9.38,549a6.39,6.39,0,0,1-.69-3.24A9.09,9.09,0,0,1,9,543.35a2.93,2.93,0,0,1,.91-1.5,2.45,2.45,0,0,1,1.64-.53,2.36,2.36,0,0,1,2.15,1.16A6.27,6.27,0,0,1,14.38,545.73Zm-4.63,0a6.64,6.64,0,0,0,.4,2.64,1.41,1.41,0,0,0,1.37.87,1.43,1.43,0,0,0,1.38-.87,8.67,8.67,0,0,0,0-5.27,1.44,1.44,0,0,0-1.38-.88,1.41,1.41,0,0,0-1.37.88A6.55,6.55,0,0,0,9.75,545.73Z"/><path class="cls-4" d="M15.63,546.36a9.91,9.91,0,0,1,.16-1.81,4.75,4.75,0,0,1,.59-1.62,3.09,3.09,0,0,1,1.19-1.16,4,4,0,0,1,2-.43c.17,0,.35,0,.56,0a2.75,2.75,0,0,1,.5.08v.9a3.15,3.15,0,0,0-.5-.1,3.27,3.27,0,0,0-.54,0,3,3,0,0,0-1.38.28,2.26,2.26,0,0,0-.87.75,3.46,3.46,0,0,0-.46,1.11,8.9,8.9,0,0,0-.18,1.33h.07a2.43,2.43,0,0,1,.77-.72,2.5,2.5,0,0,1,1.26-.29,2.44,2.44,0,0,1,1.8.68,2.56,2.56,0,0,1,.69,1.92,3,3,0,0,1-.74,2.12,2.64,2.64,0,0,1-2,.76,2.75,2.75,0,0,1-1.47-.4A2.85,2.85,0,0,1,16,548.49,5.07,5.07,0,0,1,15.63,546.36Zm2.9,2.9a1.63,1.63,0,0,0,1.22-.49,2.07,2.07,0,0,0,.47-1.51,1.94,1.94,0,0,0-.41-1.29,1.55,1.55,0,0,0-1.24-.48,2.07,2.07,0,0,0-1,.23,1.8,1.8,0,0,0-.65.6,1.35,1.35,0,0,0-.24.74,2.71,2.71,0,0,0,.21,1,2,2,0,0,0,.61.84A1.56,1.56,0,0,0,18.53,549.26Z"/><path class="cls-4" d="M14.38,579.33a8.65,8.65,0,0,1-.29,2.38,3,3,0,0,1-.92,1.51,2.49,2.49,0,0,1-1.65.53,2.32,2.32,0,0,1-2.14-1.17,6.46,6.46,0,0,1-.69-3.25A9.09,9.09,0,0,1,9,577a2.93,2.93,0,0,1,.91-1.5,2.45,2.45,0,0,1,1.64-.53,2.36,2.36,0,0,1,2.15,1.16A6.29,6.29,0,0,1,14.38,579.33Zm-4.63,0a6.64,6.64,0,0,0,.4,2.64,1.41,1.41,0,0,0,1.37.87A1.43,1.43,0,0,0,12.9,582a8.67,8.67,0,0,0,0-5.27,1.43,1.43,0,0,0-1.38-.87,1.41,1.41,0,0,0-1.37.87A6.58,6.58,0,0,0,9.75,579.33Z"/><path class="cls-4" d="M18.27,578.37a3.14,3.14,0,0,1,2.09.66,2.31,2.31,0,0,1,.79,1.86A2.68,2.68,0,0,1,20.3,583a3.39,3.39,0,0,1-2.36.77,5.51,5.51,0,0,1-1.25-.13,3.45,3.45,0,0,1-1-.34v-1a3.9,3.9,0,0,0,1,.42,5.57,5.57,0,0,0,1.18.14,2.34,2.34,0,0,0,1.53-.45,1.9,1.9,0,0,0,.07-2.68,2.44,2.44,0,0,0-1.63-.45,5.63,5.63,0,0,0-.77.06l-.7.12-.52-.34.32-4h4.3v1h-3.4L17,578.5l.55-.08A4.6,4.6,0,0,1,18.27,578.37Z"/><path class="cls-4" d="M14.38,612.93a8.52,8.52,0,0,1-.29,2.37,3,3,0,0,1-.92,1.52,2.49,2.49,0,0,1-1.65.52,2.3,2.3,0,0,1-2.14-1.17,6.39,6.39,0,0,1-.69-3.24A9.09,9.09,0,0,1,9,610.55a2.93,2.93,0,0,1,.91-1.5,2.45,2.45,0,0,1,1.64-.53,2.36,2.36,0,0,1,2.15,1.16A6.29,6.29,0,0,1,14.38,612.93Zm-4.63,0a6.64,6.64,0,0,0,.4,2.64,1.41,1.41,0,0,0,1.37.87,1.43,1.43,0,0,0,1.38-.87,8.67,8.67,0,0,0,0-5.27,1.44,1.44,0,0,0-1.38-.88,1.41,1.41,0,0,0-1.37.88A6.55,6.55,0,0,0,9.75,612.93Z"/><path class="cls-4" d="M21.59,615.28H20.34v1.94h-1v-1.94h-4.1v-.9l4-5.77h1.09v5.72h1.25Zm-2.27-.95v-2.7c0-.41,0-.77,0-1.06s0-.57,0-.83h-.05a4.35,4.35,0,0,1-.24.49,3.39,3.39,0,0,1-.27.44l-2.57,3.66Z"/><path class="cls-4" d="M14.38,646.53a8.65,8.65,0,0,1-.29,2.38,3,3,0,0,1-.92,1.51,2.49,2.49,0,0,1-1.65.53,2.32,2.32,0,0,1-2.14-1.17,6.44,6.44,0,0,1-.69-3.25A9.09,9.09,0,0,1,9,644.15a3,3,0,0,1,.91-1.5,2.45,2.45,0,0,1,1.64-.53,2.36,2.36,0,0,1,2.15,1.16A6.29,6.29,0,0,1,14.38,646.53Zm-4.63,0a6.6,6.6,0,0,0,.4,2.64,1.41,1.41,0,0,0,1.37.87,1.43,1.43,0,0,0,1.38-.87,8.67,8.67,0,0,0,0-5.27,1.43,1.43,0,0,0-1.38-.87,1.41,1.41,0,0,0-1.37.87A6.58,6.58,0,0,0,9.75,646.53Z"/><path class="cls-4" d="M20.88,644.26a1.91,1.91,0,0,1-.48,1.37,2.37,2.37,0,0,1-1.29.68v.05a2.47,2.47,0,0,1,1.53.65,1.9,1.9,0,0,1,.51,1.38,2.54,2.54,0,0,1-.35,1.33,2.21,2.21,0,0,1-1.08.9,4.49,4.49,0,0,1-1.86.33,6.92,6.92,0,0,1-1.25-.11,3.94,3.94,0,0,1-1.1-.36v-1a4.45,4.45,0,0,0,1.16.42,5.18,5.18,0,0,0,1.2.15,2.48,2.48,0,0,0,1.66-.45,1.58,1.58,0,0,0,.51-1.24,1.22,1.22,0,0,0-.63-1.16,3.6,3.6,0,0,0-1.77-.36h-.83V646h.84a2.49,2.49,0,0,0,1.61-.44,1.46,1.46,0,0,0,.54-1.18,1.16,1.16,0,0,0-.42-1,1.74,1.74,0,0,0-1.14-.34,3.06,3.06,0,0,0-1.19.2,6.55,6.55,0,0,0-1,.52l-.53-.72a4.71,4.71,0,0,1,1.14-.63,4.32,4.32,0,0,1,1.54-.26,2.88,2.88,0,0,1,2,.6A2,2,0,0,1,20.88,644.26Z"/><path class="cls-4" d="M14.38,680.13a8.52,8.52,0,0,1-.29,2.37,3,3,0,0,1-.92,1.52,2.49,2.49,0,0,1-1.65.52,2.31,2.31,0,0,1-2.14-1.16,6.46,6.46,0,0,1-.69-3.25A9.09,9.09,0,0,1,9,677.75a2.93,2.93,0,0,1,.91-1.5,2.45,2.45,0,0,1,1.64-.53,2.36,2.36,0,0,1,2.15,1.16A6.29,6.29,0,0,1,14.38,680.13Zm-4.63,0a6.64,6.64,0,0,0,.4,2.64,1.41,1.41,0,0,0,1.37.87,1.43,1.43,0,0,0,1.38-.87,8.67,8.67,0,0,0,0-5.27,1.44,1.44,0,0,0-1.38-.88,1.41,1.41,0,0,0-1.37.88A6.55,6.55,0,0,0,9.75,680.13Z"/><path class="cls-4" d="M21.21,684.42H15.54v-.87l2.25-2.27c.42-.43.78-.82,1.08-1.15a4.29,4.29,0,0,0,.68-1,2.43,2.43,0,0,0,.23-1.06,1.36,1.36,0,0,0-.42-1.08,1.63,1.63,0,0,0-1.09-.36,2.68,2.68,0,0,0-1.11.21,5.76,5.76,0,0,0-1,.6l-.56-.7A4.64,4.64,0,0,1,16.8,676a3.45,3.45,0,0,1,1.47-.29,2.74,2.74,0,0,1,1.89.61,2.09,2.09,0,0,1,.7,1.67,2.9,2.9,0,0,1-.28,1.26,5,5,0,0,1-.77,1.16,14,14,0,0,1-1.15,1.21l-1.78,1.77v0h4.33Z"/><g class="cls-5"><rect class="cls-6" x="38.49" y="3.3" width="0.96" height="699.84"/></g><path class="cls-4" d="M14.34,79.62H8.68v-.87l2.24-2.27c.43-.43.79-.81,1.09-1.15a4.24,4.24,0,0,0,.68-1,2.54,2.54,0,0,0,.23-1.07,1.41,1.41,0,0,0-.42-1.08,1.66,1.66,0,0,0-1.1-.36,2.67,2.67,0,0,0-1.1.21,5.76,5.76,0,0,0-1,.6l-.57-.71a5.8,5.8,0,0,1,1.16-.71,3.67,3.67,0,0,1,1.47-.29,2.78,2.78,0,0,1,1.9.61,2.12,2.12,0,0,1,.7,1.67,3,3,0,0,1-.28,1.26A5.3,5.3,0,0,1,13,75.64c-.33.38-.71.79-1.15,1.21L10,78.62v0h4.33Z"/><path class="cls-4" d="M21.24,75.33A8.28,8.28,0,0,1,21,77.71,3,3,0,0,1,20,79.22a2.49,2.49,0,0,1-1.65.53,2.34,2.34,0,0,1-2.15-1.17,6.46,6.46,0,0,1-.69-3.25A8.65,8.65,0,0,1,15.84,73a2.92,2.92,0,0,1,.9-1.5,2.49,2.49,0,0,1,1.65-.53,2.34,2.34,0,0,1,2.14,1.16A6.17,6.17,0,0,1,21.24,75.33Zm-4.63,0A6.6,6.6,0,0,0,17,78a1.52,1.52,0,0,0,2.75,0,8.7,8.7,0,0,0,0-5.28,1.52,1.52,0,0,0-2.75,0A6.58,6.58,0,0,0,16.61,75.33Z"/><path class="cls-4" d="M14.34,46H8.68v-.87l2.24-2.27c.43-.43.79-.82,1.09-1.15a4.47,4.47,0,0,0,.68-1,2.54,2.54,0,0,0,.23-1.07,1.41,1.41,0,0,0-.42-1.08,1.66,1.66,0,0,0-1.1-.36,2.67,2.67,0,0,0-1.1.21,5.76,5.76,0,0,0-1,.6l-.57-.71a5.37,5.37,0,0,1,1.16-.71,3.67,3.67,0,0,1,1.47-.29,2.78,2.78,0,0,1,1.9.61,2.12,2.12,0,0,1,.7,1.67,3,3,0,0,1-.28,1.26A5.3,5.3,0,0,1,13,42c-.33.38-.71.79-1.15,1.21L10,45v0h4.33Z"/><path class="cls-4" d="M19.23,46h-1V40c0-.35,0-.62,0-.83s0-.42,0-.65a3.19,3.19,0,0,1-.35.32l-.39.34-.91.74-.56-.7,2.32-1.8h.88Z"/><path class="cls-4" d="M365.52,106.66A1.91,1.91,0,0,1,365,108a2.44,2.44,0,0,1-1.29.68v.05a2.47,2.47,0,0,1,1.53.65,1.9,1.9,0,0,1,.51,1.38,2.54,2.54,0,0,1-.35,1.33,2.35,2.35,0,0,1-1.07.9,4.58,4.58,0,0,1-1.87.32,7,7,0,0,1-1.25-.1,4.3,4.3,0,0,1-1.1-.36v-1a4.59,4.59,0,0,0,1.16.42,5.18,5.18,0,0,0,1.2.15,2.48,2.48,0,0,0,1.66-.45,1.58,1.58,0,0,0,.51-1.25,1.21,1.21,0,0,0-.63-1.15,3.6,3.6,0,0,0-1.77-.36h-.82v-.9h.84a2.54,2.54,0,0,0,1.6-.44,1.46,1.46,0,0,0,.54-1.18,1.16,1.16,0,0,0-.42-1,1.74,1.74,0,0,0-1.14-.35,3,3,0,0,0-1.18.21,6.11,6.11,0,0,0-1,.51l-.52-.72a4.45,4.45,0,0,1,1.13-.62,4.15,4.15,0,0,1,1.54-.26,2.88,2.88,0,0,1,2,.6A2,2,0,0,1,365.52,106.66Z"/><path class="cls-4" d="M370.73,113.22h-1v-6c0-.35,0-.62,0-.83s0-.43,0-.65a3.2,3.2,0,0,1-.36.32l-.39.34-.91.74-.55-.7,2.32-1.8h.87Z"/><path class="cls-4" d="M379.25,106.66a1.87,1.87,0,0,1-.49,1.37,2.37,2.37,0,0,1-1.29.68v.05a2.42,2.42,0,0,1,1.53.65,1.9,1.9,0,0,1,.51,1.38,2.53,2.53,0,0,1-.34,1.33,2.38,2.38,0,0,1-1.08.9,4.5,4.5,0,0,1-1.86.32,7,7,0,0,1-1.25-.1,4.17,4.17,0,0,1-1.1-.36v-1a4.45,4.45,0,0,0,1.16.42,5.12,5.12,0,0,0,1.2.15,2.48,2.48,0,0,0,1.66-.45,1.58,1.58,0,0,0,.51-1.25,1.21,1.21,0,0,0-.63-1.15,3.6,3.6,0,0,0-1.77-.36h-.83v-.9H376a2.5,2.5,0,0,0,1.6-.44,1.44,1.44,0,0,0,.55-1.18,1.16,1.16,0,0,0-.42-1,1.74,1.74,0,0,0-1.14-.35,3.05,3.05,0,0,0-1.19.21,6,6,0,0,0-1,.51l-.53-.72a4.52,4.52,0,0,1,1.14-.62,4.11,4.11,0,0,1,1.54-.26,2.88,2.88,0,0,1,2,.6A2,2,0,0,1,379.25,106.66Z"/><path class="cls-4" d="M360.72,140.26a1.91,1.91,0,0,1-.48,1.37,2.44,2.44,0,0,1-1.29.68v.05a2.47,2.47,0,0,1,1.53.65,1.9,1.9,0,0,1,.51,1.38,2.54,2.54,0,0,1-.35,1.33,2.33,2.33,0,0,1-1.08.9,4.5,4.5,0,0,1-1.86.32,7,7,0,0,1-1.25-.1,4.3,4.3,0,0,1-1.1-.36v-1a4.45,4.45,0,0,0,1.16.42,5.18,5.18,0,0,0,1.2.15,2.48,2.48,0,0,0,1.66-.45,1.58,1.58,0,0,0,.51-1.25,1.21,1.21,0,0,0-.63-1.15,3.6,3.6,0,0,0-1.77-.36h-.83V142h.85a2.54,2.54,0,0,0,1.6-.44,1.46,1.46,0,0,0,.54-1.18,1.16,1.16,0,0,0-.42-1,1.74,1.74,0,0,0-1.14-.35,3.05,3.05,0,0,0-1.19.21,6.47,6.47,0,0,0-1,.51l-.53-.72a4.7,4.7,0,0,1,1.14-.62,4.15,4.15,0,0,1,1.54-.26,2.88,2.88,0,0,1,2,.6A2,2,0,0,1,360.72,140.26Z"/><path class="cls-4" d="M368,142.53a8.52,8.52,0,0,1-.29,2.37,3,3,0,0,1-.92,1.52,2.49,2.49,0,0,1-1.65.52,2.31,2.31,0,0,1-2.14-1.17,6.39,6.39,0,0,1-.69-3.24,8.68,8.68,0,0,1,.28-2.38,2.93,2.93,0,0,1,.91-1.5,2.45,2.45,0,0,1,1.64-.53,2.36,2.36,0,0,1,2.15,1.16A6.27,6.27,0,0,1,368,142.53Zm-4.64,0a6.61,6.61,0,0,0,.41,2.64,1.39,1.39,0,0,0,1.37.87,1.41,1.41,0,0,0,1.37-.87,8.48,8.48,0,0,0,0-5.27,1.41,1.41,0,0,0-1.37-.88,1.4,1.4,0,0,0-1.37.88A6.52,6.52,0,0,0,363.31,142.53Z"/><path class="cls-4" d="M372,138.14a3,3,0,0,1,1.85.52,1.79,1.79,0,0,1,.72,1.53,1.77,1.77,0,0,1-.22.9,2.7,2.7,0,0,1-.59.68,5.2,5.2,0,0,1-.82.52,7.37,7.37,0,0,1,1,.57,2.54,2.54,0,0,1,.69.74,1.88,1.88,0,0,1,.26,1,2.1,2.1,0,0,1-.77,1.71,3.11,3.11,0,0,1-2,.63,3.3,3.3,0,0,1-2.13-.6,2.08,2.08,0,0,1-.74-1.7,2,2,0,0,1,.25-1,2.24,2.24,0,0,1,.65-.75,4.38,4.38,0,0,1,.88-.53,3.85,3.85,0,0,1-1.07-.87,1.94,1.94,0,0,1-.43-1.3,1.85,1.85,0,0,1,.33-1.11,2.16,2.16,0,0,1,.92-.69A3.35,3.35,0,0,1,372,138.14Zm-1.8,6.51a1.36,1.36,0,0,0,.45,1,1.92,1.92,0,0,0,1.37.41,1.89,1.89,0,0,0,1.33-.41,1.37,1.37,0,0,0,.47-1.07,1.29,1.29,0,0,0-.5-1,4.4,4.4,0,0,0-1.3-.73l-.2-.07a3.66,3.66,0,0,0-1.2.78A1.5,1.5,0,0,0,370.15,144.65Zm1.79-5.66a1.7,1.7,0,0,0-1.09.32,1.06,1.06,0,0,0-.42.91,1.28,1.28,0,0,0,.21.75,1.77,1.77,0,0,0,.57.51,8.29,8.29,0,0,0,.79.4,3.82,3.82,0,0,0,1.05-.64,1.25,1.25,0,0,0,.43-1,1.06,1.06,0,0,0-.42-.91A1.75,1.75,0,0,0,371.94,139Z"/><path class="cls-4" d="M327.93,180.42h-5.67v-.87l2.25-2.27c.42-.43.78-.82,1.08-1.15a4.47,4.47,0,0,0,.68-1,2.54,2.54,0,0,0,.23-1.07,1.36,1.36,0,0,0-.42-1.08,1.61,1.61,0,0,0-1.09-.36,2.71,2.71,0,0,0-1.11.21,5.76,5.76,0,0,0-1,.6l-.56-.71a5.14,5.14,0,0,1,1.16-.71,3.45,3.45,0,0,1,1.47-.29,2.74,2.74,0,0,1,1.89.61,2.09,2.09,0,0,1,.7,1.67,2.9,2.9,0,0,1-.28,1.26,5.25,5.25,0,0,1-.76,1.16c-.33.38-.72.79-1.16,1.21l-1.78,1.77v0h4.33Z"/><path class="cls-4" d="M330.18,180.42l3.52-7.6h-4.62v-1h5.75v.81l-3.48,7.75Z"/><path class="cls-4" d="M338.71,175.17a3.14,3.14,0,0,1,2.1.66,2.3,2.3,0,0,1,.78,1.86,2.68,2.68,0,0,1-.84,2.09,3.4,3.4,0,0,1-2.36.76,6.17,6.17,0,0,1-1.25-.12,3.34,3.34,0,0,1-1-.34v-1a3.34,3.34,0,0,0,1.05.41,5.06,5.06,0,0,0,1.18.16,2.42,2.42,0,0,0,1.53-.46,1.92,1.92,0,0,0,.07-2.68,2.44,2.44,0,0,0-1.63-.45,5.63,5.63,0,0,0-.77.06l-.7.12-.52-.34.32-4H341v1h-3.4l-.2,2.48.55-.08A5.81,5.81,0,0,1,338.71,175.17Z"/><path class="cls-4" d="M295.77,214H290.1v-.87l2.25-2.27c.42-.43.78-.82,1.08-1.15a4.47,4.47,0,0,0,.68-1,2.54,2.54,0,0,0,.23-1.07,1.37,1.37,0,0,0-.42-1.08,1.61,1.61,0,0,0-1.09-.36,2.71,2.71,0,0,0-1.11.21,5.76,5.76,0,0,0-1,.6l-.56-.71a5.14,5.14,0,0,1,1.16-.71,3.6,3.6,0,0,1,1.47-.29,2.74,2.74,0,0,1,1.89.61,2.09,2.09,0,0,1,.7,1.67,2.9,2.9,0,0,1-.28,1.26,5.25,5.25,0,0,1-.76,1.16c-.33.38-.72.79-1.16,1.21L291.44,213v0h4.33Z"/><path class="cls-4" d="M303,212.08h-1.25V214h-1v-1.94h-4.11v-.9l4-5.77h1.09v5.72H303Zm-2.27-1v-2.7c0-.41,0-.77,0-1.06s0-.57,0-.83h-.05a4.35,4.35,0,0,1-.24.49,3.79,3.79,0,0,1-.28.44l-2.56,3.66Z"/><path class="cls-4" d="M309.5,214h-5.67v-.87l2.25-2.27c.42-.43.78-.82,1.08-1.15a4.47,4.47,0,0,0,.68-1,2.54,2.54,0,0,0,.23-1.07,1.37,1.37,0,0,0-.42-1.08,1.64,1.64,0,0,0-1.1-.36,2.67,2.67,0,0,0-1.1.21,5.76,5.76,0,0,0-1,.6l-.56-.71a5.07,5.07,0,0,1,1.15-.71,3.67,3.67,0,0,1,1.47-.29,2.76,2.76,0,0,1,1.9.61,2.09,2.09,0,0,1,.7,1.67,3,3,0,0,1-.28,1.26,5,5,0,0,1-.77,1.16c-.33.38-.71.79-1.15,1.21L305.16,213v0h4.34Z"/><path class="cls-4" d="M319.29,247.62h-5.67v-.87l2.25-2.27c.42-.43.78-.81,1.08-1.15a4.24,4.24,0,0,0,.68-1,2.54,2.54,0,0,0,.23-1.07,1.37,1.37,0,0,0-.42-1.08,1.63,1.63,0,0,0-1.09-.36,2.68,2.68,0,0,0-1.11.21,5.76,5.76,0,0,0-1,.6l-.56-.71a5.28,5.28,0,0,1,1.16-.71,3.6,3.6,0,0,1,1.47-.29,2.74,2.74,0,0,1,1.89.61,2.09,2.09,0,0,1,.7,1.67,2.87,2.87,0,0,1-.28,1.26,5,5,0,0,1-.77,1.16,15.6,15.6,0,0,1-1.15,1.21L315,246.62v0h4.33Z"/><path class="cls-4" d="M320.57,244a9.91,9.91,0,0,1,.16-1.81,5,5,0,0,1,.59-1.62,3.16,3.16,0,0,1,1.19-1.16,4,4,0,0,1,2-.43,5.43,5.43,0,0,1,.55,0,2.61,2.61,0,0,1,.5.08v.9a3,3,0,0,0-.49-.1,3.27,3.27,0,0,0-.54,0,3,3,0,0,0-1.38.28,2.13,2.13,0,0,0-.87.75,3.25,3.25,0,0,0-.46,1.11,6.89,6.89,0,0,0-.18,1.33h.07a2.21,2.21,0,0,1,.77-.71,2.35,2.35,0,0,1,1.26-.3,2.47,2.47,0,0,1,1.8.68,2.61,2.61,0,0,1,.68,1.93,2.93,2.93,0,0,1-.74,2.11,2.62,2.62,0,0,1-2,.77,2.77,2.77,0,0,1-1.48-.41,2.85,2.85,0,0,1-1.05-1.25A5.07,5.07,0,0,1,320.57,244Zm2.91,2.9a1.63,1.63,0,0,0,1.22-.49,2.11,2.11,0,0,0,.47-1.5,1.9,1.9,0,0,0-.42-1.3,1.54,1.54,0,0,0-1.24-.48,2,2,0,0,0-1,.23,1.92,1.92,0,0,0-.66.6,1.42,1.42,0,0,0-.23.74,2.9,2.9,0,0,0,.2,1,2,2,0,0,0,.62.84A1.56,1.56,0,0,0,323.48,246.86Z"/><path class="cls-4" d="M327.43,244a9.91,9.91,0,0,1,.17-1.81,4.74,4.74,0,0,1,.58-1.62,3.18,3.18,0,0,1,1.2-1.16,4,4,0,0,1,2-.43c.17,0,.35,0,.56,0a2.49,2.49,0,0,1,.49.08v.9a2.81,2.81,0,0,0-.49-.1,3.27,3.27,0,0,0-.54,0,3,3,0,0,0-1.38.28,2.13,2.13,0,0,0-.87.75,3.46,3.46,0,0,0-.46,1.11,6.89,6.89,0,0,0-.18,1.33h.07a2.3,2.3,0,0,1,.77-.71,2.4,2.4,0,0,1,1.26-.3,2.47,2.47,0,0,1,1.8.68,2.57,2.57,0,0,1,.68,1.93,2.93,2.93,0,0,1-.73,2.11,2.66,2.66,0,0,1-2,.77,2.79,2.79,0,0,1-1.48-.41,2.85,2.85,0,0,1-1.05-1.25A5.07,5.07,0,0,1,327.43,244Zm2.91,2.9a1.63,1.63,0,0,0,1.22-.49,2.11,2.11,0,0,0,.47-1.5,2,2,0,0,0-.41-1.3,1.56,1.56,0,0,0-1.25-.48,2.06,2.06,0,0,0-1,.23,1.8,1.8,0,0,0-.65.6,1.35,1.35,0,0,0-.24.74,2.71,2.71,0,0,0,.21,1,2,2,0,0,0,.61.84A1.56,1.56,0,0,0,330.34,246.86Z"/><path class="cls-4" d="M277.05,281.22h-5.67v-.87l2.25-2.27c.42-.43.78-.82,1.08-1.15a4.29,4.29,0,0,0,.68-1,2.46,2.46,0,0,0,.23-1.06,1.36,1.36,0,0,0-.42-1.08,1.63,1.63,0,0,0-1.09-.36,2.68,2.68,0,0,0-1.11.21,5.76,5.76,0,0,0-1,.6l-.56-.71a4.93,4.93,0,0,1,1.16-.71,3.45,3.45,0,0,1,1.47-.29,2.74,2.74,0,0,1,1.89.61,2.09,2.09,0,0,1,.7,1.67,2.9,2.9,0,0,1-.28,1.26,5,5,0,0,1-.77,1.16,15.6,15.6,0,0,1-1.15,1.21l-1.79,1.77v0h4.34Z"/><path class="cls-4" d="M283.91,281.22h-5.66v-.87l2.24-2.27c.43-.43.79-.82,1.09-1.15a4.22,4.22,0,0,0,.67-1,2.32,2.32,0,0,0,.23-1.06,1.36,1.36,0,0,0-.42-1.08,1.61,1.61,0,0,0-1.09-.36,2.67,2.67,0,0,0-1.1.21,5,5,0,0,0-1,.6l-.57-.71a5.14,5.14,0,0,1,1.16-.71,3.51,3.51,0,0,1,1.47-.29,2.78,2.78,0,0,1,1.9.61,2.11,2.11,0,0,1,.69,1.67,3,3,0,0,1-.27,1.26,5.3,5.3,0,0,1-.77,1.16c-.33.38-.71.79-1.15,1.21l-1.79,1.77v0h4.33Z"/><path class="cls-4" d="M290.45,274.66A1.87,1.87,0,0,1,290,276a2.37,2.37,0,0,1-1.29.68v.05a2.47,2.47,0,0,1,1.53.65,1.9,1.9,0,0,1,.51,1.38,2.53,2.53,0,0,1-.34,1.33,2.38,2.38,0,0,1-1.08.9,4.5,4.5,0,0,1-1.86.32,7,7,0,0,1-1.25-.1,4.37,4.37,0,0,1-1.11-.36v-1a4.52,4.52,0,0,0,1.17.42,5.06,5.06,0,0,0,1.2.15,2.48,2.48,0,0,0,1.66-.45,1.58,1.58,0,0,0,.51-1.25,1.21,1.21,0,0,0-.63-1.15,3.6,3.6,0,0,0-1.77-.36h-.83v-.9h.84a2.5,2.5,0,0,0,1.6-.44,1.44,1.44,0,0,0,.55-1.18,1.16,1.16,0,0,0-.42-1,1.74,1.74,0,0,0-1.14-.35,3.05,3.05,0,0,0-1.19.21,6,6,0,0,0-1,.51l-.53-.72a4.52,4.52,0,0,1,1.14-.62,4.11,4.11,0,0,1,1.54-.26,2.9,2.9,0,0,1,2,.6A2,2,0,0,1,290.45,274.66Z"/><path class="cls-4" d="M268.89,314.82h-5.67V314l2.25-2.27c.42-.43.78-.82,1.08-1.15a4.29,4.29,0,0,0,.68-1,2.46,2.46,0,0,0,.23-1.06,1.36,1.36,0,0,0-.42-1.08A1.61,1.61,0,0,0,266,307a2.71,2.71,0,0,0-1.11.21,5.76,5.76,0,0,0-1,.6l-.56-.71a5.14,5.14,0,0,1,1.16-.71,3.45,3.45,0,0,1,1.47-.29,2.74,2.74,0,0,1,1.89.61,2.09,2.09,0,0,1,.7,1.67,2.9,2.9,0,0,1-.28,1.26,5.25,5.25,0,0,1-.76,1.16c-.33.38-.72.79-1.16,1.21l-1.78,1.77v0h4.33Z"/><path class="cls-4" d="M273.77,314.82h-1v-6c0-.35,0-.62,0-.83s0-.43,0-.65a3.2,3.2,0,0,1-.36.32L272,308l-.91.74-.55-.7,2.32-1.8h.87Z"/><path class="cls-4" d="M279.67,309.57a3.14,3.14,0,0,1,2.1.66,2.3,2.3,0,0,1,.78,1.86,2.68,2.68,0,0,1-.84,2.09,3.4,3.4,0,0,1-2.36.76,6.17,6.17,0,0,1-1.25-.12,3.34,3.34,0,0,1-1-.34v-1a3.6,3.6,0,0,0,1.05.41,5,5,0,0,0,1.18.15,2.42,2.42,0,0,0,1.53-.45,1.92,1.92,0,0,0,.07-2.68,2.44,2.44,0,0,0-1.63-.45,5.63,5.63,0,0,0-.77.06l-.7.12-.53-.34.33-4H282v1h-3.4l-.2,2.48.55-.08A4.47,4.47,0,0,1,279.67,309.57Z"/><path class="cls-4" d="M249.63,348.42h-1v-6c0-.35,0-.62,0-.83s0-.42,0-.65a3.19,3.19,0,0,1-.35.32l-.39.34-.91.74-.55-.7,2.31-1.8h.88Z"/><path class="cls-4" d="M258.47,343.52a9.91,9.91,0,0,1-.16,1.81,5,5,0,0,1-.59,1.62,3,3,0,0,1-1.2,1.16,4,4,0,0,1-2,.43l-.57,0a2.5,2.5,0,0,1-.51-.09v-.9a3.13,3.13,0,0,0,1,.16,3,3,0,0,0,1.39-.28,2.26,2.26,0,0,0,.87-.75,3.33,3.33,0,0,0,.47-1.1,7,7,0,0,0,.16-1.33h-.07a2.3,2.3,0,0,1-.77.71,2.49,2.49,0,0,1-1.27.29,2.42,2.42,0,0,1-1.78-.68,2.59,2.59,0,0,1-.68-1.91,3.25,3.25,0,0,1,.34-1.55,2.41,2.41,0,0,1,1-1,2.93,2.93,0,0,1,1.45-.34,2.76,2.76,0,0,1,1.47.41,2.85,2.85,0,0,1,1,1.25A5.19,5.19,0,0,1,258.47,343.52Zm-2.9-2.9a1.62,1.62,0,0,0-1.22.5,2,2,0,0,0-.47,1.5,1.94,1.94,0,0,0,.4,1.3,1.54,1.54,0,0,0,1.24.47,2.11,2.11,0,0,0,1-.23,2,2,0,0,0,.65-.6,1.29,1.29,0,0,0,.23-.74,2.85,2.85,0,0,0-.2-1,2.15,2.15,0,0,0-.61-.84A1.57,1.57,0,0,0,255.57,340.62Z"/><path class="cls-4" d="M262.51,339.74a3,3,0,0,1,1.85.52,1.79,1.79,0,0,1,.72,1.53,1.77,1.77,0,0,1-.22.9,2.7,2.7,0,0,1-.59.68,5.2,5.2,0,0,1-.82.52,7.37,7.37,0,0,1,1,.57,2.54,2.54,0,0,1,.69.74,1.88,1.88,0,0,1,.26,1,2.14,2.14,0,0,1-.77,1.72,3.16,3.16,0,0,1-2,.62,3.3,3.3,0,0,1-2.13-.6,2.08,2.08,0,0,1-.74-1.7,2,2,0,0,1,.25-1,2.45,2.45,0,0,1,.65-.75,4.38,4.38,0,0,1,.88-.53,3.85,3.85,0,0,1-1.07-.87,1.94,1.94,0,0,1-.43-1.3,1.85,1.85,0,0,1,.33-1.11,2.16,2.16,0,0,1,.92-.69A3.35,3.35,0,0,1,262.51,339.74Zm-1.8,6.51a1.36,1.36,0,0,0,.45,1,1.94,1.94,0,0,0,1.37.41,1.89,1.89,0,0,0,1.33-.41,1.37,1.37,0,0,0,.47-1.07,1.29,1.29,0,0,0-.5-1,4.4,4.4,0,0,0-1.3-.73l-.2-.07a3.66,3.66,0,0,0-1.2.78A1.5,1.5,0,0,0,260.71,346.25Zm1.79-5.66a1.7,1.7,0,0,0-1.09.32,1.06,1.06,0,0,0-.42.91,1.28,1.28,0,0,0,.21.75,1.77,1.77,0,0,0,.57.51,8.29,8.29,0,0,0,.79.4,3.82,3.82,0,0,0,1.05-.64,1.25,1.25,0,0,0,.43-1,1.06,1.06,0,0,0-.42-.91A1.75,1.75,0,0,0,262.5,340.59Z"/><path class="cls-4" d="M244.35,382h-1v-6c0-.35,0-.62,0-.83s0-.43,0-.65a3.19,3.19,0,0,1-.35.32l-.39.34-.91.74-.55-.7,2.31-1.8h.88Z"/><path class="cls-4" d="M253.19,377.12a9.91,9.91,0,0,1-.16,1.81,5,5,0,0,1-.59,1.62,3,3,0,0,1-1.2,1.16,4,4,0,0,1-2,.43l-.56,0a2.76,2.76,0,0,1-.52-.09v-.9a3.23,3.23,0,0,0,1.06.16,3,3,0,0,0,1.39-.28,2.26,2.26,0,0,0,.87-.75,3.33,3.33,0,0,0,.47-1.1,7,7,0,0,0,.16-1.33h-.07a2.3,2.3,0,0,1-.77.71,2.49,2.49,0,0,1-1.27.29,2.42,2.42,0,0,1-1.78-.68,2.59,2.59,0,0,1-.68-1.91,3.25,3.25,0,0,1,.34-1.55,2.41,2.41,0,0,1,1-1,2.93,2.93,0,0,1,1.45-.34,2.67,2.67,0,0,1,1.47.41,2.85,2.85,0,0,1,1.05,1.25A5.16,5.16,0,0,1,253.19,377.12Zm-2.9-2.9a1.61,1.61,0,0,0-1.22.5,2,2,0,0,0-.48,1.5,2,2,0,0,0,.41,1.3,1.54,1.54,0,0,0,1.24.47,2.11,2.11,0,0,0,1-.23,2,2,0,0,0,.65-.6,1.37,1.37,0,0,0,.23-.74,2.85,2.85,0,0,0-.2-1,2.08,2.08,0,0,0-.61-.84A1.57,1.57,0,0,0,250.29,374.22Z"/><path class="cls-4" d="M259.73,375.46a1.87,1.87,0,0,1-.49,1.37,2.37,2.37,0,0,1-1.29.68v.05a2.47,2.47,0,0,1,1.53.65,1.9,1.9,0,0,1,.51,1.38,2.53,2.53,0,0,1-.34,1.33,2.38,2.38,0,0,1-1.08.9,4.5,4.5,0,0,1-1.86.32,7,7,0,0,1-1.25-.1,4.37,4.37,0,0,1-1.11-.36v-1a4.52,4.52,0,0,0,1.17.42,5.06,5.06,0,0,0,1.2.15,2.48,2.48,0,0,0,1.66-.45,1.58,1.58,0,0,0,.51-1.25,1.21,1.21,0,0,0-.63-1.15,3.6,3.6,0,0,0-1.77-.36h-.83v-.9h.84a2.5,2.5,0,0,0,1.6-.44,1.44,1.44,0,0,0,.55-1.18,1.16,1.16,0,0,0-.42-1,1.74,1.74,0,0,0-1.14-.35,3.05,3.05,0,0,0-1.19.21,6,6,0,0,0-1,.51l-.53-.72a4.52,4.52,0,0,1,1.14-.62,4.11,4.11,0,0,1,1.54-.26,2.9,2.9,0,0,1,2,.6A2,2,0,0,1,259.73,375.46Z"/><path class="cls-4" d="M237.63,415.62h-1v-6c0-.35,0-.62,0-.83l0-.65c-.13.13-.24.24-.35.33s-.24.2-.39.33l-.91.75-.55-.71,2.31-1.8h.88Z"/><path class="cls-4" d="M243.65,406.94a3.07,3.07,0,0,1,1.85.52,1.8,1.8,0,0,1,.72,1.53,1.77,1.77,0,0,1-.22.9,2.41,2.41,0,0,1-.6.68,5.1,5.1,0,0,1-.81.52,6.43,6.43,0,0,1,1,.58,2.52,2.52,0,0,1,.69.73,1.9,1.9,0,0,1,.26,1,2.12,2.12,0,0,1-.77,1.71,3.11,3.11,0,0,1-2,.63,3.3,3.3,0,0,1-2.13-.61,2.08,2.08,0,0,1-.74-1.7,2,2,0,0,1,.25-1,2.24,2.24,0,0,1,.65-.75,4.12,4.12,0,0,1,.88-.53,3.85,3.85,0,0,1-1.07-.87,1.94,1.94,0,0,1-.43-1.3,1.85,1.85,0,0,1,.33-1.11,2.19,2.19,0,0,1,.91-.69A3.4,3.4,0,0,1,243.65,406.94Zm-1.8,6.51a1.36,1.36,0,0,0,.45,1,2.38,2.38,0,0,0,2.7,0,1.36,1.36,0,0,0,.46-1.07,1.3,1.3,0,0,0-.49-1,4.46,4.46,0,0,0-1.31-.73l-.19-.07a3.56,3.56,0,0,0-1.2.78A1.5,1.5,0,0,0,241.85,413.45Zm1.79-5.66a1.76,1.76,0,0,0-1.09.32,1.07,1.07,0,0,0-.42.92,1.27,1.27,0,0,0,.21.74,1.77,1.77,0,0,0,.57.51,8.29,8.29,0,0,0,.79.4,3.82,3.82,0,0,0,1.05-.64,1.27,1.27,0,0,0,.43-1,1.07,1.07,0,0,0-.42-.92A1.84,1.84,0,0,0,243.64,407.79Z"/><path class="cls-4" d="M247.75,412a9.91,9.91,0,0,1,.17-1.81,4.74,4.74,0,0,1,.58-1.62,3.18,3.18,0,0,1,1.2-1.16,4,4,0,0,1,2-.43l.56,0a2.49,2.49,0,0,1,.49.08V408a2.09,2.09,0,0,0-.49-.11,3.27,3.27,0,0,0-.54,0,3,3,0,0,0-1.38.28,2.26,2.26,0,0,0-.87.75,3.46,3.46,0,0,0-.46,1.11,6.89,6.89,0,0,0-.18,1.33h.07a2.43,2.43,0,0,1,.77-.72,2.5,2.5,0,0,1,1.26-.29,2.47,2.47,0,0,1,1.8.68,2.57,2.57,0,0,1,.68,1.93,2.94,2.94,0,0,1-.73,2.11,2.64,2.64,0,0,1-2,.77,2.67,2.67,0,0,1-2.53-1.66A5.07,5.07,0,0,1,247.75,412Zm2.91,2.9a1.6,1.6,0,0,0,1.22-.49,2.11,2.11,0,0,0,.47-1.5,2,2,0,0,0-.41-1.3,1.56,1.56,0,0,0-1.25-.48,2.06,2.06,0,0,0-1,.23,1.8,1.8,0,0,0-.65.6,1.35,1.35,0,0,0-.24.74,2.71,2.71,0,0,0,.21,1,2,2,0,0,0,.61.84A1.56,1.56,0,0,0,250.66,414.86Z"/><path class="cls-4" d="M182.43,449.22h-1v-6c0-.35,0-.62,0-.83l0-.65a3.19,3.19,0,0,1-.35.32l-.39.34-.91.75-.56-.71,2.32-1.8h.88Z"/><path class="cls-4" d="M191,442.66a1.91,1.91,0,0,1-.49,1.37,2.31,2.31,0,0,1-1.29.68v.05a2.47,2.47,0,0,1,1.53.65,1.9,1.9,0,0,1,.51,1.38,2.54,2.54,0,0,1-.35,1.33,2.35,2.35,0,0,1-1.07.9,4.58,4.58,0,0,1-1.87.32,7,7,0,0,1-1.25-.1,4.3,4.3,0,0,1-1.1-.36v-1a4.59,4.59,0,0,0,1.16.42,5.18,5.18,0,0,0,1.2.15,2.51,2.51,0,0,0,1.67-.45,1.58,1.58,0,0,0,.51-1.25,1.21,1.21,0,0,0-.63-1.15,3.6,3.6,0,0,0-1.77-.36h-.83v-.9h.84a2.46,2.46,0,0,0,1.6-.44,1.47,1.47,0,0,0,.55-1.18,1.16,1.16,0,0,0-.42-1,1.74,1.74,0,0,0-1.14-.35,3,3,0,0,0-1.19.21,6,6,0,0,0-1,.51l-.53-.72a4.45,4.45,0,0,1,1.13-.62,4.15,4.15,0,0,1,1.54-.26,2.86,2.86,0,0,1,2,.6A2,2,0,0,1,191,442.66Z"/><path class="cls-4" d="M198.17,444.93a8.52,8.52,0,0,1-.29,2.37,3,3,0,0,1-.92,1.52,2.49,2.49,0,0,1-1.65.52,2.3,2.3,0,0,1-2.14-1.17,6.39,6.39,0,0,1-.69-3.24,9.09,9.09,0,0,1,.28-2.38,2.93,2.93,0,0,1,.91-1.5,2.47,2.47,0,0,1,1.64-.53,2.36,2.36,0,0,1,2.15,1.16A6.29,6.29,0,0,1,198.17,444.93Zm-4.63,0a6.64,6.64,0,0,0,.4,2.64,1.41,1.41,0,0,0,1.37.87,1.43,1.43,0,0,0,1.38-.87,8.67,8.67,0,0,0,0-5.27,1.44,1.44,0,0,0-1.38-.88,1.41,1.41,0,0,0-1.37.88A6.55,6.55,0,0,0,193.54,444.93Z"/><path class="cls-4" d="M236.67,482.83h-1v-6c0-.35,0-.62,0-.83l0-.65c-.13.13-.24.24-.35.33s-.24.2-.39.33l-.91.75-.55-.71,2.31-1.8h.88Z"/><path class="cls-4" d="M242.69,474.14a3,3,0,0,1,1.85.53,2,2,0,0,1,.5,2.42,2.41,2.41,0,0,1-.6.68,5.1,5.1,0,0,1-.81.52,6.43,6.43,0,0,1,1,.58,2.39,2.39,0,0,1,.69.73,1.9,1.9,0,0,1,.26,1,2.1,2.1,0,0,1-.77,1.71,3.11,3.11,0,0,1-2,.63,3.3,3.3,0,0,1-2.13-.61,2.08,2.08,0,0,1-.74-1.7,2,2,0,0,1,.25-1,2.24,2.24,0,0,1,.65-.75,4.12,4.12,0,0,1,.88-.53,3.85,3.85,0,0,1-1.07-.87,1.92,1.92,0,0,1-.43-1.3,1.87,1.87,0,0,1,.33-1.11,2.19,2.19,0,0,1,.91-.69A3.4,3.4,0,0,1,242.69,474.14Zm-1.8,6.51a1.34,1.34,0,0,0,.45,1,2.38,2.38,0,0,0,2.7,0,1.35,1.35,0,0,0,.46-1.07,1.3,1.3,0,0,0-.49-1,4.46,4.46,0,0,0-1.31-.73l-.19-.07a3.56,3.56,0,0,0-1.2.78A1.5,1.5,0,0,0,240.89,480.65Zm1.79-5.66a1.76,1.76,0,0,0-1.09.32,1.08,1.08,0,0,0-.42.92,1.27,1.27,0,0,0,.21.74,1.77,1.77,0,0,0,.57.51,8.29,8.29,0,0,0,.79.4,3.8,3.8,0,0,0,1-.63,1.31,1.31,0,0,0,.43-1,1.08,1.08,0,0,0-.42-.92A1.84,1.84,0,0,0,242.68,475Z"/><path class="cls-4" d="M249.43,477.57a3.16,3.16,0,0,1,2.1.66,2.3,2.3,0,0,1,.78,1.86,2.68,2.68,0,0,1-.84,2.09,3.4,3.4,0,0,1-2.36.77,6.17,6.17,0,0,1-1.25-.12,3.33,3.33,0,0,1-1-.35v-1a3.9,3.9,0,0,0,1.05.42,5,5,0,0,0,1.18.14,2.38,2.38,0,0,0,1.53-.45,1.92,1.92,0,0,0,.07-2.68,2.44,2.44,0,0,0-1.63-.45,5.63,5.63,0,0,0-.77.06l-.7.12-.53-.34.33-4h4.29v1h-3.39l-.2,2.48.55-.08A4.47,4.47,0,0,1,249.43,477.57Z"/><path class="cls-4" d="M215.55,516.42h-1v-6c0-.35,0-.62,0-.83l0-.65a3.46,3.46,0,0,1-.35.33c-.11.08-.24.2-.39.33l-.91.75-.56-.71,2.32-1.8h.88Z"/><path class="cls-4" d="M218.81,512.76A9.91,9.91,0,0,1,219,511a5,5,0,0,1,.59-1.62,3.09,3.09,0,0,1,1.19-1.16,4,4,0,0,1,2-.43l.56,0a2.61,2.61,0,0,1,.5.08v.91a2.21,2.21,0,0,0-.49-.11,3.44,3.44,0,0,0-.54,0,3,3,0,0,0-1.38.28,2.13,2.13,0,0,0-.87.75,3.25,3.25,0,0,0-.46,1.11,6.89,6.89,0,0,0-.18,1.33h.07a2.33,2.33,0,0,1,.77-.72,2.78,2.78,0,0,1,3.06.39,2.61,2.61,0,0,1,.68,1.93,2.91,2.91,0,0,1-.74,2.11,2.61,2.61,0,0,1-2,.76,2.76,2.76,0,0,1-1.48-.4,2.79,2.79,0,0,1-1.05-1.25A5.07,5.07,0,0,1,218.81,512.76Zm2.9,2.9a1.6,1.6,0,0,0,1.23-.49,2.11,2.11,0,0,0,.47-1.5,1.9,1.9,0,0,0-.42-1.3,1.54,1.54,0,0,0-1.24-.48,2,2,0,0,0-1,.23,1.92,1.92,0,0,0-.66.6,1.42,1.42,0,0,0-.23.74,2.9,2.9,0,0,0,.2,1,2.08,2.08,0,0,0,.61.84A1.6,1.6,0,0,0,221.71,515.66Z"/><path class="cls-4" d="M231.64,514.48h-1.25v1.94h-1v-1.94h-4.1v-.9l4-5.77h1.09v5.72h1.25Zm-2.27-1v-2.7c0-.41,0-.77,0-1.06s0-.57,0-.83h-.05a4.35,4.35,0,0,1-.24.49,5,5,0,0,1-.27.44l-2.57,3.66Z"/><path class="cls-4" d="M181,550h-1v-6c0-.35,0-.62,0-.83l0-.65a2.48,2.48,0,0,1-.35.32l-.39.34-.91.74-.56-.7,2.32-1.8H181Z"/><path class="cls-4" d="M189.83,550h-5.66v-.87l2.24-2.27c.42-.43.79-.82,1.09-1.15a4.22,4.22,0,0,0,.67-1,2.32,2.32,0,0,0,.23-1.06,1.36,1.36,0,0,0-.42-1.08,1.61,1.61,0,0,0-1.09-.36,2.67,2.67,0,0,0-1.1.21,5,5,0,0,0-1,.6l-.57-.71a5.14,5.14,0,0,1,1.16-.71,3.51,3.51,0,0,1,1.47-.29,2.78,2.78,0,0,1,1.9.61,2.11,2.11,0,0,1,.69,1.67,3,3,0,0,1-.27,1.26,5.3,5.3,0,0,1-.77,1.16c-.33.38-.71.79-1.15,1.21L185.5,549v0h4.33Z"/><path class="cls-4" d="M196.7,545.12a9.91,9.91,0,0,1-.17,1.81,4.74,4.74,0,0,1-.58,1.62,3.18,3.18,0,0,1-1.2,1.16,4,4,0,0,1-2,.43l-.56,0a2.62,2.62,0,0,1-.52-.09v-.9a3.13,3.13,0,0,0,1,.16,3,3,0,0,0,1.39-.28,2.26,2.26,0,0,0,.87-.75,3.13,3.13,0,0,0,.47-1.1,7,7,0,0,0,.17-1.33h-.07a2.4,2.4,0,0,1-.77.71,2.51,2.51,0,0,1-1.27.29,2.44,2.44,0,0,1-1.79-.68,2.59,2.59,0,0,1-.67-1.91,3.38,3.38,0,0,1,.33-1.55,2.37,2.37,0,0,1,1-1,2.89,2.89,0,0,1,1.44-.34,2.71,2.71,0,0,1,1.48.41,2.77,2.77,0,0,1,1,1.25A5,5,0,0,1,196.7,545.12Zm-2.91-2.9a1.62,1.62,0,0,0-1.22.5,2.09,2.09,0,0,0-.47,1.5,1.94,1.94,0,0,0,.4,1.3,1.56,1.56,0,0,0,1.24.47,2.08,2.08,0,0,0,1-.23,1.8,1.8,0,0,0,.65-.6,1.3,1.3,0,0,0,.24-.74,2.66,2.66,0,0,0-.21-1,2,2,0,0,0-.61-.84A1.57,1.57,0,0,0,193.79,542.22Z"/><path class="cls-4" d="M155.55,583.62h-1v-6c0-.35,0-.62,0-.83l0-.65a3.46,3.46,0,0,1-.35.33c-.11.08-.24.2-.39.33l-.91.75-.56-.71,2.32-1.8h.88Z"/><path class="cls-4" d="M164.43,579.33a8.65,8.65,0,0,1-.29,2.38,3,3,0,0,1-.92,1.51,2.49,2.49,0,0,1-1.65.53,2.31,2.31,0,0,1-2.14-1.17,6.46,6.46,0,0,1-.69-3.25A8.68,8.68,0,0,1,159,577a2.93,2.93,0,0,1,.91-1.5,2.45,2.45,0,0,1,1.64-.53,2.36,2.36,0,0,1,2.15,1.16A6.29,6.29,0,0,1,164.43,579.33Zm-4.64,0a6.61,6.61,0,0,0,.41,2.64,1.39,1.39,0,0,0,1.37.87,1.41,1.41,0,0,0,1.37-.87,8.48,8.48,0,0,0,0-5.27,1.41,1.41,0,0,0-1.37-.87,1.39,1.39,0,0,0-1.37.87A6.55,6.55,0,0,0,159.79,579.33Z"/><path class="cls-4" d="M170.93,577.06a1.87,1.87,0,0,1-.49,1.37,2.31,2.31,0,0,1-1.29.68v0a2.47,2.47,0,0,1,1.53.65,1.9,1.9,0,0,1,.51,1.38,2.53,2.53,0,0,1-.34,1.33,2.26,2.26,0,0,1-1.08.9,4.49,4.49,0,0,1-1.86.33,6.92,6.92,0,0,1-1.25-.11,4,4,0,0,1-1.11-.36v-1a4.52,4.52,0,0,0,1.17.42,5.06,5.06,0,0,0,1.2.15,2.48,2.48,0,0,0,1.66-.45,1.58,1.58,0,0,0,.51-1.24,1.22,1.22,0,0,0-.63-1.16,3.6,3.6,0,0,0-1.77-.36h-.83v-.9h.84a2.44,2.44,0,0,0,1.6-.44,1.44,1.44,0,0,0,.55-1.18,1.16,1.16,0,0,0-.42-1,1.74,1.74,0,0,0-1.14-.34,3.06,3.06,0,0,0-1.19.2,6.94,6.94,0,0,0-1,.51l-.53-.71a4.24,4.24,0,0,1,1.14-.63,4.32,4.32,0,0,1,1.54-.26,2.9,2.9,0,0,1,2,.6A2,2,0,0,1,170.93,577.06Z"/><path class="cls-4" d="M144.57,612.32a10.88,10.88,0,0,1-.16,1.81,5,5,0,0,1-.59,1.62,3.18,3.18,0,0,1-1.2,1.16,4,4,0,0,1-2,.43l-.56,0a2.62,2.62,0,0,1-.52-.09v-.9a3.15,3.15,0,0,0,1.06.16,3.08,3.08,0,0,0,1.38-.27,2.29,2.29,0,0,0,.87-.75,3.08,3.08,0,0,0,.47-1.11,7,7,0,0,0,.17-1.33h-.07a2.4,2.4,0,0,1-.77.71,2.51,2.51,0,0,1-1.27.29,2.44,2.44,0,0,1-1.79-.68,2.59,2.59,0,0,1-.67-1.91,3.38,3.38,0,0,1,.33-1.55,2.5,2.5,0,0,1,1-1,2.89,2.89,0,0,1,1.44-.34,2.68,2.68,0,0,1,1.48.41,2.77,2.77,0,0,1,1,1.25A5,5,0,0,1,144.57,612.32Zm-2.91-2.9a1.6,1.6,0,0,0-1.21.5,2.06,2.06,0,0,0-.48,1.5,1.94,1.94,0,0,0,.4,1.3,1.54,1.54,0,0,0,1.25.47,2.07,2.07,0,0,0,1-.23,1.92,1.92,0,0,0,.66-.6,1.37,1.37,0,0,0,.23-.74,2.66,2.66,0,0,0-.21-1,1.91,1.91,0,0,0-.61-.84A1.57,1.57,0,0,0,141.66,609.42Z"/><path class="cls-4" d="M151.47,612.93a8.52,8.52,0,0,1-.29,2.37,3,3,0,0,1-.92,1.52,2.49,2.49,0,0,1-1.65.52,2.29,2.29,0,0,1-2.14-1.17,6.39,6.39,0,0,1-.69-3.24,8.68,8.68,0,0,1,.28-2.38,2.93,2.93,0,0,1,.91-1.5,2.45,2.45,0,0,1,1.64-.53,2.36,2.36,0,0,1,2.15,1.16A6.29,6.29,0,0,1,151.47,612.93Zm-4.64,0a6.61,6.61,0,0,0,.41,2.64,1.39,1.39,0,0,0,1.37.87,1.41,1.41,0,0,0,1.37-.87,8.48,8.48,0,0,0,0-5.27,1.41,1.41,0,0,0-1.37-.88,1.4,1.4,0,0,0-1.37.88A6.52,6.52,0,0,0,146.83,612.93Z"/><path class="cls-4" d="M109.71,647.17a9.94,9.94,0,0,1,.16-1.82,4.75,4.75,0,0,1,.59-1.62,3.09,3.09,0,0,1,1.19-1.16,4,4,0,0,1,2-.43l.56,0a2.66,2.66,0,0,1,.5.09v.9a2.31,2.31,0,0,0-.5-.11,3.27,3.27,0,0,0-.54,0,3,3,0,0,0-1.38.28,2.26,2.26,0,0,0-.87.75,3.46,3.46,0,0,0-.46,1.11,8.9,8.9,0,0,0-.18,1.33h.07a2.43,2.43,0,0,1,.77-.72,2.5,2.5,0,0,1,1.26-.29,2.44,2.44,0,0,1,1.8.68,2.57,2.57,0,0,1,.69,1.93,2.93,2.93,0,0,1-.74,2.11,2.64,2.64,0,0,1-2,.77,2.76,2.76,0,0,1-1.47-.41,2.79,2.79,0,0,1-1.05-1.25A5,5,0,0,1,109.71,647.17Zm2.9,2.89a1.6,1.6,0,0,0,1.22-.49,2,2,0,0,0,.47-1.5,1.9,1.9,0,0,0-.41-1.3,1.55,1.55,0,0,0-1.24-.48,2.07,2.07,0,0,0-1,.23,1.89,1.89,0,0,0-.65.6,1.35,1.35,0,0,0-.24.74,2.67,2.67,0,0,0,.21,1,2,2,0,0,0,.61.84A1.56,1.56,0,0,0,112.61,650.06Z"/><path class="cls-4" d="M120.17,650.83h-1v-6c0-.35,0-.62,0-.83s0-.43,0-.65q-.19.2-.36.33c-.11.08-.24.2-.39.33l-.91.75-.55-.71,2.31-1.8h.88Z"/><path class="cls-4" d="M126.52,684.42l3.52-7.6h-4.62v-1h5.74v.81l-3.48,7.75Z"/><path class="cls-4" d="M133.38,684.42l3.52-7.6h-4.62v-1H138v.81l-3.48,7.75Z"/><path class="cls-4" d="M358.32,73.06a1.93,1.93,0,0,1-.48,1.38,2.5,2.5,0,0,1-1.29.67v0a2.47,2.47,0,0,1,1.53.65,1.9,1.9,0,0,1,.51,1.38,2.54,2.54,0,0,1-.35,1.33,2.29,2.29,0,0,1-1.07.9,4.57,4.57,0,0,1-1.87.33,7,7,0,0,1-1.25-.11,3.94,3.94,0,0,1-1.1-.36v-1a4.59,4.59,0,0,0,1.16.42,5.18,5.18,0,0,0,1.2.15,2.48,2.48,0,0,0,1.66-.45,1.58,1.58,0,0,0,.51-1.24,1.22,1.22,0,0,0-.63-1.16,3.6,3.6,0,0,0-1.77-.36h-.83v-.9h.85a2.54,2.54,0,0,0,1.6-.44,1.46,1.46,0,0,0,.54-1.18,1.17,1.17,0,0,0-.42-1,1.74,1.74,0,0,0-1.14-.34,3,3,0,0,0-1.18.2,7,7,0,0,0-1,.51l-.52-.71a4.2,4.2,0,0,1,2.67-.89,2.88,2.88,0,0,1,2,.6A2,2,0,0,1,358.32,73.06Z"/><path class="cls-4" d="M365.55,75.33a8.65,8.65,0,0,1-.29,2.38,3,3,0,0,1-.92,1.51,2.49,2.49,0,0,1-1.65.53,2.33,2.33,0,0,1-2.14-1.17,6.46,6.46,0,0,1-.69-3.25,8.68,8.68,0,0,1,.28-2.38,2.93,2.93,0,0,1,.91-1.5,2.45,2.45,0,0,1,1.64-.53,2.36,2.36,0,0,1,2.15,1.16A6.27,6.27,0,0,1,365.55,75.33Zm-4.63,0a6.6,6.6,0,0,0,.4,2.64,1.4,1.4,0,0,0,1.37.88,1.43,1.43,0,0,0,1.38-.87,8.7,8.7,0,0,0,0-5.28,1.43,1.43,0,0,0-1.38-.87,1.39,1.39,0,0,0-1.37.87A6.58,6.58,0,0,0,360.92,75.33Z"/><path class="cls-4" d="M366.79,76a9.91,9.91,0,0,1,.17-1.81,4.74,4.74,0,0,1,.58-1.62,3.18,3.18,0,0,1,1.2-1.16,4,4,0,0,1,2-.43c.17,0,.35,0,.56,0a2.49,2.49,0,0,1,.49.08v.9a2.81,2.81,0,0,0-.49-.1,3.27,3.27,0,0,0-.54,0,3,3,0,0,0-1.38.28,2.26,2.26,0,0,0-.87.75,3.46,3.46,0,0,0-.46,1.11,7.76,7.76,0,0,0-.18,1.33h.07a2.3,2.3,0,0,1,.77-.71,2.4,2.4,0,0,1,1.26-.3,2.47,2.47,0,0,1,1.8.68,2.57,2.57,0,0,1,.68,1.93A2.93,2.93,0,0,1,371.7,79a2.64,2.64,0,0,1-2,.77,2.79,2.79,0,0,1-1.48-.41,2.85,2.85,0,0,1-1.05-1.25A5.07,5.07,0,0,1,366.79,76Zm2.91,2.9a1.63,1.63,0,0,0,1.22-.49,2.11,2.11,0,0,0,.47-1.5,2,2,0,0,0-.41-1.3,1.56,1.56,0,0,0-1.25-.48,2.06,2.06,0,0,0-1,.23,1.8,1.8,0,0,0-.65.6,1.35,1.35,0,0,0-.24.74,2.71,2.71,0,0,0,.21,1,2,2,0,0,0,.61.84A1.56,1.56,0,0,0,369.7,78.86Z"/><path class="cls-4" d="M432.72,39.46a1.89,1.89,0,0,1-.48,1.37,2.44,2.44,0,0,1-1.29.68v.05a2.47,2.47,0,0,1,1.53.65,1.9,1.9,0,0,1,.51,1.38,2.54,2.54,0,0,1-.35,1.33,2.33,2.33,0,0,1-1.08.9,4.49,4.49,0,0,1-1.86.33,6.92,6.92,0,0,1-1.25-.11,3.94,3.94,0,0,1-1.1-.36v-1a4.45,4.45,0,0,0,1.16.42,5.18,5.18,0,0,0,1.2.15,2.48,2.48,0,0,0,1.66-.45,1.58,1.58,0,0,0,.51-1.25,1.21,1.21,0,0,0-.63-1.15,3.6,3.6,0,0,0-1.77-.36h-.83v-.9h.85a2.54,2.54,0,0,0,1.6-.44,1.46,1.46,0,0,0,.54-1.18,1.16,1.16,0,0,0-.42-1,1.74,1.74,0,0,0-1.14-.34,3.06,3.06,0,0,0-1.19.2,6.47,6.47,0,0,0-1,.51l-.53-.71a4.4,4.4,0,0,1,1.14-.63,4.15,4.15,0,0,1,1.54-.26,2.88,2.88,0,0,1,2,.6A2,2,0,0,1,432.72,39.46Z"/><path class="cls-4" d="M437.09,37.34a3.07,3.07,0,0,1,1.85.52,1.8,1.8,0,0,1,.72,1.53,1.87,1.87,0,0,1-.22.9,2.56,2.56,0,0,1-.6.68,5.6,5.6,0,0,1-.81.52,8.69,8.69,0,0,1,1,.57,2.85,2.85,0,0,1,.69.74,1.88,1.88,0,0,1,.25,1,2.13,2.13,0,0,1-.76,1.72,3.13,3.13,0,0,1-2,.63,3.3,3.3,0,0,1-2.13-.61,2.3,2.3,0,0,1-.5-2.71,2.62,2.62,0,0,1,.66-.75,4.12,4.12,0,0,1,.88-.53,3.71,3.71,0,0,1-1.07-.87,1.94,1.94,0,0,1-.43-1.3,1.85,1.85,0,0,1,.33-1.11,2.13,2.13,0,0,1,.91-.69A3.4,3.4,0,0,1,437.09,37.34Zm-1.8,6.51a1.36,1.36,0,0,0,.45,1,2.43,2.43,0,0,0,2.7,0,1.36,1.36,0,0,0,.46-1.07,1.28,1.28,0,0,0-.49-1,4.46,4.46,0,0,0-1.31-.73l-.19-.07a3.56,3.56,0,0,0-1.2.78A1.5,1.5,0,0,0,435.29,43.85Zm1.79-5.66a1.7,1.7,0,0,0-1.09.32,1.06,1.06,0,0,0-.42.91,1.28,1.28,0,0,0,.21.75,1.77,1.77,0,0,0,.57.51,8.29,8.29,0,0,0,.79.4,4,4,0,0,0,1.05-.64,1.28,1.28,0,0,0,.43-1,1.09,1.09,0,0,0-.42-.91A1.77,1.77,0,0,0,437.08,38.19Z"/><path class="cls-4" d="M444.79,46h-1V40c0-.35,0-.62,0-.83s0-.42,0-.65a4.47,4.47,0,0,1-.35.32l-.39.34-.92.74-.55-.7,2.32-1.8h.87Z"/><g class="cls-5"><path class="cls-4" d="M6,8.07,8.27,3.86H9.44L6.58,9.1v3.32H5.5V9.15L2.64,3.86H3.82Z"/><path class="cls-4" d="M12.34,5.87a2.69,2.69,0,0,1,1.41.36,2.34,2.34,0,0,1,.92,1A3.45,3.45,0,0,1,15,8.78v.63h-4.4a2.37,2.37,0,0,0,.56,1.66,1.9,1.9,0,0,0,1.49.58,4.49,4.49,0,0,0,1.09-.12,5.85,5.85,0,0,0,1-.33v.92a4.08,4.08,0,0,1-1,.32,5.43,5.43,0,0,1-1.14.1A3.37,3.37,0,0,1,11,12.17a2.69,2.69,0,0,1-1.09-1.1A3.82,3.82,0,0,1,9.5,9.26a4.22,4.22,0,0,1,.35-1.82,2.69,2.69,0,0,1,1-1.16A2.76,2.76,0,0,1,12.34,5.87Zm0,.87a1.54,1.54,0,0,0-1.2.48,2.36,2.36,0,0,0-.52,1.35h3.28a2.25,2.25,0,0,0-.39-1.32A1.36,1.36,0,0,0,12.33,6.74Z"/><path class="cls-4" d="M19.06,5.88a2.55,2.55,0,0,1,1.74.52A2.14,2.14,0,0,1,21.36,8v4.38H20.6l-.21-.91h-.05a3,3,0,0,1-.88.78,2.72,2.72,0,0,1-1.28.25,2.25,2.25,0,0,1-1.45-.46,1.75,1.75,0,0,1-.58-1.44,1.72,1.72,0,0,1,.76-1.49,4.56,4.56,0,0,1,2.33-.57l1.09,0V8.17A1.47,1.47,0,0,0,20,7.05a1.41,1.41,0,0,0-1-.31,3,3,0,0,0-1,.15,6,6,0,0,0-.85.34l-.33-.79a4.63,4.63,0,0,1,1-.39A4.3,4.3,0,0,1,19.06,5.88Zm1.26,3.4-.95,0a3.22,3.22,0,0,0-1.66.38,1.09,1.09,0,0,0-.46,1,.93.93,0,0,0,.33.79,1.33,1.33,0,0,0,.84.25,2,2,0,0,0,1.35-.45,1.67,1.67,0,0,0,.55-1.38Z"/><path class="cls-4" d="M26.35,5.87l.39,0,.37.05-.13,1a1.7,1.7,0,0,0-.35-.06l-.35,0a1.72,1.72,0,0,0-.92.27,1.89,1.89,0,0,0-.69.76A2.39,2.39,0,0,0,24.41,9v3.43H23.35V6h.87l.12,1.18h.05a2.89,2.89,0,0,1,.8-.91A1.83,1.83,0,0,1,26.35,5.87Z"/></g></svg>