<svg id="Layer_1" data-name="Layer 1" xmlns="http://www.w3.org/2000/svg" xmlns:xlink="http://www.w3.org/1999/xlink" viewBox="0 0 970 285"><defs><style>.cls-1{fill:none;}.cls-2{fill:#d6dfec;}.cls-3{fill:#929390;}.cls-4{fill:#fff;}.cls-5{fill:#12a639;}.cls-6{fill:#5491b9;}.cls-7{clip-path:url(#clip-path);}.cls-8{fill:#2e2014;}.cls-9{fill:#ee7003;}.cls-10{fill:#5a4585;}</style><clipPath id="clip-path"><rect class="cls-1" x="2.78" width="964.3" height="285"/></clipPath></defs><polyline class="cls-2" points="859.37 212.1 859.37 187.65 892.71 187.65 892.71 212.1"/><polygon class="cls-3" points="893.19 212.1 892.24 212.1 892.24 188.12 859.84 188.12 859.84 212.1 858.89 212.1 858.89 187.17 893.19 187.17 893.19 212.1"/><polyline class="cls-2" points="495.57 212.1 495.57 113.5 528.92 113.5 528.92 212.1"/><polygon class="cls-3" points="529.39 212.1 528.44 212.1 528.44 113.97 496.05 113.97 496.05 212.1 495.1 212.1 495.1 113.02 529.39 113.02 529.39 212.1"/><polyline class="cls-4" points="528.9 212.52 528.9 256.85 495.57 256.85 495.57 212.52"/><polygon class="cls-5" points="529.38 257.33 495.09 257.33 495.1 212.52 496.05 212.52 496.04 256.38 528.43 256.38 528.43 212.52 529.38 212.52 529.38 257.33"/><rect class="cls-6" x="131.71" y="101.58" width="33.35" height="110.76"/><rect class="cls-6" x="252.99" y="64.99" width="33.35" height="147.35"/><rect class="cls-6" x="313.63" y="61.53" width="33.35" height="150.81"/><g class="cls-7"><path class="cls-8" d="M867.66,280.91h-6.28v-1l2.49-2.52c.47-.48.87-.9,1.2-1.27a5.08,5.08,0,0,0,.75-1.09,2.73,2.73,0,0,0,.25-1.19,1.5,1.5,0,0,0-.46-1.19,1.77,1.77,0,0,0-1.21-.4,2.93,2.93,0,0,0-1.23.24,5.7,5.7,0,0,0-1.06.66l-.62-.78a5.66,5.66,0,0,1,1.28-.8,4.05,4.05,0,0,1,1.63-.32,3,3,0,0,1,2.1.68,2.35,2.35,0,0,1,.77,1.85,3.28,3.28,0,0,1-.3,1.39,5.58,5.58,0,0,1-.86,1.29,17,17,0,0,1-1.27,1.35l-2,2v0h4.8Z"/><path class="cls-8" d="M875.53,276.15a9.55,9.55,0,0,1-.32,2.63,3.29,3.29,0,0,1-1,1.68,2.72,2.72,0,0,1-1.82.58,2.56,2.56,0,0,1-2.38-1.3,7.07,7.07,0,0,1-.76-3.59,9.66,9.66,0,0,1,.31-2.64,3.35,3.35,0,0,1,1-1.67,2.78,2.78,0,0,1,1.83-.57,2.6,2.6,0,0,1,2.38,1.28A7,7,0,0,1,875.53,276.15Zm-5.13,0a7.44,7.44,0,0,0,.44,2.92,1.69,1.69,0,0,0,3,0,9.53,9.53,0,0,0,0-5.85,1.68,1.68,0,0,0-3,0A7.48,7.48,0,0,0,870.4,276.15Z"/><path class="cls-8" d="M880.23,275.08a3.54,3.54,0,0,1,2.32.73,2.56,2.56,0,0,1,.87,2.07,3,3,0,0,1-.94,2.32,3.77,3.77,0,0,1-2.61.84,6.77,6.77,0,0,1-1.39-.13,3.62,3.62,0,0,1-1.07-.39v-1.1a4.13,4.13,0,0,0,1.16.46,5.58,5.58,0,0,0,1.31.16,2.67,2.67,0,0,0,1.7-.5,2.13,2.13,0,0,0,.07-3,2.66,2.66,0,0,0-1.81-.5,6.9,6.9,0,0,0-.85.06c-.32.05-.58.09-.77.14l-.59-.38.36-4.48h4.76v1.07H879l-.23,2.75.62-.09A5.48,5.48,0,0,1,880.23,275.08Z"/><path class="cls-8" d="M888.48,280.91h-1.14v-6.64c0-.38,0-.69,0-.92s0-.47,0-.71q-.21.21-.39.36c-.12.09-.26.22-.43.37l-1,.82-.61-.78,2.56-2h1Z"/><path class="cls-8" d="M503.62,280.91h-6.27v-1l2.48-2.52c.47-.48.87-.9,1.21-1.27a5.08,5.08,0,0,0,.75-1.09,2.73,2.73,0,0,0,.25-1.19,1.53,1.53,0,0,0-.46-1.19,1.81,1.81,0,0,0-1.22-.4,2.89,2.89,0,0,0-1.22.24,5.39,5.39,0,0,0-1.06.66l-.63-.78a5.52,5.52,0,0,1,1.29-.8,4,4,0,0,1,1.62-.32,3.06,3.06,0,0,1,2.11.68,2.35,2.35,0,0,1,.77,1.85,3.14,3.14,0,0,1-.31,1.39,5.52,5.52,0,0,1-.85,1.29,17.24,17.24,0,0,1-1.28,1.35l-2,2v0h4.8Z"/><path class="cls-8" d="M511.5,276.15a9.55,9.55,0,0,1-.32,2.63,3.36,3.36,0,0,1-1,1.68,2.77,2.77,0,0,1-1.83.58,2.55,2.55,0,0,1-2.37-1.3,7.07,7.07,0,0,1-.77-3.59,10.07,10.07,0,0,1,.31-2.64,3.36,3.36,0,0,1,1-1.67,2.77,2.77,0,0,1,1.82-.57,2.58,2.58,0,0,1,2.38,1.28A6.84,6.84,0,0,1,511.5,276.15Zm-5.14,0a7.23,7.23,0,0,0,.45,2.92,1.68,1.68,0,0,0,3,0,9.53,9.53,0,0,0,0-5.85,1.68,1.68,0,0,0-3,0A7.27,7.27,0,0,0,506.36,276.15Z"/><path class="cls-8" d="M519,273.63a2.13,2.13,0,0,1-.54,1.53,2.78,2.78,0,0,1-1.43.75v0a2.7,2.7,0,0,1,1.69.72,2.1,2.1,0,0,1,.57,1.53,2.74,2.74,0,0,1-.39,1.47,2.48,2.48,0,0,1-1.19,1,5,5,0,0,1-2.06.36,8.61,8.61,0,0,1-1.39-.11,4.5,4.5,0,0,1-1.22-.41v-1.09a5.51,5.51,0,0,0,1.29.47,6.26,6.26,0,0,0,1.33.16,2.77,2.77,0,0,0,1.84-.5,1.73,1.73,0,0,0,.57-1.38,1.37,1.37,0,0,0-.7-1.28,4.08,4.08,0,0,0-2-.39h-.92v-1h.93a2.84,2.84,0,0,0,1.78-.49,1.62,1.62,0,0,0,.6-1.31,1.28,1.28,0,0,0-.47-1.07,2,2,0,0,0-1.26-.38,3.5,3.5,0,0,0-1.32.23,6.52,6.52,0,0,0-1.07.57l-.59-.8a5.32,5.32,0,0,1,1.26-.69,4.79,4.79,0,0,1,1.71-.29,3.19,3.19,0,0,1,2.21.66A2.19,2.19,0,0,1,519,273.63Z"/><path class="cls-8" d="M524.82,280.91h-1.14v-6.64c0-.38,0-.69,0-.92s0-.47,0-.71q-.21.21-.39.36c-.12.09-.26.22-.43.37l-1,.82-.61-.78,2.56-2h1Z"/><path class="cls-8" d="M321.77,280.91h-6.28v-1l2.49-2.52c.47-.48.87-.9,1.21-1.27a5.08,5.08,0,0,0,.75-1.09,2.88,2.88,0,0,0,.25-1.19,1.5,1.5,0,0,0-.47-1.19,1.77,1.77,0,0,0-1.21-.4,2.89,2.89,0,0,0-1.22.24,5.39,5.39,0,0,0-1.06.66l-.63-.78a5.66,5.66,0,0,1,1.28-.8,4.09,4.09,0,0,1,1.63-.32,3,3,0,0,1,2.1.68,2.32,2.32,0,0,1,.78,1.85,3.29,3.29,0,0,1-.31,1.39,5.52,5.52,0,0,1-.85,1.29,17.24,17.24,0,0,1-1.28,1.35l-2,2v0h4.8Z"/><path class="cls-8" d="M329.65,276.15a9.55,9.55,0,0,1-.32,2.63,3.43,3.43,0,0,1-1,1.68,2.77,2.77,0,0,1-1.83.58,2.55,2.55,0,0,1-2.37-1.3,7.07,7.07,0,0,1-.77-3.59,10.07,10.07,0,0,1,.31-2.64,3.36,3.36,0,0,1,1-1.67,2.77,2.77,0,0,1,1.82-.57,2.59,2.59,0,0,1,2.38,1.28A6.94,6.94,0,0,1,329.65,276.15Zm-5.14,0a7.23,7.23,0,0,0,.45,2.92,1.54,1.54,0,0,0,1.52,1,1.56,1.56,0,0,0,1.52-1,9.53,9.53,0,0,0,0-5.85,1.57,1.57,0,0,0-1.52-1,1.55,1.55,0,0,0-1.52,1A7.27,7.27,0,0,0,324.51,276.15Z"/><path class="cls-8" d="M337.37,280.91h-6.28v-1l2.49-2.52c.47-.48.87-.9,1.21-1.27a5.08,5.08,0,0,0,.75-1.09,2.73,2.73,0,0,0,.25-1.19,1.5,1.5,0,0,0-.47-1.19,1.77,1.77,0,0,0-1.21-.4,2.89,2.89,0,0,0-1.22.24,5.39,5.39,0,0,0-1.06.66l-.63-.78a5.66,5.66,0,0,1,1.28-.8,4.09,4.09,0,0,1,1.63-.32,3.06,3.06,0,0,1,2.11.68,2.35,2.35,0,0,1,.77,1.85,3.29,3.29,0,0,1-.31,1.39,5.52,5.52,0,0,1-.85,1.29,17.24,17.24,0,0,1-1.28,1.35l-2,2v0h4.8Z"/><path class="cls-8" d="M342.83,280.91h-1.15v-6.64c0-.38,0-.69,0-.92s0-.47,0-.71q-.21.21-.39.36c-.12.09-.26.22-.43.37l-1,.82-.61-.78,2.56-2h1Z"/><path class="cls-8" d="M261,280.91h-6.27v-1l2.48-2.52c.47-.48.87-.9,1.21-1.27a5.08,5.08,0,0,0,.75-1.09,2.73,2.73,0,0,0,.25-1.19,1.5,1.5,0,0,0-.46-1.19,1.78,1.78,0,0,0-1.21-.4,2.93,2.93,0,0,0-1.23.24,5.7,5.7,0,0,0-1.06.66l-.63-.78a5.73,5.73,0,0,1,1.29-.8,4,4,0,0,1,1.63-.32,3.05,3.05,0,0,1,2.1.68,2.35,2.35,0,0,1,.77,1.85,3.14,3.14,0,0,1-.31,1.39,5.52,5.52,0,0,1-.85,1.29,17.24,17.24,0,0,1-1.28,1.35l-2,2v0H261Z"/><path class="cls-8" d="M268.92,276.15a9.55,9.55,0,0,1-.32,2.63,3.29,3.29,0,0,1-1,1.68,2.73,2.73,0,0,1-1.83.58,2.55,2.55,0,0,1-2.37-1.3,7.07,7.07,0,0,1-.77-3.59,9.63,9.63,0,0,1,.32-2.64,3.28,3.28,0,0,1,1-1.67,2.77,2.77,0,0,1,1.82-.57,2.58,2.58,0,0,1,2.38,1.28A6.84,6.84,0,0,1,268.92,276.15Zm-5.14,0a7.23,7.23,0,0,0,.45,2.92,1.68,1.68,0,0,0,3,0,9.53,9.53,0,0,0,0-5.85,1.68,1.68,0,0,0-3,0A7.27,7.27,0,0,0,263.78,276.15Z"/><path class="cls-8" d="M276.64,280.91h-6.27v-1l2.48-2.52c.47-.48.88-.9,1.21-1.27a5.08,5.08,0,0,0,.75-1.09,2.73,2.73,0,0,0,.25-1.19,1.5,1.5,0,0,0-.46-1.19,1.78,1.78,0,0,0-1.21-.4,2.93,2.93,0,0,0-1.23.24,5.7,5.7,0,0,0-1.06.66l-.63-.78a5.73,5.73,0,0,1,1.29-.8,4,4,0,0,1,1.63-.32,3.05,3.05,0,0,1,2.1.68,2.35,2.35,0,0,1,.77,1.85,3.14,3.14,0,0,1-.31,1.39,5.22,5.22,0,0,1-.85,1.29,17.24,17.24,0,0,1-1.28,1.35l-2,2v0h4.8Z"/><path class="cls-8" d="M284.52,276.15a9.55,9.55,0,0,1-.32,2.63,3.29,3.29,0,0,1-1,1.68,2.73,2.73,0,0,1-1.83.58,2.55,2.55,0,0,1-2.37-1.3,7.07,7.07,0,0,1-.77-3.59,9.63,9.63,0,0,1,.32-2.64,3.28,3.28,0,0,1,1-1.67,2.77,2.77,0,0,1,1.82-.57,2.58,2.58,0,0,1,2.38,1.28A6.84,6.84,0,0,1,284.52,276.15Zm-5.14,0a7.23,7.23,0,0,0,.45,2.92,1.55,1.55,0,0,0,1.52,1,1.58,1.58,0,0,0,1.53-1,9.73,9.73,0,0,0,0-5.85,1.59,1.59,0,0,0-1.53-1,1.56,1.56,0,0,0-1.52,1A7.27,7.27,0,0,0,279.38,276.15Z"/><path class="cls-8" d="M140.31,280.91H134v-1l2.49-2.52c.47-.48.87-.9,1.2-1.27a5.08,5.08,0,0,0,.75-1.09,2.73,2.73,0,0,0,.25-1.19,1.5,1.5,0,0,0-.46-1.19,1.78,1.78,0,0,0-1.21-.4,2.93,2.93,0,0,0-1.23.24,5.7,5.7,0,0,0-1.06.66l-.62-.78a5.66,5.66,0,0,1,1.28-.8,4,4,0,0,1,1.63-.32,3,3,0,0,1,2.1.68,2.35,2.35,0,0,1,.77,1.85,3.28,3.28,0,0,1-.3,1.39,5.58,5.58,0,0,1-.86,1.29c-.36.43-.79.88-1.27,1.35l-2,2v0h4.8Z"/><path class="cls-8" d="M148.18,276.15a9.55,9.55,0,0,1-.32,2.63,3.29,3.29,0,0,1-1,1.68A2.73,2.73,0,0,1,145,281a2.55,2.55,0,0,1-2.37-1.3,7.07,7.07,0,0,1-.76-3.59,9.66,9.66,0,0,1,.31-2.64,3.35,3.35,0,0,1,1-1.67,2.77,2.77,0,0,1,1.82-.57,2.61,2.61,0,0,1,2.39,1.28A7,7,0,0,1,148.18,276.15Zm-5.13,0a7.26,7.26,0,0,0,.44,2.92,1.55,1.55,0,0,0,1.52,1,1.58,1.58,0,0,0,1.53-1,9.53,9.53,0,0,0,0-5.85,1.59,1.59,0,0,0-1.53-1,1.57,1.57,0,0,0-1.52,1A7.29,7.29,0,0,0,143.05,276.15Z"/><path class="cls-8" d="M153.63,280.91h-1.14v-6.64c0-.38,0-.69,0-.92s0-.47,0-.71q-.21.21-.39.36c-.12.09-.26.22-.43.37l-1,.82-.61-.78,2.56-2h1Z"/><path class="cls-8" d="M160.47,280.91h-1.14v-6.64c0-.38,0-.69,0-.92s0-.47,0-.71q-.21.21-.39.36c-.12.09-.27.22-.44.37l-1,.82-.61-.78,2.57-2h1Z"/></g><polyline class="cls-4" points="892.71 212.1 892.71 236.83 859.37 236.83 859.37 212.34"/><polygon class="cls-5" points="893.19 237.3 858.89 237.3 858.89 212.34 859.84 212.34 859.84 236.35 892.24 236.35 892.24 212.1 893.19 212.1 893.19 237.3"/><path class="cls-6" d="M268.44,51.38a2.13,2.13,0,0,1-.54,1.53,2.78,2.78,0,0,1-1.43.75v.05a2.7,2.7,0,0,1,1.69.72,2.1,2.1,0,0,1,.57,1.53,2.8,2.8,0,0,1-.39,1.48,2.52,2.52,0,0,1-1.19,1,5.06,5.06,0,0,1-2.07.36,8.58,8.58,0,0,1-1.38-.11,4.5,4.5,0,0,1-1.22-.41V57.18a5.51,5.51,0,0,0,1.29.47,5.68,5.68,0,0,0,1.33.16,2.77,2.77,0,0,0,1.84-.5,1.73,1.73,0,0,0,.57-1.38,1.37,1.37,0,0,0-.7-1.28,4.08,4.08,0,0,0-2-.39h-.92v-1h.93a2.73,2.73,0,0,0,1.77-.49,1.59,1.59,0,0,0,.61-1.31,1.32,1.32,0,0,0-.47-1.07,2,2,0,0,0-1.26-.38,3.5,3.5,0,0,0-1.32.23,6.52,6.52,0,0,0-1.07.57l-.59-.8a5.32,5.32,0,0,1,1.26-.69A4.79,4.79,0,0,1,265.5,49a3.14,3.14,0,0,1,2.21.67A2.19,2.19,0,0,1,268.44,51.38Z"/><path class="cls-6" d="M276.91,53.9a9.55,9.55,0,0,1-.32,2.63,3.29,3.29,0,0,1-1,1.68,2.73,2.73,0,0,1-1.83.58,2.56,2.56,0,0,1-2.37-1.29,7.13,7.13,0,0,1-.77-3.6,9.63,9.63,0,0,1,.32-2.64,3.21,3.21,0,0,1,1-1.66,2.72,2.72,0,0,1,1.82-.58,2.58,2.58,0,0,1,2.38,1.28A6.87,6.87,0,0,1,276.91,53.9Zm-5.14,0a7.23,7.23,0,0,0,.45,2.92,1.55,1.55,0,0,0,1.52,1,1.59,1.59,0,0,0,1.53-1,7.25,7.25,0,0,0,.45-2.93,7.18,7.18,0,0,0-.45-2.91,1.59,1.59,0,0,0-1.53-1,1.55,1.55,0,0,0-1.52,1A7.18,7.18,0,0,0,271.77,53.9Z"/><path class="cls-6" d="M329,47.9a2.13,2.13,0,0,1-.53,1.52,2.64,2.64,0,0,1-1.43.75v.06a2.73,2.73,0,0,1,1.69.72,2.1,2.1,0,0,1,.57,1.53A2.76,2.76,0,0,1,329,54a2.53,2.53,0,0,1-1.19,1,5.12,5.12,0,0,1-2.07.36,7.47,7.47,0,0,1-1.38-.12,4.37,4.37,0,0,1-1.22-.4V53.7a5.18,5.18,0,0,0,1.29.46,5.68,5.68,0,0,0,1.33.16,2.72,2.72,0,0,0,1.84-.5,1.75,1.75,0,0,0,.56-1.37,1.35,1.35,0,0,0-.69-1.28,4,4,0,0,0-2-.4h-.91v-1h.93a2.73,2.73,0,0,0,1.77-.49,1.57,1.57,0,0,0,.61-1.3,1.3,1.3,0,0,0-.47-1.07,2,2,0,0,0-1.26-.38,3.47,3.47,0,0,0-1.32.23,7,7,0,0,0-1.08.57l-.58-.8a4.69,4.69,0,0,1,1.26-.69,4.56,4.56,0,0,1,1.7-.29,3.2,3.2,0,0,1,2.22.66A2.2,2.2,0,0,1,329,47.9Z"/><path class="cls-6" d="M337.52,50.41a9.63,9.63,0,0,1-.32,2.64,3.37,3.37,0,0,1-1,1.67,2.77,2.77,0,0,1-1.83.59A2.55,2.55,0,0,1,332,54a7.08,7.08,0,0,1-.77-3.6,10,10,0,0,1,.31-2.63,3.32,3.32,0,0,1,1-1.67,2.78,2.78,0,0,1,1.82-.58,2.6,2.6,0,0,1,2.38,1.29A6.9,6.9,0,0,1,337.52,50.41Zm-5.14,0a7.29,7.29,0,0,0,.45,2.93,1.54,1.54,0,0,0,1.52,1,1.56,1.56,0,0,0,1.52-1,7.11,7.11,0,0,0,.46-2.94,7,7,0,0,0-.46-2.91,1.55,1.55,0,0,0-1.52-1,1.54,1.54,0,0,0-1.52,1A7.24,7.24,0,0,0,332.38,50.41Z"/><path class="cls-8" d="M32,264.38v-1h3.22v1Z"/><path class="cls-8" d="M40.5,267.43H39.36v-6.64c0-.38,0-.68,0-.91s0-.47,0-.72q-.21.21-.39.36a5.49,5.49,0,0,0-.43.37l-1,.82-.61-.78,2.57-2h1Z"/><path class="cls-8" d="M50.34,262.67A9.14,9.14,0,0,1,50,265.3,3.35,3.35,0,0,1,49,267a2.77,2.77,0,0,1-1.83.58,2.57,2.57,0,0,1-2.38-1.29,7.14,7.14,0,0,1-.76-3.6,9.53,9.53,0,0,1,.31-2.63,3.26,3.26,0,0,1,1-1.67,2.75,2.75,0,0,1,1.83-.58,2.6,2.6,0,0,1,2.38,1.28A7,7,0,0,1,50.34,262.67Zm-5.13,0a7.44,7.44,0,0,0,.44,2.92,1.68,1.68,0,0,0,3.05,0,7.06,7.06,0,0,0,.46-2.93,7,7,0,0,0-.46-2.91,1.68,1.68,0,0,0-3.05,0A7.39,7.39,0,0,0,45.21,262.67Z"/><path class="cls-8" d="M39.64,239.66v-1h3.21v1Z"/><path class="cls-8" d="M47,236.88a3.51,3.51,0,0,1,2.33.73,2.55,2.55,0,0,1,.87,2.06A3,3,0,0,1,49.3,242a3.75,3.75,0,0,1-2.61.85,7.55,7.55,0,0,1-1.39-.13,3.8,3.8,0,0,1-1.08-.39v-1.1a4.2,4.2,0,0,0,1.17.45,5.07,5.07,0,0,0,1.31.17,2.7,2.7,0,0,0,1.69-.5,1.84,1.84,0,0,0,.65-1.55,1.81,1.81,0,0,0-.57-1.43,2.74,2.74,0,0,0-1.81-.5,7.08,7.08,0,0,0-.85.07c-.32,0-.58.09-.77.13l-.59-.37.36-4.48h4.76v1.06H45.81L45.58,237l.61-.1A7.34,7.34,0,0,1,47,236.88Z"/><path class="cls-8" d="M50.34,213.22a9.14,9.14,0,0,1-.32,2.63,3.35,3.35,0,0,1-1,1.68,2.77,2.77,0,0,1-1.83.58,2.57,2.57,0,0,1-2.38-1.29,7.14,7.14,0,0,1-.76-3.6,9.53,9.53,0,0,1,.31-2.63,3.26,3.26,0,0,1,1-1.67,2.75,2.75,0,0,1,1.83-.58,2.62,2.62,0,0,1,2.38,1.28A7,7,0,0,1,50.34,213.22Zm-5.13,0a7.53,7.53,0,0,0,.44,2.93,1.68,1.68,0,0,0,3.05,0,7.06,7.06,0,0,0,.46-2.93,7,7,0,0,0-.46-2.91,1.68,1.68,0,0,0-3.05,0A7.39,7.39,0,0,0,45.21,213.22Z"/><path class="cls-8" d="M47,187.43a3.51,3.51,0,0,1,2.33.73,2.55,2.55,0,0,1,.87,2.06,3,3,0,0,1-.94,2.32,3.75,3.75,0,0,1-2.61.85,7.55,7.55,0,0,1-1.39-.13,3.8,3.8,0,0,1-1.08-.39v-1.1a4.53,4.53,0,0,0,1.17.46,5.52,5.52,0,0,0,1.31.16,2.64,2.64,0,0,0,1.69-.5,1.84,1.84,0,0,0,.65-1.55,1.81,1.81,0,0,0-.57-1.43,2.74,2.74,0,0,0-1.81-.49,6.9,6.9,0,0,0-.85.06l-.77.13-.59-.37.36-4.48h4.76v1.06H45.81l-.23,2.76.61-.1A7.34,7.34,0,0,1,47,187.43Z"/><path class="cls-8" d="M40.5,168.53H39.36v-6.64c0-.38,0-.68,0-.91s0-.47,0-.72q-.21.21-.39.36c-.12.1-.27.22-.43.37l-1,.82L37,161l2.57-2h1Z"/><path class="cls-8" d="M50.34,163.77A9.14,9.14,0,0,1,50,166.4a3.35,3.35,0,0,1-1,1.68,2.77,2.77,0,0,1-1.83.58,2.57,2.57,0,0,1-2.38-1.29,7.14,7.14,0,0,1-.76-3.6,9.53,9.53,0,0,1,.31-2.63,3.26,3.26,0,0,1,1-1.67,2.75,2.75,0,0,1,1.83-.58,2.62,2.62,0,0,1,2.38,1.28A7,7,0,0,1,50.34,163.77Zm-5.13,0a7.53,7.53,0,0,0,.44,2.93,1.68,1.68,0,0,0,3.05,0,9.5,9.5,0,0,0,0-5.84,1.68,1.68,0,0,0-3.05,0A7.42,7.42,0,0,0,45.21,163.77Z"/><path class="cls-8" d="M40.5,143.81H39.36v-6.64c0-.38,0-.69,0-.92s0-.47,0-.72a3.06,3.06,0,0,1-.39.36c-.12.1-.27.22-.43.38l-1,.82-.61-.78,2.57-2h1Z"/><path class="cls-8" d="M47,138a3.57,3.57,0,0,1,2.33.73,2.55,2.55,0,0,1,.87,2.06,3,3,0,0,1-.94,2.33,3.79,3.79,0,0,1-2.61.84,6.77,6.77,0,0,1-1.39-.13,3.8,3.8,0,0,1-1.08-.39v-1.1a4.2,4.2,0,0,0,1.17.46,5.52,5.52,0,0,0,1.31.16,2.64,2.64,0,0,0,1.69-.5,1.84,1.84,0,0,0,.65-1.55,1.81,1.81,0,0,0-.57-1.43,2.74,2.74,0,0,0-1.81-.49,6.9,6.9,0,0,0-.85.06c-.32.05-.58.09-.77.14l-.59-.38.36-4.48h4.76v1.06H45.81l-.23,2.76.61-.1A7.34,7.34,0,0,1,47,138Z"/><path class="cls-8" d="M42.7,119.08H36.42v-1l2.48-2.51c.47-.48.88-.91,1.21-1.28a4.85,4.85,0,0,0,.75-1.09,2.68,2.68,0,0,0,.25-1.18,1.48,1.48,0,0,0-.46-1.19,1.74,1.74,0,0,0-1.21-.41,2.93,2.93,0,0,0-1.23.24,5.7,5.7,0,0,0-1.06.66l-.63-.78a5.71,5.71,0,0,1,1.29-.79,3.86,3.86,0,0,1,1.63-.33,3.1,3.1,0,0,1,2.1.68,2.35,2.35,0,0,1,.77,1.85,3.18,3.18,0,0,1-.31,1.4,5.62,5.62,0,0,1-.85,1.29c-.36.42-.79.87-1.27,1.34l-2,1.95V118H42.7Z"/><path class="cls-8" d="M50.34,114.32A9.14,9.14,0,0,1,50,117a3.35,3.35,0,0,1-1,1.68,2.77,2.77,0,0,1-1.83.58,2.57,2.57,0,0,1-2.38-1.29,7.14,7.14,0,0,1-.76-3.6,9.53,9.53,0,0,1,.31-2.63,3.26,3.26,0,0,1,1-1.67,2.75,2.75,0,0,1,1.83-.58,2.62,2.62,0,0,1,2.38,1.28A7,7,0,0,1,50.34,114.32Zm-5.13,0a7.53,7.53,0,0,0,.44,2.93,1.68,1.68,0,0,0,3.05,0,9.5,9.5,0,0,0,0-5.84,1.68,1.68,0,0,0-3.05,0A7.42,7.42,0,0,0,45.21,114.32Z"/><path class="cls-8" d="M42.7,94.36H36.42v-1l2.48-2.52c.47-.48.88-.9,1.21-1.27a4.89,4.89,0,0,0,.75-1.1,2.65,2.65,0,0,0,.25-1.18,1.5,1.5,0,0,0-.46-1.19,1.78,1.78,0,0,0-1.21-.4,3.1,3.1,0,0,0-1.23.23,5.78,5.78,0,0,0-1.06.67l-.63-.79a5.71,5.71,0,0,1,1.29-.79,4,4,0,0,1,1.63-.32,3.05,3.05,0,0,1,2.1.68,2.33,2.33,0,0,1,.77,1.84,3.15,3.15,0,0,1-.31,1.4,5.22,5.22,0,0,1-.85,1.29c-.36.43-.79.87-1.27,1.34l-2,2v.05H42.7Z"/><path class="cls-8" d="M47,88.53a3.57,3.57,0,0,1,2.33.73,2.55,2.55,0,0,1,.87,2.06,3,3,0,0,1-.94,2.33,3.79,3.79,0,0,1-2.61.84,6.77,6.77,0,0,1-1.39-.13A3.8,3.8,0,0,1,44.22,94v-1.1a4.2,4.2,0,0,0,1.17.46,5.52,5.52,0,0,0,1.31.16,2.64,2.64,0,0,0,1.69-.5A1.84,1.84,0,0,0,49,91.44,1.81,1.81,0,0,0,48.47,90a2.74,2.74,0,0,0-1.81-.49,6.9,6.9,0,0,0-.85.06c-.32,0-.58.09-.77.14l-.59-.38.36-4.48h4.76v1.06H45.81l-.23,2.76.61-.1A7.34,7.34,0,0,1,47,88.53Z"/><path class="cls-8" d="M42.34,62.36a2.11,2.11,0,0,1-.54,1.52,2.64,2.64,0,0,1-1.43.75v.05a2.7,2.7,0,0,1,1.69.72,2.1,2.1,0,0,1,.57,1.53,2.8,2.8,0,0,1-.39,1.48,2.54,2.54,0,0,1-1.19,1,5.06,5.06,0,0,1-2.07.36,7.54,7.54,0,0,1-1.38-.12,4.48,4.48,0,0,1-1.22-.4V68.16a5.49,5.49,0,0,0,1.29.46,5.68,5.68,0,0,0,1.33.16,2.77,2.77,0,0,0,1.84-.5,1.72,1.72,0,0,0,.57-1.37,1.37,1.37,0,0,0-.7-1.29,4.08,4.08,0,0,0-2-.39h-.92v-1h.93a2.73,2.73,0,0,0,1.77-.49,1.58,1.58,0,0,0,.61-1.3,1.3,1.3,0,0,0-.47-1.07A1.9,1.9,0,0,0,39.41,61a3.51,3.51,0,0,0-1.32.22,5.9,5.9,0,0,0-1.07.58l-.59-.8a4.69,4.69,0,0,1,1.26-.69A4.57,4.57,0,0,1,39.4,60a3.19,3.19,0,0,1,2.21.67A2.19,2.19,0,0,1,42.34,62.36Z"/><path class="cls-8" d="M50.34,64.87A9.14,9.14,0,0,1,50,67.5a3.35,3.35,0,0,1-1,1.68,2.77,2.77,0,0,1-1.83.59,2.58,2.58,0,0,1-2.38-1.3,7.14,7.14,0,0,1-.76-3.6,9.53,9.53,0,0,1,.31-2.63,3.26,3.26,0,0,1,1-1.67A2.75,2.75,0,0,1,47.18,60a2.62,2.62,0,0,1,2.38,1.28A7,7,0,0,1,50.34,64.87Zm-5.13,0a7.53,7.53,0,0,0,.44,2.93,1.68,1.68,0,0,0,3.05,0,7.06,7.06,0,0,0,.46-2.93A7,7,0,0,0,48.7,62a1.68,1.68,0,0,0-3.05,0A7.45,7.45,0,0,0,45.21,64.87Z"/><path class="cls-8" d="M42.34,37.63a2.09,2.09,0,0,1-.54,1.52,2.72,2.72,0,0,1-1.43.76V40a2.7,2.7,0,0,1,1.69.72,2.1,2.1,0,0,1,.57,1.53,2.74,2.74,0,0,1-.39,1.47,2.48,2.48,0,0,1-1.19,1A5.06,5.06,0,0,1,39,45a8.58,8.58,0,0,1-1.38-.11,4.5,4.5,0,0,1-1.22-.41V43.43a6,6,0,0,0,1.29.47,6.26,6.26,0,0,0,1.33.16,2.77,2.77,0,0,0,1.84-.5,1.74,1.74,0,0,0,.57-1.38,1.37,1.37,0,0,0-.7-1.28,4.07,4.07,0,0,0-2-.4h-.92v-1h.93A2.79,2.79,0,0,0,40.53,39a1.6,1.6,0,0,0,.61-1.31,1.3,1.3,0,0,0-.47-1.07,2,2,0,0,0-1.26-.38,3.5,3.5,0,0,0-1.32.23,6.52,6.52,0,0,0-1.07.57l-.59-.8a5.32,5.32,0,0,1,1.26-.69,4.79,4.79,0,0,1,1.71-.29,3.19,3.19,0,0,1,2.21.66A2.22,2.22,0,0,1,42.34,37.63Z"/><path class="cls-8" d="M47,39.08a3.57,3.57,0,0,1,2.33.73,2.56,2.56,0,0,1,.87,2.07,3,3,0,0,1-.94,2.32,3.79,3.79,0,0,1-2.61.84,6.77,6.77,0,0,1-1.39-.13,3.8,3.8,0,0,1-1.08-.39v-1.1a4.2,4.2,0,0,0,1.17.46A5.52,5.52,0,0,0,46.7,44a2.64,2.64,0,0,0,1.69-.5A1.84,1.84,0,0,0,49,42a1.81,1.81,0,0,0-.57-1.43,2.74,2.74,0,0,0-1.81-.49,6.9,6.9,0,0,0-.85.06c-.32,0-.58.09-.77.14l-.59-.38.36-4.48h4.76v1.07H45.81l-.23,2.75.61-.09A5.57,5.57,0,0,1,47,39.08Z"/><rect class="cls-8" x="57.75" y="236.82" width="5.39" height="0.47"/><rect class="cls-8" x="57.75" y="187.38" width="5.39" height="0.47"/><rect class="cls-8" x="57.75" y="162.65" width="5.39" height="0.47"/><rect class="cls-8" x="57.75" y="137.93" width="5.39" height="0.47"/><rect class="cls-8" x="57.75" y="113.21" width="5.39" height="0.47"/><rect class="cls-8" x="57.75" y="88.48" width="5.39" height="0.47"/><polygon class="cls-8" points="57.51 262.03 57.51 39.04 63.14 39.04 63.14 39.51 57.99 39.51 57.99 261.55 63.13 261.55 63.13 262.02 57.51 262.03"/><path class="cls-6" d="M138.2,95.34h-6.28v-1l2.49-2.51c.47-.48.87-.91,1.2-1.28a4.64,4.64,0,0,0,.75-1.09,2.68,2.68,0,0,0,.25-1.18,1.48,1.48,0,0,0-.46-1.19,1.79,1.79,0,0,0-1.21-.41,2.93,2.93,0,0,0-1.23.24,5.7,5.7,0,0,0-1.06.66l-.63-.78a5.94,5.94,0,0,1,1.29-.79,3.86,3.86,0,0,1,1.63-.33,3.1,3.1,0,0,1,2.1.68,2.35,2.35,0,0,1,.77,1.85,3.18,3.18,0,0,1-.31,1.4,5.62,5.62,0,0,1-.85,1.29c-.36.42-.79.87-1.27,1.34l-2,2v0h4.8Z"/><path class="cls-6" d="M146.28,95.34H140v-1l2.49-2.51c.47-.48.87-.91,1.21-1.28a4.64,4.64,0,0,0,.75-1.09,2.68,2.68,0,0,0,.25-1.18,1.49,1.49,0,0,0-.47-1.19,1.77,1.77,0,0,0-1.21-.41,2.89,2.89,0,0,0-1.22.24,5.39,5.39,0,0,0-1.06.66l-.63-.78A5.49,5.49,0,0,1,141.4,86a3.84,3.84,0,0,1,1.62-.33,3.11,3.11,0,0,1,2.11.68,2.35,2.35,0,0,1,.77,1.85,3.33,3.33,0,0,1-.31,1.4,6,6,0,0,1-.85,1.29c-.36.42-.79.87-1.28,1.34l-2,2v0h4.8Z"/><rect class="cls-8" x="57.64" y="212.06" width="909.26" height="0.47"/><g class="cls-7"><path class="cls-8" d="M4.45,256.81a3.41,3.41,0,0,0,1.17,2.75,4.76,4.76,0,0,0,3.2,1,5,5,0,0,0,3.2-.94,3.35,3.35,0,0,0,1.18-2.8,7.26,7.26,0,0,0-.12-1.34,12.85,12.85,0,0,0-.3-1.26H14a7.43,7.43,0,0,1,.34,1.25,9.9,9.9,0,0,1,.1,1.55,5.23,5.23,0,0,1-.68,2.76,4.26,4.26,0,0,1-2,1.67,7.31,7.31,0,0,1-3,.55,6.65,6.65,0,0,1-2.9-.6,4.54,4.54,0,0,1-2-1.77,5.41,5.41,0,0,1-.7-2.84,6.7,6.7,0,0,1,.63-3l1.16.55a9.08,9.08,0,0,0-.41,1.12A4.77,4.77,0,0,0,4.45,256.81Z"/><path class="cls-8" d="M6,248.61a3.17,3.17,0,0,1,.65-2.21,2.69,2.69,0,0,1,2.08-.71h5.55v1l-1.16.26V247a3.63,3.63,0,0,1,1,1.12,3.36,3.36,0,0,1,.32,1.61,2.83,2.83,0,0,1-.58,1.84,2.2,2.2,0,0,1-1.83.73,2.15,2.15,0,0,1-1.88-.95,5.56,5.56,0,0,1-.72-3L9.34,247H8.85a1.84,1.84,0,0,0-1.41.44,1.84,1.84,0,0,0-.4,1.25,3.81,3.81,0,0,0,.2,1.22A8.68,8.68,0,0,0,7.67,251l-1,.41a6,6,0,0,1-.5-1.27A5.4,5.4,0,0,1,6,248.61Zm4.3-1.6,0,1.2a4.06,4.06,0,0,0,.49,2.1,1.37,1.37,0,0,0,1.2.59,1.16,1.16,0,0,0,1-.42,1.66,1.66,0,0,0,.32-1.07,2.6,2.6,0,0,0-.57-1.71A2.13,2.13,0,0,0,11,247Z"/><path class="cls-8" d="M6,239.17c0-.16,0-.32,0-.49s0-.33.07-.47l1.23.17a4.08,4.08,0,0,0-.07.44,3.49,3.49,0,0,0,0,.44,2.18,2.18,0,0,0,.34,1.17,2.53,2.53,0,0,0,1,.87,3,3,0,0,0,1.43.33h4.35V243H6.1v-1.1l1.49-.15v-.06a3.81,3.81,0,0,1-1.15-1A2.33,2.33,0,0,1,6,239.17Z"/><path class="cls-8" d="M2.7,235H5.51l1,0,.7.06V235a2.78,2.78,0,0,1-.86-1A3,3,0,0,1,6,232.48,3.07,3.07,0,0,1,7,230a4.73,4.73,0,0,1,3.16-.92,4.68,4.68,0,0,1,3.16.93,3,3,0,0,1,1.06,2.43,3,3,0,0,1-.35,1.56,2.92,2.92,0,0,1-.83,1v.11l1,.27v1H2.7Zm4.38-2.29a2,2,0,0,0,.74,1.8,4.27,4.27,0,0,0,2.31.49h.06a4.39,4.39,0,0,0,2.3-.49,2,2,0,0,0,.8-1.83,1.86,1.86,0,0,0-.8-1.64,4.2,4.2,0,0,0-2.33-.54C8.1,230.5,7.08,231.24,7.08,232.71Z"/><path class="cls-8" d="M10.16,219.6a4.45,4.45,0,0,1,3.13,1,3.59,3.59,0,0,1,1.11,2.77,3.77,3.77,0,0,1-.49,1.93,3.47,3.47,0,0,1-1.45,1.33,5,5,0,0,1-2.3.48,4.41,4.41,0,0,1-3.12-1A3.61,3.61,0,0,1,6,223.36a3.92,3.92,0,0,1,.49-2,3.47,3.47,0,0,1,1.43-1.33A5,5,0,0,1,10.16,219.6Zm0,6.16a4,4,0,0,0,2.29-.57,2.38,2.38,0,0,0,0-3.63,4,4,0,0,0-2.29-.57,3.89,3.89,0,0,0-2.26.57,2.09,2.09,0,0,0-.82,1.83,2,2,0,0,0,.82,1.81A4,4,0,0,0,10.16,225.76Z"/><path class="cls-8" d="M6,213.34a3,3,0,0,1,.72-2.2A3,3,0,0,1,9,210.39h5.3v1.32H9c-1.31,0-2,.61-2,1.83a2.1,2.1,0,0,0,.76,1.87,3.88,3.88,0,0,0,2.18.52h4.23v1.33H6.1v-1.08L7.21,216v-.08a2.46,2.46,0,0,1-1-1.09A3.57,3.57,0,0,1,6,213.34Z"/><path class="cls-8" d="M14.25,197.67v6.07H3.4v-6.07H4.6v4.7H8v-4.43H9.17v4.43h3.88v-4.7Z"/><path class="cls-8" d="M6,186.44a2.74,2.74,0,0,1,.72-2.07A3.17,3.17,0,0,1,9,183.69h5.3V185H9c-1.29,0-1.93.55-1.93,1.66a2,2,0,0,0,.68,1.69,3.3,3.3,0,0,0,2,.51h4.5v1.32H9c-1.29,0-1.93.56-1.93,1.67a1.84,1.84,0,0,0,.76,1.71A4.18,4.18,0,0,0,10,194h4.23v1.34H6.1V194.3l1.11-.2V194a2.4,2.4,0,0,1-1-1A3.1,3.1,0,0,1,6,191.62a2.4,2.4,0,0,1,1.37-2.49v-.08a2.45,2.45,0,0,1-1-1.11A3.33,3.33,0,0,1,6,186.44Z"/><path class="cls-8" d="M3.05,180.3a.8.8,0,0,1,.2-.54.82.82,0,0,1,.65-.24.79.79,0,0,1,.64.24.76.76,0,0,1,.21.54.79.79,0,0,1-.21.56.82.82,0,0,1-.64.23.86.86,0,0,1-.65-.23A.83.83,0,0,1,3.05,180.3Zm3.05-.66h8.15V181H6.1Z"/><path class="cls-8" d="M12,171.54a2,2,0,0,1,1.79.88,4.08,4.08,0,0,1,.61,2.37,7,7,0,0,1-.13,1.47,4.65,4.65,0,0,1-.39,1.09H12.67a8.15,8.15,0,0,0,.45-1.18,5.16,5.16,0,0,0,.2-1.41,2.65,2.65,0,0,0-.32-1.47,1,1,0,0,0-.88-.46.94.94,0,0,0-.54.17,1.64,1.64,0,0,0-.49.6,9.3,9.3,0,0,0-.55,1.24,9.72,9.72,0,0,1-.61,1.35,2.36,2.36,0,0,1-.73.87,1.83,1.83,0,0,1-1.09.3,1.82,1.82,0,0,1-1.6-.84A4,4,0,0,1,6,174.31a6.11,6.11,0,0,1,.15-1.39,7.15,7.15,0,0,1,.4-1.21l1.06.46a9,9,0,0,0-.36,1.07A4.51,4.51,0,0,0,7,174.4a2.34,2.34,0,0,0,.27,1.25.82.82,0,0,0,.72.44.85.85,0,0,0,.58-.2,2.08,2.08,0,0,0,.46-.66c.15-.31.32-.72.51-1.24a9.27,9.27,0,0,1,.6-1.32,2.25,2.25,0,0,1,.73-.84A1.94,1.94,0,0,1,12,171.54Z"/><path class="cls-8" d="M12,163.91a2,2,0,0,1,1.79.88,4.08,4.08,0,0,1,.61,2.37,7,7,0,0,1-.13,1.47,4.65,4.65,0,0,1-.39,1.09H12.67a8.15,8.15,0,0,0,.45-1.18,5.16,5.16,0,0,0,.2-1.41,2.65,2.65,0,0,0-.32-1.47,1,1,0,0,0-.88-.46.94.94,0,0,0-.54.17,1.64,1.64,0,0,0-.49.6,9.3,9.3,0,0,0-.55,1.24,9.72,9.72,0,0,1-.61,1.35,2.36,2.36,0,0,1-.73.87,1.83,1.83,0,0,1-1.09.3,1.82,1.82,0,0,1-1.6-.84A4,4,0,0,1,6,166.68a6.11,6.11,0,0,1,.15-1.39,7.15,7.15,0,0,1,.4-1.21l1.06.46a9,9,0,0,0-.36,1.07A4.51,4.51,0,0,0,7,166.77,2.37,2.37,0,0,0,7.31,168a.82.82,0,0,0,.72.44.85.85,0,0,0,.58-.2,2.08,2.08,0,0,0,.46-.66c.15-.31.32-.72.51-1.24a9.27,9.27,0,0,1,.6-1.32,2.25,2.25,0,0,1,.73-.84A1.94,1.94,0,0,1,12,163.91Z"/><path class="cls-8" d="M3.05,161.1a.84.84,0,0,1,.2-.54.82.82,0,0,1,.65-.24.79.79,0,0,1,.64.24.83.83,0,0,1,0,1.1.82.82,0,0,1-.64.23.86.86,0,0,1-.65-.23A.83.83,0,0,1,3.05,161.1Zm3.05-.65h8.15v1.33H6.1Z"/><path class="cls-8" d="M10.16,150.57a4.45,4.45,0,0,1,3.13,1,3.61,3.61,0,0,1,1.11,2.78,3.71,3.71,0,0,1-.49,1.92,3.47,3.47,0,0,1-1.45,1.33,5,5,0,0,1-2.3.49,4.41,4.41,0,0,1-3.12-1A3.6,3.6,0,0,1,6,154.32a3.85,3.85,0,0,1,.49-1.94A3.43,3.43,0,0,1,7.87,151,5.14,5.14,0,0,1,10.16,150.57Zm0,6.15a4,4,0,0,0,2.29-.57,2.37,2.37,0,0,0,0-3.62,4,4,0,0,0-2.29-.58,3.82,3.82,0,0,0-2.26.58,2.06,2.06,0,0,0-.82,1.82,2,2,0,0,0,.82,1.81A3.9,3.9,0,0,0,10.16,156.72Z"/><path class="cls-8" d="M6,144.3a3.05,3.05,0,0,1,.72-2.2A3,3,0,0,1,9,141.35h5.3v1.33H9c-1.31,0-2,.61-2,1.82a2.09,2.09,0,0,0,.76,1.87,3.8,3.8,0,0,0,2.18.52h4.23v1.34H6.1v-1.08l1.11-.2v-.08a2.46,2.46,0,0,1-1-1.09A3.57,3.57,0,0,1,6,144.3Z"/><path class="cls-8" d="M12,133.3a2,2,0,0,1,1.79.88,4.08,4.08,0,0,1,.61,2.37,7,7,0,0,1-.13,1.47,4.65,4.65,0,0,1-.39,1.09H12.67a8.15,8.15,0,0,0,.45-1.18,5.16,5.16,0,0,0,.2-1.41,2.62,2.62,0,0,0-.32-1.47,1,1,0,0,0-.88-.46.94.94,0,0,0-.54.17,1.64,1.64,0,0,0-.49.6,9.3,9.3,0,0,0-.55,1.24A10.29,10.29,0,0,1,9.93,138a2.44,2.44,0,0,1-.73.87,1.83,1.83,0,0,1-1.09.3,1.82,1.82,0,0,1-1.6-.84A4,4,0,0,1,6,136.07a6.26,6.26,0,0,1,.15-1.4,7,7,0,0,1,.4-1.2l1.06.45A9.77,9.77,0,0,0,7.2,135,4.51,4.51,0,0,0,7,136.16a2.39,2.39,0,0,0,.27,1.25.81.81,0,0,0,.72.43.85.85,0,0,0,.58-.19,2.34,2.34,0,0,0,.46-.66c.15-.31.32-.73.51-1.24a10,10,0,0,1,.6-1.33,2.29,2.29,0,0,1,.73-.83A1.94,1.94,0,0,1,12,133.3Z"/><path class="cls-8" d="M10.08,128.06a11.88,11.88,0,0,1-3.57-.54,9,9,0,0,1-3.11-1.7v-1.26a10.47,10.47,0,0,0,3.14,1.6,11.72,11.72,0,0,0,3.53.54,11.32,11.32,0,0,0,3.46-.54,10.7,10.7,0,0,0,3.12-1.59v1.25a8.56,8.56,0,0,1-3,1.7A11.59,11.59,0,0,1,10.08,128.06Z"/><path class="cls-8" d="M6,114.12a2.74,2.74,0,0,1,.72-2.07A3.17,3.17,0,0,1,9,111.37h5.3v1.32H9c-1.29,0-1.93.55-1.93,1.66A2,2,0,0,0,7.76,116a3.3,3.3,0,0,0,2,.51h4.5v1.32H9c-1.29,0-1.93.56-1.93,1.67a1.85,1.85,0,0,0,.76,1.71,4.18,4.18,0,0,0,2.18.47h4.23v1.33H6.1V122l1.11-.2v-.08a2.4,2.4,0,0,1-1-1A3.1,3.1,0,0,1,6,119.3a2.4,2.4,0,0,1,1.37-2.49v-.08a2.45,2.45,0,0,1-1-1.11A3.33,3.33,0,0,1,6,114.12Z"/><path class="cls-8" d="M3.05,108a.8.8,0,0,1,.2-.54.82.82,0,0,1,.65-.24.79.79,0,0,1,.64.24.76.76,0,0,1,.21.54.79.79,0,0,1-.21.56.82.82,0,0,1-.64.23.86.86,0,0,1-.65-.23A.83.83,0,0,1,3.05,108Zm3.05-.66h8.15v1.34H6.1Z"/><path class="cls-8" d="M14.25,103.23v1.34H2.7v-1.34Z"/><path class="cls-8" d="M14.25,99.15v1.33H2.7V99.15Z"/><path class="cls-8" d="M3.05,95.7a.8.8,0,0,1,.2-.54.82.82,0,0,1,.65-.24.79.79,0,0,1,.64.24.76.76,0,0,1,.21.54.79.79,0,0,1-.21.56.82.82,0,0,1-.64.23.86.86,0,0,1-.65-.23A.83.83,0,0,1,3.05,95.7ZM6.1,95h8.15v1.34H6.1Z"/><path class="cls-8" d="M10.16,85.16a4.41,4.41,0,0,1,3.13,1A3.59,3.59,0,0,1,14.4,89a3.71,3.71,0,0,1-.49,1.92,3.35,3.35,0,0,1-1.45,1.33,4.92,4.92,0,0,1-2.3.49,4.45,4.45,0,0,1-3.12-1A3.61,3.61,0,0,1,6,88.92a3.92,3.92,0,0,1,.49-2,3.41,3.41,0,0,1,1.43-1.33A5,5,0,0,1,10.16,85.16Zm0,6.16a4,4,0,0,0,2.29-.57,2.38,2.38,0,0,0,0-3.63,4,4,0,0,0-2.29-.58,3.89,3.89,0,0,0-2.26.58A2.09,2.09,0,0,0,7.08,89a2,2,0,0,0,.82,1.8A3.89,3.89,0,0,0,10.16,91.32Z"/><path class="cls-8" d="M6,78.9a3,3,0,0,1,.72-2.2A3,3,0,0,1,9,76h5.3v1.32H9c-1.31,0-2,.61-2,1.83A2.1,2.1,0,0,0,7.84,81a3.88,3.88,0,0,0,2.18.51h4.23v1.34H6.1V81.74l1.11-.2v-.07a2.49,2.49,0,0,1-1-1.1A3.49,3.49,0,0,1,6,78.9Z"/><path class="cls-8" d="M13.31,66.75a4.44,4.44,0,0,0-.05-.62,2.68,2.68,0,0,0-.12-.52h1a2.27,2.27,0,0,1,.17.61,4.13,4.13,0,0,1,.07.76,3,3,0,0,1-.22,1.18,1.75,1.75,0,0,1-.77.87,2.84,2.84,0,0,1-1.53.34H7.14v1.15H6.5L6,69.35l-1.74-.53V68H6.1V65.68h1V68h4.71a1.5,1.5,0,0,0,1.1-.36A1.22,1.22,0,0,0,13.31,66.75Z"/><path class="cls-8" d="M4.45,58.71a3.41,3.41,0,0,0,1.17,2.75,4.76,4.76,0,0,0,3.2,1,5,5,0,0,0,3.2-.94,3.33,3.33,0,0,0,1.18-2.8,7.26,7.26,0,0,0-.12-1.34q-.12-.63-.3-1.26H14a7.7,7.7,0,0,1,.34,1.25,9.9,9.9,0,0,1,.1,1.55,5.23,5.23,0,0,1-.68,2.76,4.26,4.26,0,0,1-2,1.67,7.31,7.31,0,0,1-3,.55,6.65,6.65,0,0,1-2.9-.6,4.54,4.54,0,0,1-2-1.77,5.41,5.41,0,0,1-.7-2.84,6.73,6.73,0,0,1,.63-3L5,56.25a9.08,9.08,0,0,0-.41,1.12A4.77,4.77,0,0,0,4.45,58.71Z"/><path class="cls-8" d="M8.81,44.4a7.07,7.07,0,0,1,2.94.57,4.34,4.34,0,0,1,1.95,1.68,5.06,5.06,0,0,1,.7,2.75,5.15,5.15,0,0,1-.7,2.8,4.23,4.23,0,0,1-2,1.67,7.43,7.43,0,0,1-3,.54,7.33,7.33,0,0,1-2.91-.54A4.3,4.3,0,0,1,3.93,52.2a5.17,5.17,0,0,1-.7-2.82,5.08,5.08,0,0,1,.69-2.73,4.34,4.34,0,0,1,2-1.68A7,7,0,0,1,8.81,44.4Zm0,8.57A5.34,5.34,0,0,0,12,52.1a3.68,3.68,0,0,0,0-5.4,5.41,5.41,0,0,0-3.23-.86,5.35,5.35,0,0,0-3.22.85,3.13,3.13,0,0,0-1.16,2.69A3.18,3.18,0,0,0,5.59,52.1,5.29,5.29,0,0,0,8.81,53Z"/></g><path class="cls-8" d="M19.31,38.28v4.18h-.65L17,40.8c-.32-.31-.6-.58-.85-.8a3.07,3.07,0,0,0-.73-.5,1.83,1.83,0,0,0-.79-.17,1,1,0,0,0-.79.31,1.2,1.2,0,0,0-.27.81,1.86,1.86,0,0,0,.16.81,3.71,3.71,0,0,0,.44.71l-.52.42a3.89,3.89,0,0,1-.53-.86,2.67,2.67,0,0,1-.21-1.08,2,2,0,0,1,.45-1.4,1.53,1.53,0,0,1,1.23-.52,2.11,2.11,0,0,1,.93.21,3.61,3.61,0,0,1,.86.56c.28.25.58.53.89.85l1.31,1.32h0V38.28Z"/><g class="cls-7"><path class="cls-8" d="M6,33.36a3.34,3.34,0,0,1,.46-1.79A3,3,0,0,1,7.69,30.4,4.37,4.37,0,0,1,9.63,30h.8v5.58a3.07,3.07,0,0,0,2.11-.71A2.46,2.46,0,0,0,13.26,33a6.31,6.31,0,0,0-.14-1.38,8.14,8.14,0,0,0-.42-1.23h1.17a5.88,5.88,0,0,1,.4,1.23A6.68,6.68,0,0,1,14.4,33a4.22,4.22,0,0,1-.47,2.05,3.27,3.27,0,0,1-1.4,1.38,4.82,4.82,0,0,1-2.29.49,5.39,5.39,0,0,1-2.3-.45,3.33,3.33,0,0,1-2-3.15Zm1.1,0a2,2,0,0,0,.61,1.52,2.89,2.89,0,0,0,1.71.66V31.4a2.81,2.81,0,0,0-1.68.49A1.71,1.71,0,0,0,7.05,33.37Z"/><path class="cls-8" d="M9.19,25.69v.77h-5l-.48,0,.24.26c.06.08.14.18.24.29l.55.67-.52.41L2.86,26.34v-.65Z"/><path class="cls-8" d="M10.08,20.73a11.59,11.59,0,0,1,3.54.54,8.56,8.56,0,0,1,3,1.7v1.24a10.92,10.92,0,0,0-3.12-1.58,11.32,11.32,0,0,0-3.46-.54,11.72,11.72,0,0,0-3.53.54,10.47,10.47,0,0,0-3.14,1.6V23a9,9,0,0,1,3.11-1.7A11.88,11.88,0,0,1,10.08,20.73Z"/><path class="cls-9" d="M884.52,213.72h0c-.72,0-72.66-1.91-100.74-13-2.94-1.16-6.31-2.62-9.87-4.16-12.67-5.51-28.43-12.35-41.09-12.8-7.12-.24-13.1,2.66-18.88,5.47s-12,5.83-19.25,5.53c-11.83-.51-19-5.21-26.68-10.2-3.15-2.05-6.41-4.18-10.14-6.12-13.1-6.82-21.9-10.23-30.85-8.75-7.27,1.21-14.21,4.17-21.55,7.29-11.9,5.07-24.21,10.32-38,7.44-13.36-2.78-35.35-17.21-47.26-25.57-19.34-13.57-46.8-28.57-53.74-31.21-9.58-3.66-14-.36-18.22,2.83-3.21,2.42-6.53,4.92-11.7,3.51-7.07-1.92-14.21-11.12-21.12-20-5.33-6.86-10.37-13.35-14.78-15.76-6.37-3.47-10.72-.73-15.32,2.16s-9.29,5.85-15.8,2.4c-8.32-4.41-30.87-29.37-37.58-36.92a20.82,20.82,0,0,0-3.41-3c-5.26-3.42-13.85-5.05-25.57-4.87-.42,0-.74,0-.93,0h-.35c-7,.31-11.7,2.36-16.25,4.34s-9,3.92-15.6,4.23c-9.88.47-14.14-2.82-17.89-5.71-3.37-2.6-6.29-4.85-12.85-4.36-7.3.53-13.39,7.11-19.27,13.46-5.25,5.67-10.67,11.52-17,13.07-7.69,1.87-13-1.57-17.69-4.61-3.57-2.31-6.64-4.31-10.19-3.73C168,75.75,164.14,81.32,158.76,89a147.59,147.59,0,0,1-9.57,12.66,1,1,0,1,1-1.44-1.24A147,147,0,0,0,157.2,88c5.44-7.8,9.73-14,17.4-15.18,4.27-.69,7.79,1.6,11.52,4,4.58,3,9.31,6,16.21,4.35,5.78-1.41,10.78-6.8,16.06-12.51,6.14-6.63,12.48-13.48,20.53-14.07,7.29-.54,10.78,2.15,14.15,4.76,3.67,2.82,7.47,5.74,16.64,5.31,6.21-.29,10.44-2.13,14.93-4.08,4.71-2,9.58-4.16,16.93-4.49h1.33c12.09-.19,21.05,1.55,26.64,5.18a23.11,23.11,0,0,1,3.79,3.36c6.66,7.49,29,32.24,37,36.5,5.55,2.93,9.42.5,13.91-2.33s9.89-6.22,17.24-2.21c4.76,2.59,9.91,9.23,15.37,16.26,6.72,8.65,13.66,17.6,20.12,19.35,4.27,1.16,6.95-.86,10.06-3.2,4.44-3.34,9.47-7.12,20-3.09,7.19,2.75,34.36,17.55,54.15,31.43,11.79,8.28,33.53,22.56,46.56,25.27,13.21,2.75,25.24-2.37,36.87-7.32,7.13-3,14.49-6.18,22-7.42,9.48-1.57,18.57,1.93,32,8.94A118.8,118.8,0,0,1,669,183c7.73,5.05,14.42,9.41,25.72,9.89,6.81.3,12.41-2.44,18.34-5.33s12.16-5.95,19.77-5.67c13,.46,29,7.39,41.79,12.95,3.55,1.54,6.9,3,9.81,4.15,27.77,11,99.37,12.85,100.09,12.86a1,1,0,0,1,0,1.9Z"/></g><g class="cls-7"><path class="cls-8" d="M788.8,12.39h-6.63V11l2.38-2.41c.48-.5.86-.91,1.15-1.24a4.15,4.15,0,0,0,.64-.91,1.85,1.85,0,0,0,.2-.87,1.07,1.07,0,0,0-.31-.85,1.2,1.2,0,0,0-.84-.28,2.4,2.4,0,0,0-1.07.25,6,6,0,0,0-1.09.72l-1.09-1.29a9.75,9.75,0,0,1,.86-.66,3.84,3.84,0,0,1,1.08-.5,4.7,4.7,0,0,1,1.45-.2,3.57,3.57,0,0,1,1.6.34,2.53,2.53,0,0,1,1,.92,2.36,2.36,0,0,1,.37,1.31,3.3,3.3,0,0,1-.32,1.44,5.31,5.31,0,0,1-.9,1.29c-.39.42-.87.89-1.43,1.41l-1.22,1.14v.09h4.13Z"/><path class="cls-8" d="M796.9,7.64a9.48,9.48,0,0,1-.32,2.62,3.28,3.28,0,0,1-1.06,1.68,3,3,0,0,1-1.94.59,2.75,2.75,0,0,1-2.52-1.29,6.87,6.87,0,0,1-.79-3.6A9.56,9.56,0,0,1,790.58,5a3.28,3.28,0,0,1,1.06-1.68,3,3,0,0,1,1.94-.59A2.76,2.76,0,0,1,796.09,4,6.76,6.76,0,0,1,796.9,7.64Zm-4.64,0a7.84,7.84,0,0,0,.28,2.44,1,1,0,0,0,1,.82,1.07,1.07,0,0,0,1-.81,7.86,7.86,0,0,0,.29-2.45,7.87,7.87,0,0,0-.29-2.44,1.08,1.08,0,0,0-1-.83,1.05,1.05,0,0,0-1,.83A7.93,7.93,0,0,0,792.26,7.64Z"/><path class="cls-8" d="M801.94,6.33a3.53,3.53,0,0,1,1.55.33,2.63,2.63,0,0,1,1.07,1A3,3,0,0,1,805,9.21a3.14,3.14,0,0,1-1,2.43,4,4,0,0,1-2.83.89,7,7,0,0,1-1.41-.14A4.57,4.57,0,0,1,798.6,12V10.28a5.85,5.85,0,0,0,1.19.43,5.14,5.14,0,0,0,1.3.18,2.17,2.17,0,0,0,1.37-.37,1.35,1.35,0,0,0,.47-1.13c0-1-.64-1.44-1.9-1.44a5.38,5.38,0,0,0-.78.07l-.66.14-.8-.42.36-4.84h5.15V4.6h-3.39l-.18,1.86.49-.09A4.51,4.51,0,0,1,801.94,6.33Z"/><path class="cls-8" d="M813.18,7.64a9.48,9.48,0,0,1-.32,2.62,3.28,3.28,0,0,1-1.06,1.68,3,3,0,0,1-1.94.59,2.75,2.75,0,0,1-2.52-1.29,6.86,6.86,0,0,1-.8-3.6A9.53,9.53,0,0,1,806.86,5a3.28,3.28,0,0,1,1.06-1.68,3,3,0,0,1,1.94-.59A2.76,2.76,0,0,1,812.37,4,6.76,6.76,0,0,1,813.18,7.64Zm-4.64,0a7.84,7.84,0,0,0,.28,2.44,1.06,1.06,0,0,0,2.07,0,7.51,7.51,0,0,0,.3-2.45,7.53,7.53,0,0,0-.3-2.44,1.06,1.06,0,0,0-2.07,0A7.93,7.93,0,0,0,808.54,7.64Z"/><path class="cls-8" d="M824.14,12.39l-.69-2.26H820l-.69,2.26h-2.17l3.35-9.53h2.46l3.37,9.53Zm-1.17-4-.69-2.21c0-.15-.1-.34-.17-.57s-.15-.46-.22-.7-.13-.45-.17-.63q-.06.27-.18.66c-.07.26-.15.51-.21.75s-.12.4-.16.49l-.67,2.21Z"/><path class="cls-8" d="M836.34,5a2.56,2.56,0,0,1,1.87.63,2.79,2.79,0,0,1,.63,2v4.73h-2V8.15c0-1.05-.37-1.57-1.09-1.57a1.2,1.2,0,0,0-1.12.56,3.2,3.2,0,0,0-.33,1.61v3.64h-2V8.15c0-1.05-.36-1.57-1.09-1.57a1.14,1.14,0,0,0-1.13.62A4,4,0,0,0,829.79,9v3.42h-2V5.13h1.52l.26.93h.11a2,2,0,0,1,.91-.81A3,3,0,0,1,831.82,5a3.07,3.07,0,0,1,1.35.26,1.88,1.88,0,0,1,.85.8h.18a2,2,0,0,1,.92-.81A3,3,0,0,1,836.34,5Z"/><path class="cls-8" d="M843.05,2.28V4.64c0,.27,0,.54,0,.81s0,.47-.06.63h.08a2.53,2.53,0,0,1,.79-.77A2.33,2.33,0,0,1,845.12,5a2.41,2.41,0,0,1,2,1,4.45,4.45,0,0,1,.75,2.8,4.39,4.39,0,0,1-.77,2.82,2.46,2.46,0,0,1-2,1,2.4,2.4,0,0,1-1.26-.29,3.2,3.2,0,0,1-.75-.65h-.13l-.33.8h-1.52V2.28Zm1.43,4.3a1.18,1.18,0,0,0-1.09.49,2.67,2.67,0,0,0-.34,1.45v.21a3.36,3.36,0,0,0,.32,1.62,1.16,1.16,0,0,0,1.13.57,1.1,1.1,0,0,0,1-.57,3.05,3.05,0,0,0,.36-1.63,2.89,2.89,0,0,0-.36-1.6A1.15,1.15,0,0,0,844.48,6.58Z"/><path class="cls-8" d="M850.74,2.28a1.35,1.35,0,0,1,.76.21.85.85,0,0,1,.32.77.84.84,0,0,1-.32.75,1.28,1.28,0,0,1-.76.22A1.24,1.24,0,0,1,850,4a.84.84,0,0,1-.32-.75.85.85,0,0,1,.32-.77A1.31,1.31,0,0,1,850.74,2.28Zm1,2.85v7.26h-2V5.13Z"/><path class="cls-8" d="M857.08,10.94a3.24,3.24,0,0,0,.64-.06,4.21,4.21,0,0,0,.61-.16v1.47a3.22,3.22,0,0,1-.79.24,5.45,5.45,0,0,1-1,.1,3,3,0,0,1-1.16-.22,1.63,1.63,0,0,1-.81-.73,2.92,2.92,0,0,1-.3-1.46V6.62h-1V5.78l1.09-.66L855,3.59h1.26V5.13h2V6.62h-2v3.5a.78.78,0,0,0,.24.62A1,1,0,0,0,857.08,10.94Z"/><path class="cls-8" d="M861,2.28a1.32,1.32,0,0,1,.75.21.83.83,0,0,1,.32.77.81.81,0,0,1-.32.75,1.25,1.25,0,0,1-.75.22,1.27,1.27,0,0,1-.77-.22.83.83,0,0,1-.31-.75.85.85,0,0,1,.31-.77A1.34,1.34,0,0,1,861,2.28Zm1,2.85v7.26h-2V5.13Z"/><path class="cls-8" d="M870.9,8.75a3.82,3.82,0,0,1-.95,2.79,3.4,3.4,0,0,1-2.58,1,3.7,3.7,0,0,1-1.81-.44,3.15,3.15,0,0,1-1.24-1.29,4.28,4.28,0,0,1-.45-2.05A3.82,3.82,0,0,1,864.81,6a3.45,3.45,0,0,1,2.6-1,3.53,3.53,0,0,1,1.8.44,3,3,0,0,1,1.24,1.27A4.27,4.27,0,0,1,870.9,8.75Zm-5,0a3.11,3.11,0,0,0,.35,1.63,1.26,1.26,0,0,0,1.15.55,1.25,1.25,0,0,0,1.14-.55,3.11,3.11,0,0,0,.35-1.63,3,3,0,0,0-.35-1.62,1.48,1.48,0,0,0-2.29,0A3,3,0,0,0,865.89,8.75Z"/><path class="cls-8" d="M876.91,5a2.72,2.72,0,0,1,1.88.63,2.6,2.6,0,0,1,.7,2v4.73h-2V8.15A2,2,0,0,0,877.23,7a1,1,0,0,0-.89-.39,1.27,1.27,0,0,0-1.23.62A3.68,3.68,0,0,0,874.77,9v3.42h-2V5.13h1.52l.26.93h.11a2,2,0,0,1,1-.81A3.25,3.25,0,0,1,876.91,5Z"/><path class="cls-8" d="M881.45,6.1a1,1,0,0,1,.33-.86,1.47,1.47,0,0,1,1.61,0,1,1,0,0,1,.33.86,1,1,0,0,1-.33.85,1.38,1.38,0,0,1-1.61,0A1,1,0,0,1,881.45,6.1Zm0,5.36a1,1,0,0,1,.33-.86,1.47,1.47,0,0,1,1.61,0,1,1,0,0,1,.33.86,1,1,0,0,1-.33.85,1.38,1.38,0,0,1-1.61,0A1,1,0,0,1,881.45,11.46Z"/></g><path class="cls-9" d="M774.63,27.59h-1.4l-5.08-7.88h0c0,.31,0,.69.06,1.15s0,.94,0,1.43v5.3h-1.1V18.1h1.38L773.55,26h.05c0-.14,0-.36,0-.64s0-.59,0-.92,0-.65,0-.94V18.1h1.12Z"/><path class="cls-9" d="M779.83,20.33a3.08,3.08,0,0,1,1.57.4,2.58,2.58,0,0,1,1,1.13,3.73,3.73,0,0,1,.36,1.69v.71h-4.89a2.73,2.73,0,0,0,.62,1.84,2.18,2.18,0,0,0,1.66.63,4.85,4.85,0,0,0,1.2-.13,6.6,6.6,0,0,0,1.09-.36v1a5.42,5.42,0,0,1-1.08.35,5.86,5.86,0,0,1-1.26.12,3.82,3.82,0,0,1-1.8-.41,3,3,0,0,1-1.2-1.23,4.21,4.21,0,0,1-.44-2,4.66,4.66,0,0,1,.4-2,2.92,2.92,0,0,1,2.76-1.75Zm0,1a1.68,1.68,0,0,0-1.32.54,2.56,2.56,0,0,0-.58,1.5h3.63a2.51,2.51,0,0,0-.42-1.47A1.51,1.51,0,0,0,779.81,21.29Z"/><path class="cls-9" d="M787,26.77a3.44,3.44,0,0,0,.54,0,1.84,1.84,0,0,0,.45-.11v.9a2,2,0,0,1-.53.15,3.85,3.85,0,0,1-.66.06,2.63,2.63,0,0,1-1-.2,1.55,1.55,0,0,1-.77-.67,2.61,2.61,0,0,1-.29-1.34V21.37h-1v-.56l1-.46.47-1.52h.69v1.64H788v.9h-2.06v4.12a1.32,1.32,0,0,0,.31,1A1.09,1.09,0,0,0,787,26.77Z"/><path class="cls-9" d="M798.35,27.59h-6.58v-.9l5-7.53h-4.84V18.1h6.29V19l-5,7.53h5.13Z"/><path class="cls-9" d="M802.73,20.33a3.05,3.05,0,0,1,1.57.4,2.67,2.67,0,0,1,1,1.13,3.86,3.86,0,0,1,.35,1.69v.71h-4.88a2.63,2.63,0,0,0,.62,1.84,2.14,2.14,0,0,0,1.65.63,4.93,4.93,0,0,0,1.21-.13,6.22,6.22,0,0,0,1.08-.36v1a5,5,0,0,1-1.08.35,5.73,5.73,0,0,1-1.26.12,3.85,3.85,0,0,1-1.8-.41,3,3,0,0,1-1.2-1.23,4.21,4.21,0,0,1-.43-2,4.66,4.66,0,0,1,.39-2,2.92,2.92,0,0,1,2.76-1.75Zm0,1a1.71,1.71,0,0,0-1.33.54,2.63,2.63,0,0,0-.58,1.5h3.64a2.51,2.51,0,0,0-.43-1.47A1.5,1.5,0,0,0,802.72,21.29Z"/><path class="cls-9" d="M810.81,20.33l.43,0,.41.06-.14,1.08-.39-.07-.38,0a1.9,1.9,0,0,0-1,.3,2.11,2.11,0,0,0-.76.83,2.66,2.66,0,0,0-.29,1.26v3.8h-1.17V20.47h1l.13,1.3h0a3.43,3.43,0,0,1,.89-1A2.09,2.09,0,0,1,810.81,20.33Z"/><path class="cls-9" d="M819.18,24a3.88,3.88,0,0,1-.9,2.74,3.16,3.16,0,0,1-2.42,1,3.4,3.4,0,0,1-1.69-.43A3,3,0,0,1,813,26a4.39,4.39,0,0,1-.43-2,3.88,3.88,0,0,1,.89-2.73,3.14,3.14,0,0,1,2.43-1,3.34,3.34,0,0,1,1.7.44A2.93,2.93,0,0,1,818.76,22,4.32,4.32,0,0,1,819.18,24Zm-5.39,0a3.54,3.54,0,0,0,.5,2,1.8,1.8,0,0,0,1.59.74,1.77,1.77,0,0,0,1.58-.74,3.46,3.46,0,0,0,.51-2,3.33,3.33,0,0,0-.51-2,1.79,1.79,0,0,0-1.59-.72,1.76,1.76,0,0,0-1.58.72A3.41,3.41,0,0,0,813.79,24Z"/><path class="cls-9" d="M829.43,27.59h-5.3V18.1h5.3v1h-4.1v3h3.87v1h-3.87v3.39h4.1Z"/><path class="cls-9" d="M839.08,20.33a2.4,2.4,0,0,1,1.81.63,2.8,2.8,0,0,1,.6,2v4.64h-1.16V23c0-1.13-.49-1.69-1.45-1.69a1.71,1.71,0,0,0-1.48.6,2.85,2.85,0,0,0-.45,1.74v3.93h-1.16V23c0-1.13-.49-1.69-1.46-1.69a1.62,1.62,0,0,0-1.49.66,3.73,3.73,0,0,0-.41,1.92v3.69h-1.17V20.47h.94l.18,1h.06a2,2,0,0,1,.9-.83,2.64,2.64,0,0,1,1.2-.28,2.1,2.1,0,0,1,2.18,1.2h.07a2.16,2.16,0,0,1,1-.9A3,3,0,0,1,839.08,20.33Z"/><path class="cls-9" d="M844.26,17.79a.72.72,0,0,1,.48.18.74.74,0,0,1,.2.57.73.73,0,0,1-.2.56.74.74,0,0,1-1,0,.73.73,0,0,1-.2-.56.74.74,0,0,1,.2-.57A.72.72,0,0,1,844.26,17.79Zm.58,2.68v7.12h-1.17V20.47Z"/><path class="cls-9" d="M851.74,25.63A1.8,1.8,0,0,1,851,27.2a3.66,3.66,0,0,1-2.08.53,6,6,0,0,1-1.28-.12,3.92,3.92,0,0,1-1-.33V26.21a6.58,6.58,0,0,0,1,.39,4.26,4.26,0,0,0,1.23.18,2.29,2.29,0,0,0,1.29-.28.89.89,0,0,0,.4-.77.85.85,0,0,0-.15-.48,1.57,1.57,0,0,0-.52-.42,9.69,9.69,0,0,0-1.09-.48,10.43,10.43,0,0,1-1.18-.53,2.21,2.21,0,0,1-.76-.64,1.6,1.6,0,0,1-.26-1,1.56,1.56,0,0,1,.73-1.39,3.45,3.45,0,0,1,1.94-.5,5.3,5.3,0,0,1,1.22.14,5.86,5.86,0,0,1,1.05.34l-.4.93a8.64,8.64,0,0,0-.94-.32,3.83,3.83,0,0,0-1-.13,2.17,2.17,0,0,0-1.1.23.75.75,0,0,0-.2,1.14,1.74,1.74,0,0,0,.57.4c.27.13.64.28,1.09.45a7.92,7.92,0,0,1,1.15.52,2.06,2.06,0,0,1,.74.65A1.74,1.74,0,0,1,851.74,25.63Z"/><path class="cls-9" d="M858.22,25.63a1.79,1.79,0,0,1-.78,1.57,3.6,3.6,0,0,1-2.07.53,5.92,5.92,0,0,1-1.28-.12,4.16,4.16,0,0,1-1-.33V26.21a6.73,6.73,0,0,0,1,.39,4.26,4.26,0,0,0,1.23.18,2.29,2.29,0,0,0,1.29-.28.91.91,0,0,0,.39-.77.84.84,0,0,0-.14-.48,1.52,1.52,0,0,0-.53-.42,8.66,8.66,0,0,0-1.08-.48,9.68,9.68,0,0,1-1.18-.53,2.12,2.12,0,0,1-.76-.64,1.6,1.6,0,0,1-.27-1,1.57,1.57,0,0,1,.74-1.39,3.41,3.41,0,0,1,1.93-.5,5.24,5.24,0,0,1,1.22.14,5.72,5.72,0,0,1,1.06.34l-.4.93a9.44,9.44,0,0,0-.94-.32,3.86,3.86,0,0,0-1-.13,2.16,2.16,0,0,0-1.09.23.73.73,0,0,0-.38.63.77.77,0,0,0,.17.51,1.93,1.93,0,0,0,.58.4q.4.2,1.08.45a8.08,8.08,0,0,1,1.16.52,2,2,0,0,1,.73.65A1.66,1.66,0,0,1,858.22,25.63Z"/><path class="cls-9" d="M860.49,17.79A.69.69,0,0,1,861,18a.71.71,0,0,1,.21.57.7.7,0,0,1-.21.56.73.73,0,0,1-1,0,.7.7,0,0,1-.2-.56A.71.71,0,0,1,860,18,.69.69,0,0,1,860.49,17.79Zm.57,2.68v7.12h-1.17V20.47Z"/><path class="cls-9" d="M869.52,24a3.88,3.88,0,0,1-.9,2.74,3.17,3.17,0,0,1-2.42,1,3.37,3.37,0,0,1-1.69-.43A3,3,0,0,1,863.35,26a4.39,4.39,0,0,1-.43-2,3.88,3.88,0,0,1,.89-2.73,3.14,3.14,0,0,1,2.43-1,3.34,3.34,0,0,1,1.7.44A2.93,2.93,0,0,1,869.1,22,4.32,4.32,0,0,1,869.52,24Zm-5.39,0a3.54,3.54,0,0,0,.5,2,1.8,1.8,0,0,0,1.59.74A1.77,1.77,0,0,0,867.8,26a3.46,3.46,0,0,0,.51-2,3.33,3.33,0,0,0-.51-2,1.79,1.79,0,0,0-1.59-.72,1.76,1.76,0,0,0-1.58.72A3.41,3.41,0,0,0,864.13,24Z"/><path class="cls-9" d="M874.8,20.33a2.69,2.69,0,0,1,1.93.63,2.68,2.68,0,0,1,.65,2v4.64h-1.16V23q0-1.71-1.59-1.71A1.85,1.85,0,0,0,873,22a3.43,3.43,0,0,0-.45,1.92v3.69h-1.17V20.47h.94l.18,1h.06a2,2,0,0,1,1-.83A3,3,0,0,1,874.8,20.33Z"/><path class="cls-9" d="M884.23,25.63a1.8,1.8,0,0,1-.77,1.57,3.66,3.66,0,0,1-2.08.53,6,6,0,0,1-1.28-.12,3.92,3.92,0,0,1-1-.33V26.21a6.58,6.58,0,0,0,1,.39,4.26,4.26,0,0,0,1.23.18,2.29,2.29,0,0,0,1.29-.28.89.89,0,0,0,.4-.77.85.85,0,0,0-.15-.48,1.47,1.47,0,0,0-.52-.42,8.92,8.92,0,0,0-1.09-.48,10.43,10.43,0,0,1-1.18-.53,2.21,2.21,0,0,1-.76-.64,1.6,1.6,0,0,1-.26-1,1.56,1.56,0,0,1,.73-1.39,3.45,3.45,0,0,1,1.94-.5,5.3,5.3,0,0,1,1.22.14,5.61,5.61,0,0,1,1.05.34l-.4.93a8.64,8.64,0,0,0-.94-.32,3.78,3.78,0,0,0-1-.13,2.2,2.2,0,0,0-1.1.23.75.75,0,0,0-.2,1.14,1.74,1.74,0,0,0,.57.4c.28.13.64.28,1.09.45a8.62,8.62,0,0,1,1.16.52,2,2,0,0,1,.73.65A1.66,1.66,0,0,1,884.23,25.63Z"/><rect class="cls-8" x="884.29" y="34.08" width="0.47" height="178.24"/><g class="cls-7"><path class="cls-8" d="M439.19,12.39h-6.63V11l2.38-2.41c.48-.5.86-.91,1.16-1.24a4.43,4.43,0,0,0,.63-.91,1.85,1.85,0,0,0,.2-.87,1.08,1.08,0,0,0-.31-.85,1.2,1.2,0,0,0-.84-.28,2.54,2.54,0,0,0-1.07.25,6,6,0,0,0-1.09.72l-1.09-1.29a9.92,9.92,0,0,1,.87-.66,4.41,4.41,0,0,1,1.07-.5,4.77,4.77,0,0,1,1.45-.19,3.64,3.64,0,0,1,1.61.33,2.64,2.64,0,0,1,1,.92,2.36,2.36,0,0,1,.37,1.31,3.41,3.41,0,0,1-.31,1.44,5.37,5.37,0,0,1-.91,1.29c-.39.42-.87.89-1.43,1.41l-1.22,1.14v.1h4.13Z"/><path class="cls-8" d="M447.29,7.65a9.16,9.16,0,0,1-.32,2.62,3.29,3.29,0,0,1-1.06,1.67,3,3,0,0,1-1.94.59,2.74,2.74,0,0,1-2.51-1.29,6.75,6.75,0,0,1-.8-3.59A9.23,9.23,0,0,1,441,5a3.2,3.2,0,0,1,1-1.68A3,3,0,0,1,444,2.75,2.76,2.76,0,0,1,446.48,4,6.78,6.78,0,0,1,447.29,7.65Zm-4.64,0a8.25,8.25,0,0,0,.28,2.44,1,1,0,0,0,1,.81,1.06,1.06,0,0,0,1-.81,7.78,7.78,0,0,0,.29-2.44A7.9,7.9,0,0,0,445,5.2a1.07,1.07,0,0,0-1-.83,1.05,1.05,0,0,0-1,.83A8.28,8.28,0,0,0,442.65,7.65Z"/><path class="cls-8" d="M455,5a2.14,2.14,0,0,1-.59,1.57,3.06,3.06,0,0,1-1.46.79v0a3.06,3.06,0,0,1,1.73.71,1.94,1.94,0,0,1,.6,1.49,2.62,2.62,0,0,1-1.65,2.52,5.43,5.43,0,0,1-2.18.38,6.94,6.94,0,0,1-2.74-.52v-1.7a5.75,5.75,0,0,0,1.28.46,5.16,5.16,0,0,0,1.25.16,2.33,2.33,0,0,0,1.51-.37,1.31,1.31,0,0,0,.43-1.05,1.15,1.15,0,0,0-.2-.67,1.31,1.31,0,0,0-.7-.42,5.49,5.49,0,0,0-1.39-.14h-.72V6.74h.73a4.16,4.16,0,0,0,1.34-.16,1.18,1.18,0,0,0,.63-.46,1.28,1.28,0,0,0,.16-.65,1,1,0,0,0-.31-.8,1.54,1.54,0,0,0-1-.28,2.75,2.75,0,0,0-1.19.24q-.5.24-.84.45l-.93-1.38a5,5,0,0,1,3.1-.93,4,4,0,0,1,2.32.59A1.89,1.89,0,0,1,455,5Z"/><path class="cls-8" d="M463.53,7.65a9.53,9.53,0,0,1-.32,2.62,3.29,3.29,0,0,1-1.06,1.67,3,3,0,0,1-1.94.59,2.75,2.75,0,0,1-2.52-1.29,6.85,6.85,0,0,1-.79-3.59A9.23,9.23,0,0,1,457.22,5a3.2,3.2,0,0,1,1-1.68,3,3,0,0,1,1.94-.59A2.76,2.76,0,0,1,462.72,4,6.78,6.78,0,0,1,463.53,7.65Zm-4.64,0a7.93,7.93,0,0,0,.28,2.44,1,1,0,0,0,1,.81,1.07,1.07,0,0,0,1-.81,7.78,7.78,0,0,0,.29-2.44,7.9,7.9,0,0,0-.29-2.45,1.08,1.08,0,0,0-1-.83,1.05,1.05,0,0,0-1,.83A8,8,0,0,0,458.89,7.65Z"/><path class="cls-8" d="M472.34,12.39h-2V4.57h-2.58V2.9h7.17V4.57h-2.58Z"/><path class="cls-8" d="M478.63,5a3.49,3.49,0,0,1,2.24.63,2.33,2.33,0,0,1,.78,1.93v4.84h-1.39l-.38-1h-.05a3.08,3.08,0,0,1-1,.85,3.09,3.09,0,0,1-1.42.27,2.35,2.35,0,0,1-1.61-.56,2.17,2.17,0,0,1-.64-1.74A1.93,1.93,0,0,1,476,8.52a4.85,4.85,0,0,1,2.44-.61l1.26,0V7.55a1,1,0,0,0-.3-.83,1.2,1.2,0,0,0-.83-.27,3.63,3.63,0,0,0-1,.15,8.3,8.3,0,0,0-1,.38l-.65-1.34a5.76,5.76,0,0,1,1.29-.47A6.08,6.08,0,0,1,478.63,5Zm1.05,4-.77,0a2.15,2.15,0,0,0-1.33.34,1,1,0,0,0-.37.84.72.72,0,0,0,.26.64,1.15,1.15,0,0,0,.69.2,1.6,1.6,0,0,0,1.08-.38,1.34,1.34,0,0,0,.44-1.07Z"/><path class="cls-8" d="M487.94,5h.34l.32,0-.14,1.87-.28,0a1.78,1.78,0,0,0-.31,0,2.69,2.69,0,0,0-1,.18,1.6,1.6,0,0,0-.75.58,1.83,1.83,0,0,0-.29,1.09v3.69h-2V5.13h1.5l.3,1.23h.09a2.88,2.88,0,0,1,.88-1A2.13,2.13,0,0,1,487.94,5Z"/><path class="cls-8" d="M492.55,5a2.45,2.45,0,0,1,2.11,1.06h0l.16-.93h1.67v7.28a3,3,0,0,1-.91,2.37,4,4,0,0,1-2.72.81,9.17,9.17,0,0,1-1.43-.1,5.74,5.74,0,0,1-1.28-.33V13.58a7.29,7.29,0,0,0,2.83.56q1.53,0,1.53-1.65v-.15c0-.14,0-.29,0-.46a2.63,2.63,0,0,1,0-.43h-.06a2.17,2.17,0,0,1-.89.82,2.61,2.61,0,0,1-1.17.26,2.34,2.34,0,0,1-2-1,4.55,4.55,0,0,1-.73-2.76A4.53,4.53,0,0,1,490.51,6,2.38,2.38,0,0,1,492.55,5Zm.63,1.61c-.93,0-1.4.73-1.4,2.19s.48,2.17,1.43,2.17a1.39,1.39,0,0,0,1.12-.43A2.4,2.4,0,0,0,494.7,9V8.79a3,3,0,0,0-.36-1.68A1.34,1.34,0,0,0,493.18,6.61Z"/><path class="cls-8" d="M501.86,5a3.25,3.25,0,0,1,2.38.86,3.23,3.23,0,0,1,.88,2.44v1h-4.68a1.87,1.87,0,0,0,.5,1.31,1.74,1.74,0,0,0,1.31.48,5.61,5.61,0,0,0,1.27-.14,6.37,6.37,0,0,0,1.19-.43V12a4.59,4.59,0,0,1-1.13.39,6.48,6.48,0,0,1-1.42.13,4.38,4.38,0,0,1-1.93-.41,3,3,0,0,1-1.32-1.22,4.08,4.08,0,0,1-.48-2.08,4.76,4.76,0,0,1,.43-2.12,2.87,2.87,0,0,1,1.21-1.27A3.57,3.57,0,0,1,501.86,5Zm0,1.41a1.3,1.3,0,0,0-1,.37,1.79,1.79,0,0,0-.44,1.16h2.78a1.82,1.82,0,0,0-.35-1.09A1.23,1.23,0,0,0,501.88,6.41Z"/><path class="cls-8" d="M510.12,10.94a3.31,3.31,0,0,0,.64-.06,3.43,3.43,0,0,0,.61-.16v1.47a3.22,3.22,0,0,1-.79.24,4.74,4.74,0,0,1-1,.1,2.86,2.86,0,0,1-1.16-.22,1.63,1.63,0,0,1-.81-.73,2.92,2.92,0,0,1-.3-1.46V6.62h-.95V5.78l1.09-.66L508,3.59h1.26V5.13h2V6.62h-2v3.5a.77.77,0,0,0,.24.62A.91.91,0,0,0,510.12,10.94Z"/><path class="cls-8" d="M516.62,8h-3.87V7.15l1.39-1.4c.28-.29.5-.53.67-.73a2.31,2.31,0,0,0,.37-.52A1.13,1.13,0,0,0,515.3,4a.65.65,0,0,0-.18-.5.71.71,0,0,0-.49-.16,1.35,1.35,0,0,0-.62.15,2.74,2.74,0,0,0-.64.41l-.64-.75c.16-.13.33-.26.51-.38a2.74,2.74,0,0,1,.62-.3,3,3,0,0,1,.85-.11,2.13,2.13,0,0,1,.94.2,1.48,1.48,0,0,1,.6.53,1.44,1.44,0,0,1,.21.77,2,2,0,0,1-.18.84,3.14,3.14,0,0,1-.53.75c-.23.25-.5.52-.83.82l-.71.67V7h2.41Z"/><path class="cls-8" d="M517.81,6.1a1,1,0,0,1,.33-.85,1.42,1.42,0,0,1,1.61,0,1,1,0,0,1,.33.85,1,1,0,0,1-.33.85,1.38,1.38,0,0,1-1.61,0A1,1,0,0,1,517.81,6.1Zm0,5.36a1,1,0,0,1,.33-.85,1.42,1.42,0,0,1,1.61,0,1,1,0,0,1,.33.85,1,1,0,0,1-.33.85,1.38,1.38,0,0,1-1.61,0A1,1,0,0,1,517.81,11.46Z"/></g><path class="cls-9" d="M423.84,27.6H422.7V21c0-.38,0-.69,0-.92s0-.47,0-.72a3.06,3.06,0,0,1-.39.36l-.43.38-1,.82-.62-.78,2.57-2h1Z"/><path class="cls-9" d="M430.68,27.6h-1.15V21c0-.38,0-.69,0-.92s0-.47,0-.72a3.06,3.06,0,0,1-.39.36c-.12.1-.27.22-.44.38l-1,.82-.61-.78,2.57-2h1Z"/><path class="cls-9" d="M446,20.33a2.38,2.38,0,0,1,1.81.63,2.8,2.8,0,0,1,.6,2V27.6h-1.16V23c0-1.13-.48-1.69-1.45-1.69a1.73,1.73,0,0,0-1.48.6,2.87,2.87,0,0,0-.44,1.74V27.6h-1.16V23c0-1.13-.49-1.69-1.46-1.69a1.61,1.61,0,0,0-1.49.66,3.65,3.65,0,0,0-.42,1.92v3.7h-1.17V20.47h1l.17,1h.07a2.09,2.09,0,0,1,.89-.83,2.79,2.79,0,0,1,1.21-.28,2.11,2.11,0,0,1,2.18,1.2h.07a2.16,2.16,0,0,1,1-.9A2.9,2.9,0,0,1,446,20.33Z"/><path class="cls-9" d="M451.4,17.79a.69.69,0,0,1,.47.18.71.71,0,0,1,.21.57.69.69,0,1,1-1.37,0,.71.71,0,0,1,.2-.57A.69.69,0,0,1,451.4,17.79Zm.57,2.68V27.6H450.8V20.47Z"/><path class="cls-9" d="M455.62,27.6h-1.17V17.49h1.17Z"/><path class="cls-9" d="M459.26,27.6h-1.17V17.49h1.17Z"/><path class="cls-9" d="M462.33,17.79a.67.67,0,0,1,.47.18.71.71,0,0,1,.21.57.69.69,0,0,1-.21.56.67.67,0,0,1-.47.18.71.71,0,0,1-.49-.18.72.72,0,0,1-.2-.56.74.74,0,0,1,.2-.57A.71.71,0,0,1,462.33,17.79Zm.57,2.68V27.6h-1.17V20.47Z"/><path class="cls-9" d="M471.62,24a3.88,3.88,0,0,1-.9,2.74,3.14,3.14,0,0,1-2.43,1,3.33,3.33,0,0,1-1.68-.43A3.07,3.07,0,0,1,465.44,26a4.39,4.39,0,0,1-.42-2,3.88,3.88,0,0,1,.88-2.73,3.14,3.14,0,0,1,2.43-1,3.29,3.29,0,0,1,1.7.44A2.89,2.89,0,0,1,471.2,22,4.32,4.32,0,0,1,471.62,24Zm-5.39,0a3.54,3.54,0,0,0,.5,2,2.07,2.07,0,0,0,3.17,0,3.46,3.46,0,0,0,.51-2,3.37,3.37,0,0,0-.51-2,1.82,1.82,0,0,0-1.6-.72,1.78,1.78,0,0,0-1.58.72A3.45,3.45,0,0,0,466.23,24Z"/><path class="cls-9" d="M477.16,20.33a2.67,2.67,0,0,1,1.93.63,2.68,2.68,0,0,1,.65,2V27.6h-1.16V23q0-1.71-1.59-1.71a1.85,1.85,0,0,0-1.64.66,3.45,3.45,0,0,0-.45,1.92v3.7h-1.17V20.47h.94l.18,1h.06a2.1,2.1,0,0,1,1-.83A3.18,3.18,0,0,1,477.16,20.33Z"/><path class="cls-9" d="M487.79,26.77a3.35,3.35,0,0,0,.54,0,2.13,2.13,0,0,0,.46-.1v.89a2.25,2.25,0,0,1-.54.15,3.85,3.85,0,0,1-.66.06,2.86,2.86,0,0,1-1-.19,1.63,1.63,0,0,1-.77-.68,2.59,2.59,0,0,1-.29-1.34V21.37h-1v-.56l1-.46.47-1.52h.69v1.64h2.06v.9h-2.06v4.12a1.36,1.36,0,0,0,.31,1A1.09,1.09,0,0,0,487.79,26.77Z"/><path class="cls-9" d="M494.89,19a3,3,0,0,0-2.41,1,4.2,4.2,0,0,0-.87,2.81,4.42,4.42,0,0,0,.81,2.8,3,3,0,0,0,2.46,1,6.45,6.45,0,0,0,1.17-.11c.37-.07.74-.16,1.1-.26v1a5.76,5.76,0,0,1-1.1.3,8.6,8.6,0,0,1-1.35.09,4.55,4.55,0,0,1-2.42-.6,3.72,3.72,0,0,1-1.45-1.7,6.32,6.32,0,0,1-.49-2.6,5.81,5.81,0,0,1,.53-2.53,3.89,3.89,0,0,1,1.55-1.71A4.64,4.64,0,0,1,494.9,18a5.66,5.66,0,0,1,2.62.56l-.48,1a5.77,5.77,0,0,0-1-.36A4,4,0,0,0,494.89,19Z"/><path class="cls-9" d="M507.49,22.83a6.22,6.22,0,0,1-.5,2.58,3.92,3.92,0,0,1-1.48,1.71,4.41,4.41,0,0,1-2.4.61,4.5,4.5,0,0,1-2.45-.61,3.68,3.68,0,0,1-1.46-1.72,6.39,6.39,0,0,1-.48-2.58,6.34,6.34,0,0,1,.48-2.55,3.63,3.63,0,0,1,1.46-1.7,5.11,5.11,0,0,1,4.86,0,3.88,3.88,0,0,1,1.47,1.7A6.2,6.2,0,0,1,507.49,22.83Zm-7.51,0a4.73,4.73,0,0,0,.76,2.83,2.75,2.75,0,0,0,2.37,1,2.72,2.72,0,0,0,2.36-1,4.73,4.73,0,0,0,.75-2.83,4.74,4.74,0,0,0-.74-2.81,2.73,2.73,0,0,0-2.36-1,2.78,2.78,0,0,0-2.38,1A4.66,4.66,0,0,0,500,22.83Z"/><path class="cls-9" d="M512.91,32h-3.66v-.56L510.7,30c.28-.28.51-.53.7-.74a2.62,2.62,0,0,0,.44-.64,1.55,1.55,0,0,0,.15-.69.87.87,0,0,0-.27-.69A1,1,0,0,0,511,27a1.73,1.73,0,0,0-.71.14,2.87,2.87,0,0,0-.62.39l-.36-.46a3.2,3.2,0,0,1,.74-.46,2.24,2.24,0,0,1,.95-.19,1.77,1.77,0,0,1,1.23.4,1.35,1.35,0,0,1,.45,1.07,1.92,1.92,0,0,1-.18.82,3.26,3.26,0,0,1-.5.75,10.4,10.4,0,0,1-.74.78l-1.16,1.14v0h2.8Z"/><path class="cls-9" d="M517.22,20.33a3.05,3.05,0,0,1,1.57.4,2.67,2.67,0,0,1,1,1.13,3.86,3.86,0,0,1,.35,1.69v.71h-4.88a2.68,2.68,0,0,0,.62,1.84,2.14,2.14,0,0,0,1.65.63,4.88,4.88,0,0,0,1.21-.13,6.22,6.22,0,0,0,1.08-.36v1a5,5,0,0,1-1.08.35,5.73,5.73,0,0,1-1.26.12,3.67,3.67,0,0,1-1.79-.42,2.85,2.85,0,0,1-1.21-1.22,4.21,4.21,0,0,1-.43-2,4.74,4.74,0,0,1,.39-2,3,3,0,0,1,1.11-1.29A3,3,0,0,1,517.22,20.33Zm0,1a1.71,1.71,0,0,0-1.33.54,2.55,2.55,0,0,0-.57,1.49h3.63a2.43,2.43,0,0,0-.43-1.46A1.49,1.49,0,0,0,517.21,21.29Z"/><rect class="cls-8" x="520.6" y="34.08" width="0.47" height="125.88"/><rect class="cls-8" x="57.76" y="63.76" width="5.38" height="0.47"/><polygon class="cls-10" points="520.84 150.08 514.02 161.88 527.65 161.88 520.84 150.08"/><polygon class="cls-10" points="884.52 204.44 877.71 216.24 891.33 216.24 884.52 204.44"/></svg>