<svg id="Layer_1" data-name="Layer 1" xmlns="http://www.w3.org/2000/svg" xmlns:xlink="http://www.w3.org/1999/xlink" viewBox="0 0 450 120"><defs><style>.cls-1{fill:none;}.cls-2{clip-path:url(#clip-path);}.cls-3{fill:#e5ecf3;}.cls-4{fill:#004688;}.cls-5{fill:#fff;}.cls-6{clip-path:url(#clip-path-2);}.cls-7{fill:#7d629a;}.cls-8{fill:#ec7123;}.cls-13,.cls-8{fill-rule:evenodd;}.cls-9{clip-path:url(#clip-path-3);}.cls-10{fill:#fcc199;}.cls-11{fill:#929497;}.cls-12{fill:#4a266c;}.cls-13{fill:#f8b618;}.cls-14{fill:#1aa64a;}.cls-15{fill:#95bb3d;}.cls-16{fill:#f8e0c8;}</style><clipPath id="clip-path"><rect class="cls-1" width="450" height="120"/></clipPath><clipPath id="clip-path-2"><path class="cls-1" d="M35.86,22A47.36,47.36,0,0,0,31,26.43V92h70V26.43A47.36,47.36,0,0,0,96.14,22Z"/></clipPath><clipPath id="clip-path-3"><path class="cls-1" d="M17.5,60A48.5,48.5,0,1,0,66,11.5,48.5,48.5,0,0,0,17.5,60"/></clipPath></defs><g class="cls-2"><path class="cls-3" d="M66,14h0v92H396a45,45,0,0,0,45-45V59a45,45,0,0,0-45-45Z"/><path class="cls-4" d="M66,116A56,56,0,0,1,66,4V5a55,55,0,1,0,55,55h1A56.06,56.06,0,0,1,66,116Z"/><path class="cls-5" d="M66,108.5A48.5,48.5,0,1,0,17.5,60,48.49,48.49,0,0,0,66,108.5"/></g><g class="cls-6"><path class="cls-7" d="M56.12,41.24,55,36.7a1.72,1.72,0,0,0-.32-.65v0a.1.1,0,0,0,0,0l-.06-.07-.17,0a1.8,1.8,0,0,1-1.46-.74c-1-.1-2,.5-2.89,1.84l-4.09,7.6c-.84,1.69-.42,3,1.27,4l2.71,1.46L52.23,46l1.11-2.06a1.76,1.76,0,0,0,.62.39l5.33,2,1.28-3.4Z"/><path class="cls-8" d="M70.36,56.93a7.18,7.18,0,0,0-1.41.13L71.27,64a.91.91,0,0,1,0,.74h0a.9.9,0,0,1-.55.48h0a1,1,0,0,1-.74-.06h0a.92.92,0,0,1-.49-.55h0l-2.32-6.92a7.09,7.09,0,0,0-1.86,1.37,6.92,6.92,0,0,0-2.11,4.8c0,.1,0,.21,0,.31a7.82,7.82,0,0,0,.06,1,6.9,6.9,0,0,0,.68,2.26,7.35,7.35,0,0,0,1.38,1.87,7.22,7.22,0,0,0,12.33-5.11c0-.33,0-.66,0-1a7.26,7.26,0,0,0-7.17-6.25m-.82-2.25c.27,0,.55,0,.82,0a9.51,9.51,0,0,1,9.45,8.42,9.82,9.82,0,0,1,.06,1.09A9.53,9.53,0,0,1,61.39,67.4a8.93,8.93,0,0,1-.49-2.26c0-.32,0-.65,0-1V64c0-.25,0-.5,0-.74a9.17,9.17,0,0,1,2.74-5.78,9.74,9.74,0,0,1,2.74-1.94l-.66-2h0L55.57,63.37h0a2.37,2.37,0,0,1,.13.81,2.17,2.17,0,0,1-.2,1,2.21,2.21,0,0,1-.49.71l-.12.11.48,1.44h.88a1,1,0,0,1,.94,1,.94.94,0,0,1-.28.69,1,1,0,0,1-.66.28H53.08a1,1,0,0,1-.94-1,.92.92,0,0,1,.29-.68.9.9,0,0,1,.65-.28h.24l-.3-.88a2.38,2.38,0,0,1-.54-.14,2.43,2.43,0,0,1-.8-.53,2.38,2.38,0,0,1-.49-.71H50a8.46,8.46,0,0,1-.17,1.14,9.58,9.58,0,0,1-9.29,7.39,9.54,9.54,0,0,1-9.45-8.33A11.51,11.51,0,0,1,31,64.16a9.49,9.49,0,0,1,9.51-9.51,9.11,9.11,0,0,1,6.05,2.17L49,54.47l-1.4-4.17H46a.94.94,0,0,1-.55-.28.91.91,0,0,1-.28-.68.94.94,0,0,1,.28-.69,1,1,0,0,1,.66-.28h5.53a1,1,0,0,1,.94,1,.92.92,0,0,1-.29.68.9.9,0,0,1-.65.28H49.62l.9,2.68.5-.48,0,0a10.63,10.63,0,0,1,7.14-3h6.15l-1-2.91H61.43a.92.92,0,0,1-.66-.29.9.9,0,0,1-.28-.68,1,1,0,0,1,.94-1h2.69a.84.84,0,0,1,.51.18h0a1,1,0,0,1,.35.47h0L65.9,48l1.85,5.5c.15.46.31.92.46,1.37a11.51,11.51,0,0,1,1.33-.19M35.4,59.05a7,7,0,0,0-2.12,5.11,7.49,7.49,0,0,0,.07,1.07,6.87,6.87,0,0,0,2,4,7.23,7.23,0,0,0,12.27-4.13H42.44a2.13,2.13,0,0,1-.41.55,2.15,2.15,0,0,1-3.06,0,2.19,2.19,0,0,1-.48-.7,2.23,2.23,0,0,1-.16-.83A2.17,2.17,0,0,1,40.5,62a2.39,2.39,0,0,1,.66.09h0l3.76-3.66h0a6.89,6.89,0,0,0-4.41-1.5,7,7,0,0,0-5.11,2.12m12.53-.85a9,9,0,0,1,2,5H51.2a2.26,2.26,0,0,1,.48-.69q-1-3-2-6Zm10.31-6.8a8.79,8.79,0,0,0-5.87,2.47L51.21,55c.76,2.28,1.53,4.56,2.29,6.83h0a2.72,2.72,0,0,1,.71.15h0L65.08,51.4H58.24M42.79,63.21h4.89a6.83,6.83,0,0,0-1.4-3.4Z"/></g><g class="cls-9"><path class="cls-10" d="M51.88,30.68c-.34,2.2.83,4.35,2.66,4.47s3.64-1.83,4-4-.87-4.07-2.7-4.19-3.6,1.55-3.94,3.74"/><path class="cls-11" d="M58.7,30.17A11.86,11.86,0,0,1,54,29.61c-.36.58-.85,2.56-2.18,2.24-.26-.45-.46-5.9,4-5.75,3.54.13,3.14,4.77,2.92,4.07"/><path class="cls-10" d="M52.43,30.84c-.07.49.18.91.57.94a.92.92,0,0,0,.84-.85c.07-.49-.18-.91-.57-.94s-.76.35-.84.85"/><path class="cls-12" d="M58,50.06,46.43,43.67l-.53,1c-.84,1.69-.41,3,1.28,4l2.71,1.46h0l5,2.81L53.29,65.41l3.93.51L59,52a2,2,0,0,0-1-2"/><path d="M53.29,65.41l-.16,1.31a.43.43,0,0,0,.37.48l3.07.39a.44.44,0,0,0,.49-.38l.16-1.29Z"/></g><g class="cls-6"><path class="cls-10" d="M61.4,43.19l-.83-.3-1.28,3.4.85.31a1.76,1.76,0,0,0,.63.12,1.82,1.82,0,0,0,.63-3.53"/><path class="cls-13" d="M91.49,71.16a7.25,7.25,0,0,0-1.41.13l2.33,6.92a1,1,0,0,1-.06.74h0a.88.88,0,0,1-.55.48h0a1,1,0,0,1-.74-.06h0a1,1,0,0,1-.49-.55h0l-2.32-6.92a7.28,7.28,0,0,0-1.86,1.36,7,7,0,0,0-2.11,4.81c0,.1,0,.21,0,.31a7.79,7.79,0,0,0,.07,1A6.89,6.89,0,0,0,85,81.63a7.59,7.59,0,0,0,1.38,1.87,7.23,7.23,0,0,0,12.34-5.11,7.93,7.93,0,0,0-.06-1,7.23,7.23,0,0,0-7.17-6.25m-.81-2.25q.41,0,.81,0A9.53,9.53,0,0,1,101,77.3c0,.35,0,.72,0,1.09a9.5,9.5,0,0,1-16.23,6.72A9,9,0,0,1,82,79.37c0-.32,0-.65,0-1a1.48,1.48,0,0,1,0-.21,6,6,0,0,1,0-.74,9.12,9.12,0,0,1,2.74-5.78,9.46,9.46,0,0,1,2.74-1.94l-.67-2h0L76.7,77.6h0a2.37,2.37,0,0,1,.13.81,2.32,2.32,0,0,1-.19,1,2.25,2.25,0,0,1-.5.7l-.12.12.48,1.44h.89a.86.86,0,0,1,.65.28.92.92,0,0,1,.29.68,1,1,0,0,1-.94,1H74.22a.92.92,0,0,1-.66-.29.9.9,0,0,1-.28-.68.91.91,0,0,1,.28-.68.87.87,0,0,1,.66-.28h.23c-.1-.3-.19-.59-.29-.88a3.16,3.16,0,0,1-.55-.14,2.46,2.46,0,0,1-.8-.54,2.4,2.4,0,0,1-.49-.7H71.11a10.42,10.42,0,0,1-.18,1.14,9.53,9.53,0,0,1-16,4.6,9.09,9.09,0,0,1-2.71-5.54,9.5,9.5,0,0,1,9.44-10.69,9.1,9.1,0,0,1,6.06,2.17l2.41-2.35-1.4-4.17H67.17a.94.94,0,0,1-.55-.28,1,1,0,0,1,0-1.37,1,1,0,0,1,.66-.28h5.53a1,1,0,0,1,.66.28,1,1,0,0,1,0,1.37.91.91,0,0,1-.66.28H70.75l.9,2.68.5-.49,0,0a10.63,10.63,0,0,1,7.14-3h6.16l-1-2.91H82.56a.92.92,0,0,1-.66-.29.9.9,0,0,1-.28-.68.91.91,0,0,1,.28-.68.87.87,0,0,1,.66-.28h2.69a.79.79,0,0,1,.51.18h0a.9.9,0,0,1,.35.47h0c.31.91.62,1.82.92,2.73Q88,65,88.88,67.73c.16.46.31.92.46,1.37a9.83,9.83,0,0,1,1.34-.19M56.53,73.28a7,7,0,0,0-2.12,5.11,9.3,9.3,0,0,0,.07,1.07,7.23,7.23,0,0,0,12.27,4,6.88,6.88,0,0,0,2-4.13H63.58a2.39,2.39,0,0,1-.41.55,2.16,2.16,0,0,1-3.07,0,2.19,2.19,0,0,1-.48-.7,2.23,2.23,0,0,1-.15-.83,2.17,2.17,0,0,1,2.16-2.17,2.69,2.69,0,0,1,.66.1h0l3.77-3.66h0a6.89,6.89,0,0,0-4.41-1.5,7,7,0,0,0-5.11,2.12m12.53-.85a9.06,9.06,0,0,1,2,5h1.22a2.26,2.26,0,0,1,.48-.69l-2-6Zm10.31-6.8A8.75,8.75,0,0,0,73.5,68.1l-1.16,1.13c.76,2.28,1.53,4.55,2.29,6.83h0a2.79,2.79,0,0,1,.72.15h0L86.21,65.63H79.37M63.92,77.44h4.89A6.82,6.82,0,0,0,67.42,74Z"/></g><g class="cls-9"><path class="cls-14" d="M72.74,51.67a3,3,0,0,1-1-.16l-.63-.22-4.08,7.58q-1.26,2.52,1.28,4L71,64.28l2.33-4.06L76,55.36l-.2-5.1L75.44,50a3,3,0,0,1-2.7,1.68"/><path class="cls-15" d="M79.12,64.29,67.56,57.9l-.53,1c-.84,1.69-.41,3,1.28,4L71,64.28h0l5,2.81L74.42,79.64l3.94.51,1.75-13.89a2,2,0,0,0-1-2"/><path d="M74.42,79.64,74.26,81a.43.43,0,0,0,.38.48l3.07.39a.43.43,0,0,0,.48-.38l.17-1.29Z"/><path class="cls-14" d="M77.25,55.47,76.1,50.93a1.79,1.79,0,0,0-.65-1,3,3,0,0,1-2.71,1.71h-.19a1,1,0,0,0,0,.17L74,57.3a1.78,1.78,0,0,0,1.13,1.25l5.32,2,1.28-3.4Z"/><path class="cls-16" d="M82.53,57.42l-.83-.3-1.28,3.4.85.31a1.76,1.76,0,0,0,.63.12,1.82,1.82,0,0,0,.63-3.53"/><path class="cls-16" d="M72.82,44.05c-.6,2.1.25,4.47,2,5s3.69-1.08,4.29-3.18-.33-4.21-2.06-4.7-3.61.82-4.21,2.92"/><path class="cls-11" d="M71.63,43.57l7.93,1.28s1-4-2.94-5-5,3.75-5,3.75"/><path class="cls-11" d="M72.07,50.62l-1.62-.57a2.05,2.05,0,0,1-1.27-2.61L72,42.57c.38-1.07,1.42-1.24,2.49-.87l.65.23a2.06,2.06,0,0,1,1.26,2.61l-1.67,4.81a2.07,2.07,0,0,1-2.62,1.27"/></g><g class="cls-2"><path class="cls-4" d="M66,110a50,50,0,1,1,50-50A50.06,50.06,0,0,1,66,110Zm0-97a47,47,0,1,0,47,47A47,47,0,0,0,66,13Z"/></g><path class="cls-4" d="M140.07,54.79V38.37h3.47V51.92h6.67v2.87Z"/><path class="cls-4" d="M164.2,48.49a6.64,6.64,0,0,1-1.65,4.83,5.9,5.9,0,0,1-4.47,1.7,6.27,6.27,0,0,1-3.12-.76A5.3,5.3,0,0,1,152.81,52a7.42,7.42,0,0,1-.78-3.55,6.62,6.62,0,0,1,1.63-4.81A6,6,0,0,1,158.15,42a6.38,6.38,0,0,1,3.13.75A5.47,5.47,0,0,1,163.41,45,7.24,7.24,0,0,1,164.2,48.49Zm-8.67,0a5.27,5.27,0,0,0,.61,2.82,2.53,2.53,0,0,0,4,0,5.27,5.27,0,0,0,.61-2.82,5.11,5.11,0,0,0-.61-2.79,2.21,2.21,0,0,0-2-.93,2.16,2.16,0,0,0-2,.93A5.11,5.11,0,0,0,155.53,48.49Z"/><path class="cls-4" d="M174.16,42a4.67,4.67,0,0,1,3.24,1.09,4.51,4.51,0,0,1,1.22,3.51v8.18h-3.43V47.46a3.53,3.53,0,0,0-.48-2,1.77,1.77,0,0,0-1.54-.68A2.2,2.2,0,0,0,171,45.81a6.52,6.52,0,0,0-.58,3.07v5.91H167V42.24h2.62l.46,1.61h.18a3.44,3.44,0,0,1,1.65-1.41A5.67,5.67,0,0,1,174.16,42Z"/><path class="cls-4" d="M186.21,42a4.19,4.19,0,0,1,3.63,1.84h.09l.28-1.61h2.9V54.82a5.16,5.16,0,0,1-1.59,4.09,6.86,6.86,0,0,1-4.69,1.4,17.18,17.18,0,0,1-2.47-.16,10.65,10.65,0,0,1-2.22-.57V56.84a12.56,12.56,0,0,0,4.9,1c1.76,0,2.64-1,2.64-2.86V54.7c0-.24,0-.51,0-.79s0-.53.07-.75h-.09a3.87,3.87,0,0,1-1.54,1.43,4.57,4.57,0,0,1-2,.43,4.09,4.09,0,0,1-3.49-1.71,7.91,7.91,0,0,1-1.25-4.77,7.88,7.88,0,0,1,1.29-4.81A4.15,4.15,0,0,1,186.21,42Zm1.08,2.78q-2.41,0-2.42,3.79t2.46,3.75a2.4,2.4,0,0,0,1.95-.75,4.08,4.08,0,0,0,.63-2.61v-.41a5.2,5.2,0,0,0-.62-2.9A2.28,2.28,0,0,0,187.29,44.79Z"/><path class="cls-4" d="M201.87,42a5.2,5.2,0,0,1,5.64,5.7v1.66h-8.1a3.26,3.26,0,0,0,.86,2.27,3.06,3.06,0,0,0,2.27.83,9.36,9.36,0,0,0,2.19-.24,10.1,10.1,0,0,0,2.06-.75v2.65a9.21,9.21,0,0,1-1.95.68,12.39,12.39,0,0,1-2.46.21,7.56,7.56,0,0,1-3.34-.7,5.33,5.33,0,0,1-2.28-2.11,7.1,7.1,0,0,1-.82-3.6,8.14,8.14,0,0,1,.74-3.66,5.09,5.09,0,0,1,2.09-2.21A6.29,6.29,0,0,1,201.87,42Zm0,2.43a2.24,2.24,0,0,0-1.65.65,3.07,3.07,0,0,0-.76,2h4.81a3.16,3.16,0,0,0-.61-1.89A2.15,2.15,0,0,0,201.89,44.44Z"/><path class="cls-4" d="M217.3,42c.17,0,.37,0,.6,0a3.24,3.24,0,0,1,.55.07l-.25,3.22a3.39,3.39,0,0,0-.48-.08,3.59,3.59,0,0,0-.53,0,4.81,4.81,0,0,0-1.68.31,2.81,2.81,0,0,0-1.3,1,3.19,3.19,0,0,0-.49,1.89v6.39h-3.43V42.24h2.6l.5,2.11h.16a5.29,5.29,0,0,1,1.52-1.65A3.76,3.76,0,0,1,217.3,42Z"/><path class="cls-4" d="M227,54.79V38.37h3.47V51.92h6.67v2.87Z"/><path class="cls-4" d="M241.43,37.31a2.34,2.34,0,0,1,1.31.36,1.85,1.85,0,0,1,0,2.63,2.52,2.52,0,0,1-2.63,0,1.87,1.87,0,0,1,0-2.63A2.33,2.33,0,0,1,241.43,37.31Zm1.7,4.93V54.79H239.7V42.24Z"/><path class="cls-4" d="M253.67,44.81h-3v10h-3.43v-10h-1.88V43.16l1.88-.92v-.92a4.81,4.81,0,0,1,.54-2.5,2.93,2.93,0,0,1,1.54-1.25,6.76,6.76,0,0,1,2.36-.37,9.34,9.34,0,0,1,1.82.16,7.39,7.39,0,0,1,1.33.37l-.87,2.5c-.26-.07-.55-.15-.87-.21a4.74,4.74,0,0,0-1-.11,1.24,1.24,0,0,0-1.05.44,1.78,1.78,0,0,0-.33,1.1v.79h3Z"/><path class="cls-4" d="M260.79,42a5.2,5.2,0,0,1,5.64,5.7v1.66h-8.1a3.22,3.22,0,0,0,.87,2.27,3,3,0,0,0,2.26.83,9.45,9.45,0,0,0,2.2-.24,10.32,10.32,0,0,0,2.06-.75v2.65a9.1,9.1,0,0,1-2,.68,12.25,12.25,0,0,1-2.46.21,7.48,7.48,0,0,1-3.33-.7,5.22,5.22,0,0,1-2.28-2.11,7.1,7.1,0,0,1-.83-3.6,8,8,0,0,1,.75-3.66,5.07,5.07,0,0,1,2.08-2.21A6.31,6.31,0,0,1,260.79,42Zm0,2.43a2.25,2.25,0,0,0-1.66.65,3.12,3.12,0,0,0-.76,2h4.81a3.16,3.16,0,0,0-.61-1.89A2.12,2.12,0,0,0,260.82,44.44Z"/><path class="cls-4" d="M278,51.07A3.46,3.46,0,0,1,276.63,54a6.58,6.58,0,0,1-4,1,12.32,12.32,0,0,1-2.26-.17,9,9,0,0,1-1.88-.56V51.46a12.7,12.7,0,0,0,2.18.76,8.46,8.46,0,0,0,2.07.3,2.6,2.6,0,0,0,1.43-.3.91.91,0,0,0,.43-.78,1,1,0,0,0-.17-.58,2.09,2.09,0,0,0-.75-.57,15.58,15.58,0,0,0-1.79-.83,12.27,12.27,0,0,1-1.94-1,3.28,3.28,0,0,1-1.12-1.2,3.82,3.82,0,0,1-.37-1.76,2.92,2.92,0,0,1,1.36-2.62,6.63,6.63,0,0,1,3.61-.87,10,10,0,0,1,2.23.23,10.16,10.16,0,0,1,2.19.75l-1,2.47a17.51,17.51,0,0,0-1.75-.66,5.34,5.34,0,0,0-1.67-.26c-1,0-1.52.27-1.52.82a.83.83,0,0,0,.19.54,2.33,2.33,0,0,0,.76.52c.38.19.93.43,1.67.74a12.42,12.42,0,0,1,1.86.91,3.43,3.43,0,0,1,1.21,1.18A3.55,3.55,0,0,1,278,51.07Z"/><path class="cls-4" d="M287.64,42a4.14,4.14,0,0,1,3.42,1.64,7.61,7.61,0,0,1,1.31,4.84A7.59,7.59,0,0,1,291,53.37,4.32,4.32,0,0,1,287.54,55a4.11,4.11,0,0,1-2.16-.49,5,5,0,0,1-1.31-1.12h-.18a10.13,10.13,0,0,1,.18,1.84v5.06h-3.43V42.24h2.79l.48,1.63h.16a4.61,4.61,0,0,1,1.36-1.31A4,4,0,0,1,287.64,42Zm-1.11,2.73a2.06,2.06,0,0,0-1.88.84,4.78,4.78,0,0,0-.58,2.52v.37a5.85,5.85,0,0,0,.54,2.79,2,2,0,0,0,2,1,1.84,1.84,0,0,0,1.73-1,5.65,5.65,0,0,0,.57-2.81Q288.88,44.74,286.53,44.74Z"/><path class="cls-4" d="M300.35,42a6,6,0,0,1,3.88,1.1,4,4,0,0,1,1.35,3.34v8.37h-2.4l-.66-1.7h-.1a5.09,5.09,0,0,1-1.7,1.47,5.42,5.42,0,0,1-2.46.46,4.07,4.07,0,0,1-2.78-1,3.8,3.8,0,0,1-1.11-3,3.29,3.29,0,0,1,1.41-2.94A8.24,8.24,0,0,1,300,47l2.18-.07v-.55a1.83,1.83,0,0,0-.52-1.45,2.1,2.1,0,0,0-1.43-.46,6,6,0,0,0-1.8.27,14.37,14.37,0,0,0-1.75.65l-1.12-2.32a10.44,10.44,0,0,1,2.23-.82A10.89,10.89,0,0,1,300.35,42Zm1.82,7-1.33.05a3.74,3.74,0,0,0-2.3.6,1.82,1.82,0,0,0-.65,1.45,1.29,1.29,0,0,0,.46,1.11,2,2,0,0,0,1.2.34,2.71,2.71,0,0,0,1.86-.66,2.3,2.3,0,0,0,.76-1.85Z"/><path class="cls-4" d="M316.22,42a4.68,4.68,0,0,1,3.25,1.09,4.51,4.51,0,0,1,1.22,3.51v8.18h-3.43V47.46a3.53,3.53,0,0,0-.48-2,1.77,1.77,0,0,0-1.54-.68,2.2,2.2,0,0,0-2.14,1.07,6.52,6.52,0,0,0-.58,3.07v5.91h-3.43V42.24h2.63l.46,1.61h.18A3.46,3.46,0,0,1,314,42.44,5.74,5.74,0,0,1,316.22,42Z"/><path class="cls-4" d="M333,51.07A3.46,3.46,0,0,1,331.62,54a6.56,6.56,0,0,1-4,1,12.2,12.2,0,0,1-2.25-.17,9,9,0,0,1-1.89-.56V51.46a12.7,12.7,0,0,0,2.18.76,8.59,8.59,0,0,0,2.07.3,2.6,2.6,0,0,0,1.43-.3.92.92,0,0,0,.44-.78,1,1,0,0,0-.17-.58,2.3,2.3,0,0,0-.75-.57,15.91,15.91,0,0,0-1.8-.83,12.73,12.73,0,0,1-1.94-1,3.28,3.28,0,0,1-1.12-1.2,3.83,3.83,0,0,1-.36-1.76,2.92,2.92,0,0,1,1.35-2.62,6.63,6.63,0,0,1,3.61-.87,10.13,10.13,0,0,1,2.24.23,10.27,10.27,0,0,1,2.18.75l-1,2.47a18.35,18.35,0,0,0-1.74-.66,5.36,5.36,0,0,0-1.68-.26c-1,0-1.52.27-1.52.82a.84.84,0,0,0,.2.54,2.26,2.26,0,0,0,.75.52c.38.19.94.43,1.67.74a12.42,12.42,0,0,1,1.86.91,3.35,3.35,0,0,1,1.21,1.18A3.45,3.45,0,0,1,333,51.07Z"/><path d="M142.69,74.58h3.68v4.81a11.65,11.65,0,0,1-1.52.39,9.67,9.67,0,0,1-1.78.14,4.1,4.1,0,0,1-3.2-1.22,5.12,5.12,0,0,1-1.12-3.56,5.38,5.38,0,0,1,.56-2.52A3.92,3.92,0,0,1,141,71a5.48,5.48,0,0,1,2.64-.59,6.47,6.47,0,0,1,1.46.16,6.61,6.61,0,0,1,1.3.41l-.65,1.58a4.88,4.88,0,0,0-1-.37,4.68,4.68,0,0,0-1.14-.14,2.78,2.78,0,0,0-1.49.39,2.6,2.6,0,0,0-1,1.1,3.83,3.83,0,0,0-.35,1.67,4.69,4.69,0,0,0,.25,1.61,2.22,2.22,0,0,0,.78,1.1,2.29,2.29,0,0,0,1.39.4,6.47,6.47,0,0,0,.7,0l.55-.09V76.22h-1.76Z"/><path d="M152.59,72.57h.33a2.13,2.13,0,0,1,.32,0l-.15,1.82a1.46,1.46,0,0,0-.27,0l-.3,0a2.59,2.59,0,0,0-1,.18,1.51,1.51,0,0,0-.73.56,1.79,1.79,0,0,0-.28,1.07v3.61h-1.94V72.7h1.47l.29,1.19h.09a2.79,2.79,0,0,1,.85-.93A2.15,2.15,0,0,1,152.59,72.57Z"/><path d="M160.91,76.23A3.76,3.76,0,0,1,160,79a3.37,3.37,0,0,1-2.53,1,3.5,3.5,0,0,1-1.76-.43,3,3,0,0,1-1.22-1.25,4.26,4.26,0,0,1-.44-2,3.78,3.78,0,0,1,.92-2.72,3.39,3.39,0,0,1,2.54-.94,3.61,3.61,0,0,1,1.76.42,3,3,0,0,1,1.21,1.25A4.09,4.09,0,0,1,160.91,76.23Zm-4.91,0a3,3,0,0,0,.35,1.59,1.43,1.43,0,0,0,2.24,0,3.08,3.08,0,0,0,.34-1.59,3,3,0,0,0-.34-1.58,1.26,1.26,0,0,0-1.13-.53,1.23,1.23,0,0,0-1.11.53A2.91,2.91,0,0,0,156,76.23Z"/><path d="M168.29,79.79l-.55-2.48q0-.23-.15-.66t-.21-.93l-.22-.93c-.07-.28-.12-.48-.14-.61H167c0,.13-.07.33-.13.61l-.22.93c-.07.33-.15.65-.22.94s-.12.52-.15.68l-.58,2.45h-2.08l-2-7.09h1.92l.82,3.14a6.45,6.45,0,0,1,.16.79c.05.3.1.59.13.87s.08.5.1.67h.05c0-.12,0-.29.06-.49s.05-.41.09-.63.08-.41.11-.59.05-.29.07-.36l.87-3.4h2.13l.83,3.4c0,.12.07.32.12.59s.1.54.13.81.06.5.07.67h.05l.09-.65c0-.28.09-.57.15-.88s.11-.57.17-.8l.85-3.14h1.9l-2,7.09Z"/><path d="M174.75,69.91a1.36,1.36,0,0,1,.74.2.83.83,0,0,1,.31.75.81.81,0,0,1-.31.74,1.29,1.29,0,0,1-.74.21,1.32,1.32,0,0,1-.75-.21.83.83,0,0,1-.3-.74.85.85,0,0,1,.3-.75A1.4,1.4,0,0,1,174.75,69.91Zm1,2.79v7.09h-1.93V72.7Z"/><path d="M182,72.57a2.65,2.65,0,0,1,1.83.61,2.54,2.54,0,0,1,.69,2v4.62h-1.94V75.65a2,2,0,0,0-.27-1.15,1,1,0,0,0-.87-.39,1.23,1.23,0,0,0-1.21.61,3.66,3.66,0,0,0-.33,1.73v3.34h-1.93V72.7h1.48l.26.9h.1a2,2,0,0,1,.93-.79A3.29,3.29,0,0,1,182,72.57Z"/><path d="M189,72.57a2.38,2.38,0,0,1,2,1h.06l.15-.9h1.64v7.11a2.92,2.92,0,0,1-.9,2.31,3.89,3.89,0,0,1-2.65.79,10.19,10.19,0,0,1-1.4-.09,6,6,0,0,1-1.25-.32V81a7.13,7.13,0,0,0,2.77.55c1,0,1.49-.54,1.49-1.62v-.14c0-.14,0-.29,0-.45s0-.3,0-.42h-.05a2.23,2.23,0,0,1-.87.81,2.64,2.64,0,0,1-1.14.24,2.29,2.29,0,0,1-2-1,5.44,5.44,0,0,1,0-5.41A2.35,2.35,0,0,1,189,72.57Zm.61,1.57c-.91,0-1.36.71-1.36,2.14s.46,2.12,1.39,2.12a1.34,1.34,0,0,0,1.09-.42,2.3,2.3,0,0,0,.36-1.48v-.23a2.87,2.87,0,0,0-.35-1.64A1.28,1.28,0,0,0,189.57,74.14Z"/><path d="M202.67,72.57a2.65,2.65,0,0,1,1.84.61,2.54,2.54,0,0,1,.69,2v4.62h-1.94V75.65A2,2,0,0,0,203,74.5a1,1,0,0,0-.87-.39,1.23,1.23,0,0,0-1.21.61,3.66,3.66,0,0,0-.33,1.73v3.34h-1.94V72.7h1.49l.26.9h.1a2,2,0,0,1,.93-.79A3.27,3.27,0,0,1,202.67,72.57Z"/><path d="M210.29,72.57a2.93,2.93,0,0,1,3.19,3.22v.93H208.9a1.84,1.84,0,0,0,.49,1.29,1.72,1.72,0,0,0,1.28.47,5.35,5.35,0,0,0,1.24-.14,5.61,5.61,0,0,0,1.16-.42v1.5a4.78,4.78,0,0,1-1.1.38,6.91,6.91,0,0,1-1.39.12,4.37,4.37,0,0,1-1.89-.39,3,3,0,0,1-1.28-1.2,3.89,3.89,0,0,1-.47-2,4.54,4.54,0,0,1,.42-2.07A2.81,2.81,0,0,1,208.54,73,3.51,3.51,0,0,1,210.29,72.57Zm0,1.37a1.24,1.24,0,0,0-.94.37,1.75,1.75,0,0,0-.43,1.13h2.72a1.78,1.78,0,0,0-.35-1.07A1.2,1.2,0,0,0,210.31,73.94Z"/><path d="M218.17,72.57a2.92,2.92,0,0,1,3.18,3.22v.93h-4.57a1.84,1.84,0,0,0,.49,1.29,1.71,1.71,0,0,0,1.28.47,5.35,5.35,0,0,0,1.24-.14,5.83,5.83,0,0,0,1.16-.42v1.5a4.78,4.78,0,0,1-1.1.38,6.91,6.91,0,0,1-1.39.12,4.37,4.37,0,0,1-1.89-.39,3,3,0,0,1-1.29-1.2,4,4,0,0,1-.46-2,4.54,4.54,0,0,1,.42-2.07A2.81,2.81,0,0,1,216.42,73,3.51,3.51,0,0,1,218.17,72.57Zm0,1.37a1.23,1.23,0,0,0-.93.37,1.7,1.7,0,0,0-.43,1.13h2.72a1.78,1.78,0,0,0-.35-1.07A1.22,1.22,0,0,0,218.18,73.94Z"/><path d="M225.37,79.92a2.36,2.36,0,0,1-1.93-.93,4.27,4.27,0,0,1-.75-2.73,4.32,4.32,0,0,1,.76-2.76,2.41,2.41,0,0,1,2-.93,2.51,2.51,0,0,1,1.27.29,2.48,2.48,0,0,1,.77.74h.07c0-.13-.06-.34-.09-.6a5.34,5.34,0,0,1-.05-.81V69.91h1.93v9.88h-1.48l-.38-.92h-.07a2.51,2.51,0,0,1-.77.75A2.34,2.34,0,0,1,225.37,79.92Zm.68-1.54a1.26,1.26,0,0,0,1.12-.48,2.76,2.76,0,0,0,.35-1.42v-.21a3.22,3.22,0,0,0-.32-1.58,1.24,1.24,0,0,0-1.18-.55,1.13,1.13,0,0,0-1,.55,2.92,2.92,0,0,0-.36,1.59,2.78,2.78,0,0,0,.36,1.57A1.19,1.19,0,0,0,226.05,78.38Z"/><path d="M236.49,77.69a2,2,0,0,1-.76,1.65,3.71,3.71,0,0,1-2.27.58,7.84,7.84,0,0,1-1.28-.09,6.11,6.11,0,0,1-1.06-.32v-1.6a8.45,8.45,0,0,0,1.23.43,4.92,4.92,0,0,0,1.17.17,1.5,1.5,0,0,0,.81-.17.54.54,0,0,0,.25-.45.6.6,0,0,0-.1-.32,1.32,1.32,0,0,0-.42-.32,8.92,8.92,0,0,0-1-.47,6.5,6.5,0,0,1-1.1-.57,1.83,1.83,0,0,1-.63-.67,2.15,2.15,0,0,1-.21-1,1.65,1.65,0,0,1,.77-1.48,3.71,3.71,0,0,1,2-.49,5.73,5.73,0,0,1,1.26.13,5.5,5.5,0,0,1,1.24.42l-.59,1.39c-.34-.14-.67-.27-1-.37a3.13,3.13,0,0,0-1-.14c-.58,0-.86.15-.86.46a.49.49,0,0,0,.11.31,1.26,1.26,0,0,0,.43.29c.21.11.52.24.94.42a6.44,6.44,0,0,1,1.05.51,1.93,1.93,0,0,1,.69.67A2,2,0,0,1,236.49,77.69Z"/><path d="M244,79.92a2.38,2.38,0,0,1-1.93-.93,4.27,4.27,0,0,1-.74-2.73,4.33,4.33,0,0,1,.75-2.76,2.42,2.42,0,0,1,2-.93,2.5,2.5,0,0,1,1.26.29,2.41,2.41,0,0,1,.78.74h.06l-.09-.6a7,7,0,0,1-.05-.81V69.91H248v9.88h-1.49l-.37-.92H246a2.51,2.51,0,0,1-.77.75A2.31,2.31,0,0,1,244,79.92Zm.68-1.54a1.26,1.26,0,0,0,1.12-.48,2.76,2.76,0,0,0,.35-1.42v-.21a3.22,3.22,0,0,0-.32-1.58,1.23,1.23,0,0,0-1.18-.55,1.14,1.14,0,0,0-1,.55,2.92,2.92,0,0,0-.36,1.59,2.78,2.78,0,0,0,.36,1.57A1.2,1.2,0,0,0,244.69,78.38Z"/><path d="M254.14,72.57h.34l.31,0-.14,1.82a1.46,1.46,0,0,0-.27,0l-.3,0a2.55,2.55,0,0,0-1,.18,1.53,1.53,0,0,0-.74.56,1.86,1.86,0,0,0-.28,1.07v3.61h-1.93V72.7h1.47l.28,1.19H252a2.93,2.93,0,0,1,.86-.93A2.1,2.1,0,0,1,254.14,72.57Z"/><path d="M257.25,69.91a1.39,1.39,0,0,1,.74.2.83.83,0,0,1,.31.75.81.81,0,0,1-.31.74,1.31,1.31,0,0,1-.74.21,1.28,1.28,0,0,1-.75-.21.84.84,0,0,1-.31-.74.86.86,0,0,1,.31-.75A1.35,1.35,0,0,1,257.25,69.91Zm1,2.79v7.09h-1.94V72.7Z"/><path d="M262.12,79.79l-2.7-7.09h2l1.36,4a4.56,4.56,0,0,1,.18.75,5.17,5.17,0,0,1,.09.7h.06a5.62,5.62,0,0,1,.28-1.45l1.37-4h2l-2.71,7.09Z"/><path d="M271,72.57a2.92,2.92,0,0,1,3.18,3.22v.93h-4.57a1.84,1.84,0,0,0,.49,1.29,1.71,1.71,0,0,0,1.28.47,5.35,5.35,0,0,0,1.24-.14,5.83,5.83,0,0,0,1.16-.42v1.5a4.78,4.78,0,0,1-1.1.38,6.91,6.91,0,0,1-1.39.12,4.37,4.37,0,0,1-1.89-.39,3,3,0,0,1-1.29-1.2,4,4,0,0,1-.46-2,4.54,4.54,0,0,1,.42-2.07A2.84,2.84,0,0,1,269.19,73,3.58,3.58,0,0,1,271,72.57Zm0,1.37a1.23,1.23,0,0,0-.93.37,1.7,1.7,0,0,0-.43,1.13h2.71a1.71,1.71,0,0,0-.34-1.07A1.22,1.22,0,0,0,271,73.94Z"/><path d="M279.93,72.57a2.65,2.65,0,0,1,1.84.61,2.58,2.58,0,0,1,.69,2v4.62h-1.94V75.65a2,2,0,0,0-.27-1.15,1,1,0,0,0-.88-.39,1.22,1.22,0,0,0-1.2.61,3.66,3.66,0,0,0-.33,1.73v3.34H275.9V72.7h1.48l.26.9h.11a2,2,0,0,1,.93-.79A3.27,3.27,0,0,1,279.93,72.57Z"/><path d="M290.14,69.91v2.3c0,.27,0,.54,0,.8s0,.46-.05.61h.08a2.37,2.37,0,0,1,.76-.75,2.34,2.34,0,0,1,1.25-.3,2.37,2.37,0,0,1,1.94.92,5.45,5.45,0,0,1,0,5.5,2.43,2.43,0,0,1-2,.93,2.29,2.29,0,0,1-1.23-.28,2.66,2.66,0,0,1-.73-.63H290l-.33.78H288.2V69.91Zm1.39,4.2a1.19,1.19,0,0,0-1.07.48,2.66,2.66,0,0,0-.32,1.42v.21a3.39,3.39,0,0,0,.3,1.58,1.16,1.16,0,0,0,1.11.55,1.07,1.07,0,0,0,.95-.55,2.93,2.93,0,0,0,.35-1.59,2.79,2.79,0,0,0-.35-1.57A1.12,1.12,0,0,0,291.53,74.11Z"/><path d="M295.35,72.7h2.12l1.34,4a3.19,3.19,0,0,1,.15.59,6.21,6.21,0,0,1,.08.64h0c0-.22.06-.44.1-.64s.1-.39.17-.59l1.32-4h2.08l-3,8a3.44,3.44,0,0,1-1.18,1.66,2.94,2.94,0,0,1-1.78.55,4.45,4.45,0,0,1-.57,0l-.42-.07V81.28l.34,0,.43,0a1.24,1.24,0,0,0,1-.37,2.4,2.4,0,0,0,.53-.89l.12-.35Z"/><path d="M309.46,79.79h-1.94V69.91h1.94Z"/><path d="M318.13,76.23A3.76,3.76,0,0,1,317.2,79a3.37,3.37,0,0,1-2.53,1,3.5,3.5,0,0,1-1.76-.43,3,3,0,0,1-1.22-1.25,4.26,4.26,0,0,1-.44-2,3.78,3.78,0,0,1,.92-2.72,3.39,3.39,0,0,1,2.54-.94,3.61,3.61,0,0,1,1.76.42,3,3,0,0,1,1.21,1.25A4.09,4.09,0,0,1,318.13,76.23Zm-4.91,0a3,3,0,0,0,.35,1.59,1.43,1.43,0,0,0,2.24,0,3,3,0,0,0,.34-1.59,2.92,2.92,0,0,0-.34-1.58,1.26,1.26,0,0,0-1.13-.53,1.23,1.23,0,0,0-1.11.53A2.91,2.91,0,0,0,313.22,76.23Z"/><path d="M324,72.57a2.65,2.65,0,0,1,1.83.61,2.54,2.54,0,0,1,.69,2v4.62h-1.94V75.65a2,2,0,0,0-.27-1.15,1,1,0,0,0-.87-.39,1.24,1.24,0,0,0-1.21.61,3.68,3.68,0,0,0-.32,1.73v3.34h-1.94V72.7h1.48l.26.9h.11a2,2,0,0,1,.92-.79A3.36,3.36,0,0,1,324,72.57Z"/><path d="M330.94,72.57a2.39,2.39,0,0,1,2.06,1h.05l.16-.9h1.63v7.11a3,3,0,0,1-.89,2.31,3.91,3.91,0,0,1-2.66.79,10,10,0,0,1-1.39-.09,6.13,6.13,0,0,1-1.26-.32V81a7.17,7.17,0,0,0,2.77.55q1.5,0,1.5-1.62v-.14c0-.14,0-.29,0-.45s0-.3,0-.42h0a2.38,2.38,0,0,1-.87.81,2.66,2.66,0,0,1-1.15.24,2.29,2.29,0,0,1-2-1,5.44,5.44,0,0,1,0-5.41A2.36,2.36,0,0,1,330.94,72.57Zm.61,1.57c-.91,0-1.36.71-1.36,2.14s.46,2.12,1.39,2.12a1.36,1.36,0,0,0,1.1-.42A2.3,2.3,0,0,0,333,76.5v-.23a3,3,0,0,0-.35-1.64A1.3,1.3,0,0,0,331.55,74.14Z"/><path d="M340,72.57a2.93,2.93,0,0,1,3.19,3.22v.93H338.6a1.84,1.84,0,0,0,.49,1.29,1.72,1.72,0,0,0,1.28.47,5.35,5.35,0,0,0,1.24-.14,5.61,5.61,0,0,0,1.16-.42v1.5a4.78,4.78,0,0,1-1.1.38,6.91,6.91,0,0,1-1.39.12,4.37,4.37,0,0,1-1.89-.39,3,3,0,0,1-1.28-1.2,3.89,3.89,0,0,1-.47-2,4.54,4.54,0,0,1,.42-2.07A2.81,2.81,0,0,1,338.24,73,3.51,3.51,0,0,1,340,72.57Zm0,1.37a1.23,1.23,0,0,0-.93.37,1.75,1.75,0,0,0-.43,1.13h2.72a1.78,1.78,0,0,0-.35-1.07A1.2,1.2,0,0,0,340,73.94Z"/><path d="M346.39,79.79l-2.71-7.09h2l1.37,4q.1.36.18.75c0,.26.07.5.09.7h0a5.65,5.65,0,0,1,.29-1.45l1.36-4h2l-2.7,7.09Z"/><path d="M353.26,69.91a1.4,1.4,0,0,1,.75.2.86.86,0,0,1,.31.75.84.84,0,0,1-.31.74,1.32,1.32,0,0,1-.75.21,1.27,1.27,0,0,1-.74-.21.81.81,0,0,1-.31-.74.83.83,0,0,1,.31-.75A1.34,1.34,0,0,1,353.26,69.91Zm1,2.79v7.09h-1.94V72.7Z"/><path d="M359.44,78.38a3.11,3.11,0,0,0,.62-.06c.2,0,.4-.1.6-.16V79.6a3.94,3.94,0,0,1-.77.23,5.34,5.34,0,0,1-1,.09,3,3,0,0,1-1.14-.21A1.55,1.55,0,0,1,357,79a2.83,2.83,0,0,1-.29-1.43V74.15h-.93v-.82l1.07-.65.56-1.49h1.23V72.7h2v1.45h-2v3.42a.73.73,0,0,0,.24.6A.87.87,0,0,0,359.44,78.38Z"/><path d="M361.27,72.7h2.12l1.34,4a4.31,4.31,0,0,1,.16.59,6.27,6.27,0,0,1,.07.64h0a6.09,6.09,0,0,1,.11-.64,4.36,4.36,0,0,1,.17-.59l1.31-4h2.08l-3,8a3.52,3.52,0,0,1-1.19,1.66,2.94,2.94,0,0,1-1.78.55,4.67,4.67,0,0,1-.57,0l-.42-.07V81.28l.34,0,.43,0a1.24,1.24,0,0,0,1-.37,2.42,2.42,0,0,0,.54-.89l.11-.35Z"/></svg>