<svg id="Layer_1" data-name="Layer 1" xmlns="http://www.w3.org/2000/svg" xmlns:xlink="http://www.w3.org/1999/xlink" viewBox="0 0 450 120"><defs><style>.cls-1{fill:none;}.cls-2{clip-path:url(#clip-path);}.cls-3{fill:#efeaf0;}.cls-4{fill:#fff;}.cls-5{clip-path:url(#clip-path-2);}.cls-6{fill:#95bb3d;}.cls-7{fill:#0156a3;}.cls-8{fill:#29b8eb;}.cls-9{clip-path:url(#clip-path-3);}.cls-10{fill:#633169;}</style><clipPath id="clip-path"><rect class="cls-1" width="450" height="120"/></clipPath><clipPath id="clip-path-2"><path class="cls-1" d="M17.5,60A48.5,48.5,0,1,0,66,11.5,48.5,48.5,0,0,0,17.5,60"/></clipPath><clipPath id="clip-path-3"><path class="cls-1" d="M39.31,19.5A48.61,48.61,0,0,0,20.19,44V76A48.65,48.65,0,0,0,46.68,104.5H62.86v-85Z"/></clipPath></defs><g class="cls-2"><path class="cls-3" d="M66,14h0v92H396a45,45,0,0,0,45-45V59a45,45,0,0,0-45-45Z"/><path class="cls-4" d="M66,108.5A48.5,48.5,0,1,0,17.5,60,48.49,48.49,0,0,0,66,108.5"/></g><g class="cls-5"><rect class="cls-6" x="83.39" y="46.01" width="4.11" height="4.11"/><path class="cls-7" d="M87.2,53.92H83.68V50.41H87.2Zm.29-3.81h-4.1v4.11h4.1Z"/><rect class="cls-7" x="79.28" y="54.22" width="4.11" height="4.11"/><rect class="cls-6" x="87.49" y="62.43" width="4.11" height="4.11"/><rect class="cls-6" x="83.39" y="54.21" width="4.11" height="4.1"/><path class="cls-7" d="M95.41,58H91.89V54.5h3.52Zm.3-3.81H91.6v4.1h4.11Z"/><rect class="cls-7" x="66.97" y="54.21" width="4.11" height="4.1"/><rect class="cls-6" x="66.97" y="58.32" width="4.11" height="4.1"/><rect class="cls-6" x="75.18" y="58.32" width="4.11" height="4.1"/><path class="cls-6" d="M74.88,62.13H71.36V58.61h3.52Zm.29-3.81H71.06v4.11h4.11Z"/><rect class="cls-6" x="83.39" y="66.53" width="4.11" height="4.11"/><path class="cls-7" d="M83.1,66.24H79.58V62.72H83.1Zm.29-3.81H79.28v4.1h4.11Z"/><path class="cls-6" d="M91.31,53.92H87.79V50.41h3.52Zm.29-3.81H87.49v4.11H91.6Z"/><path class="cls-6" d="M95.41,49.82H91.89V46.3h3.52Zm.3-3.82H91.6v4.11h4.11Z"/><rect class="cls-7" x="83.39" y="58.32" width="4.11" height="4.1"/><rect class="cls-7" x="71.06" y="74.74" width="4.11" height="4.11"/><path class="cls-7" d="M83.09,82.66H79.57V79.14h3.52Zm.3-3.81H79.28V83h4.11Z"/><rect class="cls-6" x="71.06" y="82.96" width="4.11" height="4.1"/><rect class="cls-6" x="75.18" y="78.85" width="4.11" height="4.1"/><rect class="cls-6" x="79.28" y="74.74" width="4.11" height="4.11"/><path class="cls-7" d="M79,78.56H75.47V75H79Zm.29-3.82H75.17v4.11h4.11Z"/><path class="cls-6" d="M87.2,74.45H83.68V70.93H87.2Zm.29-3.81h-4.1v4.1h4.1Z"/><path class="cls-7" d="M91.31,78.56H87.79V75h3.52Zm.29-3.82H87.49v4.11H91.6Z"/><path class="cls-6" d="M99.52,66.24H96V62.72h3.52Zm.29-3.81H95.7v4.1h4.11Z"/><polygon class="cls-6" points="71.06 62.43 71.06 66.53 66.96 66.53 66.96 70.64 71.06 70.64 75.17 70.64 75.17 66.65 75.17 66.53 75.17 62.43 71.06 62.43"/><polygon class="cls-7" points="66.97 66.63 67.25 66.63 67.25 66.53 71.06 66.53 71.06 62.43 67.25 62.43 67.25 62.43 66.97 62.43 66.97 58.32 62.86 58.32 62.86 62.43 62.86 62.71 62.86 66.53 62.86 66.63 62.86 70.26 62.86 70.64 62.86 74.48 62.86 74.74 62.86 78.81 62.86 78.85 62.86 82.92 62.86 87.02 66.97 87.02 66.97 82.95 71.06 82.95 71.06 78.85 66.97 78.85 66.97 78.81 66.97 74.74 71.06 74.74 71.06 70.64 66.97 70.64 66.97 70.26 66.97 66.63"/><polygon class="cls-7" points="79.51 66.53 79.28 66.53 79.28 62.43 75.18 62.43 75.18 66.53 75.18 66.67 75.18 70.41 75.18 70.64 75.18 74.75 79.28 74.75 79.28 70.64 79.51 70.64 83.39 70.64 83.39 66.53 79.51 66.53"/><rect class="cls-7" x="71.06" y="41.9" width="4.11" height="4.11"/><rect class="cls-6" x="75.18" y="37.79" width="4.11" height="4.11"/><rect class="cls-6" x="83.39" y="37.79" width="4.11" height="4.11"/><path class="cls-7" d="M83.1,45.71H79.58V42.19H83.1Zm.29-3.81H79.28V46h4.11Z"/><path class="cls-8" d="M49.13,93a6.44,6.44,0,0,1-3.61-1c-3.25-2.14-4.11-7.45-2.42-15S48.74,60.9,54.28,52.48C65.75,35,80.48,24.41,87.12,28.78s2.72,22.11-8.75,39.54c-5.54,8.42-12,15.52-18.16,20C55.94,91.43,52.14,93,49.13,93ZM83.5,28.21c-7.3,0-19.21,9.84-28.86,24.51-5.51,8.37-9.46,17-11.12,24.44s-.85,12.47,2.24,14.5S53.89,92.38,60,88,72.49,76.46,78,68.08l.19.12L78,68.08c11.34-17.23,15.33-34.7,8.89-38.94A6.08,6.08,0,0,0,83.5,28.21Z"/><path class="cls-8" d="M89.55,29a2.38,2.38,0,1,1-2.37-2.37A2.37,2.37,0,0,1,89.55,29"/><path class="cls-8" d="M50.18,92.36A2.37,2.37,0,1,1,47.81,90a2.38,2.38,0,0,1,2.37,2.37"/><polygon class="cls-6" points="75.18 46.01 75.18 50.11 71.07 50.11 71.07 50.1 71.07 46 66.97 46 66.97 41.9 67.33 41.9 71.06 41.9 71.06 37.79 67.33 37.79 66.97 37.79 66.97 33.69 62.86 33.69 62.86 37.79 62.86 38.2 62.86 41.54 62.86 41.9 62.86 46.01 62.86 46.28 62.86 50.11 62.86 53.95 62.86 54.22 62.86 58.32 66.97 58.32 66.97 54.22 67.33 54.22 67.33 54.21 71.06 54.21 71.06 58.31 75.17 58.31 75.17 54.22 75.18 54.22 79.28 54.22 79.28 50.18 79.28 50.11 79.28 46.01 75.18 46.01"/><rect class="cls-7" x="71.06" y="33.69" width="4.11" height="4.11"/></g><g class="cls-9"><path class="cls-7" d="M45.68,42.43c.06-.12.12-.25.2-.38a3.3,3.3,0,0,1,.52-.64,4.55,4.55,0,0,0,.57-.59l-.29.09a2.66,2.66,0,0,0-.58.3l-.27.18a.86.86,0,0,0-.18.14.27.27,0,0,0-.08.07l-.26.18a.28.28,0,0,1-.27.07.27.27,0,0,1-.13-.1l-.44.45.44-.45c-.17.16-.33.33-.49.51l-.08.09,0,0a.48.48,0,0,1,.17.33,3,3,0,0,1,0,.85s0,.07,0,.1a6.48,6.48,0,0,0-.06.77v0s0,.12,0,.14h0a.19.19,0,0,0,.12,0,1.12,1.12,0,0,0,.3-.27,3.47,3.47,0,0,0,.45-.7l.1-.18a.28.28,0,0,0,0-.18.93.93,0,0,1,0-.41,3.12,3.12,0,0,1,.15-.39"/><path class="cls-7" d="M77.14,37.08l.66.39,0,.1h0c.05.11.1.22.14.33v0a.89.89,0,0,1,.08.35.2.2,0,0,1-.07.15l-.07,0h-.06a.63.63,0,0,1-.22-.21l0,0-.2-.28c-.08-.12-.17-.23-.26-.35l0,0c-.16-.19-.31-.39-.48-.58l-.25-.26c-.61-.32-1.23-.62-1.87-.89l-.16,0a1.22,1.22,0,0,1-.27,0h0a.6.6,0,0,0-.23,0l-.11,0-.14,0-.08,0-.19,0-.16.06-.09,0a1.34,1.34,0,0,1-.26.09h0l-.24.07-.24.12a.74.74,0,0,0-.2.16.45.45,0,0,0-.11.23A.39.39,0,0,0,72,37a.6.6,0,0,0,.17.22h0a1.26,1.26,0,0,0,.34.15h0l.32.11.14,0a6.19,6.19,0,0,1,.6.23l0,0,.11.05a.39.39,0,0,0,.15,0H74a.63.63,0,0,1,.24,0,.53.53,0,0,1,.21.21c.06.1.12.2.17.3a2.48,2.48,0,0,0,.17.29.65.65,0,0,0,.25.2l.12.06a1.19,1.19,0,0,1,.43.3.53.53,0,0,1,.13.27.38.38,0,0,1-.11.29,1.25,1.25,0,0,1-.22.16l-.06,0a1.2,1.2,0,0,1-.3.15.54.54,0,0,1-.31,0,.74.74,0,0,1-.25-.2,2.47,2.47,0,0,1-.36-.53,1.53,1.53,0,0,0,0,.3,2,2,0,0,0,.07.26c0,.14.06.28.08.42a2.7,2.7,0,0,1,0,.65,1.54,1.54,0,0,1-.08.34c-.05.1-.11.19-.16.28a.1.1,0,0,0,0,.05c0,.07-.1.15-.16.22l-.16.16-.07.07a.85.85,0,0,1-.27.18,1,1,0,0,1-.34,0l-.3,0H72.7a.42.42,0,0,0-.29,0l0,0h0a.46.46,0,0,0-.22.34h0v0a.43.43,0,0,0,0,.16,1.17,1.17,0,0,0,.29.59l.06.07a3.27,3.27,0,0,1,.35.48,1.86,1.86,0,0,1,.26.63c0,.12,0,.25,0,.35v.36a.61.61,0,0,1-.36.49,2,2,0,0,1-.33.08,2.07,2.07,0,0,1-.36,0,1,1,0,0,1-.6-.2.85.85,0,0,1-.18-.27c0-.1-.09-.2-.13-.3a3.84,3.84,0,0,1-.11-.46c0-.07,0-.14,0-.21h0a.7.7,0,0,0-.12-.3l-.11-.16-.09-.12,0-.07-.08-.1h0v0l0-.06a.47.47,0,0,0-.12-.09.39.39,0,0,0-.15,0h-.41a1.29,1.29,0,0,1-.28,0,.38.38,0,0,1-.26-.14l-.12-.18a.61.61,0,0,0-.07-.1.38.38,0,0,0-.12-.09h-.13l-.16,0a1.12,1.12,0,0,0-.29.14,4.11,4.11,0,0,0-.29.3h0s0,0,0,0h0s0,0,0,0h0l0,0a.77.77,0,0,0,.18.1l.16.06.25.1.15.07.22.1.3.09.09,0a2.53,2.53,0,0,1,.36.12.62.62,0,0,1,.29.22.28.28,0,0,1,0,.23.58.58,0,0,1-.31.34,2,2,0,0,1-.51.2l-.25.08h0l0,0h0s0,0,0,.06h0a2.46,2.46,0,0,0,.44.34l.28.2a1.43,1.43,0,0,1,.47.68c.06.2.1.4.14.6a1.18,1.18,0,0,0,0,.2,3.21,3.21,0,0,1,0,.39l0,.34v.07a1.14,1.14,0,0,1-.1.76.87.87,0,0,1-.28.29L70,49.4l-.16.08a1.33,1.33,0,0,0-.5.59l-.15.35,0,0a1.2,1.2,0,0,1-.16.32,2.87,2.87,0,0,1-.29.31,1.42,1.42,0,0,1-.3.23,1.91,1.91,0,0,1-.35.17,1,1,0,0,1-.18.07l-.17.06a1.56,1.56,0,0,0-.28.16h0a2.43,2.43,0,0,0-.27.19,1.71,1.71,0,0,0-.2.18l-.06.06-.18.18-.09.1a1,1,0,0,1-.33.29,1.7,1.7,0,0,1-.58.14h-.09a.93.93,0,0,0-.44.11h0a1.57,1.57,0,0,1-.21.17h0l-.07.05a.27.27,0,0,0,0,.11h0a1.66,1.66,0,0,0,0,.24.59.59,0,0,0,0,.26,2,2,0,0,1,.05.24,2.12,2.12,0,0,1,0,.24v0a1,1,0,0,1-.11.39.49.49,0,0,1-.37.21A.46.46,0,0,1,64,54.9a.7.7,0,0,1-.2-.39,2.05,2.05,0,0,1,0-.49,1.23,1.23,0,0,0,0-.19l0-.29v0a1.61,1.61,0,0,0,0-.22h0a.53.53,0,0,0,0-.15h0s0,0,0,0l-.07,0-.06,0-.07,0a.55.55,0,0,0-.24.15h0l-.09.14a.92.92,0,0,1-.34.34l-.07,0-.21.11-.26.19h0a.55.55,0,0,0-.11.2.39.39,0,0,0,0,.26,2.22,2.22,0,0,0,.15.23,3.2,3.2,0,0,0,.36.39l.12.12a4.55,4.55,0,0,1,.62.69,2.79,2.79,0,0,1,.45,1,1.79,1.79,0,0,1,0,.55v0a1.49,1.49,0,0,1-.06.51,2.42,2.42,0,0,1-.26.47,4.35,4.35,0,0,1-.33.42l-.15.13-.05,0-.07.06-.13.12a1.45,1.45,0,0,1-.35.18l-.1,0a1.06,1.06,0,0,0-.2.12.92.92,0,0,1-.24.13.68.68,0,0,1-.52,0,1.3,1.3,0,0,1-.43-.33l-.4-.41-.19-.18a.52.52,0,0,0-.22-.14,2.57,2.57,0,0,1-.48-.26l-.12-.08a1.24,1.24,0,0,0-.34-.18h0l-.13,0-.09,0-.12.05-.14.06a.51.51,0,0,0-.25.33,1.47,1.47,0,0,0,0,.42,1.58,1.58,0,0,0,0,.44,4.5,4.5,0,0,0,.1.44h0a3,3,0,0,0,.13.39h0a2.94,2.94,0,0,0,.16.31c.06.1.12.21.2.32a2.84,2.84,0,0,0,.24.26,4.62,4.62,0,0,1,.49.52c.13.17.28.37.41.58s.1.18.16.27.15.24.22.37.12.24.18.37l.14.29h0a1.55,1.55,0,0,1,.14.32.47.47,0,0,1,0,.33.29.29,0,0,1-.27.15.85.85,0,0,1-.36-.11,2.46,2.46,0,0,1-.58-.41c-.13-.12-.25-.25-.37-.38l-.16-.16a4.68,4.68,0,0,1-.45-.57c-.08-.12-.15-.25-.22-.38l-.14-.24-.09-.15a5.05,5.05,0,0,1-.28-.51,2.06,2.06,0,0,1-.12-.35c0-.11-.08-.23-.12-.33l-.11-.24a3.71,3.71,0,0,1-.19-.46,3.84,3.84,0,0,1-.11-.46l-.06-.26-.09-.29a3,3,0,0,1-.11-.43,3.45,3.45,0,0,1,0-.75,2.41,2.41,0,0,1,.12-.64l0-.08a2.86,2.86,0,0,0,.09-.73,1.13,1.13,0,0,0-.06-.36.7.7,0,0,0-.06-.17.19.19,0,0,0-.07-.11h-.19a1,1,0,0,0-.24,0l-.17.08,0,0-.21.1a.44.44,0,0,1-.4,0,.55.55,0,0,1-.24-.32,2.85,2.85,0,0,1-.14-.41,2.14,2.14,0,0,1-.07-.43h0a2.24,2.24,0,0,0-.08-.42c0-.11-.08-.23-.12-.34a.25.25,0,0,0,0-.07,1.46,1.46,0,0,0-.2-.37L55,53.6l-.12-.15h0l0,0h0l0,0-.09-.08-.21-.15h0a1.13,1.13,0,0,0-.21-.12L54,53c-.13,0-.26,0-.39,0l-.17,0h-.28a.61.61,0,0,0-.23,0,1.55,1.55,0,0,0-.35.21l-.11.07,0,0a2.92,2.92,0,0,0-.4.29l-.19.16-.21.19-.24.23a6.15,6.15,0,0,1-.53.49,2.07,2.07,0,0,1-.32.19l-.14.07a2.32,2.32,0,0,0-.42.32,6.22,6.22,0,0,0-.7.75l0,.07a1.65,1.65,0,0,0-.3.46,2.05,2.05,0,0,0-.14.51,2,2,0,0,0-.05.28v.18a.17.17,0,0,1,0,.07,1.68,1.68,0,0,1-.11.54l-.1.25,0,.1a.35.35,0,0,0-.06.14.76.76,0,0,0-.06.2s0,0,0,.06,0,.11,0,.17l0,.1a1.33,1.33,0,0,0,0,.19c0,.1-.05.21-.09.31a1.71,1.71,0,0,1-.26.47.58.58,0,0,1-.19.16l-.07,0a.55.55,0,0,1-.14.09.29.29,0,0,1-.24,0,.34.34,0,0,1-.17-.15A.6.6,0,0,1,47,60h0a1.68,1.68,0,0,1-.06-.27c0-.14-.06-.3-.08-.44a.5.5,0,0,0,0-.12c0-.12,0-.24,0-.37s-.08-.5-.12-.75l0-.3c0-.27-.07-.55-.12-.82s-.07-.33-.11-.49-.08-.37-.11-.56,0-.28-.06-.42,0-.09,0-.13,0-.28-.07-.41a.5.5,0,0,0,0-.12,1.3,1.3,0,0,1,0-.26,2.45,2.45,0,0,1,0-.27,4.58,4.58,0,0,0,.07-.55v-.4h0a.15.15,0,0,0,0-.11A.74.74,0,0,0,46,53l-.06,0a1.08,1.08,0,0,0-.2-.16,2.1,2.1,0,0,1-.38-.36A1.51,1.51,0,0,1,45.1,52a2.94,2.94,0,0,1-.12-.54.49.49,0,0,0,0-.12A1.34,1.34,0,0,0,44.9,51a.43.43,0,0,0-.14-.19.51.51,0,0,0-.21-.09,1.37,1.37,0,0,0-.49,0,1,1,0,0,1-.45,0,2.87,2.87,0,0,1-.39-.2,1.56,1.56,0,0,1-.33-.29l0,0-.28-.3a2.66,2.66,0,0,1-.23-.35,1.39,1.39,0,0,1-.16-.41c0-.08,0-.16,0-.24a3.31,3.31,0,0,1-.1-.63c0,.05,0,.1-.08.14a.48.48,0,0,1-.08.16.91.91,0,0,1-.11.16,1.47,1.47,0,0,1-.1.13l0,0c-.06.09-.13.19-.19.3l0,0a.41.41,0,0,1-.07.11l-.06.06h-.08v.07a.41.41,0,0,0,0,.11c0,.06,0,.12,0,.17a6.77,6.77,0,0,0,0,.78,1,1,0,0,0,.06.35.25.25,0,0,0,.08.14.21.21,0,0,0,.16,0,.71.71,0,0,0,.28-.18l.13-.13,0-.05.07-.08a.21.21,0,0,1,.15,0,.15.15,0,0,1,.12.07.5.5,0,0,1,0,.3v.19a2.44,2.44,0,0,0,0,.27,1.27,1.27,0,0,0,0,.28v.09c0,.12,0,.24,0,.39v0a1.69,1.69,0,0,1,0,.32,2,2,0,0,1-.23.72,2.76,2.76,0,0,1-.39.51l-.06.06a7.94,7.94,0,0,1-.67.63l-.46.41-.17.17c-.12.12-.24.24-.36.34l-.19.15-.12.1h0a1.86,1.86,0,0,1-.28.21,1.8,1.8,0,0,1-.34.17.49.49,0,0,1-.34,0c-.25-.1-.24-.45-.24-.61a4.82,4.82,0,0,1,.09-.74v0l0-.15a.43.43,0,0,0,0,0,.5.5,0,0,0,0-.12v-.08c0-.1,0-.2,0-.3,0-.44.11-.88.17-1.3l0-.24a1.86,1.86,0,0,0-.1.25,1.21,1.21,0,0,0-.07.29,1.66,1.66,0,0,0,0,.22v.1a3.07,3.07,0,0,1-.11.6,2,2,0,0,1-.08.26l-.1.34a3.42,3.42,0,0,0-.1.62c0,.16,0,.31,0,.47v.16a1.69,1.69,0,0,1,0,.23c0,.14,0,.27,0,.41a.72.72,0,0,0,.07.28.58.58,0,0,0,.19.19.56.56,0,0,0,.28.1h0a1,1,0,0,0,.31-.07h0s0,0,0,0l0-.05a.2.2,0,0,1,.11-.06.14.14,0,0,1,.11.06.05.05,0,0,1,0,0v.07a.13.13,0,0,1,0,.12h0a.2.2,0,0,0,0,.11v0c0,.07,0,.15,0,.22v.11a10,10,0,0,1-.14,1.28A8,8,0,0,1,39,59.9l-.06.19c-.11.34-.22.69-.35,1s-.16.39-.25.58l0,.08a2.42,2.42,0,0,1-.24.45.29.29,0,0,1-.22.14h0a.21.21,0,0,1-.11,0,.13.13,0,0,1-.1,0h0a.06.06,0,0,1-.06,0l-.06,0h0a26.69,26.69,0,1,0,39.71-25.3m-27.71,24a1,1,0,0,1-.07.23v0l-.11.24a1.72,1.72,0,0,1-.34.49.39.39,0,0,1-.24.12h0a.23.23,0,0,1-.2-.13.66.66,0,0,1,0-.25v0a2.62,2.62,0,0,0,0-.28,2.51,2.51,0,0,0,0-.27c0-.11,0-.23,0-.34a1.28,1.28,0,0,1,.13-.66v0l0,0a.13.13,0,0,1,0-.06v0a.88.88,0,0,1,0-.16.28.28,0,0,1,.45-.19.36.36,0,0,1,.13.24l0,.11,0,.17a1.17,1.17,0,0,0,.13.28.86.86,0,0,1,.13.55m13.08,7c0,.17,0,.33-.08.48a3,3,0,0,1-.12.47.59.59,0,0,1-.26.34l-.09,0a.43.43,0,0,1-.28-.16l-.22-.23-.11-.12-.23-.25a4.17,4.17,0,0,0-.41-.43l-.24-.2a6.12,6.12,0,0,1-.48-.41,7.56,7.56,0,0,1-.66-.7,3,3,0,0,1-.28-.37c-.07-.12-.14-.25-.2-.38l0,0c-.13-.25-.28-.51-.49-.84h0l-.25-.38-.26-.3,0-.06c-.12-.13-.23-.27-.33-.4l-.28-.35a6.69,6.69,0,0,0-.65-.66,3.28,3.28,0,0,1-.31-.34l-.06-.08,0,0v0a.15.15,0,0,0,0-.06H56l0,0a.11.11,0,0,1-.06-.07v0a0,0,0,0,1,0,0,.14.14,0,0,1,0-.11.27.27,0,0,1,.18-.1.89.89,0,0,1,.35.08h.19a1,1,0,0,1,.39.14,3.37,3.37,0,0,1,.38.28h0c.14.11.27.22.39.3.29.23.54.42.76.61l.21.17.16.13.22.2.14.12.18.16a3.25,3.25,0,0,1,.5.48c.08.1.15.2.21.29a4.17,4.17,0,0,0,.36.47,3.46,3.46,0,0,0,.71.61l.21.13.2.11a3.44,3.44,0,0,1,.36.28,1.54,1.54,0,0,1,.5.78,1.2,1.2,0,0,1,0,.47m13.4-27.58a.11.11,0,0,1,.11,0l.08,0h0l.24.11.13.06a3.29,3.29,0,0,1,.38.2.63.63,0,0,1,.26.23l0,.08,0,.08.07.08,0,0a.27.27,0,0,1,0,.26.44.44,0,0,1-.27.28H77a.89.89,0,0,1-.28-.07,1.37,1.37,0,0,0-.37-.08h0c-.09,0-.21,0-.26-.11a.44.44,0,0,1,0-.25l0-.08a1.41,1.41,0,0,0,0-.39,1.08,1.08,0,0,0-.06-.2h0s0,0,0,0h0a.13.13,0,0,1-.06-.07.11.11,0,0,1,0-.11m-2.25,5.4a1.06,1.06,0,0,1,.2-.17,1,1,0,0,0,.22-.18,1.83,1.83,0,0,0,.13-.16,2,2,0,0,1,.19-.22,1.28,1.28,0,0,1,.39-.3,2.35,2.35,0,0,1,.49-.16,1.56,1.56,0,0,0,.42-.19,3,3,0,0,0,.44-.29h0a1.12,1.12,0,0,0,.32-.33,1.06,1.06,0,0,0,.09-.5,2.44,2.44,0,0,0,0-.26s0-.09,0-.14a.08.08,0,0,0,0,0v-.07a3.83,3.83,0,0,0-.1-.45h0s0,0-.05-.06l0,0,0,0a.18.18,0,0,1,0-.11.12.12,0,0,1,.06-.12h0v0a.22.22,0,0,1,.19,0,.51.51,0,0,1,.24.24.58.58,0,0,1,.08.22,1.42,1.42,0,0,1,.12.25c0,.1.08.19.11.29l.06.14.15.46a1.55,1.55,0,0,1,.06.39,1.88,1.88,0,0,1,0,.4,2.12,2.12,0,0,1-.19.8,1.17,1.17,0,0,1-.59.47l-.26.13a5.11,5.11,0,0,1-.48.22,4.1,4.1,0,0,1-.4.11h-.07a1.86,1.86,0,0,0-.31.1.45.45,0,0,0-.14.23l-.06.11a1.2,1.2,0,0,1-.23.3.52.52,0,0,1-.35.11h0a1.08,1.08,0,0,1-.38-.06.55.55,0,0,1-.3-.21.64.64,0,0,1-.12-.35.65.65,0,0,1,.19-.49m1.19,20.63a.32.32,0,0,1,.12-.08l.06,0a.22.22,0,0,1,.19,0h.62a1.35,1.35,0,0,1,.39,0,.35.35,0,0,1,.22.18c0,.13-.06.23-.16.29a1,1,0,0,1-.52.15.69.69,0,0,1-.25,0,2.26,2.26,0,0,1-.33-.13l0,0-.07,0c-.1,0-.21-.08-.25-.18a.15.15,0,0,1,0-.17m-.18-2a.14.14,0,0,1,0-.06l0,0-.06-.13,0-.16v-.14h0a.24.24,0,0,1,.09-.2.21.21,0,0,1,.2,0,.23.23,0,0,1,.11.09.41.41,0,0,1,.18,0l.29.14a.6.6,0,0,1,.21.18c.11.17,0,.35-.08.53a.47.47,0,0,1-.28.23h0a.25.25,0,0,1-.16-.06l-.1-.09-.13-.1a.49.49,0,0,1-.17-.22m-1.74-4.65,0,0,0,0h0v0h0v-.06a.2.2,0,0,1,0-.09s0,0,0-.05h0a1,1,0,0,1,.2-.22.74.74,0,0,1,.3-.16.3.3,0,0,1,.29.09.65.65,0,0,1,.11.22.29.29,0,0,0,0,.09c0,.07.06.14.08.2a1.64,1.64,0,0,1,.14.39,1.72,1.72,0,0,1,0,.64,1.21,1.21,0,0,1-.21.56,1.08,1.08,0,0,1-.44.37,1.09,1.09,0,0,1-.53.13h0a.75.75,0,0,1-.55-.2,1.51,1.51,0,0,1-.27-.5v0a2.32,2.32,0,0,1-.14-.58,0,0,0,0,1,0,0,.25.25,0,0,1,0-.19.15.15,0,0,1,.19,0l0,0a.09.09,0,0,0,0,0l.1,0a.4.4,0,0,0,.15-.14l0,0,0-.05a1.18,1.18,0,0,1,.3-.29M71.78,57l0,0a.23.23,0,0,1,.08-.11.37.37,0,0,1,.29,0,.58.58,0,0,1,.25.17l.1.08c.12.09.26.2.26.37a.32.32,0,0,1-.1.21.5.5,0,0,1-.32.13h0a.4.4,0,0,1-.27-.14l-.19-.18,0-.05a.36.36,0,0,1-.12-.29.58.58,0,0,1,0-.16m-.16,1.88s0-.08,0-.11v0a.2.2,0,0,0,0-.07v-.08a.21.21,0,0,1,.07-.17.24.24,0,0,1,.27,0,.83.83,0,0,1,.23.19l.06.06v0a1.66,1.66,0,0,1,.26.27.39.39,0,0,1,0,.37.62.62,0,0,1-.27.41h-.07a.22.22,0,0,1-.13,0,.44.44,0,0,0-.17-.07l-.16-.07a.36.36,0,0,1-.17-.31,2,2,0,0,1,0-.35m.07,5.49.06,0,.08,0a1.17,1.17,0,0,0,.26,0,1.84,1.84,0,0,0,.34,0l.54-.08.11,0a.74.74,0,0,1,.33,0,.22.22,0,0,1,.12.22.62.62,0,0,1-.33.44l-.3.14a1.17,1.17,0,0,1-.31.12h-.15a2.13,2.13,0,0,1-.44-.07l-.06,0-.47-.07-.2,0c-.21,0-.42-.08-.5-.27s.11-.41.33-.5.23-.1.32,0h.06l.1,0,.11,0m.1,2.37c0,.07.09.12.13.18s0,0,0,0a1.1,1.1,0,0,1,.26.46.56.56,0,0,1-.11.51c-.18.15-.41,0-.48,0a.81.81,0,0,1-.31-.44.83.83,0,0,1,0-.15l0-.13a.53.53,0,0,0-.11-.24.08.08,0,0,0-.08,0,.09.09,0,0,0-.08.06.33.33,0,0,0,0,.22v.06a1.58,1.58,0,0,1-.2,1.09s-.16.21-.29.22h0a.15.15,0,0,1-.12-.07.43.43,0,0,1,0-.25h0s0-.09,0-.13,0-.1,0-.15a3.21,3.21,0,0,0,0-.61s0-.08,0-.12a3.88,3.88,0,0,1,0-.48,2.13,2.13,0,0,1,0-.27,1.24,1.24,0,0,1,.23-.52.05.05,0,0,0,0,0l0-.06.1-.07a.73.73,0,0,1,.26-.09l.35,0,.23,0,.26,0,.33,0a.53.53,0,0,1,.34.09.2.2,0,0,1,.06.15.34.34,0,0,1-.14.21,1.66,1.66,0,0,1-.21.16l-.06,0a1.37,1.37,0,0,0-.2.13h0c-.06,0-.15.1-.17.17a.35.35,0,0,0,.08.24m-.52-12.27a.7.7,0,0,1,.27.57,1.64,1.64,0,0,1-.1.38,2.46,2.46,0,0,0-.09.29,1.55,1.55,0,0,0,0,.43,2.44,2.44,0,0,1,0,.27.79.79,0,0,1-.24.6.7.7,0,0,1-.43.21.33.33,0,0,1-.17,0,.48.48,0,0,1-.2-.24.85.85,0,0,1,0-.32v0a8.28,8.28,0,0,1,0-.84,2.82,2.82,0,0,1,.13-.75,1.47,1.47,0,0,1,.07-.17l0,0a.23.23,0,0,0,0-.09v-.09a.19.19,0,0,1,0-.07.47.47,0,0,1,.09-.12.41.41,0,0,1,.31-.09.65.65,0,0,1,.3.14m-1.38-2.74a1,1,0,0,1,.11-.53,1.15,1.15,0,0,1,.37-.39h0v0h0v0a.19.19,0,0,1,.07-.06.22.22,0,0,1,.18,0c.11,0,.14.16.18.26l0,.07,0,.06a1.49,1.49,0,0,1,.09.3,1,1,0,0,1,0,.39,1.13,1.13,0,0,1-.14.36,1.23,1.23,0,0,1-.22.29.61.61,0,0,1-.39.17h0a.29.29,0,0,1-.18-.12.66.66,0,0,1-.06-.31.13.13,0,0,1,0-.06s0-.09,0-.14a2,2,0,0,1,0-.25M64.26,64.33a.74.74,0,0,1,.32.07l.08,0,.39.12a.29.29,0,0,1,0-.13l.07-.16a1.07,1.07,0,0,1,.19-.28.5.5,0,0,1,.31-.11h.2a.83.83,0,0,0,.18,0,1.07,1.07,0,0,0,.5-.36l.19-.2L67,63a3.72,3.72,0,0,0,.4-.49h0l.4-.56a4,4,0,0,1,.41-.5,1.47,1.47,0,0,1,.5-.37.56.56,0,0,1,.57.05.69.69,0,0,1,.16.18l0,0,.15.21,0,0h0l.19.22.09.09a1.41,1.41,0,0,1,.33.4.22.22,0,0,1,0,.27.36.36,0,0,1-.28.08h0a.68.68,0,0,0-.29,0c-.09,0-.12.18-.14.26a1.87,1.87,0,0,0,0,.34.4.4,0,0,0,.11.28l0,.06a.65.65,0,0,1,.16.17,1.11,1.11,0,0,1,.14.29.58.58,0,0,1,0,.3.27.27,0,0,1-.2.21l-.13,0h0s-.1,0-.12.05a.37.37,0,0,0,0,.15h0V65a.83.83,0,0,1-.08.32l-.16.2,0,.06,0,0a1.12,1.12,0,0,0-.16.22.54.54,0,0,0-.06.32s0,.09,0,.14a1.49,1.49,0,0,1,0,.21c0,.11,0,.22,0,.34a1.14,1.14,0,0,1-.25.58.84.84,0,0,1-.51.28H68a2.43,2.43,0,0,1-.53-.08l-.24,0-.44-.1a2,2,0,0,1-.6-.29,2,2,0,0,0-.58-.32l-.18-.07a2.69,2.69,0,0,1-.45-.16,1.65,1.65,0,0,1-.52-.38A2.13,2.13,0,0,1,64,65h0c0-.22,0-.61.27-.66m1.71,6h-.24a2.1,2.1,0,0,1-.56,0,3.53,3.53,0,0,1-.64-.16L64,70l-.08,0c-.22-.08-.44-.14-.66-.2h-.06l-.26-.08a.46.46,0,0,1-.25-.19.31.31,0,0,1,0-.25.41.41,0,0,1,.07-.11h0l0,0h0v0a.33.33,0,0,1,.1-.06h0l.15,0a1.59,1.59,0,0,1,.66,0,2.73,2.73,0,0,1,.41.1l.22.07a2.61,2.61,0,0,0,.62.06h.08l.64,0h1.35a3.88,3.88,0,0,1,.49.11l.15,0c.22.06.42.14.64.22l.09,0a1.49,1.49,0,0,1,.48.26c.08.08.34.34.21.53a.21.21,0,0,1-.19.1h-.06l-.32-.06-.09,0-.23-.06a1.92,1.92,0,0,0-.32,0l-.46,0-.23,0h-.35a1.9,1.9,0,0,0-.34,0l-.55,0m18,4.54a1.69,1.69,0,0,1-.26.74,2.53,2.53,0,0,0-.19.36l0,.14a2,2,0,0,1-.1.26,6,6,0,0,1-.32.62l0,.1a10.52,10.52,0,0,1-.87,1.41c-.15.2-.32.38-.48.56l0,0c0,.06-.11.12-.16.19a5,5,0,0,1-.39.41,2.78,2.78,0,0,1-.66.47l-.25.1a1.65,1.65,0,0,0-.46.23,1.47,1.47,0,0,0-.3.31,2.75,2.75,0,0,1-.22.26l-.24.21a.18.18,0,0,0-.07,0l0,0a1.24,1.24,0,0,1-.26.19.48.48,0,0,1-.36.07.67.67,0,0,1-.31-.2l-.2-.21a.6.6,0,0,0-.08-.08.66.66,0,0,0-.33-.23l-.24-.07-.15,0-.08,0-.31-.1-.15-.08-.23-.1a1.36,1.36,0,0,0-.39-.08,2.57,2.57,0,0,0-.48,0l-.34,0a6.09,6.09,0,0,1-.8-.06,5.3,5.3,0,0,1-.55-.1l-.3,0h-.06c-.12,0-.24,0-.36-.06h-.41l-.23,0a1.09,1.09,0,0,0-.37.19l0,0-.4.24c-.13.07-.25.15-.37.23a4.5,4.5,0,0,1-.43.27l-.87.44a3.94,3.94,0,0,1-.88.32l-.47.09h0a1.53,1.53,0,0,1-.3,0h-.15a.48.48,0,0,1-.34-.24.59.59,0,0,1,0-.42,1.8,1.8,0,0,1,.08-.21c0-.08,0-.16.07-.24a.73.73,0,0,0,0-.44,1.66,1.66,0,0,0-.29-.47,3.37,3.37,0,0,1-.21-.31,2.43,2.43,0,0,1-.18-.4v0a3.1,3.1,0,0,1-.14-.47c0-.13-.08-.28-.14-.45a1.35,1.35,0,0,1-.11-.46,1,1,0,0,1,.17-.59,1.08,1.08,0,0,1,.21-.22l.12-.09,0,0a.24.24,0,0,0,.08-.06,2.23,2.23,0,0,1,.27-.26,1.1,1.1,0,0,1,.29-.19,1.21,1.21,0,0,1,.25-.08l.1,0,.34-.09h0l.13,0,.2,0,.12,0,.2,0a2.59,2.59,0,0,0,.6-.3l.12-.08.17-.1.27-.19c.19-.15.37-.27.55-.39a5.05,5.05,0,0,0,.54-.4,3.58,3.58,0,0,0,.49-.47,2.34,2.34,0,0,0,.24-.31l.16-.22.2-.24a2.43,2.43,0,0,0,.2-.25h0a2.83,2.83,0,0,1,.32-.37,1.65,1.65,0,0,1,.41-.28.83.83,0,0,1,.48-.12,1.38,1.38,0,0,1,.43.15h0l.18.1,0,0a.37.37,0,0,0,.24,0,.9.9,0,0,0,.42-.22,1.58,1.58,0,0,0,.29-.39c0-.1.09-.21.13-.31a1.21,1.21,0,0,0,0-.14,1.27,1.27,0,0,1,.63-.71,1.35,1.35,0,0,1,.48-.15l.31,0,.18,0a2.31,2.31,0,0,1,.37,0h.16l.17,0a1.93,1.93,0,0,1,.83,0,.46.46,0,0,1,.31.34.74.74,0,0,1-.07.39l0,.1v0A1.5,1.5,0,0,0,79,72a1.08,1.08,0,0,0,.15.48l.08.17.15.29a2.14,2.14,0,0,0,.26.43.43.43,0,0,0,.39.2c.13,0,.19-.17.24-.28l0,0a3,3,0,0,0,.14-.42.14.14,0,0,1,0-.06,1,1,0,0,1,0-.14l.09-.36c0-.16.08-.32.11-.48s.07-.34.12-.51.08-.28.12-.41l0-.1,0-.11.12-.38c.1-.27.27-.64.61-.7a.37.37,0,0,1,.39.2.74.74,0,0,1,.13.46,6.34,6.34,0,0,0,.11,1,2,2,0,0,0,.06.26l.06.22a2.51,2.51,0,0,1,0,.27l0,.2a1.46,1.46,0,0,0,.15.46A1.31,1.31,0,0,0,83,73l.15.12.22.2a2.78,2.78,0,0,1,.27.33l.06.08,0,0a2.4,2.4,0,0,1,.18.26,1.32,1.32,0,0,1,.15.78m-6-6.78,0-.09.06-.23s0-.09,0-.14v0a.24.24,0,0,1,0-.08.15.15,0,0,1,.09-.06h.12c.08,0,.16,0,.21.12a.53.53,0,0,1,.12.25.73.73,0,0,1-.18.54.29.29,0,0,1-.22.1h0a.35.35,0,0,1-.23-.07.34.34,0,0,1,0-.31m6.21.75a.77.77,0,0,1-.27-.17.93.93,0,0,1-.15-.13l-.14-.11a2.79,2.79,0,0,0-.6-.37.59.59,0,0,0-.34-.06.35.35,0,0,0-.23.19,1.78,1.78,0,0,0-.12.29,2.81,2.81,0,0,1-.17.35.91.91,0,0,1-.5.4.76.76,0,0,1-.21,0,2,2,0,0,1-.49-.08c-.24-.07-.47-.15-.68-.23s-.44-.21-.41-.46a.71.71,0,0,1,.14-.32h0l0-.06.06-.1v0s0-.06,0-.09a.22.22,0,0,0-.1-.09l0,0-.13-.1a.92.92,0,0,0-.31-.18,4.34,4.34,0,0,0-.48-.14l-.24-.06a2.06,2.06,0,0,1-1.18-.73,3,3,0,0,1-.24-.38l-.15-.23-.09-.14a1.2,1.2,0,0,1-.24-.46.36.36,0,0,1,.26-.42,1,1,0,0,1,.94.32,1.91,1.91,0,0,1,.27.45.3.3,0,0,0,0,.1c.06.13.11.26.16.4a1.12,1.12,0,0,1,.2-.18l.1-.08.12-.1.18-.16c.12-.1.22-.17.32-.24l.15-.1.09,0,0,0h0a1.13,1.13,0,0,1,.31-.1l.16,0h.24a1.59,1.59,0,0,1,.33.08l.12,0,.35.09h.08l.11,0a1.77,1.77,0,0,1,.31.08,2.25,2.25,0,0,1,.36.17l.18.1.09.06,0,0h0l.08.06,0,0h0l0,0,.08.07h0l.17.14h0l.25.2a2.76,2.76,0,0,1,.3.29l.22.22.23.2.29.26a2.76,2.76,0,0,1,.23.27v0a1.73,1.73,0,0,1,.19.28.81.81,0,0,1,0,.68.44.44,0,0,1-.57.19"/></g><g class="cls-5"><path class="cls-6" d="M56.59,62.27H56.4a.74.74,0,0,0-.35-.08.27.27,0,0,0-.18.1.14.14,0,0,0,0,.11,0,0,0,0,0,0,0v0h0a.11.11,0,0,0,.06.07l0,0h.06a.15.15,0,0,1,0,.06v0l0,0,.06.08a3.28,3.28,0,0,0,.31.34,6.69,6.69,0,0,1,.65.66c.1.11.19.23.28.35s.21.27.33.4l0,.06.26.3.25.38h0a9.27,9.27,0,0,1,.49.84l0,0c.06.13.13.26.2.38a3,3,0,0,0,.28.37,7.56,7.56,0,0,0,.66.7c.15.15.32.28.47.41l.25.2a4.17,4.17,0,0,1,.41.43l.23.25.1.12c.08.07.15.15.23.23a.43.43,0,0,0,.28.16l.09,0a.58.58,0,0,0,.26-.35,2.6,2.6,0,0,0,.12-.46c0-.15.06-.31.08-.48a1.2,1.2,0,0,0,0-.47,1.61,1.61,0,0,0-.5-.78,2.75,2.75,0,0,0-.37-.28l-.19-.11-.21-.13a3.46,3.46,0,0,1-.71-.61,4.17,4.17,0,0,1-.36-.47c-.06-.09-.13-.19-.21-.29a2.84,2.84,0,0,0-.5-.48l-.18-.16-.14-.12-.22-.2-.16-.13-.21-.17c-.22-.19-.47-.38-.76-.61a4.56,4.56,0,0,1-.39-.3h0a2.57,2.57,0,0,0-.37-.28A1,1,0,0,0,56.59,62.27Z"/></g><g class="cls-9"><path class="cls-6" d="M48.41,61.79a.51.51,0,0,0,0,.25.23.23,0,0,0,.2.13h0a.39.39,0,0,0,.24-.12,1.69,1.69,0,0,0,.33-.49,2.68,2.68,0,0,0,.12-.24v0a1,1,0,0,0,.07-.23.93.93,0,0,0-.13-.55,1.17,1.17,0,0,1-.13-.28l0-.17,0-.11a.41.41,0,0,0-.13-.24.28.28,0,0,0-.45.19.88.88,0,0,0,0,.16v.09l0,0v0a1.28,1.28,0,0,0-.13.66c0,.11,0,.23,0,.34a2.51,2.51,0,0,1,0,.27,2.62,2.62,0,0,1,0,.28Z"/><path class="cls-6" d="M63.18,69.73h.06c.22.06.44.12.66.2L64,70l.55.18a3.53,3.53,0,0,0,.64.16,2.1,2.1,0,0,0,.56,0H66l.55,0a1.9,1.9,0,0,1,.34,0h.35l.23,0,.46,0a1.92,1.92,0,0,1,.32,0,2,2,0,0,1,.23.06l.09,0,.32.06h.06a.21.21,0,0,0,.19-.1c.13-.19-.13-.45-.21-.53a1.49,1.49,0,0,0-.48-.26l-.09,0c-.22-.08-.42-.16-.64-.22l-.15,0a3.88,3.88,0,0,0-.49-.11h-.8a1.47,1.47,0,0,1-.21,0H65.7l-.64,0H65a2.61,2.61,0,0,1-.62-.06l-.22-.07a2.73,2.73,0,0,0-.41-.1,1.59,1.59,0,0,0-.66,0l-.15,0h0a.33.33,0,0,0-.1.06v0h0l0,0h0a.41.41,0,0,0-.07.11.31.31,0,0,0,0,.25.46.46,0,0,0,.25.19l.26.08"/><path class="cls-6" d="M75.61,39.19a1.19,1.19,0,0,0-.43-.3l-.12-.06a.65.65,0,0,1-.25-.2c-.06-.09-.11-.18-.17-.29s-.11-.2-.17-.3a.53.53,0,0,0-.21-.21.61.61,0,0,0-.23,0h-.09a.39.39,0,0,1-.15,0l-.11-.05,0,0a6.19,6.19,0,0,0-.6-.23l-.14,0-.32-.1h0a1.26,1.26,0,0,1-.34-.15A.72.72,0,0,1,72,37a.39.39,0,0,1,0-.21.41.41,0,0,1,.11-.23.74.74,0,0,1,.2-.16,1.79,1.79,0,0,1,.24-.12l.24-.07h0a1.34,1.34,0,0,0,.26-.09l.09,0,.16-.06.19,0,.08,0,.14,0,.11,0a.6.6,0,0,1,.23,0h0a1.22,1.22,0,0,0,.27,0,.45.45,0,0,0,.16,0,26.73,26.73,0,0,0-29.63,5.94h0a.22.22,0,0,0,.13.1.28.28,0,0,0,.27-.07l.26-.18a.27.27,0,0,1,.08-.07,1.24,1.24,0,0,1,.18-.14l.27-.18a2.66,2.66,0,0,1,.58-.3l.29-.09a4.55,4.55,0,0,1-.57.59,3.3,3.3,0,0,0-.52.64c-.08.13-.14.26-.2.38a3.12,3.12,0,0,0-.15.39,1.11,1.11,0,0,0,0,.41.28.28,0,0,1,0,.18l-.1.18a3.09,3.09,0,0,1-.45.7,1.12,1.12,0,0,1-.3.27.19.19,0,0,1-.12,0h0s0-.09,0-.14v0a6.48,6.48,0,0,1,.06-.77s0-.07,0-.1a3,3,0,0,0,0-.85.48.48,0,0,0-.17-.33l0,0a26.61,26.61,0,0,0-7,18c0,.68,0,1.36.08,2h0l.06,0a.07.07,0,0,0,.06,0h0a.13.13,0,0,0,.1,0,.21.21,0,0,0,.11,0h0a.29.29,0,0,0,.22-.14,2.42,2.42,0,0,0,.24-.45l0-.08c.09-.19.16-.38.25-.58s.24-.69.35-1L39,59.9a8.3,8.3,0,0,0,.33-1.22,10,10,0,0,0,.14-1.28v-.11c0-.07,0-.15,0-.22v0a.2.2,0,0,1,0-.11h0a.16.16,0,0,0,0-.12v-.07a.05.05,0,0,0,0,0,.14.14,0,0,0-.11-.06.24.24,0,0,0-.11.06.08.08,0,0,0,0,.05s0,0,0,0h0a1,1,0,0,1-.31.07h0a.56.56,0,0,1-.28-.1.58.58,0,0,1-.19-.19.72.72,0,0,1-.07-.28v-.41a1.62,1.62,0,0,0,0-.22v-.17c0-.16,0-.31,0-.47a3.42,3.42,0,0,1,.1-.62l.1-.34a2,2,0,0,0,.08-.26,3.07,3.07,0,0,0,.11-.6v-.1a1.66,1.66,0,0,1,0-.22,1.21,1.21,0,0,1,.07-.29,1.86,1.86,0,0,1,.1-.25c0,.08,0,.16,0,.24-.06.42-.13.86-.17,1.3,0,.1,0,.2,0,.3v.08a.5.5,0,0,1,0,.12v.06l0,.14a.07.07,0,0,0,0,0,4.82,4.82,0,0,0-.09.74c0,.15,0,.51.24.61a.49.49,0,0,0,.34,0,1.8,1.8,0,0,0,.34-.17,1.86,1.86,0,0,0,.28-.21h0l.12-.1.19-.15c.12-.1.24-.22.36-.34l.17-.17.46-.41a7.94,7.94,0,0,0,.67-.63l.06-.07a2.4,2.4,0,0,0,.39-.5,2,2,0,0,0,.23-.72,1.69,1.69,0,0,0,0-.32v0c0-.15,0-.27,0-.39a.28.28,0,0,1,0-.09,1.27,1.27,0,0,1,0-.28,2.44,2.44,0,0,1,0-.27v-.19a.5.5,0,0,0,0-.3.15.15,0,0,0-.12-.07.21.21,0,0,0-.15,0l-.06.08-.05.05-.13.13a.71.71,0,0,1-.28.18.21.21,0,0,1-.16,0,.25.25,0,0,1-.08-.14,1,1,0,0,1-.06-.35,6.77,6.77,0,0,1,0-.78s0-.11,0-.17a.41.41,0,0,1,0-.11v-.07h.08l.06-.06a.41.41,0,0,0,.07-.11l0,0c.06-.11.13-.21.19-.3l0,0a1.47,1.47,0,0,0,.1-.13.91.91,0,0,0,.11-.16A.48.48,0,0,0,42,48.3s.05-.09.08-.14a3.44,3.44,0,0,0,.1.63c0,.08,0,.16,0,.24a1.24,1.24,0,0,0,.16.4,1.77,1.77,0,0,0,.23.35c.09.11.19.21.28.31l0,0a1.56,1.56,0,0,0,.33.29,2.87,2.87,0,0,0,.39.2,1,1,0,0,0,.45,0,1.36,1.36,0,0,1,.49,0,.51.51,0,0,1,.21.09.43.43,0,0,1,.14.19,1.34,1.34,0,0,1,.07.39.49.49,0,0,1,0,.12,2.94,2.94,0,0,0,.12.54,1.51,1.51,0,0,0,.25.47,2.1,2.1,0,0,0,.38.36,1.08,1.08,0,0,1,.2.16L46,53a.74.74,0,0,1,.12.13.15.15,0,0,1,0,.11h0v0h0v.38c0,.19,0,.38-.06.54a1.41,1.41,0,0,0,0,.28,1.3,1.3,0,0,0,0,.26.5.5,0,0,1,0,.12c0,.13.05.27.07.41s0,.09,0,.13l.06.42c0,.18.07.38.11.56s.08.33.11.49.08.55.12.82c0,.1,0,.2,0,.3s.08.51.12.75,0,.25,0,.37l0,.12c0,.14,0,.3.08.44A1.68,1.68,0,0,0,47,60h0a.6.6,0,0,0,.09.22.34.34,0,0,0,.17.15.29.29,0,0,0,.24,0,1.1,1.1,0,0,0,.14-.09l.07,0a.58.58,0,0,0,.19-.16,1.71,1.71,0,0,0,.26-.47c0-.1.06-.21.09-.31a1.05,1.05,0,0,1,0-.19l0-.1c0-.06,0-.11,0-.17s0,0,0-.06a1,1,0,0,1,.06-.21.38.38,0,0,1,.06-.13l0-.1.1-.25a2,2,0,0,0,.12-.54v-.26a2.16,2.16,0,0,1,.05-.27,2.25,2.25,0,0,1,.14-.52,1.77,1.77,0,0,1,.3-.45l.06-.07a5.43,5.43,0,0,1,.69-.75,2.73,2.73,0,0,1,.42-.32l.14-.07a2.07,2.07,0,0,0,.32-.19,6.15,6.15,0,0,0,.53-.49l.24-.23.21-.19.19-.16a2.92,2.92,0,0,1,.4-.29l0,0,.11-.07a1.55,1.55,0,0,1,.35-.21.61.61,0,0,1,.23,0h.28l.17,0c.13,0,.26,0,.39,0l.26.06a1.13,1.13,0,0,1,.21.12h0l.21.15.09.08,0,0a0,0,0,0,0,0,0l0,0h0l.12.15.16.2a1.46,1.46,0,0,1,.2.37.19.19,0,0,1,0,.08,2.19,2.19,0,0,1,.12.33,2.24,2.24,0,0,1,.08.42h0a2.14,2.14,0,0,0,.07.43,2.85,2.85,0,0,0,.14.41.6.6,0,0,0,.24.32.44.44,0,0,0,.4,0l.21-.1,0,0,.17-.08a1,1,0,0,1,.24,0h.19a.23.23,0,0,1,.08.11,1.54,1.54,0,0,1,.05.17,1.13,1.13,0,0,1,.06.36,2.86,2.86,0,0,1-.09.73l0,.08a2.41,2.41,0,0,0-.12.64,3.45,3.45,0,0,0,0,.75,3,3,0,0,0,.11.43l.09.29.06.26a3.84,3.84,0,0,0,.11.46c0,.16.13.31.19.46a2.56,2.56,0,0,1,.11.24c0,.1.08.22.12.33a2.06,2.06,0,0,0,.12.35,4,4,0,0,0,.28.5l.09.16.14.24c.07.13.14.26.22.38a3.94,3.94,0,0,0,.45.56l.16.17c.12.13.24.26.37.38a2.46,2.46,0,0,0,.58.41.82.82,0,0,0,.36.1.31.31,0,0,0,.27-.14.47.47,0,0,0,0-.33,1.55,1.55,0,0,0-.14-.32h0l-.14-.29c-.06-.13-.11-.25-.18-.37s-.15-.25-.22-.37-.11-.18-.16-.27-.28-.41-.41-.58a4.62,4.62,0,0,0-.49-.52,2.84,2.84,0,0,1-.24-.26c-.08-.11-.14-.22-.2-.32a2.94,2.94,0,0,1-.16-.31,3,3,0,0,1-.13-.39h0a4.5,4.5,0,0,1-.1-.44,1.58,1.58,0,0,1,0-.44,1.42,1.42,0,0,1,0-.42.51.51,0,0,1,.25-.33l.14-.06.12-.05.09,0a.27.27,0,0,1,.13,0h0a1.24,1.24,0,0,1,.34.18l.12.08a4.74,4.74,0,0,0,.48.26.52.52,0,0,1,.22.14l.19.18.4.41a1.3,1.3,0,0,0,.43.33.68.68,0,0,0,.52,0,.92.92,0,0,0,.24-.13.88.88,0,0,1,.21-.12l.09,0a1.45,1.45,0,0,0,.35-.18l.13-.12.07-.06.05,0,.15-.13a4.35,4.35,0,0,0,.33-.42,2.42,2.42,0,0,0,.26-.47,1.79,1.79,0,0,0,.07-.51v0a2.68,2.68,0,0,0,0-.55,3,3,0,0,0-.46-1,4.55,4.55,0,0,0-.62-.69l-.12-.12a3.2,3.2,0,0,1-.36-.39,2.22,2.22,0,0,1-.15-.23.36.36,0,0,1,0-.25.52.52,0,0,1,.11-.21h0l.26-.19.21-.11.07,0a.92.92,0,0,0,.34-.34l.09-.14h0a.47.47,0,0,1,.24-.15l.07,0,.06,0,.07,0s0,0,0,0h0a.33.33,0,0,1,0,.15h0a1.61,1.61,0,0,1,0,.22v0l0,.29a1.23,1.23,0,0,1,0,.19,2.05,2.05,0,0,0,0,.49.7.7,0,0,0,.2.39.46.46,0,0,0,.39.12.49.49,0,0,0,.37-.21,1,1,0,0,0,.11-.39v0a2.12,2.12,0,0,0,0-.24,1.69,1.69,0,0,0-.05-.24.78.78,0,0,1,0-.26,2,2,0,0,1,0-.25h0a.27.27,0,0,1,0-.11l.07-.05h0a1,1,0,0,0,.21-.17h0a.93.93,0,0,1,.44-.11h.09a1.7,1.7,0,0,0,.58-.14,1,1,0,0,0,.33-.29l.09-.1.18-.18.06-.06a1.71,1.71,0,0,1,.2-.18,2.43,2.43,0,0,1,.27-.19h0a1.56,1.56,0,0,1,.28-.16l.17-.06.19-.07a2.14,2.14,0,0,0,.34-.17,1.42,1.42,0,0,0,.3-.23c.1-.1.2-.2.29-.31a1.37,1.37,0,0,0,.16-.32l0,0,.15-.35a1.33,1.33,0,0,1,.5-.59L70,49.4l.17-.08a.78.78,0,0,0,.28-.29,1.14,1.14,0,0,0,.1-.76V48.2l0-.34a3.21,3.21,0,0,0,0-.39,1.18,1.18,0,0,1,0-.2c0-.2-.08-.4-.14-.6A1.43,1.43,0,0,0,69.8,46l-.28-.2a2.87,2.87,0,0,1-.44-.34h0s0-.05,0-.06h0l0,0h0l.24-.08a2,2,0,0,0,.51-.2.58.58,0,0,0,.31-.34.28.28,0,0,0,0-.23.62.62,0,0,0-.29-.22,2.53,2.53,0,0,0-.36-.12l-.09,0L69.1,44l-.22-.1-.15-.07-.25-.1-.15-.06a.67.67,0,0,1-.19-.1l0,0h0s0,0,0,0h0s0,0,0,0h0a2.87,2.87,0,0,1,.29-.31,1.12,1.12,0,0,1,.29-.14l.16,0H69a.38.38,0,0,1,.12.09.61.61,0,0,1,.07.1l.12.18a.38.38,0,0,0,.26.14,1.29,1.29,0,0,0,.28,0h.41a.39.39,0,0,1,.15,0,.47.47,0,0,1,.12.09l0,.06v0l.08.1,0,.07.09.12.11.16a.7.7,0,0,1,.12.3h0c0,.07,0,.14,0,.21a3.84,3.84,0,0,0,.11.46c0,.1.08.2.13.3a.85.85,0,0,0,.18.27,1,1,0,0,0,.61.2,2,2,0,0,0,.35,0,1.31,1.31,0,0,0,.33-.09.56.56,0,0,0,.36-.48V45c0-.1,0-.23,0-.35a1.86,1.86,0,0,0-.26-.63,2.36,2.36,0,0,0-.35-.48l-.06-.07a1.17,1.17,0,0,1-.29-.59.43.43,0,0,1,0-.16v0h0a.46.46,0,0,1,.22-.34h0l0,0a.42.42,0,0,1,.29,0h.06l.3,0a1,1,0,0,0,.34,0,.85.85,0,0,0,.27-.18l.07-.07.16-.16c.06-.07.11-.15.16-.22a.1.1,0,0,1,0-.05,2.54,2.54,0,0,0,.16-.28,1.69,1.69,0,0,0,.08-.34,2.7,2.7,0,0,0,0-.65c0-.14,0-.28-.08-.42a2,2,0,0,1-.07-.26,1.53,1.53,0,0,1,0-.3,2.47,2.47,0,0,0,.36.53.74.74,0,0,0,.25.2.58.58,0,0,0,.32,0,2,2,0,0,0,.29-.15l.06,0a1.25,1.25,0,0,0,.22-.16.38.38,0,0,0,.11-.29.53.53,0,0,0-.13-.27"/></g><g class="cls-5"><path class="cls-8" d="M61.54,87.32,61.28,87a54.7,54.7,0,0,0,4.23-3.68l.3.32C64.38,85,62.94,86.22,61.54,87.32Z"/></g><g class="cls-2"><path class="cls-10" d="M66,110a50,50,0,1,1,50-50A50.06,50.06,0,0,1,66,110Zm0-97a47,47,0,1,0,47,47A47,47,0,0,0,66,13Z"/><path class="cls-10" d="M66,116A56,56,0,0,1,66,4V5a55,55,0,1,0,55,55h1A56.06,56.06,0,0,1,66,116Z"/></g><path class="cls-10" d="M153.69,46.42q0,4.17-2.37,6.27a9.61,9.61,0,0,1-6.6,2.1h-4.65V38.37h5.15a10.24,10.24,0,0,1,4.48.92A6.73,6.73,0,0,1,152.64,42,8.57,8.57,0,0,1,153.69,46.42Zm-3.61.09a5.71,5.71,0,0,0-1.2-4,4.51,4.51,0,0,0-3.47-1.29h-1.87v10.7H145Q150.08,51.92,150.08,46.51Z"/><path class="cls-10" d="M158.54,37.31a2.36,2.36,0,0,1,1.31.36,1.85,1.85,0,0,1,0,2.63,2.29,2.29,0,0,1-1.31.37,2.25,2.25,0,0,1-1.32-.37,1.87,1.87,0,0,1,0-2.63A2.33,2.33,0,0,1,158.54,37.31Zm1.7,4.93V54.79h-3.43V42.24Z"/><path class="cls-10" d="M167.9,42a4.19,4.19,0,0,1,3.63,1.84h.1l.27-1.61h2.9V54.82a5.16,5.16,0,0,1-1.59,4.09,6.86,6.86,0,0,1-4.69,1.4,17.28,17.28,0,0,1-2.47-.16,10.65,10.65,0,0,1-2.22-.57V56.84a12.56,12.56,0,0,0,4.9,1c1.76,0,2.64-1,2.64-2.86V54.7c0-.24,0-.51,0-.79a7.37,7.37,0,0,1,.06-.75h-.09a3.87,3.87,0,0,1-1.54,1.43,4.57,4.57,0,0,1-2,.43,4.09,4.09,0,0,1-3.49-1.71,8,8,0,0,1-1.25-4.77,7.88,7.88,0,0,1,1.29-4.81A4.18,4.18,0,0,1,167.9,42ZM169,44.79q-2.41,0-2.41,3.79T169,52.33a2.4,2.4,0,0,0,1.94-.75A4.08,4.08,0,0,0,171.6,49v-.41a5.12,5.12,0,0,0-.62-2.9A2.28,2.28,0,0,0,169,44.79Z"/><path class="cls-10" d="M180.11,37.31a2.32,2.32,0,0,1,1.31.36,1.82,1.82,0,0,1,0,2.63,2.52,2.52,0,0,1-2.63,0,1.87,1.87,0,0,1,0-2.63A2.33,2.33,0,0,1,180.11,37.31Zm1.7,4.93V54.79h-3.42V42.24Z"/><path class="cls-10" d="M190.69,52.29a5.72,5.72,0,0,0,1.11-.11,8.16,8.16,0,0,0,1-.28v2.55a5.64,5.64,0,0,1-1.36.41,9.1,9.1,0,0,1-1.79.16,5.3,5.3,0,0,1-2-.36,2.87,2.87,0,0,1-1.4-1.27,5.05,5.05,0,0,1-.52-2.53v-6h-1.63V43.36L186,42.21l1-2.64h2.19v2.67h3.52v2.57H189.2v6a1.35,1.35,0,0,0,.41,1.07A1.6,1.6,0,0,0,190.69,52.29Z"/><path class="cls-10" d="M197.11,37.31a2.34,2.34,0,0,1,1.31.36,1.85,1.85,0,0,1,0,2.63,2.52,2.52,0,0,1-2.63,0,1.87,1.87,0,0,1,0-2.63A2.33,2.33,0,0,1,197.11,37.31Zm1.7,4.93V54.79h-3.43V42.24Z"/><path class="cls-10" d="M211.16,51.07A3.47,3.47,0,0,1,209.82,54a6.62,6.62,0,0,1-4,1,12.28,12.28,0,0,1-2.25-.17,9,9,0,0,1-1.89-.56V51.46a13.12,13.12,0,0,0,2.19.76,8.46,8.46,0,0,0,2.07.3,2.56,2.56,0,0,0,1.42-.3.89.89,0,0,0,.44-.78,1,1,0,0,0-.17-.58,2.3,2.3,0,0,0-.75-.57,15.58,15.58,0,0,0-1.79-.83,12.42,12.42,0,0,1-1.95-1,3.17,3.17,0,0,1-1.11-1.2,3.7,3.7,0,0,1-.37-1.76A2.9,2.9,0,0,1,203,42.88a6.58,6.58,0,0,1,3.61-.87,10.1,10.1,0,0,1,2.23.23A10.27,10.27,0,0,1,211,43l-1,2.47a18.49,18.49,0,0,0-1.75-.66,5.36,5.36,0,0,0-1.68-.26c-1,0-1.52.27-1.52.82a.84.84,0,0,0,.2.54,2.22,2.22,0,0,0,.76.52c.37.19.93.43,1.67.74a12.42,12.42,0,0,1,1.86.91,3.51,3.51,0,0,1,1.21,1.18A3.55,3.55,0,0,1,211.16,51.07Z"/><path class="cls-10" d="M219,42a6,6,0,0,1,3.88,1.1,4.05,4.05,0,0,1,1.34,3.34v8.37h-2.39l-.67-1.7h-.09a5.19,5.19,0,0,1-1.7,1.47,5.42,5.42,0,0,1-2.46.46,4.07,4.07,0,0,1-2.78-1A3.8,3.8,0,0,1,213,51a3.3,3.3,0,0,1,1.4-2.94A8.26,8.26,0,0,1,218.61,47L220.8,47v-.55a1.83,1.83,0,0,0-.52-1.45,2.11,2.11,0,0,0-1.44-.46,6,6,0,0,0-1.79.27,13.78,13.78,0,0,0-1.75.65l-1.13-2.32a10.53,10.53,0,0,1,2.24-.82A10.83,10.83,0,0,1,219,42Zm1.82,7-1.34.05a3.76,3.76,0,0,0-2.3.6,1.84,1.84,0,0,0-.64,1.45,1.26,1.26,0,0,0,.46,1.11,2,2,0,0,0,1.2.34,2.75,2.75,0,0,0,1.86-.66A2.3,2.3,0,0,0,220.8,50Z"/><path class="cls-10" d="M233,52.29a5.8,5.8,0,0,0,1.11-.11,8.16,8.16,0,0,0,1-.28v2.55a5.64,5.64,0,0,1-1.36.41A9.1,9.1,0,0,1,232,55a5.3,5.3,0,0,1-2-.36,2.87,2.87,0,0,1-1.4-1.27,5.05,5.05,0,0,1-.52-2.53v-6h-1.63V43.36l1.88-1.15,1-2.64h2.19v2.67H235v2.57h-3.52v6a1.32,1.32,0,0,0,.41,1.07A1.6,1.6,0,0,0,233,52.29Z"/><path class="cls-10" d="M239.43,37.31a2.36,2.36,0,0,1,1.31.36,1.85,1.85,0,0,1,0,2.63,2.29,2.29,0,0,1-1.31.37,2.25,2.25,0,0,1-1.32-.37,1.87,1.87,0,0,1,0-2.63A2.33,2.33,0,0,1,239.43,37.31Zm1.7,4.93V54.79H237.7V42.24Z"/><path class="cls-10" d="M256.13,48.49a6.64,6.64,0,0,1-1.65,4.83A5.92,5.92,0,0,1,250,55a6.27,6.27,0,0,1-3.12-.76A5.3,5.3,0,0,1,244.74,52a7.42,7.42,0,0,1-.78-3.55,6.62,6.62,0,0,1,1.63-4.81A6,6,0,0,1,250.08,42a6.38,6.38,0,0,1,3.13.75A5.47,5.47,0,0,1,255.34,45,7.24,7.24,0,0,1,256.13,48.49Zm-8.67,0a5.38,5.38,0,0,0,.6,2.82,2.18,2.18,0,0,0,2,.95,2.15,2.15,0,0,0,2-.95,5.27,5.27,0,0,0,.61-2.82A5.11,5.11,0,0,0,252,45.7a2.57,2.57,0,0,0-4,0A5.21,5.21,0,0,0,247.46,48.49Z"/><path class="cls-10" d="M266.08,42a4.68,4.68,0,0,1,3.25,1.09,4.51,4.51,0,0,1,1.22,3.51v8.18h-3.43V47.46a3.53,3.53,0,0,0-.48-2,1.77,1.77,0,0,0-1.54-.68A2.2,2.2,0,0,0,263,45.81a6.52,6.52,0,0,0-.58,3.07v5.91H259V42.24h2.62l.46,1.61h.18a3.44,3.44,0,0,1,1.65-1.41A5.65,5.65,0,0,1,266.08,42Z"/><path d="M143.11,72a2,2,0,0,0-1.73.84,4,4,0,0,0-.6,2.32,4.1,4.1,0,0,0,.55,2.29,2,2,0,0,0,1.78.82,5.52,5.52,0,0,0,1.13-.13,11.84,11.84,0,0,0,1.24-.37v1.65a6.66,6.66,0,0,1-1.21.37,7.81,7.81,0,0,1-1.34.11,4.27,4.27,0,0,1-2.37-.59,3.49,3.49,0,0,1-1.36-1.66,6.45,6.45,0,0,1-.45-2.5,5.77,5.77,0,0,1,.51-2.49A3.93,3.93,0,0,1,140.74,71a4.31,4.31,0,0,1,2.37-.61,5.45,5.45,0,0,1,1.38.18,6.87,6.87,0,0,1,1.34.47l-.64,1.6c-.35-.16-.7-.31-1.05-.43A3.15,3.15,0,0,0,143.11,72Z"/><path d="M151.46,72.57h.33a1.82,1.82,0,0,1,.31,0L152,74.44a1.46,1.46,0,0,0-.27,0l-.3,0a2.55,2.55,0,0,0-.95.18,1.51,1.51,0,0,0-.73.56,1.79,1.79,0,0,0-.28,1.07v3.61h-1.94V72.7H149l.29,1.19h.09a2.79,2.79,0,0,1,.85-.93A2.15,2.15,0,0,1,151.46,72.57Z"/><path d="M159.77,76.23a3.8,3.8,0,0,1-.92,2.73,3.37,3.37,0,0,1-2.53,1,3.5,3.5,0,0,1-1.76-.43,3,3,0,0,1-1.22-1.25,4.26,4.26,0,0,1-.44-2,3.78,3.78,0,0,1,.92-2.72,3.39,3.39,0,0,1,2.54-.94,3.61,3.61,0,0,1,1.76.42,3,3,0,0,1,1.21,1.25A4.09,4.09,0,0,1,159.77,76.23Zm-4.9,0a3,3,0,0,0,.35,1.59,1.42,1.42,0,0,0,2.23,0,3,3,0,0,0,.35-1.59,2.91,2.91,0,0,0-.35-1.58,1.44,1.44,0,0,0-2.23,0A2.91,2.91,0,0,0,154.87,76.23Z"/><path d="M166.52,77.69a1.93,1.93,0,0,1-.76,1.65,3.69,3.69,0,0,1-2.27.58,7.71,7.71,0,0,1-1.27-.09,6.21,6.21,0,0,1-1.07-.32v-1.6a8.59,8.59,0,0,0,1.24.43,4.92,4.92,0,0,0,1.17.17,1.46,1.46,0,0,0,.8-.17.52.52,0,0,0,.25-.45.53.53,0,0,0-.1-.32,1.12,1.12,0,0,0-.42-.32,8.6,8.6,0,0,0-1-.47,6.5,6.5,0,0,1-1.1-.57,1.83,1.83,0,0,1-.63-.67,2.15,2.15,0,0,1-.21-1,1.65,1.65,0,0,1,.77-1.48,3.71,3.71,0,0,1,2-.49,5.73,5.73,0,0,1,1.26.13,5.27,5.27,0,0,1,1.23.42l-.58,1.39c-.35-.14-.68-.27-1-.37a3.08,3.08,0,0,0-1-.14c-.57,0-.86.15-.86.46a.49.49,0,0,0,.11.31,1.37,1.37,0,0,0,.43.29c.22.11.53.24,1,.42a7.36,7.36,0,0,1,1,.51,1.81,1.81,0,0,1,.92,1.7Z"/><path d="M173.18,77.69a2,2,0,0,1-.76,1.65,3.71,3.71,0,0,1-2.27.58,7.84,7.84,0,0,1-1.28-.09,6.11,6.11,0,0,1-1.06-.32v-1.6a8.45,8.45,0,0,0,1.23.43,5.07,5.07,0,0,0,1.17.17,1.5,1.5,0,0,0,.81-.17.54.54,0,0,0,.25-.45.6.6,0,0,0-.1-.32,1.32,1.32,0,0,0-.42-.32,8.92,8.92,0,0,0-1-.47,6.91,6.91,0,0,1-1.1-.57,1.83,1.83,0,0,1-.63-.67,2.15,2.15,0,0,1-.2-1,1.64,1.64,0,0,1,.76-1.48,3.71,3.71,0,0,1,2-.49,5.6,5.6,0,0,1,1.26.13,5.5,5.5,0,0,1,1.24.42l-.59,1.39c-.34-.14-.67-.27-1-.37a3.13,3.13,0,0,0-.95-.14c-.57,0-.86.15-.86.46a.49.49,0,0,0,.11.31,1.26,1.26,0,0,0,.43.29c.21.11.53.24.94.42a6.44,6.44,0,0,1,1.05.51,1.93,1.93,0,0,1,.69.67A2,2,0,0,1,173.18,77.69Z"/><path d="M174.24,77.1V75.52h3.41V77.1Z"/><path d="M184.2,77.69a1.93,1.93,0,0,1-.76,1.65,3.69,3.69,0,0,1-2.27.58,7.71,7.71,0,0,1-1.27-.09,6.21,6.21,0,0,1-1.07-.32v-1.6a8.59,8.59,0,0,0,1.24.43,4.92,4.92,0,0,0,1.17.17,1.46,1.46,0,0,0,.8-.17.52.52,0,0,0,.25-.45.53.53,0,0,0-.1-.32,1.12,1.12,0,0,0-.42-.32,8.6,8.6,0,0,0-1-.47,6.5,6.5,0,0,1-1.1-.57,1.83,1.83,0,0,1-.63-.67,2.15,2.15,0,0,1-.21-1,1.63,1.63,0,0,1,.77-1.48,3.71,3.71,0,0,1,2-.49,5.73,5.73,0,0,1,1.26.13,5.27,5.27,0,0,1,1.23.42l-.58,1.39c-.35-.14-.68-.27-1-.37a3.08,3.08,0,0,0-1-.14c-.57,0-.86.15-.86.46a.49.49,0,0,0,.11.31,1.37,1.37,0,0,0,.43.29c.22.11.53.24.95.42a7.36,7.36,0,0,1,1.05.51,1.81,1.81,0,0,1,.92,1.7Z"/><path d="M188.83,72.57A2.92,2.92,0,0,1,192,75.79v.93h-4.57a1.84,1.84,0,0,0,.49,1.29,1.71,1.71,0,0,0,1.28.47,5.35,5.35,0,0,0,1.24-.14,6.06,6.06,0,0,0,1.16-.42v1.5a4.78,4.78,0,0,1-1.1.38,7,7,0,0,1-1.39.12,4.34,4.34,0,0,1-1.89-.39,3,3,0,0,1-1.29-1.2,4,4,0,0,1-.46-2,4.54,4.54,0,0,1,.42-2.07A2.84,2.84,0,0,1,187.07,73,3.58,3.58,0,0,1,188.83,72.57Zm0,1.37a1.23,1.23,0,0,0-.93.37,1.7,1.7,0,0,0-.43,1.13h2.71a1.71,1.71,0,0,0-.34-1.07A1.22,1.22,0,0,0,188.84,73.94Z"/><path d="M196.67,79.92a3.29,3.29,0,0,1-2.45-.87,3.79,3.79,0,0,1-.87-2.77,4.54,4.54,0,0,1,.44-2.12A2.79,2.79,0,0,1,195,73a4.06,4.06,0,0,1,1.82-.39,4.76,4.76,0,0,1,1.26.14,5,5,0,0,1,1,.34l-.57,1.49c-.31-.12-.59-.22-.86-.3a2.64,2.64,0,0,0-.78-.12c-1,0-1.51.72-1.51,2.15a2.5,2.5,0,0,0,.4,1.57,1.31,1.31,0,0,0,1.11.51,3.31,3.31,0,0,0,1.08-.16,4.52,4.52,0,0,0,.91-.45v1.65a3.19,3.19,0,0,1-.93.41A5.32,5.32,0,0,1,196.67,79.92Z"/><path d="M203.65,78.38a3.11,3.11,0,0,0,.62-.06c.2,0,.4-.1.6-.16V79.6a3.74,3.74,0,0,1-.77.23,5.34,5.34,0,0,1-1,.09,3,3,0,0,1-1.14-.21,1.55,1.55,0,0,1-.79-.71,2.83,2.83,0,0,1-.29-1.43V74.15h-.93v-.82l1.07-.65.56-1.49h1.23V72.7h2v1.45h-2v3.42a.73.73,0,0,0,.24.6A.87.87,0,0,0,203.65,78.38Z"/><path d="M212.94,76.23A3.76,3.76,0,0,1,212,79a3.35,3.35,0,0,1-2.52,1,3.57,3.57,0,0,1-1.77-.43,3,3,0,0,1-1.21-1.25,4.15,4.15,0,0,1-.44-2,3.73,3.73,0,0,1,.92-2.72,3.36,3.36,0,0,1,2.53-.94,3.62,3.62,0,0,1,1.77.42,3.1,3.1,0,0,1,1.21,1.25A4.09,4.09,0,0,1,212.94,76.23Zm-4.9,0a3,3,0,0,0,.35,1.59,1.42,1.42,0,0,0,2.23,0,3,3,0,0,0,.35-1.59,2.91,2.91,0,0,0-.35-1.58,1.44,1.44,0,0,0-2.23,0A2.91,2.91,0,0,0,208,76.23Z"/><path d="M218.7,72.57H219l.31,0-.14,1.82a1.46,1.46,0,0,0-.27,0l-.3,0a2.55,2.55,0,0,0-.95.18,1.58,1.58,0,0,0-.74.56,1.86,1.86,0,0,0-.28,1.07v3.61h-1.93V72.7h1.47l.28,1.19h.09a2.93,2.93,0,0,1,.86-.93A2.14,2.14,0,0,1,218.7,72.57Z"/><path d="M223.5,72.55a3.42,3.42,0,0,1,2.19.62,2.28,2.28,0,0,1,.76,1.89v4.73H225.1l-.38-1h-.05a2.92,2.92,0,0,1-1,.83,3,3,0,0,1-1.39.26,2.33,2.33,0,0,1-1.58-.54,2.18,2.18,0,0,1-.62-1.71,1.86,1.86,0,0,1,.79-1.66,4.67,4.67,0,0,1,2.38-.6l1.24,0v-.31a1,1,0,0,0-.3-.82,1.18,1.18,0,0,0-.81-.26,3.48,3.48,0,0,0-1,.15,8,8,0,0,0-1,.37l-.64-1.31a6.2,6.2,0,0,1,2.72-.64Zm1,4-.76,0a2.16,2.16,0,0,0-1.3.34,1,1,0,0,0-.36.82.75.75,0,0,0,.26.63,1.15,1.15,0,0,0,.67.19,1.61,1.61,0,0,0,1.06-.37,1.34,1.34,0,0,0,.43-1Z"/><path d="M230.57,79.79h-1.94V69.91h1.94Z"/><path d="M238.61,79.92a2.38,2.38,0,0,1-1.94-.93,5.43,5.43,0,0,1,0-5.49,2.42,2.42,0,0,1,2-.93,2.5,2.5,0,0,1,1.26.29,2.41,2.41,0,0,1,.78.74h.06l-.09-.6a7,7,0,0,1,0-.81V69.91h1.94v9.88h-1.48l-.38-.92h-.08a2.51,2.51,0,0,1-.77.75A2.3,2.3,0,0,1,238.61,79.92Zm.67-1.54a1.26,1.26,0,0,0,1.12-.48,2.66,2.66,0,0,0,.35-1.42v-.21a3.22,3.22,0,0,0-.32-1.58,1.22,1.22,0,0,0-1.17-.55,1.15,1.15,0,0,0-1,.55,2.92,2.92,0,0,0-.36,1.59,2.78,2.78,0,0,0,.36,1.57A1.2,1.2,0,0,0,239.28,78.38Z"/><path d="M245.74,69.91a1.34,1.34,0,0,1,.74.2.83.83,0,0,1,.31.75.81.81,0,0,1-.31.74,1.27,1.27,0,0,1-.74.21,1.32,1.32,0,0,1-.75-.21.83.83,0,0,1-.3-.74.85.85,0,0,1,.3-.75A1.4,1.4,0,0,1,245.74,69.91Zm1,2.79v7.09h-1.93V72.7Z"/><path d="M251.23,72.57a2.38,2.38,0,0,1,2.05,1h.05l.16-.9h1.64v7.11a2.92,2.92,0,0,1-.9,2.31,3.89,3.89,0,0,1-2.65.79,10.19,10.19,0,0,1-1.4-.09,5.88,5.88,0,0,1-1.25-.32V81a7.13,7.13,0,0,0,2.77.55c1,0,1.49-.54,1.49-1.62v-.14c0-.14,0-.29,0-.45s0-.3,0-.42h-.05a2.23,2.23,0,0,1-.87.81,2.64,2.64,0,0,1-1.14.24,2.28,2.28,0,0,1-2-1,5.44,5.44,0,0,1,0-5.41A2.35,2.35,0,0,1,251.23,72.57Zm.61,1.57c-.91,0-1.37.71-1.37,2.14s.47,2.12,1.4,2.12A1.34,1.34,0,0,0,253,78a2.3,2.3,0,0,0,.36-1.48v-.23a3,3,0,0,0-.35-1.64A1.28,1.28,0,0,0,251.84,74.14Z"/><path d="M258.33,69.91a1.39,1.39,0,0,1,.74.2.83.83,0,0,1,.31.75.81.81,0,0,1-.31.74,1.31,1.31,0,0,1-.74.21,1.28,1.28,0,0,1-.75-.21.84.84,0,0,1-.31-.74.86.86,0,0,1,.31-.75A1.35,1.35,0,0,1,258.33,69.91Zm1,2.79v7.09h-1.94V72.7Z"/><path d="M264.5,78.38a3,3,0,0,0,.62-.06c.2,0,.4-.1.6-.16V79.6a3.74,3.74,0,0,1-.77.23,5.27,5.27,0,0,1-1,.09,3,3,0,0,1-1.14-.21A1.59,1.59,0,0,1,262,79a2.94,2.94,0,0,1-.29-1.43V74.15h-.92v-.82l1.06-.65.56-1.49h1.24V72.7h2v1.45h-2v3.42a.72.72,0,0,0,.23.6A.89.89,0,0,0,264.5,78.38Z"/><path d="M270.26,72.55a3.42,3.42,0,0,1,2.19.62,2.28,2.28,0,0,1,.76,1.89v4.73h-1.35l-.38-1h-.05a2.92,2.92,0,0,1-1,.83,3,3,0,0,1-1.39.26,2.33,2.33,0,0,1-1.58-.54,2.18,2.18,0,0,1-.62-1.71,1.86,1.86,0,0,1,.79-1.66,4.67,4.67,0,0,1,2.38-.6l1.24,0v-.31a1,1,0,0,0-.3-.82,1.18,1.18,0,0,0-.81-.26,3.43,3.43,0,0,0-1,.15,8,8,0,0,0-1,.37l-.64-1.31a6.2,6.2,0,0,1,2.72-.64Zm1,4-.76,0a2.16,2.16,0,0,0-1.3.34,1,1,0,0,0-.36.82.75.75,0,0,0,.26.63,1.15,1.15,0,0,0,.67.19,1.61,1.61,0,0,0,1.06-.37,1.34,1.34,0,0,0,.43-1Z"/><path d="M277.33,79.79h-1.94V69.91h1.94Z"/><path d="M286.12,78.38a3.11,3.11,0,0,0,.62-.06c.2,0,.4-.1.6-.16V79.6a3.74,3.74,0,0,1-.77.23,5.34,5.34,0,0,1-1,.09,3,3,0,0,1-1.14-.21,1.59,1.59,0,0,1-.79-.71,2.83,2.83,0,0,1-.29-1.43V74.15h-.93v-.82l1.07-.65.56-1.49h1.23V72.7h2v1.45h-2v3.42a.73.73,0,0,0,.24.6A.87.87,0,0,0,286.12,78.38Z"/><path d="M291.89,72.57a2.93,2.93,0,0,1,3.19,3.22v.93H290.5A1.84,1.84,0,0,0,291,78a1.71,1.71,0,0,0,1.28.47,5.35,5.35,0,0,0,1.24-.14,5.83,5.83,0,0,0,1.16-.42v1.5a4.78,4.78,0,0,1-1.1.38,6.91,6.91,0,0,1-1.39.12,4.37,4.37,0,0,1-1.89-.39,3.1,3.1,0,0,1-1.29-1.2,4,4,0,0,1-.46-2,4.54,4.54,0,0,1,.42-2.07A2.81,2.81,0,0,1,290.14,73,3.51,3.51,0,0,1,291.89,72.57Zm0,1.37a1.23,1.23,0,0,0-.93.37,1.75,1.75,0,0,0-.43,1.13h2.72a1.78,1.78,0,0,0-.35-1.07A1.22,1.22,0,0,0,291.9,73.94Z"/><path d="M299.73,79.92a3.3,3.3,0,0,1-2.45-.87,3.78,3.78,0,0,1-.86-2.77,4.42,4.42,0,0,1,.44-2.12,2.69,2.69,0,0,1,1.23-1.2,4,4,0,0,1,1.81-.39,4.81,4.81,0,0,1,2.21.48l-.57,1.49c-.31-.12-.59-.22-.85-.3a2.76,2.76,0,0,0-.79-.12c-1,0-1.51.72-1.51,2.15a2.5,2.5,0,0,0,.4,1.57,1.31,1.31,0,0,0,1.11.51,3.23,3.23,0,0,0,1.08-.16,4.52,4.52,0,0,0,.91-.45v1.65a3.19,3.19,0,0,1-.93.41A5.32,5.32,0,0,1,299.73,79.92Z"/><path d="M305.66,69.91v2c0,.35,0,.69,0,1s-.05.53-.06.66h.1a2.12,2.12,0,0,1,.87-.79,2.86,2.86,0,0,1,1.18-.24,2.7,2.7,0,0,1,1.85.61,2.51,2.51,0,0,1,.7,2v4.62h-1.93V75.65c0-1-.39-1.54-1.15-1.54a1.24,1.24,0,0,0-1.2.61,3.66,3.66,0,0,0-.33,1.73v3.34h-1.94V69.91Z"/><path d="M316.47,72.57a2.65,2.65,0,0,1,1.84.61,2.54,2.54,0,0,1,.69,2v4.62h-1.94V75.65a2,2,0,0,0-.27-1.15,1,1,0,0,0-.87-.39,1.23,1.23,0,0,0-1.21.61,3.66,3.66,0,0,0-.33,1.73v3.34h-1.94V72.7h1.49l.26.9h.1a2,2,0,0,1,.93-.79A3.27,3.27,0,0,1,316.47,72.57Z"/><path d="M327.62,76.23a3.76,3.76,0,0,1-.93,2.73,3.37,3.37,0,0,1-2.53,1,3.5,3.5,0,0,1-1.76-.43,3,3,0,0,1-1.22-1.25,4.26,4.26,0,0,1-.44-2,3.78,3.78,0,0,1,.92-2.72,3.39,3.39,0,0,1,2.54-.94A3.61,3.61,0,0,1,326,73a3,3,0,0,1,1.21,1.25A4.09,4.09,0,0,1,327.62,76.23Zm-4.91,0a3,3,0,0,0,.35,1.59,1.23,1.23,0,0,0,1.12.54,1.21,1.21,0,0,0,1.11-.54,3,3,0,0,0,.35-1.59,2.91,2.91,0,0,0-.35-1.58,1.44,1.44,0,0,0-2.23,0A2.91,2.91,0,0,0,322.71,76.23Z"/><path d="M331.35,79.79h-1.94V69.91h1.94Z"/><path d="M340,76.23a3.76,3.76,0,0,1-.93,2.73,3.37,3.37,0,0,1-2.53,1,3.5,3.5,0,0,1-1.76-.43,3,3,0,0,1-1.22-1.25,4.26,4.26,0,0,1-.44-2,3.78,3.78,0,0,1,.92-2.72,3.39,3.39,0,0,1,2.54-.94,3.67,3.67,0,0,1,1.77.42,3.08,3.08,0,0,1,1.2,1.25A4.09,4.09,0,0,1,340,76.23Zm-4.9,0a3,3,0,0,0,.34,1.59,1.43,1.43,0,0,0,2.24,0,3,3,0,0,0,.34-1.59,2.92,2.92,0,0,0-.34-1.58,1.26,1.26,0,0,0-1.13-.53,1.23,1.23,0,0,0-1.11.53A2.92,2.92,0,0,0,335.12,76.23Z"/><path d="M344.11,72.57a2.39,2.39,0,0,1,2.06,1h.05l.15-.9H348v7.11a3,3,0,0,1-.89,2.31,3.91,3.91,0,0,1-2.66.79,9.94,9.94,0,0,1-1.39-.09,6.13,6.13,0,0,1-1.26-.32V81a7.17,7.17,0,0,0,2.77.55q1.5,0,1.5-1.62v-.14c0-.14,0-.29,0-.45s0-.3,0-.42h-.05a2.33,2.33,0,0,1-.88.81,2.61,2.61,0,0,1-1.14.24,2.29,2.29,0,0,1-2-1,5.44,5.44,0,0,1,0-5.41A2.35,2.35,0,0,1,344.11,72.57Zm.61,1.57c-.91,0-1.36.71-1.36,2.14s.46,2.12,1.39,2.12a1.37,1.37,0,0,0,1.1-.42,2.3,2.3,0,0,0,.36-1.48v-.23a2.86,2.86,0,0,0-.36-1.64A1.28,1.28,0,0,0,344.72,74.14Z"/><path d="M351.21,69.91a1.36,1.36,0,0,1,.74.2.83.83,0,0,1,.31.75.81.81,0,0,1-.31.74,1.29,1.29,0,0,1-.74.21,1.32,1.32,0,0,1-.75-.21.83.83,0,0,1-.3-.74.85.85,0,0,1,.3-.75A1.4,1.4,0,0,1,351.21,69.91Zm1,2.79v7.09h-1.94V72.7Z"/><path d="M357.31,72.57a2.93,2.93,0,0,1,3.18,3.22v.93h-4.57A1.84,1.84,0,0,0,356.4,78a1.74,1.74,0,0,0,1.28.47,5.44,5.44,0,0,0,1.25-.14,6.06,6.06,0,0,0,1.16-.42v1.5a4.85,4.85,0,0,1-1.11.38,6.84,6.84,0,0,1-1.39.12,4.3,4.3,0,0,1-1.88-.39,3,3,0,0,1-1.29-1.2,4,4,0,0,1-.47-2,4.41,4.41,0,0,1,.43-2.07A2.84,2.84,0,0,1,355.55,73,3.55,3.55,0,0,1,357.31,72.57Zm0,1.37a1.27,1.27,0,0,0-.94.37,1.75,1.75,0,0,0-.42,1.13h2.71a1.77,1.77,0,0,0-.34-1.07A1.22,1.22,0,0,0,357.32,73.94Z"/><path d="M367.21,77.69a1.93,1.93,0,0,1-.76,1.65,3.69,3.69,0,0,1-2.27.58,7.71,7.71,0,0,1-1.27-.09,6.21,6.21,0,0,1-1.07-.32v-1.6a8.59,8.59,0,0,0,1.24.43,4.92,4.92,0,0,0,1.17.17,1.46,1.46,0,0,0,.8-.17.52.52,0,0,0,.25-.45.53.53,0,0,0-.1-.32,1.12,1.12,0,0,0-.42-.32,8.6,8.6,0,0,0-1-.47,6.5,6.5,0,0,1-1.1-.57,1.83,1.83,0,0,1-.63-.67,2.15,2.15,0,0,1-.21-1,1.65,1.65,0,0,1,.77-1.48,3.71,3.71,0,0,1,2-.49,5.73,5.73,0,0,1,1.26.13,5.27,5.27,0,0,1,1.23.42l-.58,1.39c-.35-.14-.68-.27-1-.37a3.08,3.08,0,0,0-.95-.14c-.57,0-.86.15-.86.46a.49.49,0,0,0,.11.31,1.37,1.37,0,0,0,.43.29c.22.11.53.24.95.42a7.36,7.36,0,0,1,1.05.51,1.81,1.81,0,0,1,.92,1.7Z"/></svg>