<svg id="Layer_1" data-name="Layer 1" xmlns="http://www.w3.org/2000/svg" xmlns:xlink="http://www.w3.org/1999/xlink" viewBox="0 0 450 120"><defs><style>.cls-1{fill:none;}.cls-2{clip-path:url(#clip-path);}.cls-3{fill:#e5f5fc;}.cls-4{fill:#009ee4;}.cls-5{fill:#fff;}.cls-6{clip-path:url(#clip-path-2);}.cls-7{fill:#ed7123;}.cls-8{fill:#95bb3d;}.cls-9{fill:#f8b618;}.cls-10{fill:#d41a67;}.cls-11{fill:#0156a3;}</style><clipPath id="clip-path"><rect class="cls-1" width="450" height="120"/></clipPath><clipPath id="clip-path-2"><path class="cls-1" d="M17.5,60A48.5,48.5,0,1,0,66,11.5,48.5,48.5,0,0,0,17.5,60"/></clipPath></defs><g class="cls-2"><path class="cls-3" d="M66,14h0v92H396a45,45,0,0,0,45-45V59a45,45,0,0,0-45-45Z"/><path class="cls-4" d="M66,116A56,56,0,0,1,66,4V5a55,55,0,1,0,55,55h1A56.06,56.06,0,0,1,66,116Z"/><path class="cls-5" d="M66,108.5A48.5,48.5,0,1,0,17.5,60,48.49,48.49,0,0,0,66,108.5"/></g><g class="cls-6"><path class="cls-7" d="M54.63,52.45H54a.18.18,0,0,0-.18.18V62.7a.18.18,0,0,0,.18.18h.62a.18.18,0,0,0,.18-.18V52.63a.18.18,0,0,0-.18-.18"/><path class="cls-8" d="M54.14,41c3.94,3.94,1.75,6.94,0,8.69-1.76-1.75-4-4.75,0-8.69"/><path class="cls-8" d="M59.72,52.85c0,4.86-3.2,5.36-5.36,5.36,0-2.16.5-5.36,5.36-5.36"/><path class="cls-8" d="M49,52.85c0,4.86,3.2,5.36,5.37,5.36,0-2.16-.5-5.36-5.37-5.36"/><path class="cls-8" d="M59.72,47.48c0,4.87-3.2,5.37-5.36,5.37,0-2.17.5-5.37,5.36-5.37"/><path class="cls-8" d="M50.32,48.81c3.66,0,4,2.41,4,4-1.63,0-4-.38-4-4"/><path class="cls-7" d="M66.44,38.28h-1a.27.27,0,0,0-.27.27V54.21a.28.28,0,0,0,.27.28h1a.28.28,0,0,0,.27-.28V38.55a.27.27,0,0,0-.27-.27"/><path class="cls-8" d="M65.66,20.5c6.12,6.12,2.72,10.79,0,13.51-2.72-2.72-6.13-7.39,0-13.51"/><path class="cls-8" d="M74.34,38.89c0,7.56-5,8.34-8.34,8.34,0-3.36.78-8.34,8.34-8.34"/><path class="cls-8" d="M57.66,38.89c0,7.56,5,8.34,8.34,8.34,0-3.36-.78-8.34-8.34-8.34"/><path class="cls-8" d="M74.34,30.55c0,7.56-5,8.34-8.34,8.34,0-3.36.78-8.34,8.34-8.34"/><path class="cls-8" d="M59.72,32.61c5.69,0,6.28,3.75,6.28,6.28-2.53,0-6.28-.58-6.28-6.28"/><path class="cls-7" d="M81.18,68.4h-.53a.16.16,0,0,0-.16.15v8.61a.16.16,0,0,0,.16.15h.53a.15.15,0,0,0,.15-.15V68.55a.15.15,0,0,0-.15-.15"/><path class="cls-8" d="M80.75,58.62c3.37,3.37,1.5,5.93,0,7.43-1.49-1.5-3.37-4.06,0-7.43"/><path class="cls-8" d="M85.53,68.74c0,4.16-2.74,4.58-4.59,4.58,0-1.85.43-4.58,4.59-4.58"/><path class="cls-8" d="M76.35,68.74c0,4.16,2.74,4.58,4.59,4.58,0-1.85-.43-4.58-4.59-4.58"/><path class="cls-8" d="M85.53,64.15c0,4.16-2.74,4.59-4.59,4.59,0-1.85.43-4.59,4.59-4.59"/><path class="cls-8" d="M77.49,65.28c3.13,0,3.45,2.06,3.45,3.46-1.39,0-3.45-.33-3.45-3.46"/><path class="cls-9" d="M65.38,66.56a1.23,1.23,0,0,0-.26-.12,1.19,1.19,0,0,0,.26-.11,1.47,1.47,0,0,0-1.45-2.56,1.89,1.89,0,0,0-.27.2,1.86,1.86,0,0,0,0-.33,1.47,1.47,0,0,0-2.94,0,1.53,1.53,0,0,0,0,.3,1.88,1.88,0,0,0-.24-.18,1.47,1.47,0,0,0-1.48,2.55,1.45,1.45,0,0,0,.26.11,1.51,1.51,0,0,0-.26.12,1.47,1.47,0,1,0,1.46,2.55,1.24,1.24,0,0,0,.26-.19,1.69,1.69,0,0,0,0,.33,1.47,1.47,0,1,0,2.94,0,1.53,1.53,0,0,0,0-.3,1.5,1.5,0,0,0,.24.18,1.47,1.47,0,1,0,1.47-2.55"/><path class="cls-10" d="M63.7,66.43A1.47,1.47,0,1,1,62.23,65a1.47,1.47,0,0,1,1.47,1.47"/><path class="cls-9" d="M71.65,56.13a1.23,1.23,0,0,0-.26-.12l.26-.11a1.47,1.47,0,0,0-1.45-2.56,1.35,1.35,0,0,0-.27.2,1.86,1.86,0,0,0,0-.33,1.47,1.47,0,0,0-2.94,0,1.36,1.36,0,0,0,0,.29l-.24-.17a1.47,1.47,0,0,0-1.48,2.54,1.51,1.51,0,0,0,.26.12,1.51,1.51,0,0,0-.26.12,1.47,1.47,0,1,0,1.46,2.55,1.28,1.28,0,0,0,.26-.2,1.84,1.84,0,0,0,0,.33,1.47,1.47,0,0,0,2.94,0,1.36,1.36,0,0,0,0-.29,1.47,1.47,0,1,0,1.71-2.37"/><path class="cls-10" d="M70,56a1.47,1.47,0,1,1-1.47-1.47A1.47,1.47,0,0,1,70,56"/><path class="cls-9" d="M78,84.89a1.51,1.51,0,0,0-.26-.12l.26-.11a1.47,1.47,0,1,0-1.46-2.56,1.28,1.28,0,0,0-.26.2,1.84,1.84,0,0,0,0-.33,1.47,1.47,0,0,0-2.94,0,1.36,1.36,0,0,0,0,.29,1.47,1.47,0,1,0-1.71,2.37,1.23,1.23,0,0,0,.26.12,1.23,1.23,0,0,0-.26.12,1.47,1.47,0,1,0,1.45,2.55,1.35,1.35,0,0,0,.27-.2,1.86,1.86,0,0,0,0,.33,1.47,1.47,0,1,0,2.94,0,1.36,1.36,0,0,0,0-.29l.24.17A1.47,1.47,0,0,0,78,84.89"/><path class="cls-10" d="M76.34,84.75a1.47,1.47,0,1,1-1.47-1.47,1.46,1.46,0,0,1,1.47,1.47"/><path class="cls-11" d="M49.2,57.27a2.53,2.53,0,0,1,0,.73v.09a4.91,4.91,0,0,0-.06.66v0s0,.11,0,.12h0a.28.28,0,0,0,.11,0,1.18,1.18,0,0,0,.26-.24,3.43,3.43,0,0,0,.39-.6l0-.1a4.7,4.7,0,0,1-.93-1L49,57l0,0a.38.38,0,0,1,.15.28"/><path class="cls-11" d="M77.86,52.76l0,.08h0a2.52,2.52,0,0,1,.12.29h0a1.08,1.08,0,0,1,.07.31.19.19,0,0,1-.07.12.08.08,0,0,1-.06,0h0a.55.55,0,0,1-.19-.18l0,0-.18-.24-.22-.3,0,0c-.13-.17-.27-.34-.41-.5l-.21-.22c-.53-.28-1.08-.54-1.63-.78l-.13,0h-.27a.41.41,0,0,0-.19,0l-.09,0-.13,0h-.07l-.17,0-.13.06-.08,0-.22.08h0l-.2.07a.68.68,0,0,0-.21.1.55.55,0,0,0-.18.13.46.46,0,0,0-.09.2h0a.4.4,0,0,0,0,.19.49.49,0,0,0,.14.18.88.88,0,0,0,.3.13l0,0,.28.08.11,0a4,4,0,0,1,.52.2l0,0,.1,0a.25.25,0,0,0,.12,0h.08a.49.49,0,0,1,.2,0,.42.42,0,0,1,.18.17c.06.09.1.18.15.27a2.55,2.55,0,0,0,.14.24.6.6,0,0,0,.22.18l.1,0a1.25,1.25,0,0,1,.38.25.67.67,0,0,1,.11.24.35.35,0,0,1-.1.25.94.94,0,0,1-.19.14l0,0a1.05,1.05,0,0,1-.26.13.42.42,0,0,1-.27,0,.6.6,0,0,1-.21-.17,1.77,1.77,0,0,1-.31-.46.77.77,0,0,0,0,.26c0,.07,0,.15,0,.23a2,2,0,0,1,.07.35,2.62,2.62,0,0,1,0,.57,1.36,1.36,0,0,1-.06.29,2.55,2.55,0,0,1-.14.24l0,0c0,.07-.09.14-.14.2l-.14.14-.06,0a.94.94,0,0,1-.23.16.59.59,0,0,1-.29,0l-.27,0h-.17a2.31,2.31,0,0,1,0,1.11,2.82,2.82,0,0,1,.29.39,2,2,0,0,1,.21.54,1.69,1.69,0,0,1,0,.3v.06a2.09,2.09,0,0,1,0,.25.48.48,0,0,1-.31.42.77.77,0,0,1-.28.07,1,1,0,0,1-.31,0,.86.86,0,0,1-.52-.18.7.7,0,0,1-.15-.23.77.77,0,0,1-.07-.16,2.42,2.42,0,0,1-1.29.37h-.18l0,.05h0l.24.17a1.32,1.32,0,0,1,.41.59,4,4,0,0,1,.12.52l0,.17a1.4,1.4,0,0,1,0,.33,2.54,2.54,0,0,0,0,.29v.06a1,1,0,0,1-.09.66.64.64,0,0,1-.24.25.61.61,0,0,1-.14.07l-.14.07a1,1,0,0,0-.43.51c0,.1-.09.2-.13.3l0,0a.92.92,0,0,1-.14.28,1.54,1.54,0,0,1-.25.26,1.11,1.11,0,0,1-.25.21l-.3.14a1,1,0,0,1-.16.06l-.15,0-.24.14h0l-.24.16-.17.16,0,0-.15.15-.08.09a.84.84,0,0,1-.28.25,1.9,1.9,0,0,1-.5.13h-.08a.7.7,0,0,0-.38.1,1.1,1.1,0,0,1-.18.14l0,0,0,0a.56.56,0,0,0,0,.08,2.38,2.38,0,0,1,.34.74,2.47,2.47,0,0,1-.25,1.88,2.56,2.56,0,0,1-.89.9s0,.08,0,.11v0a1.61,1.61,0,0,1-.06.44,2,2,0,0,1-.23.4,2,2,0,0,1-.28.37l-.13.11,0,0-.06,0a.52.52,0,0,1-.11.1,1.24,1.24,0,0,1-.3.16l-.09,0-.17.11a1.43,1.43,0,0,1-.21.12.61.61,0,0,1-.45,0,1,1,0,0,1-.37-.28l-.22-.22a2.36,2.36,0,0,1-1,.21,2.44,2.44,0,0,1-1-.22c0,.1,0,.2,0,.28s.06.25.09.38h0a2.24,2.24,0,0,0,.11.34c0,.1.1.19.14.27a3.16,3.16,0,0,0,.18.27,1,1,0,0,0,.2.22,4.28,4.28,0,0,1,.42.46,3.16,3.16,0,0,1,.35.5l.14.22.19.32.16.32.12.26h0a1.39,1.39,0,0,1,.12.28.39.39,0,0,1,0,.28.24.24,0,0,1-.23.13.74.74,0,0,1-.31-.09,2.06,2.06,0,0,1-.5-.35l-.32-.33a1.85,1.85,0,0,0-.14-.14,3.4,3.4,0,0,1-.38-.49c-.07-.11-.14-.22-.2-.33s-.07-.14-.11-.2L61.17,74a3.55,3.55,0,0,1-.23-.43,1.92,1.92,0,0,1-.11-.31c0-.09-.06-.19-.1-.28l-.09-.21c-.06-.13-.12-.26-.17-.4s-.07-.26-.1-.39,0-.15,0-.23l-.07-.25a2.24,2.24,0,0,1-.1-.37,2.69,2.69,0,0,1,0-.59,1.13,1.13,0,0,1-.12-.21H59.8a2.49,2.49,0,0,1-2-3.88,1.71,1.71,0,0,1-.13-.23s0,0-.06,0a1.41,1.41,0,0,0-.22-.06l-.34,0h-.39a.36.36,0,0,0-.2,0,2.28,2.28,0,0,0-.3.17l-.09.07h0a3,3,0,0,0-.34.25l-.16.14-.19.16-.2.2a6.17,6.17,0,0,1-.46.43l-.28.16-.12.06a3.38,3.38,0,0,0-.36.27,7.33,7.33,0,0,0-.6.65l0,.06a1.45,1.45,0,0,0-.26.4,2.64,2.64,0,0,0-.12.44c0,.07,0,.15,0,.24V70a1.8,1.8,0,0,1-.1.46c0,.07,0,.14-.09.22a.36.36,0,0,1,0,.09,1.17,1.17,0,0,0-.05.11c0,.06,0,.12,0,.18a.43.43,0,0,1,0,.05s0,.1,0,.14l0,.09c0,.05,0,.11,0,.16a1.47,1.47,0,0,1-.08.28,1.67,1.67,0,0,1-.22.4l-.17.14-.06,0-.11.08a.26.26,0,0,1-.21,0,.39.39,0,0,1-.15-.14.58.58,0,0,1-.08-.18v0a1,1,0,0,1-.06-.22l-.06-.39,0-.1c0-.1,0-.21,0-.31s-.07-.44-.1-.65l0-.27c0-.23-.07-.46-.11-.7s-.06-.28-.09-.42-.07-.33-.1-.49,0-.24-.05-.36v-.11l-.06-.35,0-.11a1.92,1.92,0,0,1,0-.22,1.94,1.94,0,0,1,0-.24c0-.14,0-.3.06-.47v-.34h0a.17.17,0,0,0,0-.1,1.14,1.14,0,0,0-.11-.11l0,0L50.21,66a1.54,1.54,0,0,1-.33-.31,1.17,1.17,0,0,1-.21-.4,2.26,2.26,0,0,1-.11-.47.28.28,0,0,0,0-.09.79.79,0,0,0-.06-.34.39.39,0,0,0-.11-.17.68.68,0,0,0-.19-.08,1.55,1.55,0,0,0-.43,0,.7.7,0,0,1-.38,0,2.7,2.7,0,0,1-.34-.17,1.35,1.35,0,0,1-.28-.25l0,0-.25-.27a2.21,2.21,0,0,1-.2-.3,1,1,0,0,1-.13-.35c0-.07,0-.14,0-.21A3.2,3.2,0,0,1,47,62l-.06.12a.61.61,0,0,1-.07.14.71.71,0,0,1-.1.14l-.08.11,0,0-.17.26a.08.08,0,0,1,0,0,.47.47,0,0,1-.06.09.15.15,0,0,1-.06.05h-.07V63a.28.28,0,0,0,0,.09.92.92,0,0,0,0,.16c0,.21,0,.44,0,.67a1.57,1.57,0,0,0,.05.3.3.3,0,0,0,.07.11.17.17,0,0,0,.14,0,.61.61,0,0,0,.24-.15.68.68,0,0,0,.12-.12l0,0L47,64a.17.17,0,0,1,.13-.05.14.14,0,0,1,.1.07.55.55,0,0,1,0,.26v.39l0,.25V65a3.28,3.28,0,0,1,0,.34v0a2.62,2.62,0,0,1,0,.28,1.86,1.86,0,0,1-.2.62,2,2,0,0,1-.34.44l0,.05a5.89,5.89,0,0,1-.58.54l-.4.36a.93.93,0,0,1-.14.14c-.1.1-.2.21-.31.3l-.16.13-.11.08v0l-.24.17a1.4,1.4,0,0,1-.3.15.48.48,0,0,1-.29,0c-.22-.09-.21-.4-.21-.53a3.61,3.61,0,0,1,.08-.64v0a.59.59,0,0,1,0-.13s0,0,0,0a.43.43,0,0,0,0-.11v-.07a2.46,2.46,0,0,1,0-.26c0-.37.09-.75.14-1.12l0-.2a1.13,1.13,0,0,0-.08.22,1.2,1.2,0,0,0-.06.24,1.37,1.37,0,0,0,0,.19s0,.06,0,.09a3.28,3.28,0,0,1-.09.52A1.87,1.87,0,0,1,44,67l-.09.3a3,3,0,0,0-.08.53c0,.13,0,.27,0,.4v.15a1.21,1.21,0,0,1,0,.19V69a.53.53,0,0,0,.06.24.54.54,0,0,0,.41.25h0a1.09,1.09,0,0,0,.26,0h0s0,0,0,0l0-.05a.18.18,0,0,1,.1,0,.11.11,0,0,1,.09,0s0,0,0,0v0h0s0,0,0,0a.16.16,0,0,1,0,.1h0s0,.06,0,.09v.23a.28.28,0,0,0,0,.09,7.45,7.45,0,0,1-.11,1.1,7.07,7.07,0,0,1-.29,1.06c0,.05,0,.1,0,.16-.09.29-.19.59-.31.88s-.13.34-.21.5l0,.08a2.28,2.28,0,0,1-.2.38.24.24,0,0,1-.19.12h0a.12.12,0,0,1-.09,0,.18.18,0,0,1-.09,0h0l-.06,0,0,0h0a23,23,0,1,0,34.8-21.47M53.4,73.1a.7.7,0,0,1-.06.19,0,0,0,0,0,0,0l-.1.2a1.42,1.42,0,0,1-.29.43.34.34,0,0,1-.21.1h0a.18.18,0,0,1-.17-.11.39.39,0,0,1,0-.21v0a2.09,2.09,0,0,0,0-.25l0-.22c0-.1,0-.2,0-.3a1.14,1.14,0,0,1,.11-.57v0l0,0v-.08a.89.89,0,0,1,0-.14.22.22,0,0,1,.15-.19.24.24,0,0,1,.23,0,.35.35,0,0,1,.12.21.29.29,0,0,0,0,.09l0,.15a.86.86,0,0,0,.11.24.77.77,0,0,1,.11.48m11.28,6c0,.14,0,.28-.07.41a2.92,2.92,0,0,1-.1.4.57.57,0,0,1-.23.3H64.2a.36.36,0,0,1-.24-.13l-.19-.2-.1-.1-.19-.22a4.12,4.12,0,0,0-.35-.37L62.91,79l-.41-.35c-.17-.17-.39-.39-.57-.61a3,3,0,0,1-.23-.32,2.11,2.11,0,0,1-.18-.33l0,0a7.62,7.62,0,0,0-.42-.72h0l-.22-.33a2.85,2.85,0,0,0-.23-.26l0,0c-.1-.11-.2-.23-.29-.35a3.25,3.25,0,0,0-.23-.29,6.07,6.07,0,0,0-.56-.58,2.44,2.44,0,0,1-.27-.29l-.06-.07v0h0s0-.05,0-.05H59s0,0-.05-.06h0v0a0,0,0,0,1,0,0,.08.08,0,0,1,0-.09.18.18,0,0,1,.15-.08.56.56,0,0,1,.3.06h.16a.92.92,0,0,1,.34.12,2.43,2.43,0,0,1,.32.24h0l.34.26c.25.19.46.36.65.52l.18.15.15.11.19.17a1.14,1.14,0,0,0,.11.11L62,76a2.85,2.85,0,0,1,.43.42,2,2,0,0,1,.18.25c.1.14.2.28.31.41a3.85,3.85,0,0,0,.61.52l.18.11.17.1a1.91,1.91,0,0,1,.32.24,1.38,1.38,0,0,1,.43.67,1.34,1.34,0,0,1,0,.41M76.23,55.3a.12.12,0,0,1,.1,0l.06,0h0l.21.09.11.05.33.17a.6.6,0,0,1,.22.2.36.36,0,0,1,0,.07s0,0,0,.07a.18.18,0,0,0,0,.07l0,0a.23.23,0,0,1,0,.23.37.37,0,0,1-.23.24h-.08a1.05,1.05,0,0,1-.24-.06,1,1,0,0,0-.31-.07h0c-.08,0-.18,0-.22-.1a.31.31,0,0,1,0-.21.19.19,0,0,0,0-.07,1,1,0,0,0,0-.34.77.77,0,0,0,0-.17h0v0h0s0,0-.05-.06a.12.12,0,0,1,0-.1M74.29,60a.9.9,0,0,1,.18-.15,1.25,1.25,0,0,0,.19-.15l.11-.14c0-.06.1-.13.16-.19a1.14,1.14,0,0,1,.34-.26,2.47,2.47,0,0,1,.41-.14,1.31,1.31,0,0,0,.37-.15,3.12,3.12,0,0,0,.38-.26h0a.78.78,0,0,0,.28-.29,1,1,0,0,0,.08-.42,1.7,1.7,0,0,0,0-.22s0-.08,0-.12v0a.13.13,0,0,1,0-.06,3,3,0,0,0-.08-.39h0a.07.07,0,0,1,0-.06l0,0a0,0,0,0,0,0,0,.18.18,0,0,1,0-.1.11.11,0,0,1,.06-.1h0l0,0a.23.23,0,0,1,.16,0,.53.53,0,0,1,.21.21,1.07,1.07,0,0,1,.07.19,2.14,2.14,0,0,1,.1.22l.1.24c0,.05,0,.09,0,.13a2.55,2.55,0,0,1,.13.39,2.73,2.73,0,0,1,.06.34,2.3,2.3,0,0,1,0,.35,1.87,1.87,0,0,1-.16.68,1,1,0,0,1-.52.41l-.22.11a3,3,0,0,1-.41.19l-.35.1h0a.78.78,0,0,0-.27.09.33.33,0,0,0-.13.19l0,.09a1.2,1.2,0,0,1-.21.26.44.44,0,0,1-.3.1h0a1,1,0,0,1-.33-.05.55.55,0,0,1-.26-.18.56.56,0,0,1-.1-.3.58.58,0,0,1,.16-.43m1.62,16.22a.41.41,0,0,1-.24.2h0a.18.18,0,0,1-.13,0l-.09-.07-.11-.09a.4.4,0,0,1-.15-.18s0,0,0-.06v0a.61.61,0,0,1,0-.12.58.58,0,0,1,0-.14v-.11a.21.21,0,0,1,.08-.18.21.21,0,0,1,.17,0,.28.28,0,0,1,.1.09l.15,0,.25.13a.46.46,0,0,1,.18.16c.1.14,0,.3-.07.45m.26,1.48a1.4,1.4,0,0,1,.34,0,.3.3,0,0,1,.19.15c0,.12-.06.2-.14.25a.84.84,0,0,1-.45.13.78.78,0,0,1-.22,0l-.28-.12,0,0-.06,0a.36.36,0,0,1-.21-.15.12.12,0,0,1,0-.15.23.23,0,0,1,.1-.07l0,0a.17.17,0,0,1,.17,0h.53M73.66,72l0,0h0v-.07a.59.59,0,0,1,0-.08l0,0h0s.11-.13.18-.19a.7.7,0,0,1,.26-.13.25.25,0,0,1,.25.08.42.42,0,0,1,.09.19.19.19,0,0,1,0,.07c0,.06.05.12.07.17a1.38,1.38,0,0,1,.12.34,2,2,0,0,1,0,.55,1.26,1.26,0,0,1-.19.49,1.1,1.1,0,0,1-.38.32,1,1,0,0,1-.46.11h0a.66.66,0,0,1-.47-.18A1.14,1.14,0,0,1,73,73.1h0a2.24,2.24,0,0,1-.12-.5v0a.22.22,0,0,1,0-.16.12.12,0,0,1,.17,0h0a.05.05,0,0,0,0,0,.18.18,0,0,0,.09,0,.32.32,0,0,0,.12-.11l0,0,0,0a1.23,1.23,0,0,1,.26-.25m-1-2.41v0a.61.61,0,0,1,.07-.1.33.33,0,0,1,.26,0,.55.55,0,0,1,.21.14l.09.07c.1.08.22.18.22.32a.23.23,0,0,1-.09.18.42.42,0,0,1-.27.12h0a.46.46,0,0,1-.23-.12L72.77,70s0,0,0,0a.31.31,0,0,1-.1-.26.38.38,0,0,1,0-.13m-.14,1.62v-.13a.13.13,0,0,0,0-.06v-.07a.18.18,0,0,1,.06-.14.18.18,0,0,1,.23,0,.62.62,0,0,1,.2.16s0,0,0,0v0a1.26,1.26,0,0,1,.22.24.3.3,0,0,1,0,.31c-.07.2-.15.32-.25.35h0a.2.2,0,0,1-.11,0,.39.39,0,0,0-.15-.06.59.59,0,0,1-.14-.06.36.36,0,0,1-.15-.27c0-.1,0-.2,0-.3m.06,4.73.06,0h.07l.22,0a2.8,2.8,0,0,0,.29,0,3.54,3.54,0,0,0,.47-.07h.09a.39.39,0,0,1,.28,0,.19.19,0,0,1,.11.19.52.52,0,0,1-.29.37l-.25.13a1,1,0,0,1-.27.09h-.13a1.59,1.59,0,0,1-.38-.06H72.8a2.76,2.76,0,0,0-.4-.06l-.17,0c-.18,0-.37-.07-.43-.23s.1-.35.28-.43.2-.09.28,0h.13l.1,0m.09,2,.11.15,0,0a1.07,1.07,0,0,1,.23.4A.49.49,0,0,1,73,79c-.15.13-.35,0-.41,0a.79.79,0,0,1-.27-.38l0-.13,0-.12a.35.35,0,0,0-.1-.2.07.07,0,0,0-.06,0,.09.09,0,0,0-.07.06.36.36,0,0,0,0,.18.43.43,0,0,0,0,0,1.43,1.43,0,0,1-.18.94s-.13.19-.25.19h0a.13.13,0,0,1-.11,0,.28.28,0,0,1,0-.22h0a.41.41,0,0,1,0-.11s0-.09,0-.13a2.33,2.33,0,0,0,0-.52v-.11a2.73,2.73,0,0,1,0-.41.9.9,0,0,1,0-.24,1.25,1.25,0,0,1,.19-.44l0,0a.09.09,0,0,1,0,0l.08-.06a.7.7,0,0,1,.23-.08,1.53,1.53,0,0,1,.3,0l.2,0,.22,0,.29,0a.44.44,0,0,1,.29.08.19.19,0,0,1,.05.13.26.26,0,0,1-.12.18,1.18,1.18,0,0,1-.18.13l-.06,0-.17.11h0a.4.4,0,0,0-.14.15c0,.07,0,.16.07.21m-.22-10.09a2,2,0,0,1-.08.33,2.25,2.25,0,0,0-.08.24,2.32,2.32,0,0,0,0,.37,1.93,1.93,0,0,1,0,.24.75.75,0,0,1-.2.52.68.68,0,0,1-.38.18.28.28,0,0,1-.15,0,.42.42,0,0,1-.17-.2.9.9,0,0,1,0-.28v0c0-.22,0-.46,0-.73a2.31,2.31,0,0,1,.11-.65l.06-.15s0,0,0,0a.41.41,0,0,0,0-.08V67.5a.14.14,0,0,1,0-.06.19.19,0,0,1,.08-.1.29.29,0,0,1,.26-.08.58.58,0,0,1,.49.61M71,65a1,1,0,0,1,.09-.46,1.07,1.07,0,0,1,.33-.34h0a.13.13,0,0,1,.06,0s.12,0,.15,0a.34.34,0,0,1,.16.23l0,.06,0,0a1.12,1.12,0,0,1,.08.26,1,1,0,0,1-.14.64,1,1,0,0,1-.19.26.55.55,0,0,1-.33.14h0a.18.18,0,0,1-.15-.1.62.62,0,0,1-.06-.26v-.06a.49.49,0,0,1,0-.12A1.49,1.49,0,0,1,71,65Zm-4.86,10.9a.56.56,0,0,1,.28,0l.07,0,.33.11a.23.23,0,0,1,0-.12l.06-.14a.91.91,0,0,1,.16-.24.46.46,0,0,1,.27-.1h.17l.15,0a1,1,0,0,0,.44-.31l.16-.18.23-.24c.12-.13.23-.28.34-.42h0l.34-.47a3.08,3.08,0,0,1,.35-.44,1.36,1.36,0,0,1,.44-.32.48.48,0,0,1,.49,0,.66.66,0,0,1,.14.15l0,0,.13.18s0,0,0,0h0c0,.07.11.13.16.19a.6.6,0,0,1,.08.08,1.13,1.13,0,0,1,.28.34.23.23,0,0,1,0,.24.29.29,0,0,1-.25.06h0a.49.49,0,0,0-.24,0,.31.31,0,0,0-.12.22,1.43,1.43,0,0,0,0,.29.38.38,0,0,0,.09.25l0,0,.14.15a1.42,1.42,0,0,1,.12.25.76.76,0,0,1,0,.27.28.28,0,0,1-.17.18h-.15s-.09,0-.11,0a.23.23,0,0,0,0,.12h0v.13a.72.72,0,0,1-.07.27,1.24,1.24,0,0,1-.14.18l0,0,0,0a1.33,1.33,0,0,0-.14.19.57.57,0,0,0,0,.27s0,.08,0,.12a1.11,1.11,0,0,1,0,.19l0,.29a1,1,0,0,1-.22.49.69.69,0,0,1-.44.25h-.12a2.32,2.32,0,0,1-.45-.06l-.2-.05-.38-.08a2.14,2.14,0,0,1-.53-.25,1.83,1.83,0,0,0-.49-.28l-.16,0-.39-.14a1.38,1.38,0,0,1-.44-.34A1.72,1.72,0,0,1,66,76.49h0c0-.18,0-.53.22-.56m1.48,5.14h-.21a2.57,2.57,0,0,1-.48,0,4.9,4.9,0,0,1-.55-.13L66,80.78l-.08,0a5.18,5.18,0,0,0-.56-.17h-.06L65,80.5a.36.36,0,0,1-.21-.16.25.25,0,0,1,0-.22.26.26,0,0,1,0-.09h.05A.2.2,0,0,1,65,80h0l.13,0a1.52,1.52,0,0,1,.57,0,3.58,3.58,0,0,1,.35.09,1.17,1.17,0,0,0,.2.06,1.8,1.8,0,0,0,.52,0h1.79a2.86,2.86,0,0,1,.42.1l.14,0c.18,0,.35.12.54.19l.08,0a1,1,0,0,1,.41.22c.08.06.3.29.19.46a.21.21,0,0,1-.17.08h0a2.61,2.61,0,0,1-.27-.06l-.08,0-.2,0-.28,0c-.13,0-.26,0-.39,0h-.5a1.51,1.51,0,0,0-.3,0l-.47,0M83.23,85a1.56,1.56,0,0,1-.23.64,1.53,1.53,0,0,0-.16.31l0,.12a1,1,0,0,1-.09.22,3.89,3.89,0,0,1-.27.54l0,.08a10.55,10.55,0,0,1-.75,1.22c-.13.17-.27.33-.41.48l0,0-.14.16c-.11.12-.22.25-.33.36a2.32,2.32,0,0,1-.58.4l-.21.09a1.5,1.5,0,0,0-.4.2,1.07,1.07,0,0,0-.25.27,2,2,0,0,1-.19.22l-.21.18-.06,0,0,0a1.84,1.84,0,0,1-.22.17.44.44,0,0,1-.31.06.64.64,0,0,1-.27-.18l-.17-.18-.07-.07a.65.65,0,0,0-.28-.2l-.21-.06-.13,0-.07,0a1.43,1.43,0,0,1-.27-.09l-.13-.06a1.11,1.11,0,0,0-.19-.09,1.37,1.37,0,0,0-.34-.07H76a2.46,2.46,0,0,1-2.58-.21h-.14l-.2,0a1.48,1.48,0,0,0-.33.17l0,0-.34.2-.32.2c-.12.08-.24.16-.37.23l-.75.38a2.94,2.94,0,0,1-.76.28l-.4.08h0a2.3,2.3,0,0,1-.26,0h-.13a.48.48,0,0,1-.3-.21.49.49,0,0,1,0-.36l.06-.19a1.18,1.18,0,0,0,.07-.2.62.62,0,0,0,0-.38,1.28,1.28,0,0,0-.25-.4c-.06-.09-.13-.18-.18-.27a2.52,2.52,0,0,1-.15-.34l0,0c0-.14-.09-.28-.12-.4s-.07-.25-.12-.4a1.59,1.59,0,0,1-.1-.39.86.86,0,0,1,.16-.51.75.75,0,0,1,.17-.19l.11-.08,0,0a.13.13,0,0,0,.07,0h0a2.39,2.39,0,0,1,.23-.22,1.15,1.15,0,0,1,.26-.17,1.29,1.29,0,0,1,.21-.07l.08,0,.3-.08h0l.1,0a2.57,2.57,0,0,1,.09-.67,2.38,2.38,0,0,1,.34-.74,2.55,2.55,0,0,1-.34-.75,2.47,2.47,0,0,1,.25-1.88,2.5,2.5,0,0,1,2.15-1.24h.18a2.48,2.48,0,0,1,4.47,0h.19a2.45,2.45,0,0,1,1.42.45l.06,0a.38.38,0,0,1,.25.24,2.24,2.24,0,0,1,.42.54,2.47,2.47,0,0,1,.28,1.71h0c.11,0,.16-.14.2-.24l0,0a2.17,2.17,0,0,0,.12-.36s0,0,0,0a.65.65,0,0,0,0-.13,2.81,2.81,0,0,0,.08-.31c0-.13.07-.27.1-.41s.06-.29.1-.44.06-.24.1-.36l0-.08,0-.1c0-.1.06-.22.1-.32s.23-.56.53-.61a.35.35,0,0,1,.33.17.73.73,0,0,1,.11.41,5.65,5.65,0,0,0,.1.88,1.89,1.89,0,0,0,0,.23,1.21,1.21,0,0,1,.05.18,2,2,0,0,1,0,.24s0,.12,0,.17a1.25,1.25,0,0,0,.38.73l.13.1.19.17.23.28.06.07h0l0,0c0,.07.11.14.16.22a1.28,1.28,0,0,1,.13.68m-5.16-5.85a.19.19,0,0,0,0-.08,1.33,1.33,0,0,0,0-.19.51.51,0,0,0,0-.13h0a.64.64,0,0,1,0-.07.16.16,0,0,1,.08-.06h.1a.21.21,0,0,1,.18.11.4.4,0,0,1,.1.22.57.57,0,0,1-.15.46.29.29,0,0,1-.19.09h0a.28.28,0,0,1-.2-.06.29.29,0,0,1,0-.27m8.47-11.39v1c0,2.27-.78,4.92-4.2,5.48v2.67a1.35,1.35,0,0,1-.09.5h0l.14.11h0l.22.18.26.25.19.19.2.17.25.23a1.37,1.37,0,0,1,.19.23h0c0,.08.11.16.16.25a.65.65,0,0,1,0,.58.38.38,0,0,1-.48.17.75.75,0,0,1-.24-.15.69.69,0,0,1-.13-.11l-.12-.09a2.09,2.09,0,0,0-.52-.32.52.52,0,0,0-.29-.06.32.32,0,0,0-.2.17l-.11.24a1.73,1.73,0,0,1-.14.31.84.84,0,0,1-.43.35l-.18,0a1.94,1.94,0,0,1-.42-.07c-.21-.06-.41-.13-.59-.2s-.38-.17-.36-.4a.66.66,0,0,1,.12-.27h0l0,0,.06-.09h0s0-.06,0-.08a.24.24,0,0,0-.09-.08l0,0-.12-.09a1,1,0,0,0-.26-.15,3.31,3.31,0,0,0-.42-.12l-.2,0a1.8,1.8,0,0,1-1-.63,2.2,2.2,0,0,1-.21-.32,2.39,2.39,0,0,0-.13-.21.44.44,0,0,0-.08-.11,1.2,1.2,0,0,1-.2-.41.3.3,0,0,1,.22-.35.81.81,0,0,1,.81.27,1.61,1.61,0,0,1,.23.39l0,.09a3.45,3.45,0,0,1,.14.34,1.29,1.29,0,0,1,.17-.16l.09-.07.1-.08.16-.14.27-.21.06,0V74.21c-3.37-.58-4.14-3.22-4.14-5.47v-1h1l.67,0a5.17,5.17,0,0,1-.54-2.47v-1h1a7.61,7.61,0,0,1,.79,0,4.86,4.86,0,0,1-.34-1.1c-.34-1.8.37-3.58,2.1-5.32l.71-.71.72.71c1.36,1.37,2.55,3.26,2,5.48a8.12,8.12,0,0,1,2-.24h1v1a6.36,6.36,0,0,1-1,3.58Z"/><path class="cls-8" d="M72.63,88.62h-.18a2.5,2.5,0,0,1-2.16-1.25A2.46,2.46,0,0,1,70,86.16l-.1,0h0l-.3.08-.08,0a.73.73,0,0,0-.21.06,1,1,0,0,0-.26.17,2.39,2.39,0,0,0-.23.22.13.13,0,0,1-.07,0l0,0-.11.08a1.07,1.07,0,0,0-.18.19.92.92,0,0,0-.15.51,1.59,1.59,0,0,0,.1.39c0,.15.09.28.12.4s.07.26.12.4v0a2.6,2.6,0,0,0,.16.34c.05.09.12.18.18.27a1.28,1.28,0,0,1,.25.4.62.62,0,0,1,0,.38,1.18,1.18,0,0,1-.07.2l-.06.19a.49.49,0,0,0,0,.36.48.48,0,0,0,.3.21h.13l.26,0h0l.39-.08a3.16,3.16,0,0,0,.77-.28l.75-.38a2.85,2.85,0,0,0,.37-.23l.32-.2.34-.2,0,0a1.48,1.48,0,0,1,.33-.17l.19,0h.15a2.59,2.59,0,0,1-.78-.93"/><path class="cls-8" d="M78.78,81.37l-.06,0a2.51,2.51,0,0,1,.31.26.38.38,0,0,0-.25-.24"/><path class="cls-8" d="M82.94,84.07l0,0L82.86,84l-.23-.28-.19-.17-.13-.1a1.25,1.25,0,0,1-.38-.73s0-.12,0-.17a2,2,0,0,0,0-.24,1.21,1.21,0,0,0-.05-.18,1.89,1.89,0,0,1,0-.23,5.65,5.65,0,0,1-.1-.88.73.73,0,0,0-.11-.41.35.35,0,0,0-.33-.17c-.3,0-.45.37-.53.61s-.07.22-.1.33l0,.09,0,.08c0,.12-.07.24-.1.36s-.07.3-.1.44-.06.28-.1.41a2.81,2.81,0,0,1-.08.31.65.65,0,0,1,0,.13s0,0,0,0a2.17,2.17,0,0,1-.12.36l0,0c0,.1-.09.22-.2.24h0a2.56,2.56,0,0,1-.38.92,2.47,2.47,0,0,1,.09,2.62,2.5,2.5,0,0,1-2.15,1.24h-.18A2.5,2.5,0,0,1,76,89.76h.12a1.37,1.37,0,0,1,.34.07,1.11,1.11,0,0,1,.19.09l.13.06a1.43,1.43,0,0,0,.27.09l.07,0,.13,0,.21.06a.65.65,0,0,1,.28.2l.07.07.17.18a.64.64,0,0,0,.27.18.44.44,0,0,0,.31-.06,1.84,1.84,0,0,0,.22-.17l0,0,.06,0,.21-.18a2,2,0,0,0,.19-.22,1.07,1.07,0,0,1,.25-.27,1.5,1.5,0,0,1,.4-.2l.21-.09a2.32,2.32,0,0,0,.58-.4q.16-.17.33-.36l.14-.16,0,0c.14-.15.28-.31.41-.48a10.55,10.55,0,0,0,.75-1.22l0-.08a3.89,3.89,0,0,0,.27-.54,1,1,0,0,0,.09-.22l0-.12a1.53,1.53,0,0,1,.16-.31,1.56,1.56,0,0,0,.23-.64,1.28,1.28,0,0,0-.13-.68c0-.08-.11-.15-.16-.22"/><path class="cls-8" d="M74.49,60.87a1,1,0,0,0,.33.05h0a.44.44,0,0,0,.3-.1,1.46,1.46,0,0,0,.21-.25l0-.1a.33.33,0,0,1,.13-.19.78.78,0,0,1,.27-.09h0a3.21,3.21,0,0,0,.35-.1,3,3,0,0,0,.41-.19l.22-.11a1,1,0,0,0,.52-.41,1.87,1.87,0,0,0,.16-.68,2.24,2.24,0,0,0,0-.35,2.73,2.73,0,0,0-.06-.34,2.55,2.55,0,0,0-.13-.39s0-.08,0-.12-.07-.17-.1-.25a2.14,2.14,0,0,0-.1-.22,1.46,1.46,0,0,0-.07-.19.53.53,0,0,0-.21-.21.23.23,0,0,0-.16,0l0,0h0a.11.11,0,0,0-.06.1.18.18,0,0,0,0,.1l0,0,0,0a.07.07,0,0,0,0,.06h0a3,3,0,0,1,.08.39.13.13,0,0,0,0,.06v0s0,.08,0,.12a1.7,1.7,0,0,1,0,.22,1.06,1.06,0,0,1-.08.43.83.83,0,0,1-.28.28l0,0-.38.25a1.31,1.31,0,0,1-.37.15,2.47,2.47,0,0,0-.41.14,1.14,1.14,0,0,0-.34.26c-.06.06-.11.13-.16.19a1.71,1.71,0,0,1-.11.14,1.25,1.25,0,0,1-.19.15.9.9,0,0,0-.18.15.58.58,0,0,0-.16.43.56.56,0,0,0,.1.3.55.55,0,0,0,.26.18"/><path class="cls-8" d="M77.29,52.81l0,0,.22.3.18.24s0,0,0,0a.47.47,0,0,0,.19.18h0a.08.08,0,0,0,.06,0,.19.19,0,0,0,.07-.12.94.94,0,0,0-.07-.3v0c0-.1-.08-.19-.12-.29h0l0-.08c-.39-.24-.78-.46-1.19-.67l.21.22c.14.16.28.33.41.5"/><path class="cls-8" d="M76.21,55.4s0,.05.05.06h0v0h0a.7.7,0,0,1,0,.18,1,1,0,0,1,0,.33.19.19,0,0,1,0,.07.31.31,0,0,0,0,.21c0,.09.14.09.22.1h0a1,1,0,0,1,.31.07,1.05,1.05,0,0,0,.24.06h.08a.37.37,0,0,0,.23-.24.23.23,0,0,0,0-.23l0,0a.18.18,0,0,1,0-.07s0,0,0-.06a.26.26,0,0,0,0-.08.6.6,0,0,0-.22-.2l-.33-.17-.11-.05-.21-.09h0l-.06,0a.1.1,0,0,0-.12.12"/><path class="cls-8" d="M71.07,65.36v0a.62.62,0,0,0,.06.26.18.18,0,0,0,.15.1h0a.55.55,0,0,0,.33-.14,1,1,0,0,0,.19-.26,1,1,0,0,0,.14-.64,1.12,1.12,0,0,0-.08-.26l0,0,0-.06a.34.34,0,0,0-.16-.23s-.1,0-.15,0a.13.13,0,0,0-.06,0h0v0h0a1.07,1.07,0,0,0-.33.34A1,1,0,0,0,71,65a1.49,1.49,0,0,0,0,.21.62.62,0,0,0,0,.13"/><path class="cls-8" d="M64.23,78a1.91,1.91,0,0,0-.32-.24l-.17-.1-.18-.11A3.39,3.39,0,0,1,63,77c-.11-.13-.21-.27-.31-.41a2,2,0,0,0-.18-.25A2.85,2.85,0,0,0,62,76l-.16-.13a1.14,1.14,0,0,1-.11-.11l-.19-.16-.15-.12-.18-.15-.65-.52-.34-.26h0a3.81,3.81,0,0,0-.32-.24.92.92,0,0,0-.34-.12h-.16a.49.49,0,0,0-.3-.07.16.16,0,0,0-.15.08.07.07,0,0,0,0,.09,0,0,0,0,0,0,0v0s0,0,.05.06l0,0h0s0,0,0,.05h0v0l.06.07a2.44,2.44,0,0,0,.27.29,6.07,6.07,0,0,1,.56.58,3.25,3.25,0,0,1,.23.29c.09.12.19.24.29.35l0,0a2.85,2.85,0,0,1,.23.26l.22.33h0a7.62,7.62,0,0,1,.42.72l0,0a2.11,2.11,0,0,0,.18.33,3,3,0,0,0,.23.32,6.89,6.89,0,0,0,.57.61l.41.35.22.17a4.12,4.12,0,0,1,.35.37l.19.22.1.1.19.2a.36.36,0,0,0,.24.13h.08a.57.57,0,0,0,.23-.3,2.92,2.92,0,0,0,.1-.4c0-.13,0-.27.07-.41a1.34,1.34,0,0,0,0-.41,1.38,1.38,0,0,0-.43-.67"/><path class="cls-8" d="M80.91,78.32a1.43,1.43,0,0,1-1.43-1.42v-.1l-.06,0-.27.21-.16.14-.1.08-.09.07a1.29,1.29,0,0,0-.17.16,3.45,3.45,0,0,0-.14-.34l0-.09a1.37,1.37,0,0,0-.23-.38.82.82,0,0,0-.81-.28.3.3,0,0,0-.22.35,1.2,1.2,0,0,0,.2.41.76.76,0,0,1,.08.11,2.39,2.39,0,0,1,.13.21,2.2,2.2,0,0,0,.21.32,1.8,1.8,0,0,0,1,.63l.2,0a3.31,3.31,0,0,1,.42.12,1,1,0,0,1,.26.15l.12.09,0,0a.24.24,0,0,1,.09.08s0,.05,0,.08h0l-.06.09,0,0h0a.66.66,0,0,0-.12.27c0,.23.17.33.36.4s.38.14.59.2a1.94,1.94,0,0,0,.42.07l.18,0a.84.84,0,0,0,.43-.35,1.73,1.73,0,0,0,.14-.31,2.56,2.56,0,0,1,.11-.24.32.32,0,0,1,.2-.17.52.52,0,0,1,.29.06,2.09,2.09,0,0,1,.52.32l.12.09a.69.69,0,0,0,.13.11.75.75,0,0,0,.24.15.38.38,0,0,0,.48-.17.65.65,0,0,0,0-.58,2.2,2.2,0,0,0-.17-.25h0a1.37,1.37,0,0,0-.19-.23l-.25-.23-.2-.17-.19-.19-.26-.25-.22-.18h0l-.14-.11h0a1.44,1.44,0,0,1-1.34.93"/><path class="cls-8" d="M66,76.49a1.72,1.72,0,0,0,.37,1.08,1.38,1.38,0,0,0,.44.34l.39.14.16,0a1.83,1.83,0,0,1,.49.28,1.58,1.58,0,0,0,.53.24,2.34,2.34,0,0,0,.38.09l.2.05a2.34,2.34,0,0,0,.45.07h.12a.72.72,0,0,0,.44-.24,1.09,1.09,0,0,0,.22-.5l0-.29a1.11,1.11,0,0,0,0-.19s0-.08,0-.12a.57.57,0,0,1,0-.27,1.33,1.33,0,0,1,.14-.19l0,0,0,0a2.09,2.09,0,0,0,.14-.17.83.83,0,0,0,.07-.27v-.14h0a.23.23,0,0,1,0-.12s.07,0,.11,0h.15a.28.28,0,0,0,.17-.18.7.7,0,0,0,0-.26,1.23,1.23,0,0,0-.12-.26l-.14-.15,0,0a.36.36,0,0,1-.09-.25,1.5,1.5,0,0,1,0-.29.31.31,0,0,1,.12-.22.49.49,0,0,1,.24,0h0a.29.29,0,0,0,.25-.06.23.23,0,0,0,0-.24,1.13,1.13,0,0,0-.28-.34L71,73.75c0-.06-.11-.12-.16-.19h0l0,0-.13-.18,0,0a1,1,0,0,0-.14-.15.51.51,0,0,0-.49,0,1.36,1.36,0,0,0-.44.32,3.08,3.08,0,0,0-.35.44l-.35.47h0c-.11.14-.22.29-.34.42l-.23.24-.16.18a1,1,0,0,1-.44.31l-.15,0h-.17a.46.46,0,0,0-.27.1.91.91,0,0,0-.16.24l-.06.14a.23.23,0,0,0,0,.12L66.53,76l-.07,0a.56.56,0,0,0-.28,0c-.25,0-.23.38-.22.56Z"/><path class="cls-8" d="M71.71,67.34a.28.28,0,0,0-.09.1s0,0,0,.06v.07a.41.41,0,0,1,0,.08s0,0,0,0l-.06.15a2.7,2.7,0,0,0-.12.65c0,.27,0,.51,0,.73v0a.68.68,0,0,0,0,.28.42.42,0,0,0,.17.2.28.28,0,0,0,.15,0,.61.61,0,0,0,.37-.18.71.71,0,0,0,.21-.52,1.93,1.93,0,0,0,0-.24,1.54,1.54,0,0,1,0-.37,2.25,2.25,0,0,1,.08-.24,2,2,0,0,0,.08-.33.57.57,0,0,0-.23-.49.49.49,0,0,0-.26-.12.29.29,0,0,0-.26.08"/><path class="cls-8" d="M73.4,72.22l0,0,0,0a.32.32,0,0,1-.12.11.18.18,0,0,1-.09,0l0,0v0a.12.12,0,0,0-.17,0,.22.22,0,0,0,0,.16v0a2.24,2.24,0,0,0,.12.5h0a1.14,1.14,0,0,0,.24.43.66.66,0,0,0,.47.18h0a1,1,0,0,0,.46-.11,1,1,0,0,0,.56-.81,1.69,1.69,0,0,0,0-.55,1.38,1.38,0,0,0-.12-.34c0-.05,0-.11-.07-.17a.19.19,0,0,0,0-.07.42.42,0,0,0-.09-.19.25.25,0,0,0-.25-.08.7.7,0,0,0-.26.13,1.62,1.62,0,0,0-.18.2h0l0,0a.59.59,0,0,0,0,.08v.07h0l0,0a1.23,1.23,0,0,0-.26.25"/><path class="cls-8" d="M68.61,81h.32c.13,0,.26,0,.39,0l.28,0,.19.06.09,0a2.61,2.61,0,0,0,.27.06h0a.21.21,0,0,0,.17-.08c.11-.17-.11-.4-.19-.46a1,1,0,0,0-.41-.22l-.08,0c-.19-.07-.36-.14-.54-.19l-.14,0a2.86,2.86,0,0,0-.42-.1H66.8a1.8,1.8,0,0,1-.52,0l-.2,0a2,2,0,0,0-.35-.1,1.52,1.52,0,0,0-.57,0L65,80h0l-.09,0h0a.7.7,0,0,0-.06.09.28.28,0,0,0,0,.22.36.36,0,0,0,.21.16l.22.07h.06a5.18,5.18,0,0,1,.56.17l.08,0,.47.16a4.9,4.9,0,0,0,.55.13,2.57,2.57,0,0,0,.48,0h.21l.47,0a1.51,1.51,0,0,1,.3,0h.18"/><path class="cls-8" d="M72.75,77.6h0l.17-.11.06,0a1.18,1.18,0,0,0,.18-.13.26.26,0,0,0,.12-.18.19.19,0,0,0-.05-.13.44.44,0,0,0-.29-.08l-.29,0-.22,0-.2,0a1.53,1.53,0,0,0-.3,0,.7.7,0,0,0-.23.08l-.08.06,0,0a.05.05,0,0,1,0,0,1.25,1.25,0,0,0-.19.44.9.9,0,0,0,0,.24,2.73,2.73,0,0,0,0,.41v.11a2.33,2.33,0,0,1,0,.52s0,.09,0,.13a.41.41,0,0,0,0,.11h0a.28.28,0,0,0,0,.22.12.12,0,0,0,.11,0h0c.12,0,.23-.16.25-.19a1.43,1.43,0,0,0,.18-.94.07.07,0,0,1,0,0,.36.36,0,0,1,0-.18.09.09,0,0,1,.07-.06.07.07,0,0,1,.06,0,.35.35,0,0,1,.1.2l0,.12,0,.13a.79.79,0,0,0,.27.38c.06,0,.26.16.41,0a.49.49,0,0,0,.1-.44,1.07,1.07,0,0,0-.23-.4l0,0L72.68,78s-.09-.14-.07-.21a.4.4,0,0,1,.14-.15"/><path class="cls-8" d="M75.8,75.57l-.25-.12a.34.34,0,0,0-.15,0,.28.28,0,0,0-.1-.09.21.21,0,0,0-.17,0,.21.21,0,0,0-.08.18v.11a.58.58,0,0,0,0,.14.61.61,0,0,0,0,.12v0s0,0,0,.06a.4.4,0,0,0,.15.18l.11.09.09.07a.18.18,0,0,0,.13,0h0a.41.41,0,0,0,.24-.2c.09-.15.17-.31.07-.45a.46.46,0,0,0-.18-.16"/><path class="cls-8" d="M53.18,72.38a.8.8,0,0,1,0-.15.29.29,0,0,1,0-.09.35.35,0,0,0-.12-.21.24.24,0,0,0-.23,0,.22.22,0,0,0-.15.19.89.89,0,0,0,0,.14v.08a.05.05,0,0,0,0,0,0,0,0,0,0,0,0,1.14,1.14,0,0,0-.11.57c0,.1,0,.2,0,.3l0,.22v.27a.37.37,0,0,0,0,.21.18.18,0,0,0,.17.11h0a.34.34,0,0,0,.21-.1,1.42,1.42,0,0,0,.29-.43l.1-.2v0a1.39,1.39,0,0,0,.06-.19.77.77,0,0,0-.11-.48.86.86,0,0,1-.11-.24"/><path class="cls-8" d="M72.4,75.88h0c-.08-.07-.22,0-.28,0s-.35.24-.28.43.25.21.43.23l.17,0a2.76,2.76,0,0,1,.4.06h.06a1.59,1.59,0,0,0,.38.07l.13,0a1,1,0,0,0,.27-.09l.25-.13a.52.52,0,0,0,.29-.37.19.19,0,0,0-.11-.19.45.45,0,0,0-.28,0H73.7a3.54,3.54,0,0,1-.47.07,2.8,2.8,0,0,1-.29,0l-.22,0h-.13l-.1,0H72.4"/><path class="cls-8" d="M75.8,77.65h-.14a0,0,0,0,0,0,0h0a.17.17,0,0,0-.17,0l0,0a.23.23,0,0,0-.1.07.12.12,0,0,0,0,.15.36.36,0,0,0,.21.15l.06,0,0,0,.28.12a.78.78,0,0,0,.22,0,.86.86,0,0,0,.45-.13c.08,0,.18-.13.14-.25a.3.3,0,0,0-.19-.15,1.4,1.4,0,0,0-.34,0H75.8"/><path class="cls-8" d="M78.3,79.45a.29.29,0,0,0,.19-.09.57.57,0,0,0,.15-.46.4.4,0,0,0-.1-.22c0-.05-.11-.12-.18-.11h-.1a.12.12,0,0,0-.08.06.64.64,0,0,0,0,.07h0a.51.51,0,0,1,0,.13,1.33,1.33,0,0,1,0,.19.19.19,0,0,1,0,.08.29.29,0,0,0,0,.27.28.28,0,0,0,.2.06h0"/><path class="cls-8" d="M72.8,71.81a.39.39,0,0,1,.15.06.2.2,0,0,0,.11,0h0c.1,0,.18-.15.24-.35a.28.28,0,0,0,0-.31A1.26,1.26,0,0,0,73.1,71v0s0,0,0,0a.62.62,0,0,0-.2-.16.2.2,0,0,0-.23,0,.18.18,0,0,0-.06.14s0,0,0,0v0a.13.13,0,0,1,0,.06v.13c0,.1,0,.2,0,.3a.33.33,0,0,0,.15.27.59.59,0,0,0,.14.06"/><path class="cls-8" d="M72.77,70l.16.16a.46.46,0,0,0,.23.12h0a.42.42,0,0,0,.27-.12.23.23,0,0,0,.09-.18c0-.14-.12-.24-.22-.32l-.09-.07a.55.55,0,0,0-.21-.14.3.3,0,0,0-.26,0,.31.31,0,0,0-.07.09v0a.38.38,0,0,0,0,.13.28.28,0,0,0,.1.26l0,0"/><path class="cls-8" d="M68.5,50.73a2.49,2.49,0,0,1,2.24,1.42h.18A2.47,2.47,0,0,1,73,56a2.55,2.55,0,0,1,.34.75l0,.16h.17l.27,0a.59.59,0,0,0,.29,0,.73.73,0,0,0,.23-.16l.06,0,.14-.14c0-.06.09-.13.14-.2l0,0a1.36,1.36,0,0,0,.13-.24.88.88,0,0,0,.07-.29,2.5,2.5,0,0,0,0-.56,1.91,1.91,0,0,0-.07-.36l-.06-.23a1.1,1.1,0,0,1,0-.26,1.77,1.77,0,0,0,.31.46.6.6,0,0,0,.21.17.42.42,0,0,0,.27,0,1.05,1.05,0,0,0,.26-.13l0,0a.94.94,0,0,0,.19-.14.3.3,0,0,0,.09-.25.45.45,0,0,0-.11-.24A1.1,1.1,0,0,0,75.6,54l-.1,0a.6.6,0,0,1-.22-.18,2.55,2.55,0,0,1-.14-.24L75,53.24a.42.42,0,0,0-.18-.17.49.49,0,0,0-.2,0h-.08a.25.25,0,0,1-.12,0l-.11,0,0,0a4,4,0,0,0-.52-.2l-.11,0-.28-.08h0a.91.91,0,0,1-.3-.14.49.49,0,0,1-.14-.18.4.4,0,0,1,0-.19.46.46,0,0,1,.09-.2.55.55,0,0,1,.18-.13,1,1,0,0,1,.21-.1.76.76,0,0,1,.2-.06h0l.22-.08.08,0,.13-.06.17,0h.07l.13,0,.09,0a.61.61,0,0,1,.19,0h.27l.13,0a22.79,22.79,0,0,0-7.29-1.77v1.31a2.36,2.36,0,0,1,.75-.12"/><path class="cls-8" d="M64.46,70.3a2.44,2.44,0,0,1-1.27,1.2l.22.22a1,1,0,0,0,.37.28.61.61,0,0,0,.45,0,1.43,1.43,0,0,0,.21-.12l.17-.11.09,0a1.24,1.24,0,0,0,.3-.16.52.52,0,0,0,.11-.1l.06,0,0,0,.13-.11a2,2,0,0,0,.28-.37,1.81,1.81,0,0,0,.23-.41,1.49,1.49,0,0,0,.06-.43v0s0-.08,0-.11a2.48,2.48,0,0,1-1.26.34h-.18"/><path class="cls-8" d="M43.12,74.2l.06,0h0a.18.18,0,0,0,.09,0,.12.12,0,0,0,.09,0h0a.24.24,0,0,0,.19-.12,2.28,2.28,0,0,0,.2-.38l0-.08c.08-.16.14-.32.21-.5s.22-.59.31-.88c0-.06,0-.11,0-.16A7.07,7.07,0,0,0,44.66,71a9.1,9.1,0,0,0,.11-1.1.28.28,0,0,1,0-.09v-.22a.3.3,0,0,1,0-.1h0a.15.15,0,0,0,0-.1s0,0,0,0h0v0s0,0,0,0a.11.11,0,0,0-.09,0,.14.14,0,0,0-.1,0s0,0,0,0,0,0,0,0h0a1.09,1.09,0,0,1-.26,0h0a.46.46,0,0,1-.24-.08.4.4,0,0,1-.17-.17.53.53,0,0,1-.06-.24v-.35a1.21,1.21,0,0,0,0-.19v-.15c0-.13,0-.27,0-.4a3,3,0,0,1,.08-.53L44,67a1.87,1.87,0,0,0,.07-.22,3.28,3.28,0,0,0,.09-.52v-.09a1.37,1.37,0,0,1,0-.19,1.2,1.2,0,0,1,.06-.24,1.13,1.13,0,0,1,.08-.22l0,.2c0,.37-.11.75-.14,1.12a2.46,2.46,0,0,0,0,.26v.07a.43.43,0,0,1,0,.11s0,0,0,0a.59.59,0,0,0,0,.13v0a3.61,3.61,0,0,0-.08.64c0,.13,0,.44.21.53a.41.41,0,0,0,.29,0,1.4,1.4,0,0,0,.3-.15l.24-.17v0l.11-.08.16-.13c.11-.09.21-.2.31-.3a.93.93,0,0,0,.14-.14l.4-.36a5.89,5.89,0,0,0,.58-.54l0-.05a1.79,1.79,0,0,0,.34-.44,1.86,1.86,0,0,0,.2-.62,2.53,2.53,0,0,0,0-.28v0a3.28,3.28,0,0,0,0-.34V65l0-.25v-.39a.55.55,0,0,0,0-.26.14.14,0,0,0-.1-.07A.17.17,0,0,0,47,64l-.06.06,0,0a.68.68,0,0,1-.12.12.61.61,0,0,1-.24.15.22.22,0,0,1-.14,0,.47.47,0,0,1-.07-.12,1.57,1.57,0,0,1-.05-.3c0-.23,0-.46,0-.67a.92.92,0,0,1,0-.16.28.28,0,0,1,0-.09V63h.07a.15.15,0,0,0,.06-.05l.06-.09,0,0,.17-.26,0,0a.76.76,0,0,1,.08-.11.71.71,0,0,0,.1-.14A.83.83,0,0,0,47,62.1L47,62a3.5,3.5,0,0,0,.09.55c0,.06,0,.13,0,.2a1,1,0,0,0,.13.35,2.21,2.21,0,0,0,.2.3l.25.27,0,0a1.35,1.35,0,0,0,.28.25,2.7,2.7,0,0,0,.34.17.81.81,0,0,0,.38,0,1.24,1.24,0,0,1,.43,0,.51.51,0,0,1,.18.08.33.33,0,0,1,.12.17.79.79,0,0,1,.06.34.31.31,0,0,1,0,.1,2.33,2.33,0,0,0,.11.46,1.17,1.17,0,0,0,.21.4,1.64,1.64,0,0,0,.33.32.76.76,0,0,1,.17.13l0,0a1.14,1.14,0,0,1,.11.11.17.17,0,0,1,0,.1v0a.15.15,0,0,1,0,.07v.25c0,.17,0,.33-.06.47a1.94,1.94,0,0,0,0,.24,1.92,1.92,0,0,0,0,.22.43.43,0,0,0,0,.11l.06.35v.11c0,.12,0,.24.05.36s.07.33.1.49.07.28.09.42.08.47.11.7l0,.27c0,.21.07.43.1.65s0,.21,0,.31l0,.1.06.39a1,1,0,0,0,.06.22v0a.58.58,0,0,0,.08.18.39.39,0,0,0,.15.14.26.26,0,0,0,.21,0l.11-.08.06,0a.75.75,0,0,0,.17-.14,1.5,1.5,0,0,0,.22-.4,1.47,1.47,0,0,0,.08-.28c0-.05,0-.11,0-.16l0-.09s0-.09,0-.14v-.05a1.21,1.21,0,0,1,0-.18,1.17,1.17,0,0,1,.05-.11.36.36,0,0,0,0-.09c0-.08.06-.15.09-.22a1.8,1.8,0,0,0,.1-.46v-.22c0-.09,0-.17,0-.24a2.64,2.64,0,0,1,.12-.44,1.45,1.45,0,0,1,.26-.4l0-.06a7.33,7.33,0,0,1,.6-.65,3.38,3.38,0,0,1,.36-.27l.12-.06.28-.16a6.17,6.17,0,0,0,.46-.43l.2-.2.19-.16.16-.14a3,3,0,0,1,.34-.25h0l.09-.07a2.28,2.28,0,0,1,.3-.17.49.49,0,0,1,.2,0H57l.34,0a1.41,1.41,0,0,1,.22.06s0,0,.06,0a2.69,2.69,0,0,1-.21-.52,2.47,2.47,0,0,1,2.4-3.11H60a2.48,2.48,0,0,1,4.48,0h.18a2.48,2.48,0,0,1,2.1,3.8l0,0,0,0a1.1,1.1,0,0,0,.18-.14.7.7,0,0,1,.38-.1h.08a1.58,1.58,0,0,0,.5-.13.84.84,0,0,0,.28-.25l.08-.09.15-.15,0,0,.17-.16.24-.16h0l.24-.14.15,0a1,1,0,0,0,.16-.06l.3-.14a1.36,1.36,0,0,0,.25-.2,2.11,2.11,0,0,0,.25-.27.92.92,0,0,0,.14-.28l0,0c0-.1.08-.2.13-.3a1,1,0,0,1,.43-.51l.14-.07a.61.61,0,0,0,.14-.07.64.64,0,0,0,.24-.25,1,1,0,0,0,.09-.66V62a2.54,2.54,0,0,1,0-.29,1.4,1.4,0,0,0,0-.33l0-.17a4.37,4.37,0,0,0-.12-.52A1.32,1.32,0,0,0,71,60.1l-.24-.17h0a2.48,2.48,0,0,1-4.44-.06h-.19a2.48,2.48,0,0,1-2.15-1.25,2.42,2.42,0,0,1-.24-1.88A2.38,2.38,0,0,1,64,56a2.83,2.83,0,0,1-.34-.75,2.47,2.47,0,0,1,.25-1.88,3.46,3.46,0,0,1,.22-.31v-3.5a22.89,22.89,0,0,0-3.82.62,5.35,5.35,0,0,1-.88,1.67h1.28v1c0,2.61-.9,5.68-4.91,6.27v3.27a1.5,1.5,0,0,1-3,0V59.11A5.79,5.79,0,0,1,50,57.93l0,.1a3.94,3.94,0,0,1-.39.61,1.43,1.43,0,0,1-.26.23.28.28,0,0,1-.11,0h0s0-.09,0-.13v0a4.91,4.91,0,0,1,.06-.67V58a2.53,2.53,0,0,0,0-.73.38.38,0,0,0-.15-.28l0,0a22.94,22.94,0,0,0-6,15.52c0,.59,0,1.17.08,1.75h0l0,0"/><path class="cls-8" d="M72.2,59.51a.77.77,0,0,0,.07.16.7.7,0,0,0,.15.23.86.86,0,0,0,.52.18,1,1,0,0,0,.31,0,.77.77,0,0,0,.28-.07.48.48,0,0,0,.31-.42,2.09,2.09,0,0,0,0-.25v0a1.53,1.53,0,0,0,0-.3,1.9,1.9,0,0,0-.21-.55,2.82,2.82,0,0,0-.29-.39,2.7,2.7,0,0,1-.25.61,2.39,2.39,0,0,1-.86.87"/><path class="cls-8" d="M60.1,70.5a2.65,2.65,0,0,0,0,.59,2.24,2.24,0,0,0,.1.37l.07.25c0,.08,0,.16,0,.23s.06.27.1.39.11.27.16.4a2,2,0,0,1,.1.21c0,.09.07.19.1.28a1.92,1.92,0,0,0,.11.31,3.55,3.55,0,0,0,.23.43.64.64,0,0,1,.08.14l.12.2c.06.11.13.22.2.33a2.81,2.81,0,0,0,.38.49,1.85,1.85,0,0,1,.14.14l.32.33a2.06,2.06,0,0,0,.5.35.74.74,0,0,0,.31.09.25.25,0,0,0,.23-.13.39.39,0,0,0,0-.28,1.39,1.39,0,0,0-.12-.28h0c-.05-.09-.08-.17-.12-.26l-.16-.32-.19-.32-.14-.22a3.16,3.16,0,0,0-.35-.5,4.28,4.28,0,0,0-.42-.46,1,1,0,0,1-.2-.22,3.16,3.16,0,0,1-.18-.27c0-.08-.1-.17-.14-.27a2.24,2.24,0,0,1-.11-.34h0a2.62,2.62,0,0,1-.09-.38,2.3,2.3,0,0,1,0-.28,2.62,2.62,0,0,1-1.12-1"/></g><g class="cls-2"><path class="cls-4" d="M66,110a50,50,0,1,1,50-50A50.06,50.06,0,0,1,66,110Zm0-97a47,47,0,1,0,47,47A47,47,0,0,0,66,13Z"/></g><path class="cls-4" d="M149.75,50.24a4.26,4.26,0,0,1-1.57,3.48A6.84,6.84,0,0,1,143.7,55a10.51,10.51,0,0,1-4.64-1V50.79c.78.34,1.59.65,2.42.93a7.6,7.6,0,0,0,2.5.43,2.69,2.69,0,0,0,1.83-.5,1.61,1.61,0,0,0,.54-1.25,1.45,1.45,0,0,0-.43-1.06,4.5,4.5,0,0,0-1.13-.81c-.48-.26-1-.53-1.64-.82-.38-.18-.8-.4-1.24-.66a6.88,6.88,0,0,1-1.28-.94,4.53,4.53,0,0,1-1-1.37,4.37,4.37,0,0,1-.39-1.93,4.21,4.21,0,0,1,1.5-3.44,6.2,6.2,0,0,1,4.07-1.23,9.65,9.65,0,0,1,2.44.3,16.89,16.89,0,0,1,2.43.85L148.56,42a18.84,18.84,0,0,0-2-.72,6.64,6.64,0,0,0-1.84-.25,2.25,2.25,0,0,0-1.52.46,1.53,1.53,0,0,0-.52,1.2,1.57,1.57,0,0,0,.78,1.38,22.73,22.73,0,0,0,2.32,1.24,13.59,13.59,0,0,1,2.15,1.24,4.69,4.69,0,0,1,1.37,1.52A4.42,4.42,0,0,1,149.75,50.24Z"/><path class="cls-4" d="M164,42.24V54.79h-2.62l-.46-1.61h-.19a3.42,3.42,0,0,1-1.64,1.41,5.74,5.74,0,0,1-2.22.43,4.65,4.65,0,0,1-3.24-1.09,4.48,4.48,0,0,1-1.22-3.51V42.24h3.42v7.33a3.52,3.52,0,0,0,.49,2,1.76,1.76,0,0,0,1.54.68A2.22,2.22,0,0,0,160,51.22a6.69,6.69,0,0,0,.57-3.07V42.24Z"/><path class="cls-4" d="M176.34,51.07A3.47,3.47,0,0,1,175,54a6.62,6.62,0,0,1-4,1,12.28,12.28,0,0,1-2.25-.17,9,9,0,0,1-1.89-.56V51.46a12.82,12.82,0,0,0,2.19.76,8.46,8.46,0,0,0,2.07.3,2.56,2.56,0,0,0,1.42-.3.92.92,0,0,0,.44-.78,1,1,0,0,0-.17-.58,2.3,2.3,0,0,0-.75-.57,15.58,15.58,0,0,0-1.79-.83,12.42,12.42,0,0,1-1.95-1,3.17,3.17,0,0,1-1.11-1.2,3.7,3.7,0,0,1-.37-1.76,2.9,2.9,0,0,1,1.36-2.62,6.58,6.58,0,0,1,3.61-.87,10.1,10.1,0,0,1,2.23.23,10.27,10.27,0,0,1,2.18.75l-1,2.47c-.62-.27-1.2-.48-1.75-.66a5.36,5.36,0,0,0-1.68-.26c-1,0-1.52.27-1.52.82a.84.84,0,0,0,.2.54,2.22,2.22,0,0,0,.76.52c.37.19.93.43,1.66.74a12.1,12.1,0,0,1,1.87.91,3.51,3.51,0,0,1,1.21,1.18A3.55,3.55,0,0,1,176.34,51.07Z"/><path class="cls-4" d="M184.3,52.29a5.62,5.62,0,0,0,1.1-.11,7.88,7.88,0,0,0,1.06-.28v2.55a5.73,5.73,0,0,1-1.37.41,9,9,0,0,1-1.78.16,5.3,5.3,0,0,1-2-.36,2.93,2.93,0,0,1-1.41-1.27,5.17,5.17,0,0,1-.51-2.53v-6h-1.64V43.36l1.89-1.15,1-2.64h2.18v2.67h3.52v2.57H182.8v6a1.32,1.32,0,0,0,.42,1.07A1.57,1.57,0,0,0,184.3,52.29Z"/><path class="cls-4" d="M194.14,42a6,6,0,0,1,3.88,1.1,4.05,4.05,0,0,1,1.34,3.34v8.37H197l-.67-1.7h-.09a5.09,5.09,0,0,1-1.7,1.47,5.42,5.42,0,0,1-2.46.46,4.07,4.07,0,0,1-2.78-1,3.8,3.8,0,0,1-1.11-3,3.29,3.29,0,0,1,1.41-2.94,8.19,8.19,0,0,1,4.2-1.06L196,47v-.55a1.83,1.83,0,0,0-.52-1.45,2.11,2.11,0,0,0-1.44-.46,6,6,0,0,0-1.79.27,13.78,13.78,0,0,0-1.75.65l-1.12-2.32a10.24,10.24,0,0,1,2.23-.82A10.83,10.83,0,0,1,194.14,42ZM196,49l-1.33.05a3.72,3.72,0,0,0-2.3.6,1.82,1.82,0,0,0-.65,1.45,1.26,1.26,0,0,0,.46,1.11,2,2,0,0,0,1.2.34,2.75,2.75,0,0,0,1.86-.66A2.3,2.3,0,0,0,196,50Z"/><path class="cls-4" d="M204.61,37.31a2.36,2.36,0,0,1,1.31.36,1.85,1.85,0,0,1,0,2.63,2.54,2.54,0,0,1-2.64,0,1.87,1.87,0,0,1,0-2.63A2.38,2.38,0,0,1,204.61,37.31Zm1.7,4.93V54.79h-3.43V42.24Z"/><path class="cls-4" d="M217,42a4.65,4.65,0,0,1,3.24,1.09,4.51,4.51,0,0,1,1.22,3.51v8.18h-3.43V47.46a3.53,3.53,0,0,0-.48-2,1.77,1.77,0,0,0-1.54-.68,2.21,2.21,0,0,0-2.14,1.07,6.64,6.64,0,0,0-.58,3.07v5.91H209.9V42.24h2.62l.46,1.61h.18a3.44,3.44,0,0,1,1.65-1.41A5.7,5.7,0,0,1,217,42Z"/><path class="cls-4" d="M230.16,42a6,6,0,0,1,3.88,1.1,4.05,4.05,0,0,1,1.34,3.34v8.37H233l-.67-1.7h-.09a5.19,5.19,0,0,1-1.7,1.47,5.42,5.42,0,0,1-2.46.46,4.11,4.11,0,0,1-2.79-1,3.83,3.83,0,0,1-1.1-3,3.3,3.3,0,0,1,1.4-2.94A8.26,8.26,0,0,1,229.79,47L232,47v-.55a1.87,1.87,0,0,0-.52-1.45,2.14,2.14,0,0,0-1.44-.46,6,6,0,0,0-1.79.27,13.24,13.24,0,0,0-1.75.65l-1.13-2.32a10.64,10.64,0,0,1,2.23-.82A11,11,0,0,1,230.16,42ZM232,49l-1.34.05a3.76,3.76,0,0,0-2.3.6,1.81,1.81,0,0,0-.64,1.45,1.26,1.26,0,0,0,.46,1.11,1.93,1.93,0,0,0,1.19.34,2.76,2.76,0,0,0,1.87-.66A2.33,2.33,0,0,0,232,50Z"/><path class="cls-4" d="M242.33,37.31v4.07c0,.48,0,.95-.05,1.41s-.06.82-.09,1.08h.14a4.37,4.37,0,0,1,1.35-1.32,4.09,4.09,0,0,1,2.21-.54,4.17,4.17,0,0,1,3.43,1.64,7.67,7.67,0,0,1,1.31,4.84,7.71,7.71,0,0,1-1.33,4.88A4.29,4.29,0,0,1,245.8,55a4.08,4.08,0,0,1-2.17-.49,5,5,0,0,1-1.3-1.12h-.23l-.58,1.38H238.9V37.31Zm2.46,7.43a2.09,2.09,0,0,0-1.89.84,4.69,4.69,0,0,0-.57,2.52v.37a5.85,5.85,0,0,0,.54,2.79,2,2,0,0,0,2,1,1.88,1.88,0,0,0,1.68-1,5.21,5.21,0,0,0,.62-2.81,5,5,0,0,0-.63-2.78A2,2,0,0,0,244.79,44.74Z"/><path class="cls-4" d="M256.89,54.79h-3.43V37.31h3.43Z"/><path class="cls-4" d="M265.65,42a5.19,5.19,0,0,1,5.63,5.7v1.66h-8.09a3.26,3.26,0,0,0,.86,2.27,3,3,0,0,0,2.27.83,9.42,9.42,0,0,0,2.19-.24,10.1,10.1,0,0,0,2.06-.75v2.65a9.21,9.21,0,0,1-1.95.68,12.43,12.43,0,0,1-2.47.21,7.54,7.54,0,0,1-3.33-.7,5.22,5.22,0,0,1-2.28-2.11,7.1,7.1,0,0,1-.83-3.6,8,8,0,0,1,.75-3.66,5.07,5.07,0,0,1,2.08-2.21A6.35,6.35,0,0,1,265.65,42Zm0,2.43a2.22,2.22,0,0,0-1.65.65,3.07,3.07,0,0,0-.76,2h4.8a3.1,3.1,0,0,0-.61-1.89A2.12,2.12,0,0,0,265.67,44.44Z"/><path class="cls-4" d="M280.32,54.79V38.37h3.47V51.92h6.67v2.87Z"/><path class="cls-4" d="M294.77,37.31a2.36,2.36,0,0,1,1.31.36,1.85,1.85,0,0,1,0,2.63,2.54,2.54,0,0,1-2.64,0,1.87,1.87,0,0,1,0-2.63A2.34,2.34,0,0,1,294.77,37.31Zm1.7,4.93V54.79H293V42.24Z"/><path class="cls-4" d="M303.05,54.79l-4.79-12.55h3.59l2.41,7.15a9.57,9.57,0,0,1,.33,1.33c.07.46.13.88.16,1.24h.09a9.91,9.91,0,0,1,.51-2.57l2.41-7.15h3.59l-4.79,12.55Z"/><path class="cls-4" d="M314.87,37.31a2.36,2.36,0,0,1,1.31.36,1.85,1.85,0,0,1,0,2.63,2.54,2.54,0,0,1-2.64,0,1.87,1.87,0,0,1,0-2.63A2.38,2.38,0,0,1,314.87,37.31Zm1.7,4.93V54.79h-3.43V42.24Z"/><path class="cls-4" d="M327.29,42a4.65,4.65,0,0,1,3.24,1.09,4.51,4.51,0,0,1,1.22,3.51v8.18h-3.43V47.46a3.53,3.53,0,0,0-.48-2,1.77,1.77,0,0,0-1.54-.68,2.21,2.21,0,0,0-2.14,1.07,6.64,6.64,0,0,0-.58,3.07v5.91h-3.42V42.24h2.62l.46,1.61h.18a3.44,3.44,0,0,1,1.65-1.41A5.7,5.7,0,0,1,327.29,42Z"/><path class="cls-4" d="M339.34,42A4.19,4.19,0,0,1,343,43.85h.09l.28-1.61h2.9V54.82a5.16,5.16,0,0,1-1.59,4.09,6.86,6.86,0,0,1-4.69,1.4,17.28,17.28,0,0,1-2.47-.16,10.65,10.65,0,0,1-2.22-.57V56.84a12.56,12.56,0,0,0,4.9,1c1.76,0,2.64-1,2.64-2.86V54.7c0-.24,0-.51,0-.79s0-.53.07-.75h-.09a3.87,3.87,0,0,1-1.54,1.43,4.57,4.57,0,0,1-2,.43,4.09,4.09,0,0,1-3.49-1.71,8,8,0,0,1-1.25-4.77,7.88,7.88,0,0,1,1.29-4.81A4.18,4.18,0,0,1,339.34,42Zm1.08,2.78q-2.42,0-2.42,3.79c0,2.5.83,3.75,2.47,3.75a2.4,2.4,0,0,0,1.94-.75A4.08,4.08,0,0,0,343,49v-.41a5.2,5.2,0,0,0-.62-2.9A2.28,2.28,0,0,0,340.42,44.79Z"/><path d="M142.13,70.51a3.76,3.76,0,0,1,2.62.77,2.79,2.79,0,0,1,.83,2.13,3.39,3.39,0,0,1-.34,1.52,2.49,2.49,0,0,1-1.12,1.13,4.47,4.47,0,0,1-2.14.43h-.85v3.3h-2V70.51Zm-.1,1.61h-.9v2.76h.65a2.3,2.3,0,0,0,1.32-.33,1.2,1.2,0,0,0,.49-1.08Q143.59,72.12,142,72.12Z"/><path d="M151.34,72.57h.34l.31,0-.15,1.82a1.31,1.31,0,0,0-.27,0l-.3,0a2.59,2.59,0,0,0-1,.18,1.55,1.55,0,0,0-.73.56,1.79,1.79,0,0,0-.28,1.07v3.61h-1.94V72.7h1.47l.29,1.19h.09a2.82,2.82,0,0,1,.86-.93A2.1,2.1,0,0,1,151.34,72.57Z"/><path d="M159.67,76.23a3.76,3.76,0,0,1-.93,2.73,3.35,3.35,0,0,1-2.53,1,3.53,3.53,0,0,1-1.76-.43,3,3,0,0,1-1.21-1.25,4.15,4.15,0,0,1-.45-2,3.74,3.74,0,0,1,.93-2.72,3.36,3.36,0,0,1,2.53-.94A3.62,3.62,0,0,1,158,73a3.17,3.17,0,0,1,1.21,1.25A4.21,4.21,0,0,1,159.67,76.23Zm-4.9,0a3,3,0,0,0,.34,1.59,1.24,1.24,0,0,0,1.13.54,1.22,1.22,0,0,0,1.11-.54,3,3,0,0,0,.34-1.59,2.92,2.92,0,0,0-.34-1.58,1.45,1.45,0,0,0-2.24,0A2.92,2.92,0,0,0,154.77,76.23Z"/><path d="M163.71,79.92a2.36,2.36,0,0,1-1.93-.93,4.27,4.27,0,0,1-.74-2.73,4.33,4.33,0,0,1,.75-2.76,2.42,2.42,0,0,1,2-.93,2.5,2.5,0,0,1,1.26.29,2.41,2.41,0,0,1,.78.74h.06l-.09-.6a7,7,0,0,1-.05-.81V69.91h1.94v9.88h-1.49l-.37-.92h-.08a2.51,2.51,0,0,1-.77.75A2.31,2.31,0,0,1,163.71,79.92Zm.68-1.54a1.26,1.26,0,0,0,1.12-.48,2.76,2.76,0,0,0,.35-1.42v-.21a3.22,3.22,0,0,0-.32-1.58,1.23,1.23,0,0,0-1.18-.55,1.13,1.13,0,0,0-1,.55,2.92,2.92,0,0,0-.36,1.59,2.78,2.78,0,0,0,.36,1.57A1.19,1.19,0,0,0,164.39,78.38Z"/><path d="M176.4,72.7v7.09h-1.48l-.26-.91h-.1a2,2,0,0,1-.93.8,3.36,3.36,0,0,1-1.26.24,2.65,2.65,0,0,1-1.83-.61,2.57,2.57,0,0,1-.69-2V72.7h1.94v4.14a2,2,0,0,0,.27,1.15,1,1,0,0,0,.87.39,1.26,1.26,0,0,0,1.21-.61,3.68,3.68,0,0,0,.32-1.73V72.7Z"/><path d="M181.5,79.92a3.29,3.29,0,0,1-2.45-.87,3.79,3.79,0,0,1-.87-2.77,4.54,4.54,0,0,1,.44-2.12,2.79,2.79,0,0,1,1.23-1.2,4.06,4.06,0,0,1,1.82-.39,4.76,4.76,0,0,1,1.26.14,5,5,0,0,1,.95.34l-.58,1.49c-.3-.12-.58-.22-.85-.3a2.64,2.64,0,0,0-.78-.12c-1,0-1.51.72-1.51,2.15a2.5,2.5,0,0,0,.4,1.57,1.31,1.31,0,0,0,1.11.51,3.31,3.31,0,0,0,1.08-.16,4.52,4.52,0,0,0,.91-.45v1.65a3.19,3.19,0,0,1-.93.41A5.32,5.32,0,0,1,181.5,79.92Z"/><path d="M188.48,78.38a3.11,3.11,0,0,0,.62-.06c.2,0,.4-.1.6-.16V79.6a3.94,3.94,0,0,1-.77.23,5.34,5.34,0,0,1-1,.09,3,3,0,0,1-1.14-.21A1.55,1.55,0,0,1,186,79a2.83,2.83,0,0,1-.29-1.43V74.15h-.93v-.82l1.07-.65.56-1.49h1.23V72.7h2v1.45h-2v3.42a.73.73,0,0,0,.24.6A.87.87,0,0,0,188.48,78.38Z"/><path d="M196.28,77.69a2,2,0,0,1-.76,1.65,3.71,3.71,0,0,1-2.27.58,7.71,7.71,0,0,1-1.27-.09,6,6,0,0,1-1.07-.32v-1.6a8.45,8.45,0,0,0,1.23.43,5.07,5.07,0,0,0,1.17.17,1.48,1.48,0,0,0,.81-.17.52.52,0,0,0,.25-.45.6.6,0,0,0-.1-.32,1.21,1.21,0,0,0-.42-.32,8.92,8.92,0,0,0-1-.47,6.91,6.91,0,0,1-1.1-.57,1.83,1.83,0,0,1-.63-.67,2.28,2.28,0,0,1-.2-1,1.64,1.64,0,0,1,.76-1.48,3.71,3.71,0,0,1,2-.49,5.76,5.76,0,0,1,1.27.13,5.43,5.43,0,0,1,1.23.42l-.58,1.39c-.35-.14-.68-.27-1-.37a3.08,3.08,0,0,0-.95-.14c-.57,0-.86.15-.86.46a.49.49,0,0,0,.11.31,1.26,1.26,0,0,0,.43.29c.21.11.53.24.94.42a7,7,0,0,1,1.06.51,1.81,1.81,0,0,1,.92,1.7Z"/><path d="M204.46,72.55a3.42,3.42,0,0,1,2.19.62,2.31,2.31,0,0,1,.76,1.89v4.73h-1.36l-.37-1h-.05a3.05,3.05,0,0,1-1,.83,3,3,0,0,1-1.39.26,2.32,2.32,0,0,1-1.57-.54,2.14,2.14,0,0,1-.62-1.71,1.86,1.86,0,0,1,.79-1.66,4.67,4.67,0,0,1,2.38-.6l1.23,0v-.31a1.08,1.08,0,0,0-.29-.82,1.21,1.21,0,0,0-.81-.26,3.5,3.5,0,0,0-1,.15,7.28,7.28,0,0,0-1,.37l-.64-1.31a5.49,5.49,0,0,1,1.26-.46A5.84,5.84,0,0,1,204.46,72.55Zm1,4-.75,0a2.12,2.12,0,0,0-1.3.34,1,1,0,0,0-.37.82.75.75,0,0,0,.26.63,1.19,1.19,0,0,0,.68.19,1.56,1.56,0,0,0,1.05-.37,1.31,1.31,0,0,0,.43-1Z"/><path d="M213.62,72.57a2.65,2.65,0,0,1,1.83.61,2.54,2.54,0,0,1,.69,2v4.62h-1.93V75.65a2,2,0,0,0-.28-1.15,1,1,0,0,0-.87-.39,1.24,1.24,0,0,0-1.21.61,3.81,3.81,0,0,0-.32,1.73v3.34h-1.94V72.7h1.48l.26.9h.11a2,2,0,0,1,.93-.79A3.27,3.27,0,0,1,213.62,72.57Z"/><path d="M220.56,79.92a2.36,2.36,0,0,1-1.93-.93,4.27,4.27,0,0,1-.75-2.73,4.32,4.32,0,0,1,.76-2.76,2.41,2.41,0,0,1,2-.93,2.54,2.54,0,0,1,1.27.29,2.48,2.48,0,0,1,.77.74h.07c0-.13-.06-.34-.09-.6a5.34,5.34,0,0,1,0-.81V69.91h1.93v9.88H223l-.38-.92h-.07a2.51,2.51,0,0,1-.77.75A2.34,2.34,0,0,1,220.56,79.92Zm.68-1.54a1.26,1.26,0,0,0,1.12-.48,2.76,2.76,0,0,0,.35-1.42v-.21a3.22,3.22,0,0,0-.32-1.58,1.24,1.24,0,0,0-1.18-.55,1.13,1.13,0,0,0-1,.55,2.92,2.92,0,0,0-.36,1.59,2.78,2.78,0,0,0,.36,1.57A1.19,1.19,0,0,0,221.24,78.38Z"/><path d="M235.25,77.69a1.93,1.93,0,0,1-.76,1.65,3.69,3.69,0,0,1-2.27.58,7.71,7.71,0,0,1-1.27-.09,6.21,6.21,0,0,1-1.07-.32v-1.6a8.59,8.59,0,0,0,1.24.43,4.92,4.92,0,0,0,1.17.17,1.46,1.46,0,0,0,.8-.17.52.52,0,0,0,.25-.45.53.53,0,0,0-.1-.32,1.12,1.12,0,0,0-.42-.32,8.6,8.6,0,0,0-1-.47,6.5,6.5,0,0,1-1.1-.57,1.83,1.83,0,0,1-.63-.67,2.15,2.15,0,0,1-.21-1,1.65,1.65,0,0,1,.77-1.48,3.71,3.71,0,0,1,2-.49,5.73,5.73,0,0,1,1.26.13,5.27,5.27,0,0,1,1.23.42l-.58,1.39c-.35-.14-.68-.27-1-.37a3.08,3.08,0,0,0-.95-.14c-.57,0-.86.15-.86.46a.49.49,0,0,0,.11.31,1.37,1.37,0,0,0,.43.29c.22.11.53.24.95.42a7.36,7.36,0,0,1,1.05.51,1.81,1.81,0,0,1,.92,1.7Z"/><path d="M239.88,72.57a2.92,2.92,0,0,1,3.18,3.22v.93h-4.57A1.84,1.84,0,0,0,239,78a1.71,1.71,0,0,0,1.28.47,5.35,5.35,0,0,0,1.24-.14,5.83,5.83,0,0,0,1.16-.42v1.5a4.78,4.78,0,0,1-1.1.38,7,7,0,0,1-1.39.12,4.37,4.37,0,0,1-1.89-.39,3,3,0,0,1-1.29-1.2,4,4,0,0,1-.46-2,4.54,4.54,0,0,1,.42-2.07A2.84,2.84,0,0,1,238.12,73,3.58,3.58,0,0,1,239.88,72.57Zm0,1.37a1.23,1.23,0,0,0-.93.37,1.7,1.7,0,0,0-.43,1.13h2.71a1.71,1.71,0,0,0-.34-1.07A1.22,1.22,0,0,0,239.89,73.94Z"/><path d="M248.8,72.57h.34l.31,0-.15,1.82a1.31,1.31,0,0,0-.27,0l-.3,0a2.59,2.59,0,0,0-.95.18,1.55,1.55,0,0,0-.73.56,1.79,1.79,0,0,0-.28,1.07v3.61h-1.94V72.7h1.47l.29,1.19h.09a2.82,2.82,0,0,1,.86-.93A2.1,2.1,0,0,1,248.8,72.57Z"/><path d="M252.62,79.79l-2.7-7.09h2l1.37,4a4.56,4.56,0,0,1,.18.75c0,.26.07.5.09.7h0a5.65,5.65,0,0,1,.29-1.45l1.37-4h2l-2.7,7.09Z"/><path d="M259.5,69.91a1.39,1.39,0,0,1,.74.2.83.83,0,0,1,.31.75.81.81,0,0,1-.31.74,1.31,1.31,0,0,1-.74.21,1.28,1.28,0,0,1-.75-.21.84.84,0,0,1-.31-.74.86.86,0,0,1,.31-.75A1.35,1.35,0,0,1,259.5,69.91Zm1,2.79v7.09h-1.94V72.7Z"/><path d="M265.57,79.92a3.29,3.29,0,0,1-2.45-.87,3.79,3.79,0,0,1-.87-2.77,4.54,4.54,0,0,1,.44-2.12,2.79,2.79,0,0,1,1.23-1.2,4.06,4.06,0,0,1,1.82-.39,4.76,4.76,0,0,1,1.26.14,5,5,0,0,1,.95.34l-.58,1.49c-.3-.12-.58-.22-.85-.3a2.64,2.64,0,0,0-.78-.12c-1,0-1.51.72-1.51,2.15a2.57,2.57,0,0,0,.39,1.57,1.35,1.35,0,0,0,1.12.51,3.31,3.31,0,0,0,1.08-.16,4.21,4.21,0,0,0,.9-.45v1.65a3,3,0,0,1-.92.41A5.32,5.32,0,0,1,265.57,79.92Z"/><path d="M272.48,72.57a2.93,2.93,0,0,1,3.19,3.22v.93h-4.58a1.84,1.84,0,0,0,.49,1.29,1.72,1.72,0,0,0,1.28.47,5.35,5.35,0,0,0,1.24-.14,5.61,5.61,0,0,0,1.16-.42v1.5a4.78,4.78,0,0,1-1.1.38,6.84,6.84,0,0,1-1.39.12,4.37,4.37,0,0,1-1.89-.39,3,3,0,0,1-1.28-1.2,4,4,0,0,1-.47-2,4.54,4.54,0,0,1,.42-2.07A2.86,2.86,0,0,1,270.73,73,3.54,3.54,0,0,1,272.48,72.57Zm0,1.37a1.24,1.24,0,0,0-.94.37,1.75,1.75,0,0,0-.43,1.13h2.72a1.78,1.78,0,0,0-.35-1.07A1.2,1.2,0,0,0,272.5,73.94Z"/><path d="M282.39,77.69a1.93,1.93,0,0,1-.76,1.65,3.69,3.69,0,0,1-2.27.58,7.71,7.71,0,0,1-1.27-.09,6.21,6.21,0,0,1-1.07-.32v-1.6a8.45,8.45,0,0,0,1.23.43,5.07,5.07,0,0,0,1.17.17,1.48,1.48,0,0,0,.81-.17.52.52,0,0,0,.25-.45.53.53,0,0,0-.1-.32,1.21,1.21,0,0,0-.42-.32,8.92,8.92,0,0,0-1-.47,6.36,6.36,0,0,1-1.09-.57,1.78,1.78,0,0,1-.64-.67,2.28,2.28,0,0,1-.2-1,1.64,1.64,0,0,1,.76-1.48,3.76,3.76,0,0,1,2-.49,5.76,5.76,0,0,1,1.27.13,5.43,5.43,0,0,1,1.23.42l-.58,1.39c-.35-.14-.68-.27-1-.37a3.08,3.08,0,0,0-.95-.14c-.57,0-.86.15-.86.46a.49.49,0,0,0,.11.31,1.37,1.37,0,0,0,.43.29c.21.11.53.24.94.42a7,7,0,0,1,1.06.51,1.81,1.81,0,0,1,.92,1.7Z"/><path d="M291.58,74.15H289.9v5.64H288V74.15H286.9v-.94L288,72.7v-.53a2.79,2.79,0,0,1,.3-1.41,1.63,1.63,0,0,1,.87-.7,3.83,3.83,0,0,1,1.33-.21,5.41,5.41,0,0,1,1,.09,4.24,4.24,0,0,1,.76.21l-.5,1.41-.49-.12a2.61,2.61,0,0,0-.59-.06.68.68,0,0,0-.59.25,1,1,0,0,0-.19.62v.45h1.68Z"/><path d="M299.33,76.23A3.76,3.76,0,0,1,298.4,79a3.35,3.35,0,0,1-2.53,1,3.5,3.5,0,0,1-1.76-.43,3,3,0,0,1-1.22-1.25,4.26,4.26,0,0,1-.44-2,3.78,3.78,0,0,1,.92-2.72,3.39,3.39,0,0,1,2.54-.94,3.62,3.62,0,0,1,1.77.42,3.17,3.17,0,0,1,1.21,1.25A4.21,4.21,0,0,1,299.33,76.23Zm-4.9,0a3,3,0,0,0,.34,1.59,1.24,1.24,0,0,0,1.13.54,1.22,1.22,0,0,0,1.11-.54,3,3,0,0,0,.34-1.59,2.92,2.92,0,0,0-.34-1.58,1.26,1.26,0,0,0-1.13-.53,1.23,1.23,0,0,0-1.11.53A2.92,2.92,0,0,0,294.43,76.23Z"/><path d="M305.09,72.57h.33a2.13,2.13,0,0,1,.32,0l-.15,1.82a1.46,1.46,0,0,0-.27,0l-.3,0a2.59,2.59,0,0,0-.95.18,1.51,1.51,0,0,0-.73.56,1.79,1.79,0,0,0-.28,1.07v3.61h-1.94V72.7h1.47l.29,1.19H303a2.82,2.82,0,0,1,.86-.93A2.1,2.1,0,0,1,305.09,72.57Z"/><path d="M315.72,77.69a1.93,1.93,0,0,1-.76,1.65,3.69,3.69,0,0,1-2.27.58,7.71,7.71,0,0,1-1.27-.09,6.21,6.21,0,0,1-1.07-.32v-1.6a8.19,8.19,0,0,0,1.24.43,4.92,4.92,0,0,0,1.17.17,1.46,1.46,0,0,0,.8-.17.52.52,0,0,0,.25-.45.53.53,0,0,0-.1-.32,1.12,1.12,0,0,0-.42-.32,8.6,8.6,0,0,0-1-.47,6.5,6.5,0,0,1-1.1-.57,1.83,1.83,0,0,1-.63-.67,2.15,2.15,0,0,1-.21-1,1.63,1.63,0,0,1,.77-1.48,3.71,3.71,0,0,1,2-.49,5.73,5.73,0,0,1,1.26.13,5.27,5.27,0,0,1,1.23.42l-.58,1.39c-.35-.14-.68-.27-1-.37a3.08,3.08,0,0,0-.95-.14c-.57,0-.86.15-.86.46a.49.49,0,0,0,.11.31,1.37,1.37,0,0,0,.43.29c.21.11.53.24.95.42a7.36,7.36,0,0,1,1.05.51,1.81,1.81,0,0,1,.92,1.7Z"/><path d="M323.92,72.7v7.09h-1.48l-.26-.91h-.1a2,2,0,0,1-.93.8,3.32,3.32,0,0,1-1.26.24,2.65,2.65,0,0,1-1.83-.61,2.57,2.57,0,0,1-.69-2V72.7h1.94v4.14a2,2,0,0,0,.27,1.15,1,1,0,0,0,.87.39,1.26,1.26,0,0,0,1.21-.61A3.66,3.66,0,0,0,322,76V72.7Z"/><path d="M331.1,77.69a1.93,1.93,0,0,1-.76,1.65,3.69,3.69,0,0,1-2.27.58,7.71,7.71,0,0,1-1.27-.09,6.21,6.21,0,0,1-1.07-.32v-1.6a8.19,8.19,0,0,0,1.24.43,4.92,4.92,0,0,0,1.17.17,1.46,1.46,0,0,0,.8-.17.52.52,0,0,0,.25-.45.53.53,0,0,0-.1-.32,1.12,1.12,0,0,0-.42-.32,9.47,9.47,0,0,0-1-.47,6.14,6.14,0,0,1-1.1-.57,1.67,1.67,0,0,1-.63-.67,2.15,2.15,0,0,1-.21-1,1.64,1.64,0,0,1,.76-1.48,3.77,3.77,0,0,1,2-.49,5.73,5.73,0,0,1,1.26.13,5.27,5.27,0,0,1,1.23.42l-.58,1.39c-.35-.14-.68-.27-1-.37a3.08,3.08,0,0,0-.95-.14c-.57,0-.86.15-.86.46a.49.49,0,0,0,.11.31,1.37,1.37,0,0,0,.43.29c.21.11.53.24.94.42a7,7,0,0,1,1.06.51,1.81,1.81,0,0,1,.92,1.7Z"/><path d="M335.78,78.38a3.11,3.11,0,0,0,.62-.06c.2,0,.4-.1.6-.16V79.6a3.74,3.74,0,0,1-.77.23,5.34,5.34,0,0,1-1,.09,3,3,0,0,1-1.14-.21,1.59,1.59,0,0,1-.79-.71,2.83,2.83,0,0,1-.29-1.43V74.15h-.93v-.82l1.07-.65.56-1.49h1.23V72.7h2v1.45h-2v3.42a.73.73,0,0,0,.24.6A.87.87,0,0,0,335.78,78.38Z"/><path d="M341.54,72.55a3.42,3.42,0,0,1,2.19.62,2.28,2.28,0,0,1,.76,1.89v4.73h-1.35l-.38-1h-.05a2.57,2.57,0,0,1-2.35,1.09,2.33,2.33,0,0,1-1.58-.54,2.18,2.18,0,0,1-.62-1.71A1.86,1.86,0,0,1,339,76a4.67,4.67,0,0,1,2.38-.6l1.24,0v-.31a1,1,0,0,0-.3-.82,1.18,1.18,0,0,0-.81-.26,3.43,3.43,0,0,0-1,.15,8,8,0,0,0-1,.37l-.64-1.31a5.49,5.49,0,0,1,1.26-.46A5.9,5.9,0,0,1,341.54,72.55Zm1,4-.76,0a2.14,2.14,0,0,0-1.3.34,1,1,0,0,0-.36.82.72.72,0,0,0,.26.63,1.15,1.15,0,0,0,.67.19,1.61,1.61,0,0,0,1.06-.37,1.34,1.34,0,0,0,.43-1Z"/><path d="M347.65,69.91a1.39,1.39,0,0,1,.74.2.83.83,0,0,1,.31.75.81.81,0,0,1-.31.74,1.31,1.31,0,0,1-.74.21,1.28,1.28,0,0,1-.75-.21.84.84,0,0,1-.31-.74.86.86,0,0,1,.31-.75A1.35,1.35,0,0,1,347.65,69.91Zm1,2.79v7.09h-1.94V72.7Z"/><path d="M354.86,72.57a2.65,2.65,0,0,1,1.84.61,2.54,2.54,0,0,1,.69,2v4.62h-1.94V75.65a2,2,0,0,0-.27-1.15,1,1,0,0,0-.88-.39,1.22,1.22,0,0,0-1.2.61,3.66,3.66,0,0,0-.33,1.73v3.34h-1.94V72.7h1.49l.26.9h.1a2,2,0,0,1,.93-.79A3.27,3.27,0,0,1,354.86,72.57Z"/><path d="M362.47,72.55a3.42,3.42,0,0,1,2.19.62,2.28,2.28,0,0,1,.76,1.89v4.73h-1.35l-.38-1h-.05a3.14,3.14,0,0,1-1,.83,3,3,0,0,1-1.39.26,2.33,2.33,0,0,1-1.58-.54,2.18,2.18,0,0,1-.62-1.71,1.86,1.86,0,0,1,.79-1.66,4.67,4.67,0,0,1,2.38-.6l1.24,0v-.31a1,1,0,0,0-.3-.82,1.18,1.18,0,0,0-.81-.26,3.43,3.43,0,0,0-1,.15,8,8,0,0,0-1,.37l-.64-1.31a5.49,5.49,0,0,1,1.26-.46A5.84,5.84,0,0,1,362.47,72.55Zm1,4-.76,0a2.14,2.14,0,0,0-1.3.34,1,1,0,0,0-.36.82.72.72,0,0,0,.26.63,1.15,1.15,0,0,0,.67.19,1.61,1.61,0,0,0,1.06-.37,1.34,1.34,0,0,0,.43-1Z"/><path d="M369.54,69.91v2.3c0,.27,0,.54,0,.8s0,.46-.05.61h.08a2.4,2.4,0,0,1,.77-.75,2.3,2.3,0,0,1,1.24-.3,2.37,2.37,0,0,1,1.94.92,4.3,4.3,0,0,1,.74,2.74,4.36,4.36,0,0,1-.75,2.76,2.42,2.42,0,0,1-2,.93,2.29,2.29,0,0,1-1.23-.28,2.82,2.82,0,0,1-.73-.63h-.13l-.33.78H367.6V69.91Zm1.39,4.2a1.16,1.16,0,0,0-1.06.48,2.65,2.65,0,0,0-.33,1.42v.21a3.25,3.25,0,0,0,.31,1.58,1.14,1.14,0,0,0,1.11.55,1.08,1.08,0,0,0,1-.55,3,3,0,0,0,.35-1.59,2.78,2.78,0,0,0-.36-1.57A1.12,1.12,0,0,0,370.93,74.11Z"/><path d="M377,69.91a1.36,1.36,0,0,1,.74.2.83.83,0,0,1,.31.75.81.81,0,0,1-.31.74,1.43,1.43,0,0,1-1.49,0,.83.83,0,0,1-.3-.74.85.85,0,0,1,.3-.75A1.37,1.37,0,0,1,377,69.91Zm1,2.79v7.09H376V72.7Z"/><path d="M382.11,79.79h-1.94V69.91h1.94Z"/><path d="M385.31,69.91a1.39,1.39,0,0,1,.74.2.83.83,0,0,1,.31.75.81.81,0,0,1-.31.74,1.31,1.31,0,0,1-.74.21,1.28,1.28,0,0,1-.75-.21.84.84,0,0,1-.31-.74.86.86,0,0,1,.31-.75A1.35,1.35,0,0,1,385.31,69.91Zm1,2.79v7.09h-1.94V72.7Z"/><path d="M391.47,78.38a3,3,0,0,0,.62-.06c.2,0,.4-.1.6-.16V79.6a3.74,3.74,0,0,1-.77.23,5.27,5.27,0,0,1-1,.09,3,3,0,0,1-1.14-.21A1.59,1.59,0,0,1,389,79a2.94,2.94,0,0,1-.29-1.43V74.15h-.92v-.82l1.06-.65.56-1.49h1.24V72.7h2v1.45h-2v3.42a.72.72,0,0,0,.23.6A.89.89,0,0,0,391.47,78.38Z"/><path d="M393.3,72.7h2.12l1.34,4a4.31,4.31,0,0,1,.16.59c0,.2.06.42.08.64h0a6.12,6.12,0,0,1,.1-.64,4.36,4.36,0,0,1,.17-.59l1.31-4h2.08l-3,8a3.45,3.45,0,0,1-1.19,1.66,2.94,2.94,0,0,1-1.78.55,4.67,4.67,0,0,1-.57,0l-.41-.07V81.28l.33,0,.43,0a1.24,1.24,0,0,0,1-.37,2.29,2.29,0,0,0,.54-.89l.11-.35Z"/></svg>