<svg id="Layer_1" data-name="Layer 1" xmlns="http://www.w3.org/2000/svg" xmlns:xlink="http://www.w3.org/1999/xlink" viewBox="0 0 450 120"><defs><style>.cls-1{fill:none;}.cls-2{clip-path:url(#clip-path);}.cls-3{fill:#e5f5f4;}.cls-4{fill:#fff;}.cls-5{clip-path:url(#clip-path-2);}.cls-6{fill:#039690;}.cls-7{fill:#3d1152;}.cls-8{clip-path:url(#clip-path-3);}.cls-9{fill:#f8b618;}.cls-10{fill:#ec7123;}.cls-11{fill:#25b7e9;}.cls-12{fill:#174886;}.cls-13{fill:#95bb3d;}.cls-14{fill:#7d629a;}.cls-15{fill:#4a266c;}.cls-16{fill:#0156a3;}.cls-17{fill:#d41a67;}.cls-18{fill:#009690;}</style><clipPath id="clip-path"><rect class="cls-1" width="450" height="120"/></clipPath><clipPath id="clip-path-2"><path class="cls-1" d="M17.5,60A48.5,48.5,0,1,0,66,11.5,48.5,48.5,0,0,0,17.5,60"/></clipPath><clipPath id="clip-path-3"><path class="cls-1" d="M27.7,30.24a48.51,48.51,0,0,0,3.48,63.52h61.9V30.24Z"/></clipPath></defs><g class="cls-2"><path class="cls-3" d="M66,14h0v92H396a45,45,0,0,0,45-45V59a45,45,0,0,0-45-45Z"/><path class="cls-4" d="M66,108.5A48.5,48.5,0,1,0,17.5,60,48.49,48.49,0,0,0,66,108.5"/></g><g class="cls-5"><path class="cls-6" d="M59.63,83.75a3.91,3.91,0,1,1-3.9-3.91,3.9,3.9,0,0,1,3.9,3.91"/><path class="cls-7" d="M78.08,83.75a3.91,3.91,0,1,1-3.91-3.91,3.91,3.91,0,0,1,3.91,3.91"/><path class="cls-6" d="M80.94,70l3.13-17a2.23,2.23,0,0,0-2.23-2.23H46.31A2.23,2.23,0,0,0,44.08,53l3.35,18.19a2.24,2.24,0,0,0,2.24,2.24h23.4A12.21,12.21,0,0,1,80.94,70m-25.24-.2a1.87,1.87,0,0,1-1.88-1.89l0-2.62a1.89,1.89,0,0,1,3.78,0l0,2.62a1.88,1.88,0,0,1-1.89,1.88m8.35,0a1.88,1.88,0,0,1-1.88-1.89l0-7.42a1.89,1.89,0,1,1,3.77,0l0,7.42a1.89,1.89,0,0,1-1.9,1.88m8.14,0a1.87,1.87,0,0,1-1.88-1.89l0-11.62a1.89,1.89,0,0,1,3.78,0l0,11.62a1.88,1.88,0,0,1-1.89,1.88"/></g><g class="cls-8"><path class="cls-6" d="M70.11,77.92H51.75l-7-34.62a1.52,1.52,0,0,0-1.49-1.22h-8a1.53,1.53,0,1,0,0,3.05H42l7,34.61A1.53,1.53,0,0,0,50.5,81H69.39c0-.09,0-.18,0-.26a12.73,12.73,0,0,1,.7-2.78"/><path class="cls-9" d="M93,83.76a11.48,11.48,0,1,1-9.91-12.87A11.48,11.48,0,0,1,93,83.76"/></g><g class="cls-5"><path class="cls-10" d="M85.7,85c0-3.78-5.94-3.49-5.94-5.62,0-.68.62-1.27,1.88-1.27a6.21,6.21,0,0,1,2.5.49.54.54,0,0,0,.76-.5V77a.54.54,0,0,0-.35-.51,6,6,0,0,0-1.78-.38.55.55,0,0,1-.49-.55V75a.55.55,0,0,0-.55-.54h-.27a.54.54,0,0,0-.55.54v.67a.55.55,0,0,1-.44.54,3.9,3.9,0,0,0-2,1,3.11,3.11,0,0,0-.94,2.29c0,3.54,5.93,3.65,5.93,5.59,0,.69-.86,1.22-1.82,1.22a8.2,8.2,0,0,1-3.34-.65.54.54,0,0,0-.77.5v1.07a.53.53,0,0,0,.32.5,8,8,0,0,0,2.58.61.56.56,0,0,1,.52.55v.73a.55.55,0,0,0,.55.55h.27a.55.55,0,0,0,.55-.55v-.86a.54.54,0,0,1,.45-.53,4,4,0,0,0,2.06-1A3,3,0,0,0,85.7,85"/><path class="cls-11" d="M46.24,43a6.69,6.69,0,1,0,6.69-6.69A6.69,6.69,0,0,0,46.24,43"/><path class="cls-12" d="M56.21,39.48a3.16,3.16,0,0,0-.79-.46,15,15,0,0,0-1.74,1.45l-.19-.12c-.36-.24-.53.26-.58.42s.07.16.18.23l-.74.67-2.16-1.24a1.78,1.78,0,0,0-1.78-.1,1.77,1.77,0,0,0,1,1.5l2.16,1.24s-.1.41-.21,1c-.12,0-.24-.09-.29,0s-.47.52-.08.72l.2.1a15.76,15.76,0,0,0-.38,2.22,3.15,3.15,0,0,0,.8.46l1.65-3.38a14.05,14.05,0,0,0,2.14.94,10.68,10.68,0,0,1,.16,1.27l.74.47.48-1.67L58,43.89l-.78-.41A11,11,0,0,1,56,44a12.69,12.69,0,0,0-1.88-1.38Z"/><path class="cls-13" d="M59.22,36.93a6.69,6.69,0,1,0,6.69-6.69,6.7,6.7,0,0,0-6.69,6.69"/><polygon class="cls-14" points="65.97 32.68 62.54 36.06 62.54 40.42 69.38 40.42 69.38 36.06 65.97 32.68"/><rect class="cls-15" x="64.98" y="37.58" width="1.98" height="2.84"/><rect class="cls-14" x="67.88" y="32.68" width="1.07" height="1.97"/><path class="cls-15" d="M61.84,36.82l-.67-.71,4.47-4.19a.49.49,0,0,1,.67,0l4.35,4.15-.68.71L66,33Z"/><path class="cls-16" d="M72.21,43a6.69,6.69,0,1,0,6.69-6.69A6.7,6.7,0,0,0,72.21,43"/><path class="cls-17" d="M80.3,40.11a2.09,2.09,0,0,0-.67.11,2.39,2.39,0,0,1-1.45,0,2.19,2.19,0,0,0-.67-.11,2.82,2.82,0,0,0-2.55,3c0,1.67,1.56,4,3.14,4a1.28,1.28,0,0,0,.8-.26,1.3,1.3,0,0,0,.8.26c1.58,0,3.14-2.38,3.14-4a2.82,2.82,0,0,0-2.54-3"/><path class="cls-17" d="M77.31,39h0a.18.18,0,0,0,.17.18,1.41,1.41,0,0,1,1.23,1.2.18.18,0,0,0,.18.17.19.19,0,0,0,.19-.21,1.77,1.77,0,0,0-1.56-1.53.19.19,0,0,0-.21.19"/><path class="cls-13" d="M79.77,38.85a1.55,1.55,0,0,0-.87,1.33,1.55,1.55,0,0,0,1.54.42A3.75,3.75,0,0,0,81.91,39a3.8,3.8,0,0,0-2.14-.19"/></g><g class="cls-2"><path class="cls-18" d="M66,110a50,50,0,1,1,50-50A50.06,50.06,0,0,1,66,110Zm0-97a47,47,0,1,0,47,47A47,47,0,0,0,66,13Z"/><path class="cls-18" d="M66,116A56,56,0,0,1,66,4V5a55,55,0,1,0,55,55h1A56.06,56.06,0,0,1,66,116Z"/></g><path class="cls-18" d="M143.5,47.29h-3.43V30.87h9.41v2.85h-6V38h5.56v2.85H143.5Z"/><path class="cls-18" d="M163.94,34.74V47.29h-2.62l-.46-1.61h-.18A3.44,3.44,0,0,1,159,47.09a5.67,5.67,0,0,1-2.22.43,4.65,4.65,0,0,1-3.24-1.09,4.51,4.51,0,0,1-1.22-3.51V34.74h3.43v7.33a3.53,3.53,0,0,0,.48,2,1.77,1.77,0,0,0,1.54.68,2.2,2.2,0,0,0,2.14-1.07,6.55,6.55,0,0,0,.58-3.07V34.74Z"/><path class="cls-18" d="M172.82,44.79a5.72,5.72,0,0,0,1.11-.11,8.16,8.16,0,0,0,1-.28V47a5.64,5.64,0,0,1-1.36.41,9.1,9.1,0,0,1-1.79.16,5.3,5.3,0,0,1-2-.36,2.87,2.87,0,0,1-1.4-1.27,5.05,5.05,0,0,1-.52-2.53v-6h-1.63V35.86l1.88-1.15,1-2.64h2.19v2.67h3.52v2.57h-3.52v6a1.32,1.32,0,0,0,.41,1.07A1.6,1.6,0,0,0,172.82,44.79Z"/><path class="cls-18" d="M189,34.74V47.29h-2.63L186,45.68h-.18a3.46,3.46,0,0,1-1.64,1.41,5.74,5.74,0,0,1-2.22.43,4.7,4.7,0,0,1-3.25-1.09,4.51,4.51,0,0,1-1.22-3.51V34.74h3.43v7.33a3.53,3.53,0,0,0,.48,2,1.79,1.79,0,0,0,1.55.68A2.2,2.2,0,0,0,185,43.72a6.55,6.55,0,0,0,.58-3.07V34.74Z"/><path class="cls-18" d="M199.64,34.51c.17,0,.37,0,.6,0a3.24,3.24,0,0,1,.55.07l-.25,3.22a3.85,3.85,0,0,0-.49-.08,3.49,3.49,0,0,0-.53,0,4.71,4.71,0,0,0-1.67.31,2.81,2.81,0,0,0-1.3,1,3.19,3.19,0,0,0-.5,1.89v6.39h-3.43V34.74h2.6l.51,2.11h.16a5.18,5.18,0,0,1,1.52-1.65A3.74,3.74,0,0,1,199.64,34.51Z"/><path class="cls-18" d="M207.78,34.51a5.2,5.2,0,0,1,5.64,5.7v1.66h-8.1a3.26,3.26,0,0,0,.86,2.27,3.06,3.06,0,0,0,2.27.83,9.45,9.45,0,0,0,2.2-.24,10.24,10.24,0,0,0,2-.75v2.65a9.21,9.21,0,0,1-1.95.68,12.39,12.39,0,0,1-2.46.21,7.56,7.56,0,0,1-3.34-.7,5.25,5.25,0,0,1-2.27-2.11,7,7,0,0,1-.83-3.6,8,8,0,0,1,.75-3.66,5,5,0,0,1,2.08-2.21A6.31,6.31,0,0,1,207.78,34.51Zm0,2.43a2.24,2.24,0,0,0-1.65.65,3.12,3.12,0,0,0-.76,2h4.81a3.16,3.16,0,0,0-.61-1.89A2.14,2.14,0,0,0,207.8,36.94Z"/><path class="cls-18" d="M233.59,41a6.64,6.64,0,0,1-1.65,4.83,5.89,5.89,0,0,1-4.47,1.7,6.27,6.27,0,0,1-3.12-.76,5.3,5.3,0,0,1-2.15-2.22,7.42,7.42,0,0,1-.78-3.55,6.62,6.62,0,0,1,1.63-4.81,6,6,0,0,1,4.49-1.67,6.38,6.38,0,0,1,3.13.75,5.47,5.47,0,0,1,2.13,2.21A7.24,7.24,0,0,1,233.59,41Zm-8.67,0a5.27,5.27,0,0,0,.61,2.82,2.16,2.16,0,0,0,2,.95,2.13,2.13,0,0,0,2-.95,5.27,5.27,0,0,0,.61-2.82,5.11,5.11,0,0,0-.61-2.79,2.19,2.19,0,0,0-2-.93,2.16,2.16,0,0,0-2,.93A5.11,5.11,0,0,0,224.92,41Z"/><path class="cls-18" d="M243.36,37.31h-3v10H237v-10h-1.89V35.66l1.89-.92v-.92a4.81,4.81,0,0,1,.54-2.5,2.89,2.89,0,0,1,1.54-1.25,6.72,6.72,0,0,1,2.36-.37,9.24,9.24,0,0,1,1.81.16,7.29,7.29,0,0,1,1.34.37l-.88,2.5c-.26-.07-.54-.15-.86-.21a4.74,4.74,0,0,0-1-.11,1.24,1.24,0,0,0-1.05.44,1.78,1.78,0,0,0-.33,1.1v.79h3Z"/><path class="cls-18" d="M258.54,33.54A3.54,3.54,0,0,0,255.48,35a7.05,7.05,0,0,0-1.06,4.1,7.19,7.19,0,0,0,1,4.06,3.52,3.52,0,0,0,3.14,1.44,9.16,9.16,0,0,0,2-.23,20.07,20.07,0,0,0,2.19-.65v2.92a12.13,12.13,0,0,1-2.14.65,13.18,13.18,0,0,1-2.37.2,7.72,7.72,0,0,1-4.19-1,6.24,6.24,0,0,1-2.41-2.95,11.55,11.55,0,0,1-.78-4.42,10.38,10.38,0,0,1,.89-4.4,7,7,0,0,1,2.61-3,7.76,7.76,0,0,1,4.2-1.08A10.35,10.35,0,0,1,261,31a13.49,13.49,0,0,1,2.36.84l-1.13,2.83a19.46,19.46,0,0,0-1.85-.76A5.69,5.69,0,0,0,258.54,33.54Z"/><path class="cls-18" d="M277.36,41a6.64,6.64,0,0,1-1.65,4.83,5.92,5.92,0,0,1-4.47,1.7,6.27,6.27,0,0,1-3.12-.76A5.3,5.3,0,0,1,266,44.54a7.42,7.42,0,0,1-.78-3.55,6.62,6.62,0,0,1,1.63-4.81,6,6,0,0,1,4.49-1.67,6.32,6.32,0,0,1,3.12.75,5.43,5.43,0,0,1,2.14,2.21A7.35,7.35,0,0,1,277.36,41Zm-8.68,0a5.37,5.37,0,0,0,.61,2.82,2.18,2.18,0,0,0,2,.95,2.15,2.15,0,0,0,2-.95,5.27,5.27,0,0,0,.61-2.82,5.11,5.11,0,0,0-.61-2.79,2.57,2.57,0,0,0-4,0A5.2,5.2,0,0,0,268.68,41Z"/><path class="cls-18" d="M287.31,34.51a4.7,4.7,0,0,1,3.25,1.09,4.51,4.51,0,0,1,1.22,3.51v8.18h-3.43V40a3.53,3.53,0,0,0-.48-2,1.79,1.79,0,0,0-1.55-.68,2.2,2.2,0,0,0-2.13,1.07,6.52,6.52,0,0,0-.58,3.07v5.91h-3.43V34.74h2.63l.46,1.61h.18a3.46,3.46,0,0,1,1.64-1.41A5.74,5.74,0,0,1,287.31,34.51Z"/><path class="cls-18" d="M304.06,43.57a3.46,3.46,0,0,1-1.35,2.93,6.56,6.56,0,0,1-4,1,12.2,12.2,0,0,1-2.25-.17,9,9,0,0,1-1.89-.56V44a12.7,12.7,0,0,0,2.18.76,8.59,8.59,0,0,0,2.07.3,2.6,2.6,0,0,0,1.43-.3.92.92,0,0,0,.44-.78,1,1,0,0,0-.18-.58,2.13,2.13,0,0,0-.74-.57A15.91,15.91,0,0,0,298,42,12.73,12.73,0,0,1,296,41a3.28,3.28,0,0,1-1.12-1.2,3.83,3.83,0,0,1-.36-1.76,2.92,2.92,0,0,1,1.35-2.62,6.63,6.63,0,0,1,3.61-.87,10.13,10.13,0,0,1,2.24.23,10.27,10.27,0,0,1,2.18.75l-1,2.47a18.35,18.35,0,0,0-1.74-.66,5.4,5.4,0,0,0-1.68-.26c-1,0-1.52.27-1.52.82a.79.79,0,0,0,.2.54,2.26,2.26,0,0,0,.75.52c.38.19.94.43,1.67.74a12.42,12.42,0,0,1,1.86.91,3.35,3.35,0,0,1,1.21,1.18A3.45,3.45,0,0,1,304.06,43.57Z"/><path class="cls-18" d="M318.25,34.74V47.29h-2.62l-.46-1.61H315a3.42,3.42,0,0,1-1.64,1.41,5.74,5.74,0,0,1-2.22.43,4.65,4.65,0,0,1-3.24-1.09,4.48,4.48,0,0,1-1.22-3.51V34.74h3.42v7.33a3.52,3.52,0,0,0,.49,2,1.76,1.76,0,0,0,1.54.68,2.22,2.22,0,0,0,2.14-1.07,6.69,6.69,0,0,0,.57-3.07V34.74Z"/><path class="cls-18" d="M336.58,34.51a4.37,4.37,0,0,1,3.23,1.09,4.81,4.81,0,0,1,1.09,3.51v8.18h-3.42V40c0-1.81-.63-2.72-1.89-2.72a2.06,2.06,0,0,0-1.93,1,5.51,5.51,0,0,0-.58,2.78v6.3h-3.42V40c0-1.81-.63-2.72-1.89-2.72a2,2,0,0,0-2,1.07,7,7,0,0,0-.54,3.07v5.91h-3.42V34.74h2.62l.46,1.61h.18a3.37,3.37,0,0,1,1.58-1.41,5.17,5.17,0,0,1,2.08-.43,5.41,5.41,0,0,1,2.33.44,3.3,3.3,0,0,1,1.49,1.4h.3a3.28,3.28,0,0,1,1.6-1.41A5.3,5.3,0,0,1,336.58,34.51Z"/><path class="cls-18" d="M351.42,34.51a4.14,4.14,0,0,1,3.42,1.64A7.61,7.61,0,0,1,356.15,41a7.59,7.59,0,0,1-1.35,4.88,4.32,4.32,0,0,1-3.48,1.65,4.11,4.11,0,0,1-2.16-.49,5,5,0,0,1-1.31-1.12h-.18a10.13,10.13,0,0,1,.18,1.84v5.06h-3.43V34.74h2.79l.48,1.63h.16a4.61,4.61,0,0,1,1.36-1.31A4,4,0,0,1,351.42,34.51Zm-1.11,2.73a2.09,2.09,0,0,0-1.89.84,4.89,4.89,0,0,0-.57,2.52V41a5.85,5.85,0,0,0,.54,2.79,2,2,0,0,0,2,1,1.84,1.84,0,0,0,1.73-1,5.65,5.65,0,0,0,.57-2.81Q352.66,37.24,350.31,37.24Z"/><path class="cls-18" d="M364.27,44.79a5.8,5.8,0,0,0,1.11-.11,8.16,8.16,0,0,0,1.05-.28V47a5.64,5.64,0,0,1-1.36.41,9.1,9.1,0,0,1-1.79.16,5.3,5.3,0,0,1-2-.36,2.87,2.87,0,0,1-1.4-1.27,5.05,5.05,0,0,1-.52-2.53v-6h-1.63V35.86l1.88-1.15,1-2.64h2.19v2.67h3.52v2.57h-3.52v6a1.32,1.32,0,0,0,.41,1.07A1.6,1.6,0,0,0,364.27,44.79Z"/><path class="cls-18" d="M370.69,29.81a2.36,2.36,0,0,1,1.31.36,1.45,1.45,0,0,1,.55,1.32A1.44,1.44,0,0,1,372,32.8a2.29,2.29,0,0,1-1.31.37,2.25,2.25,0,0,1-1.32-.37,1.44,1.44,0,0,1-.54-1.31,1.45,1.45,0,0,1,.54-1.32A2.33,2.33,0,0,1,370.69,29.81Zm1.7,4.93V47.29H369V34.74Z"/><path class="cls-18" d="M387.39,41a6.64,6.64,0,0,1-1.65,4.83,5.9,5.9,0,0,1-4.47,1.7,6.27,6.27,0,0,1-3.12-.76A5.3,5.3,0,0,1,376,44.54a7.42,7.42,0,0,1-.78-3.55,6.62,6.62,0,0,1,1.63-4.81,6,6,0,0,1,4.49-1.67,6.38,6.38,0,0,1,3.13.75,5.47,5.47,0,0,1,2.13,2.21A7.24,7.24,0,0,1,387.39,41Zm-8.67,0a5.27,5.27,0,0,0,.61,2.82,2.53,2.53,0,0,0,3.95,0,5.27,5.27,0,0,0,.61-2.82,5.11,5.11,0,0,0-.61-2.79,2.19,2.19,0,0,0-2-.93,2.16,2.16,0,0,0-2,.93A5.11,5.11,0,0,0,378.72,41Z"/><path class="cls-18" d="M397.34,34.51a4.68,4.68,0,0,1,3.25,1.09,4.51,4.51,0,0,1,1.22,3.51v8.18h-3.43V40a3.53,3.53,0,0,0-.48-2,1.77,1.77,0,0,0-1.54-.68,2.2,2.2,0,0,0-2.14,1.07,6.52,6.52,0,0,0-.58,3.07v5.91h-3.43V34.74h2.63l.46,1.61h.18a3.46,3.46,0,0,1,1.64-1.41A5.74,5.74,0,0,1,397.34,34.51Z"/><path d="M147.4,72.29h-2.5l-4-7h-.05c0,.44,0,.89.06,1.33s0,.88,0,1.32v4.37h-1.75V63h2.48l4,7h0c0-.43,0-.85-.05-1.28s0-.85,0-1.28V63h1.77Z"/><path d="M152.7,65.07a2.93,2.93,0,0,1,3.19,3.22v.93h-4.58a1.84,1.84,0,0,0,.49,1.29,1.72,1.72,0,0,0,1.28.47,5.35,5.35,0,0,0,1.24-.14,5.61,5.61,0,0,0,1.16-.42v1.5a4.78,4.78,0,0,1-1.1.38,6.91,6.91,0,0,1-1.39.12A4.37,4.37,0,0,1,151.1,72a3,3,0,0,1-1.28-1.2,3.89,3.89,0,0,1-.47-2,4.54,4.54,0,0,1,.42-2.07A2.81,2.81,0,0,1,151,65.48,3.54,3.54,0,0,1,152.7,65.07Zm0,1.37a1.24,1.24,0,0,0-.94.37,1.75,1.75,0,0,0-.43,1.13h2.72a1.78,1.78,0,0,0-.35-1.07A1.2,1.2,0,0,0,152.72,66.44Z"/><path d="M163.25,72.29l-.55-2.48q0-.23-.15-.66t-.21-.93c-.08-.34-.16-.64-.23-.93s-.11-.48-.14-.61h-.05c0,.13-.07.33-.14.61s-.13.59-.21.93-.15.65-.22.94l-.16.68-.57,2.45h-2.08l-2-7.09h1.93l.82,3.14c.06.23.11.49.16.79s.09.59.13.87.07.5.1.67h.05c0-.12,0-.29,0-.49s.06-.41.1-.63.07-.41.1-.59.06-.29.07-.36l.88-3.4H163l.83,3.4c0,.12.06.32.12.59s.09.54.13.81,0,.5.06.67h0l.09-.65c.05-.28.1-.57.15-.88s.12-.57.18-.8l.84-3.14h1.9l-2,7.09Z"/><path d="M177.26,70.19a1.93,1.93,0,0,1-.76,1.65,3.69,3.69,0,0,1-2.27.58,7.71,7.71,0,0,1-1.27-.09,6.21,6.21,0,0,1-1.07-.32v-1.6a8.19,8.19,0,0,0,1.24.43,4.92,4.92,0,0,0,1.17.17,1.46,1.46,0,0,0,.8-.17.52.52,0,0,0,.25-.45.53.53,0,0,0-.1-.32,1.21,1.21,0,0,0-.42-.32,8.92,8.92,0,0,0-1-.47,6.36,6.36,0,0,1-1.09-.57,1.67,1.67,0,0,1-.63-.67,2.15,2.15,0,0,1-.21-1,1.64,1.64,0,0,1,.76-1.48,3.77,3.77,0,0,1,2.05-.49,5.73,5.73,0,0,1,1.26.13,5.27,5.27,0,0,1,1.23.42L176.6,67c-.35-.14-.68-.27-1-.37a3.08,3.08,0,0,0-1-.14c-.57,0-.86.15-.86.46a.49.49,0,0,0,.11.31,1.37,1.37,0,0,0,.43.29c.21.11.53.24.94.42a7,7,0,0,1,1.06.51,1.81,1.81,0,0,1,.92,1.7Z"/><path d="M180.89,62.41v2c0,.35,0,.69,0,1s0,.53,0,.66h.1a2.06,2.06,0,0,1,.87-.79,2.86,2.86,0,0,1,1.18-.24,2.7,2.7,0,0,1,1.85.61,2.51,2.51,0,0,1,.7,2v4.62h-1.94V68.15c0-1-.38-1.54-1.14-1.54a1.24,1.24,0,0,0-1.2.61,3.66,3.66,0,0,0-.33,1.73v3.34H179V62.41Z"/><path d="M188.65,62.41a1.39,1.39,0,0,1,.74.2.83.83,0,0,1,.31.75.81.81,0,0,1-.31.74,1.31,1.31,0,0,1-.74.21,1.28,1.28,0,0,1-.75-.21.84.84,0,0,1-.31-.74.86.86,0,0,1,.31-.75A1.35,1.35,0,0,1,188.65,62.41Zm1,2.79v7.09h-1.94V65.2Z"/><path d="M195.76,66.65h-1.68v5.64h-1.94V66.65h-1.06v-.94l1.06-.51v-.53a2.78,2.78,0,0,1,.31-1.41,1.6,1.6,0,0,1,.87-.7,3.83,3.83,0,0,1,1.33-.21,5.41,5.41,0,0,1,1,.09,3.88,3.88,0,0,1,.75.21l-.49,1.41-.49-.12a2.68,2.68,0,0,0-.59-.06.68.68,0,0,0-.59.25,1,1,0,0,0-.19.62v.45h1.68Z"/><path d="M200,70.88a3.18,3.18,0,0,0,.62-.06c.2,0,.4-.1.6-.16V72.1a3.85,3.85,0,0,1-.78.23,5.16,5.16,0,0,1-1,.09,2.9,2.9,0,0,1-1.14-.21,1.51,1.51,0,0,1-.79-.71,2.82,2.82,0,0,1-.3-1.43V66.65h-.92v-.82l1.07-.65.56-1.49h1.23V65.2h2v1.45h-2v3.42a.75.75,0,0,0,.23.6A.9.9,0,0,0,200,70.88Z"/><path d="M207.83,70.19a1.93,1.93,0,0,1-.76,1.65,3.66,3.66,0,0,1-2.26.58,7.84,7.84,0,0,1-1.28-.09,6.11,6.11,0,0,1-1.06-.32v-1.6a8.45,8.45,0,0,0,1.23.43,4.92,4.92,0,0,0,1.17.17,1.53,1.53,0,0,0,.81-.17.53.53,0,0,0,.24-.45.59.59,0,0,0-.09-.32,1.27,1.27,0,0,0-.43-.32,7.88,7.88,0,0,0-1-.47,6.5,6.5,0,0,1-1.1-.57,1.83,1.83,0,0,1-.63-.67,2.15,2.15,0,0,1-.21-1,1.65,1.65,0,0,1,.77-1.48,3.71,3.71,0,0,1,2-.49,5.73,5.73,0,0,1,1.26.13,5.5,5.5,0,0,1,1.24.42L207.17,67c-.34-.14-.67-.27-1-.37a3,3,0,0,0-.94-.14c-.58,0-.86.15-.86.46a.44.44,0,0,0,.11.31,1.16,1.16,0,0,0,.43.29c.21.11.52.24.94.42a6.44,6.44,0,0,1,1,.51,1.9,1.9,0,0,1,.68.67A2,2,0,0,1,207.83,70.19Z"/><path d="M214.06,62.41a1.36,1.36,0,0,1,.74.2.83.83,0,0,1,.31.75.81.81,0,0,1-.31.74,1.29,1.29,0,0,1-.74.21,1.32,1.32,0,0,1-.75-.21.83.83,0,0,1-.3-.74.85.85,0,0,1,.3-.75A1.4,1.4,0,0,1,214.06,62.41Zm1,2.79v7.09h-1.93V65.2Z"/><path d="M221.28,65.07a2.65,2.65,0,0,1,1.83.61,2.54,2.54,0,0,1,.69,2v4.62h-1.94V68.15a2,2,0,0,0-.27-1.15,1,1,0,0,0-.87-.39,1.24,1.24,0,0,0-1.21.61,3.66,3.66,0,0,0-.33,1.73v3.34h-1.93V65.2h1.48l.26.9h.1a2,2,0,0,1,.93-.79A3.32,3.32,0,0,1,221.28,65.07Z"/><path d="M232.43,72.42a3.3,3.3,0,0,1-2.45-.87,3.78,3.78,0,0,1-.86-2.77,4.42,4.42,0,0,1,.44-2.12,2.69,2.69,0,0,1,1.23-1.2,4,4,0,0,1,1.81-.39,4.81,4.81,0,0,1,2.21.48L234.24,67c-.31-.12-.59-.22-.85-.3a2.76,2.76,0,0,0-.79-.12c-1,0-1.51.72-1.51,2.15a2.5,2.5,0,0,0,.4,1.57,1.31,1.31,0,0,0,1.11.51,3.23,3.23,0,0,0,1.08-.16,4.52,4.52,0,0,0,.91-.45v1.65a3.19,3.19,0,0,1-.93.41A5.32,5.32,0,0,1,232.43,72.42Z"/><path d="M242.87,68.73a3.76,3.76,0,0,1-.93,2.73,3.35,3.35,0,0,1-2.53,1,3.53,3.53,0,0,1-1.76-.43,3,3,0,0,1-1.22-1.25,4.26,4.26,0,0,1-.44-2,3.74,3.74,0,0,1,.93-2.72,3.36,3.36,0,0,1,2.53-.94,3.62,3.62,0,0,1,1.77.42,3.17,3.17,0,0,1,1.21,1.25A4.21,4.21,0,0,1,242.87,68.73Zm-4.9,0a3,3,0,0,0,.34,1.59,1.24,1.24,0,0,0,1.13.54,1.22,1.22,0,0,0,1.11-.54,3,3,0,0,0,.34-1.59,2.92,2.92,0,0,0-.34-1.58,1.26,1.26,0,0,0-1.13-.53,1.23,1.23,0,0,0-1.11.53A2.92,2.92,0,0,0,238,68.73Z"/><path d="M248.69,65.07a2.65,2.65,0,0,1,1.84.61,2.54,2.54,0,0,1,.69,2v4.62h-1.94V68.15A2,2,0,0,0,249,67a1,1,0,0,0-.88-.39,1.22,1.22,0,0,0-1.2.61A3.66,3.66,0,0,0,246.6,69v3.34h-1.94V65.2h1.49l.26.9h.1a2,2,0,0,1,.93-.79A3.27,3.27,0,0,1,248.69,65.07Z"/><path d="M258.35,70.19a1.93,1.93,0,0,1-.76,1.65,3.69,3.69,0,0,1-2.27.58,7.8,7.8,0,0,1-1.27-.09A6.21,6.21,0,0,1,253,72v-1.6a9,9,0,0,0,1.24.43,4.92,4.92,0,0,0,1.17.17,1.46,1.46,0,0,0,.8-.17.52.52,0,0,0,.25-.45.53.53,0,0,0-.1-.32,1.12,1.12,0,0,0-.42-.32,7.88,7.88,0,0,0-1-.47,6.5,6.5,0,0,1-1.1-.57,1.83,1.83,0,0,1-.63-.67,2.15,2.15,0,0,1-.21-1,1.65,1.65,0,0,1,.77-1.48,3.71,3.71,0,0,1,2-.49,5.73,5.73,0,0,1,1.26.13,5.27,5.27,0,0,1,1.23.42L257.69,67c-.35-.14-.68-.27-1-.37a3.08,3.08,0,0,0-.95-.14c-.57,0-.86.15-.86.46a.49.49,0,0,0,.11.31,1.37,1.37,0,0,0,.43.29c.22.11.53.24.95.42a7.36,7.36,0,0,1,1.05.51,1.81,1.81,0,0,1,.92,1.7Z"/><path d="M266.56,65.2v7.09h-1.49l-.26-.91h-.1a2,2,0,0,1-.93.8,3.27,3.27,0,0,1-1.25.24,2.65,2.65,0,0,1-1.84-.61,2.57,2.57,0,0,1-.69-2V65.2h1.94v4.14a2,2,0,0,0,.27,1.15,1,1,0,0,0,.87.39,1.25,1.25,0,0,0,1.21-.61,3.66,3.66,0,0,0,.33-1.73V65.2Z"/><path d="M277.11,65.07a2.48,2.48,0,0,1,1.83.61,2.73,2.73,0,0,1,.62,2v4.62h-1.94V68.15c0-1-.36-1.54-1.07-1.54a1.16,1.16,0,0,0-1.09.55,3.07,3.07,0,0,0-.32,1.57v3.56H273.2V68.15c0-1-.36-1.54-1.07-1.54a1.12,1.12,0,0,0-1.11.61,4,4,0,0,0-.3,1.73v3.34h-1.94V65.2h1.48l.26.9h.1a2,2,0,0,1,.9-.79,2.92,2.92,0,0,1,1.17-.24,3.08,3.08,0,0,1,1.32.25,1.86,1.86,0,0,1,.84.78H275a2,2,0,0,1,.9-.79A3.08,3.08,0,0,1,277.11,65.07Z"/><path d="M285.69,65.07a2.39,2.39,0,0,1,1.94.92,4.37,4.37,0,0,1,.74,2.74,4.3,4.3,0,0,1-.77,2.76,2.42,2.42,0,0,1-2,.93,2.27,2.27,0,0,1-1.22-.28,2.57,2.57,0,0,1-.74-.63h-.11a5.58,5.58,0,0,1,.11,1v2.86h-1.94V65.2h1.57l.28.92h.09a2.45,2.45,0,0,1,.76-.74A2.25,2.25,0,0,1,285.69,65.07Zm-.62,1.54a1.18,1.18,0,0,0-1.07.48,2.66,2.66,0,0,0-.32,1.42v.21a3.39,3.39,0,0,0,.3,1.58,1.16,1.16,0,0,0,1.11.55,1.06,1.06,0,0,0,1-.55,3.27,3.27,0,0,0,.31-1.59Q286.39,66.61,285.07,66.61Z"/><path d="M293.15,70.88a3.21,3.21,0,0,0,.63-.06c.2,0,.4-.1.6-.16V72.1a3.85,3.85,0,0,1-.78.23,5.27,5.27,0,0,1-1,.09,2.88,2.88,0,0,1-1.13-.21,1.57,1.57,0,0,1-.8-.71,2.94,2.94,0,0,1-.29-1.43V66.65h-.92v-.82l1.06-.65.56-1.49h1.24V65.2h2v1.45h-2v3.42a.75.75,0,0,0,.23.6A.89.89,0,0,0,293.15,70.88Z"/><path d="M297,62.41a1.39,1.39,0,0,1,.74.2.86.86,0,0,1,.31.75.84.84,0,0,1-.31.74,1.31,1.31,0,0,1-.74.21,1.28,1.28,0,0,1-.75-.21.81.81,0,0,1-.31-.74.83.83,0,0,1,.31-.75A1.35,1.35,0,0,1,297,62.41Zm1,2.79v7.09H296V65.2Z"/><path d="M306.61,68.73a3.76,3.76,0,0,1-.93,2.73,3.35,3.35,0,0,1-2.53,1,3.5,3.5,0,0,1-1.76-.43,3,3,0,0,1-1.22-1.25,4.26,4.26,0,0,1-.44-2,3.78,3.78,0,0,1,.92-2.72,3.39,3.39,0,0,1,2.54-.94,3.62,3.62,0,0,1,1.77.42,3.17,3.17,0,0,1,1.21,1.25A4.21,4.21,0,0,1,306.61,68.73Zm-4.9,0a3,3,0,0,0,.34,1.59,1.24,1.24,0,0,0,1.13.54,1.22,1.22,0,0,0,1.11-.54,3,3,0,0,0,.34-1.59,2.92,2.92,0,0,0-.34-1.58,1.26,1.26,0,0,0-1.13-.53,1.23,1.23,0,0,0-1.11.53A2.92,2.92,0,0,0,301.71,68.73Z"/><path d="M312.43,65.07a2.63,2.63,0,0,1,1.83.61,2.54,2.54,0,0,1,.69,2v4.62H313V68.15a1.89,1.89,0,0,0-.28-1.15,1,1,0,0,0-.87-.39,1.24,1.24,0,0,0-1.21.61,3.81,3.81,0,0,0-.32,1.73v3.34H308.4V65.2h1.48l.26.9h.11a2,2,0,0,1,.93-.79A3.27,3.27,0,0,1,312.43,65.07Z"/><path d="M323.69,70.88a3.11,3.11,0,0,0,.62-.06c.2,0,.4-.1.6-.16V72.1a3.74,3.74,0,0,1-.77.23,5.34,5.34,0,0,1-1,.09,3,3,0,0,1-1.14-.21,1.59,1.59,0,0,1-.79-.71,2.83,2.83,0,0,1-.29-1.43V66.65H320v-.82l1.07-.65.56-1.49h1.23V65.2h2v1.45h-2v3.42a.73.73,0,0,0,.24.6A.87.87,0,0,0,323.69,70.88Z"/><path d="M325.52,65.2h2.12l1.34,4a4.31,4.31,0,0,1,.16.59,6.27,6.27,0,0,1,.07.64h0a6.09,6.09,0,0,1,.11-.64,4.36,4.36,0,0,1,.17-.59l1.31-4h2.08l-3,8a3.45,3.45,0,0,1-1.19,1.66,2.94,2.94,0,0,1-1.78.55,4.67,4.67,0,0,1-.57,0l-.42-.07V73.78l.34,0,.43,0a1.24,1.24,0,0,0,1-.37,2.29,2.29,0,0,0,.54-.89l.11-.35Z"/><path d="M338.08,65.07A2.39,2.39,0,0,1,340,66a4.37,4.37,0,0,1,.74,2.74,4.3,4.3,0,0,1-.77,2.76,2.42,2.42,0,0,1-2,.93,2.27,2.27,0,0,1-1.22-.28,2.57,2.57,0,0,1-.74-.63H336a5.58,5.58,0,0,1,.11,1v2.86h-1.94V65.2h1.57l.27.92h.1a2.45,2.45,0,0,1,.76-.74A2.25,2.25,0,0,1,338.08,65.07Zm-.62,1.54a1.18,1.18,0,0,0-1.07.48,2.57,2.57,0,0,0-.32,1.42v.21a3.39,3.39,0,0,0,.3,1.58,1.14,1.14,0,0,0,1.11.55,1,1,0,0,0,1-.55,3.15,3.15,0,0,0,.32-1.59Q338.78,66.61,337.46,66.61Z"/><path d="M345.48,65.07a2.93,2.93,0,0,1,3.18,3.22v.93h-4.57a1.84,1.84,0,0,0,.48,1.29,1.74,1.74,0,0,0,1.28.47,5.44,5.44,0,0,0,1.25-.14,6.06,6.06,0,0,0,1.16-.42v1.5a4.85,4.85,0,0,1-1.11.38,6.84,6.84,0,0,1-1.39.12,4.3,4.3,0,0,1-1.88-.39,3,3,0,0,1-1.29-1.2,4,4,0,0,1-.47-2,4.41,4.41,0,0,1,.43-2.07,2.84,2.84,0,0,1,1.17-1.25A3.55,3.55,0,0,1,345.48,65.07Zm0,1.37a1.27,1.27,0,0,0-.94.37,1.81,1.81,0,0,0-.43,1.13h2.72a1.77,1.77,0,0,0-.34-1.07A1.22,1.22,0,0,0,345.49,66.44Z"/><path d="M355.38,70.19a1.93,1.93,0,0,1-.76,1.65,3.67,3.67,0,0,1-2.27.58,7.8,7.8,0,0,1-1.27-.09A6.21,6.21,0,0,1,350,72v-1.6a9,9,0,0,0,1.24.43,4.92,4.92,0,0,0,1.17.17,1.46,1.46,0,0,0,.8-.17.52.52,0,0,0,.25-.45.59.59,0,0,0-.09-.32,1.27,1.27,0,0,0-.43-.32,7.88,7.88,0,0,0-1-.47,6.5,6.5,0,0,1-1.1-.57,1.83,1.83,0,0,1-.63-.67,2.15,2.15,0,0,1-.21-1,1.65,1.65,0,0,1,.77-1.48,3.71,3.71,0,0,1,2-.49,5.73,5.73,0,0,1,1.26.13,5.27,5.27,0,0,1,1.23.42L354.72,67c-.35-.14-.68-.27-1-.37a3.08,3.08,0,0,0-1-.14c-.57,0-.86.15-.86.46a.45.45,0,0,0,.12.31,1.19,1.19,0,0,0,.42.29c.22.11.53.24,1,.42a6.87,6.87,0,0,1,1,.51,1.81,1.81,0,0,1,.92,1.7Z"/><path d="M141.93,80.05a3.42,3.42,0,0,1,2.19.62,2.31,2.31,0,0,1,.76,1.89v4.73h-1.36l-.37-1h-.05a3.23,3.23,0,0,1-1,.84,3.11,3.11,0,0,1-1.39.25,2.32,2.32,0,0,1-1.57-.54,2.14,2.14,0,0,1-.62-1.7,1.87,1.87,0,0,1,.79-1.67,4.77,4.77,0,0,1,2.38-.6l1.23,0v-.32a1,1,0,0,0-.29-.82,1.19,1.19,0,0,0-.81-.26,3.5,3.5,0,0,0-1,.15,9.78,9.78,0,0,0-1,.37l-.64-1.31a6,6,0,0,1,1.26-.46A5.84,5.84,0,0,1,141.93,80.05Zm1,4-.75,0a2.14,2.14,0,0,0-1.3.34,1,1,0,0,0-.36.82.74.74,0,0,0,.25.63,1.12,1.12,0,0,0,.68.19,1.56,1.56,0,0,0,1.05-.37,1.31,1.31,0,0,0,.43-1Z"/><path d="M151.09,80.07a2.65,2.65,0,0,1,1.83.61,2.57,2.57,0,0,1,.69,2v4.62h-1.93V83.15A2,2,0,0,0,151.4,82a1,1,0,0,0-.87-.39,1.26,1.26,0,0,0-1.21.61A3.81,3.81,0,0,0,149,84v3.34h-1.94V80.2h1.48l.26.91h.11a1.92,1.92,0,0,1,.93-.8A3.27,3.27,0,0,1,151.09,80.07Z"/><path d="M158,87.42a2.35,2.35,0,0,1-1.93-.92,4.3,4.3,0,0,1-.75-2.74,4.36,4.36,0,0,1,.76-2.76,2.65,2.65,0,0,1,3.24-.63,2.31,2.31,0,0,1,.78.74h.06c0-.14-.06-.34-.09-.61a7,7,0,0,1,0-.81V77.42H162v9.87H160.5l-.37-.92h-.08a2.4,2.4,0,0,1-.77.75A2.34,2.34,0,0,1,158,87.42Zm.68-1.54a1.26,1.26,0,0,0,1.12-.48,2.73,2.73,0,0,0,.35-1.42v-.21a3.24,3.24,0,0,0-.32-1.58,1.24,1.24,0,0,0-1.18-.55,1.13,1.13,0,0,0-1,.55,2.94,2.94,0,0,0-.36,1.6,2.77,2.77,0,0,0,.36,1.56A1.19,1.19,0,0,0,158.71,85.88Z"/><path d="M171.72,80.07a2.36,2.36,0,0,1,1.94.93,4.33,4.33,0,0,1,.74,2.73,4.26,4.26,0,0,1-.77,2.76,2.42,2.42,0,0,1-2,.93,2.37,2.37,0,0,1-1.22-.27,2.76,2.76,0,0,1-.74-.64h-.11a5.67,5.67,0,0,1,.11,1v2.87h-1.94V80.2h1.57l.28.92h.09a2.56,2.56,0,0,1,.76-.74A2.25,2.25,0,0,1,171.72,80.07Zm-.62,1.54a1.19,1.19,0,0,0-1.07.48,2.69,2.69,0,0,0-.32,1.42v.21a3.39,3.39,0,0,0,.3,1.58,1.16,1.16,0,0,0,1.11.55,1.06,1.06,0,0,0,1-.55,3.27,3.27,0,0,0,.31-1.59Q172.42,81.61,171.1,81.61Z"/><path d="M179.11,80.05a3.42,3.42,0,0,1,2.19.62,2.31,2.31,0,0,1,.76,1.89v4.73H180.7l-.37-1h-.05a3.23,3.23,0,0,1-1,.84,3.11,3.11,0,0,1-1.39.25,2.32,2.32,0,0,1-1.57-.54,2.14,2.14,0,0,1-.62-1.7,1.87,1.87,0,0,1,.79-1.67,4.77,4.77,0,0,1,2.38-.6l1.23,0v-.32a1,1,0,0,0-.29-.82,1.19,1.19,0,0,0-.81-.26,3.5,3.5,0,0,0-1,.15,8.94,8.94,0,0,0-1,.37l-.64-1.31a6,6,0,0,1,1.26-.46A5.84,5.84,0,0,1,179.11,80.05Zm1,4-.75,0a2.12,2.12,0,0,0-1.3.34,1,1,0,0,0-.37.82.75.75,0,0,0,.26.63,1.12,1.12,0,0,0,.68.19,1.56,1.56,0,0,0,1-.37,1.31,1.31,0,0,0,.43-1Z"/><path d="M187.23,85.88a3,3,0,0,0,.62-.06,4.44,4.44,0,0,0,.6-.16V87.1a3.21,3.21,0,0,1-.77.23,5.27,5.27,0,0,1-1,.09,3,3,0,0,1-1.14-.2,1.66,1.66,0,0,1-.79-.72,2.94,2.94,0,0,1-.29-1.43V81.65h-.92v-.82l1.06-.65.56-1.49h1.24V80.2h2v1.45h-2v3.42a.76.76,0,0,0,.23.61A.93.93,0,0,0,187.23,85.88Z"/><path d="M193.07,85.88a3.18,3.18,0,0,0,.62-.06,4.44,4.44,0,0,0,.6-.16V87.1a3.35,3.35,0,0,1-.77.23,5.34,5.34,0,0,1-1,.09,2.9,2.9,0,0,1-1.14-.2,1.62,1.62,0,0,1-.79-.72,2.83,2.83,0,0,1-.29-1.43V81.65h-.93v-.82l1.07-.65.56-1.49h1.23V80.2h2v1.45h-2v3.42a.76.76,0,0,0,.24.61A.91.91,0,0,0,193.07,85.88Z"/><path d="M198.84,80.07a3.2,3.2,0,0,1,2.33.84,3.16,3.16,0,0,1,.85,2.38v.94h-4.57a1.83,1.83,0,0,0,.49,1.28,1.67,1.67,0,0,0,1.28.47,5.36,5.36,0,0,0,1.24-.13,6.9,6.9,0,0,0,1.16-.43v1.5a4.78,4.78,0,0,1-1.1.38,7,7,0,0,1-1.39.12,4.34,4.34,0,0,1-1.89-.39,3,3,0,0,1-1.29-1.2,4,4,0,0,1-.46-2,4.57,4.57,0,0,1,.42-2.07,2.89,2.89,0,0,1,1.17-1.25A3.69,3.69,0,0,1,198.84,80.07Zm0,1.38a1.26,1.26,0,0,0-.93.36,1.7,1.7,0,0,0-.43,1.13h2.71a1.73,1.73,0,0,0-.34-1.07A1.21,1.21,0,0,0,198.85,81.45Z"/><path d="M207.76,80.07h.34l.31,0-.15,1.82-.27,0-.3,0a2.59,2.59,0,0,0-.95.18,1.57,1.57,0,0,0-.73.57,1.75,1.75,0,0,0-.28,1.06v3.61h-1.94V80.2h1.47l.29,1.19h.09a2.92,2.92,0,0,1,.86-.93A2.1,2.1,0,0,1,207.76,80.07Z"/><path d="M213.92,80.07a2.65,2.65,0,0,1,1.83.61,2.57,2.57,0,0,1,.69,2v4.62H214.5V83.15a2,2,0,0,0-.27-1.15,1,1,0,0,0-.87-.39,1.26,1.26,0,0,0-1.21.61,3.68,3.68,0,0,0-.32,1.73v3.34h-1.94V80.2h1.48l.26.91h.1a2,2,0,0,1,.93-.8A3.36,3.36,0,0,1,213.92,80.07Z"/><path d="M223.56,85.19a2,2,0,0,1-.76,1.66,3.73,3.73,0,0,1-2.26.57,7.84,7.84,0,0,1-1.28-.09A5.35,5.35,0,0,1,218.2,87v-1.6a7.41,7.41,0,0,0,1.23.43,4.92,4.92,0,0,0,1.17.17,1.53,1.53,0,0,0,.81-.17.51.51,0,0,0,.24-.44.63.63,0,0,0-.09-.33,1.42,1.42,0,0,0-.43-.32,9.56,9.56,0,0,0-1-.47,6.5,6.5,0,0,1-1.1-.57,1.83,1.83,0,0,1-.63-.67,2.15,2.15,0,0,1-.21-1,1.65,1.65,0,0,1,.77-1.48,3.71,3.71,0,0,1,2-.49,5.73,5.73,0,0,1,1.26.13,5.56,5.56,0,0,1,1.24.43L222.9,82a9.35,9.35,0,0,0-1-.37,3,3,0,0,0-.94-.15c-.58,0-.86.15-.86.46a.44.44,0,0,0,.11.31,1.16,1.16,0,0,0,.43.29c.21.11.52.25.94.42a6.44,6.44,0,0,1,1,.51,1.9,1.9,0,0,1,.68.67A2,2,0,0,1,223.56,85.19Z"/></svg>