<svg id="Layer_1" data-name="Layer 1" xmlns="http://www.w3.org/2000/svg" viewBox="0 0 546.69 343.19"><defs><style>.cls-1{fill:#73b129;}.cls-2{fill:#3f1151;}</style></defs><path class="cls-1" d="M531.17,227.11a22.2,22.2,0,0,1-4,12.39c-2.28,3.35-4,3.67-6.75,3.67h-1.94a10.34,10.34,0,0,1-5.78-1.9,52.22,52.22,0,0,1-4.94-3.67c-1.47-1.26-2.34-2-2.66-2.34-2.74-2.29-7.45-6.4-7.93-14.06a12.87,12.87,0,0,0-1.63-5.36c-.36-.75-.74-1.51-1.09-2.45-2-4.49-6.3-10.48-12.65-17.75,0,0-7.07-7-7.24-7.61-.23-.8.85-.26.85-.26a232.79,232.79,0,0,1,25.47,12.75,190.93,190.93,0,0,1,21,14.59c6.29,5.08,9.33,9,9.31,12m-94.92-28.47-3.49,12.08c-3,7.51-4.22,12.54-7.39,18.53-1.59,3-2.39,7.68-3.46,9.92-3.27,6.84-9.63,6-12.42,7h0s-3.3.12-4.35-.49-1.72-2.74-2.53-4.81-2.63-4.44-1.69-6.76c.66-1.67,5.72-6.81,11.19-12.29,5.47-4.94,10.05-7.78,14-11.86.57-.71,3.74-2.91,6.26-6.74s2.63-4.24,3.36-4.61Zm110.57-41.85-.18.2c-1.5,1.56-5.87,3.53-13.36,6-3.64,1.23-12.07,3.13-21,5.15-9.56,2.17-19.42,4.4-25.83,6.3-2,.57-5.39,1.62-9.89,3-6.11,1.88-7,2.37-7.16,2.5-.37.58-.49,5.41-.71,14.22l-.07,2.41c-.2,8,0,14.93.11,18.66v2.63a87.23,87.23,0,0,0,1,13.22,107,107,0,0,1,.22,12.66c0,1-.06,2-.06,2.6,0,12.24-5.3,13.27-10.26,13.27a32.23,32.23,0,0,1-10.26-4.76,15.39,15.39,0,0,1-4.59-4.81,5.3,5.3,0,0,1-.63-3.4,13.35,13.35,0,0,0,0-2,9,9,0,0,0-1-1.65c-1.89-2.64,0-6.87.28-7.49a13.7,13.7,0,0,0,.92-3c.09-.48.17-1,.25-1.37.09-.57.18-1.1.25-1.49a16.59,16.59,0,0,1,.65-2.7c2.57-16.42,4.18-30.42,4.76-41.61a149.81,149.81,0,0,0-17.7,5.51,109.78,109.78,0,0,1-13.83,4.35,72.67,72.67,0,0,1-15.78,1.45c-9.67,0-16-3.3-16-7.42v-.11l-1.18-1.88c3-2.24,12.55-3.28,26.78-6.9,1.86-.55,7.91-1.65,9.15-2.05l23.52-6.05c6.48-1.58,7.44-2.62,7.44-3.09,0-3.21.14-8.16.43-14.69.11-2.51.44-14.6.44-14.72v-.28l-.38-20.81-11.46,1.85c-1.83.12-4,.19-6.39.19-12.69,0-19.11-3-19.11-8.91,0,0-.07-.5.83-1.06.62-.39,3.06-.08,4.31.11a10.41,10.41,0,0,0,1.58.12,136.28,136.28,0,0,0,20.17-1.56c6.52-1,9.82-2.77,9.82-5.26,0-1.79-3.59-15.82-5-19.31-.14-.39-.45-1.28-1-2.69l-.11-.32a13.45,13.45,0,0,1-.88-4.52v-.09s.08-1.81,2.74-3,6,.62,7.59,1.88a20.09,20.09,0,0,1,4.91,6.47l5.66,13.1a5,5,0,0,0,2.48,2,11.28,11.28,0,0,0,4.09.92c3.21,0,8.71-2.11,11.65-2.74a25.82,25.82,0,0,1,4.56-.37c2.39.61,3.23.82,4.91,2.82,1.15,1.35,3.62,1.08,3.08,3.59-.93,4.38-14.17,8.42-16,9.11a21.58,21.58,0,0,1-6.26,1.26,8.54,8.54,0,0,0-4.35,1.19c-.88.66-1.59,2.27-2.08,4.83a76.35,76.35,0,0,0-.76,13c0,1.22,0,2.48.13,4l.89,28.6,13-2.66a79.46,79.46,0,0,0,11.33-2.27c3-.88,6-1.3,6.76-1.58,2.35-.78,10.82-2.24,17.63-3.41,4-.69,7.49-1.3,8.36-1.53a28.75,28.75,0,0,1,7.44-.94,13.9,13.9,0,0,1,4.87.75,24.81,24.81,0,0,1,4.16,2.07c1.38.86,2.68,1.66,3.91,2.38Zm-58.16-35a6.34,6.34,0,0,1,2.49-1.1c1.23-.12,2.8.91,4.83,2.72a28.47,28.47,0,0,1,5.1,6.11c1.41,2.29,2,4.31,1.78,6a21.47,21.47,0,0,1-4.1,9.37c-.63.89-1.82,2.36-3.53,4.39a12.94,12.94,0,0,1-6.24,4.26l-13.38,3.85h-.13a.52.52,0,0,1-.28-.13.62.62,0,0,1-.13-.58l1.21-9.39a15.74,15.74,0,0,1,4.46-9.32,35.37,35.37,0,0,1,2.84-2.49,11.23,11.23,0,0,0,4.25-7.19,19.19,19.19,0,0,0,0-3.39,2.59,2.59,0,0,1,.76-3.17M443.12,133.2c.85-.75.85.34.85.34l-6,27.76c0,.11-3.37,9.14-12.28,10.16h-.54a4.89,4.89,0,0,1-3.77-1.81,14.43,14.43,0,0,1-1.32-1.88,15.19,15.19,0,0,1-1.68-6c.31-3.29,2.57-6.24,3.75-7.75h0s20.32-20.36,20.92-20.88" transform="translate(-0.1 0)"/><path class="cls-1" d="M410.92,207.09c.05.34-.65.55-2.5,1a18.11,18.11,0,0,0-2,.76c-2,.94-2.63,2.24-2.81,4.37-.09,1.1-1.41,1.4-3,1.44a4.59,4.59,0,0,1-2.07,2.64l-.61.5a6.91,6.91,0,0,1-3.44,1.62c-1.32.19-2.77.39-3.26.42a54.31,54.31,0,0,0-5.7.48c-6.77.52-14.94,1.21-22.7-.76a82.6,82.6,0,0,1-8.53-2.81,49.19,49.19,0,0,1-7.24-3.76l-.78-.43c-.68-.33-1.43-.69-2.31-1.17-.2,2-.33,3.62-.37,4.71,0,.18,0,25.33.15,27.07.11,2.16.13,3.89.09,5.13-.29,7.51-4.18,8.94-7.37,8.86a8,8,0,0,0-3.51.65,8.09,8.09,0,0,1-2.84.83h0a3.44,3.44,0,0,1-2.9-1.78,23.82,23.82,0,0,1-1.86-3.92,7.56,7.56,0,0,0-1-2.42c-1.36-3.24.37-4.45,1-7,.15-1.68.29-11.07.42-18.71.09-6.09.18-11.84.27-14.18l.31-8.45c-1.69,1.65-4.53,4.69-4.93,5.29-.58.87-1.07,1.54-1.45,2l-1.86,2.17c-5.38,6.2-12.06,13.92-19.51,17.48,0,0-.89.43-1.38.13s0-1.35,0-1.35l-1.53.41a12.17,12.17,0,0,1-3.28.49,2.56,2.56,0,0,1-2-1.1,6,6,0,0,1-.87-1.59,3.31,3.31,0,0,1-.29-1.12c0-.48,0-.73,5.83-6.07,16-14.47,26.3-28.23,29.43-34.67-4.74.94-8.66,1.65-11.71,2.09a61.52,61.52,0,0,1-10.24.55c-4.51-.14-8-1-10.52-2.54s-3.89-4.52-3.73-8.6a2.73,2.73,0,0,1,.51-1.73,3.64,3.64,0,0,1,1.63-1l.78-.27.34.75a3.49,3.49,0,0,0,1.7,1.83,7.66,7.66,0,0,0,3.13.64,94.11,94.11,0,0,0,19.1-1.53c.71-.12,1.39-.23,2.07-.36,6.37-1,9.68-1.79,9.86-6.42a44.59,44.59,0,0,0-.35-7.12,1.56,1.56,0,0,0-.81-1,8.13,8.13,0,0,0-2.37-.67c-5.18-1.14-8.24-2.88-9.14-5.2a4.26,4.26,0,0,1,.52-3.94c.38-.56,1.78-2.08,10.36.16a2.74,2.74,0,0,0,2.42-.66c.31-.62,1.07-2.66,1.83-27.23l.29-11.59c.11-2.86.45-5.77,2.44-5.72a23.52,23.52,0,0,1,10.4,2.58,8.08,8.08,0,0,1,4.54,8l-.25,3.09C347.15,119.51,347,136,347,143v1.75a8.88,8.88,0,0,0,.26,2.67h.11c.38.09,2.57-.6,3.85-.44a8.3,8.3,0,0,1,3.49,1.16l.18.12,1.13,2.08v.26c-.16,1.26-2.13,3.23-3.2,4.24a26.37,26.37,0,0,1-4.13,3c-.29.18-.83.55-1.66,1.15a9.41,9.41,0,0,0-1.83,1.62c-.35.39-.53,3.57-.53,3.86l-.18,3a11.51,11.51,0,0,0,3.77-1c1.68-.78,10.59-4.81,12.43-6.11.86-.56,1.65-1.06,2.39-1.49a4.43,4.43,0,0,1,2.25-.74,42,42,0,0,1,6.8.83c1,.21,4.06.84,4.24,2.84L377.5,164v.23a2.83,2.83,0,0,1-.81,1.9,10.55,10.55,0,0,1-1.83,1.44,6.12,6.12,0,0,0-1.32,1,10.48,10.48,0,0,0-1,1.49,5.38,5.38,0,0,1-1.87,1.92c-2,1.4-11.84,5.66-15.15,6.72A62.8,62.8,0,0,1,346,181c-.76.07-1.59.25-1.74.75v.17a3.47,3.47,0,0,0-.38,1.58c-.13,3.39.47,5.86,1.77,7.37,4.73,3.14,17.58,10,23.68,11.52,6.32,1.58,22.1,3.14,26.81,3.11,4.29,0,8-.29,12.11-.59,1.5,0,2.5.29,1.79.94.44.27,1,.61,1.07,1.21" transform="translate(-0.1 0)"/><path class="cls-1" d="M113.65,152.29c-.75,1,1.21.11,1.21.9,0,1.29-1.89,1.83-3,2.17-2,.64-4.73,1.38-7.22,2.06l-2.81.81a21.49,21.49,0,0,1-2.24.69c-1.23.35-2.33.71-3.32,1.1,3.83,8.8,8.06,23.59,8.82,43.79.09,2.37.94,13.66.73,19.05-.23,6.24-.42,8.59-2.17,12.36a21.66,21.66,0,0,1-2.61,4c-.92,1.13-1.9,2.58-2.59,3.23a5.53,5.53,0,0,1-3.83,1.08,6.31,6.31,0,0,1-3.2-1.21,15.28,15.28,0,0,0-2.2-1.14,2.54,2.54,0,0,1-1.85-3.07l0-.09a1.23,1.23,0,0,0,0-.54l-.63-1c-1.45-1.31-1.53-4.58-1.53-10.57,0-3.86.35-9.38,1-16.43s1-12.29,1-15.91c0-6.14-.14-11.75-.43-16.68a98.72,98.72,0,0,0-1.37-12.25,25.64,25.64,0,0,0-2.93,1.66,27.67,27.67,0,0,0-4.27,2.94,5.94,5.94,0,0,0-2.09,4.2c-.82,8.55-1.68,15.48-2.63,21.21a74.46,74.46,0,0,1-5.18,17.52A39.69,39.69,0,0,1,57.56,227l-.73.6-.65-.67c-.69-.76-1.43-1.53-2.26-2.35A17.25,17.25,0,0,1,52,222.3a4.56,4.56,0,0,1-.79-2.58,5.85,5.85,0,0,1,.24-1.66l-2.18-1.65v-.54a8.7,8.7,0,0,1,2.1-4.49c1.16-1.48,2-2.5,2.39-3.14,2-3.14,4.32-9.67,6.86-19.37,2.43-9.42,3.71-16.28,3.79-20.36l-1.24-1.16,1.42-3.19a1.73,1.73,0,0,0-.93-1.43A18.48,18.48,0,0,0,60,161.17c-.58-.13-.83-.48-.63-1.15,1.08-3.85,4-8.15,8.58-12.77a73.76,73.76,0,0,1,13.44-10.83l.19-.13h.26a3.43,3.43,0,0,1,2.63.77,2.89,2.89,0,0,1,.69,1,1.56,1.56,0,0,1,2.2-.09,15.48,15.48,0,0,1,.92,4.19c0,1-.75,3-6.26,11-1.48,2.22-2.62,4-3.44,5.3a26.12,26.12,0,0,0,2.81-1.25l1.65-.81a126.62,126.62,0,0,1,12.82-4.53l2-.63c3.85-1.24,8.8-1.39,12.69-1.39,0,0,5.22-.65,3,2.44M56.06,166.84a5.93,5.93,0,0,1,.42,2.12,6.44,6.44,0,0,1-1.95,4.87,16.77,16.77,0,0,1-5.28,3,20.67,20.67,0,0,0-5.83,3.81c-1.16,1.11-1.74,2.85-1.74,5.2l.12,3.89c1.79-.89,4.64-2.43,8.51-4.59,1.81-.59,4.37,1.62,3.79,3.11-2.26,4.23-4.11,7.06-5.64,8.62a16.63,16.63,0,0,1-4.55,3.39,2.58,2.58,0,0,0-1.36,1.22A22.35,22.35,0,0,0,42,206.7c-.12,3-.18,5.75-.18,10.82l-.1,4.92a44.7,44.7,0,0,1-.88,6.92,1.18,1.18,0,0,1-1.4.9h-.17a16.38,16.38,0,0,1-4.26-1.4,6,6,0,0,1-2.38-2.32s.42.63,0,1.06c-.28.26-1.34-.38-1.34-.38-1.23-.77-2.3-2.54-3.3-5.07a43.83,43.83,0,0,1-2.32-7.76c-.37-1.73-.65-3-.82-3.87-1.52.54-2.72,1-3.76,1.46-1.37.58-2.53,1.1-3.43,1.55,0,0-3.69,1.75-4.27,1.67-1-.14-.43-.94-.43-.94h0s-.57-.49-3.38-.49c0,0-.17.06-.72-.17s-.63-1-.63-1a7.66,7.66,0,0,1-5.46-2.76l-.92-1,23.64-10.42a5.09,5.09,0,0,0,.69-2.88v-9.25c-2.24,1-5.54,2.64-9.86,4.93l-4.83,2.64L10,193.55,6.6,189.89a1.32,1.32,0,0,1-.26-1.39l8.16-19.8-2,.28s-4.14-1.18-4.24-1.35.39-.23.39-.23L8,167.22l-.43-.13a12.47,12.47,0,0,1-3.75-1,5.44,5.44,0,0,0-.88-.32,2.37,2.37,0,0,1-1.75-1.33,1.48,1.48,0,0,1-.12-.72s-1.14-.34-1-1a1.72,1.72,0,0,1,.78-.92,66.52,66.52,0,0,1,9.35-3,45,45,0,0,0,10.43-3.35,3.77,3.77,0,0,0,1.75-1.62,15.1,15.1,0,0,0,1-3.14,16.12,16.12,0,0,1,2-4.79A9.39,9.39,0,0,1,30,142.71c1.38-.28,1.55-.15,1.87-.27a2.47,2.47,0,0,1,2.06,0,1.32,1.32,0,0,1,.73.94c.25.6.19,1.08-.32,2.09a2.55,2.55,0,0,0-.25.59c.75,1.47.51,3.32-.53,5.82a35.16,35.16,0,0,0,4.26-1c2.12-.6,3.53-1,4.22-1.22,5.26-1.79,9.23-2.66,12.16-2.66a3.22,3.22,0,0,1,2.49,1.14,3.75,3.75,0,0,1,.93,2.43A7.72,7.72,0,0,1,53.17,158a52.5,52.5,0,0,1-12,3.66c-3.11.64-5.68,1.25-7.64,1.87a12.06,12.06,0,0,0-4.26,2.18c-.48.38-1.7,1.88-4.72,7.93-1.73,3.39-3,6.16-3.92,8.26l1.64-.59a16.47,16.47,0,0,0,3.87-1.93,4.11,4.11,0,0,0,1.63-2,15.26,15.26,0,0,0,.57-3.68,7.88,7.88,0,0,1,1.32-4.78c1-1.23,2.9-1.83,5.95-1.85a17.58,17.58,0,0,1,3.16-.1c.77.06.84,1,1.22,2a11.25,11.25,0,0,0,1.12,2.25,1.22,1.22,0,0,0,.9.6l13.81-6.05Zm49.42-45.07A24.29,24.29,0,0,1,103.3,131c-1.53,3.7-3.7,5.59-6.46,5.59a9.25,9.25,0,0,1-3.54-.89,7.09,7.09,0,0,0-2.55-.75c-8.86,0-17.6,1-28.84,2.6-.59.06-1.45.17-2.49.33a65.48,65.48,0,0,1-11.61,1H46.46a97.93,97.93,0,0,0-16.19,2c-.88.11-3,.44-6.38,1a63.25,63.25,0,0,1-10,.83c-1.56,0-3.42-1-3.42-5.86,0-1.14.47-3.42,3.16-10.47,2-5.16,3.37-7.72,7.35-11.22,5.64-5,6.09-5.19,7.23-5.19L30,109.7l.89,1.31a27.51,27.51,0,0,1-.9,6.63,53.37,53.37,0,0,0-1.23,7.11c-.38,3.1-.43,3.87-.57,5.21l8.39-1c1.22-.19,2.53-.44,3.85-.67a98.67,98.67,0,0,1,12.1-1.7l.43-.67c.21-2.45.33-6.12.33-10.94v-7.51a68.45,68.45,0,0,0-1-10A52.33,52.33,0,0,1,51.4,89a4,4,0,0,1,1.35-3.16,10.17,10.17,0,0,1,3.17-1.91c.56-.23,1.33-.54,1.78.19l.18.25c8.21,5.3,12.37,15.07,12.37,29.05a89.57,89.57,0,0,1-.73,11.22,142.6,142.6,0,0,0,15.59-1.1h.33A8.13,8.13,0,0,0,86,121.8a32.21,32.21,0,0,0,.67-4.58c.2-2.1.34-3.29.45-3.87a82.1,82.1,0,0,1,.87-8.28,8.23,8.23,0,0,1,2-4.61h0a1.83,1.83,0,0,1,1.47-.72,26.77,26.77,0,0,1,4-.34c3.85,0,6.54,2.71,8,8.07a54,54,0,0,1,2,14.29" transform="translate(-0.1 0)"/><path class="cls-1" d="M176.54,118.47q-2.43,0-8.36-5.22a15.28,15.28,0,0,0-2.43-3A52.83,52.83,0,0,0,162,105l-3.35-4.75a.81.81,0,0,1,.37-.94,1.7,1.7,0,0,1,1.15-.17l2-.16c.1.1,1.26-.32,2.28-.33a37.26,37.26,0,0,1,7.59.79l2-.17a27.87,27.87,0,0,1,8.2,3.95c2,.74,3.29,1.53,3.8,2.38a4,4,0,0,1,.56,2,9.66,9.66,0,0,0-.11,2.89,1.77,1.77,0,0,1,.62,1.41c0,1.56-2.42,4.6-5.45,4.61-2.39,0-3.8.42-4.25,1.26-.1.19,0,.43-.18.57a1,1,0,0,1-.58.08m-6.48,137.81-.57.2a5.72,5.72,0,0,1-5.33-3,49,49,0,0,1-5.62-9.52c-2.94-5.72,1.2-7.74,2.11-20.31.2-2.71.42-6.51.41-9.29,0-.27-.19-.4-.57-.4-6.08.54-9.35,1-10.37,1h-3.73c-3.55,0-6.25-1.08-8.16-4a.36.36,0,0,1,0-.4c.15-.17.59-.12,1.22-.36q3.78-1.44,18.36-8.61l5.51-3.59c.13,0,.19-.59.19-1.78V194a21.11,21.11,0,0,0-.2-3.37c-7.73,4.91-14.32,7.39-19.77,7.38a13,13,0,0,1-3.35-.35c-.7-.18-5.27-1.56-7.3-3-.26,0-.7-.53-1.34-1.59,0,0-.14,0-.22-.22a.42.42,0,0,1,0-.38q2.1-2.19,24.14-13.74a33.23,33.23,0,0,1,4.93-2.79,47.2,47.2,0,0,0-9-11.51c-2.07-1.69-5.8-7.39-1.91-10.35,1.82-1.38,5.7-2.72,5.3-4.06-.31-1.05-4.49-.7-7.09-.57-1.27.06-3.35,1.42-5.26-1.49a3.83,3.83,0,0,1-2.29-3.58c-.41-3-1.19-4.74-2.32-5.33a3.27,3.27,0,0,1-1.56-1.4,22,22,0,0,1-.89-2.2,4.85,4.85,0,0,1,.57-2,2.2,2.2,0,0,1,1.37-1.52c4.67-1.63,3.17.39,6.81-.88a107.69,107.69,0,0,0,12.16-4.79c6.71-2.39,19.78-5.9,25.23-6.7l1.39-.09a26.74,26.74,0,0,0,4-.21c3.68,0,6,.85,6.85,2.58,1.14.39,1.71.79,1.71,1.18,0,0,.32.21,0,1s-2.94.41-3.43,1.79c.12,1.49-.12,1.72-1.89,2.39a5.13,5.13,0,0,1-2.09,3q-1.14,1.4-6.27,4a52.93,52.93,0,0,0-5.89,5,38.24,38.24,0,0,0-5.32,5.17,7.23,7.23,0,0,1-2.57,1.69c-5,2-11.31,1.43-11.67,1.81,1.27.93,7.85,4.33,11.4,6,.77.13,2,1.19,3.62,3.17q.94,0,1.53,3.18h.38q8.16-8.35,11-21.28v-1.58c0-.53.21-2.27,3.47-2a7.7,7.7,0,0,1,5.1,2.78c1.13,0,2.91,1.65,5.32,5a26.51,26.51,0,0,1,.39,4.17q0,5-12.34,13.33c-2.18,1.52-8.87,5-11.4,6.38,0,.27.12.4.38.4,3.29-1.44,8.63-2.06,11.22-2.29a18.16,18.16,0,0,1,2.76,0q9.78.69,9.79,3.68V170a2.76,2.76,0,0,1-2.29,2.91s.11-.08-.51.81-3.41,1-3.41,1c.38.76-.44.73-2.17,1.34-.74.78-1.2,1.13-3.61,1.4-3.67,1.06-13.11,5.63-15.2,7.77v.39a18.31,18.31,0,0,1,2.48,4.17c.51,1.06,1.14,1.59,1.9,1.59,2.92-.4,4.58-1.66,6.4-2.06,0,0,7.56-2.45,13.57,2,2,1.46,3.49,2.77,4,4.76,0,.67-.25,1-.75,1l-.77-.2A5.88,5.88,0,0,0,197,199.7q-2.28,0-5.51,2.79c-1.65.4-2.47.87-2.47,1.39q-8.93,2.2-8.93,3.79v2.58q6.28.8,15.22,5.54c2.41,1.19,6.6,5.09,7.36,5.88s.9,1.33,1.41,1.86h0a6,6,0,0,1,.11,4.67l-.7,1.88a4.17,4.17,0,0,1-1,1.49c-.58.59-1.59,1.67-3,3.26-.51.13-.76.33-.76.59l-1.71-.19a24.06,24.06,0,0,0-4.57.2c-2.79-.79-4.18-1.84-4.19-3.17-.89-1.45-1.84-2.18-2.85-2.18a28.46,28.46,0,0,1-2.62-4.54,9.56,9.56,0,0,0-2.68-3.49l-.61-.5h-.19c-.12,2.78-.31,4.17-.56,4.17l.19,1.19-.19,2,.19,1-.19.2.19,1-.18,3.78c0,1.72.26,5.3.77,10.72-.5,4.78-1.57,7.16-3.22,7.16,0,.4-1.45,1.59-4.37,3.58a4.53,4.53,0,0,1-1.9-.19M129,240.38a13.15,13.15,0,0,1-3.06-4.87,7.57,7.57,0,0,1-4.68-7.31c.11-1.5,1.31-3.19,3.58-5.08l1.41-1a5,5,0,0,1,5.75,0q2.22,1.62,7.22,4.74a6.56,6.56,0,0,0,2.88,1.3,11.57,11.57,0,0,1,4.31,1.69,1.17,1.17,0,0,1,.36,1.31l-.18.56a9.47,9.47,0,0,1,1.27,3.94,10,10,0,0,1-4.21,8.67,4.91,4.91,0,0,1-1.76.75l-3.18.73-.36-.19-1.77.22a4,4,0,0,1-2.44-.42,11.87,11.87,0,0,1-5.14-5m164.19-95.78a1.72,1.72,0,0,0,.63-2.35,1.61,1.61,0,0,0-.35-.43A15,15,0,0,0,283.33,138q-10,0-20.46,7.07a103.37,103.37,0,0,0-17.93,15.2c-5,5.43-9,12.84-16.57,21.91-.67-1.57-1.79-3.79-3.38-6.67a19.56,19.56,0,0,1-2.64-8l-.75-1.32,5.52-5.24c7.18-6.46,16.41-14.15,20.6-19.38S254,131.09,254,125.83c0-4.19-.38-4-4-5.31a41.09,41.09,0,0,0-13.62-1.88,5,5,0,0,0-2.25.51l-3,5.26c-1.16,1.91-5.61,9.43-13.29,22.54s-13,17.3-13,18.54l.24,1.57a15.07,15.07,0,0,1,5,7.72,41.83,41.83,0,0,1,1.25,10.86q0,10-2,29.34-.74,6-1.67,17.84a16.26,16.26,0,0,0,0,1.71l.41,7.63a3.07,3.07,0,0,0,.75,1.89,66.69,66.69,0,0,0,5.93,5.72,1.33,1.33,0,0,0,1.89-.12,1.38,1.38,0,0,0,.23-.36,7.24,7.24,0,0,1,1.77-2.72c1.16-1.14,2-1.65,2.53-.92.2.25.6.12.6.12a11,11,0,0,0,5.52-6,29,29,0,0,0,1.51-10.21c0-3-.09-5.26-.24-6.83l-.26-8.12c0-9.44,5.32-20,8.93-27.9s4.34-12.33,14.88-18.8a31.22,31.22,0,0,1,.49,4.72c0,5.77-.15,11.5-.49,22.67-.35,11.55-.5,20.1-.5,25.69,0,7.16-1.51,19.83-3,30.5q-.27,2.08-1.27,10.75a139.87,139.87,0,0,0-1,16.23c0,.88,1.12,2.29,3.37,4.2s3.72,2.81,4.41,2.63l9.54-5.76c1.5-.52,2.92-3.89,4.25-10.08A202.09,202.09,0,0,0,271.12,249q1.26-11.12,1.27-15.34l1-23.94a104.81,104.81,0,0,0-2-22,87.65,87.65,0,0,0-8.27-23c1-.36,3.4-3,6.23-3.69s15.77-3.82,17.77-5.22v-1.3a21.21,21.21,0,0,1,2.38-1.32,8.57,8.57,0,0,0,1.77-1,2.8,2.8,0,0,0,.94-1.44,5,5,0,0,0-1.07-4.87Z" transform="translate(-0.1 0)"/><path class="cls-2" d="M228.67,72.58c-9.37,0-16.75-.59-22.29-3.49-1.37-.73-2.51-1.44-3.51-2.07a25.94,25.94,0,0,0-2.79-1.62V33.14h-20v8.17h11.15V65.73a42.09,42.09,0,0,0-11.64,8.33l-.24.23,6,8.25.32-.39c3.1-3.78,7.78-9.5,10.67-9.5,1.1,0,2.77,1,4.71,2.25,1.06.66,2.26,1.41,3.54,2.1,5.6,2.9,12.47,4.09,23.71,4.09,8.42,0,22.65-.51,29.27-1H258v-.35a29.38,29.38,0,0,1,2.43-8.47l.28-.62-.69.09A283.43,283.43,0,0,1,228.6,72.6m-33.78-47,.25.31,7-5.84-.27-.29a112.44,112.44,0,0,0-15-13l-.24-.17-6.67,5.12.38.3c4.81,3.82,11.41,9.69,14.51,13.54m7.49,35.65-.47.33.5.3a18.68,18.68,0,0,1,5.31,5.64l.21.37.35-.26c9.31-6.69,14.76-16.93,17.14-32.21h21.12c-.93,15.42-1.88,22.08-3.39,23.73a3.27,3.27,0,0,1-2.79.91c-1.57,0-5.29-.09-9.27-.43l-.76-.06.4.63a16.73,16.73,0,0,1,2.22,7.22v.36h.35c2.06.08,4,.12,5.68.12a53.56,53.56,0,0,0,5.37-.21,9.35,9.35,0,0,0,6.38-3.14c2.55-2.84,3.66-10.64,4.75-33.37.09-1,.17-3.27.18-3.37v-.39H226.37c.31-3.54.56-7.36.73-11.38h31.81V7.91H203.78V16h14.34c-.73,19.14-2.49,35.74-15.81,45.2" transform="translate(-0.1 0)"/><path class="cls-2" d="M314.75,14.77c2-3.6,4.13-8,6.12-12.56l.2-.45L310.21.05l-.35,0-.09.34a107,107,0,0,1-5,14.43h-24.1V79.93h8.86V23.37h54V69.64c0,1.17-.25,1.52-1.92,1.6s-7.57.09-13.48-.17h-.68l.32.59a29.16,29.16,0,0,1,2.77,8.06V80h.33c8.39,0,13.56-.23,16.93-1.41,3.32-1.41,4.62-3.9,4.62-8.87v-55Zm10.73,39.35H307.2V40.41h18.28Zm8.33-21.48H299V68.1h8.23v-6h26.61Z" transform="translate(-0.1 0)"/><path class="cls-1" d="M371.87,301.86a2.42,2.42,0,0,0,0-2.07,24.22,24.22,0,0,0-2.31-4.13c-.84-1.2-1.77-2.43-2.77-3.64a1,1,0,0,0-.29-.24,4.27,4.27,0,0,0-2.13-.51,4.21,4.21,0,0,1-1.5-.19.93.93,0,0,0-1.15.6,8.66,8.66,0,0,1-1.35-.07l-.27-.1a1.58,1.58,0,0,1-.5-.18l-.39-.14a1.28,1.28,0,0,0-.39,0h0a3.41,3.41,0,0,0-.9.06h-.28a1.83,1.83,0,0,0-1.26-.13,1,1,0,0,0-.41.18h-.36c0-.1-.29,0-.37,0a.7.7,0,0,0-.2.08h-.3a1.52,1.52,0,0,0-.6,0l-.93.05-2.47.17a.92.92,0,0,0-.54.07h-.08c-.62,0-2.11.1-5.69.45a.86.86,0,0,0-.39,0l-.77.07h0a4.32,4.32,0,0,0-1.39.13c-.78.08-15.61,1.79-18.81,2.2l-.26-.06a.81.81,0,0,0-.54.17l-3.09.42c-.73.13-2.34.41-4.38.73l-1,.17c-3.25.53-7.41,1.21-11.68,2-4.51.79-9.11,1.89-12.8,2.79-1.45.35-2.79.67-4,.94l-19.69,4.68-.47.11c-2.7.68-5.34,1.37-7.74,2a1,1,0,0,0-.35.07c-4.55,1.2-9,2.42-13.18,3.6h-.29a.81.81,0,0,0-.44.2h0c-3.09.88-6.07,1.73-8.89,2.55l-4,1.21-1.08.33c-2.92.87-6.62,2-10.41,3.17-5.61,1.73-11.46,3.61-14.94,4.73l-2.81.9c-2.82.92-6.87,2.28-9.82,3.37l-7.27,2.86a.92.92,0,0,0-.58.84c-.6.2-1.15.41-1.64.62a4,4,0,0,0-2.3.7h0a7.11,7.11,0,0,0-2.15.34,5.21,5.21,0,0,1-1.52.26,1.62,1.62,0,0,0-.62-.33,1.52,1.52,0,0,1-.36-.18.94.94,0,0,0-.89-.09,1,1,0,0,0-.56.7,4.23,4.23,0,0,0,.24,2.51,1.37,1.37,0,0,1-.13,1.15.91.91,0,0,0,.12,1l.18.16a.78.78,0,0,0,.17.26,1.05,1.05,0,0,0,.47.24,1.29,1.29,0,0,0,0,.48c.08.39,1.4,1.49,1.6,1.63a1.59,1.59,0,0,0,.81.34,1,1,0,0,0,.39.59,1,1,0,0,0,.7.14c.28,0,2.12.37,2.56.37a12.35,12.35,0,0,0,2.78-.32,21.7,21.7,0,0,1,2.39-.41,1,1,0,0,0,.55.4,1.67,1.67,0,0,0,1.5-.37l.49-.38c4-1.15,7.91-2.37,11.61-3.61s7.24-2.6,10.95-4.16a2.29,2.29,0,0,0,1.34-.2,5,5,0,0,1,1-.31,1,1,0,0,0,.37-.16,1,1,0,0,0,1-.68.7.7,0,0,0,.05-.25l8.15-2.64,2.26-1a45.86,45.86,0,0,1,6-2.31c2.87-.8,5.72-1.67,8.43-2.58q2.31-.73,5.25-1.6t5.94-1.58a.93.93,0,0,0,.36-.14,2.57,2.57,0,0,0,.6-.23l.26-.13.4-.19a33.64,33.64,0,0,0,5.48-1.49l.48-.17c1.13-.36,2.29-.69,3.48-1,.73-.2,1.48-.38,2.34-.6h.2l.48-.12q5.69-1.24,11.66-2.62c4-.92,8-1.86,11.91-2.82,2.08-.5,4.22-.94,6.35-1.31,1.93-.32,4-.78,6.07-1.34a1,1,0,0,0,.66.11c2.24-.43,4.39-.9,6.43-1.39a33.09,33.09,0,0,1,5.15-.83,1,1,0,0,0,.9.38c2.35-.36,4.62-.73,6.83-1.11a36.9,36.9,0,0,1,6.8-.52,95.6,95.6,0,0,1,10.54-1.4c2.52-.21,5.71-.18,7.82-.15H348a6.45,6.45,0,0,1,1.54.5l.86.34c.78.31,1.35.54,1.8.69.17.4.58.6,1.21.6h.23a1.94,1.94,0,0,0,.88.25,2.92,2.92,0,0,0,.37.24,1.58,1.58,0,0,0,.73.24,1.05,1.05,0,0,0,.43.48,2.46,2.46,0,0,0,1.69,0l.2.07a1.24,1.24,0,0,0,.45.46,1,1,0,0,0,.67.15c2-.28,4-.65,6-1.09a23.53,23.53,0,0,0,5.85-2.11.92.92,0,0,0,.49-.77,1.5,1.5,0,0,1,.05-.37l.39-.57a.68.68,0,0,0,0-1l0,0a.33.33,0,0,1,0-.14" transform="translate(-0.1 0)"/></svg>