<svg id="Layer_1" data-name="Layer 1" xmlns="http://www.w3.org/2000/svg" viewBox="0 0 566.93 326.72"><defs><style>.cls-1{fill:#6cb640;}.cls-2{fill:#3c1053;}</style></defs><path class="cls-1" d="M212.46,222.2c-.2-.19-.39-.1-.58.29a2.26,2.26,0,0,1,.87.28c.38.2.57.1.57-.28a1.18,1.18,0,0,1-.86-.29m3.75.14c.38-.48.38-.53,0-.14-.39.57-.39.62,0,.14m4,.15h.29v-.29h-.29Zm4.33-.15c-.19.29-.1.43.29.43a.24.24,0,0,1,.28-.28c.2,0,.2-.1,0-.29s-.38-.15-.57.14m-1.44-.14c-1-.19-1.3-.1-1,.29s.62.28,1-.29m4.32.29a1.37,1.37,0,0,1,.58.14,1.21,1.21,0,0,0,.58.14c.19-.38,0-.57-.43-.57s-.73.09-.73.29m-19.32.14c-.38-.09-.48.14-.28.72,1,0,1.44-.29,1.44-.86a1.64,1.64,0,0,1-1.16.14m2.31.29c0-.48-.1-.53-.29-.15.19.58.29.63.29.15m19.61-.15c.38,0,.58-.09.58-.28-.39,0-.58.09-.58.28m.86.15c0-.48-.09-.53-.28-.15.19.58.28.63.28.15m1.59.43c.48,0,.53-.19.14-.58a.24.24,0,0,0-.28-.28c-.2,0-.29.09-.29.28-.2.39,0,.58.43.58m-26.38.29q.57,0,.57-.87c-.57,0-.77.29-.57.87m-61.86,155a48.54,48.54,0,0,1-.72,6.2A35.39,35.39,0,0,0,147,398.1a14.94,14.94,0,0,0,9.52,7.79c.95-.19,1.77-.34,2.45-.43a7.35,7.35,0,0,1,2.45.14,6.71,6.71,0,0,1,1.15-1.73,9.54,9.54,0,0,0,1.15-1.44,14.09,14.09,0,0,0-.86-1.44,1.43,1.43,0,0,1,0-1.73c.38,0,.53.24.43.72s.05.72.43.72q.57-1.15,0-1.44a1.17,1.17,0,0,1-.57-1.16c-.2,0,0-.47.57-1.44q-.28-4.61-.14-9.08t.14-9.37a98.07,98.07,0,0,1,1.73-11.11,52.23,52.23,0,0,0,1.16-11.1q1.72-7.5,3-16.44T172.37,324c.39,0,.58-.24.58-.72s.19-.72.58-.72a137.29,137.29,0,0,1,18.74-3.89q9.53-1.31,18.75-1.88a5.8,5.8,0,0,1,5.19-1.87,19.16,19.16,0,0,0,5.19.14c.19-.76,0-1.1-.44-1s-.62,0-.43-.43a6.62,6.62,0,0,0,3.46-.43,4,4,0,0,1,3.75.43c.58-.19.67-.39.29-.58a.56.56,0,0,1-.29-.86c.39,0,.62.1.72.29s.34.19.72,0a1.75,1.75,0,0,1,1.16-1.16,11.82,11.82,0,0,1,1.73-.43,2.54,2.54,0,0,0,1.44-.72,2.82,2.82,0,0,0,.57-2,8,8,0,0,0-3.17-6.92,20.58,20.58,0,0,0-7.93-3.32,57,57,0,0,0-10.23-1.15c-3.66-.09-6.92-.14-9.81-.14q-2.88.28-6.2.72c-2.21.28-4.37.53-6.49.72a43.8,43.8,0,0,0-6.2,1,7.58,7.58,0,0,1-5.62-.72,36.87,36.87,0,0,0,1-3.75,20.58,20.58,0,0,0,.43-4.33c.38,0,.77-.67,1.16-2A120.64,120.64,0,0,1,186.94,267a68.74,68.74,0,0,0,4.47-20.62,1.3,1.3,0,0,0,.72-.87,1.26,1.26,0,0,1,.72-.86,84.19,84.19,0,0,1,22.49-4.76A207.5,207.5,0,0,1,241,239.5q.57.87,1.29.72a1.83,1.83,0,0,1,1.59.72,8.32,8.32,0,0,1-3.17,3.17,16.22,16.22,0,0,0-3.46,2.6c.38.57.72.72,1,.43a1.35,1.35,0,0,1,1-.43.46.46,0,0,1-.29.43q-.3.15,0,.72a11,11,0,0,1,2.59-.72,6.86,6.86,0,0,0,2.31-.72,1,1,0,0,1,0,1c-.19.29,0,.53.58.72a8.39,8.39,0,0,1,2.45-1.3,6.34,6.34,0,0,0,2.45-1.58,1.18,1.18,0,0,1-.29.86c-.19.19-.1.39.29.58.19-.77.48-1.2.87-1.3a2.58,2.58,0,0,0,1.15-.72,7.53,7.53,0,0,1,.14-1.73c.1-.38.24-1,.44-1.73a16.17,16.17,0,0,0-1.16-4.33,16.3,16.3,0,0,1-1.15-4.61,25.74,25.74,0,0,0-3.61-4.47,15,15,0,0,0-5-3.32,1.17,1.17,0,0,1-1.16.58c.39-.58.19-.91-.57-1s-1.16.05-1.16.43c0,.58.29.77.87.58s.76.1.58.86a3.11,3.11,0,0,1-1.59-.28,3.11,3.11,0,0,0-1.59-.29,1.2,1.2,0,0,1,.43-.72,1.4,1.4,0,0,0,.44-1,9.26,9.26,0,0,0-1.73-.58,8.11,8.11,0,0,0-1.73-.29c.19,1,.67,1.25,1.44.87s1.15-.1,1.15.86a1.91,1.91,0,0,0-1.58.15c-.68.28-1.4,0-2.17-.72-.38-.19-.53-.05-.43.43s-.05.53-.43.14a76.27,76.27,0,0,0-19.9-.28q-10.38,1.14-20.47,2A11.41,11.41,0,0,1,186.5,228a14.61,14.61,0,0,0-4.9,1.45,10.53,10.53,0,0,0-5.19.86,6.88,6.88,0,0,1-4.61.58,5,5,0,0,1-3.46,1.73,9.17,9.17,0,0,0-4,1.44c-.39,0-.48,0-.29-.15s.09-.14-.29-.14a.51.51,0,0,0-.57-.58c0,.39.09.58.29.58a.26.26,0,0,1,.28.29l-1,1a2.21,2.21,0,0,1-1.58.43,1.25,1.25,0,0,1,.58-1c.38-.29.28-.52-.29-.72a16.82,16.82,0,0,1-2.6,2.6c-1,.77-1.73.86-2.3.29a3,3,0,0,1,1.87-.73c.86-.09,1.2-.43,1-1a5.75,5.75,0,0,0-3.32,1.45c-1.25,1-2.36,1-3.31,0,0,.77-.25,1.2-.73,1.29a2.48,2.48,0,0,0-1.29.73,2,2,0,0,1,1.44.57,4.63,4.63,0,0,0-1.3.14c-.29.11-.34-.14-.14-.71a31.68,31.68,0,0,0-3.32,1.58,11.93,11.93,0,0,1-3.32,1.3.52.52,0,0,1,.58-.58c.39,0,.58-.29.58-.86l-1.16.57-1.15.58-.29.29c.39,0,.58.24.58.72s-.19.72-.58.72v-1.44h-.57q.28,1.72-.87,2.16a5.61,5.61,0,0,0-2,1.3,1.82,1.82,0,0,1,1.16-1.44,2.65,2.65,0,0,0,1.44-1.44c-.58.38-.91.48-1,.28s-.34-.28-.72-.28a16.49,16.49,0,0,1-1.3,2.16c-.48.67-.91,1.3-1.3,1.87.19,2.7.34,5.39.43,8.08A6.75,6.75,0,0,0,142.1,260a16.37,16.37,0,0,0,6.48-1.29q3-1.31,6.06-2.89a57.72,57.72,0,0,1,6.49-2.88,35.7,35.7,0,0,1,7.49-1.88,10.35,10.35,0,0,1-1.44,3.32,6.21,6.21,0,0,0-.86,4.18,3.35,3.35,0,0,0,1.3-3,2.7,2.7,0,0,1,1.29-2.74q-3.45,11.83-6.63,23.22t-6.05,24.36a6.28,6.28,0,0,1-1.45,5.05,4.23,4.23,0,0,1-4.32,1.3,8.92,8.92,0,0,1-2.31,1.73c-.76.39-1.63.86-2.59,1.44-.39,0-.63-.09-.73-.29s-.33-.09-.72.29a19.55,19.55,0,0,0,2.17,9.66,69.47,69.47,0,0,0,4.47,7.07Q149.3,335.82,148,345t-1.88,17.31a8.4,8.4,0,0,1-1,.43.66.66,0,0,0-.43.72,12.41,12.41,0,0,1,.29,4.61,20.48,20.48,0,0,1-.87,4,47.91,47.91,0,0,1,.15,6.49m68.92-153.85c.48-.38.91-.29,1.3.29,0,.39-.2.48-.58.29s-.58-.1-.58.29c-.57-.19-.62-.48-.14-.87m2.88-.29c.29,0,.53.2.72.58a.51.51,0,0,1-.57.58.92.92,0,0,1-.87-.58c.19-.38.43-.58.72-.58m5.05.29a.56.56,0,0,0,.86-.29c.19.39.05.68-.43.87s-.82.1-1-.29c0-.38.19-.48.58-.29m-3.75.29c.57-.58.86-.48.86.29h-.86Zm2.74-.15c-.1.49-.24.54-.43.15.38-.58.53-.62.43-.15m3,.15a2.43,2.43,0,0,1,2-.43c1,.1,1.54.33,1.74.72a4.85,4.85,0,0,1-3.75-.29m5.76.29a.25.25,0,0,0,.29-.29v.58c-.38-.19-.48-.29-.29-.29m-21.33-.29a.83.83,0,0,0,.57.29c0,.19,0,.29-.14.29s-.14.09-.14.28l-.29-.28Zm2.59-.15c1.15-.09,1.73.15,1.73.73a4.23,4.23,0,0,0-1.73-.15,5.44,5.44,0,0,1-1.73.15c0-.39.58-.62,1.73-.73m-6.92.73h1.16c0,.38-.49.57-1.45.57a.83.83,0,0,0,.29-.57m-1.44.72c0,.67-.1.62-.29-.15.19-.57.29-.52.29.15m-2.6,0c.19.29.1.43-.28.43a5.22,5.22,0,0,1-2.6.87c1-1,1.82-1.25,2.6-.87,0-.58.09-.72.28-.43m1.44.14c0,.58-.19.48-.57-.29.38-.38.57-.29.57.29m11.11,0c.09.2.14.1.14-.29-.19,0-.24.1-.14.29m31.57.72c-.39-.09-.67-.43-.86-1a6.57,6.57,0,0,1,1.3.15c.48.1.62.53.43,1.3a1.78,1.78,0,0,0-.87-.44M195,227c.29-.09.53.05.72.44-.19.57-.68.67-1.44.29A1.31,1.31,0,0,1,195,227m-3.6.73c1.15-.39,1.73-.1,1.73.86a1.06,1.06,0,0,0-1.45,0,3.49,3.49,0,0,1-2,.58c0-.58.57-1.06,1.73-1.44m2.3.28c0-.19.19-.28.58-.28,0-.2-.19-.1-.58.28m-7.49.87h.86v.58h-.86Zm-2.31,1c0,.48-.1.43-.29-.15.19-.38.29-.33.29.15m-5.77,1.3c0,.19-.29.29-.86.29,0-.19.28-.29.86-.29m-3.46.86c0,.58-.19.68-.58.29.39-.77.58-.86.58-.29m-3.17.58h.58v.58h-.58Zm-.29.57a6.78,6.78,0,0,1-2.88.87q.28-.87,2.88-.87m-4.61.87h.28v.87h-.28Zm-10.67,2.6c0,.57-.15.71-.44.43s-.14-.43.44-.43m-2,2.88c0-.38.38-.58,1.15-.58-.57.58-1,.77-1.15.58m15.14,11.39c.09-.48.43-.72,1-.72-.39.19-.53.57-.43,1.15s-.25.86-1,.86a5.29,5.29,0,0,0,.44-1.29m29.12,47a141.07,141.07,0,0,1,14.57-.14,97.6,97.6,0,0,1-12.26,1,65.15,65.15,0,0,0-12.83,1.58v-.86c-.39,0-.53.14-.43.43a.67.67,0,0,1-.15.72c-.58,0-1.06-.38-1.44-1.15-.58.39-1.11.72-1.59,1s-.91-.05-1.29-1q9.51-1.16,15.42-1.59m15.72-.14c1,0,1.44.29,1.44.86-1,0-1.44-.28-1.44-.86m2.59.29c0,.19.2.29.58.29,0,.19-.24.28-.72.28s-.53-.18-.14-.57c.19-.19.28-.19.28,0m2.6.29a3,3,0,0,1-1.73.28,1.25,1.25,0,0,1,1.73-.28m4.33.57a1.17,1.17,0,0,1-1.16.58c0-.38.38-.58,1.16-.58M180,300.63c-.49,0-.53-.19-.15-.58.38,0,.58.06.58.15s.09.14.29.14c0,.2-.25.29-.72.29m1-.29c0-.18.28-.29.86-.29,0,.2-.29.29-.86.29m-26.82,6.93a.51.51,0,0,1,.57-.58.51.51,0,0,1-.57.58m-5.19,2a1.58,1.58,0,0,1,1.29-.72,10.56,10.56,0,0,0,1.88-.43,2.15,2.15,0,0,1-1.59.58,2.14,2.14,0,0,0-1.58.57,6.73,6.73,0,0,1-2.89,1.45,10.46,10.46,0,0,1,1.16-1,2.84,2.84,0,0,1,1.73-.44m13.12,68.35c-.48.39-.54.39-.15,0q.87-.57.15,0m-18,6.63a.51.51,0,0,1,.58.58h-.58ZM204,223.2c-.48-.09-.63.05-.43.44,1,0,1.44-.1,1.44-.29a5.88,5.88,0,0,1-1-.15m18.89.29c-.2-.09-.29,0-.29.15.38,0,.48,0,.29-.15m-19.9.29c0-.67-.1-.72-.29-.14.19.77.29.82.29.14m-5.91.15c-.87,0-1.3.38-1.3,1.15a2.89,2.89,0,0,1,2.45-.58c.87.2,1.3-.09,1.3-.86a10.22,10.22,0,0,1-2.45.29m-2.74.29a1.32,1.32,0,0,0-1.44.86c.38-.38.72-.53,1-.43s.43-.05.43-.43m-5.77,2c.19-.57-.1-.86-.86-.86,0,1,.29,1.25.86.86m.87-.43c-.2-.09-.29-.05-.29.14.38,0,.48,0,.29-.14m-4.76.43c-.29-.38-.43-.38-.43,0,.57.39.72.39.43,0m-2,.58c-.1,0-.34.19-.72.58,1,.57,1.44.19,1.44-1.16-.38.39-.62.58-.72.58m1.44,0c.1,0,.15-.19.15-.58-.2.39-.25.58-.15.58m-3.89.58a.83.83,0,0,1-.29.57q.87,0,.87-.57Zm-1.3.57c.1-.57-.05-.57-.43,0,.19.58.33.58.43,0m-1.87.87q.57,0,.57-.87H177Zm-2.89.29c-.38,0-.57.1-.57.29.38-.39.57-.48.57-.29m-2.3.57h.57v-.29h-.57Zm5-.14c.09-.48,0-.53-.44-.14.19.57.33.62.44.14m-6.21,1h.58v-.87h-.58Zm3.18,0a.77.77,0,0,0,.86-.87.77.77,0,0,0-.86.87m-1.45,0c-.38-.39-.57-.29-.57.29.76.19,1,.1.57-.29m-4,.58h.28v-.29h-.28Zm-2.6.29a3.12,3.12,0,0,1-.58.86c1,0,1.45-.29,1.45-.86q-.59-.59-.87,0m3.46.28c-.19-.19-.29-.09-.29.29.39,0,.48-.09.29-.29m-2.59.58a12.81,12.81,0,0,1-1.59.43,2.12,2.12,0,0,0-1.3,1,9.53,9.53,0,0,0,2.89-1.44m-5.34.72q-.15.15.15.72c0-.38.09-.58.29-.58a.51.51,0,0,0-.58-.57c.19.19.24.33.14.43m-3,1.15c0-.67-.1-.72-.29-.14.19.77.29.82.29.14m-2.31.72a.94.94,0,0,1-.87.58.51.51,0,0,0-.57.58,3.57,3.57,0,0,0,1.29-.29q.72-.28.15-.87m-7.79,3.47H149v-.29h-.87ZM147,239.5v-.29c-.39,0-.58.1-.58.29Zm18.45,21.91c0-.76.19-1.19.58-1.29s.48-.62.29-1.59q-2,1.16-.87,2.88m-.29,1.73a.77.77,0,0,0,.29-.57.51.51,0,0,0-.57-.58c0,.77.09,1.15.28,1.15m-.72,1a1.22,1.22,0,0,0-.14.73c.38.19.58.05.58-.44s-.1-.72-.29-.72a.56.56,0,0,1-.15.43m-1.87,5.92a1,1,0,0,1,.14.86,2.12,2.12,0,0,0-.14.87c.38.19.58-.05.58-.73s-.2-1-.58-1m-5,19.89c.1-.76.15-.86.15-.28-.2,1-.25,1.05-.15.28m-.57,3.32c-.29.1-.43.24-.43.43.57.39.86.29.86-.29a2,2,0,0,0-.58-1.44c.38.77.43,1.2.15,1.3M149,332.93h.29v-.29H149Zm-.87,2v.29c.39.58.68.62.87.14s.09-.72-.29-.72c0,.2-.19.29-.58.29m.58,2.16c0-.67-.19-.72-.58-.14.39.77.58.82.58.14m-2.31,9.95h.87v-.58h-.87Zm-1.73,10.38c.77.39,1.15.34,1.15-.14s-.19-.72-.57-.72c0,.57-.19.86-.58.86m.58,1.88c0-.48-.19-.53-.58-.15.39.58.58.63.58.15m-1.59,12.83c-.29.39-.14.39.43,0,0-.38-.14-.38-.43,0m-.14,9.08c.38-.29.38-.43,0-.43-.39.58-.39.72,0,.43M289.31,313.9a5,5,0,0,0-2.74,1.44A38.57,38.57,0,0,0,283,301.07,49.62,49.62,0,0,0,275.61,290a.82.82,0,0,0,.28.58c.2.19.1.29-.28.29-.77-.38-.77-.87,0-1.44a1.93,1.93,0,0,0-.87-.87,1.14,1.14,0,0,1-.58-1.15,54.47,54.47,0,0,0-9.08-2.89,39.3,39.3,0,0,0-9.8-1,21.36,21.36,0,0,0-8.65,2,11.25,11.25,0,0,0-5.63,6.2c.2,0,.29-.09.29-.28a.26.26,0,0,1,.29-.29l.29-.29-.29.29c0,.38-.05.57-.14.57s-.15.1-.15.29a.89.89,0,0,0,1-.72c.09-.48.33-.53.72-.14a55.16,55.16,0,0,0-6.63,13,93.07,93.07,0,0,0-4,15.58,3.88,3.88,0,0,0-1.3,2.44c-.28,1.26-.23,2.07.15,2.46a21.92,21.92,0,0,1,.72-2.74c.29-.87.63-1.78,1-2.74a2.66,2.66,0,0,1-.29,2.74,1.56,1.56,0,0,0,0,2.16,1.05,1.05,0,0,0,.15-.86.47.47,0,0,1,.14-.58c0,1-.1,1.44-.29,1.44a64,64,0,0,1-1.73,11,22.3,22.3,0,0,0,0,11.25c.19,1,.34,1.83.43,2.59a11.06,11.06,0,0,0,.72,2.6,6.27,6.27,0,0,1-1.15-5.19c-.58-.39-.77-.29-.58.28s0,.78-.58.58c.39-.76.39-1.25,0-1.44a.92.92,0,0,1-.57-.87,11.32,11.32,0,0,0,0-3.6,17.59,17.59,0,0,1,0-4.47,48,48,0,0,1,1-6.34,15.92,15.92,0,0,0,.43-5.48A64.91,64.91,0,0,0,228.89,335a58.45,58.45,0,0,0,0,11.53,20.31,20.31,0,0,0,4.33,8.08q2.88,3.18,6.05,6.05a10.14,10.14,0,0,0,6.35,4,42.43,42.43,0,0,0,8.94.87c0-.58.09-.87.28-.87.39,0,.48.25.29.72s-.1.53.29.15a26.61,26.61,0,0,0,7.21-2.6,64,64,0,0,0,6.06-3.75c0-.38.09-.62.29-.72s.18-.43,0-1c.76.58,1.87,0,3.31-1.73s2.55-3.07,3.32-4a39.33,39.33,0,0,0,2.74-5.33,19.24,19.24,0,0,1,2.73-4.76,2.32,2.32,0,0,0-.43-1.44c-.28-.38-.14-.67.43-.87.2-.76.39-1,.58-.72s.48.25.87-.14a15,15,0,0,1,.29-2.74,9,9,0,0,1,1.15-3c.19,0,.24.15.14.43s-.05.44.15.44v-2.6A102.49,102.49,0,0,0,300,321.54q7.36-5.32,14-10.81a1.94,1.94,0,0,1,.15-.87c.09-.19.23-.48.43-.87a.71.71,0,0,0,1.15,0,2,2,0,0,1,1.44-.57c.19-.58,0-.77-.57-.58s-.87,0-.87-.57q1.44.28,1.59-.72a2.09,2.09,0,0,1,1.29-1.59h-.86c0,.58-.2.68-.58.29a.83.83,0,0,1,.58-.29,2.61,2.61,0,0,1,1.87-1.44,2,2,0,0,0,1.59-1.74.26.26,0,0,1,.29.29c0,.2.29.2.86,0,.19-.38.05-.52-.43-.43s-.63,0-.43-.43a2.51,2.51,0,0,0,1.73-.87q.57-.57,0-1.44a4.33,4.33,0,0,0,1.3-.14,2.74,2.74,0,0,0,1-.72c-.38-.38-.81-.29-1.29.29s-1,.57-1.59,0a1.92,1.92,0,0,0,1.44-.58c-.57,0-.86-.48-.86-1.44A12.88,12.88,0,0,0,318,298.9c-.39-.38-.77-.33-1.15.15a16.87,16.87,0,0,1-1.16,1.29,8.07,8.07,0,0,0-5.48,2,11.2,11.2,0,0,1-5.48,2.6v.86c-.39-.38-.77-.28-1.15.29a1.47,1.47,0,0,1-1.73.58c.19.58-.39,1.25-1.73,2-.39,0-.48-.24-.29-.72s.1-.72-.29-.72a8.12,8.12,0,0,0-1.15,2c-.39-.38-.82-.24-1.3.44s-1,.82-1.58.43a.66.66,0,0,1-.44.72,1.33,1.33,0,0,0-.72.72c-.39,0-.57-.14-.57-.43s-.2-.33-.58-.15a4.39,4.39,0,0,0-.87,1.16c-.19.39-.48.39-.86,0a2.71,2.71,0,0,1-2.16,1.73M244.9,291c.09-.48.43-.72,1-.72q-3.18,5.19-5.63,9.52a77.9,77.9,0,0,0-4.76,10.38q-.57-1.44.87-4a13.65,13.65,0,0,0,1.73-4.9,19.77,19.77,0,0,0,2.88-5.77q1.44-4,3.18-4.32v.57q.57,0,.72-.72m18.88,2.45a2,2,0,0,1-1.15-2,4.61,4.61,0,0,1,2.74,2.3,4.79,4.79,0,0,1,.72,4,2.44,2.44,0,0,1-.72-1.15,2.2,2.2,0,0,0-1-1.16c.58,1.16,1.1,2.22,1.59,3.17s.91,1.93,1.3,2.89a3.1,3.1,0,0,0,0-2.6,3.71,3.71,0,0,1,1.73,2.74,5.12,5.12,0,0,0,1.44,3c.19,1.35.38,3,.57,4.9s.29,3.85.29,5.77a25.51,25.51,0,0,1-.57,5.48,10,10,0,0,1-1.73,4c-.2-1-.15-1.59.14-1.88a2.78,2.78,0,0,0,.43-1.87c-1,.19-1.35,1-1.15,2.31s-.29,2-1.44,2c0,.77-.1,1.16-.29,1.16-.39,0-.48-.1-.29-.29a.83.83,0,0,0,.29-.58c-.77.2-1,.54-.72,1s-.05.63-1,.43c0,.39-.15.39-.43,0s-.15-.38.43,0v-.57h.29c-.78,0-1.16.14-1.16.43a1.57,1.57,0,0,1-.57,1v-.58c-.78,0-1.26.15-1.44.43a4,4,0,0,1-1.45,1c.19.39.38.54.58.44l-.29.14a8.84,8.84,0,0,0-5.77,1.59,8.09,8.09,0,0,1-6.92.72,19.58,19.58,0,0,1-.43-13.41q2.16-6.5,3.89-11.39a84.37,84.37,0,0,1,4.76-7.93q2.44-3.6,5.34-7.07a2.65,2.65,0,0,1,1.73,1.73,3.48,3.48,0,0,0,.86,1.73c.38-1,.19-1.63-.58-2m57.39,4.33c.58-.38.67-.38.29,0s-.48.39-.29,0m-54.5.86c.19-.38.29-.33.29.15s-.1.43-.29-.15m51,.87c0,.19-.2.29-.58.29,0-.19.19-.29.58-.29m.86.86c-.38,0-.48.05-.28.15s.28.05.28-.15m-.86.29c.19-.38.29-.33.29.15s-.1.43-.29-.15m-3.46.58c0-.38.29-.58.86-.58,0,.39-.28.58-.86.58m-.29.29c0-.19-.19-.1-.58.28,0-.18.19-.28.58-.28m-2.3.28h.57v.58h-.57Zm-1.73,1.74.28-.29h.29c.19.19,0,.29-.57.29m-1.16,0h.58v.57h-.58Zm-.58,1.15h0m-69.21,0q-.57.29-.57.72c0,.29-.19.43-.58.43,0-.57.39-1,1.15-1.15m68.35.29a.26.26,0,0,1-.29.29c-.19,0-.1-.1.29-.29m-71.81,7.5a14.72,14.72,0,0,0,.87-3.32,3.65,3.65,0,0,1,1.73-2.74,7,7,0,0,0-1.44,3.46,9.06,9.06,0,0,1-1.16,3.46v-.86c-.76.19-1.05.14-.86-.15s.48-.24.86.15m64-3.47H299a.25.25,0,0,1,.28-.28.26.26,0,0,1,.29.28m-4.76,3.75a4.48,4.48,0,0,0,.15-1.15c.58,0,.72.1.43.29a1,1,0,0,0-.43.86q-.3.58-.15,0m-60,.29c.1.19,0,.29-.14.29,0,.39-.1.58-.29.58a1.3,1.3,0,0,1-.29,1.44c-.38-.19-.43-.38-.14-.58s.34-.47.14-.86h.29c0-.39.1-.58.29-.58,0-.38.05-.48.14-.29m1,.87c0,.58-.09.58-.29,0,.2-.58.29-.58.29,0m-.72.29c-.48.38-.53.38-.14,0,.57-.39.62-.39.14,0m-.14,1.44c0-.77.28-1.15.86-1.15a10.74,10.74,0,0,0-.29,2.59q-.57-.29-.57-1.44m-.87,5.48a4.64,4.64,0,0,1-.29-2.74,12.18,12.18,0,0,0,.29-2.74c.39,0,.48.29.29.86a5,5,0,0,0-.29,1.16c0,.38,0,.43.15.14s.33-.33.72-.14a7.61,7.61,0,0,0-.87,3.46m-.86-2.6c-.19.39-.34.29-.43-.29s0-.76.43-.57c0,.19-.05.28-.15.28s0,.2.15.58m37.49,4c0-.19.19-.29.57-.29,0-.19-.19-.09-.57.29m-8.94,6.92c-.39-.19-.49-.43-.29-.72a1,1,0,0,1,.86-.43,1.66,1.66,0,0,1-.57,1.15m-15.14,26.68a1,1,0,0,1-1.3.43q-3.18-3.18-3.32-8.8a68.71,68.71,0,0,1,.43-10.23,26.47,26.47,0,0,0,6.78,3,27.46,27.46,0,0,0,8.22,1.3,3.46,3.46,0,0,0,2,0c.58-.19,1.05.1,1.44.86a.93.93,0,0,0,.87-.57.91.91,0,0,1,.86-.58c-1,1.54-1.88,3.08-2.74,4.62a27,27,0,0,1-2.74,4h-.29a.25.25,0,0,1-.29.29l.29-.29a14.8,14.8,0,0,1,2.16-3.17,6.63,6.63,0,0,0,1.59-3.75,40.38,40.38,0,0,1-5.19,7.21A28,28,0,0,1,248.5,356c.38,0,.43.19.14.58s-.33.19-.14-.58a.46.46,0,0,0-.43.29.48.48,0,0,1-.44.29c0,.39-.14.39-.43,0s-.14-.39.43,0c-.38-.77-.72-.91-1-.43m-15.15-16.73c0,.48-.09.53-.28.14.19-.57.28-.62.28-.14m47.44,4.76a1.22,1.22,0,0,0,.15-.58c.19,0,.29.15.29.43a1,1,0,0,1-.29.72h-.29c.19.39.14.49-.14.29s-.25-.29.14-.29a1.23,1.23,0,0,1,.14-.57m-49.17,3.17q.87,0,.87,1.44c-.58,0-.87-.47-.87-1.44m26.1,4c-.67.57-.72.57-.14,0v-.58c.76-.19.81,0,.14.58m-3,2.88c0,.39-.1.48-.29.29s-.1-.29.29-.29m-1,.29c.09.19,0,.29-.15.29a.5.5,0,0,1-.57.57v-.57h.57c0-.39.05-.48.15-.29m-11.25-62.29c.29.39.43.29.43-.29v-.29c-.58,0-.72.2-.43.58m3-.29c0,.39.14.49.43.29s.34-.38.15-.58Zm18.74,1.44c-.39.39-.57.49-.57.29.38,0,.57-.09.57-.29m60.85,2.89c.38,0,.43-.15.14-.44s-.34-.14-.14.44m-55.94,5.19a10.82,10.82,0,0,0,1.44,4.32,3.58,3.58,0,0,0-1.44-4.32m1.44,4.32q.29,2.6.72,6.92a17.18,17.18,0,0,1-.72,7.5,2.33,2.33,0,0,0,1.44.87c-1.15-.77-1.35-1.63-.58-2.6a.94.94,0,0,1,.58.87q0-2.6-.29-6.2c-.2-2.4-.29-4.66-.29-6.78-.19-.38-.29-.47-.29-.29s-.19.1-.57-.29m1.44,3.17c.19.58.29.63.29.15s-.1-.53-.29-.15m21.19,2.75c-.28.28-.24.43.15.43.19-.58.14-.72-.15-.43m-59.26,13.12a.79.79,0,0,1-.14,1c-.29.28-.24.53.14.72a1.2,1.2,0,0,1,.29-.87c.2-.19.1-.48-.29-.86M230.91,329a2.17,2.17,0,0,0,.29,1.87,2.46,2.46,0,0,1,.28-2,.92.92,0,0,0-.28-1.44,6.27,6.27,0,0,1-.29,1.59m-.43,3.6c-.29.39-.24.68.14.87a2.64,2.64,0,0,0,.43-1.44c.1-.77,0-1.06-.43-.87a1.46,1.46,0,0,1-.14,1.44m53.49,1.3q-.59-.44,0,.72.57-.29,0-.72m-54.22,1c.58.39.87.34.87-.14s-.29-.63-.87-.44Zm53.64-.29a.29.29,0,0,0,0,.58.26.26,0,0,1,.29-.29l.29-.29Zm-53.64,1.73c.58,0,.73-.14.44-.43s-.44-.14-.44.43m0,.72c.39.48.58.44.58-.14-.38,0-.48-.05-.29-.15s.1-.23-.29-.43q-.57,0,0,.72m0,1.3.29.86c-.19-.57-.33-1-.43-1.29s-.14-.24-.14.14Zm51.62,2a5.87,5.87,0,0,0,.44-1.16c.09-.38-.15-.38-.73,0,.39.78.48,1.16.29,1.16m-51.9-.29h.29v-.58h-.29Zm0,3.17c.38.39.57.2.57-.58s-.19-1.05-.57-.86Zm.86,1.59c0-.67-.19-.72-.58-.15.39.78.58.82.58.15m77.86,20.62a10.15,10.15,0,0,0,3.75,3.17,14.36,14.36,0,0,0,4.91,1.44,40.89,40.89,0,0,0,4.32.29,4.83,4.83,0,0,0,.86-2.16,4.45,4.45,0,0,1,.58-1.88q.57-.28.72.15c.1.28.43.24,1-.15a19.46,19.46,0,0,0,2.16-7.5,31.15,31.15,0,0,1,1.59-7.49v3.46c0,1,0,1.1.14.43a11.41,11.41,0,0,0,.15-1.59c.38-1.73.67-3.26.86-4.61a42,42,0,0,1,.87-4.33,12.44,12.44,0,0,0,.57-3.17,9.66,9.66,0,0,1,.58-2.88c0,1,.1,1.44.29,1.44a17.87,17.87,0,0,1,1.3-6.49,23.36,23.36,0,0,0,1.58-5.91,190.43,190.43,0,0,1,9.95-25.38A73.35,73.35,0,0,1,359.52,281a1.91,1.91,0,0,0,1.45-1c.18-.47.76-.72,1.73-.72A5.55,5.55,0,0,1,363,281a2,2,0,0,0,.58,1.44.81.81,0,0,0-.14-1c-.29-.29-.25-.53.14-.72a35.19,35.19,0,0,1,1.88,8.07c.28,2.69.62,5.48,1,8.36.58-1,1.16-1.49,1.73-1.58s1-.73,1.16-1.88c.19,0,.24.15.14.44s0,.43.43.43a.57.57,0,0,0,.29-.87c-.19-.38-.1-.58.29-.58.38-.18.48,0,.29.44s-.1.72.29.72a2.32,2.32,0,0,0,.14-1.44,1,1,0,0,1,.43-1.16v.87c0,.39.19.48.58.29.19-1,.44-2.17.72-3.61s.82-2,1.59-1.58a6.69,6.69,0,0,0-.14-1c-.11-.48-.05-.72.14-.72.38,0,.48.24.29.72s-.1.72.28.72v-2.31a3.06,3.06,0,0,1,.58-1.73,11.41,11.41,0,0,0-3.31-7.64,16.1,16.1,0,0,0-7.21-4.18,22.45,22.45,0,0,0-8.8-.58,16.53,16.53,0,0,0-7.79,2.89,5.68,5.68,0,0,0,.15,1c.09.49,0,.72-.43.72-.39-.19-.44-.47-.15-.86s.24-.58-.14-.58c-1.54,1.73-3.13,3.42-4.76,5a63.61,63.61,0,0,0-4.76,5.33c.19.58.15,1-.14,1.16s-.24.38.14.58a.59.59,0,0,1,.15-.44c.09-.09.14.05.14.44h-.29a5.38,5.38,0,0,0-.43,1.15c-.1.39-.43.58-1,.58q-.58-.58.15-.87c.47-.19.72-.48.72-.86a23.43,23.43,0,0,0-5.34,8.36,25.83,25.83,0,0,1-5.05,8.36,11.72,11.72,0,0,0-.57-5.34,20.28,20.28,0,0,0-2.31-4.18,13,13,0,0,0-2.45-.29,4.23,4.23,0,0,1-2.45-1.15,1.44,1.44,0,0,1-2.31,0,16.26,16.26,0,0,1-2.88,1.88c-1,.48-1.92,1-2.88,1.58-.39.58-.34.92.14,1s.62.34.43.72q-1.44,13.84-2.74,27.11t-2.16,28.26c-.38-.19-.48,0-.29.43s.1.63-.29.43a8.43,8.43,0,0,1,.58,3.61c0,1.64-.19,2.64-.58,3a9.28,9.28,0,0,0,1.44,5.48m36.92-87.38c0,.39-.05.58-.15.58s0-.19.15-.58m-4.33,5.05c.19.1.1.14-.29.14,0-.19.1-.24.29-.14m-4.9,6.77a.81.81,0,0,0,.29-.57c0-.19.19-.29.57-.29a.85.85,0,0,0-.29.58c0,.19-.19.28-.57.28M334,293.13c.1-.38.34-.47.72-.28a.62.62,0,0,1-.14.43.58.58,0,0,0-.15.43c-.38,0-.53-.19-.43-.58m34.32,1.73c-.1.58-.24.58-.43,0,.38-.57.52-.57.43,0m-56.09,8.8q-.28-.14,0-.72c.39,0,.58.29.58.86s-.19.87-.58.87a.82.82,0,0,1,.43,1q-.14.72-.72.72a3.88,3.88,0,0,0,.29-1.73c.19-.58.19-.91,0-1m15.86,1c0-.38.29-.58.87-.58,0,.39-.29.58-.87.58M311.94,307c.39,0,.53.19.43.57a4.4,4.4,0,0,0-.14.87,2.28,2.28,0,0,1-.29-1.44m0,2.3c-.76.58-.76.49,0-.29v-.28q1.15-.29,0,.57m-.43,2.17a6.41,6.41,0,0,0,.15-1.3c.38.19.53.43.43.72a5.62,5.62,0,0,0-.15,1.59.83.83,0,0,1-.43-1m-.14,2.16a1.18,1.18,0,0,0,.29-.87c.38.39.38.63,0,.73s-.39.24,0,.43c-.39,0-.48-.1-.29-.29m-.58,2.6a1.88,1.88,0,0,0,0-2c1,.19,1.2.72.72,1.58a4.76,4.76,0,0,0-.72,2.16c-.39-.38-.39-.95,0-1.72m-.58,4.75c.19-.09.29-.33.29-.72.19,0,.29.34.29,1s-.19.92-.58.72c-.19-.57-.19-.91,0-1m0,3.32a1.87,1.87,0,0,0,0-1.44c.39,0,.53.39.43,1.15a16.75,16.75,0,0,0-.14,1.73,1.45,1.45,0,0,1-.29-1.44m-.14,2.6c-.48.38-.53.19-.15-.58.58,0,.63.19.15.58m-.43,3.75a4.91,4.91,0,0,1-.29,1.15v-.87c.19-.38.29-.47.29-.28m-.29,2.59c.38,0,.57.29.57.86-.38,0-.57-.28-.57-.86m-.44,3.6a3,3,0,0,0,.15-1c.39-.39.53-.15.43.72s-.33,1.29-.72,1.29a3.42,3.42,0,0,1,.14-1m.29,1.73c-.09.49-.24.54-.43.15.39-.58.53-.62.43-.15m-.43,1c0-.18.19-.29.58-.29,0,.2-.19.29-.58.29m-.43,3.61a10.58,10.58,0,0,0,.43-2.74,3.06,3.06,0,0,1,.14,2.45,5.38,5.38,0,0,0-.14,2.74,2.35,2.35,0,0,1-.43-2.45m.14,4c0,.48-.09.43-.29-.15.2-.38.29-.33.29.15m-.14,1.58c.1-.19.05-.29-.15-.29.39-.18.58-.09.58.29a.26.26,0,0,0-.29.29c-.19,0-.24-.09-.14-.29m-.29,2.6a1.57,1.57,0,0,0,.14-1.45c.2,0,.29.49.29,1.45q.3.57,0,.57c-.19,0-.29.2-.29.58a10.11,10.11,0,0,0,.15,1.73c.1.58.05,1-.15,1.15a1.1,1.1,0,0,1-.28-1.29c.19-.48.09-.82-.29-1a3.78,3.78,0,0,1,.43-1.73m-.43,5.19c.38-.39.57-.34.57.14s-.19.63-.57.43Zm.43,3c-.29.67-.24.53.14-.44.2-.38.15-.24-.14.44m55.8-76.14c.19-.67.09-.81-.29-.43,0,1,.09,1.11.29.43m-52.77,12.4c0-.47-.1-.43-.29.15.19.39.29.34.29-.15m-2.74,36.77c.1-.76.05-.86-.15-.28,0,1,.05,1.05.15.28m-.15,4.91a5.46,5.46,0,0,1,.29-1.73,1.3,1.3,0,0,0-.29-1.45,2.5,2.5,0,0,0,0,3.18m-1,4.9a.81.81,0,0,0,.15,1.15,1.17,1.17,0,0,1,.29-1.3c.38-.48.19-.72-.58-.72.39.2.43.49.14.87m-.28,3a3.18,3.18,0,0,1-.15,1.58c.2.2.2.53,0,1s-.09.82.29,1v-2.31a2.1,2.1,0,0,0,.43-1.15c.1-.58,0-1-.43-1.16a1.33,1.33,0,0,0-.14,1m.14,7.06c0-.58-.09-.58-.29,0,.2.58.29.58.29,0m-.43,3.89c-.1.68-.05.82.14.44,0-.19.05-.68.15-1.45s.05-1-.15-.57a11,11,0,0,1-.14,1.58m0,1.73c-.29.29-.24.92.14,1.88.2-1.54.15-2.16-.14-1.88m67.62-54.07c.19,0,.29.29.29.87-1-.39-1.49,0-1.59,1.15a3,3,0,0,0,.43,2.31c0-.77.29-1.15.87-1.15a2.88,2.88,0,0,0-.29,1.29,1.77,1.77,0,0,1-.58,1.3c-.38,0-.52-.24-.43-.72s0-.72-.43-.72a6.15,6.15,0,0,0,0,3.75,1.18,1.18,0,0,0-.29.86.92.92,0,0,1-.58.87,19.78,19.78,0,0,1-.14,7.21,9.56,9.56,0,0,0,.14,5.48,1.88,1.88,0,0,0,.15-1.88c-.29-.67,0-1.2.72-1.58a39.33,39.33,0,0,0-.15,5.62,4.82,4.82,0,0,1-1.29,3.89q.29-1.44.57-3a2.61,2.61,0,0,0-.57-2.45,11.3,11.3,0,0,0-.29,4.76,11.29,11.29,0,0,1-.29,4.76c.19.77.39,1.2.58,1.3s.19.53,0,1.29c-.39,0-.58-.18-.58-.57a.51.51,0,0,0-.58-.58.66.66,0,0,0,.43.72.67.67,0,0,1,.44.72,86.15,86.15,0,0,0-1.16,14.71,12.22,12.22,0,0,0-.14,3.32c.1,1.25.14,2.35.14,3.31a21.87,21.87,0,0,0,.58,2.31,6.47,6.47,0,0,1,.29,2c0-.58.19-.87.58-.87q0,.58-.15.72a1.22,1.22,0,0,0-.14.73,9.4,9.4,0,0,1,4.32,3.17,4.41,4.41,0,0,1,1.44.14,2.91,2.91,0,0,0,1.16.15,14.87,14.87,0,0,0,3.46,2,5.86,5.86,0,0,0,4,.28,3.87,3.87,0,0,0,2.31-1.3,1.87,1.87,0,0,1,2.31-.43,37.49,37.49,0,0,0,10.09-14q3.47-8.22,7.21-16.59c.39.2.53.06.43-.43s.05-.72.44-.72a94,94,0,0,1,.72,9.52,61.4,61.4,0,0,0,1,9.8.83.83,0,0,0-.29-.57c-.39-.39-.58-.29-.58.28a2.25,2.25,0,0,1,.87,2c.38.39.62.48.72.29s.33-.29.72-.29c-.19.77-.1,1.21.29,1.3a1.31,1.31,0,0,1,.86.72,56.43,56.43,0,0,1,7.07,3.89,13.22,13.22,0,0,0,8.22,1.88,18,18,0,0,0,7.49-5,35.16,35.16,0,0,0,5.2-8.22,63.17,63.17,0,0,0,4-8.5c1.16-3,2.21-5.81,3.18-8.51a70.56,70.56,0,0,0,3.31-11.82c.87-4.42,1.77-8.65,2.74-12.69A1.66,1.66,0,0,0,453,311a3,3,0,0,0,1-2.88c-.1-1.34-.24-2.78-.43-4.33.38,0,.58-.09.58-.28q-.3-4.9-.15-9.66a20.5,20.5,0,0,0-1.58-8.8v1.16c0,.38-.2.48-.58.28a7.17,7.17,0,0,1,.29-2.59,4.28,4.28,0,0,0-1.3-1c-.29-.1-.43-.62-.43-1.59a9.1,9.1,0,0,0-2.88-2c-1-.38-2-.76-3.18-1.15-.38.77-.67,1.06-.86.87v-.87a2.32,2.32,0,0,0-1.45.29,3.5,3.5,0,0,1-1.44.58v.28a1.34,1.34,0,0,0,1.3.43c.48-.09.62.34.43,1.31-.19,0-.34-.19-.43-.58s-.14-.19-.14.58c.19,0,.19.09,0,.28-.2.77-.15.87.14.29s.43-.67.43-.29a19.06,19.06,0,0,1-.43,4,9.81,9.81,0,0,0-.14,3.75,3.19,3.19,0,0,0,.57-3.17c.58.38.82.24.73-.44s0-1,.43-1a45.9,45.9,0,0,0-.72,6.35,11.21,11.21,0,0,1-1.88,5.77,3.49,3.49,0,0,1,.44-2,3.56,3.56,0,0,0,.43-2c-.77,0-1,.34-.58,1s.1,1.11-.86,1.29a1.36,1.36,0,0,1,.43-1c.29-.29.14-.53-.43-.73a3.5,3.5,0,0,0-.15,2.6A2.79,2.79,0,0,1,440,298c-.2.77-.15,1,.14.57s.43-.38.43,0q-2.6,12.7-5.19,23.79a121.43,121.43,0,0,1-7.5,22.06c0,.39-.28.58-.86.58,0-.38.29-.58.86-.58a27.42,27.42,0,0,1,2-6.34,26.12,26.12,0,0,0,2-6.92,3.58,3.58,0,0,1-.29,1.3c-.19.48-.38.53-.57.14a1.37,1.37,0,0,0,.43-1.3,1.37,1.37,0,0,1,.43-1.29,16.55,16.55,0,0,0,.87-3,6.37,6.37,0,0,1,1.15-2.74c-.19,1-.39,1.83-.58,2.6s-.38,1.63-.57,2.59c.38-1,.76-2.11,1.15-3.46a30.3,30.3,0,0,0,.86-4,1.44,1.44,0,0,0-.28,1c0,.48-.29.82-.87,1a10.41,10.41,0,0,1,.87-3.17,8.11,8.11,0,0,0,.57-3.46q-2.31,8.07-4.47,15.43a76.91,76.91,0,0,1-5.62,14,76.26,76.26,0,0,1-.29-11.39q.29-5.33.29-11.1a8,8,0,0,0-.29-2.17,6.82,6.82,0,0,1-.29-1.87c0-2.31.05-5,.15-8.22a18.16,18.16,0,0,0-1.88-8.79,6.09,6.09,0,0,0-6.05-2.31,48.58,48.58,0,0,1-7.5.58c-.19.39-.63.57-1.3.57h-2.16a23.18,23.18,0,0,0-6.06,9.52q-2,5.78-4.32,11.54c-1.73,3.84-3.37,8-4.9,12.54a78.68,78.68,0,0,1-5.48,12.54q.57-12.68,1.59-23.93t2.16-24.23a4.18,4.18,0,0,1-.72-3.45,2.87,2.87,0,0,0-.73-2.89V292a12.45,12.45,0,0,0-.28-2.3,6,6,0,0,0-5.63-.73q-3.32,1-6.77,2.17a1.29,1.29,0,0,0,.86.72c.38.1.48.43.29,1,.38,0,.53.24.43.72s-.24.72-.43.72v-1.44a33.83,33.83,0,0,0-1,3.75,5.89,5.89,0,0,0,.14,3.45c-.19,0-.28,0-.28-.14s-.19-.14-.58-.14a6,6,0,0,1-.29,2.16,4.29,4.29,0,0,0-.29,1.59c.39.39.68.57.87.57m68.63-21.77c.19.1.29.05.29-.14-.39,0-.48.05-.29.14m1.44-.14h-.58c0-.39.1-.58.29-.58s.29.19.29.58m-.58,1.29c0,.49-.09.44-.28-.14.19-.38.28-.33.28.14m0,7.94c.2-.58.29-.58.29,0s-.09.57-.29,0m-3.17,4.18c0,.48-.09.43-.28-.15.19-.38.28-.33.28.15m2.6.86c0,.68-.19.72-.58.15.39-.77.58-.82.58-.15m-2.45.87c-.1-.48.14-.62.72-.44,0,1-.39,1.35-1.15,1.16.38,0,.52-.24.43-.72m1.58.43h.87V298h-.87Zm-.14,2q-.72.59-.15,0,.87-.57.15,0m-67.77,2.45a4.75,4.75,0,0,0,.43-1.88,1.86,1.86,0,0,1,.15,1.88,4.31,4.31,0,0,0-.43,1.58,1.31,1.31,0,0,1-.15-1.58m29.56,3a2.63,2.63,0,0,1,1.44-1.45,163.18,163.18,0,0,0-9.08,20.48q-3.9,10.67-7.93,21.05a11.14,11.14,0,0,1,1.44-5.48,18.94,18.94,0,0,0,2-5.48c-.58.39-.68.29-.29-.29a1.45,1.45,0,0,0,.29-1.44h.29c0-.57.09-.86.28-.86a.51.51,0,0,1,.58-.58c0-.76.1-1.15.29-1.15a1.66,1.66,0,0,1-.29,1.15.51.51,0,0,1-.58.58c0,.58-.09.86-.28.86q.28.58,0,.72c-.2.1-.29.44-.29,1a12.79,12.79,0,0,0,2-5.19c-.39.39-.48.29-.29-.29a4.74,4.74,0,0,0,.29-1.44h.28c-.19-.57-.14-.72.15-.43s.24.43-.15.43a2.12,2.12,0,0,1-.14.87,1.94,1.94,0,0,0-.14.86,79.71,79.71,0,0,0,3.89-9.95,78.45,78.45,0,0,1,3.89-10c-.38,0-.53.2-.43.58s-.05.58-.43.58a1.94,1.94,0,0,1-.58,1.44q-.29,0,0-.72c.19-.48.39-.72.58-.72.19-.58.33-1.06.43-1.45s.43-.67,1-.86v.29c.76-.58.91-.91.43-1s-.43-.43.15-1h.29l-.29.29a2.84,2.84,0,0,0,1.15-1.44m-30,1.15v-.58c.39-.18.58.11.58.87h-.58Zm.86.58c.39-.19.58-.05.58.43s-.19.53-.58.14Zm-2.3,8.36c.19-1.15.39-2.78.57-4.9a9.18,9.18,0,0,1,.15,4.47q-.44,3-.72,5.33a20.68,20.68,0,0,1,0-4.9m2.16-3.6c.1.48-.05.53-.43.14.19-.58.33-.62.43-.14m24.22,2a7.1,7.1,0,0,1,1-1.29c.39.38.29.76-.29,1.15a1.17,1.17,0,0,0-.57,1.44,1,1,0,0,1-.15-1.3m-.14,1.59c.38,0,.48.14.29.43s-.39.44-.58.44c0,.57-.1.86-.29.86.19.77.15,1-.14.72s-.24-.53.14-.72c0-.58.1-.86.29-.86a1.18,1.18,0,0,1,.29-.87m-1,2.74c.29.29.15.53-.43.72v.58c0,.57-.1.86-.29.86,0,.39-.1.58-.29.58,0-.38.1-.58.29-.58,0-.57.09-.86.29-.86v-.58c0-.77.14-1,.43-.72m-25.23,4.76c-.58,0-.77-.34-.58-1a3.31,3.31,0,0,1,.58-1.3.8.8,0,0,1,.14,1.16,1,1,0,0,0-.14,1.15m24.22-1.44a5,5,0,0,0-.43,1.29,2.52,2.52,0,0,1-.72,1.3l-.29.29c.19.77.14,1-.14.72s-.25-.53.14-.72l.29-.29c0-1.34.38-2.21,1.15-2.59m-23.65,2.88h.87v1.15h-.87Zm.15,2.6c.1.19,0,.28-.15.28,0-.38.05-.48.15-.28m-.58,5.19c.1.19.05.29-.14.29,0-.39.05-.48.14-.29m60.7.14c0,.48-.09.53-.28.15.19-.58.28-.63.28-.15m-61.71,1c0,.19-.19.29-.57.29a.83.83,0,0,1,.57-.29m59.41.58c0,.57-.2.67-.58.28.38-.76.58-.86.58-.28m-.44.57c.29.39.24.58-.14.58a2.28,2.28,0,0,1-.29,1.44.57.57,0,0,1-.29-.86c.19-.39.39-.58.58-.58-.19-.77-.14-1,.14-.58m-1.29,3.32a.73.73,0,0,0,.28-1,.57.57,0,0,1,.29.87,3.36,3.36,0,0,1-.57.86q-.58-.29,0-.72m-39.51,1.87v-1.15c.38.19.48.39.29.58a.81.81,0,0,0-.29.57m-17.3.29a.26.26,0,0,0-.29-.29c0-.18.1-.18.29,0Zm56.23,0c0,.58-.1.58-.29,0,.19-.58.29-.58.29,0m-57.67,0c.38-.19.57.15.57,1s-.19,1.21-.57,1Zm16.72,4c0-.19.05-.29.15-.29s0-.19-.15-.58c.38,0,.58.25.58.73s-.2.53-.58.14M371.06,345c-.39,0-.48-.19-.29-.58,0-.38.1-.57.29-.57s.29.19.29.57c.19.39.09.58-.29.58m-.29,1.44v-1.15c.39-.19.58,0,.58.58s-.19.77-.58.57m16.43-.72c0,.49-.09.44-.28-.14.19-.38.28-.34.28.14m0,.72h.58v.29h-.58Zm39.51,0c-.39.39-.48.39-.29,0,.58-.38.68-.38.29,0m-55.36,1.3c-.39.48-.48.25-.29-.72.57,0,.67.24.29.72m-.58,1c.39,0,.43.2.14.58s-.33.19-.14-.58m0,1.44c.39.39.33.58-.15.58s-.43-.19.15-.58m.86,1.16c.39-.58.58-.62.58-.15s-.19.53-.58.15m-.86,1.44a.57.57,0,0,0-.29-.87c.39-.57.58-.38.58.58s-.19,1.44-.58,1.44a2.61,2.61,0,0,1,.29-1.15m0,4.9c0,.58-.1.48-.29-.29.19-.38.29-.29.29.29m0,2.31c.19-.39.29-.33.29.14s-.19.63-.58.43v-.28a.26.26,0,0,0,.29-.29M442,283.76c0-.47-.09-.43-.28.15.19.38.28.33.28-.15m-.28,5.34h-.29A2.07,2.07,0,0,1,441,291c-.49.68-.53,1.21-.15,1.59a.77.77,0,0,1,.87-.87.58.58,0,0,0-.15-.43.56.56,0,0,1-.14-.43c.38-.38.48-.34.29.14s-.1.63.28.44.39-.53,0-1a1.17,1.17,0,0,1-.28-1.3m-53.5,1.44c-.1-.19-.14-.09-.14.29.19,0,.24-.1.14-.29m52.06.87q-.87,0,0,.57.86-.57,0-.57m1.44,1.15H442c.19-.58.1-.87-.28-.87Zm-1.88-.14c.29.28.44.14.44-.44-.58,0-.73.15-.44.44m-1,5.91c0-.58-.09-.58-.28,0,.19.57.28.57.28,0m.87.72c0-.48-.2-.53-.58-.15.38.58.58.63.58.15m-1.15.14c0-.58-.1-.48-.29.29.19.39.29.29.29-.29m.86,1.15c-.19.2,0,.49.58.87a1,1,0,0,1,.14-1.16c.29-.38.15-.57-.43-.57a1.14,1.14,0,0,1-.29.86m-.58,2c.58.39.87.34.87-.14s-.29-.62-.87-.44Zm-1.15.73c-.19-.1-.29,0-.29.14.38,0,.48-.05.29-.14m1.15,1.72a2.22,2.22,0,0,0,0-1.58,9.78,9.78,0,0,0-.57,1.58,2.14,2.14,0,0,0,0,1.59,9.27,9.27,0,0,0,.57-1.59m-.86-1.15c0-.67-.2-.72-.58-.14.38.77.58.82.58.14m0,2.74c0-.58-.2-.58-.58,0,.38.58.58.58.58,0m0,0-1.73,5.19a25.19,25.19,0,0,0-1.16,5.77,6.12,6.12,0,0,0,1.3-3.46,11.86,11.86,0,0,1,.72-3.46,4.23,4.23,0,0,0,1.16-4Zm-36.34,2.88c.39,0,.58-.29.58-.86-.39,0-.58.29-.58.86m35.47,5.2a2.26,2.26,0,0,1,.29-1.88,1.67,1.67,0,0,0,0-1.87,4.06,4.06,0,0,1-.29,1.73,5,5,0,0,0-.29,2Zm-.57,0v1a2.66,2.66,0,0,1-.29.73c.38-.19.57-.77.57-1.73Zm-.43,2.3c.28,0,.33-.19.14-.57-.39.38-.43.57-.14.57m-1,5.19a4.71,4.71,0,0,1,.73-2.59,3,3,0,0,0,.43-2.31,24.42,24.42,0,0,0-.87,2.45c-.19.68-.38,1.49-.58,2.45Zm-2.73,7.79c.09.19-.06.29-.44.29v1.15h.29a1,1,0,0,1,.43-.86q.44-.29.15-.87c-.39,0-.54.1-.43.29M407.1,341c.39.39.62.25.72-.43s-.05-1-.43-1a2.32,2.32,0,0,0-.29,1.44m.43,3.18c-.09,1.15.05,1.54.44,1.15-.39-.38-.44-1.05-.15-2s.15-1.63-.43-2a9,9,0,0,1,.14,2.89m.29,2.88c.48,0,.44-.19-.14-.58-.39.39-.34.58.14.58m.15,4.33c0,.57.19.67.57.28v-1.29q0-1-.57-.15Zm.57,1.44v-.29a.29.29,0,1,0-.57,0c.38,0,.57.1.57.29m.29,1.15c0-.38-.1-.58-.29-.58,0,.39.1.58.29.58m0,.87c0-.58-.1-.58-.29,0,.19.57.29.57.29,0m115.35-60c.77-1.73,1.68-3.69,2.74-5.91a6.75,6.75,0,0,0-.15-6.48,26.77,26.77,0,0,0-7.49-2,28,28,0,0,0-8.08,0,9.59,9.59,0,0,1-1.87,4.47,12.46,12.46,0,0,0-2.16,4.76.72.72,0,0,1,0,1.15,1.66,1.66,0,0,1-1.16.58,11.09,11.09,0,0,1-1.59,3.74c-.67,1-1.39,1.93-2.16,2.89a2.21,2.21,0,0,1,.72-1.59c.48-.48.53-.91.15-1.3a16.46,16.46,0,0,0-1,1.73,3.4,3.4,0,0,1-1.59,1.45,26.4,26.4,0,0,1-.72-4.18,11.51,11.51,0,0,0-.72-3.32,1.14,1.14,0,0,0,1.15-.58,10.69,10.69,0,0,0-8.07-4.76,30.21,30.21,0,0,0-11.25.73,1.94,1.94,0,0,1-1.87,1.15,5.29,5.29,0,0,1-2.45-.58c-.2.39-.1.63.29.72s.57.25.57.44c-.77,1-1.58,1.92-2.45,2.88a19.91,19.91,0,0,0-2.45,3.46,9.9,9.9,0,0,0-3.17,3.75v.29h-.29a8.64,8.64,0,0,0-2.31,4c-.77-.38-1.06-.58-.86-.58a4.31,4.31,0,0,0-.72,1.74,2.2,2.2,0,0,1-1,1.44,16.24,16.24,0,0,0-2.17,4,22.06,22.06,0,0,1-2.16,4.33c-.38-.38-.38-.72,0-1s.39-.53,0-.72a20.29,20.29,0,0,1-2,5.62,23.57,23.57,0,0,0-2,5.05c-.19.19-.38.1-.57-.29a2.76,2.76,0,0,1,0,2.45,5.61,5.61,0,0,0-.58,2.74c-.38.39-.67.39-.86,0s-.29-.19-.29.58a.8.8,0,0,1,.57,1.15,1.83,1.83,0,0,1-.86,1.16v-.87a9.81,9.81,0,0,1-1.59,6.2,5.76,5.76,0,0,0-.43,5.91l-.86.58c.19,0,.28.29.28.86-.38-.38-.62-.47-.72-.28a1.05,1.05,0,0,0,.15.86c.19,0,.29.39.29,1.15-.19,0-.29-.09-.29-.28l-.29-.29c0,1.54.05,2.84.14,3.89a6.35,6.35,0,0,1-.43,3,2.18,2.18,0,0,0,.58,2.88c-.77.39-.87.92-.29,1.59s.67,1.2.29,1.59q3.75,3.75,7.35,7.21c2.41,2.3,5.81,3.55,10.24,3.74a15.47,15.47,0,0,0,3.46-.86,16.12,16.12,0,0,1,3.17-.87,59,59,0,0,0,13.26-13.55q5.49-7.79,10.68-15.86c.19,0,.28.05.28.14s.1.15.29.15a6.67,6.67,0,0,1,1.44-2.6,1.69,1.69,0,0,1,.15,1.16,4.54,4.54,0,0,0-.15,1.15,1.86,1.86,0,0,1,.44.72,2.65,2.65,0,0,0,.72,1,2.18,2.18,0,0,0-.29,2,14.81,14.81,0,0,1,.29,2.88,2.61,2.61,0,0,1,.29,1.15,2.57,2.57,0,0,0,.28,1.16,29.3,29.3,0,0,0,2.17,7.35,17.73,17.73,0,0,0,4.47,6.2,11.73,11.73,0,0,0,3.75,2.45,36.27,36.27,0,0,1,4.61,2.46,54.59,54.59,0,0,1,5,3.17c1.63,1.15,3.6,1.25,5.91.28a26.34,26.34,0,0,0,10.24-1.87,36.58,36.58,0,0,0,8.07-4.61,50.19,50.19,0,0,0,6.63-6.06l5.92-6.49a29.9,29.9,0,0,1,5.19-8.36,16.35,16.35,0,0,0,4-8.65,7.69,7.69,0,0,0,1.73-2.6,8.59,8.59,0,0,1,2-2.88c0-.58-.1-.91-.29-1s-.19-.33,0-.72h.87a11.4,11.4,0,0,0,.86-2.31,2.85,2.85,0,0,1,1.15-1.73q-.29-.57-.57-.57a.25.25,0,0,1-.29-.29,5.06,5.06,0,0,0,1.59-2.17c.47-1,.91-2,1.29-2.73a11.09,11.09,0,0,0-1.44,1.73,5.2,5.2,0,0,1-1.44,1.44,10.86,10.86,0,0,1,1.59-2.74,11.31,11.31,0,0,0,1.58-2.74c-.38-.39-.62-.29-.72.29s-.43.67-1,.28c.38,1,.1,1.26-.86.87,0-.19.09-.29.28-.29s.39-.19.58-.58q0-.57.72-.72t.72-1.29a1,1,0,0,0-.86.43c-.2.29-.39.14-.58-.43a3.07,3.07,0,0,0,1.88-1.45,2.77,2.77,0,0,0,.14-2.59,16.13,16.13,0,0,0,2-3.32,38.54,38.54,0,0,0,1.44-3.6,3.28,3.28,0,0,1-.43-2c.09-.58.24-1.34.43-2.31a4.42,4.42,0,0,1-.87-1.15q-2,2.31-3.89,4.9t-3.31,4.61a18.13,18.13,0,0,1-1.73,1.45,3.36,3.36,0,0,0-1.16,2.88c-.19-.38-.38-.48-.57-.29a1.17,1.17,0,0,1-.87.29c.38,2.12-.19,3-1.73,2.6-.19.19-.19.28,0,.28s.29.2.29.58q-3.47,5.19-7.21,10.1a113.36,113.36,0,0,0-7.21,10.67c-.58-.39-.86-.39-.86,0a.51.51,0,0,1-.58.57,1.3,1.3,0,0,1-.43,1.15.61.61,0,0,0-.15.87q-6.06,6.65-11.53,13.41a39.15,39.15,0,0,1-14.13,10.81,12.84,12.84,0,0,1-3-4.76,35.82,35.82,0,0,1-1.59-5.76c-.38-2-.72-4.08-1-6.2s-.53-4.13-.72-6.06q0-6,.44-11.25c.28-3.45.43-7.11.43-10.95a62.86,62.86,0,0,0,2.45-8.08,76.32,76.32,0,0,1,2.45-8.36.25.25,0,0,1-.29-.29l.29-.29v.58c.77-1.34.87-2.31.29-2.89m-14.85-8.64c.28.19.24.28-.15.28-.19-.38-.14-.48.15-.28m-.43,1.15V288h-.29a1,1,0,0,1-.44.86,1,1,0,0,0-.43.87c-.39,0-.48-.19-.29-.58s.19-.67,0-.87a1.72,1.72,0,0,0,1.16-.28c0-.39.09-.58.29-.58m-24.81,13.26a15.34,15.34,0,0,1,2-4.18,16.74,16.74,0,0,1,3.17-3.6,3.56,3.56,0,0,1,2.6,2.59,14.41,14.41,0,0,0,1.44,3.46c.19,0,.29.39.29,1.15.58,0,.87.2.87.58a15.19,15.19,0,0,0,1.3,2.17,12.41,12.41,0,0,1,1.29,2.45,33.81,33.81,0,0,1-3.46,6.34,37.15,37.15,0,0,0-3.46,6.06c.19.38.33.34.43-.15s.34-.72.72-.72c0-.76.29-1.15.87-1.15a1.73,1.73,0,0,0-.43.72c-.1.29-.25.43-.44.43-.38,1-.77,1.83-1.15,2.6a3.81,3.81,0,0,1-1.73,1.73,1.7,1.7,0,0,1,.72-1.59,1.69,1.69,0,0,0,.72-1.59,15.32,15.32,0,0,0-2.31,3.18,30.72,30.72,0,0,0-1.73,3.46c.58-.19.63.1.15.86s-.82,1.35-1,1.73c-.39-.38-.34-.76.14-1.15a1.78,1.78,0,0,0,.72-1.44,10.63,10.63,0,0,0-2.88,4.61c.58.2.72.43.43.72s-.43.05-.43-.72a37.16,37.16,0,0,0-2.88,4l-2.89,4.61c.39-.19.48-.14.29.15s-.29.24-.29-.15a15.58,15.58,0,0,0-2.88,4,10.08,10.08,0,0,1-3.17,3.75A22.33,22.33,0,0,1,467.8,351a18.16,18.16,0,0,1-5,3.89,97,97,0,0,1,8.07-29.42,256.48,256.48,0,0,1,13.26-24.8M505.87,294c.09.2,0,.29-.15.29,0-.38,0-.48.15-.29m-1.59,2.31c.58-.38.62-.38.14,0s-.53.39-.14,0m-.86,1.58c.18-.09.28-.33.28-.72q.29.58.15.72a.6.6,0,0,0-.15.44c-.38-.19-.48-.34-.28-.44m-1.3.87c-.1.48-.25.53-.43.14v-.57c.38-.19.52-.05.43.43m.72.43c.19.2.29.1.29-.29-.39,0-.48.1-.29.29m-7.5,2a2.25,2.25,0,0,1,1.44,2.31,4,4,0,0,1-1.44-2.31m2,2.88c0,.58-.1.48-.29-.29.19-.38.29-.28.29.29m-.43,2.6.43-.87c.38.39.43.73.14,1a1.25,1.25,0,0,0-.43.72h-.29c0,.58-.19.92-.57,1s-.39.34,0,.72c-.58-.18-.72-.52-.43-1a1.21,1.21,0,0,1,1-.73,1.92,1.92,0,0,1,.15-.86m79.44,1.44c0-.38,0-.48.15-.29s0,.29-.15.29m.15.58c-.1.57-.24.57-.43,0,.38-.58.52-.58.43,0m-81.76,1.73a3.23,3.23,0,0,1-.71,2.59,6,6,0,0,1-2.17,2,47.6,47.6,0,0,0,2.88-4.61m1.45.43c0,.48-.2.43-.58-.14.38-.39.58-.34.58.14m-34.61.29q-.57.72,0-.15.58-.57,0,.15m-.86,1.15c.19-.29.48-.33.86-.14,0,.19-.14.34-.43.43s-.34.34-.14.72c-.39-.38-.48-.72-.29-1m113.33,2.31c0,.48-.2.43-.58-.14.38-.39.58-.34.58.14m-113.91.58c0,.48-.09.53-.29.14.2-.58.29-.62.29-.14m-1.73,3.6c0,.39-.15.48-.43.29s-.15-.29.43-.29m113.91,1c-.58.29-.77.05-.58-.72h.86c.39.19.29.43-.28.72m-114.63.29c.29.29.14.43-.43.43,0-.58.14-.72.43-.43m29.13,3.32c.09-.39.43-.58,1-.58q-.57,1.44-1.44,1.44a2,2,0,0,0,.44-.86m82.9,3.74c.19-.57.29-.62.29-.14s-.1.53-.29.14m-85.07.44c0,.67-.1.62-.29-.15.19-.57.29-.53.29.15m-1.15.72h.57v.57h-.57Zm83.05,4.61h0Zm-114.48,4c.19-.38.28-.29.28.29s-.09.48-.28-.29m26.09.14c-.1.48-.24.44-.43-.14.38-.38.53-.34.43.14m-26.67,1.59c0,.57-.1.48-.29-.29.19-.38.29-.29.29.29m22.63,4.61c.29.2.24.29-.14.29,0,.58-.14.72-.43.43s-.14-.43.43-.43c-.19-.38-.14-.48.14-.29M502,344.46h.29l.29-.57c0,.39-.19.57-.58.57m-26.24-55.65c.38-.38.38-.48,0-.29-.38.58-.38.68,0,.29m31.15.72c0-.09-.1-.14-.29-.14a7.8,7.8,0,0,1-1.73,2.59,2.24,2.24,0,0,0-.58,2.6,7.58,7.58,0,0,0,.87-1.73,3.37,3.37,0,0,1,.86-1.44c0-.58.14-.92.43-1a1.37,1.37,0,0,0,.73-.72c-.2,0-.29-.05-.29-.15m-32.16.87c.29-.29.24-.53-.14-.72a.47.47,0,0,1-.29.43c-.2.1-.29.34-.29.72a1.23,1.23,0,0,0,.72-.43m-1.29,1c.38.19.57.09.57-.29-.77,0-1,.1-.57.29m-2,2.3c-.39,0-.58.15-.58.44a1,1,0,0,1-.29.71c.58,0,.87-.38.87-1.15m-.87,1.73v-.29c-.19,0-.29.05-.29.15s-.1.14-.29.14h.58Zm-1,.58c.1,0,.15-.19.15-.58-.2.39-.25.58-.15.58m-.72,2a.25.25,0,0,0,.29.29h.29V298c-.39-.19-.58-.19-.58,0m24.08,1c.09.48.24.43.43-.15-.38-.38-.53-.33-.43.15m-25.81.72h0m27,1.73a2.53,2.53,0,0,1,.71,1.44c.39-.38.34-.77-.14-1.16s-.53-.76-.14-1.15c-.58,0-.87-.19-.87-.58-.19.39-.05.87.44,1.45m-9.67-.87c0-.19,0-.29-.14-.29s-.15.1-.15.29Zm-20.18,2.74c-.2.29-.1.43.29.43-.2-.38-.1-.62.28-.71s.29-.34-.28-.73a1.77,1.77,0,0,1-.29,1m31.43.15a.29.29,0,1,0-.58,0Zm.29.57.29-.29a.25.25,0,0,1-.29.29h0Zm-35.47,6.06c.19.39.29.34.29-.14s-.1-.44-.29.14M457,317.36l.29-.29Zm-2,6.92c0-.58-.09-.58-.29,0,.2.58.29.58.29,0m117.08.43a1.21,1.21,0,0,0,.57.15c0-.39-.09-.58-.28-.58-.39.19-.49.34-.29.43m-118.67,3.9q.44.57.15-.87-.58.28-.15.87M500,341.29c.19.78.28.82.28.15s-.09-.72-.28-.15m-49.89.87a.25.25,0,0,0,.29-.29c-.39.2-.48.29-.29.29m-.43,1.59c.28.28.43.14.43-.44-.58,0-.72.15-.43.44m50.89,3.89a.81.81,0,0,1-.29.57,1.16,1.16,0,0,0,1.16-.57c.19-.38,0-.67-.58-.87a2.32,2.32,0,0,0-.29.87m-51.18,2.3c-.29.39-.24.68.14.87.19-1,.15-1.25-.14-.87m53.34,1.73c-.28.39-.14.58.44.58,0-.76-.15-1-.44-.58m59.84,13.85a10.08,10.08,0,0,0,3.75,3.17,14.37,14.37,0,0,0,4.9,1.44,41.05,41.05,0,0,0,4.33.29,5,5,0,0,0,.86-2.16,4.45,4.45,0,0,1,.58-1.88q.57-.28.72.15c.1.28.43.24,1-.15a19.46,19.46,0,0,0,2.16-7.5,31.15,31.15,0,0,1,1.59-7.49v3.46c0,1,0,1.1.14.43a11.41,11.41,0,0,0,.15-1.59c.38-1.73.67-3.26.86-4.61a42,42,0,0,1,.87-4.33,12.44,12.44,0,0,0,.57-3.17,9.35,9.35,0,0,1,.58-2.88c0,1,.1,1.44.29,1.44a17.66,17.66,0,0,1,1.3-6.49,23.79,23.79,0,0,0,1.58-5.91,190.43,190.43,0,0,1,10-25.38A73.35,73.35,0,0,1,613.86,281a1.87,1.87,0,0,0,1.44-1c.19-.47.77-.72,1.73-.72a5.57,5.57,0,0,1,.29,1.74,2,2,0,0,0,.58,1.44.8.8,0,0,0-.15-1q-.43-.43.15-.72a35.16,35.16,0,0,1,1.87,8.07c.29,2.69.62,5.48,1,8.36.58-1,1.16-1.49,1.73-1.58s1-.73,1.16-1.88c.19,0,.24.15.14.44s.05.43.43.43a.58.58,0,0,0,.29-.87c-.19-.38-.1-.58.29-.58.38-.18.48,0,.29.44s-.1.72.29.72a2.32,2.32,0,0,0,.14-1.44,1,1,0,0,1,.43-1.16v.87c0,.39.19.48.58.29.19-1,.43-2.17.72-3.61s.82-2,1.58-1.58a5.58,5.58,0,0,0-.14-1c-.1-.48-.05-.72.14-.72.39,0,.48.24.29.72s-.09.72.29.72v-2.31a3.06,3.06,0,0,1,.58-1.73,11.42,11.42,0,0,0-3.32-7.64,16.05,16.05,0,0,0-7.21-4.18,22.38,22.38,0,0,0-8.79-.58,16.53,16.53,0,0,0-7.79,2.89,5.68,5.68,0,0,0,.15,1c.09.49,0,.72-.43.72-.39-.19-.44-.47-.15-.86s.24-.58-.14-.58c-1.55,1.73-3.13,3.42-4.76,5a63.61,63.61,0,0,0-4.76,5.33c.19.58.15,1-.14,1.16s-.25.38.14.58a.55.55,0,0,1,.15-.44c.09-.09.14.05.14.44h-.29a5.38,5.38,0,0,0-.43,1.15c-.1.39-.43.58-1,.58-.39-.39-.34-.68.14-.87s.72-.48.72-.86a23.55,23.55,0,0,0-5.33,8.36,26.19,26.19,0,0,1-5,8.36,11.58,11.58,0,0,0-.58-5.34,19.77,19.77,0,0,0-2.3-4.18,13.13,13.13,0,0,0-2.45-.29,4.2,4.2,0,0,1-2.45-1.15,1.44,1.44,0,0,1-2.31,0,17,17,0,0,1-2.88,1.88c-1,.48-1.92,1-2.89,1.58-.38.58-.33.92.14,1s.63.34.44.72q-1.44,13.84-2.74,27.11t-2.16,28.26c-.39-.19-.48,0-.29.43s.1.63-.29.43a8.43,8.43,0,0,1,.58,3.61c0,1.64-.19,2.64-.58,3a9.28,9.28,0,0,0,1.44,5.48m36.91-87.38c0,.39-.05.58-.14.58s0-.19.14-.58m-4.32,5.05c.19.1.09.14-.29.14,0-.19.09-.24.29-.14M590.21,290a.81.81,0,0,0,.29-.57c0-.19.19-.29.58-.29a.85.85,0,0,0-.29.58c0,.19-.19.28-.58.28m-1.87,3.17c.09-.38.33-.47.72-.28a.62.62,0,0,1-.14.43.58.58,0,0,0-.15.43c-.38,0-.53-.19-.43-.58m34.32,1.73c-.1.58-.25.58-.44,0,.39-.57.53-.57.44,0m-56.09,8.8q-.29-.14,0-.72c.39,0,.58.29.58.86s-.19.87-.58.87a.82.82,0,0,1,.43,1q-.13.72-.72.72a4,4,0,0,0,.29-1.73c.19-.58.19-.91,0-1m15.86,1c0-.38.29-.58.86-.58,0,.39-.29.58-.86.58M566.28,307c.39,0,.53.19.43.57a4.4,4.4,0,0,0-.14.87,2.28,2.28,0,0,1-.29-1.44m0,2.3c-.77.58-.77.49,0-.29v-.28q1.15-.29,0,.57m-.43,2.17a6.34,6.34,0,0,0,.14-1.3c.39.19.53.43.43.72a6.16,6.16,0,0,0-.14,1.59.83.83,0,0,1-.43-1m-.15,2.16a1.14,1.14,0,0,0,.29-.87c.39.39.39.63,0,.73s-.38.24,0,.43c-.38,0-.48-.1-.29-.29m-.57,2.6a1.92,1.92,0,0,0,0-2c1,.19,1.2.72.72,1.58a4.76,4.76,0,0,0-.72,2.16c-.39-.38-.39-.95,0-1.72m-.58,4.75c.19-.09.29-.33.29-.72.19,0,.29.34.29,1s-.19.92-.58.72c-.19-.57-.19-.91,0-1m0,3.32a1.87,1.87,0,0,0,0-1.44c.39,0,.53.39.43,1.15a16.75,16.75,0,0,0-.14,1.73,1.45,1.45,0,0,1-.29-1.44m-.14,2.6c-.48.38-.53.19-.15-.58.58,0,.63.19.15.58m-.44,3.75a4.43,4.43,0,0,1-.29,1.15v-.87c.2-.38.29-.47.29-.28m-.29,2.59c.39,0,.58.29.58.86-.38,0-.58-.28-.58-.86m-.43,3.6a3,3,0,0,0,.15-1c.38-.39.53-.15.43.72s-.34,1.29-.72,1.29a3.42,3.42,0,0,1,.14-1m.29,1.73c-.09.49-.24.54-.43.15.38-.58.53-.62.43-.15m-.43,1c0-.18.19-.29.57-.29,0,.2-.19.29-.57.29m-.43,3.61a11,11,0,0,0,.43-2.74,3.1,3.1,0,0,1,.14,2.45,5.27,5.27,0,0,0-.14,2.74,2.35,2.35,0,0,1-.43-2.45m.14,4c0,.48-.09.43-.29-.15.2-.38.29-.33.29.15m-.14,1.58c.1-.19.05-.29-.15-.29.39-.18.58-.09.58.29a.26.26,0,0,0-.29.29c-.19,0-.24-.09-.14-.29m-.29,2.6a1.57,1.57,0,0,0,.14-1.45c.2,0,.29.49.29,1.45q.28.57,0,.57c-.19,0-.29.2-.29.58a10.11,10.11,0,0,0,.15,1.73c.1.58.05,1-.15,1.15a1.12,1.12,0,0,1-.29-1.29c.2-.48.1-.82-.29-1a3.8,3.8,0,0,1,.44-1.73m-.44,5.19c.39-.39.58-.34.58.14s-.19.63-.58.43Zm.44,3c-.29.67-.24.53.14-.44.2-.38.15-.24-.14.44m55.8-76.14c.19-.67.09-.81-.29-.43,0,1,.09,1.11.29.43m-52.77,12.4c0-.47-.1-.43-.29.15.19.39.29.34.29-.15m-2.74,36.77c.1-.76.05-.86-.15-.28,0,1,.05,1.05.15.28m-.15,4.91a5.46,5.46,0,0,1,.29-1.73,1.32,1.32,0,0,0-.29-1.45,2.47,2.47,0,0,0,0,3.18m-1,4.9a.79.79,0,0,0,.15,1.15,1.19,1.19,0,0,1,.28-1.3q.59-.72-.57-.72c.38.2.43.49.14.87m-.29,3a3.26,3.26,0,0,1-.14,1.58c.19.2.19.53,0,1s-.1.82.29,1v-2.31a2.1,2.1,0,0,0,.43-1.15,1,1,0,0,0-.43-1.16,1.39,1.39,0,0,0-.15,1m.15,7.06c0-.58-.1-.58-.29,0,.19.58.29.58.29,0m-.44,3.89c-.09.68,0,.82.15.44,0-.19,0-.68.14-1.45s0-1-.14-.57a9.94,9.94,0,0,1-.15,1.58m0,1.73c-.28.29-.23.92.15,1.88.19-1.54.14-2.16-.15-1.88m47.15-7.93a95.76,95.76,0,0,0,.29,12.69,8.79,8.79,0,0,0,4,4.47,11.1,11.1,0,0,1,4.32,3.9,1.39,1.39,0,0,1,1.73.86,19.69,19.69,0,0,0,12,.29,25.17,25.17,0,0,0,9.52-5.63,53.82,53.82,0,0,0,7.64-8.93q3.45-5.06,6.63-9.67,3.46-7.48,7.5-14.41t8.07-14.13a1.64,1.64,0,0,0,.58,1.15c-.39-1.73-.2-2.89.58-3.46a120.58,120.58,0,0,0-.44,13.12,120.56,120.56,0,0,1-.43,13.12,3.12,3.12,0,0,1-.14-1.73,2.36,2.36,0,0,0-.72-2,36.83,36.83,0,0,0,.14,7.36,29.39,29.39,0,0,1-.14,7.64c.57.39.81.67.72.86a4.08,4.08,0,0,0-.15,1.44,79.42,79.42,0,0,0,2.17,13.7,30.32,30.32,0,0,0,5,10.82,14.35,14.35,0,0,0,3.32,2.45,11,11,0,0,1,3.31,2.74h1.73a9.65,9.65,0,0,0,4.48,2.74,16.47,16.47,0,0,0,6,.86,12.87,12.87,0,0,0,5.48-1.44,5.79,5.79,0,0,0,3-4.18v-1.73A1.91,1.91,0,0,0,704,382a8.41,8.41,0,0,0-.71-.87,2.13,2.13,0,0,0,.43-1q.13-.72-.15-.72c-.19,0-.28.1-.28.29a.26.26,0,0,1-.29.29v-1.73a.82.82,0,0,0-.58.28c-.19.2-.29.1-.29-.28a3.5,3.5,0,0,0-.29-3q-.85-1.87-2.31-.72c.39-.58.29-.77-.28-.58s-1-.09-1.16-.86a.85.85,0,0,0,.29-.58v-.87a1.33,1.33,0,0,1-1.44.87,1.68,1.68,0,0,0,0-1.88c-.39-.47-.77-.91-1.15-1.29a14.78,14.78,0,0,0-1,2.73,11.5,11.5,0,0,0-.44,3c-.77-.19-1.1,0-1,.44a.84.84,0,0,1-.44,1A51.79,51.79,0,0,1,690,366a99,99,0,0,1-1.15-10.53c-.2-3.46-.29-6.87-.29-10.23s-.1-6.68-.29-9.95c0-.38.09-.58.29-.58s.29-.19.29-.58a99.53,99.53,0,0,1,.14-19.32q1-11,1-21.05a7.77,7.77,0,0,1,.57-2.88,7.59,7.59,0,0,0,.58-2.88,56.58,56.58,0,0,1,1-13.27,128.1,128.1,0,0,0,1.88-13,.85.85,0,0,0-.29-.57.81.81,0,0,1-.29-.58q2-14.42,4.47-28.84t5.34-28.84a16.27,16.27,0,0,0,.57-3.74,10.66,10.66,0,0,0-2.88-6.06,7.82,7.82,0,0,0-5.77-2.3c.38-.2.53-.39.43-.58s-.34-.29-.72-.29a1.37,1.37,0,0,1-.43,1c-.29.29-.63.24-1-.14,0,.57-.19.86-.58.86q-.57-.87-.57,0a.76.76,0,0,1-.87.86c0-.76-.1-1.15-.29-1.15-1,.19-2,.43-3,.72s-2.17.63-3.32,1c-.19.77-.1,1.2.29,1.3s.57.53.57,1.3q-2.6,14.7-5.62,30A253,253,0,0,0,675.86,258v-.28c0-.39.09-.58.29-.58.38-.19.47-.34.29-.43s-.1-.15.28-.15v.29c0,.19-.19.29-.57.29-.39,1.35-.72,2.55-1,3.61a3.94,3.94,0,0,0,.72,3.31q-.58-.28-.87,0a8.31,8.31,0,0,1-.72,3.17,5.51,5.51,0,0,0-.14,3.75,13.25,13.25,0,0,0-.58,4.61q-2,4.33-3.89,8.66a58.5,58.5,0,0,1-4.47,8.36,12.88,12.88,0,0,0-8.22-5.05,27.18,27.18,0,0,0-10,.44,51.49,51.49,0,0,0-10.24,3.46q-5,2.31-9.08,3.74a1.29,1.29,0,0,0,.29.72c.19.29.09.54-.29.73a.58.58,0,0,0,.87-.29q.28-.57.57,0a22.94,22.94,0,0,0-2,2.3,9.87,9.87,0,0,1-2,2c.38,0,.43.1.14.29s-.43.39-.43.58c1,0,1,.19.29.57-.2,0-.29-.18-.29-.57l-1.16,1.15a1,1,0,0,0,0,1.44,1.71,1.71,0,0,0-1.15-.29,9.34,9.34,0,0,1-1.15,3.47c-.58,1-1.06,1.05-1.44.28a2.22,2.22,0,0,1-.44,2.6c-.67.58-.81,1.15-.43,1.73-1,.39-1.54,1.4-1.73,3s-.77,2.64-1.73,3c.39.39.72.54,1,.44s.34.24.14,1c-.38,0-.52-.15-.43-.44s-.14-.33-.72-.14a2.8,2.8,0,0,0-.72,1.59,2.11,2.11,0,0,1-1.3,1.58c-.19-1-.24-1.2-.14-.72s.05.82-.15,1-.67.14-1.44-.15-.77,0,0,.73a5.88,5.88,0,0,0,1-.15,1.12,1.12,0,0,1,1,.15,36.77,36.77,0,0,1-2.31,7.93,22.87,22.87,0,0,0-1.73,7.64c.58-.19.82-.09.72.29a4.44,4.44,0,0,0-.14.86c-.39,0-.58-.38-.58-1.15a61.28,61.28,0,0,0-1.73,11.82m75.26-137.69c-.19.67-.28.53-.28-.44.38-.38.48-.24.28.44m-.57,3.31h0m-.87,3.75a2.32,2.32,0,0,1,.29-.87c.39,0,.48.15.29.44a1.79,1.79,0,0,0-.29,1c-.19,0-.29-.19-.29-.58m-.29,1.3c-.19-.48,0-.62.58-.43a1.33,1.33,0,0,1-.14.57,1.94,1.94,0,0,0-.15.87c0,.77-.14,1-.43.58s-.14-.58.43-.58a3.12,3.12,0,0,0-.29-1m.29,8.22q0,.85-.57,0,.57-.87.57,0m-2,.86c-.2.58-.1.48.28-.29,0-.38-.09-.28-.28.29m-.58,4.33c.19-.58.24-.48.14.29s-.14.67-.14-.29m1.3,3.89c.09.48,0,.43-.44-.14.2-.39.34-.34.44.14m-2,1.73a.6.6,0,0,0,.14-.43c.19-.19.29,0,.29.58s-.19.77-.58.57a1.12,1.12,0,0,1,.15-.72m-.15,2.45q-.57-1.15,0-.57t0,.57l.29.29c-.19.39-.38.43-.57.15s-.1-.44.28-.44m-.86,2.31c.19-.58.29-.58.29,0s-.1.58-.29,0m.29,1.15c.38.39.29.68-.29.87.19.39.19.62,0,.72s-.2.34,0,.72c-.58-.38-.58-.87,0-1.44-.2-1-.1-1.25.29-.87m.72,1.3c.09-.48.24-.72.43-.72.38,0,.43.14.14.43a.81.81,0,0,0-.14,1c-.39,0-.53-.24-.43-.72m-.15,2.45c0-.76-.09-.76-.28,0s-.1.77.28,0m-1.15.72c-.77.48-.77.34,0-.43v-.29q1.16,0,0,.72m-.58,2.31a2.25,2.25,0,0,0,0-1.59c.58.39.67,1.54.29,3.46a2.14,2.14,0,0,1-.29-1.87m1.16,0c0,.48-.1.53-.29.14.19-.58.29-.62.29-.14m-1.73,2.74c0-.19.29-.29.86-.29,0,.19-.29.29-.86.29m-.29,6.05c.38-.38.43-.18.14.58s-.33.58-.14-.58m2-.14c0,.48-.1.53-.29.14.19-.57.29-.62.29-.14m-1.16,1.3a2.27,2.27,0,0,0,.29-.87c.38.2.48.44.29.72a1.81,1.81,0,0,0-.29,1,.56.56,0,0,1-.29-.86m1.16,1.15c0,.58-.1.58-.29,0,.19-.58.29-.58.29,0m-1.16.87c0,.57-.19.67-.57.29.38-.77.57-.87.57-.29M675,265.88a3.29,3.29,0,0,0,.29-1c.39,0,.53.33.44,1a2.5,2.5,0,0,1-.44,1.3,1.11,1.11,0,0,1-.29-1.3m0,1.59c.39-.19.58,0,.58.58s-.19.77-.58.57Zm-.43,5c-.67.48-.72.33-.14-.43v-.29c.76,0,.81.24.14.72M669.23,288v-1.16q.57,0,.57.87h-.28a.25.25,0,0,0-.29.29m-.44.71c.29.29.24.44-.14.44a.85.85,0,0,1-.29.58V290a.25.25,0,0,1-.29.29v.87a.26.26,0,0,1-.28.29c-.2,0-.29.19-.29.57-.39-.19-.49-.38-.29-.57a1.16,1.16,0,0,1,.86-.29v-.87c.38-.38.48-.57.29-.57,0-.39.09-.58.29-.58-.2-.58-.15-.72.14-.44M648.32,294c.09.2.14.1.14-.29-.19,0-.24.1-.14.29m1-.29c.38.39.72.72,1,1a1.37,1.37,0,0,0,1,.43,26.07,26.07,0,0,0,2.45,4.47,17.7,17.7,0,0,1,2.16,4.47,9.42,9.42,0,0,0,2-.14,4.14,4.14,0,0,1,1.73.14,87.3,87.3,0,0,1-5.77,10.82,89.26,89.26,0,0,0-5.77,10.81,108.62,108.62,0,0,0-5.9,9.66c-1.84,3.37-3.66,6.69-5.49,9.95a89.22,89.22,0,0,1-5.91,9.23,41.15,41.15,0,0,1-7.49,7.79,5.73,5.73,0,0,1-.29-3.18,4.53,4.53,0,0,0-.58-3.17,187.29,187.29,0,0,1,3.75-18.89,117.85,117.85,0,0,1,6.34-18.31,1.21,1.21,0,0,0-.14-.72,1.1,1.1,0,0,1-.15-.72q3.47-6.63,6.64-12.83a28.65,28.65,0,0,1,8.65-10.24,1,1,0,0,1,.86.43,1,1,0,0,0,.87.43ZM631.16,296c0-.38.29-.58.87-.58,0,.39-.29.58-.87.58m-.43.58c-.1.57-.24.57-.43,0,.38-.58.52-.58.43,0m30.85,7.64c-.1.48-.24.43-.43-.15.39-.38.53-.33.43.15m-37.05.14c.19.19.09.29-.29.29,0-.38.09-.48.29-.29m-.87,1.44a.26.26,0,0,1,.29-.28c0,.19-.1.28-.29.28m36.63,0c0,.58-.2.87-.58.87v.86c-.39.39-.58.29-.58-.28s.19-.77.58-.58v-.58a.26.26,0,0,1,.29-.29Zm-2,3.46c0-.57.19-.86.58-.86-.2,0-.25.14-.15.43s-.05.43-.43.43a5.22,5.22,0,0,0-.43,1.3,2.51,2.51,0,0,1-.73,1.3h0a2.19,2.19,0,0,1,.44-1.58,3.75,3.75,0,0,0,.72-1m-1.73,3.46c0,.39,0,.48-.15.29s0-.29.15-.29M655,314.48a6.79,6.79,0,0,0,1-.87c.39.39.33.77-.14,1.15a3.5,3.5,0,0,0-1,1.16.26.26,0,0,1-.29.29c0,.38-.1.57-.29.57,0,.2-.1.25-.29.15s-.1-.15.29-.15v-.57h.29l.29-.29c-.2-.77-.15-1.25.14-1.44m17.16,1.44c.19.19.24.57.14,1.15a11.21,11.21,0,0,0-.14,1.73V322h-.29v2a1.94,1.94,0,0,1-.86,1.73,3.34,3.34,0,0,0,.57-1.87V322h.29a5.41,5.41,0,0,1,.29-3.17,3.66,3.66,0,0,1,0-2.88m1,.57c-.48,0-.43-.19.14-.57.39.38.34.57-.14.57m-20.33,3.75a1.14,1.14,0,0,1-.15-1.44q.43-.87,1-.87a3.52,3.52,0,0,1-.58.87,2.23,2.23,0,0,0-.29,1.44c-.19.2-.34.34-.43.43a3.22,3.22,0,0,1-.72.44c0,1-.2,1.44-.58,1.44a.85.85,0,0,0,.14-.86c-.09-.39,0-.58.44-.58a2.35,2.35,0,0,0,.28-1c0-.29.29-.24.87.14m20.47-1.44q0-.29-.57,0c0-.19.14-.29.43-.29s.43.1.43.29c-.19.19-.29.19-.29,0m-59.4,4h.87v.29h-.87Zm36.48.72c.29-.1.24-.33-.15-.72.39-.19.58.05.58.72s-.29.91-.87.72a2.26,2.26,0,0,1-1.44,2.31v.57c-.38.39-.48.58-.29.58,0,.58-.09.72-.28.43s-.1-.43.28-.43c0-.38.1-.58.29-.58v-.57a1.13,1.13,0,0,1,.73-1.16,1.12,1.12,0,0,0,.71-1.15.67.67,0,0,1,.44-.72m21.48,3.17c-.19.68-.29.53-.29-.43.38-.38.48-.24.29.43m-.86,1.88v-.87c.57,0,.86.39.86,1.15-.57.2-.86.1-.86-.28m-23.65.28c.38.2.29.49-.29.87s-.77.19-.57-.58c.57.58.86.48.86-.29m23.94,1.3c-.2.68-.29.53-.29-.43.38-.38.47-.24.29.43m.72,0a.6.6,0,0,0,.14-.43c.38-.19.58,0,.58.58s-.2.77-.58.57c-.2-.38-.24-.62-.14-.72m-26.39,1.44c.38-.67.77-1,1.15-1a3.55,3.55,0,0,0-1.15,2.59q-.58-.57,0-1.59m25.52,1.16a1.41,1.41,0,0,0-.14-1.59c.76.19.95.53.57,1a1.66,1.66,0,0,0,0,1.87c-.57-.38-.72-.81-.43-1.29m-59.41.72c-.47.38-.52.38-.14,0,.58-.38.63-.38.14,0m32.59.86c-.1.77,0,.68.15-.29,0-.57,0-.47-.15.29m-33,0h.29V335h-.29Zm32,1.45c.39-.39.53-.68.44-.87s.14-.19.72,0c-.2,0-.34.19-.44.58s-.33.48-.72.29m28,2a16.79,16.79,0,0,1-.58-2.59.51.51,0,0,1,.58.58.5.5,0,0,0,.57.57c-.19,1.54-.39,2-.57,1.44m-60.85,0c0-.19.29-.28.86-.28,0,.19-.28.28-.86.28m60.27.58a1.89,1.89,0,0,1,.86.86q.29.59,0,.87c-.57-.19-.86-.76-.86-1.73M641.11,340c.29.28.24.43-.15.43,0,.57-.14.72-.43.43s-.14-.43.43-.43c-.19-.58-.14-.72.15-.43m30.14.86c-.2.68-.29.72-.29.14.38-.76.47-.81.29-.14m-31.73,1.3c.39,0,.53.24.44.72s-.34.63-.73.43v-.58c.2,0,.29-.18.29-.57M671,343.6c.38-.38.47-.24.29.43s-.29.54-.29-.43m-32,.29a5,5,0,0,1-.72,1.73,7.73,7.73,0,0,0-.72,1.15c-.2-.18-.1-.62.28-1.29a7.53,7.53,0,0,1,1.16-1.59m31.14,2.31v-1.45a1,1,0,0,1,.29,1.16,1.4,1.4,0,0,0,.29,1.44,1.15,1.15,0,0,1-.58-1.15m-60.84-.87c0-.19.19-.29.57-.29,0,.2-.19.29-.57.29m62.28.43c0,.49-.19.44-.57-.14.38-.38.57-.34.57.14m-.57,1.3c0-.19.29-.29.86-.29,0,.2-.29.29-.86.29m-33.89.58c.1.19,0,.29-.14.29,0-.39,0-.48.14-.29M671,348.79v-.86c.57.39.86.77.86,1.15-.57,0-.86-.09-.86-.29m-35,0c-.68.58-.63.48.14-.29v-.29c.58-.18.53,0-.14.58m-.72.87q.57.57,0,.57c0,.2-.1.25-.29.15s-.1-.15.29-.15c-.39-.76-.39-1,0-.57m35.32.72c-.48-.1-.53-.34-.14-.72.58.57.62.82.14.72m-35.9.14c.38.19.48.39.29.58a.85.85,0,0,0-.29.57h-.29a1.68,1.68,0,0,1,.29-1.15m36,6.92c.38-.19.58.1.58.87s-.2,1.06-.58.86Zm.58,4.76c-.39.29-.58-.33-.58-1.87.76,1,1,1.58.58,1.87m-.29.72a.77.77,0,0,1,.86.87.77.77,0,0,1-.86-.87m1.15,2.16c0,.49-.1.53-.29.15.19-.58.29-.62.29-.15m-46.72-66.47c-.39.58-.33.63.15.15s.43-.53-.15-.15m27.69.44c0-.48-.1-.53-.29-.15.19.58.29.63.29.15M618.47,310.3c0-.68-.09-.63-.28.14.19.57.28.53.28-.14m-7.21,11.1c-.38.57-.38.86,0,.86s.39-.29,0-.86m58,.86h.86v-.86h-.86Zm.86,1c.19-.67.09-.82-.29-.43,0,1,.1,1.11.29.43m-.57,2.88c-.2,1.06,0,1.78.57,2.17A2.65,2.65,0,0,1,670,326c.28-1,.23-1.63-.15-2a16,16,0,0,1-.28,2.16m-.15,5.34c-.29.77-.14,1.25.43,1.44a14.81,14.81,0,0,1,.15-1.73c.09-.76-.15-1.25-.72-1.44a1.55,1.55,0,0,1,.14,1.73m-.14,5.05c-.39,1-.2,1.78.57,2.16a3.33,3.33,0,0,1,0-2.74c.38-1.25.19-2.07-.57-2.45a4.17,4.17,0,0,1,0,3m-44.84,36.91c-.1-.48-.25-.53-.44-.15.38.58.53.63.44.15m69.35,1.15c-.2-.09-.1-.14.29-.14,0,.19-.1.24-.29.14" transform="translate(-137.48 -145.23)"/><path class="cls-2" d="M305.18,213.21a37.28,37.28,0,0,0,13.41-2.3,20.21,20.21,0,0,0,9.47-7.13c2.31-3.21,3.47-7.36,3.47-12.42a12.33,12.33,0,0,0-2.72-8.2,13.9,13.9,0,0,0-7.31-4.45v-.38a19.21,19.21,0,0,0,10.78-5.91,16.48,16.48,0,0,0,3.84-11.25q0-8-5.81-11.43t-15.38-3.47h-19.5l-14.16,66.94ZM307,157.89h6.94q7.78,0,7.78,6.28,0,4.61-3,6.61a14.27,14.27,0,0,1-8,2h-6.85Zm-5.53,26.16H309q4.22,0,6.28,1.92a7.15,7.15,0,0,1,2.06,5.49,9.09,9.09,0,0,1-3.14,7.45,12.67,12.67,0,0,1-8.3,2.58h-8.25Zm81.8,26.39a31.49,31.49,0,0,0,10.88-10,46.38,46.38,0,0,0,6.33-14.16,62.67,62.67,0,0,0,2.06-16q0-11.32-6.14-18.18T378,145.23a31.43,31.43,0,0,0-15.84,3.8,33.36,33.36,0,0,0-11,10.08,45.42,45.42,0,0,0-6.47,14,58.42,58.42,0,0,0-2.11,15.56q0,11.54,6.33,18.52t18.52,7a31.79,31.79,0,0,0,15.79-3.7m-23.29-11.67q-3.1-3.47-3.1-10.13a47.34,47.34,0,0,1,1.5-12.14,38.23,38.23,0,0,1,4.17-10.08,21.7,21.7,0,0,1,6.38-6.89,14.15,14.15,0,0,1,8-2.48q5.63,0,8.49,3.7t2.86,9.89a47.47,47.47,0,0,1-2.67,16.69,26.65,26.65,0,0,1-7.17,11,14.9,14.9,0,0,1-9.94,3.89,10.84,10.84,0,0,1-8.53-3.47M447.74,211a24.13,24.13,0,0,0,9.23-8.72,39.91,39.91,0,0,0,4.88-12.66L471,146.27h-14l-8.9,42q-1.5,6.93-4.55,10.45t-9.14,3.52q-8.62,0-8.62-8.16a28,28,0,0,1,.74-5.72l8.91-42.09h-14l-9,42.28A21.93,21.93,0,0,0,412,192c-.1,1.22-.14,2.33-.14,3.33q0,8.53,5.39,13.69t15.8,5.15q8.81,0,14.67-3.18m37.45,2.25,6.66-31.51q.47-2.43,1-5.48c.34-2,.65-4,.93-6s.52-3.6.71-5,.31-2.3.37-2.67h.47l16.31,50.63h15.66l14.16-66.94H528.88L522.13,178q-.55,2.61-1.17,6c-.41,2.25-.78,4.42-1.13,6.51s-.6,3.8-.79,5.11h-.38L503.1,146.27H486.78l-14.15,66.94Zm96.76-.28a66.91,66.91,0,0,0,7.5-2.35v-11.9a55.33,55.33,0,0,1-7.78,2.57,31.52,31.52,0,0,1-7.69,1q-6.86,0-10-3.75t-3.15-11.35A44,44,0,0,1,562.12,177a35.78,35.78,0,0,1,3.89-9.8,22.54,22.54,0,0,1,6.7-7.31,16.73,16.73,0,0,1,9.71-2.81,22,22,0,0,1,7.64,1.26,42,42,0,0,1,6.61,3.14L602.11,150a38.52,38.52,0,0,0-8.86-3.61,42.7,42.7,0,0,0-10.83-1.18,33.59,33.59,0,0,0-13.32,2.49,30.55,30.55,0,0,0-10,6.84,39.89,39.89,0,0,0-7,9.85A49.54,49.54,0,0,0,548,175.94a54.16,54.16,0,0,0-1.36,11.95q0,12,6.19,19.13t18.38,7.12A43.19,43.19,0,0,0,582,212.93m56.25.28,2.44-11.72H617.2l3.66-17.25H642.7l2.53-11.63H623.39l3.09-14.72h23.44l2.44-11.62H615l-14.16,66.94Z" transform="translate(-137.48 -145.23)"/><path class="cls-1" d="M525,405.51c-.26,0-.35-.16-.27-.43-.26.05-.36.16-.32.35a.56.56,0,0,1-.29.54,2.69,2.69,0,0,0-2.72-.05,3,3,0,0,1-3.21-.54c.2.35.24.57.13.65a1.83,1.83,0,0,0-.32.35,24.61,24.61,0,0,0-4.36.47,18.16,18.16,0,0,1-5,.19,1.44,1.44,0,0,1-1.85.46q-1.06-.47-1,.87a2.68,2.68,0,0,1,1.29-.35,2.27,2.27,0,0,1,1.4.22c-1.9.24-3.78.51-5.66.81a38.8,38.8,0,0,1-5.92.47,13.18,13.18,0,0,1,4.39-.85,12.17,12.17,0,0,0,4.2-.82.33.33,0,0,0-.44-.3c-.26,0-.4-.05-.45-.3a3.54,3.54,0,0,1-3.21.91,5.76,5.76,0,0,0-3.66.62c-.15-.75-.33-1-.56-.87s-.41.21-.11.41.26.34-.12.41a15.52,15.52,0,0,1-4.24.63,9,9,0,0,0-4,1,4.38,4.38,0,0,0-2.35-.12,11.55,11.55,0,0,0-2.2.62,1.25,1.25,0,0,0-.52-.19,7.08,7.08,0,0,1-.71-.15,9.57,9.57,0,0,1-2.75.82c-.76.09-1.65.16-2.67.23-.2.3-.63.38-1.31.25s-1,.14-1,.78q4.11-.79,8.93-1.44t9-1.07a.83.83,0,0,0-.36.16.76.76,0,0,1-.35.17l-14.53,2.05a144.65,144.65,0,0,0-14.57,2.83c-.75.14-1.52.33-2.32.55a3,3,0,0,1-2.27-.24l8.12-1.58q4.4-.86,8.17-1.39c-.15-.1-.18-.26-.09-.47s0-.29-.25-.24a11.42,11.42,0,0,1-4.1.8,9,9,0,0,0-4.42,1.24,1.59,1.59,0,0,0-1.56-.08,1.82,1.82,0,0,1-1.79-.23c.07.37,0,.57-.08.59a.56.56,0,0,0-.34.26,38.31,38.31,0,0,0-5.39.66,16.52,16.52,0,0,0-4.47,1.45,1.54,1.54,0,0,0-1.4-.21,1.06,1.06,0,0,1-1.25-.44l.15.75a8.54,8.54,0,0,1-1.7.23,2.63,2.63,0,0,0-1.25.54,1.79,1.79,0,0,0,1.41.3,7.09,7.09,0,0,0,1.55-.49,5.13,5.13,0,0,1,1.67-.42,2.27,2.27,0,0,1,1.52.38,17.55,17.55,0,0,0-5,1,13.4,13.4,0,0,1-4.48.87,1.74,1.74,0,0,1,1.91-.66c.86.16,1.35-.17,1.46-1a4,4,0,0,1-2.54.39,3.43,3.43,0,0,0-2.81,1,.33.33,0,0,0-.44-.3l.18.94a1.42,1.42,0,0,0,.76-.54c.27-.31.43-.34.47-.09-.05.4-.39.66-1,.78a5,5,0,0,1-1.53.1.76.76,0,0,1,.69-.42q.39,0-.12-.66-.23-.15-.54.21c-.22.23-.26,0-.13-.66a1.57,1.57,0,0,1-.92.76,3,3,0,0,0-1.14.61.47.47,0,0,0-.62-.17,2.55,2.55,0,0,1-1.14.12,2.2,2.2,0,0,1-1.42.67,5.66,5.66,0,0,1-2.13,0c.18.23.17.36,0,.39a.71.71,0,0,0-.43.28,5.78,5.78,0,0,0-2.87.17c-.85.3-1.76.6-2.73.92a.56.56,0,0,0,.12-.41.68.68,0,0,0-.61.89,11.24,11.24,0,0,0,4-.77A10.09,10.09,0,0,1,434,421a1.62,1.62,0,0,1,.75-.63c.29-.12.49.07.59.56-.35.2-.56.27-.64.22a2.29,2.29,0,0,0-.7-.15,40.64,40.64,0,0,1-4.77,1.41,18,18,0,0,1-4.35.55l.84-.16c.31-.06.31-.25,0-.58a15.15,15.15,0,0,1-2.47.29,2.31,2.31,0,0,0-1.91,1.15,1.06,1.06,0,0,0-1.66-.07,1.38,1.38,0,0,1-1.81.16c.07.37,0,.57-.08.59a6,6,0,0,0-2.46.29c-.6.25-1.26.5-2,.77l-.08-.37c-.29-.2-.45-.17-.46.09a.47.47,0,0,1-.4.47c-.47-.43-.94-.37-1.42.17a1.09,1.09,0,0,1-1.6.22c-.13,0-.19,0-.21-.06s-.08-.08-.2-.06c.19.36.13.53-.19.53a.54.54,0,0,0-.6.4l-.11-.56a19.82,19.82,0,0,1-3.38,1.05,31.21,31.21,0,0,0-3.05.78c-.2.3-.09.51.31.62s.31.23-.31.35c-.38.08-.49,0-.34-.22a.53.53,0,0,0,0-.67,4.15,4.15,0,0,1-1.78.83c-.86.23-1.32.16-1.4-.22a6.82,6.82,0,0,0-.71.82,1.52,1.52,0,0,1-1,.48,1.14,1.14,0,0,1,.06-.69q.12-.31-.24-.24a1.5,1.5,0,0,1-.62.8,3.93,3.93,0,0,0-.7.42c-.17-.22-.42-.21-.76.05a1.07,1.07,0,0,1-1.14.13,1.49,1.49,0,0,0,.18.45c.1.17,0,.28-.22.33,0-.25-.14-.36-.26-.34s-.15-.09-.08-.37c-.37.07-.57.21-.6.41s-.18.2-.48,0a1.2,1.2,0,0,0-.17.62.45.45,0,0,1-.4.46c-.3-.2-.3-.39,0-.58s.41-.39.36-.64c-.4-.06-.54.07-.42.37s0,.36-.44.18a13,13,0,0,0-3.89.95,25.59,25.59,0,0,1-4,1.36c-.12-.62-.25-.92-.37-.9a.38.38,0,0,0-.08.6c.17.22.14.36-.11.41a28.31,28.31,0,0,0-4.77,1.41,11.78,11.78,0,0,1-4.87.85c.07.37-.05.59-.36.65a.68.68,0,0,0-.58.5c-.05-.25-.25-.31-.62-.17a1.47,1.47,0,0,1-.95.09c-.82.42-1.89.88-3.21,1.4a7.76,7.76,0,0,1-3.78.54c.4.7.25.95-.43.76s-1.1,0-1.25.53c-.15-.09-.19-.28-.11-.56s0-.38-.26-.33c0,.65-.35.84-1.05.59.17.23.2.38.09.47a1.38,1.38,0,0,0-.32.35,1.57,1.57,0,0,1-.35-.32c-.09-.11-.25-.15-.5-.1a.78.78,0,0,1-.08.6,1.78,1.78,0,0,0-1.59.31,5.92,5.92,0,0,1-1.89.75c-.17-.22-.21-.41-.11-.56-.52,0-.68.14-.48.49s.09.49-.3.44c-.1-.5-.21-.73-.34-.71a.34.34,0,0,0-.3.45.6.6,0,0,1-.26.63,2,2,0,0,1-.53-.19l-.55-.38a3.73,3.73,0,0,1-2.49,1.65,18.58,18.58,0,0,0-3.39,1.05c.2-.3.11-.47-.29-.53s-.64.06-.71.33c.12,0,.2.06.24.25a.66.66,0,0,1-.1.5,1.81,1.81,0,0,0-1,.11,9.8,9.8,0,0,1-1,.29c-.4-.7-.92-.72-1.57-.08a.63.63,0,0,1-.17.61,1.51,1.51,0,0,0-.36.65c-.09-.49-.3-.55-.61-.17s-.61.54-.88.46c-.2-.34-.25-.59-.15-.74-.39-.05-.59.08-.6.4a.87.87,0,0,1-.34.75.62.62,0,0,1-.48-.49c-.05-.25-.31-.26-.78,0-.23.17-.29.35-.19.52s-.11.31-.6.41c0-.65-.21-.77-.65-.36a1,1,0,0,1-1.33.16,3,3,0,0,1-.41.86c-.22-.48-.58-.5-1.08-.08a1.31,1.31,0,0,1-1.39.36q-.22.83.21.54c.28-.18.4-.07.35.32q-.26-.33-.69-.06c-.29.19-.42,0-.39-.5a1.82,1.82,0,0,0-1.35,1q-.15-.75-.33-.72a4.49,4.49,0,0,1-1.52.69,4.4,4.4,0,0,0-1.51.68c-.08.27-.08.44,0,.48s-.06.18-.41.37c-.05-.24-.05-.4,0-.48s-.07-.15-.34-.23a1.27,1.27,0,0,1-1.64.52c-.21.29-.2.46,0,.48a.44.44,0,0,1,.36.41,1.2,1.2,0,0,0-.61.32c-.16.16-.27.12-.32-.13-.32-.33-.35-.45-.07-.38s.38,0,.33-.26c-.69-.25-1.08.09-1.16,1-.12,0-.18-.1-.16-.36s-.05-.38-.17-.36a6.77,6.77,0,0,1-2.71,1,3.89,3.89,0,0,0-2.3,1.12,17.13,17.13,0,0,0-5.31,1.61,45.86,45.86,0,0,1-5.2,2.18,33,33,0,0,0-7.51,2.23,4,4,0,0,0-2.92,1,7.85,7.85,0,0,0-2.93.37,8.94,8.94,0,0,1-3.12.42A.59.59,0,0,0,290,462a2.72,2.72,0,0,1-.86-.42,4.59,4.59,0,0,0,.23,2.67,3,3,0,0,1-.18,2.56c.25-.05.36,0,.34.22s0,.29.14.27a.5.5,0,0,1,.45-.67c0,.65.07,1,.2,1a3.28,3.28,0,0,1,.66.36c0,.25,0,.39-.21.43s-.26.18-.21.43a2.41,2.41,0,0,1,1.94,1c-.28-.07-.38.07-.31.44a9.25,9.25,0,0,0,1,.59c.36.19.57.41.61.66,1.25-.25,1.92-.12,2,.38a15.16,15.16,0,0,0,5.07-.31,29.23,29.23,0,0,1,5.19-.72.76.76,0,0,0-.64.71,1.08,1.08,0,0,0,.92-.28c.34-.25.62-.47.84-.65q8.26-2.37,15.72-4.89t15-5.72a1.62,1.62,0,0,0,1.34-.07,7.11,7.11,0,0,1,1.65-.52c0-.12,0-.16.07-.11s.1,0,.08-.11l0-.19,0,.19c.65,0,.89,0,.74-.14s-.13-.36.05-.79a75.55,75.55,0,0,0,12.56-4.18l-.56.11A60.62,60.62,0,0,1,364.72,450q5.79-1.6,11.25-3.45c2.07-.66,4.41-1.37,7-2.14s5.31-1.49,8-2.14a8.65,8.65,0,0,1,.86-.56,2.09,2.09,0,0,0,.68-.52,50.77,50.77,0,0,0,8.52-2q4.19-1.4,8.82-2.49,7.62-1.67,15.59-3.52t15.94-3.77q4.26-1,8.58-1.77a87.89,87.89,0,0,0,8.91-2l.07.37q4.49-.87,8.55-1.85a46.18,46.18,0,0,1,8.3-1.23c0,.25,0,.38,0,.39s-.08.09-.05.21q4.69-.72,9.11-1.48a49.23,49.23,0,0,1,9.07-.7,132.6,132.6,0,0,1,14.27-1.9q7.72-.63,15-1.07a13.88,13.88,0,0,1-2.56.3,5.43,5.43,0,0,0-2.3.64,23,23,0,0,0,3.38-.08,14.37,14.37,0,0,0,3.27-.63,2.09,2.09,0,0,1,0,1c.87-.17,1.21.22,1,1.16q1.46-.48,1.62.36c.11.56.53.71,1.25.44a.38.38,0,1,0,.15.75c.2-.3.51-.33,1-.09a1.72,1.72,0,0,0,1.55,0,.33.33,0,0,1-.3.44c-.25.05-.34.26-.27.64.45-.35.72-.46.81-.35a1.42,1.42,0,0,1,.2.54.74.74,0,0,1,.8-.35,2.16,2.16,0,0,1,.73.25c-.08.27-.18.42-.3.44s0,.14.26.34a2,2,0,0,0,1-.48.63.63,0,0,1,.86-.07c-.38.07-.54.23-.49.48a1.77,1.77,0,0,1,1.12-.22.81.81,0,0,0,.75-.14c.17.23.1.37-.21.43s-.32.19,0,.39q4-.57,8-1.45a29.66,29.66,0,0,0,7.51-2.72,2.33,2.33,0,0,1,.27-1.12l.53-.78c-.33-.32-.35-.77-.07-1.34a2,2,0,0,0,0-1.76,32.08,32.08,0,0,0-3-5.33q-1.61-2.31-3.65-4.81a4.49,4.49,0,0,0-2.24-.54,8.33,8.33,0,0,1-2.38-.31c-.08.27,0,.44.39.5s.39.19.16.36c-1.42,0-2.59,0-3.5-.09S536.4,405,535,405c-.55-.15-.6-.4-.14-.75-.33.33-.55.4-.64.23s-.4-.22-.9-.12c0,.4.07.54.37.41s.42,0,.38.41a2.16,2.16,0,0,0-1.53.11,1.22,1.22,0,0,1-1.42-.31c-.3-.2-.36-.18-.19,0l-.26-.34a4.64,4.64,0,0,1-2.3.64,13.92,13.92,0,0,1-3-.18c.05.25-.06.37-.32.35m-70.72,11.13a.34.34,0,0,0,.3-.45,2.5,2.5,0,0,0,2.1-.21,2.44,2.44,0,0,1,1.86-.36,2.59,2.59,0,0,1-2.15.9,4.55,4.55,0,0,0-2.41.57l0,.18-.38.08,0-.19.37-.07a.34.34,0,0,1,.3-.45m-17.93,3.49c.25-.05.39,0,.41.11a.17.17,0,0,0,.22.15.16.16,0,0,1-.15.22l-.37.07Zm1.31-.26a.51.51,0,0,1,.67.45c-.35.2-.57.24-.65.13s-.26-.15-.51-.1c-.05-.24.12-.41.49-.48m1.68-.33a.64.64,0,0,1,0,.79c.12,0-.09-.11-.63-.27a1.08,1.08,0,0,1,.67-.52m-20.66,4.89c.32,0,.46-.12.41-.37.12,0,.19,0,.2.06s.09.08.21.06l.07.37c-.27-.07-.42,0-.45.18s-.18.21-.48,0-.29-.3,0-.3m6-1.46c.05.25-.13.45-.56.6s-.6.08-.52-.2a2,2,0,0,1,1.08-.4m-2.95.77a2.35,2.35,0,0,0,1.31-.25c-.3.44-.62.63-1,.57a2.77,2.77,0,0,0-1.41.27c.05-.4.4-.59,1.05-.59m71.8-13.57-.07-.37Zm1.62-.12a.84.84,0,0,1-1.13-.36,1.58,1.58,0,0,0,1.49-.29c.58-.37,1-.2,1.27.53a2.52,2.52,0,0,0-1.63.12M415.23,425.2l-.15.22a.17.17,0,0,1,.15-.22m1.19.15c-.5.1-.64,0-.44-.3.15.1.24.08.28-.05s.25-.18.65-.13c.17.23,0,.39-.49.48m1.24-.14c-.45,0-.64-.1-.56-.38a1.42,1.42,0,0,1,.58,0,1.25,1.25,0,0,0,.57,0c.05.25-.15.39-.59.41m34.1-7q.35.22.45-.18c.42.18.48.33.19.45a.92.92,0,0,1-.9-.12c-.05-.25,0-.3.26-.15m4.28-.93c-.09-.11,0-.12.28-.05.45.3.36.51-.26.63a.69.69,0,0,0,0-.58m2.34-.45c.25-.05.34.13.29.52l-.37.08-.07-.38c.12,0,.17-.09.15-.22m4.44-.57c0,.45,0,.42-.11-.08.05-.4.09-.37.11.08m1.74-.05c-.32.06-.43,0-.36-.32a.17.17,0,0,1,.16-.22c.12,0,.19,0,.22.15.3.2.29.33,0,.39m2.59-1.09.38-.07,0,.19-.38.07ZM410.5,426.31l1-.2c.22.48,0,.74-.62.8a13.76,13.76,0,0,0-1.51.2,1.71,1.71,0,0,1,1.1-.8m2.34,0c-.18.1-.3,0-.37-.41.22-.17.37-.24.44-.19s.24.06.49,0a2,2,0,0,1-.56.59m1.19-.81a4.42,4.42,0,0,0,.86-.08c.05.26-.11.45-.46.58s-.56.14-.58,0c-.2-.35-.14-.52.18-.52m22.34-4.25c.13,0,.23.15.3.53-.13,0-.23-.16-.3-.53m6.39-1a.17.17,0,0,0-.22-.15l.18,0,.19,0c-.08.28-.12.35-.15.22m2.32-.54c.12.3,0,.28-.3,0,.07-.27.17-.26.3,0m2.52-.49q.09.46-.21-.06.12-.4.21.06m6.89-1.44q0-.18.45-.18c.32,0,.44.14.37.41l-.37.07a.34.34,0,0,0-.45-.3m2.8-.55.56-.1Zm10.76-2c-.22-.15,0-.22.63-.22-.19.3-.4.37-.63.22m4-.48c-.14.29-.26.18-.36-.32.38-.07.5,0,.36.32m1.55-.5a.17.17,0,0,0-.22-.15q0-.18.18,0c0,.25.06.31,0,.18m2.58-.69a1.27,1.27,0,0,1-.86.55c0-.52.31-.7.86-.55m.84.32c-.24.11-.4,0-.47-.39a.53.53,0,0,1,.41.11c.15.1.32,0,.53-.3a.87.87,0,0,1-.47.58m2.15-.9a1,1,0,0,0,1.12-.22c.32.32.29.49-.1.5s-.49.13-.32.35c-.37.08-.61-.13-.7-.63M411.9,426l.57-.11.1.56-.55.11Zm23.16-4.5.38-.08.11.56-.38.08Zm2.32-.07c.12,0,.22-.17.3-.44.32.32.36.51.11.56l-.75.14a.6.6,0,0,1,.34-.26m35.11-6.82c0-.25.12-.41.49-.49,0,.26-.11.41-.49.49M478,414l-.14-.75c.12,0,.22.15.3.53Zm5.46-1.84L484,412l.11.56-.56.11Zm-77.72,15.5a.63.63,0,0,1,.58.47,2.14,2.14,0,0,1-1,0c-.07-.37.06-.53.4-.46m1.4-.28.11.56-.75.15c.3-.45.51-.68.64-.71m1,0c0-.12.15-.22.53-.3.09.5-.08.6-.53.3m22.58-4.49c.07.32,0,.36-.17.13.06-.39.11-.43.17-.13m1.59-.3c.12.3,0,.35-.26.14.05-.4.14-.44.26-.14m1-.2c.06.31,0,.35-.17.12.05-.39.11-.44.17-.12m45.41-8.74c0-.12.08-.21.33-.25,0,.12-.09.21-.33.25m-55.59,11.2c-.05-.25.08-.4.39-.47s.43.05.35.32Zm3.79-.93c-.09-.11-.3-.07-.65.13-.05-.25.14-.39.59-.41s.64.1.56.37c-.25.05-.42,0-.5-.09m59.68-11.6-.57.11c.36-.2.54-.23.57-.11m1.45,0c-.27.24-.38.17-.33-.23s0-.46.33-.26.27.24,0,.49m1.91-.67c.07.38,0,.39-.19,0,.05-.4.12-.41.19,0m24.33-4.44a32.9,32.9,0,0,0,5.88-.65c-.12.67-.66.9-1.6.7a2,2,0,0,0-2.06.4,10.16,10.16,0,0,0-3.65.13,27.35,27.35,0,0,1-4.37.46,20.22,20.22,0,0,1,5.8-1M402.91,428.66c.09.43,0,.48-.17.13,0-.52.09-.57.17-.13m.58,0c0-.12.09-.21.34-.26,0-.12-.14,0-.34.26m19-3.8c.08.44,0,.49-.36.17.15-.54.27-.6.36-.17m30.18-5.77c.33.07.42,0,.25-.23.27.07.32.16.14.25a1.8,1.8,0,0,1-.63.23c-.18-.23-.1-.31.24-.25m38-7.48c-.13,0-.25,0-.35.17,0-.12.15-.22.52-.3,0,.13,0,.17-.17.13m1.52-.19c0-.13,0-.2,0-.21s.11.05.13.17c0-.12-.09-.11-.18,0m-94.59,18.48c.24.28,0,.35-.64.22.05.25-.18.42-.67.52-.05-.25.17-.42.67-.52.18-.42.39-.49.64-.22m1.1.17c-.36.14-.58,0-.65-.36.27.08.46,0,.56-.1s.28-.19.56-.12c.05.26-.11.45-.47.58m42.49-8.74.38-.08,0,.19-.37.07Zm10.11-1.87q.09.46-.21-.06.12-.4.21.06m4.48-.87c.06.31,0,.29-.2-.06.07-.27.14-.25.2.06m9.7-2,.37-.07,0,.18-.38.07Zm5.8-1c.07.31,0,.29-.2-.06.07-.27.14-.26.2.06m1.68-.33c.06.31-.07.3-.39,0,.2-.3.34-.29.39,0m-72.86,14.06q-.33.27-.3.45c0,.13-.09.21-.34.26a.76.76,0,0,1,.64-.71m13.78-2.38c-.12-.3,0-.36.45-.19-.17.42-.32.49-.45.19m23.2-4.8.38-.08.11.56-.38.08Zm9-1.75c-.18.43-.38.53-.62.32s0-.32.62-.32m8.57-1.28c.09.12.11.05.06-.2-.13,0-.15.09-.06.2m4.73-1.11-.19,0,.15-.22.19,0a.17.17,0,0,1-.15.22m10.46-2c-.13,0-.15.09-.06.2s.11.05.06-.2m5.81-1q.09.46-.21-.06c.07-.27.15-.25.21.06m1.14-.13a.18.18,0,0,0-.23-.15.17.17,0,0,1,.15-.22.18.18,0,0,1,.23.15c-.08.28-.13.35-.15.22m.3-.44.56-.11.11.56-.56.11Zm-83.46,16.41.19,0,.11.56-.19,0Zm1.27,0c.12.31,0,.36-.26.15.05-.39.14-.44.26-.15m14.61-3.12.37-.08.11.56-.37.08Zm22.58-4c.06,0,.07-.14,0-.39l.19,0q.48.48-.27.63c0-.12,0-.19.06-.21m4.69-1.29a.34.34,0,0,1-.3.44.33.33,0,0,1,.3-.44m41.71-7.82c.06.31-.06.37-.36.17.17-.43.3-.48.36-.17m.57,0c0-.25.09-.37.41-.37s.45.14.38.41l-.56.11a.18.18,0,0,0-.23-.15m6.84-1.23c-.25.38-.38.24-.37-.41.49-.1.62,0,.37.41m1.27-.44c.12.3,0,.35-.26.15,0-.4.14-.44.26-.15m-60,11.77c.05.25-.12.41-.49.48,0-.25.11-.41.49-.48m74.92-14.47c.13,0,.08.08-.17.13,0-.12,0-.16.17-.13M389.42,432.54c-.13.29-.19.17-.16-.35.25-.05.3.07.16.35M421.78,426c.08.44,0,.48-.17.13,0-.52.08-.56.17-.13m6.48-1.55c.37-.07.4,0,.07.37-.42-.17-.44-.3-.07-.37m77.59-14.69.14-.23.19,0c.15.1,0,.18-.33.26M521,406.57a.58.58,0,0,0,.84-.16c.43.18.33.35-.28.53s-1,.17-1.18-.06c.05-.39.26-.5.62-.31m-26.58,5.36.38-.07,0,.18-.37.08ZM523,406.38q.11.56-.9.36a2.18,2.18,0,0,1,.9-.36m.67.45c-.35.19-.51,0-.48-.49.74-.15,1.16,0,1.26.53-.17-.23-.43-.24-.78,0M415.44,427.29l.56-.11.08.37-.56.11ZM383,434.07a.32.32,0,0,0,.14-.32c.24,0,.32,0,.24.25a1,1,0,0,0-.1.5l-.37.08q-.07-.37.09-.51m.94-.18c.06-.33.18-.39.35-.16l.11.55c-.37.08-.53,0-.46-.39m29.87-5.9a.74.74,0,0,1,.52-.3c0,.13-.15.22-.52.3m38.68-7.42q.09.46-.21-.06.12-.4.21.06m8.94-1.84c0-.12.15-.22.53-.3,0,.13-.15.23-.53.3m9.85-1.72a.32.32,0,0,0-.17-.35q.38-.07.48.48a.17.17,0,0,0-.15.22.29.29,0,0,1-.16-.35m55.41-10.58a1.47,1.47,0,0,1-.91.28.92.92,0,0,1-.88-.51,3.93,3.93,0,0,0,1.68-.33l.11.56a1.82,1.82,0,0,1,.77-.53,2.93,2.93,0,0,1,1.1.17,1,1,0,0,1-.88.46,5.78,5.78,0,0,0-1,.09Zm-146.13,28c.35-.2.55-.14.61.17s-.11.44-.5.39Zm.93-.18.38-.07c0,.25,0,.38,0,.39s-.14.09-.24.24Zm11-2.14.37-.08.11.56-.37.08Zm16.94-3.1c.09.11.07.18-.06.2,0-.24,0-.31.06-.2m1.12-.22c.09.12.07.18-.06.21,0-.25,0-.32.06-.21m1.5-.29q.12.17-.06.21-.07-.37.06-.21m41.22-7.82c-.05-.25,0-.31.06-.2s.06.18-.06.2m-74.68,14.71c0-.52.08-.6.15-.22s0,.45-.15.22m15.65-3.24.57-.1,0,.18-.56.11Zm11.6-2.15c.14,0,.08.08-.16.13,0-.13,0-.17.16-.13m34.91-6.89.38-.07,0,.19-.37.07Zm42.59-8.27c.07.37,0,.46-.34.26.16-.55.27-.64.34-.26m32.69-6.36.37-.07,0,.19-.38.07Zm13.26-2.58c.07.38,0,.47-.34.26.15-.54.27-.63.34-.26m.6.08-.38.08a.24.24,0,0,1,.38-.08m.72-.24c.39,0,.61.11.66.36-.18-.22-.34-.22-.49,0s-.37.23-.67,0c0-.25.12-.38.5-.39M389,433.6c.07.37,0,.39-.19,0,.06-.4.12-.41.19,0M453,421.24c.14,0,.2,0,.17-.13-.25.05-.3.09-.17.13m20-4c-.2.3-.36.46-.49.48,0-.24.12-.41.49-.48m42.08-7.89c.06.32,0,.3-.2-.05.07-.27.14-.25.2.05m17-3.39c0-.25.08-.28.38-.08-.21.3-.33.33-.38.08m1.78.14-1-.29c.1-.15.37-.23.82-.26a3.87,3.87,0,0,1,1.09.08.68.68,0,0,1-.88.47M373.3,436.84l.37-.08.11.56-.38.08Zm10.08-2a.5.5,0,0,1,.67.45l-.56.11ZM394.46,433q.09.47-.21-.06c.08-.27.15-.26.21.06m4.65-1c0-.12.15-.22.52-.29,0,.12-.15.22-.52.29m25.16-4.69c-.09-.11-.26-.15-.51-.1.36-.19.54-.23.57-.11s0,.32-.06.21m-53.18,10.14.56-.11.08.38-.57.1ZM536.47,405.7c0,.25-.15.39-.6.41s-.65-.17-.59-.56c.22-.17.38-.14.5.09s.34.26.69.06M369.09,438.14a3.29,3.29,0,0,0,.77-.05,1.88,1.88,0,0,1-1.24.62c.05-.39.21-.58.47-.57m1.51-.2.38-.07,0,.19-.38.07Zm8.15-1.48c0,.32-.09.37-.26.14.17-.42.26-.47.26-.14m42.32-8.13-.56.1c0-.12.06-.2.25-.23s.29,0,.31.13m.38-.08c0-.12.15-.22.52-.29,0,.12-.15.22-.52.29m115.6-22.56c.06.31,0,.35-.17.13,0-.4.11-.44.17-.13M365.6,439.11c.29.2.35.32.16.36a1.47,1.47,0,0,0-.61.31.5.5,0,0,1,.45-.67m84.18-16.17c.14.36,0,.38-.28.05.05-.39.14-.41.28-.05m-73.09,14.4c0-.12.15-.22.52-.3,0,.13-.15.23-.52.3m75.65-14.7-.56.11c.3-.45.49-.49.56-.11m19.39-4c.49-.09.64,0,.44.3a.82.82,0,0,0-.74.15q-.45-.3.3-.45m.74-.14.38-.07.07.37-.37.07Zm66.93-12.72c0-.06-.09-.08-.21-.06s.06-.2.24-.24.3,0,.32.13c-.22.18-.34.24-.35.17m-176,33.92a.78.78,0,0,1,.82.23c.05.25-.09.34-.43.28a2.66,2.66,0,0,0-.88,0c0-.24.12-.4.49-.48m1.53-.1c0,.12-.15.22-.52.3,0-.13.15-.23.52-.3m72.59-14c0,.32-.1.37-.27.14.18-.42.27-.47.27-.14m2-.29c.07.37,0,.38-.19,0,.05-.39.11-.4.19,0m5.75-1.32-.34.26c0-.12.09-.21.34-.26m32-6c.07.38,0,.39-.19,0,.05-.4.11-.41.19,0m66.49-12.92c.07.37,0,.38-.19,0,.06-.4.12-.41.19,0M361.32,440.52c.53-.23.79-.08.76.44a1.58,1.58,0,0,0-1.49.29c0-.25.19-.49.73-.73m38-7.29q.09.47-.21-.06.12-.41.21.06m20.3-3.27q-.57.1-.15-.75.71.65.15.75m1-.59c0-.25.12-.41.49-.48.05.25-.11.41-.49.48m5.59-1.18c.06.31,0,.35-.17.13.05-.4.11-.44.17-.13m65.56-12.75c.06.32,0,.36-.17.13.05-.4.11-.44.17-.13m-133.35,26c.13,0,.21.09.26.34s-.06.33-.33.25l-.07-.37a.16.16,0,0,0,.14-.22m1.16,0a.18.18,0,0,1,.15-.23.17.17,0,0,1-.15.23m-1.94.47c.37.26.11.4-.79.45.15-.55.41-.7.79-.45m60.4-11.84.38-.07.07.38-.37.07ZM463,421.54c.07.37,0,.38-.19,0,0-.4.12-.41.19,0M355.35,442.75c-.19,0-.19-.13,0-.3q.18,0,.21.06c0,.06.08.08.2.06a.44.44,0,0,1-.45.18m9-2-.15.22a.16.16,0,0,1,.15-.22m51.74-10.06-.34.26c0-.12.08-.21.34-.26M438,426.5c.08.43,0,.49-.36.16.15-.54.27-.6.36-.16m-83.29,16.28.56-.11,0,.19-.56.11Zm-.58.5c.09.12.11.05.06-.2-.13,0-.15.09-.06.2m51.44-10.09q.09.46-.39,0,.3-.44.39,0m2.8-.55c.06.31,0,.29-.2-.06.07-.27.14-.25.2.06m.36-.16-.19,0c0-.12.12-.18.45-.18s.38.15.18.45l-.18,0a.61.61,0,0,0-.26-.33m.95-.09q.09.47-.21-.06.12-.4.21.06m-56.54,11.28-.56.11c.3-.45.49-.49.56-.11m48.69-9.27q0,.77.06-.21-.11-.56-.06.21m19.67-4-.07-.37.19,0a.58.58,0,0,1-.12.41m2.43-.47a.34.34,0,0,1,.3-.45.34.34,0,0,1-.3.45m-6.71,1.4c.06.31,0,.36-.17.13.05-.4.11-.44.17-.13M348.14,445c.22-.17.41-.21.56-.11l-.38.08a.16.16,0,0,0-.14.22Zm51.14-10.13.19,0,0,.19-.18,0Zm15.32-3c0,.13-.15.22-.53.3,0-.13.15-.23.53-.3m.41.11c0-.12-.09-.1-.19,0a.17.17,0,0,1,.15-.22.16.16,0,0,1,.22.15q-.15.22-.18,0m-36.61,7.12c.07.38,0,.39-.19,0,.05-.4.12-.41.19,0m-25.33,5.31c0-.12.08-.21.33-.26,0,.13-.09.21-.33.26m38.44-7.66.37-.08.11.56-.37.08Zm-1.91,1.14-.11-.56.19,0,.11.56Zm-4.79,1.32a.58.58,0,0,1,.12-.41c.12,0,.21.09.26.34-.23.17-.35.2-.38.07m7.63-1.68.37-.07.07.38-.37.07Zm-12.56,3.22-.11-.56.38-.07.11.56Zm-.63-.26-.19,0,.07.38-.07-.38ZM329.6,450.86c-.33,0-.44-.08-.34-.23s.13-.35.15-.22.16.16.41.11c.17.23.1.34-.22.34m-.71-.16c.05.25-.11.41-.49.48,0-.24.12-.41.49-.48m53.83-10.27c-.08.28-.37.46-.86.56-.1-.5.19-.68.86-.56m2-.4c0-.12.15-.22.53-.29a.75.75,0,0,1-.53.29m92.31-17.26c.12.3,0,.29-.3,0,.07-.27.17-.26.3,0m4.67-.91c.12.3,0,.29-.3,0,.07-.27.17-.25.3,0m-115.3,22.61c.06.31,0,.36-.17.13.05-.4.11-.44.17-.13m15.45-3.3.37-.07.11.56-.38.08Zm98.32-18.72a.32.32,0,0,1,.3-.44.34.34,0,0,1-.3.44M364.46,445.24c0-.06-.08-.08-.2-.06s.05-.2.24-.24.3,0,.32.13c-.23.18-.34.24-.36.17m9.47-2.13c-.1.15-.4.27-.89.37a1.42,1.42,0,0,1,.89-.37m.41.11c0-.12.15-.22.53-.29,0,.12-.15.22-.53.29m-12.1,2.55-.15.23c0-.13,0-.2.15-.23m8.22-1.6.18,0,0,.18-.18,0Zm35.32-6.76c.09.43,0,.47-.17.12,0-.52.08-.56.17-.12m.73-.24c0,.12-.15.22-.53.29,0-.12.15-.22.53-.29m2.44-.38c.09.44,0,.48-.17.13,0-.52.09-.57.17-.13m-89.82,17.55c0,.13-.15.23-.52.3,0-.12.15-.22.52-.3m-2.88,1.15c.05-.4.11-.44.17-.13s0,.35-.17.13M365.19,446c.05-.4.11-.44.17-.13s0,.36-.17.13m.93-.18a.34.34,0,0,1,.3-.45.34.34,0,0,1-.3.45m22.1-4c.08.44,0,.48-.17.13,0-.52.08-.57.17-.13m-3.87,1c.07-.27.14-.25.2.06s0,.29-.2-.06m7.49-1.36c.13,0,.19,0,.17-.13-.25.05-.31.1-.17.13m-33.21,6.65q.09.47-.21-.06.12-.4.21.06M524,418.3c.06.32,0,.29-.2-.06.07-.27.14-.25.2.06M352.9,454.08c.2,0,.28-.09.23-.33.3.2.39.37.3.52s-.29.19-.57.11-.15-.33,0-.3m-2.58,1.18-.18,0,.14-.23.19,0a.16.16,0,0,1-.15.22m-2.45.86a.3.3,0,0,0-.31-.13c.2-.3.32-.32.37-.07s0,.32-.06.2M340.19,459l.56-.11.07.38-.56.11Zm-1.61.7c.08.38-.05.4-.37.08.17-.42.3-.45.37-.08M460.37,414.1l.15-.23Zm2.07-.31c-.06-.31-.13-.33-.2-.06.19.36.26.37.2.06m1.5-.29q-.09-.47-.21-.06.3.53.21.06M446,416.89c-.25.05-.36.14-.34.26.25,0,.36-.13.34-.26m-17.9,3.67L428,421l0,.18c.29.2.41.15.35-.17s-.16-.45-.28-.43m8.05-1.46c-.21.23-.18.39.09.46.15-.54.12-.7-.09-.46m52-9.82c-.07-.37-.18-.28-.33.26.29.21.41.12.33-.26m-62.29,12.6c-.16-.16-.21-.06-.13.31.24-.05.29-.15.13-.31m68.75-13.27q.19,0,.21.06c0,.06-.05.1-.17.13.2-.3.17-.43-.07-.38s-.36.14-.34.26Zm7.55-1.08c-.08-.37-.13-.3-.16.22.18.23.23.15.16-.22m5.82-.94c.3.21.39.18.28,0s-.2-.22-.28,0m3.06-.21c.2.35.26.34.19,0s-.14-.36-.19,0m2.86-.26c-.06-.31-.13-.33-.2-.06.19.35.26.37.2.06m1-.29c.26-.31.23-.3-.09,0s-.17.29.09,0m.63.26c-.08-.11-.06-.18.06-.2,0,.25,0,.32-.06.2m1.38-.36c-.06-.31-.12-.33-.2-.06.2.35.27.37.2.06m4.2-.34h0m1.11-.31c-.06-.31-.18-.25-.36.17.3.2.42.14.36-.17m2.89-.08c-.1.15,0,.21.22.16,0-.25-.12-.3-.22-.16m1.89-.26c-.06-.31-.14-.33-.21-.06.19.35.27.37.21.06m1.14-.13c.19.35.26.37.2.06s-.13-.33-.2-.06m1.19.16c0-.25-.17-.36-.36-.32s-.25.18-.2.43Zm3.23-.34c.18.29.31.3.39,0-.45-.3-.58-.3-.39,0m-.73.24,0,.19.18,0,0-.19Zm3.66-.13c.14.1.2,0,.15-.22a.58.58,0,0,0-.41-.12c-.13,0-.18.1-.15.22a.58.58,0,0,1,.41.12m.78,0h0M369.73,437c0,.14,0,.19.13.17,0-.25-.09-.31-.13-.17m167.42-32.74c-.38.08-.54.24-.49.49a1.82,1.82,0,0,0,1,.09c.51,0,.62-.15.32-.35a.79.79,0,0,0-.82-.23m1.32.33q-.06-.77.06-.21,0,1-.06.21m2.09.27c.41.11.64,0,.69-.43a3,3,0,0,0-1.71.14l1,.29m-183.93,36,.07.37.56-.1-.07-.38Zm-9.8,3.46.38-.08,0-.18-.37.07Zm105-16.15.37-.08-.11-.56-.37.08Zm9.12-2-.15.22.56-.11c.07-.27-.05-.4-.37-.41s-.4.11-.23.34Zm2.91-.95a.33.33,0,0,0-.3.44.33.33,0,0,0,.3-.44m2.39-.18c0-.32-.08-.27-.26.15.17.23.26.18.26-.15m2.69-.13c.32,0,.46-.12.41-.37a1.51,1.51,0,0,1-.6-.08.37.37,0,0,0-.52.29,1.2,1.2,0,0,0,.71.16m1-.48.11-.41-.18,0c-.13,0-.16.17-.12.41Zm-2.76.73c.49-.1.73-.21.71-.33a1,1,0,0,0-.71.33m3.7-.91c-.25,0-.37.13-.34.26.25,0,.36-.14.34-.26m1.15,0a4.33,4.33,0,0,0,1.51-.2,4.39,4.39,0,0,1,1.52-.2c-.2-.35-.7-.41-1.49-.19a5.14,5.14,0,0,0-1.54.59M368,449.59c.19-.36.19-.39,0-.09s-.17.45,0,.09m.69.06c.32,0,.46-.12.42-.37l-.57.11c-.22.17-.17.26.15.26m-5.6,1.57a.84.84,0,0,1-.86.07c-.35-.12-.55,0-.6.41l.75-.15c.49-.09.73-.2.71-.33m-5.28,1.8c.38-.07.35-.19-.07-.37-.32.32-.3.45.07.37m.73-.24c-.06-.31-.13-.32-.2,0,.19.35.26.37.2,0m-2,.68c.3.21.39.16.27-.14s-.22-.25-.27.14m-.44.19c0-.32-.22-.25-.64.22.42.18.63.1.64-.22m-13.09,5,.37-.08a.17.17,0,0,0-.22-.15c-.13,0-.18.1-.15.23m-38.51,13.3c.25-.05.3-.09.17-.13s-.2,0-.17.13" transform="translate(-137.48 -145.23)"/></svg>