<svg id="Layer_1" data-name="Layer 1" xmlns="http://www.w3.org/2000/svg" viewBox="0 0 500 500"><defs><style>.cls-1{fill:#fbc099;}.cls-2{fill:#d50065;}.cls-3{fill:#f1901d;}</style></defs><path d="M253.65,69.41h0a38.86,38.86,0,0,0-38.74,38.75v33.38a4.08,4.08,0,0,0,2.93,3.91s17.77-6.16,26.2-8.41a14.51,14.51,0,0,0,9.87,3.43A14.77,14.77,0,0,0,264,136.66h.08l25.4,8.77a4.09,4.09,0,0,0,2.89-3.9V108.16A38.86,38.86,0,0,0,253.65,69.41Z"/><path class="cls-1" d="M276.77,112.84c0,15.5-10.35,30-23.12,30s-23.11-14.52-23.11-30,10.35-28.07,23.11-28.07S276.77,97.34,276.77,112.84Z"/><path d="M279.75,108.17H227.56v-1.71a26.17,26.17,0,0,1,26.09-26.09h0a26.17,26.17,0,0,1,26.1,26.09Z"/><path class="cls-1" d="M258.32,373h34.61c-1.41,36.83-2.59,75.06-3.44,108H261.16Z"/><path class="cls-2" d="M261.16,481.07l.38,14.71a4.35,4.35,0,0,0,4.34,4.22h18.9a4.35,4.35,0,0,0,4.34-4.24c.12-4.76.24-9.67.37-14.69Z"/><path class="cls-1" d="M222,500h0a4.12,4.12,0,0,1-.86-.09A4.12,4.12,0,0,0,222,500Z"/><path class="cls-1" d="M213.9,373c1.4,36.84,2.58,75.09,3.43,108h28.33l2.84-108Z"/><path class="cls-2" d="M217.33,481.07c.13,5,.26,9.93.37,14.69A4.35,4.35,0,0,0,222,500h18.9a4.35,4.35,0,0,0,4.34-4.22l.38-14.71Z"/><path class="cls-2" d="M206.23,214.18,234.53,235a18.47,18.47,0,0,1-10.95,33.34,18.3,18.3,0,0,1-10.93-3.59l-10.06-7.4-2.05,24.25L192.82,373h126l-16.15-169L299,155.22c-10.52-4.43-18.1-5.95-29.74-9.21-14.24,12.79-33.14.43-33.14.43-9.44,2.68-12.83,4.27-22.19,6.85l-1.52.41-4.76,43.79Z"/><path class="cls-2" d="M295.56,178a11.87,11.87,0,0,1-8.43-20.22L308,136.68l25.56-61.55a11.87,11.87,0,0,1,21.92,9.11L329,147.93a11.87,11.87,0,0,1-2.53,3.8L304,174.44A11.79,11.79,0,0,1,295.56,178Z"/><path class="cls-3" d="M242,250.52a18.4,18.4,0,0,1-3.57,10.29c-.23.31-.49.59-.74.88a20.94,20.94,0,1,1-32.81-2.64l-8.53-6.28A31.48,31.48,0,1,0,242,250.52Z"/><path class="cls-3" d="M241.77,246.8A18.46,18.46,0,0,1,240.13,258a34.8,34.8,0,1,1-37.33-.53l-9-6.61a45.3,45.3,0,1,0,48-4.09Z"/><path class="cls-3" d="M301.31,47.57c-3.53,0-86.32-.27-86.32-23.79S297.78,0,301.31,0s86.31.27,86.31,23.78S304.83,47.57,301.31,47.57ZM225.64,23.78C227.86,27.06,249.26,37,301.31,37s73.44-10,75.66-13.24c-2.22-3.27-23.61-13.23-75.66-13.23S227.86,20.51,225.64,23.78ZM377.11,24h0Z"/><rect class="cls-3" x="337.08" y="25.22" width="22.59" height="22.59" rx="5.82" transform="translate(-1.69 48.75) rotate(-7.99)"/><path class="cls-3" d="M112.47,339.47a5.27,5.27,0,0,0,4.22,6.15,5.39,5.39,0,0,0,1,.09,5.27,5.27,0,0,0,5.18-4.31c7.12-38.32,39.47-72.08,78.81-84.75l-10.25-7.54C151.73,264.59,119.84,299.8,112.47,339.47Z"/><path class="cls-3" d="M350.39,31.24h-.09A5.27,5.27,0,0,0,345,36.42c0,1.08-2.08,108.17-16.39,138.84-14.43,31-46.94,53.42-90.55,63.21a18.51,18.51,0,0,1,3.88,9.94c46.06-10.72,80.57-35.11,96.23-68.69C353.45,147,355.5,41.1,355.58,36.6A5.27,5.27,0,0,0,350.39,31.24Z"/><path class="cls-2" d="M223.58,261.74a11.78,11.78,0,0,1-7-2.31L166,222.27a11.88,11.88,0,0,1-1.73-17.58l44.28-48.36a11.87,11.87,0,0,1,17.51,16L190.74,211l39.88,29.34a11.87,11.87,0,0,1-7,21.43Z"/><path class="cls-2" d="M223.58,261.74a11.78,11.78,0,0,1-7-2.31L166,222.27a11.88,11.88,0,0,1-1.73-17.58l44.28-48.36a11.87,11.87,0,0,1,17.51,16L190.74,211l39.88,29.34a11.87,11.87,0,0,1-7,21.43Z"/></svg>