<svg id="Layer_1" data-name="Layer 1" xmlns="http://www.w3.org/2000/svg" viewBox="0 0 500 500"><defs><style>.cls-1,.cls-5{fill:#d50065;}.cls-2,.cls-6{fill:#f0b074;}.cls-2,.cls-5{fill-rule:evenodd;}.cls-3{fill:#929497;}.cls-4{fill:#22b7e9;}</style></defs><path class="cls-1" d="M275.66,38.67a12,12,0,0,0-9.25,2.82,18.47,18.47,0,0,1,1.51,14.64L257.06,90.48l-4.4,34.78-5.49-3.5-7.46,23.59,16,10.2A12,12,0,0,0,274,147L286,52A12,12,0,0,0,275.66,38.67Z"/><path class="cls-2" d="M159.33,290.59l87.38,9L258,493.47a6.69,6.69,0,0,1-6.7,6.53H228a5.06,5.06,0,0,1-5.17-4.9c-3.59-43.92-10.68-121.92-17-165.3-.08-.58-.94-.9-1,0-2.57,46.09-3.67,127.26-7.41,165.26a5.61,5.61,0,0,1-5.73,4.9H168.41c-3.53,0-5.88-2.66-5.93-6.53C161.82,433.62,161.4,348.85,159.33,290.59Z"/><path class="cls-3" d="M263.58,37.63a13.09,13.09,0,0,1,2.19-3.12l-5.3.54A18.87,18.87,0,0,1,263.58,37.63Z"/><path class="cls-3" d="M275.12,30.5a13,13,0,0,0-9.35,4l5.72-.58a7.62,7.62,0,0,1,7.35,7.81v15.5a7.61,7.61,0,0,1-7.35,7.81l-5.72-.58a13,13,0,0,0,9.35,4l62.19,4.24c-4.52-2.3-7.92-12.58-7.92-24.92,0-14,4.4-25.41,9.83-25.41,1.81,0,3.5,1.28,5,3.48,1.36-2.8,3-4.72,4.82-5.45Z"/><path class="cls-3" d="M278.84,57.24V41.74a7.62,7.62,0,0,0-7.35-7.81l-5.72.58a13.09,13.09,0,0,0-2.19,3.12,18.62,18.62,0,0,1,4.34,18.5l-2.5,7.92c.12.13.22.29.35.42l5.72.58A7.61,7.61,0,0,0,278.84,57.24Z"/><path class="cls-3" d="M240.68,34.61a3,3,0,0,0-.31,0,3.89,3.89,0,0,0-3.84,3.4A18.42,18.42,0,0,1,240.68,34.61Z"/><path class="cls-4" d="M351.25,27.09c-1.57,0-3,2.38-4,6.15a56.6,56.6,0,0,1,1.78,14.56,58.73,58.73,0,0,1-1.33,12.72c.95,2.87,2.17,4.61,3.52,4.61,3,0,5.4-8.51,5.4-19S354.23,27.09,351.25,27.09Z"/><path class="cls-5" d="M257.31,481.46l.7,12a6.69,6.69,0,0,1-6.7,6.53H228a5.06,5.06,0,0,1-5.17-4.9c-.37-4.53-.8-9.08-1.2-13.63Z"/><path class="cls-5" d="M198.59,481.46c-.42,4.67-.68,9.23-1.12,13.63a5.6,5.6,0,0,1-5.73,4.9H168.4c-3.52,0-5.87-2.66-5.92-6.53s-.07-7.94-.07-12Z"/><path class="cls-1" d="M254.1,212.63,246.79,123,232,169.67a18.64,18.64,0,0,1-17,13h-.71A18.52,18.52,0,0,1,197.05,171l-17.31-43.17a18.52,18.52,0,0,1,.16-14.22l-1.87,0a25.26,25.26,0,0,1-17.74-7.32l.87,55.48.24,7c-.58,6.51-1,12.9-1.38,19.24l-1.57,35.76c-.42,12-.85,24-1.58,36.14l-2.1,25.88c-.3,2.74-11.08,70.76-11.42,73.55,0,0,132.82,0,134.74,0C278.51,345.75,253.75,252,254.1,212.63Z"/><path class="cls-1" d="M209.86,107.52a19.4,19.4,0,0,1,2.09,2.34l2.17-6.87A25.4,25.4,0,0,1,209.86,107.52Z"/><path class="cls-6" d="M237.79,36.74c-4-16.22-16.83-27.69-31.16-26.61-16.32,1.24-28.33,18.31-26.83,38.13s16.14,37.38,32.47,36.14a22.22,22.22,0,0,0,8.5-2.45l11.71-37A18.52,18.52,0,0,1,237.79,36.74Z"/><path d="M168.12,47.87,239.85,34S235.81-3.2,199,.22,168.12,47.87,168.12,47.87Z"/><path class="cls-3" d="M237.28,37.18A3.68,3.68,0,0,0,231,39.82v9.7l1.45-4.6A18.59,18.59,0,0,1,237.28,37.18Z"/><path class="cls-3" d="M338.33,73.09c-5-1.17-8.94-12-8.94-25.29,0-12.75,3.63-23.27,8.37-25.1l-70.1,9.57a12.18,12.18,0,0,0-7.48,2.6c.45.29.89.6,1.31.92l2.73-.28a7.22,7.22,0,0,1,7,7.42V57.61a7.28,7.28,0,0,1-6,7.32l-.89,2.8a12,12,0,0,0,3.41.54Z"/><path class="cls-3" d="M267.92,56.13l-2.78,8.8a7.28,7.28,0,0,0,6-7.32V42.93a7.22,7.22,0,0,0-7-7.42l-2.73.28A18.6,18.6,0,0,1,267.92,56.13Z"/><ellipse class="cls-4" cx="339.84" cy="47.06" rx="5.12" ry="18.03"/><path class="cls-1" d="M214.3,176h.46a12,12,0,0,0,10.94-8.34L261.59,54.13a11.95,11.95,0,1,0-22.78-7.2L213,128.65l-4.89-12.2a11.95,11.95,0,1,0-22.18,8.9l17.31,43.16A12,12,0,0,0,214.3,176Z"/><path d="M194.05,106.72l-15.69.28a18.77,18.77,0,0,1-19-18.38l8.54-50.29c-.18-10.29,8.24-15,18.53-15.22l6.18-.11a18.77,18.77,0,0,1,19,18.38l.81,46.31A18.76,18.76,0,0,1,194.05,106.72Z"/></svg>