<svg id="Layer_1" data-name="Layer 1" xmlns="http://www.w3.org/2000/svg" viewBox="0 0 450 165"><defs><style>.cls-1{fill:#2e2014;}.cls-2{opacity:0.43;}.cls-3{fill:#ee7003;}.cls-4{fill:#a183a5;}.cls-5{fill:#006ba6;}.cls-6{fill:#633169;}</style></defs><path class="cls-1" d="M140,158.61a7.23,7.23,0,0,1-.25,2,2.6,2.6,0,0,1-.79,1.3,2.12,2.12,0,0,1-1.43.46,2,2,0,0,1-1.85-1,5.61,5.61,0,0,1-.59-2.8,7.59,7.59,0,0,1,.24-2.05,2.58,2.58,0,0,1,.78-1.3,2.16,2.16,0,0,1,1.42-.45,2,2,0,0,1,1.86,1A5.4,5.4,0,0,1,140,158.61Zm-4,0a5.78,5.78,0,0,0,.35,2.28,1.2,1.2,0,0,0,1.18.75,1.22,1.22,0,0,0,1.19-.75,7.37,7.37,0,0,0,0-4.55,1.22,1.22,0,0,0-1.19-.76,1.19,1.19,0,0,0-1.18.76A5.69,5.69,0,0,0,136,158.61Z"/><path class="cls-1" d="M143.79,154.82a2.68,2.68,0,0,1,1.6.45,1.55,1.55,0,0,1,.62,1.32,1.49,1.49,0,0,1-.19.77,2.19,2.19,0,0,1-.51.59,4.28,4.28,0,0,1-.71.45,6.08,6.08,0,0,1,.83.5,2.07,2.07,0,0,1,.59.63,1.61,1.61,0,0,1,.23.87,1.81,1.81,0,0,1-.67,1.48,2.68,2.68,0,0,1-1.76.54,2.84,2.84,0,0,1-1.84-.52,1.81,1.81,0,0,1-.63-1.47,1.75,1.75,0,0,1,.21-.87,2.06,2.06,0,0,1,.56-.65,4.52,4.52,0,0,1,.76-.46,3.09,3.09,0,0,1-.92-.75,1.66,1.66,0,0,1-.37-1.12,1.54,1.54,0,0,1,.29-1,1.82,1.82,0,0,1,.78-.6A2.88,2.88,0,0,1,143.79,154.82Zm-1.55,5.62a1.2,1.2,0,0,0,.38.9,2.13,2.13,0,0,0,2.34,0,1.22,1.22,0,0,0,.4-.93,1.12,1.12,0,0,0-.43-.9,4.09,4.09,0,0,0-1.13-.62l-.16-.06a3.06,3.06,0,0,0-1,.67A1.3,1.3,0,0,0,142.24,160.44Zm1.54-4.89a1.48,1.48,0,0,0-.94.28.92.92,0,0,0-.36.79,1.1,1.1,0,0,0,.18.64,1.5,1.5,0,0,0,.49.44c.21.12.44.24.68.35a3.34,3.34,0,0,0,.91-.55,1.09,1.09,0,0,0,.37-.88.92.92,0,0,0-.36-.79A1.55,1.55,0,0,0,143.78,155.55Z"/><path class="cls-1" d="M163.13,158.61a7.64,7.64,0,0,1-.24,2,2.54,2.54,0,0,1-.8,1.3,2.09,2.09,0,0,1-1.42.46,2,2,0,0,1-1.85-1,5.49,5.49,0,0,1-.6-2.8,7.55,7.55,0,0,1,.25-2.05,2.52,2.52,0,0,1,.78-1.3,2.14,2.14,0,0,1,1.42-.45,2,2,0,0,1,1.85,1A5.4,5.4,0,0,1,163.13,158.61Zm-4,0a5.81,5.81,0,0,0,.34,2.28,1.31,1.31,0,0,0,2.37,0,7.37,7.37,0,0,0,0-4.55,1.3,1.3,0,0,0-2.37,0A5.72,5.72,0,0,0,159.14,158.61Z"/><path class="cls-1" d="M169.38,158.08a9.16,9.16,0,0,1-.14,1.57,4.12,4.12,0,0,1-.51,1.4,2.75,2.75,0,0,1-1,1,3.51,3.51,0,0,1-1.72.37l-.48,0a2.13,2.13,0,0,1-.45-.07v-.78a2.86,2.86,0,0,0,.91.13,2.79,2.79,0,0,0,1.2-.23,2.06,2.06,0,0,0,.75-.65,2.6,2.6,0,0,0,.4-1,5.23,5.23,0,0,0,.15-1.14h-.06a2,2,0,0,1-1.76.86,2,2,0,0,1-1.54-.59,2.22,2.22,0,0,1-.59-1.65,2.87,2.87,0,0,1,.29-1.33,2,2,0,0,1,.83-.86,2.47,2.47,0,0,1,1.24-.3,2.35,2.35,0,0,1,1.28.35,2.43,2.43,0,0,1,.9,1.08A4.4,4.4,0,0,1,169.38,158.08Zm-2.51-2.5a1.4,1.4,0,0,0-1.05.43,1.8,1.8,0,0,0-.41,1.29,1.72,1.72,0,0,0,.35,1.13,1.33,1.33,0,0,0,1.07.4,1.68,1.68,0,0,0,.86-.2,1.57,1.57,0,0,0,.57-.51,1.2,1.2,0,0,0,.2-.64,2.27,2.27,0,0,0-.18-.88,1.75,1.75,0,0,0-.53-.73A1.33,1.33,0,0,0,166.87,155.58Z"/><path class="cls-1" d="M116.92,158.61a7.23,7.23,0,0,1-.25,2,2.6,2.6,0,0,1-.79,1.3,2.12,2.12,0,0,1-1.43.46,2,2,0,0,1-1.85-1,5.61,5.61,0,0,1-.59-2.8,7.59,7.59,0,0,1,.24-2.05,2.52,2.52,0,0,1,.78-1.3,2.16,2.16,0,0,1,1.42-.45,2,2,0,0,1,1.86,1A5.5,5.5,0,0,1,116.92,158.61Zm-4,0a5.78,5.78,0,0,0,.35,2.28,1.2,1.2,0,0,0,1.18.75,1.22,1.22,0,0,0,1.19-.75,7.37,7.37,0,0,0,0-4.55,1.22,1.22,0,0,0-1.19-.76,1.19,1.19,0,0,0-1.18.76A5.69,5.69,0,0,0,112.92,158.61Z"/><path class="cls-1" d="M119,162.32l3-6.57h-4v-.83h5v.7l-3,6.7Z"/><path class="cls-1" d="M93.61,158.61a7.23,7.23,0,0,1-.25,2,2.6,2.6,0,0,1-.79,1.3,2.12,2.12,0,0,1-1.43.46,2,2,0,0,1-1.85-1,5.61,5.61,0,0,1-.59-2.8,7.59,7.59,0,0,1,.24-2.05,2.52,2.52,0,0,1,.78-1.3,2.16,2.16,0,0,1,1.42-.45,2,2,0,0,1,1.86,1A5.5,5.5,0,0,1,93.61,158.61Zm-4,0a5.78,5.78,0,0,0,.35,2.28,1.2,1.2,0,0,0,1.18.75,1.22,1.22,0,0,0,1.19-.75,7.37,7.37,0,0,0,0-4.55,1.22,1.22,0,0,0-1.19-.76,1.19,1.19,0,0,0-1.18.76A5.69,5.69,0,0,0,89.61,158.61Z"/><path class="cls-1" d="M95.12,159.16a9,9,0,0,1,.14-1.57,4,4,0,0,1,.51-1.4,2.68,2.68,0,0,1,1-1,3.44,3.44,0,0,1,1.71-.37,4.19,4.19,0,0,1,.48,0,2,2,0,0,1,.43.07v.78a1.72,1.72,0,0,0-.42-.1l-.47,0a2.63,2.63,0,0,0-1.19.24,1.91,1.91,0,0,0-.75.65,2.75,2.75,0,0,0-.4,1,6.64,6.64,0,0,0-.16,1.15h.06a1.91,1.91,0,0,1,.67-.62,2.07,2.07,0,0,1,1.09-.25,2.1,2.1,0,0,1,1.55.58,2.26,2.26,0,0,1,.59,1.66,2.5,2.5,0,0,1-.64,1.83,2.25,2.25,0,0,1-1.71.66A2.28,2.28,0,0,1,95.46,161,4.24,4.24,0,0,1,95.12,159.16Zm2.51,2.49a1.42,1.42,0,0,0,1.06-.42,1.85,1.85,0,0,0,.4-1.3,1.66,1.66,0,0,0-.36-1.12,1.35,1.35,0,0,0-1.07-.41,1.75,1.75,0,0,0-.85.2,1.57,1.57,0,0,0-.56.52,1.13,1.13,0,0,0-.21.64,2.31,2.31,0,0,0,.18.88,1.71,1.71,0,0,0,.53.73A1.35,1.35,0,0,0,97.63,161.65Z"/><path class="cls-1" d="M70.51,158.61a7.61,7.61,0,0,1-.25,2,2.54,2.54,0,0,1-.8,1.3,2.09,2.09,0,0,1-1.42.46,2,2,0,0,1-1.85-1,5.5,5.5,0,0,1-.59-2.8,7.59,7.59,0,0,1,.24-2.05,2.52,2.52,0,0,1,.78-1.3,2.14,2.14,0,0,1,1.42-.45,2,2,0,0,1,1.85,1A5.4,5.4,0,0,1,70.51,158.61Zm-4,0a5.81,5.81,0,0,0,.34,2.28,1.21,1.21,0,0,0,1.19.75,1.23,1.23,0,0,0,1.19-.75,7.57,7.57,0,0,0,0-4.55,1.23,1.23,0,0,0-1.19-.76,1.21,1.21,0,0,0-1.19.76A5.72,5.72,0,0,0,66.51,158.61Z"/><path class="cls-1" d="M74.17,157.78a2.71,2.71,0,0,1,1.81.57,2,2,0,0,1,.68,1.6,2.3,2.3,0,0,1-.73,1.81,2.94,2.94,0,0,1-2,.66,5.19,5.19,0,0,1-1.07-.1A2.74,2.74,0,0,1,72,162v-.86a3.07,3.07,0,0,0,.9.35,4.19,4.19,0,0,0,1,.13,2.07,2.07,0,0,0,1.32-.39,1.64,1.64,0,0,0,.06-2.32,2.1,2.1,0,0,0-1.41-.39,4.24,4.24,0,0,0-.66.06c-.25,0-.45.07-.6.1l-.46-.29.28-3.49h3.71v.83H73.21L73,157.89l.48-.07A4.5,4.5,0,0,1,74.17,157.78Z"/><path class="cls-1" d="M47.15,158.61a7.64,7.64,0,0,1-.24,2,2.54,2.54,0,0,1-.8,1.3,2.09,2.09,0,0,1-1.42.46,2,2,0,0,1-1.85-1,5.49,5.49,0,0,1-.6-2.8,7.55,7.55,0,0,1,.25-2.05,2.52,2.52,0,0,1,.78-1.3,2.14,2.14,0,0,1,1.42-.45,2,2,0,0,1,1.85,1A5.4,5.4,0,0,1,47.15,158.61Zm-4,0a5.81,5.81,0,0,0,.34,2.28,1.21,1.21,0,0,0,1.19.75,1.23,1.23,0,0,0,1.19-.75,7.57,7.57,0,0,0,0-4.55,1.23,1.23,0,0,0-1.19-.76,1.21,1.21,0,0,0-1.19.76A5.72,5.72,0,0,0,43.16,158.61Z"/><path class="cls-1" d="M53.86,160.64H52.78v1.68H51.9v-1.68H48.36v-.78l3.48-5h.94v4.94h1.08Zm-2-.82v-2.33c0-.36,0-.67,0-.92s0-.49,0-.72h0c-.06.13-.12.27-.21.43a2.51,2.51,0,0,1-.24.38l-2.21,3.16Z"/><path class="cls-1" d="M184.84,162.32H184v-5.17c0-.3,0-.54,0-.72s0-.36,0-.56a2.53,2.53,0,0,1-.31.28l-.33.29-.79.64-.48-.61,2-1.55h.76Z"/><path class="cls-1" d="M192.3,158.61a7.23,7.23,0,0,1-.25,2,2.6,2.6,0,0,1-.79,1.3,2.14,2.14,0,0,1-1.43.46,2,2,0,0,1-1.85-1,5.61,5.61,0,0,1-.59-2.8,7.59,7.59,0,0,1,.24-2.05,2.52,2.52,0,0,1,.78-1.3,2.16,2.16,0,0,1,1.42-.45,2,2,0,0,1,1.86,1A5.5,5.5,0,0,1,192.3,158.61Zm-4,0a5.6,5.6,0,0,0,.35,2.28,1.2,1.2,0,0,0,1.18.75,1.23,1.23,0,0,0,1.19-.75,7.37,7.37,0,0,0,0-4.55,1.23,1.23,0,0,0-1.19-.76,1.19,1.19,0,0,0-1.18.76A5.52,5.52,0,0,0,188.3,158.61Z"/><path class="cls-1" d="M208.2,162.32h-.89v-5.17c0-.3,0-.54,0-.72s0-.36,0-.56a3.58,3.58,0,0,1-.3.28l-.34.29-.79.64-.48-.61,2-1.55h.76Z"/><path class="cls-1" d="M213.53,162.32h-.9v-5.17c0-.3,0-.54,0-.72a5.55,5.55,0,0,1,0-.56,3.56,3.56,0,0,1-.31.28l-.34.29-.78.64-.48-.61,2-1.55h.76Z"/><path class="cls-1" d="M231.26,162.32h-.89v-5.17c0-.3,0-.54,0-.72s0-.36,0-.56a3.58,3.58,0,0,1-.3.28l-.34.29-.79.64-.47-.61,2-1.55h.75Z"/><path class="cls-1" d="M238.49,162.32H233.6v-.76l1.94-2c.37-.37.68-.7.94-1a3.67,3.67,0,0,0,.58-.85,2.17,2.17,0,0,0,.2-.92,1.17,1.17,0,0,0-.36-.93,1.4,1.4,0,0,0-1-.32,2.33,2.33,0,0,0-.95.19,4.32,4.32,0,0,0-.83.52l-.48-.61a4,4,0,0,1,1-.62,3,3,0,0,1,1.26-.25,2.39,2.39,0,0,1,1.64.52,1.84,1.84,0,0,1,.6,1.44,2.52,2.52,0,0,1-.24,1.09,4.84,4.84,0,0,1-.66,1,13.26,13.26,0,0,1-1,1l-1.55,1.53v0h3.74Z"/><path class="cls-1" d="M254.42,162.32h-.89v-5.17c0-.3,0-.54,0-.72a5.55,5.55,0,0,1,0-.56,3.56,3.56,0,0,1-.31.28l-.34.29-.78.64-.48-.61,2-1.55h.76Z"/><path class="cls-1" d="M261.38,156.65a1.66,1.66,0,0,1-.42,1.19,2.11,2.11,0,0,1-1.12.58v0a2.18,2.18,0,0,1,1.33.56,1.66,1.66,0,0,1,.44,1.19,2.17,2.17,0,0,1-.3,1.15,2,2,0,0,1-.93.78,3.94,3.94,0,0,1-1.61.28,6,6,0,0,1-1.08-.09,3.53,3.53,0,0,1-.95-.31v-.85a4.1,4.1,0,0,0,1,.36,4.82,4.82,0,0,0,1,.12,2.13,2.13,0,0,0,1.43-.39,1.31,1.31,0,0,0,.44-1.07,1.07,1.07,0,0,0-.54-1,3.19,3.19,0,0,0-1.53-.3h-.71v-.78h.72a2.16,2.16,0,0,0,1.38-.38,1.25,1.25,0,0,0,.48-1,1,1,0,0,0-.37-.83,1.49,1.49,0,0,0-1-.3,2.67,2.67,0,0,0-1,.18,5.65,5.65,0,0,0-.84.44l-.45-.62a4.27,4.27,0,0,1,1-.54,3.67,3.67,0,0,1,1.33-.22,2.49,2.49,0,0,1,1.72.51A1.72,1.72,0,0,1,261.38,156.65Z"/><path class="cls-1" d="M277.52,162.32h-.89v-5.17c0-.3,0-.54,0-.72s0-.36,0-.56a2.53,2.53,0,0,1-.31.28l-.33.29-.79.64-.48-.61,2-1.55h.76Z"/><path class="cls-1" d="M285.21,160.64h-1.08v1.68h-.88v-1.68h-3.54v-.78l3.48-5h.94v4.94h1.08Zm-2-.82v-2.33c0-.36,0-.67,0-.92s0-.49,0-.72h0l-.21.43a2.51,2.51,0,0,1-.24.38l-2.21,3.16Z"/><path class="cls-1" d="M300.61,162.32h-.89v-5.17c0-.3,0-.54,0-.72s0-.36,0-.56a3.58,3.58,0,0,1-.3.28l-.34.29-.79.64-.47-.61,2-1.55h.75Z"/><path class="cls-1" d="M305.4,157.78a2.74,2.74,0,0,1,1.81.57,2,2,0,0,1,.67,1.6,2.3,2.3,0,0,1-.73,1.81,2.9,2.9,0,0,1-2,.66,5.22,5.22,0,0,1-1.08-.1,3,3,0,0,1-.84-.3v-.86a3,3,0,0,0,.91.35,4.08,4.08,0,0,0,1,.13,2.11,2.11,0,0,0,1.32-.39,1.67,1.67,0,0,0,.06-2.32,2.12,2.12,0,0,0-1.41-.39,4.25,4.25,0,0,0-.67.06l-.6.1-.45-.29.28-3.49h3.71v.83h-2.94l-.17,2.14.47-.07A4.64,4.64,0,0,1,305.4,157.78Z"/><path class="cls-1" d="M323.84,162.32H323v-5.17c0-.3,0-.54,0-.72s0-.36,0-.56a2.53,2.53,0,0,1-.31.28l-.33.29-.79.64-.48-.61,2-1.55h.76Z"/><path class="cls-1" d="M326.4,159.16a8.12,8.12,0,0,1,.14-1.57,4,4,0,0,1,.51-1.4,2.61,2.61,0,0,1,1-1,3.44,3.44,0,0,1,1.71-.37,4.19,4.19,0,0,1,.48,0,2.14,2.14,0,0,1,.43.07v.78a1.81,1.81,0,0,0-.43-.1l-.46,0a2.6,2.6,0,0,0-1.19.24,2,2,0,0,0-.76.65,3.19,3.19,0,0,0-.4,1,6.67,6.67,0,0,0-.15,1.15h.06a1.91,1.91,0,0,1,.67-.62,2.06,2.06,0,0,1,1.08-.25,2.14,2.14,0,0,1,1.56.58,2.26,2.26,0,0,1,.59,1.66,2.55,2.55,0,0,1-.64,1.83,2.27,2.27,0,0,1-1.71.66,2.44,2.44,0,0,1-1.28-.35,2.51,2.51,0,0,1-.91-1.08A4.4,4.4,0,0,1,326.4,159.16Zm2.51,2.49a1.39,1.39,0,0,0,1-.42,1.81,1.81,0,0,0,.41-1.3,1.66,1.66,0,0,0-.36-1.12,1.36,1.36,0,0,0-1.07-.41,1.75,1.75,0,0,0-.85.2,1.6,1.6,0,0,0-.57.52,1.2,1.2,0,0,0-.2.64,2.31,2.31,0,0,0,.18.88,1.69,1.69,0,0,0,.52.73A1.37,1.37,0,0,0,328.91,161.65Z"/><path class="cls-1" d="M347.07,162.32h-.89v-5.17c0-.3,0-.54,0-.72a5.55,5.55,0,0,1,0-.56,3.56,3.56,0,0,1-.31.28l-.34.29-.78.64-.48-.61,2-1.55h.76Z"/><path class="cls-1" d="M350.34,162.32l3-6.57h-4v-.83h5v.7l-3,6.7Z"/><path class="cls-1" d="M370.16,162.32h-.89v-5.17c0-.3,0-.54,0-.72a5.55,5.55,0,0,1,0-.56,2.53,2.53,0,0,1-.31.28l-.33.29-.79.64-.48-.61,2-1.55h.76Z"/><path class="cls-1" d="M375.11,154.82a2.68,2.68,0,0,1,1.6.45,1.55,1.55,0,0,1,.62,1.32,1.5,1.5,0,0,1-.2.77,1.89,1.89,0,0,1-.51.59,4.19,4.19,0,0,1-.7.45,6.08,6.08,0,0,1,.83.5,2.2,2.2,0,0,1,.59.63,1.61,1.61,0,0,1,.23.87,1.84,1.84,0,0,1-.67,1.48,2.7,2.7,0,0,1-1.76.54,2.84,2.84,0,0,1-1.84-.52,1.81,1.81,0,0,1-.63-1.47,1.75,1.75,0,0,1,.21-.87,2.06,2.06,0,0,1,.56-.65,4.52,4.52,0,0,1,.76-.46,3,3,0,0,1-.92-.75,1.67,1.67,0,0,1-.38-1.12,1.61,1.61,0,0,1,.29-1,1.91,1.91,0,0,1,.79-.6A2.88,2.88,0,0,1,375.11,154.82Zm-1.55,5.62a1.17,1.17,0,0,0,.38.9,1.67,1.67,0,0,0,1.18.35,1.69,1.69,0,0,0,1.16-.35,1.21,1.21,0,0,0,.39-.93,1.14,1.14,0,0,0-.42-.9,4.09,4.09,0,0,0-1.13-.62l-.17-.06a3.28,3.28,0,0,0-1,.67A1.29,1.29,0,0,0,373.56,160.44Zm1.54-4.89a1.46,1.46,0,0,0-.94.28.93.93,0,0,0-.37.79,1,1,0,0,0,.19.64,1.5,1.5,0,0,0,.49.44,6.13,6.13,0,0,0,.68.35,3.49,3.49,0,0,0,.91-.55,1.12,1.12,0,0,0,.37-.88.93.93,0,0,0-.37-.79A1.5,1.5,0,0,0,375.1,155.55Z"/><path class="cls-1" d="M392.65,162.32h-.89v-5.17c0-.3,0-.54,0-.72s0-.36,0-.56a3.58,3.58,0,0,1-.3.28l-.34.29-.79.64-.48-.61,2-1.55h.76Z"/><path class="cls-1" d="M399.94,158.08a8.26,8.26,0,0,1-.14,1.57,4.33,4.33,0,0,1-.5,1.4,2.78,2.78,0,0,1-1,1,3.49,3.49,0,0,1-1.71.37l-.49,0a2.13,2.13,0,0,1-.45-.07v-.78a2.92,2.92,0,0,0,.92.13,2.74,2.74,0,0,0,1.19-.23,1.91,1.91,0,0,0,.75-.65,2.79,2.79,0,0,0,.41-1,5.93,5.93,0,0,0,.14-1.14H399a2.17,2.17,0,0,1-.66.61,2.13,2.13,0,0,1-1.1.25,2,2,0,0,1-1.54-.59,2.22,2.22,0,0,1-.59-1.65,2.87,2.87,0,0,1,.29-1.33,2,2,0,0,1,.83-.86,2.49,2.49,0,0,1,1.25-.3,2.31,2.31,0,0,1,1.27.35,2.43,2.43,0,0,1,.9,1.08A4.4,4.4,0,0,1,399.94,158.08Zm-2.5-2.5a1.4,1.4,0,0,0-1.06.43,1.8,1.8,0,0,0-.4,1.29,1.71,1.71,0,0,0,.34,1.13,1.34,1.34,0,0,0,1.08.4,1.65,1.65,0,0,0,.85-.2,1.42,1.42,0,0,0,.57-.51,1.2,1.2,0,0,0,.2-.64,2.46,2.46,0,0,0-.17-.88,1.94,1.94,0,0,0-.53-.73A1.37,1.37,0,0,0,397.44,155.58Z"/><path class="cls-1" d="M418,162.32h-4.89v-.76l1.94-2c.36-.37.68-.7.94-1a4,4,0,0,0,.58-.85,2.17,2.17,0,0,0,.2-.92,1.17,1.17,0,0,0-.36-.93,1.42,1.42,0,0,0-.95-.32,2.33,2.33,0,0,0-.95.19,4,4,0,0,0-.83.52l-.49-.61a4.21,4.21,0,0,1,1-.62,3.06,3.06,0,0,1,1.27-.25,2.41,2.41,0,0,1,1.64.52,1.84,1.84,0,0,1,.6,1.44,2.52,2.52,0,0,1-.24,1.09,4.84,4.84,0,0,1-.66,1,13.51,13.51,0,0,1-1,1l-1.54,1.53v0H418Z"/><path class="cls-1" d="M424.1,158.61a7.23,7.23,0,0,1-.25,2,2.53,2.53,0,0,1-.79,1.3,2.11,2.11,0,0,1-1.42.46,2,2,0,0,1-1.85-1,5.49,5.49,0,0,1-.6-2.8,7.18,7.18,0,0,1,.25-2.05,2.52,2.52,0,0,1,.78-1.3,2.14,2.14,0,0,1,1.42-.45,2,2,0,0,1,1.85,1A5.4,5.4,0,0,1,424.1,158.61Zm-4,0a5.78,5.78,0,0,0,.35,2.28,1.31,1.31,0,0,0,2.37,0,7.37,7.37,0,0,0,0-4.55,1.3,1.3,0,0,0-2.37,0A5.69,5.69,0,0,0,420.1,158.61Z"/><path class="cls-1" d="M441.21,162.32h-4.89v-.76l1.93-2c.37-.37.68-.7.94-1a3.74,3.74,0,0,0,.59-.85,2.17,2.17,0,0,0,.19-.92,1.17,1.17,0,0,0-.36-.93,1.37,1.37,0,0,0-.94-.32,2.3,2.3,0,0,0-.95.19,4,4,0,0,0-.83.52l-.49-.61a4,4,0,0,1,1-.62,3.06,3.06,0,0,1,1.27-.25,2.41,2.41,0,0,1,1.64.52,1.84,1.84,0,0,1,.6,1.44,2.52,2.52,0,0,1-.24,1.09,4.84,4.84,0,0,1-.66,1c-.29.33-.62.68-1,1l-1.54,1.53v0h3.74Z"/><path class="cls-1" d="M445.46,162.32h-.9v-5.17c0-.3,0-.54,0-.72s0-.36,0-.56a3.56,3.56,0,0,1-.31.28l-.34.29-.78.64-.48-.61,2-1.55h.76Z"/><path class="cls-1" d="M5.16,92.66a7.61,7.61,0,0,1-.25,2A2.67,2.67,0,0,1,4.12,96a2.19,2.19,0,0,1-1.43.45,2,2,0,0,1-1.85-1,5.61,5.61,0,0,1-.59-2.8,7.59,7.59,0,0,1,.24-2,2.52,2.52,0,0,1,.78-1.3,2.14,2.14,0,0,1,1.42-.45,2,2,0,0,1,1.86,1A5.44,5.44,0,0,1,5.16,92.66Zm-4,0a5.6,5.6,0,0,0,.35,2.28,1.2,1.2,0,0,0,1.18.75,1.23,1.23,0,0,0,1.19-.75,5.51,5.51,0,0,0,.36-2.28,5.49,5.49,0,0,0-.36-2.27,1.24,1.24,0,0,0-1.19-.76,1.21,1.21,0,0,0-1.18.76A5.52,5.52,0,0,0,1.16,92.66Z"/><rect class="cls-1" x="10.4" y="92.48" width="460.51" height="0.37"/><path class="cls-1" d="M24.66,158.61a7.23,7.23,0,0,1-.25,2,2.53,2.53,0,0,1-.79,1.3,2.11,2.11,0,0,1-1.42.46,2,2,0,0,1-1.85-1,5.49,5.49,0,0,1-.6-2.8,7.59,7.59,0,0,1,.24-2.05,2.6,2.6,0,0,1,.79-1.3,2.12,2.12,0,0,1,1.42-.45,2,2,0,0,1,1.85,1A5.4,5.4,0,0,1,24.66,158.61Zm-4,0a5.78,5.78,0,0,0,.35,2.28,1.31,1.31,0,0,0,2.37,0,7.37,7.37,0,0,0,0-4.55,1.3,1.3,0,0,0-2.37,0A5.69,5.69,0,0,0,20.66,158.61Z"/><path class="cls-1" d="M30.5,156.65a1.66,1.66,0,0,1-.42,1.19,2.12,2.12,0,0,1-1.11.58v0a2.13,2.13,0,0,1,1.32.56,1.66,1.66,0,0,1,.44,1.19,2.17,2.17,0,0,1-.3,1.15,2,2,0,0,1-.93.78,3.88,3.88,0,0,1-1.61.28,6,6,0,0,1-1.07-.09,3.59,3.59,0,0,1-1-.31v-.85a4.18,4.18,0,0,0,1,.36,4.73,4.73,0,0,0,1,.12,2.16,2.16,0,0,0,1.44-.39,1.34,1.34,0,0,0,.44-1.07,1.06,1.06,0,0,0-.55-1,3.17,3.17,0,0,0-1.52-.3H27v-.78h.73a2.18,2.18,0,0,0,1.38-.38,1.27,1.27,0,0,0,.47-1,1,1,0,0,0-.36-.83,1.5,1.5,0,0,0-1-.3,2.59,2.59,0,0,0-1,.18,5.65,5.65,0,0,0-.84.44l-.46-.62a4.49,4.49,0,0,1,1-.54,3.71,3.71,0,0,1,1.33-.22,2.52,2.52,0,0,1,1.73.51A1.71,1.71,0,0,1,30.5,156.65Z"/><path class="cls-3" d="M24.7,66.8a.74.74,0,0,1-.2-1.45l23.16-6.52a.74.74,0,1,1,.4,1.43L24.9,66.77A.69.69,0,0,1,24.7,66.8Z"/><path class="cls-3" d="M71,62.19H71L47.8,60.28a.74.74,0,0,1,.12-1.47l23.17,1.91A.74.74,0,0,1,71,62.19Z"/><path class="cls-3" d="M94.19,65.74h-.11L70.91,62.19a.74.74,0,0,1,.23-1.47L94.3,64.27a.74.74,0,0,1,.62.84A.75.75,0,0,1,94.19,65.74Z"/><path class="cls-3" d="M94.19,65.74a.75.75,0,0,1-.74-.66.74.74,0,0,1,.65-.82l23.16-2.73a.72.72,0,0,1,.82.65.74.74,0,0,1-.64.82L94.27,65.73Z"/><path class="cls-3" d="M140.51,65h-.06L117.29,63a.74.74,0,0,1-.68-.8.73.73,0,0,1,.8-.67l23.16,1.94a.74.74,0,0,1,.68.8A.75.75,0,0,1,140.51,65Z"/><path class="cls-3" d="M163.67,71l-.18,0-23.17-6.09a.74.74,0,0,1,.38-1.43l23.16,6.09a.73.73,0,0,1,.53.9A.75.75,0,0,1,163.67,71Z"/><path class="cls-3" d="M163.67,71a.74.74,0,0,1-.16-1.46l23.16-5.23a.74.74,0,1,1,.33,1.45L163.84,71A.5.5,0,0,1,163.67,71Z"/><path class="cls-3" d="M210,68.33h-.08L186.76,65.8a.74.74,0,0,1-.66-.82.75.75,0,0,1,.82-.65l23.16,2.53a.74.74,0,0,1-.08,1.47Z"/><path class="cls-3" d="M233.16,68.4h0L210,68.33a.74.74,0,0,1,0-1.48h0l23.16.07a.74.74,0,1,1,0,1.48Z"/><path class="cls-3" d="M256.32,68.92h0l-23.17-.52a.74.74,0,0,1,0-1.48h0l23.16.52a.73.73,0,0,1,.72.75A.74.74,0,0,1,256.32,68.92Z"/><path class="cls-3" d="M279.48,84a.77.77,0,0,1-.4-.12L255.92,68.8a.74.74,0,1,1,.81-1.24l23.16,15.06a.74.74,0,0,1-.41,1.36Z"/><path class="cls-3" d="M279.48,84a.74.74,0,0,1-.08-1.48L302.57,80a.74.74,0,0,1,.16,1.48L279.56,84Z"/><path class="cls-3" d="M325.81,83.63h-.07l-23.16-2.18a.74.74,0,0,1-.67-.81.75.75,0,0,1,.81-.67l23.16,2.19a.74.74,0,0,1-.07,1.47Z"/><path class="cls-3" d="M325.81,83.63a.73.73,0,0,1-.74-.71.75.75,0,0,1,.71-.77L349,81.36a.72.72,0,0,1,.76.72.74.74,0,0,1-.71.76l-23.17.79Z"/><path class="cls-3" d="M349,82.84a.74.74,0,0,1-.05-1.48l23.16-1.51a.77.77,0,0,1,.79.69.74.74,0,0,1-.69.79L349,82.84Z"/><path class="cls-3" d="M395.3,81.33H372.13a.74.74,0,0,1,0-1.48H395.3a.74.74,0,1,1,0,1.48Z"/><path class="cls-3" d="M418.46,84.27h-.1L395.2,81.32a.74.74,0,1,1,.19-1.46l23.16,2.94a.74.74,0,0,1-.09,1.47Z"/><path class="cls-3" d="M418.46,84.27a.73.73,0,0,1-.73-.61.74.74,0,0,1,.6-.86l23.16-4a.74.74,0,1,1,.25,1.45l-23.16,4Z"/><path class="cls-4" d="M47.86,89.08a.75.75,0,0,1-.52-.21L24.18,65.81a.73.73,0,0,1,0-1,.74.74,0,0,1,1,0L48.39,87.82a.75.75,0,0,1,0,1.05A.77.77,0,0,1,47.86,89.08Z"/><path class="cls-4" d="M47.86,89.08a.74.74,0,0,1-.72-.6.72.72,0,0,1,.58-.86l23.16-4.51a.75.75,0,0,1,.87.59.74.74,0,0,1-.58.87L48,89.07Z"/><path class="cls-4" d="M71,84.58a.74.74,0,0,1,0-1.48l23.16-1.39a.73.73,0,0,1,.79.69.74.74,0,0,1-.7.78l-23.16,1.4Z"/><path class="cls-4" d="M94.19,83.19a.74.74,0,0,1-.12-1.47L117.23,78a.74.74,0,1,1,.24,1.46L94.3,83.18Z"/><path class="cls-4" d="M117.35,79.49a.75.75,0,0,1-.74-.67.76.76,0,0,1,.67-.81l23.16-2.15a.76.76,0,0,1,.81.67.74.74,0,0,1-.67.81l-23.16,2.15Z"/><path class="cls-4" d="M163.67,84.08l-.2,0-23.16-6.74a.73.73,0,0,1-.51-.91.75.75,0,0,1,.92-.51l23.16,6.74a.74.74,0,0,1-.21,1.45Z"/><path class="cls-4" d="M163.67,84.08a.74.74,0,0,1,0-1.48l23.16-1a.76.76,0,0,1,.78.71.75.75,0,0,1-.71.77l-23.16,1Z"/><path class="cls-4" d="M186.83,83.05a.74.74,0,0,1-.72-.59.76.76,0,0,1,.58-.88l23.16-4.76a.74.74,0,0,1,.87.58.73.73,0,0,1-.57.87L187,83Z"/><path class="cls-4" d="M210,78.29a.74.74,0,0,1-.74-.72.73.73,0,0,1,.71-.76l23.16-.88a.74.74,0,0,1,.06,1.48L210,78.29Z"/><path class="cls-4" d="M233.16,77.41A.74.74,0,0,1,233,76l23.16-5.59a.74.74,0,0,1,.35,1.44l-23.17,5.59Z"/><path class="cls-4" d="M279.48,78.72a.82.82,0,0,1-.21,0l-23.16-6.9a.74.74,0,0,1,.42-1.42l23.17,6.9a.74.74,0,0,1-.22,1.45Z"/><path class="cls-4" d="M279.48,78.72a.75.75,0,0,1-.74-.73.74.74,0,0,1,.73-.75l23.16-.45a.75.75,0,0,1,.76.72.75.75,0,0,1-.73.76l-23.16.45Z"/><path class="cls-4" d="M325.81,84.08l-.18,0-23.16-5.81a.74.74,0,0,1,.36-1.44L326,82.62a.74.74,0,0,1-.18,1.46Z"/><path class="cls-4" d="M349,86.14h-.06l-23.17-2.06a.74.74,0,1,1,.14-1.48L349,84.67a.74.74,0,0,1-.07,1.47Z"/><path class="cls-4" d="M349,86.14a.74.74,0,0,1,0-1.48l23.16-.89a.71.71,0,0,1,.77.71.74.74,0,0,1-.71.77L349,86.14Z"/><path class="cls-4" d="M372.13,85.25a.74.74,0,0,1-.2-1.45l23.16-6.72a.74.74,0,0,1,.92.5.76.76,0,0,1-.51.92l-23.16,6.72A.76.76,0,0,1,372.13,85.25Z"/><path class="cls-4" d="M418.46,85.49l-.22,0-23.16-7a.75.75,0,0,1-.49-.93.73.73,0,0,1,.92-.49l23.16,7a.74.74,0,0,1-.21,1.45Z"/><path class="cls-4" d="M418.46,85.49a.74.74,0,0,1-.1-1.47l23.16-3.18a.74.74,0,1,1,.2,1.46l-23.16,3.18Z"/><path class="cls-5" d="M24.7,126.06h-.15a.74.74,0,0,1-.57-.88L47.14,14.25a.74.74,0,0,1,1.45.3L25.43,125.47A.76.76,0,0,1,24.7,126.06Z"/><path class="cls-5" d="M71,65.67a.76.76,0,0,1-.68-.43L47.19,14.71a.74.74,0,0,1,1.35-.62L71.7,64.62a.73.73,0,0,1-.37,1A.66.66,0,0,1,71,65.67Z"/><path class="cls-5" d="M71,65.67a.75.75,0,0,1-.63-.35.73.73,0,0,1,.24-1L93.8,50.06a.74.74,0,0,1,.78,1.26L71.41,65.56A.76.76,0,0,1,71,65.67Z"/><path class="cls-5" d="M94.19,51.43a.73.73,0,0,1-.73-.61.75.75,0,0,1,.6-.86l23.16-4.12a.74.74,0,0,1,.86.6.75.75,0,0,1-.6.86L94.32,51.42Z"/><path class="cls-5" d="M140.51,82.17a.71.71,0,0,1-.61-.33L116.73,47a.75.75,0,0,1,.21-1,.74.74,0,0,1,1,.21L141.13,81a.74.74,0,0,1-.62,1.15Z"/><path class="cls-5" d="M163.67,144.65a.74.74,0,0,1-.69-.49L139.82,81.69a.74.74,0,0,1,.43-1,.75.75,0,0,1,1,.43l23.16,62.48a.75.75,0,0,1-.7,1Z"/><path class="cls-5" d="M163.67,144.65l-.13,0a.73.73,0,0,1-.59-.86L186.11,19.51a.74.74,0,1,1,1.45.27L164.4,144A.75.75,0,0,1,163.67,144.65Z"/><path class="cls-5" d="M210,85.9a.74.74,0,0,1-.7-.49L186.14,19.89a.74.74,0,1,1,1.39-.49L210.7,84.92a.74.74,0,0,1-.46.94A.67.67,0,0,1,210,85.9Z"/><path class="cls-5" d="M233.16,91.23a.52.52,0,0,1-.17,0l-23.16-5.33a.74.74,0,0,1,.33-1.44l23.17,5.33a.75.75,0,0,1,.55.89A.74.74,0,0,1,233.16,91.23Z"/><path class="cls-5" d="M233.16,91.23a.76.76,0,0,1-.65-.38.74.74,0,0,1,.3-1L256,77.19a.74.74,0,0,1,.71,1.3L233.51,91.14A.73.73,0,0,1,233.16,91.23Z"/><path class="cls-5" d="M279.48,91.23a.73.73,0,0,1-.35-.09L256,78.49a.74.74,0,1,1,.71-1.3l23.16,12.65a.74.74,0,0,1,.29,1A.73.73,0,0,1,279.48,91.23Z"/><path class="cls-5" d="M279.48,91.23A.74.74,0,0,1,278.9,90l23.16-30.43a.74.74,0,0,1,1.18.9L280.07,90.94A.72.72,0,0,1,279.48,91.23Z"/><path class="cls-5" d="M325.81,109.32a.75.75,0,0,1-.67-.42L302,60.38a.73.73,0,0,1,.35-1,.75.75,0,0,1,1,.34l23.16,48.52a.75.75,0,0,1-.35,1A.88.88,0,0,1,325.81,109.32Z"/><path class="cls-5" d="M325.81,109.32a.76.76,0,0,1-.38-.11.72.72,0,0,1-.25-1l23.16-38.5a.74.74,0,1,1,1.26.77L326.44,109A.74.74,0,0,1,325.81,109.32Z"/><path class="cls-5" d="M372.13,72.85h-.06l-23.16-2a.74.74,0,0,1-.68-.8.75.75,0,0,1,.81-.67l23.16,2a.74.74,0,0,1-.07,1.47Z"/><path class="cls-5" d="M395.3,91.25a.7.7,0,0,1-.46-.16l-23.17-18.4a.74.74,0,1,1,.92-1.16l23.17,18.4a.74.74,0,0,1,.12,1A.77.77,0,0,1,395.3,91.25Z"/><path class="cls-5" d="M418.46,97.73a.64.64,0,0,1-.2,0L395.1,91.22a.74.74,0,0,1-.52-.91.75.75,0,0,1,.92-.51l23.16,6.48a.74.74,0,0,1-.2,1.45Z"/><path class="cls-5" d="M418.46,97.73a.68.68,0,0,1-.34-.08.73.73,0,0,1-.32-1L441,50.57a.72.72,0,0,1,1-.33.74.74,0,0,1,.33,1L419.12,97.32A.74.74,0,0,1,418.46,97.73Z"/><path class="cls-5" d="M16.64,132.9a8,8,0,0,1,.37-2.44,6.16,6.16,0,0,1,1.15-2.12H19a7.39,7.39,0,0,0-1.09,2.15,8.12,8.12,0,0,0-.37,2.4,7.91,7.91,0,0,0,.37,2.36A7.64,7.64,0,0,0,19,137.38h-.85A5.86,5.86,0,0,1,17,135.31,7.74,7.74,0,0,1,16.64,132.9Z"/><path class="cls-5" d="M22.92,135.74H22v-5.17c0-.3,0-.53,0-.71s0-.37,0-.56a3.73,3.73,0,0,1-.31.28l-.33.29-.79.64-.48-.61,2-1.56h.76Z"/><path class="cls-5" d="M30.21,131.5a8.12,8.12,0,0,1-.14,1.57,4,4,0,0,1-.51,1.4,2.68,2.68,0,0,1-1,1,3.51,3.51,0,0,1-1.72.37l-.48,0a2.88,2.88,0,0,1-.45-.08V135a2.85,2.85,0,0,0,.91.14,2.61,2.61,0,0,0,1.2-.24,2,2,0,0,0,.75-.65,2.82,2.82,0,0,0,.41-1,6,6,0,0,0,.14-1.15h-.06a2,2,0,0,1-.67.61,2.4,2.4,0,0,1-2.63-.33,2.23,2.23,0,0,1-.59-1.65,2.91,2.91,0,0,1,.29-1.34,2.09,2.09,0,0,1,.83-.86,2.47,2.47,0,0,1,1.24-.3,2.32,2.32,0,0,1,2.18,1.43A4.4,4.4,0,0,1,30.21,131.5ZM27.7,129a1.42,1.42,0,0,0-1.05.42,1.83,1.83,0,0,0-.41,1.3,1.69,1.69,0,0,0,.35,1.12,1.34,1.34,0,0,0,1.07.41,1.79,1.79,0,0,0,.86-.2,1.6,1.6,0,0,0,.57-.52,1.18,1.18,0,0,0,.2-.64,2.31,2.31,0,0,0-.18-.88,1.72,1.72,0,0,0-.52-.72A1.33,1.33,0,0,0,27.7,129Z"/><path class="cls-5" d="M33.51,132.9a8,8,0,0,1-.37,2.41A5.88,5.88,0,0,1,32,137.38h-.85a7.4,7.4,0,0,0,1.09-2.13,7.9,7.9,0,0,0,.36-2.36,8.12,8.12,0,0,0-.36-2.4,7.18,7.18,0,0,0-1.1-2.15H32a6.19,6.19,0,0,1,1.16,2.12A8.34,8.34,0,0,1,33.51,132.9Z"/><path class="cls-3" d="M22.86,81.56H22V76.39c0-.3,0-.54,0-.72a5.55,5.55,0,0,1,0-.56,3.56,3.56,0,0,1-.31.28l-.34.29-.78.65-.48-.62,2-1.55h.76Z"/><path class="cls-3" d="M25.42,78.4a8.19,8.19,0,0,1,.14-1.57,4.24,4.24,0,0,1,.5-1.4,2.75,2.75,0,0,1,1-1,3.49,3.49,0,0,1,1.71-.37,4.27,4.27,0,0,1,.49,0,2,2,0,0,1,.42.07v.78a2.16,2.16,0,0,0-.42-.1,3.71,3.71,0,0,0-.47,0,2.66,2.66,0,0,0-1.19.24,1.91,1.91,0,0,0-.75.65,3.19,3.19,0,0,0-.4,1,6.8,6.8,0,0,0-.15,1.15h.06a2.08,2.08,0,0,1,.66-.62,2.12,2.12,0,0,1,1.09-.25,2.1,2.1,0,0,1,1.55.58,2.22,2.22,0,0,1,.59,1.66A2.54,2.54,0,0,1,29.65,81a2.29,2.29,0,0,1-1.72.66,2.4,2.4,0,0,1-1.27-.35,2.51,2.51,0,0,1-.91-1.08A4.4,4.4,0,0,1,25.42,78.4Zm2.5,2.49A1.43,1.43,0,0,0,29,80.48a1.83,1.83,0,0,0,.4-1.31A1.68,1.68,0,0,0,29,78.06,1.34,1.34,0,0,0,28,77.64a1.81,1.81,0,0,0-.85.2,1.57,1.57,0,0,0-.56.52,1.12,1.12,0,0,0-.2.64,2.46,2.46,0,0,0,.17.88,1.79,1.79,0,0,0,.53.73A1.36,1.36,0,0,0,27.92,80.89Z"/><path class="cls-6" d="M22.86,59.64H22V54.47c0-.3,0-.54,0-.72a5.55,5.55,0,0,1,0-.56,3.56,3.56,0,0,1-.31.28l-.34.29-.78.64-.48-.61,2-1.55h.76Z"/><path class="cls-6" d="M25.42,56.48a8.12,8.12,0,0,1,.14-1.57,4.24,4.24,0,0,1,.5-1.4,2.75,2.75,0,0,1,1-1,3.49,3.49,0,0,1,1.71-.37,4.27,4.27,0,0,1,.49,0,1.53,1.53,0,0,1,.42.07V53a1.62,1.62,0,0,0-.42-.1,3.71,3.71,0,0,0-.47,0,2.66,2.66,0,0,0-1.19.24,1.91,1.91,0,0,0-.75.65,3.19,3.19,0,0,0-.4,1,6.67,6.67,0,0,0-.15,1.15h.06a2,2,0,0,1,.66-.62,2.36,2.36,0,0,1,2.64.33,2.2,2.2,0,0,1,.59,1.66,2.56,2.56,0,0,1-.63,1.83,2.29,2.29,0,0,1-1.72.66,2.4,2.4,0,0,1-1.27-.35,2.51,2.51,0,0,1-.91-1.08A4.44,4.44,0,0,1,25.42,56.48ZM27.92,59A1.4,1.4,0,0,0,29,58.55a1.81,1.81,0,0,0,.4-1.3A1.71,1.71,0,0,0,29,56.13,1.37,1.37,0,0,0,28,55.72a1.81,1.81,0,0,0-.85.2,1.57,1.57,0,0,0-.56.52,1.12,1.12,0,0,0-.2.64,2.5,2.5,0,0,0,.17.88,1.79,1.79,0,0,0,.53.73A1.36,1.36,0,0,0,27.92,59Z"/><path class="cls-5" d="M205.06,86.93a2.74,2.74,0,0,1,1.81.57,2,2,0,0,1,.67,1.61,2.3,2.3,0,0,1-.73,1.81,2.9,2.9,0,0,1-2,.66,5.2,5.2,0,0,1-1.08-.11,3,3,0,0,1-.84-.3v-.86a3.32,3.32,0,0,0,.91.36,4.6,4.6,0,0,0,1,.13,2.11,2.11,0,0,0,1.32-.39,1.44,1.44,0,0,0,.5-1.21,1.42,1.42,0,0,0-.44-1.11,2.12,2.12,0,0,0-1.41-.39,5.73,5.73,0,0,0-.67,0c-.24,0-.44.07-.6.11l-.45-.29.28-3.5H207v.83h-2.94l-.17,2.15c.12,0,.27,0,.48-.07A4.43,4.43,0,0,1,205.06,86.93Z"/><path class="cls-5" d="M233.87,102.44H233V97.27c0-.29,0-.53,0-.71l0-.56a3.73,3.73,0,0,1-.31.28l-.33.29-.79.64-.48-.61,2-1.55h.76Z"/><path class="cls-5" d="M258.74,85.85a8.26,8.26,0,0,1-.14,1.57,4.19,4.19,0,0,1-.5,1.39,2.64,2.64,0,0,1-1,1,3.49,3.49,0,0,1-1.71.38l-.49,0a2,2,0,0,1-.45-.08v-.77a2.92,2.92,0,0,0,.92.13,2.6,2.6,0,0,0,1.19-.24,1.89,1.89,0,0,0,.75-.64,2.87,2.87,0,0,0,.41-1,5.93,5.93,0,0,0,.14-1.14h-.06a2,2,0,0,1-1.76.86,2.08,2.08,0,0,1-1.54-.59,2.23,2.23,0,0,1-.59-1.65,2.94,2.94,0,0,1,.29-1.34,2.09,2.09,0,0,1,.83-.86,2.49,2.49,0,0,1,1.25-.3,2.32,2.32,0,0,1,1.27.36,2.43,2.43,0,0,1,.9,1.08A4.4,4.4,0,0,1,258.74,85.85Zm-2.5-2.5a1.43,1.43,0,0,0-1.06.42,1.84,1.84,0,0,0-.4,1.3,1.67,1.67,0,0,0,.34,1.12,1.31,1.31,0,0,0,1.08.41,1.65,1.65,0,0,0,.85-.2,1.42,1.42,0,0,0,.57-.51,1.2,1.2,0,0,0,.2-.64,2.46,2.46,0,0,0-.17-.88,1.86,1.86,0,0,0-.53-.73A1.37,1.37,0,0,0,256.24,83.35Z"/><path class="cls-5" d="M281.91,102.44H277v-.75l1.94-2c.36-.37.67-.71.93-1a3.54,3.54,0,0,0,.59-.85,2.11,2.11,0,0,0,.2-.92,1.17,1.17,0,0,0-.37-.92,1.37,1.37,0,0,0-.94-.32,2.15,2.15,0,0,0-.95.19,4,4,0,0,0-.83.51l-.49-.61a4.31,4.31,0,0,1,1-.61,3.07,3.07,0,0,1,1.27-.26,2.41,2.41,0,0,1,1.64.53,1.81,1.81,0,0,1,.6,1.44,2.52,2.52,0,0,1-.24,1.09,4.54,4.54,0,0,1-.66,1c-.29.33-.62.68-1,1l-1.54,1.52v0h3.74Z"/><path class="cls-5" d="M300.44,56.69h-.89V51.52c0-.29,0-.53,0-.71l0-.56-.3.28-.34.29-.79.64-.47-.61,2-1.55h.75Z"/><path class="cls-5" d="M307.74,52.46A9.16,9.16,0,0,1,307.6,54a4.43,4.43,0,0,1-.51,1.39,2.64,2.64,0,0,1-1,1,3.44,3.44,0,0,1-1.71.38l-.49,0a1.94,1.94,0,0,1-.44-.08v-.77a2.82,2.82,0,0,0,.91.13,2.6,2.6,0,0,0,1.19-.24,1.89,1.89,0,0,0,.75-.64,2.76,2.76,0,0,0,.41-1,5.93,5.93,0,0,0,.14-1.14h-.06a2.14,2.14,0,0,1-.66.6,2.11,2.11,0,0,1-1.1.26,2.08,2.08,0,0,1-1.54-.59,2.23,2.23,0,0,1-.58-1.65,2.82,2.82,0,0,1,.29-1.34,2,2,0,0,1,.82-.86,2.51,2.51,0,0,1,1.25-.3,2.32,2.32,0,0,1,1.27.36,2.43,2.43,0,0,1,.9,1.08A4.4,4.4,0,0,1,307.74,52.46ZM305.23,50a1.39,1.39,0,0,0-1.05.42,1.8,1.8,0,0,0-.41,1.3,1.62,1.62,0,0,0,.35,1.12,1.29,1.29,0,0,0,1.07.41,1.68,1.68,0,0,0,.86-.2,1.54,1.54,0,0,0,.56-.51,1.12,1.12,0,0,0,.2-.64,2.51,2.51,0,0,0-.17-.89,1.83,1.83,0,0,0-.53-.72A1.37,1.37,0,0,0,305.23,50Z"/><path class="cls-5" d="M135.14,91.38l3-6.57h-4V84h5v.71l-3,6.69Z"/><path class="cls-5" d="M116.77,42.51h-4.89v-.76l1.94-2c.36-.38.68-.71.93-1a3.54,3.54,0,0,0,.59-.85,2.11,2.11,0,0,0,.2-.92,1.14,1.14,0,0,0-.37-.93,1.37,1.37,0,0,0-.94-.31,2.33,2.33,0,0,0-1,.18,4.51,4.51,0,0,0-.83.52l-.49-.61a4.56,4.56,0,0,1,1-.62,3.06,3.06,0,0,1,1.27-.25,2.41,2.41,0,0,1,1.64.53,1.81,1.81,0,0,1,.6,1.44,2.52,2.52,0,0,1-.24,1.09,4.79,4.79,0,0,1-.66,1c-.28.33-.62.68-1,1L113,41.64v0h3.74Z"/><path class="cls-5" d="M118.88,42.51l3-6.57h-4v-.83h5v.71l-3,6.69Z"/><path class="cls-6" d="M138.36,74.24h-.89V69.07c0-.29,0-.53,0-.71l0-.56-.3.28-.34.29-.79.64-.48-.61,2-1.55h.76Z"/><path class="cls-6" d="M145.82,70.53a7.25,7.25,0,0,1-.25,2.06,2.57,2.57,0,0,1-.79,1.3,2.17,2.17,0,0,1-1.43.46,2,2,0,0,1-1.85-1,5.65,5.65,0,0,1-.59-2.81,7.64,7.64,0,0,1,.24-2,2.63,2.63,0,0,1,.78-1.3,2.16,2.16,0,0,1,1.42-.45,2.05,2.05,0,0,1,1.86,1A5.36,5.36,0,0,1,145.82,70.53Zm-4,0a5.71,5.71,0,0,0,.35,2.28,1.19,1.19,0,0,0,1.18.76,1.22,1.22,0,0,0,1.19-.75,5.53,5.53,0,0,0,.36-2.29,5.47,5.47,0,0,0-.36-2.26,1.22,1.22,0,0,0-1.19-.76,1.19,1.19,0,0,0-1.18.76A5.67,5.67,0,0,0,141.82,70.53Z"/><path class="cls-6" d="M117.38,68.78a2.68,2.68,0,0,1,1.6.46,1.54,1.54,0,0,1,.62,1.32,1.6,1.6,0,0,1-.19.77,2.07,2.07,0,0,1-.52.59,4.19,4.19,0,0,1-.7.45,6.08,6.08,0,0,1,.83.5,2,2,0,0,1,.59.63,1.61,1.61,0,0,1,.23.87,1.78,1.78,0,0,1-.67,1.47,2.65,2.65,0,0,1-1.76.55,2.84,2.84,0,0,1-1.84-.53,1.77,1.77,0,0,1-.63-1.46,1.82,1.82,0,0,1,.21-.88,2.14,2.14,0,0,1,.56-.64,4,4,0,0,1,.76-.46,3.43,3.43,0,0,1-.92-.75,1.68,1.68,0,0,1-.38-1.13,1.58,1.58,0,0,1,.29-1,1.91,1.91,0,0,1,.79-.6A2.88,2.88,0,0,1,117.38,68.78Zm-1.55,5.63a1.2,1.2,0,0,0,.38.9,2.13,2.13,0,0,0,2.34,0,1.22,1.22,0,0,0,.4-.93,1.15,1.15,0,0,0-.43-.9,3.85,3.85,0,0,0-1.13-.63l-.16-.06a3.23,3.23,0,0,0-1,.68A1.32,1.32,0,0,0,115.83,74.41Zm1.54-4.89a1.52,1.52,0,0,0-.94.27,1,1,0,0,0-.36.8,1.1,1.1,0,0,0,.18.64,1.5,1.5,0,0,0,.49.44,7.17,7.17,0,0,0,.68.35,3.79,3.79,0,0,0,.91-.55,1.14,1.14,0,0,0,.37-.88.93.93,0,0,0-.37-.8A1.56,1.56,0,0,0,117.37,69.52Z"/><path class="cls-3" d="M138.45,60.1h-.89V54.93c0-.29,0-.53,0-.71l0-.56-.3.28-.34.29-.79.64-.47-.61,2-1.55h.75Z"/><path class="cls-3" d="M141.73,60.1l3-6.57h-4v-.82h5v.7l-3,6.69Z"/><path class="cls-3" d="M112.86,59.85H112V54.68c0-.29,0-.53,0-.71l0-.56-.3.28-.34.29-.79.64-.47-.61,2-1.55h.75Z"/><path class="cls-3" d="M117.82,52.35a2.56,2.56,0,0,1,1.59.46,1.69,1.69,0,0,1,.43,2.09,2.19,2.19,0,0,1-.51.59,4.28,4.28,0,0,1-.71.45,6.49,6.49,0,0,1,.83.49,2.27,2.27,0,0,1,.6.64,1.61,1.61,0,0,1,.22.87,1.8,1.8,0,0,1-.66,1.47,2.65,2.65,0,0,1-1.76.55,2.82,2.82,0,0,1-1.84-.53,1.75,1.75,0,0,1-.64-1.46,1.79,1.79,0,0,1,.21-.88,2.06,2.06,0,0,1,.57-.64,3.87,3.87,0,0,1,.75-.46,3.59,3.59,0,0,1-.92-.75,1.69,1.69,0,0,1-.37-1.13,1.58,1.58,0,0,1,.29-1,1.85,1.85,0,0,1,.79-.6A2.88,2.88,0,0,1,117.82,52.35ZM116.26,58a1.14,1.14,0,0,0,.39.89,2.06,2.06,0,0,0,2.33,0,1.15,1.15,0,0,0,.4-.92,1.14,1.14,0,0,0-.42-.9,4,4,0,0,0-1.13-.63l-.17-.06a3.29,3.29,0,0,0-1,.68A1.28,1.28,0,0,0,116.26,58Zm1.55-4.89a1.55,1.55,0,0,0-1,.27,1,1,0,0,0-.36.8,1.1,1.1,0,0,0,.18.64,1.61,1.61,0,0,0,.49.44,7.4,7.4,0,0,0,.69.34,3.26,3.26,0,0,0,.9-.54,1.11,1.11,0,0,0,.37-.88,1,1,0,0,0-.36-.8A1.56,1.56,0,0,0,117.81,53.09Z"/><path class="cls-5" d="M93.49,46.94H88.6v-.75l1.94-2c.36-.37.68-.7.94-1a3.67,3.67,0,0,0,.58-.85,2.18,2.18,0,0,0,.2-.93,1.16,1.16,0,0,0-.36-.92,1.42,1.42,0,0,0-1-.32,2.18,2.18,0,0,0-1,.19,3.64,3.64,0,0,0-.83.52l-.49-.62a4.53,4.53,0,0,1,1-.61A3.07,3.07,0,0,1,91,39.44a2.41,2.41,0,0,1,1.64.53,1.81,1.81,0,0,1,.6,1.44A2.52,2.52,0,0,1,93,42.5a4.84,4.84,0,0,1-.66,1,13.51,13.51,0,0,1-1,1l-1.54,1.52v0h3.74Z"/><path class="cls-5" d="M97.18,42.41A2.74,2.74,0,0,1,99,43a2,2,0,0,1,.68,1.6,2.33,2.33,0,0,1-.73,1.81,2.94,2.94,0,0,1-2,.66,5.2,5.2,0,0,1-1.08-.11,2.45,2.45,0,0,1-.84-.3v-.86a2.79,2.79,0,0,0,.91.36,4.14,4.14,0,0,0,1,.13,2.07,2.07,0,0,0,1.32-.39,1.41,1.41,0,0,0,.5-1.2,1.42,1.42,0,0,0-.44-1.12,2.12,2.12,0,0,0-1.41-.39,4.14,4.14,0,0,0-.66.06,5.16,5.16,0,0,0-.61.1L95.16,43l.28-3.49h3.71v.83H96.22L96,42.52l.48-.07A4.5,4.5,0,0,1,97.18,42.41Z"/><path class="cls-6" d="M91.78,75.38a9.16,9.16,0,0,1,.14-1.57,4,4,0,0,1,.51-1.39,2.61,2.61,0,0,1,1-1A3.44,3.44,0,0,1,95.17,71l.48,0a2,2,0,0,1,.43.08v.77a2.38,2.38,0,0,0-.42-.09l-.47,0A2.63,2.63,0,0,0,94,72a1.83,1.83,0,0,0-.75.65,2.7,2.7,0,0,0-.4.95,6.93,6.93,0,0,0-.16,1.15h.07a1.86,1.86,0,0,1,.66-.61,2.07,2.07,0,0,1,1.09-.26,2.1,2.1,0,0,1,1.55.59,2.24,2.24,0,0,1,.59,1.66A2.5,2.5,0,0,1,96,78a2.22,2.22,0,0,1-1.71.67A2.36,2.36,0,0,1,93,78.29a2.41,2.41,0,0,1-.9-1.07A4.32,4.32,0,0,1,91.78,75.38Zm2.51,2.5a1.42,1.42,0,0,0,1.06-.42,1.85,1.85,0,0,0,.4-1.3A1.66,1.66,0,0,0,95.39,75a1.35,1.35,0,0,0-1.07-.41,1.67,1.67,0,0,0-.85.2,1.48,1.48,0,0,0-.56.52,1.13,1.13,0,0,0-.21.63,2.32,2.32,0,0,0,.18.89,1.77,1.77,0,0,0,.53.73A1.35,1.35,0,0,0,94.29,77.88Z"/><path class="cls-3" d="M92.06,62.81h-.89V57.64c0-.3,0-.54,0-.72s0-.36,0-.56a3.58,3.58,0,0,1-.3.28l-.34.29-.79.64L89.31,57l2-1.55h.75Z"/><path class="cls-3" d="M94.62,59.65a9,9,0,0,1,.14-1.57,4,4,0,0,1,.51-1.4,2.68,2.68,0,0,1,1-1A3.44,3.44,0,0,1,98,55.31a4.19,4.19,0,0,1,.48,0,1.54,1.54,0,0,1,.43.07v.78a1.72,1.72,0,0,0-.42-.1l-.47,0a2.63,2.63,0,0,0-1.19.24,1.91,1.91,0,0,0-.75.65,2.75,2.75,0,0,0-.4,1A5.8,5.8,0,0,0,95.53,59h.06a2,2,0,0,1,.67-.61,2.07,2.07,0,0,1,1.09-.26,2.1,2.1,0,0,1,1.55.59,2.24,2.24,0,0,1,.59,1.66,2.52,2.52,0,0,1-.64,1.83,2.25,2.25,0,0,1-1.71.66A2.28,2.28,0,0,1,95,61.48,4.27,4.27,0,0,1,94.62,59.65Zm2.51,2.49a1.38,1.38,0,0,0,1.05-.42,1.81,1.81,0,0,0,.41-1.3,1.66,1.66,0,0,0-.36-1.12,1.35,1.35,0,0,0-1.07-.41,1.75,1.75,0,0,0-.85.2,1.69,1.69,0,0,0-.57.52,1.2,1.2,0,0,0-.2.64,2.31,2.31,0,0,0,.18.88,1.71,1.71,0,0,0,.53.73A1.35,1.35,0,0,0,97.13,62.14Z"/><path class="cls-5" d="M69.45,73.41h-.9V68.25c0-.3,0-.54,0-.72s0-.37,0-.56c-.11.11-.22.2-.31.28l-.34.29-.78.64-.48-.61,2-1.55h.76Z"/><path class="cls-5" d="M72,70.25a9,9,0,0,1,.14-1.56,4.4,4.4,0,0,1,.51-1.4,2.75,2.75,0,0,1,1-1,3.44,3.44,0,0,1,1.71-.38l.48,0a2,2,0,0,1,.43.08v.77a2.2,2.2,0,0,0-.42-.09l-.47,0a2.66,2.66,0,0,0-1.19.24,1.83,1.83,0,0,0-.75.65,3,3,0,0,0-.4,1,6.94,6.94,0,0,0-.15,1.15H73a2,2,0,0,1,.66-.61,2.36,2.36,0,0,1,2.64.33A2.2,2.2,0,0,1,76.87,71a2.52,2.52,0,0,1-.63,1.82,2.26,2.26,0,0,1-1.72.67,2.4,2.4,0,0,1-1.27-.35,2.51,2.51,0,0,1-.91-1.08A4.48,4.48,0,0,1,72,70.25Zm2.51,2.5a1.4,1.4,0,0,0,1.06-.42A1.81,1.81,0,0,0,76,71a1.66,1.66,0,0,0-.36-1.12,1.34,1.34,0,0,0-1.07-.41,1.78,1.78,0,0,0-.85.2,1.48,1.48,0,0,0-.56.52,1.12,1.12,0,0,0-.2.64,2.29,2.29,0,0,0,.17.88,1.79,1.79,0,0,0,.53.73A1.36,1.36,0,0,0,74.51,72.75Z"/><path class="cls-6" d="M71.45,78.13a2.7,2.7,0,0,1,1.8.57,2,2,0,0,1,.68,1.6,2.3,2.3,0,0,1-.73,1.81,2.92,2.92,0,0,1-2,.66,6,6,0,0,1-1.08-.1,3,3,0,0,1-.84-.3v-.86a3,3,0,0,0,.91.35,4.08,4.08,0,0,0,1,.13,2.11,2.11,0,0,0,1.32-.39,1.42,1.42,0,0,0,.5-1.2,1.4,1.4,0,0,0-.45-1.12,2.09,2.09,0,0,0-1.41-.38,4.12,4.12,0,0,0-.66,0c-.25,0-.45.07-.6.1l-.46-.29.28-3.49h3.71v.83H70.48l-.17,2.14.47-.07A4.55,4.55,0,0,1,71.45,78.13Z"/><path class="cls-3" d="M70.89,58.36H70V53.19c0-.29,0-.53,0-.71a5.4,5.4,0,0,1,0-.56c-.11.11-.22.2-.31.28l-.34.29-.78.64-.48-.61,2-1.56h.76Z"/><path class="cls-3" d="M75.84,50.86a2.56,2.56,0,0,1,1.59.46,1.69,1.69,0,0,1,.43,2.09,1.87,1.87,0,0,1-.51.58,5,5,0,0,1-.7.46,5.39,5.39,0,0,1,.82.49,2.24,2.24,0,0,1,.6.63,1.66,1.66,0,0,1,.22.87,1.8,1.8,0,0,1-.66,1.48,2.7,2.7,0,0,1-1.76.54A2.82,2.82,0,0,1,74,57.94a1.81,1.81,0,0,1-.64-1.46,1.67,1.67,0,0,1,.22-.88,2.18,2.18,0,0,1,.56-.65,3.62,3.62,0,0,1,.76-.45,3.48,3.48,0,0,1-.93-.75,1.74,1.74,0,0,1-.37-1.13,1.58,1.58,0,0,1,.29-.95,1.85,1.85,0,0,1,.79-.6A2.88,2.88,0,0,1,75.84,50.86Zm-1.56,5.63a1.15,1.15,0,0,0,.39.89,2.06,2.06,0,0,0,2.33,0,1.18,1.18,0,0,0,.4-.92,1.14,1.14,0,0,0-.42-.9,4,4,0,0,0-1.13-.63l-.17-.06a3.28,3.28,0,0,0-1,.67A1.32,1.32,0,0,0,74.28,56.49Zm1.55-4.89a1.57,1.57,0,0,0-1,.27.93.93,0,0,0-.36.79,1.13,1.13,0,0,0,.18.65,1.67,1.67,0,0,0,.5.44,6.15,6.15,0,0,0,.68.34,3.24,3.24,0,0,0,.91-.55,1.1,1.1,0,0,0,.36-.88.93.93,0,0,0-.36-.79A1.56,1.56,0,0,0,75.83,51.6Z"/><path class="cls-6" d="M50.09,78a1.65,1.65,0,0,1-.42,1.19,2.13,2.13,0,0,1-1.11.59v0a2.07,2.07,0,0,1,1.32.56,1.65,1.65,0,0,1,.44,1.19,2.19,2.19,0,0,1-.3,1.15,1.94,1.94,0,0,1-.93.77,3.88,3.88,0,0,1-1.61.28,6,6,0,0,1-1.07-.08,3.62,3.62,0,0,1-1-.32v-.85a4.88,4.88,0,0,0,2,.49,2.16,2.16,0,0,0,1.44-.39,1.37,1.37,0,0,0,.44-1.07,1,1,0,0,0-.55-1,3.05,3.05,0,0,0-1.52-.31h-.72v-.78h.73a2.12,2.12,0,0,0,1.38-.38,1.24,1.24,0,0,0,.47-1,1,1,0,0,0-.36-.84,1.56,1.56,0,0,0-1-.29,2.79,2.79,0,0,0-1,.17,5.73,5.73,0,0,0-.84.45l-.46-.62a3.79,3.79,0,0,1,1-.54,3.71,3.71,0,0,1,1.33-.23,2.47,2.47,0,0,1,1.73.52A1.67,1.67,0,0,1,50.09,78Z"/><path class="cls-3" d="M47.23,56.89H42.34v-.76l1.94-2c.37-.38.68-.71.94-1a3.48,3.48,0,0,0,.58-.85,2,2,0,0,0,.2-.92,1.17,1.17,0,0,0-.36-.93,1.38,1.38,0,0,0-.94-.31,2.35,2.35,0,0,0-1,.18,4.87,4.87,0,0,0-.83.52l-.48-.61a4.33,4.33,0,0,1,1-.62,3,3,0,0,1,1.27-.25,2.39,2.39,0,0,1,1.63.53,1.81,1.81,0,0,1,.6,1.44,2.7,2.7,0,0,1-.23,1.09,4.48,4.48,0,0,1-.67,1q-.42.49-1,1L43.49,56v0h3.74Z"/><path class="cls-3" d="M53.37,53.18a7.55,7.55,0,0,1-.25,2,2.67,2.67,0,0,1-.79,1.31A2.19,2.19,0,0,1,50.9,57a2,2,0,0,1-1.85-1,5.48,5.48,0,0,1-.59-2.8,7.64,7.64,0,0,1,.24-2,2.52,2.52,0,0,1,.78-1.3,2.14,2.14,0,0,1,1.42-.45,2,2,0,0,1,1.86,1A5.46,5.46,0,0,1,53.37,53.18Zm-4,0a5.54,5.54,0,0,0,.35,2.28,1.21,1.21,0,0,0,1.18.76,1.23,1.23,0,0,0,1.19-.75,5.62,5.62,0,0,0,.35-2.29,5.55,5.55,0,0,0-.35-2.27,1.23,1.23,0,0,0-1.19-.75,1.2,1.2,0,0,0-1.18.75A5.55,5.55,0,0,0,49.37,53.18Z"/><path class="cls-5" d="M167.62,141.26a8.33,8.33,0,0,1,.36-2.44,6.36,6.36,0,0,1,1.16-2.12H170a7.15,7.15,0,0,0-1.09,2.15,7.81,7.81,0,0,0-.37,2.4,7.61,7.61,0,0,0,.37,2.36,7.14,7.14,0,0,0,1.08,2.13h-.85a6,6,0,0,1-1.16-2.07A8,8,0,0,1,167.62,141.26Z"/><path class="cls-5" d="M175.74,138.43a1.65,1.65,0,0,1-.42,1.19,2.13,2.13,0,0,1-1.11.59v0a2.12,2.12,0,0,1,1.32.56A1.65,1.65,0,0,1,176,142a2.19,2.19,0,0,1-.3,1.15,1.94,1.94,0,0,1-.93.77,3.94,3.94,0,0,1-1.61.28,7.2,7.2,0,0,1-1.08-.08,3.55,3.55,0,0,1-1-.32V143a4.1,4.1,0,0,0,1,.36,4.29,4.29,0,0,0,1,.13,2.13,2.13,0,0,0,1.43-.39A1.34,1.34,0,0,0,175,142a1,1,0,0,0-.54-1,3.07,3.07,0,0,0-1.53-.31h-.71v-.78H173a2.15,2.15,0,0,0,1.39-.38,1.24,1.24,0,0,0,.47-1,1,1,0,0,0-.37-.84,1.49,1.49,0,0,0-1-.29,2.88,2.88,0,0,0-1,.17,5.18,5.18,0,0,0-.83.45l-.46-.62a3.63,3.63,0,0,1,1-.54,3.67,3.67,0,0,1,1.33-.23,2.44,2.44,0,0,1,1.72.52A1.68,1.68,0,0,1,175.74,138.43Z"/><path class="cls-5" d="M182.34,140.39a7.18,7.18,0,0,1-.25,2.05,2.67,2.67,0,0,1-.79,1.31,2.19,2.19,0,0,1-1.43.45,2,2,0,0,1-1.85-1,5.58,5.58,0,0,1-.59-2.8,7.64,7.64,0,0,1,.24-2,2.52,2.52,0,0,1,.78-1.3,2.16,2.16,0,0,1,1.42-.45,2,2,0,0,1,1.86,1A5.46,5.46,0,0,1,182.34,140.39Zm-4,0a5.54,5.54,0,0,0,.35,2.28,1.21,1.21,0,0,0,1.18.76,1.23,1.23,0,0,0,1.19-.75,7.4,7.4,0,0,0,0-4.56,1.23,1.23,0,0,0-1.19-.75,1.2,1.2,0,0,0-1.18.75A5.55,5.55,0,0,0,178.34,140.39Z"/><path class="cls-5" d="M185.65,141.26a8,8,0,0,1-.36,2.41,5.88,5.88,0,0,1-1.16,2.07h-.85a7.14,7.14,0,0,0,1.08-2.13,7.61,7.61,0,0,0,.37-2.36,7.81,7.81,0,0,0-.37-2.4,7.15,7.15,0,0,0-1.09-2.15h.86a6.19,6.19,0,0,1,1.16,2.12A8.33,8.33,0,0,1,185.65,141.26Z"/><path class="cls-3" d="M161.61,65.06h-.89V59.9c0-.3,0-.54,0-.72a5.4,5.4,0,0,1,0-.56,3.73,3.73,0,0,1-.31.28l-.33.29-.79.64-.48-.61,2-1.55h.76Z"/><path class="cls-3" d="M168.57,59.4a1.62,1.62,0,0,1-.42,1.18,2.06,2.06,0,0,1-1.11.59v0a2.18,2.18,0,0,1,1.32.56A1.65,1.65,0,0,1,168.8,63a2.17,2.17,0,0,1-.3,1.15,2,2,0,0,1-.93.78,4.08,4.08,0,0,1-1.61.28,6,6,0,0,1-1.08-.09,3.23,3.23,0,0,1-.95-.32v-.85a4.58,4.58,0,0,0,1,.37,4.82,4.82,0,0,0,1,.12A2.13,2.13,0,0,0,167.4,64a1.33,1.33,0,0,0,.44-1.07,1.06,1.06,0,0,0-.54-1,3.19,3.19,0,0,0-1.53-.3h-.71v-.78h.72a2.21,2.21,0,0,0,1.39-.38,1.27,1.27,0,0,0,.47-1,1,1,0,0,0-.37-.83,1.47,1.47,0,0,0-1-.3,2.59,2.59,0,0,0-1,.18,4.22,4.22,0,0,0-.84.44l-.46-.62a3.63,3.63,0,0,1,1-.54,3.67,3.67,0,0,1,1.33-.23,2.54,2.54,0,0,1,1.73.52A1.74,1.74,0,0,1,168.57,59.4Z"/><path class="cls-6" d="M161.27,77.26a8.19,8.19,0,0,1,.14-1.57,4.24,4.24,0,0,1,.5-1.4,2.75,2.75,0,0,1,1-1,3.49,3.49,0,0,1,1.71-.37,4.27,4.27,0,0,1,.49,0,2.14,2.14,0,0,1,.43.07v.78a2.47,2.47,0,0,0-.43-.1,3.71,3.71,0,0,0-.47,0,2.66,2.66,0,0,0-1.19.24,2.06,2.06,0,0,0-.75.65,3.19,3.19,0,0,0-.4,1,6.8,6.8,0,0,0-.15,1.15h.06a2.08,2.08,0,0,1,.66-.62,2.12,2.12,0,0,1,1.09-.25,2.1,2.1,0,0,1,1.55.58,2.23,2.23,0,0,1,.6,1.67,2.54,2.54,0,0,1-.64,1.82,2.29,2.29,0,0,1-1.72.66,2.4,2.4,0,0,1-1.27-.35,2.46,2.46,0,0,1-.91-1.08A4.4,4.4,0,0,1,161.27,77.26Zm2.5,2.49a1.39,1.39,0,0,0,1.06-.41,1.82,1.82,0,0,0,.4-1.3,1.69,1.69,0,0,0-.35-1.12,1.34,1.34,0,0,0-1.08-.42,1.81,1.81,0,0,0-.85.2,1.57,1.57,0,0,0-.56.52,1.23,1.23,0,0,0-.2.64,2.46,2.46,0,0,0,.17.88,1.79,1.79,0,0,0,.53.73A1.36,1.36,0,0,0,163.77,79.75Z"/><path class="cls-6" d="M184.43,75.58a9.08,9.08,0,0,1,.14-1.57,4.12,4.12,0,0,1,.51-1.4,2.68,2.68,0,0,1,1-1,3.44,3.44,0,0,1,1.71-.37l.48,0a2,2,0,0,1,.43.07v.78a2.38,2.38,0,0,0-.42-.09,3.89,3.89,0,0,0-.47,0,2.63,2.63,0,0,0-1.19.24,1.86,1.86,0,0,0-.75.66,2.62,2.62,0,0,0-.4,1,6.78,6.78,0,0,0-.16,1.15h.06a2,2,0,0,1,.67-.62,2.07,2.07,0,0,1,1.09-.25,2.1,2.1,0,0,1,1.55.58,2.27,2.27,0,0,1,.59,1.67,2.5,2.5,0,0,1-.64,1.82,2.25,2.25,0,0,1-1.71.66,2.28,2.28,0,0,1-2.18-1.43A4.24,4.24,0,0,1,184.43,75.58Zm2.51,2.5a1.42,1.42,0,0,0,1.06-.42,1.87,1.87,0,0,0,.4-1.3,1.64,1.64,0,0,0-.36-1.12,1.32,1.32,0,0,0-1.07-.42,1.65,1.65,0,0,0-.85.21,1.46,1.46,0,0,0-.56.51,1.16,1.16,0,0,0-.21.64,2.36,2.36,0,0,0,.18.89,1.74,1.74,0,0,0,.53.72A1.35,1.35,0,0,0,186.94,78.08Z"/><path class="cls-6" d="M212.41,71.89a8.19,8.19,0,0,1-.14,1.57,4.24,4.24,0,0,1-.5,1.4,2.71,2.71,0,0,1-1,1,3.49,3.49,0,0,1-1.71.37l-.49,0a2.88,2.88,0,0,1-.45-.08v-.78a2.9,2.9,0,0,0,.91.14,2.61,2.61,0,0,0,1.2-.24,1.91,1.91,0,0,0,.75-.65,2.82,2.82,0,0,0,.41-.95,6,6,0,0,0,.14-1.15h-.06a2,2,0,0,1-.66.61,2.13,2.13,0,0,1-1.1.25,2.07,2.07,0,0,1-1.54-.58,2.24,2.24,0,0,1-.59-1.66,2.9,2.9,0,0,1,.29-1.33,2.09,2.09,0,0,1,.83-.86,2.49,2.49,0,0,1,1.25-.3,2.32,2.32,0,0,1,1.27.36,2.35,2.35,0,0,1,.9,1.07A4.4,4.4,0,0,1,212.41,71.89Zm-2.5-2.49a1.43,1.43,0,0,0-1.06.42,1.8,1.8,0,0,0-.4,1.29,1.69,1.69,0,0,0,.34,1.13,1.34,1.34,0,0,0,1.08.41,1.82,1.82,0,0,0,.86-.2,1.65,1.65,0,0,0,.56-.52,1.18,1.18,0,0,0,.2-.64,2.46,2.46,0,0,0-.17-.88,1.83,1.83,0,0,0-.53-.72A1.32,1.32,0,0,0,209.91,69.4Z"/><path class="cls-3" d="M184.71,60.91h-.89V55.74c0-.3,0-.53,0-.71l0-.56-.3.28a3.56,3.56,0,0,0-.34.29l-.79.64-.47-.61,2-1.56h.76Z"/><path class="cls-3" d="M187.27,57.75a9.16,9.16,0,0,1,.14-1.57,4.12,4.12,0,0,1,.51-1.4,2.68,2.68,0,0,1,1-1,3.44,3.44,0,0,1,1.71-.37l.48,0a2,2,0,0,1,.43.07v.78a2.31,2.31,0,0,0-.43-.09,3.55,3.55,0,0,0-.46,0,2.6,2.6,0,0,0-1.19.23,1.86,1.86,0,0,0-.75.66,2.62,2.62,0,0,0-.4,1,5.91,5.91,0,0,0-.16,1.15h.06a2,2,0,0,1,.67-.62,2.06,2.06,0,0,1,1.08-.25,2.12,2.12,0,0,1,1.56.58,2.27,2.27,0,0,1,.59,1.67,2.5,2.5,0,0,1-.64,1.82,2.25,2.25,0,0,1-1.71.66,2.28,2.28,0,0,1-2.18-1.43A4.24,4.24,0,0,1,187.27,57.75Zm2.51,2.5a1.39,1.39,0,0,0,1.05-.42,1.83,1.83,0,0,0,.41-1.3,1.64,1.64,0,0,0-.36-1.12,1.34,1.34,0,0,0-1.07-.42,1.65,1.65,0,0,0-.85.21,1.57,1.57,0,0,0-.57.51,1.23,1.23,0,0,0-.2.64,2.36,2.36,0,0,0,.18.89,1.74,1.74,0,0,0,.53.72A1.33,1.33,0,0,0,189.78,60.25Z"/><path class="cls-3" d="M207.9,63.5H207V58.33c0-.3,0-.53,0-.71a5.4,5.4,0,0,1,0-.56c-.11.11-.22.2-.31.28l-.34.29-.78.64-.48-.61,2-1.56h.76Z"/><path class="cls-3" d="M212.68,59a2.71,2.71,0,0,1,1.81.57,2,2,0,0,1,.68,1.61,2.32,2.32,0,0,1-.73,1.81,3,3,0,0,1-2,.65,5.19,5.19,0,0,1-1.07-.1,2.74,2.74,0,0,1-.84-.3v-.86a3.38,3.38,0,0,0,.9.36,4.75,4.75,0,0,0,1,.13,2.07,2.07,0,0,0,1.32-.39,1.42,1.42,0,0,0,.51-1.21,1.39,1.39,0,0,0-.45-1.11,2.12,2.12,0,0,0-1.41-.39,5.73,5.73,0,0,0-.66.05l-.6.1-.46-.29.28-3.49h3.71v.83h-2.93l-.18,2.15L212,59A6.5,6.5,0,0,1,212.68,59Z"/><path class="cls-6" d="M231,86.48h-.89V81.31c0-.3,0-.54,0-.72s0-.36,0-.56a1.91,1.91,0,0,1-.31.28l-.33.29-.79.65-.48-.61,2-1.56H231Z"/><path class="cls-6" d="M238.46,82.77a7.23,7.23,0,0,1-.25,2,2.67,2.67,0,0,1-.79,1.31,2.19,2.19,0,0,1-1.43.45,2,2,0,0,1-1.85-1,5.61,5.61,0,0,1-.59-2.8,7.59,7.59,0,0,1,.24-2,2.52,2.52,0,0,1,.78-1.3A2.16,2.16,0,0,1,236,79a2,2,0,0,1,1.86,1A5.44,5.44,0,0,1,238.46,82.77Zm-4,0a5.74,5.74,0,0,0,.35,2.28,1.2,1.2,0,0,0,1.18.75,1.23,1.23,0,0,0,1.19-.75,7.37,7.37,0,0,0,0-4.55,1.24,1.24,0,0,0-1.19-.76,1.21,1.21,0,0,0-1.18.76A5.69,5.69,0,0,0,234.46,82.77Z"/><path class="cls-6" d="M254.26,65.06h-.89V59.9c0-.3,0-.54,0-.72a5.4,5.4,0,0,1,0-.56,3.73,3.73,0,0,1-.31.28l-.33.29-.79.64-.48-.61,2-1.55h.76Z"/><path class="cls-6" d="M261.22,59.4a1.62,1.62,0,0,1-.42,1.18,2.06,2.06,0,0,1-1.11.59v0a2.18,2.18,0,0,1,1.32.56,1.65,1.65,0,0,1,.44,1.19,2.17,2.17,0,0,1-.3,1.15,2,2,0,0,1-.93.78,4.08,4.08,0,0,1-1.61.28,6,6,0,0,1-1.08-.09,3.23,3.23,0,0,1-.95-.32v-.85a4.58,4.58,0,0,0,1,.37,4.82,4.82,0,0,0,1,.12,2.13,2.13,0,0,0,1.43-.39,1.33,1.33,0,0,0,.44-1.07,1.06,1.06,0,0,0-.54-1,3.19,3.19,0,0,0-1.53-.3h-.71v-.78h.72a2.21,2.21,0,0,0,1.39-.38,1.27,1.27,0,0,0,.47-1,1,1,0,0,0-.37-.83,1.47,1.47,0,0,0-1-.3,2.59,2.59,0,0,0-1,.18,4.22,4.22,0,0,0-.84.44l-.46-.62a3.63,3.63,0,0,1,1-.54,3.67,3.67,0,0,1,1.33-.23,2.54,2.54,0,0,1,1.73.52A1.74,1.74,0,0,1,261.22,59.4Z"/><path class="cls-6" d="M281.9,58.7a9,9,0,0,1-.14,1.57,4,4,0,0,1-.51,1.4,2.71,2.71,0,0,1-1,1,3.44,3.44,0,0,1-1.71.37,4.44,4.44,0,0,1-.49,0,2.05,2.05,0,0,1-.44-.08v-.78a2.85,2.85,0,0,0,.91.14,2.67,2.67,0,0,0,1.2-.24,2,2,0,0,0,.75-.65,2.81,2.81,0,0,0,.4-.95,6.94,6.94,0,0,0,.15-1.15h-.07a2,2,0,0,1-.66.61,2.41,2.41,0,0,1-2.64-.33,2.23,2.23,0,0,1-.58-1.65,2.79,2.79,0,0,1,.29-1.34,2.06,2.06,0,0,1,.82-.86,2.51,2.51,0,0,1,1.25-.3,2.36,2.36,0,0,1,1.28.36,2.47,2.47,0,0,1,.9,1.07A4.4,4.4,0,0,1,281.9,58.7Zm-2.51-2.49a1.39,1.39,0,0,0-1.05.42,1.83,1.83,0,0,0-.41,1.3,1.69,1.69,0,0,0,.35,1.12,1.34,1.34,0,0,0,1.07.41,1.79,1.79,0,0,0,.86-.2,1.57,1.57,0,0,0,.56-.52,1.11,1.11,0,0,0,.21-.64,2.31,2.31,0,0,0-.18-.88,1.74,1.74,0,0,0-.53-.72A1.3,1.3,0,0,0,279.39,56.21Z"/><path class="cls-6" d="M304.93,70.86a9.16,9.16,0,0,1-.14,1.57,4,4,0,0,1-.51,1.39,2.68,2.68,0,0,1-1,1,3.5,3.5,0,0,1-1.72.38l-.49,0a2.05,2.05,0,0,1-.44-.08v-.77a2.86,2.86,0,0,0,.91.13,2.67,2.67,0,0,0,1.2-.24,2,2,0,0,0,.75-.65,2.81,2.81,0,0,0,.4-1,6.82,6.82,0,0,0,.15-1.14h-.07a2,2,0,0,1-.66.6,2.36,2.36,0,0,1-2.64-.33,2.23,2.23,0,0,1-.58-1.65,2.94,2.94,0,0,1,.29-1.34,2.06,2.06,0,0,1,.82-.86,2.51,2.51,0,0,1,1.25-.3,2.36,2.36,0,0,1,1.28.36,2.43,2.43,0,0,1,.9,1.08A4.4,4.4,0,0,1,304.93,70.86Zm-2.51-2.5a1.39,1.39,0,0,0-1.05.42,1.84,1.84,0,0,0-.41,1.3,1.67,1.67,0,0,0,.35,1.12,1.3,1.3,0,0,0,1.07.41,1.79,1.79,0,0,0,.86-.2,1.63,1.63,0,0,0,.56-.51,1.14,1.14,0,0,0,.21-.65,2.31,2.31,0,0,0-.18-.88,1.74,1.74,0,0,0-.53-.72A1.35,1.35,0,0,0,302.42,68.36Z"/><path class="cls-3" d="M231.06,65h-.89V59.81c0-.29,0-.53,0-.71l0-.56-.3.28a3.56,3.56,0,0,0-.34.29l-.79.64-.47-.61,2-1.56h.75Z"/><path class="cls-3" d="M235.85,60.44a2.74,2.74,0,0,1,1.81.57,2,2,0,0,1,.67,1.61,2.3,2.3,0,0,1-.73,1.81,2.9,2.9,0,0,1-2,.65,5.22,5.22,0,0,1-1.08-.1,3,3,0,0,1-.84-.3v-.86a3.32,3.32,0,0,0,.91.36,4.08,4.08,0,0,0,1,.13,2.11,2.11,0,0,0,1.32-.39,1.44,1.44,0,0,0,.5-1.21A1.42,1.42,0,0,0,237,61.6a2.12,2.12,0,0,0-1.41-.39,5.73,5.73,0,0,0-.67,0c-.24,0-.44.07-.6.11l-.45-.29.28-3.5h3.71v.83h-2.94l-.17,2.15.47-.07A4.57,4.57,0,0,1,235.85,60.44Z"/><path class="cls-3" d="M254.21,54.2h-.89V49c0-.3,0-.54,0-.72a5.55,5.55,0,0,1,0-.56,3.56,3.56,0,0,1-.31.28l-.34.29-.78.64-.48-.61,2-1.55h.76Z"/><path class="cls-3" d="M261.89,52.52h-1.07V54.2h-.88V52.52h-3.55v-.78l3.48-5h.95V51.7h1.07Zm-1.95-.82V49.37c0-.36,0-.67,0-.92s0-.49,0-.72h0l-.21.43a2.51,2.51,0,0,1-.24.38l-2.22,3.16Z"/><path class="cls-3" d="M277.08,70.76a9.16,9.16,0,0,1,.14-1.57,4.12,4.12,0,0,1,.51-1.4,2.75,2.75,0,0,1,1-1,3.55,3.55,0,0,1,1.71-.37l.48,0a2,2,0,0,1,.43.08v.77a2.38,2.38,0,0,0-.42-.09l-.47,0a2.63,2.63,0,0,0-1.19.24,1.76,1.76,0,0,0-.75.65,2.62,2.62,0,0,0-.4,1,5.91,5.91,0,0,0-.16,1.15h.06a1.89,1.89,0,0,1,.67-.61,2.07,2.07,0,0,1,1.09-.26,2.1,2.1,0,0,1,1.55.59,2.24,2.24,0,0,1,.59,1.66,2.5,2.5,0,0,1-.64,1.82,2.22,2.22,0,0,1-1.71.67,2.32,2.32,0,0,1-2.18-1.43A4.32,4.32,0,0,1,277.08,70.76Zm2.51,2.5a1.38,1.38,0,0,0,1.05-.42,1.81,1.81,0,0,0,.41-1.3,1.66,1.66,0,0,0-.36-1.12,1.32,1.32,0,0,0-1.07-.41,1.65,1.65,0,0,0-.85.2,1.48,1.48,0,0,0-.56.52,1.13,1.13,0,0,0-.21.63,2.32,2.32,0,0,0,.18.89,1.74,1.74,0,0,0,.53.72A1.35,1.35,0,0,0,279.59,73.26Z"/><path class="cls-3" d="M301.25,92.06l3-6.57h-4v-.82h5v.7l-3,6.69Z"/><path class="cls-5" d="M320.06,116.21a8.34,8.34,0,0,1,.37-2.44,6.19,6.19,0,0,1,1.16-2.12h.86a7.18,7.18,0,0,0-1.1,2.15,8.12,8.12,0,0,0-.36,2.4,7.9,7.9,0,0,0,.36,2.36,7.4,7.4,0,0,0,1.09,2.13h-.85a5.88,5.88,0,0,1-1.16-2.07A8,8,0,0,1,320.06,116.21Z"/><path class="cls-5" d="M328.23,114.81a9,9,0,0,1-.14,1.57,4,4,0,0,1-.51,1.4,2.71,2.71,0,0,1-1,1,3.44,3.44,0,0,1-1.71.37,4.44,4.44,0,0,1-.49,0,3,3,0,0,1-.44-.08v-.78a2.85,2.85,0,0,0,.91.14,2.67,2.67,0,0,0,1.2-.24,2,2,0,0,0,.75-.65,2.81,2.81,0,0,0,.4-1,6.8,6.8,0,0,0,.15-1.15h-.07a2,2,0,0,1-.66.61,2.41,2.41,0,0,1-2.64-.33,2.23,2.23,0,0,1-.58-1.65,2.91,2.91,0,0,1,.29-1.34,2.06,2.06,0,0,1,.82-.86,2.51,2.51,0,0,1,1.25-.3A2.31,2.31,0,0,1,327.9,113,4.32,4.32,0,0,1,328.23,114.81Zm-2.51-2.49a1.39,1.39,0,0,0-1.05.42,1.83,1.83,0,0,0-.41,1.3,1.69,1.69,0,0,0,.35,1.12,1.34,1.34,0,0,0,1.07.41,1.79,1.79,0,0,0,.86-.2,1.63,1.63,0,0,0,.56-.51,1.17,1.17,0,0,0,.21-.65,2.31,2.31,0,0,0-.18-.88,1.74,1.74,0,0,0-.53-.72A1.3,1.3,0,0,0,325.72,112.32Z"/><path class="cls-5" d="M331.52,116.21a8,8,0,0,1-.36,2.41,6,6,0,0,1-1.16,2.07h-.85a7.14,7.14,0,0,0,1.08-2.13,7.61,7.61,0,0,0,.37-2.36,7.81,7.81,0,0,0-.37-2.4,7.15,7.15,0,0,0-1.09-2.15H330a6.36,6.36,0,0,1,1.16,2.12A8.33,8.33,0,0,1,331.52,116.21Z"/><path class="cls-6" d="M323.4,77.26a9.08,9.08,0,0,1,.14-1.57,4,4,0,0,1,.51-1.4,2.68,2.68,0,0,1,1-1,3.44,3.44,0,0,1,1.71-.37,4.19,4.19,0,0,1,.48,0,2,2,0,0,1,.43.07v.78a2.27,2.27,0,0,0-.43-.1,3.55,3.55,0,0,0-.46,0,2.6,2.6,0,0,0-1.19.24,1.91,1.91,0,0,0-.75.65,2.75,2.75,0,0,0-.4,1,5.91,5.91,0,0,0-.16,1.15h.06A2,2,0,0,1,325,76a2.06,2.06,0,0,1,1.08-.25,2.11,2.11,0,0,1,1.56.58,2.27,2.27,0,0,1,.59,1.67,2.5,2.5,0,0,1-.64,1.82,2.25,2.25,0,0,1-1.71.66,2.44,2.44,0,0,1-1.28-.35,2.38,2.38,0,0,1-.9-1.08A4.24,4.24,0,0,1,323.4,77.26Zm2.51,2.49a1.39,1.39,0,0,0,1-.41,1.83,1.83,0,0,0,.41-1.3,1.64,1.64,0,0,0-.36-1.12,1.32,1.32,0,0,0-1.07-.42,1.75,1.75,0,0,0-.85.2,1.69,1.69,0,0,0-.57.52,1.23,1.23,0,0,0-.2.64,2.27,2.27,0,0,0,.18.88,1.71,1.71,0,0,0,.53.73A1.33,1.33,0,0,0,325.91,79.75Z"/><path class="cls-3" d="M323.4,66.15a9.16,9.16,0,0,1,.14-1.57,4.12,4.12,0,0,1,.51-1.4,2.75,2.75,0,0,1,1-1,3.55,3.55,0,0,1,1.71-.37l.48,0a3,3,0,0,1,.43.07v.78a2.31,2.31,0,0,0-.43-.09,3.55,3.55,0,0,0-.46,0,2.6,2.6,0,0,0-1.19.24,1.76,1.76,0,0,0-.75.65,2.62,2.62,0,0,0-.4,1,5.91,5.91,0,0,0-.16,1.15h.06a1.89,1.89,0,0,1,.67-.61,2.06,2.06,0,0,1,1.08-.26,2.11,2.11,0,0,1,1.56.59,2.24,2.24,0,0,1,.59,1.66,2.5,2.5,0,0,1-.64,1.82,2.26,2.26,0,0,1-1.71.67A2.32,2.32,0,0,1,323.74,68,4.32,4.32,0,0,1,323.4,66.15Zm2.51,2.5a1.39,1.39,0,0,0,1-.42,1.81,1.81,0,0,0,.41-1.3,1.66,1.66,0,0,0-.36-1.12,1.32,1.32,0,0,0-1.07-.41,1.65,1.65,0,0,0-.85.2,1.59,1.59,0,0,0-.57.52,1.2,1.2,0,0,0-.2.63,2.32,2.32,0,0,0,.18.89,1.74,1.74,0,0,0,.53.72A1.33,1.33,0,0,0,325.91,68.65Z"/><path class="cls-5" d="M346.81,66.66h-.89V61.49c0-.3,0-.53,0-.71l0-.56-.3.28-.34.29-.79.64-.47-.61,2-1.56h.75Z"/><path class="cls-5" d="M353.78,61a1.65,1.65,0,0,1-.42,1.19,2,2,0,0,1-1.12.58v.05a2.07,2.07,0,0,1,1.32.56,1.61,1.61,0,0,1,.44,1.19,2.19,2.19,0,0,1-.3,1.15,2,2,0,0,1-.92.77,3.94,3.94,0,0,1-1.61.28,7.2,7.2,0,0,1-1.08-.08,3.74,3.74,0,0,1-1-.32v-.85a4.33,4.33,0,0,0,1,.36,4.21,4.21,0,0,0,1,.13,2.14,2.14,0,0,0,1.44-.39,1.37,1.37,0,0,0,.44-1.07,1,1,0,0,0-.54-1,3.12,3.12,0,0,0-1.53-.31h-.72v-.78H351a2.1,2.1,0,0,0,1.38-.38,1.23,1.23,0,0,0,.47-1,1,1,0,0,0-.36-.83,1.49,1.49,0,0,0-1-.29,2.65,2.65,0,0,0-1,.17,5.73,5.73,0,0,0-.84.45l-.45-.62a3.56,3.56,0,0,1,1-.54,3.73,3.73,0,0,1,1.34-.23,2.46,2.46,0,0,1,1.72.52A1.68,1.68,0,0,1,353.78,61Z"/><path class="cls-5" d="M370.07,58.2h-.89V53c0-.3,0-.54,0-.72s0-.36,0-.56a3.58,3.58,0,0,1-.3.28l-.34.29-.79.64-.47-.61,2-1.55h.75Z"/><path class="cls-5" d="M377.3,58.2h-4.89v-.76l1.94-2c.37-.37.68-.7.94-1a3.67,3.67,0,0,0,.58-.85,2.17,2.17,0,0,0,.2-.92,1.17,1.17,0,0,0-.36-.93,1.4,1.4,0,0,0-.95-.32,2.18,2.18,0,0,0-.95.19,4.32,4.32,0,0,0-.83.52l-.48-.61a4,4,0,0,1,1-.62,3,3,0,0,1,1.26-.25,2.39,2.39,0,0,1,1.64.52,1.84,1.84,0,0,1,.6,1.44,2.52,2.52,0,0,1-.24,1.09,4.47,4.47,0,0,1-.66,1,13.26,13.26,0,0,1-1,1l-1.55,1.53v0h3.74Z"/><path class="cls-5" d="M395.6,101.73h-.89V96.56c0-.3,0-.54,0-.72s0-.36,0-.56a1.91,1.91,0,0,1-.31.28l-.33.29-.79.65-.48-.61,2-1.56h.76Z"/><path class="cls-3" d="M347.59,76.78a9.16,9.16,0,0,1,.14-1.57,4.12,4.12,0,0,1,.51-1.4,2.75,2.75,0,0,1,1-1,3.44,3.44,0,0,1,1.71-.37l.48,0a3,3,0,0,1,.43.07v.78a2.38,2.38,0,0,0-.42-.09l-.47,0a2.77,2.77,0,0,0-1.19.23,1.86,1.86,0,0,0-.75.66,2.62,2.62,0,0,0-.4,1,6.78,6.78,0,0,0-.16,1.15h.07a2,2,0,0,1,.66-.62,2.17,2.17,0,0,1,1.09-.25,2.1,2.1,0,0,1,1.55.59,2.24,2.24,0,0,1,.59,1.66,2.5,2.5,0,0,1-.64,1.82,2.25,2.25,0,0,1-1.71.66,2.29,2.29,0,0,1-2.18-1.42A4.32,4.32,0,0,1,347.59,76.78Zm2.51,2.5a1.42,1.42,0,0,0,1.06-.42,1.85,1.85,0,0,0,.4-1.3,1.66,1.66,0,0,0-.36-1.12,1.32,1.32,0,0,0-1.07-.41,1.65,1.65,0,0,0-.85.2,1.41,1.41,0,0,0-.56.52,1.13,1.13,0,0,0-.21.63,2.36,2.36,0,0,0,.18.89,1.74,1.74,0,0,0,.53.72A1.35,1.35,0,0,0,350.1,79.28Z"/><path class="cls-6" d="M352.42,100.05h-1.08v1.68h-.88v-1.68h-3.54v-.78l3.48-5h.94v4.94h1.08Zm-2-.82V96.9c0-.36,0-.66,0-.92s0-.49,0-.72h0a2.42,2.42,0,0,1-.21.43,3.77,3.77,0,0,1-.23.38l-2.22,3.16Z"/><path class="cls-6" d="M372,97.19a2.74,2.74,0,0,1,1.81.57,2,2,0,0,1,.68,1.61,2.31,2.31,0,0,1-.73,1.8,2.94,2.94,0,0,1-2,.66,5.22,5.22,0,0,1-1.08-.1,3,3,0,0,1-.84-.3v-.86a3.32,3.32,0,0,0,.91.36,4.71,4.71,0,0,0,1,.12,2.07,2.07,0,0,0,1.32-.38,1.43,1.43,0,0,0,.5-1.21,1.37,1.37,0,0,0-.44-1.11A2.12,2.12,0,0,0,371.7,98,4,4,0,0,0,371,98c-.25,0-.45.07-.61.1l-.45-.29.28-3.49H374v.83H371l-.18,2.14.48-.07A6.5,6.5,0,0,1,372,97.19Z"/><path class="cls-6" d="M397.6,59.49a9.08,9.08,0,0,1-.14,1.57,4.12,4.12,0,0,1-.51,1.4,2.68,2.68,0,0,1-1,1,3.51,3.51,0,0,1-1.72.37l-.49,0a3,3,0,0,1-.44-.08V63a2.85,2.85,0,0,0,.91.14,2.67,2.67,0,0,0,1.2-.24,2.06,2.06,0,0,0,.75-.65,2.81,2.81,0,0,0,.4-1,7.08,7.08,0,0,0,.15-1.15h-.07a2,2,0,0,1-.66.61,2.41,2.41,0,0,1-2.64-.33,2.24,2.24,0,0,1-.58-1.66,2.9,2.9,0,0,1,.29-1.33,2,2,0,0,1,.82-.86,2.51,2.51,0,0,1,1.25-.3,2.28,2.28,0,0,1,2.18,1.43A4.4,4.4,0,0,1,397.6,59.49ZM395.09,57a1.4,1.4,0,0,0-1,.43,1.8,1.8,0,0,0-.41,1.29,1.72,1.72,0,0,0,.35,1.13,1.34,1.34,0,0,0,1.07.41,1.69,1.69,0,0,0,.86-.21,1.46,1.46,0,0,0,.56-.51,1.11,1.11,0,0,0,.21-.64,2.27,2.27,0,0,0-.18-.88,1.84,1.84,0,0,0-.53-.73A1.35,1.35,0,0,0,395.09,57Z"/><path class="cls-3" d="M370.56,69l3-6.57h-4v-.83h5v.71l-3,6.69Z"/><path class="cls-3" d="M393.62,74.67l3-6.57h-4v-.83h5V68l-3,6.69Z"/><path class="cls-5" d="M412.62,104.63a8,8,0,0,1,.37-2.44,6.16,6.16,0,0,1,1.15-2.12H415a7.33,7.33,0,0,0-1.09,2.14,8.24,8.24,0,0,0-.37,2.41,7.91,7.91,0,0,0,.37,2.36A7.45,7.45,0,0,0,415,109.1h-.85A5.73,5.73,0,0,1,413,107,7.78,7.78,0,0,1,412.62,104.63Z"/><path class="cls-5" d="M421,107.47h-4.89v-.76l1.94-2c.36-.37.68-.7.94-1a3.78,3.78,0,0,0,.58-.85,2.14,2.14,0,0,0,.2-.92,1.17,1.17,0,0,0-.36-.93,1.42,1.42,0,0,0-.95-.32,2.33,2.33,0,0,0-.95.19,4,4,0,0,0-.83.52l-.49-.61a4.56,4.56,0,0,1,1-.62,3.06,3.06,0,0,1,1.27-.25,2.36,2.36,0,0,1,1.64.53,1.81,1.81,0,0,1,.6,1.44,2.51,2.51,0,0,1-.24,1.08,4.6,4.6,0,0,1-.66,1,13.51,13.51,0,0,1-1,1l-1.54,1.53v0H421Z"/><path class="cls-5" d="M424.23,104.63a8.08,8.08,0,0,1-.36,2.41,5.75,5.75,0,0,1-1.16,2.06h-.85a7,7,0,0,0,1.08-2.12,7.61,7.61,0,0,0,.37-2.36,7.92,7.92,0,0,0-.37-2.41,7.1,7.1,0,0,0-1.09-2.14h.86a6.19,6.19,0,0,1,1.16,2.12A8.28,8.28,0,0,1,424.23,104.63Z"/><path class="cls-6" d="M418.28,75.86a2.7,2.7,0,0,1,1.8.57,2,2,0,0,1,.68,1.6,2.3,2.3,0,0,1-.73,1.81,2.9,2.9,0,0,1-2,.66,5.22,5.22,0,0,1-1.08-.1,3,3,0,0,1-.84-.3v-.86a3,3,0,0,0,.91.35,4.08,4.08,0,0,0,1,.13,2.11,2.11,0,0,0,1.32-.39,1.67,1.67,0,0,0,.06-2.32,2.18,2.18,0,0,0-1.41-.38,4.15,4.15,0,0,0-.67.05c-.25,0-.45.07-.6.1l-.45-.29.28-3.49h3.71v.83h-2.94L417.14,76l.47-.07A4.64,4.64,0,0,1,418.28,75.86Z"/><path class="cls-3" d="M416,66.2a8.26,8.26,0,0,1,.14-1.57,4.19,4.19,0,0,1,.5-1.39,2.64,2.64,0,0,1,1-1,3.44,3.44,0,0,1,1.71-.38l.48,0a2.07,2.07,0,0,1,.43.08v.77a2.5,2.5,0,0,0-.43-.09l-.46,0a2.67,2.67,0,0,0-1.2.24,2,2,0,0,0-.75.65,3.13,3.13,0,0,0-.4,1,6.94,6.94,0,0,0-.15,1.15H417a2,2,0,0,1,.66-.61,2.12,2.12,0,0,1,1.09-.26,2.14,2.14,0,0,1,1.56.59,2.24,2.24,0,0,1,.59,1.66,2.54,2.54,0,0,1-.64,1.82,2.26,2.26,0,0,1-1.72.67,2.4,2.4,0,0,1-1.27-.35,2.51,2.51,0,0,1-.91-1.08A4.49,4.49,0,0,1,416,66.2Zm2.5,2.5a1.4,1.4,0,0,0,1.06-.42A1.81,1.81,0,0,0,420,67a1.66,1.66,0,0,0-.36-1.12,1.36,1.36,0,0,0-1.07-.41,1.75,1.75,0,0,0-.85.2,1.51,1.51,0,0,0-.57.52,1.2,1.2,0,0,0-.2.63,2.32,2.32,0,0,0,.18.89,1.75,1.75,0,0,0,.52.73A1.36,1.36,0,0,0,418.48,68.7Z"/><path class="cls-5" d="M441.37,47.79h-4.89V47l1.94-2c.36-.37.68-.7.93-1a3.74,3.74,0,0,0,.59-.85,2.18,2.18,0,0,0,.2-.93,1.14,1.14,0,0,0-.37-.92,1.37,1.37,0,0,0-.94-.32,2.15,2.15,0,0,0-.95.19,3.64,3.64,0,0,0-.83.52l-.49-.62a4.53,4.53,0,0,1,1-.61,3.07,3.07,0,0,1,1.27-.26,2.41,2.41,0,0,1,1.64.53,1.81,1.81,0,0,1,.6,1.44,2.52,2.52,0,0,1-.24,1.09,4.54,4.54,0,0,1-.66,1,13.63,13.63,0,0,1-1,1l-1.54,1.52v0h3.74Z"/><path class="cls-5" d="M445.06,43.26a2.74,2.74,0,0,1,1.81.57,2,2,0,0,1,.67,1.6,2.3,2.3,0,0,1-.73,1.81,2.9,2.9,0,0,1-2,.66,5.2,5.2,0,0,1-1.08-.11,2.45,2.45,0,0,1-.84-.3v-.86a2.79,2.79,0,0,0,.91.36,4.08,4.08,0,0,0,1,.13,2.11,2.11,0,0,0,1.32-.39,1.67,1.67,0,0,0,.06-2.32,2.12,2.12,0,0,0-1.41-.39,4.25,4.25,0,0,0-.67.06,5.31,5.31,0,0,0-.6.1l-.45-.29.28-3.49H447v.83h-2.94l-.17,2.14.47-.07A4.64,4.64,0,0,1,445.06,43.26Z"/><path class="cls-6" d="M440.5,91.37l3-6.57h-4V84h5v.71l-3,6.69Z"/><path class="cls-3" d="M442,69.24a2.61,2.61,0,0,1,1.6.46,1.53,1.53,0,0,1,.62,1.31,1.5,1.5,0,0,1-.19.78,2,2,0,0,1-.52.58,3.81,3.81,0,0,1-.7.45,7.29,7.29,0,0,1,.83.5,2.24,2.24,0,0,1,.6.63,1.75,1.75,0,0,1,.22.87,1.8,1.8,0,0,1-.66,1.48,2.73,2.73,0,0,1-1.77.54,2.84,2.84,0,0,1-1.84-.52,1.81,1.81,0,0,1-.63-1.47,1.75,1.75,0,0,1,.21-.87,2.18,2.18,0,0,1,.56-.65,3.9,3.9,0,0,1,.76-.45,3.28,3.28,0,0,1-.92-.76,1.65,1.65,0,0,1-.37-1.12,1.51,1.51,0,0,1,.29-1,1.75,1.75,0,0,1,.78-.6A2.92,2.92,0,0,1,442,69.24Zm-1.55,5.63a1.19,1.19,0,0,0,.38.89,2.08,2.08,0,0,0,2.34,0,1.22,1.22,0,0,0,.4-.93,1.11,1.11,0,0,0-.43-.89,3.85,3.85,0,0,0-1.13-.63l-.16-.06a3.06,3.06,0,0,0-1,.67A1.32,1.32,0,0,0,440.48,74.87ZM442,70a1.54,1.54,0,0,0-.94.27.93.93,0,0,0-.36.79,1.08,1.08,0,0,0,.18.64,1.4,1.4,0,0,0,.49.44,6.19,6.19,0,0,0,.68.35,3.11,3.11,0,0,0,.91-.55,1.08,1.08,0,0,0,.37-.88.93.93,0,0,0-.36-.79A1.61,1.61,0,0,0,442,70Z"/><path class="cls-5" d="M47.35,9.64H46.27v1.68h-.88V9.64H41.85V8.86l3.48-5h.94V8.82h1.08Zm-2-.82V6.49c0-.36,0-.67,0-.92l0-.72h0c-.06.13-.12.27-.21.43a2.51,2.51,0,0,1-.24.38L42.74,8.82Z"/><path class="cls-5" d="M48.61,8.16a9.08,9.08,0,0,1,.14-1.57,4,4,0,0,1,.51-1.4,2.68,2.68,0,0,1,1-1A3.44,3.44,0,0,1,52,3.82a4.19,4.19,0,0,1,.48,0,2,2,0,0,1,.43.07v.78a2.35,2.35,0,0,0-.42-.1l-.47,0a2.63,2.63,0,0,0-1.19.24,1.91,1.91,0,0,0-.75.65,2.75,2.75,0,0,0-.4,1,6.78,6.78,0,0,0-.16,1.15h.06a1.91,1.91,0,0,1,.67-.62,2.07,2.07,0,0,1,1.09-.25,2.1,2.1,0,0,1,1.55.58,2.26,2.26,0,0,1,.59,1.66,2.5,2.5,0,0,1-.64,1.83,2.25,2.25,0,0,1-1.71.66A2.28,2.28,0,0,1,49,10,4.24,4.24,0,0,1,48.61,8.16Zm2.51,2.49a1.42,1.42,0,0,0,1.06-.42,1.85,1.85,0,0,0,.4-1.3,1.61,1.61,0,0,0-.36-1.11,1.32,1.32,0,0,0-1.07-.42,1.75,1.75,0,0,0-.85.2,1.57,1.57,0,0,0-.56.52,1.13,1.13,0,0,0-.21.64,2.27,2.27,0,0,0,.18.88,1.71,1.71,0,0,0,.53.73A1.35,1.35,0,0,0,51.12,10.65Z"/><path class="cls-5" d="M186.48,14.88H185.4v1.68h-.88V14.88H181V14.1l3.48-5h.94v4.94h1.08Zm-2-.82V11.73c0-.36,0-.66,0-.92s0-.49,0-.72h-.05a3.26,3.26,0,0,1-.2.43,3.67,3.67,0,0,1-.24.38l-2.22,3.16Z"/><path class="cls-5" d="M192.16,10.89a1.66,1.66,0,0,1-.42,1.19,2.05,2.05,0,0,1-1.11.58v.05a2.12,2.12,0,0,1,1.32.55,1.69,1.69,0,0,1,.44,1.2,2.22,2.22,0,0,1-.3,1.15,1.94,1.94,0,0,1-.93.77,3.91,3.91,0,0,1-1.61.28,6,6,0,0,1-1.08-.09,3.21,3.21,0,0,1-.95-.31v-.85a4.1,4.1,0,0,0,1,.36,4.85,4.85,0,0,0,1,.13,2.13,2.13,0,0,0,1.43-.39,1.34,1.34,0,0,0,.44-1.07,1,1,0,0,0-.54-1,3.07,3.07,0,0,0-1.53-.31h-.71v-.78h.72a2.15,2.15,0,0,0,1.39-.38,1.26,1.26,0,0,0,.47-1,1,1,0,0,0-.37-.83,1.49,1.49,0,0,0-1-.29,2.68,2.68,0,0,0-1,.17,5.18,5.18,0,0,0-.83.45l-.46-.62a3.63,3.63,0,0,1,1-.54,3.47,3.47,0,0,1,1.33-.23,2.49,2.49,0,0,1,1.73.52A1.71,1.71,0,0,1,192.16,10.89Z"/></svg>