<svg id="Layer_1" data-name="Layer 1" xmlns="http://www.w3.org/2000/svg" xmlns:xlink="http://www.w3.org/1999/xlink" viewBox="0 0 450 225"><defs><style>.cls-1{fill:none;}.cls-2{fill:#006ba6;}.cls-3{fill:#434c50;}.cls-4{clip-path:url(#clip-path);}.cls-5{fill:#1d1d1b;}</style><clipPath id="clip-path"><rect class="cls-1" y="2" width="450" height="217.92"/></clipPath></defs><rect class="cls-2" x="79.49" y="17.83" width="203.13" height="19.17"/><rect class="cls-2" x="79.49" y="51.38" width="184.36" height="19.17"/><rect class="cls-2" x="79.49" y="84.92" width="176.93" height="19.17"/><rect class="cls-2" x="79.49" y="118.47" width="109.97" height="19.17"/><rect class="cls-2" x="79.49" y="152.01" width="93.72" height="19.17"/><rect class="cls-2" x="79.49" y="185.56" width="343.64" height="19.17"/><path class="cls-3" d="M55.47,63.42H54.22v1.94h-1V63.42H49.09v-.9l4-5.78h1.09v5.73h1.25Zm-2.27-1v-2.7c0-.42,0-.77,0-1.06s0-.57,0-.84h0a3.65,3.65,0,0,1-.24.49,2.94,2.94,0,0,1-.28.45l-2.56,3.66Z"/><path class="cls-3" d="M62,61.06a8.28,8.28,0,0,1-.29,2.38A3,3,0,0,1,60.78,65a2.49,2.49,0,0,1-1.65.53A2.32,2.32,0,0,1,57,64.31a6.41,6.41,0,0,1-.69-3.25,8.57,8.57,0,0,1,.29-2.37,3,3,0,0,1,.9-1.51,2.49,2.49,0,0,1,1.65-.52,2.34,2.34,0,0,1,2.14,1.16A6.13,6.13,0,0,1,62,61.06Zm-4.63,0a6.57,6.57,0,0,0,.4,2.64,1.52,1.52,0,0,0,2.75,0,6.39,6.39,0,0,0,.41-2.65,6.33,6.33,0,0,0-.41-2.62,1.51,1.51,0,0,0-2.75,0A6.53,6.53,0,0,0,57.35,61.06Z"/><path class="cls-3" d="M54.76,92.4a1.89,1.89,0,0,1-.49,1.37,2.37,2.37,0,0,1-1.29.68v0a2.46,2.46,0,0,1,1.53.64A1.93,1.93,0,0,1,55,96.52a2.48,2.48,0,0,1-.35,1.34,2.35,2.35,0,0,1-1.07.9,4.73,4.73,0,0,1-1.87.32,6.92,6.92,0,0,1-1.24-.1,3.92,3.92,0,0,1-1.11-.37v-1a5.41,5.41,0,0,0,1.17.42,5.6,5.6,0,0,0,1.2.14,2.5,2.5,0,0,0,1.66-.45,1.56,1.56,0,0,0,.51-1.24,1.23,1.23,0,0,0-.63-1.16A3.72,3.72,0,0,0,51.52,95h-.83v-.9h.84a2.46,2.46,0,0,0,1.6-.45,1.41,1.41,0,0,0,.55-1.17,1.18,1.18,0,0,0-.42-1,1.74,1.74,0,0,0-1.14-.34,3.22,3.22,0,0,0-1.19.2,6.09,6.09,0,0,0-1,.52l-.53-.72a4.37,4.37,0,0,1,2.68-.89,2.85,2.85,0,0,1,2,.6A2,2,0,0,1,54.76,92.4Z"/><path class="cls-3" d="M62,94.66A8.28,8.28,0,0,1,61.69,97a3,3,0,0,1-.91,1.51,2.49,2.49,0,0,1-1.65.53A2.32,2.32,0,0,1,57,97.91a6.41,6.41,0,0,1-.69-3.25,8.57,8.57,0,0,1,.29-2.37,3,3,0,0,1,.9-1.51,2.49,2.49,0,0,1,1.65-.52,2.34,2.34,0,0,1,2.14,1.16A6.13,6.13,0,0,1,62,94.66Zm-4.63,0a6.57,6.57,0,0,0,.4,2.64,1.52,1.52,0,0,0,2.75,0,6.39,6.39,0,0,0,.41-2.65A6.33,6.33,0,0,0,60.5,92a1.51,1.51,0,0,0-2.75,0A6.53,6.53,0,0,0,57.35,94.66Z"/><path class="cls-3" d="M55.08,132.56H49.42v-.88l2.24-2.26c.43-.44.79-.82,1.09-1.16a4.35,4.35,0,0,0,.68-1,2.5,2.5,0,0,0,.22-1.07,1.34,1.34,0,0,0-.42-1.07,1.57,1.57,0,0,0-1.09-.37A2.51,2.51,0,0,0,51,125a4.69,4.69,0,0,0-1,.6l-.57-.71a5,5,0,0,1,1.16-.71,3.51,3.51,0,0,1,1.47-.3,2.83,2.83,0,0,1,1.9.61,2.13,2.13,0,0,1,.69,1.67,3,3,0,0,1-.27,1.26,5.6,5.6,0,0,1-.77,1.17c-.33.38-.71.78-1.15,1.21l-1.79,1.76v0h4.33Z"/><path class="cls-3" d="M62,128.26a8.28,8.28,0,0,1-.29,2.38,3,3,0,0,1-.91,1.51,2.49,2.49,0,0,1-1.65.53A2.32,2.32,0,0,1,57,131.51a6.41,6.41,0,0,1-.69-3.25,8.57,8.57,0,0,1,.29-2.37,3,3,0,0,1,.9-1.51,2.49,2.49,0,0,1,1.65-.52A2.34,2.34,0,0,1,61.27,125,6.13,6.13,0,0,1,62,128.26Zm-4.63,0a6.57,6.57,0,0,0,.4,2.64,1.52,1.52,0,0,0,2.75,0,6.39,6.39,0,0,0,.41-2.65,6.33,6.33,0,0,0-.41-2.62,1.51,1.51,0,0,0-2.75,0A6.53,6.53,0,0,0,57.35,128.26Z"/><path class="cls-3" d="M53.1,166.16h-1v-6c0-.34,0-.62,0-.83s0-.42,0-.64l-.36.32-.38.34-.92.74-.55-.71,2.32-1.8h.87Z"/><path class="cls-3" d="M62,161.86a8.28,8.28,0,0,1-.29,2.38,3,3,0,0,1-.91,1.51,2.49,2.49,0,0,1-1.65.53A2.32,2.32,0,0,1,57,165.11a6.41,6.41,0,0,1-.69-3.25,8.57,8.57,0,0,1,.29-2.37,3,3,0,0,1,.9-1.51,2.49,2.49,0,0,1,1.65-.52,2.34,2.34,0,0,1,2.14,1.16A6.13,6.13,0,0,1,62,161.86Zm-4.63,0a6.57,6.57,0,0,0,.4,2.64,1.52,1.52,0,0,0,2.75,0,6.39,6.39,0,0,0,.41-2.65,6.33,6.33,0,0,0-.41-2.62,1.51,1.51,0,0,0-2.75,0A6.53,6.53,0,0,0,57.35,161.86Z"/><path class="cls-3" d="M56.53,199.76h-1v-6c0-.34,0-.62,0-.83s0-.42,0-.64l-.35.32-.39.34-.92.74-.55-.71,2.32-1.8h.87Z"/><g class="cls-4"><rect class="cls-5" x="79.23" y="3.44" width="0.96" height="215.04"/></g><path class="cls-3" d="M296.61,31.76h-1v-6c0-.34,0-.62,0-.83s0-.42,0-.64c-.13.12-.24.23-.35.32l-.39.34-.91.74-.55-.71,2.31-1.8h.88Z"/><path class="cls-3" d="M305.83,29.82h-1.24v1.94h-1V29.82h-4.11v-.9l4-5.78h1.09v5.73h1.24Zm-2.26-.95v-2.7c0-.42,0-.77,0-1.06s0-.57.05-.84h-.05c-.07.15-.15.32-.24.49a4,4,0,0,1-.28.45l-2.56,3.66Z"/><path class="cls-3" d="M277.89,65.36h-1v-6c0-.34,0-.62,0-.83s0-.42,0-.64c-.13.12-.24.23-.35.32l-.39.34-.91.74-.55-.71,2.31-1.8h.88Z"/><path class="cls-3" d="M287.12,63.42h-1.25v1.94h-1V63.42h-4.11v-.9l4-5.78h1.09v5.73h1.25Zm-2.27-1v-2.7c0-.42,0-.77,0-1.06s0-.57,0-.84h-.05c-.07.15-.15.32-.24.49a4,4,0,0,1-.28.45l-2.56,3.66Z"/><path class="cls-3" d="M270.69,99h-1V93c0-.34,0-.62,0-.83s0-.42,0-.64c-.13.12-.24.23-.35.32l-.39.34-.91.74-.55-.71,2.31-1.8h.88Z"/><path class="cls-3" d="M279.21,92.4a1.93,1.93,0,0,1-.49,1.37,2.37,2.37,0,0,1-1.29.68v0a2.46,2.46,0,0,1,1.53.64,1.93,1.93,0,0,1,.51,1.38,2.57,2.57,0,0,1-.35,1.34,2.35,2.35,0,0,1-1.07.9,4.76,4.76,0,0,1-1.87.32,7.11,7.11,0,0,1-1.25-.1,4,4,0,0,1-1.1-.37v-1a5.41,5.41,0,0,0,1.17.42,5.6,5.6,0,0,0,1.2.14,2.5,2.5,0,0,0,1.66-.45,1.56,1.56,0,0,0,.51-1.24,1.23,1.23,0,0,0-.63-1.16A3.72,3.72,0,0,0,276,95h-.83v-.9H276a2.46,2.46,0,0,0,1.6-.45,1.41,1.41,0,0,0,.55-1.17,1.18,1.18,0,0,0-.42-1,1.74,1.74,0,0,0-1.14-.34,3.22,3.22,0,0,0-1.19.2,6.09,6.09,0,0,0-1,.52l-.53-.72a4.36,4.36,0,0,1,2.67-.89,2.86,2.86,0,0,1,2,.6A2,2,0,0,1,279.21,92.4Z"/><path class="cls-3" d="M202.65,123.87a3,3,0,0,1,1.84.53,1.77,1.77,0,0,1,.72,1.52,1.72,1.72,0,0,1-.22.9,2.25,2.25,0,0,1-.59.68,4.57,4.57,0,0,1-.82.52,7.4,7.4,0,0,1,1,.58,2.51,2.51,0,0,1,.69.73,1.92,1.92,0,0,1,.26,1,2.1,2.1,0,0,1-.77,1.71,3.11,3.11,0,0,1-2,.63,3.24,3.24,0,0,1-2.13-.61,2.27,2.27,0,0,1-.49-2.71,2.45,2.45,0,0,1,.65-.75,5.27,5.27,0,0,1,.88-.53,4,4,0,0,1-1.07-.87,1.92,1.92,0,0,1-.43-1.3,1.76,1.76,0,0,1,.34-1.1,2,2,0,0,1,.91-.7A3.36,3.36,0,0,1,202.65,123.87Zm-1.8,6.52a1.36,1.36,0,0,0,.44,1,2.44,2.44,0,0,0,2.71,0,1.42,1.42,0,0,0,.46-1.08,1.34,1.34,0,0,0-.49-1,4.84,4.84,0,0,0-1.31-.72l-.19-.07a3.72,3.72,0,0,0-1.21.78A1.48,1.48,0,0,0,200.85,130.39Zm1.78-5.67a1.78,1.78,0,0,0-1.09.32,1.08,1.08,0,0,0-.42.92,1.24,1.24,0,0,0,.21.74,1.77,1.77,0,0,0,.57.51c.24.14.51.28.79.41a3.82,3.82,0,0,0,1.05-.64,1.27,1.27,0,0,0,.43-1,1.08,1.08,0,0,0-.42-.92A1.82,1.82,0,0,0,202.63,124.72Z"/><path class="cls-3" d="M184.54,166.16l3.51-7.61h-4.62v-1h5.75v.82l-3.48,7.75Z"/><path class="cls-3" d="M439.23,199.76h-5.67v-.88l2.25-2.26c.42-.44.78-.82,1.08-1.16a4,4,0,0,0,.68-1,2.5,2.5,0,0,0,.23-1.07,1.34,1.34,0,0,0-.42-1.07,1.58,1.58,0,0,0-1.09-.37,2.53,2.53,0,0,0-1.11.22,4.69,4.69,0,0,0-1,.6l-.56-.71a4.62,4.62,0,0,1,1.16-.71,3.45,3.45,0,0,1,1.47-.3,2.79,2.79,0,0,1,1.89.61,2.1,2.1,0,0,1,.7,1.67,2.83,2.83,0,0,1-.28,1.26,5.23,5.23,0,0,1-.77,1.17c-.32.38-.71.78-1.15,1.21l-1.79,1.76v.05h4.34Z"/><path class="cls-3" d="M443.15,194.5a3.14,3.14,0,0,1,2.09.66A2.28,2.28,0,0,1,446,197a2.67,2.67,0,0,1-.85,2.1,3.37,3.37,0,0,1-2.35.76,6.1,6.1,0,0,1-1.25-.12,3.23,3.23,0,0,1-1-.35v-1a3.65,3.65,0,0,0,1.05.41,5,5,0,0,0,1.18.15,2.44,2.44,0,0,0,1.53-.45,1.66,1.66,0,0,0,.58-1.4,1.6,1.6,0,0,0-.52-1.29,2.42,2.42,0,0,0-1.63-.45,5.75,5.75,0,0,0-.77.06c-.28,0-.52.08-.69.12l-.53-.33.32-4.05h4.3v1H442l-.2,2.49.55-.09A6,6,0,0,1,443.15,194.5Z"/><path class="cls-3" d="M8.73,29.47a2.1,2.1,0,0,1-.83,1.77,3.54,3.54,0,0,1-2.23.64,8,8,0,0,1-1.34-.11,4.12,4.12,0,0,1-1-.3v-1a6.87,6.87,0,0,0,1.08.35,5.81,5.81,0,0,0,1.32.15,2.32,2.32,0,0,0,1.44-.37,1.2,1.2,0,0,0,.5-1,1.28,1.28,0,0,0-.18-.7,1.55,1.55,0,0,0-.63-.53,9.44,9.44,0,0,0-1.21-.53,4.26,4.26,0,0,1-1.66-1,2.22,2.22,0,0,1-.55-1.57,2,2,0,0,1,.35-1.17,2.13,2.13,0,0,1,1-.75,3.51,3.51,0,0,1,1.43-.27,6.37,6.37,0,0,1,1.28.13,6.51,6.51,0,0,1,1.08.35l-.33.93a6.25,6.25,0,0,0-1-.33A4.32,4.32,0,0,0,6.13,24a1.84,1.84,0,0,0-1.21.34,1.14,1.14,0,0,0-.41.91,1.33,1.33,0,0,0,.18.72,1.7,1.7,0,0,0,.59.52A6.77,6.77,0,0,0,6.39,27a6.89,6.89,0,0,1,1.27.59,2.35,2.35,0,0,1,.8.76A2.14,2.14,0,0,1,8.73,29.47Z"/><path class="cls-3" d="M10.85,22.92a.64.64,0,0,1,.43.16.81.81,0,0,1,0,1,.64.64,0,0,1-.43.16.61.61,0,0,1-.44-.16.81.81,0,0,1,0-1A.61.61,0,0,1,10.85,22.92Zm.52,2.41v6.43H10.31V25.33Z"/><path class="cls-3" d="M16.5,25.21a2.44,2.44,0,0,1,1.74.56,2.42,2.42,0,0,1,.59,1.8v4.19h-1V27.64c0-1-.48-1.54-1.44-1.54a1.65,1.65,0,0,0-1.48.6,3.06,3.06,0,0,0-.41,1.72v3.34H13.41V25.33h.85l.15.87h.06a2,2,0,0,1,.87-.75A2.87,2.87,0,0,1,16.5,25.21Z"/><path class="cls-3" d="M23.4,31.88a3.24,3.24,0,0,1-1.52-.35,2.42,2.42,0,0,1-1-1.08,4.09,4.09,0,0,1-.38-1.87,4.14,4.14,0,0,1,.39-1.93,2.42,2.42,0,0,1,1.08-1.09,3.24,3.24,0,0,1,1.54-.35,4.32,4.32,0,0,1,1,.1,3.46,3.46,0,0,1,.75.25l-.33.87a5.48,5.48,0,0,0-.67-.2,2.76,2.76,0,0,0-.72-.1c-1.26,0-1.9.81-1.9,2.44A2.93,2.93,0,0,0,22,30.35a1.59,1.59,0,0,0,1.37.62,3.68,3.68,0,0,0,.92-.11,4.7,4.7,0,0,0,.75-.26v.93a3.23,3.23,0,0,1-.72.26A4.22,4.22,0,0,1,23.4,31.88Z"/><path class="cls-3" d="M29.07,25.21a2.69,2.69,0,0,1,1.41.36,2.37,2.37,0,0,1,.92,1,3.51,3.51,0,0,1,.32,1.53v.64H27.31a2.47,2.47,0,0,0,.56,1.66,2,2,0,0,0,1.5.57,5,5,0,0,0,1.08-.11,7.06,7.06,0,0,0,1-.33v.92a5.5,5.5,0,0,1-1,.32,5.43,5.43,0,0,1-1.14.1,3.34,3.34,0,0,1-1.62-.37,2.6,2.6,0,0,1-1.09-1.11,3.79,3.79,0,0,1-.39-1.81,4.17,4.17,0,0,1,.36-1.81,2.63,2.63,0,0,1,1-1.16A2.68,2.68,0,0,1,29.07,25.21Zm0,.86a1.5,1.5,0,0,0-1.19.49,2.24,2.24,0,0,0-.52,1.35h3.27a2.18,2.18,0,0,0-.38-1.33A1.36,1.36,0,0,0,29.05,26.07Z"/><path class="cls-3" d="M39.71,31.76h-1v-6c0-.34,0-.62,0-.83s0-.42,0-.64l-.36.32L38,25l-.91.74L36.52,25l2.31-1.8h.88Z"/><path class="cls-3" d="M48.55,26.85a10,10,0,0,1-.16,1.82,4.75,4.75,0,0,1-.59,1.62,3.12,3.12,0,0,1-1.2,1.16,4,4,0,0,1-2,.43l-.57,0a2.64,2.64,0,0,1-.51-.09v-.9a3.4,3.4,0,0,0,1.05.16A3.12,3.12,0,0,0,46,30.74a2.26,2.26,0,0,0,.87-.75,3.21,3.21,0,0,0,.47-1.1,8.05,8.05,0,0,0,.17-1.33h-.08a2.34,2.34,0,0,1-.76.7,2.45,2.45,0,0,1-1.28.3,2.42,2.42,0,0,1-1.78-.68A2.6,2.6,0,0,1,42.91,26a3.33,3.33,0,0,1,.34-1.54,2.3,2.3,0,0,1,1-1,3,3,0,0,1,1.45-.35,2.71,2.71,0,0,1,1.48.42,2.8,2.8,0,0,1,1,1.24A5.06,5.06,0,0,1,48.55,26.85ZM45.65,24a1.61,1.61,0,0,0-1.22.49A2.12,2.12,0,0,0,44,26a1.93,1.93,0,0,0,.4,1.3,1.53,1.53,0,0,0,1.24.48,2,2,0,0,0,1-.24,1.7,1.7,0,0,0,.65-.59,1.33,1.33,0,0,0,.24-.74,2.59,2.59,0,0,0-.21-1,2,2,0,0,0-.61-.84A1.51,1.51,0,0,0,45.65,24Z"/><path class="cls-3" d="M50.81,31.76l3.52-7.61H49.71v-1h5.74V24L52,31.76Z"/><path class="cls-3" d="M62.67,29.82H61.42v1.94h-1V29.82H56.29v-.9l4-5.78h1.09v5.73h1.25Zm-2.27-.95v-2.7c0-.42,0-.77,0-1.06s0-.57,0-.84h-.05a3.65,3.65,0,0,1-.24.49,4,4,0,0,1-.28.45l-2.56,3.66Z"/></svg>