<svg id="Layer_1" data-name="Layer 1" xmlns="http://www.w3.org/2000/svg" viewBox="0 0 500 500"><defs><style>.cls-1{fill:#49176d;}.cls-2{fill:#22b7e9;}.cls-3{fill:#f9e0c8;}.cls-4{fill:none;}.cls-5{fill:#fab600;}.cls-6{fill:#0055a4;}.cls-7{fill:#ee7003;}.cls-10,.cls-8{fill:#fbc099;}.cls-11,.cls-9{fill:#d50065;}.cls-10,.cls-11{fill-rule:evenodd;}.cls-12{fill:#95ba29;}</style></defs><ellipse class="cls-1" cx="275.05" cy="411.68" rx="37.04" ry="9.68"/><path class="cls-2" d="M176.77,286.31l3.93-112.06a14.5,14.5,0,1,0-29-1l-3.35,95.49L174.22,294A14.43,14.43,0,0,0,176.77,286.31Z"/><path class="cls-2" d="M178.1,179.17s-3-12.37-9.89-19.79c-19.29.49-24.74-20.28-24.74-20.28s-12.86-9.9-24.73-8.91c-2.95,2.15-26.91,33.91-48.2,62.49l45.69,44.64Z"/><path class="cls-2" d="M36.62,238.53l52.23,1.71L57.78,209.88C45.67,226.21,36.62,238.53,36.62,238.53Z"/><path class="cls-3" d="M157.46,101.92c-10.61,15.32-10.32,36.75,2.29,45.49s32.78,1.48,43.39-13.84,9-34.83-3.63-43.56S168.07,86.6,157.46,101.92Z"/><path d="M208,127c-9.67-4.14-25.58-16.33-31.36-24.18-4.71,2.91-15.52,15.94-23.88,7.88-.14-4.57,18.79-47,49.61-27.15C227.13,99.48,206.91,133.24,208,127Z"/><ellipse class="cls-3" cx="165.67" cy="108.8" rx="7.6" ry="5.86" transform="translate(-18.1 183.04) rotate(-55.29)"/><path class="cls-4" d="M294.71,269.5c.33-.29.67-.57,1-.84l-1,.11Z"/><path class="cls-4" d="M280.37,269.14v-.55l-.86-.14C279.8,268.67,280.09,268.9,280.37,269.14Z"/><path class="cls-5" d="M256.67,355.56c0-.06,0-.13,0-.19C241.41,330,217.2,304.93,217.2,304.93L201.36,320.5l31.78,31.05a10.61,10.61,0,0,1,.41,15,10.62,10.62,0,0,1-15,.41l-32.31-31.57-16.55,16.27s74.39,76.72,96,47.1c3.94-5.38,3.88-12.84,1.38-21.22C260.38,372.85,256.67,365.33,256.67,355.56Z"/><path class="cls-6" d="M36.62,237.1s-3,15.33-3,21.76,15.82,69.26,15.82,76.22-12.36,79.61-12.86,81.59,27.21,5.93,29.68,4.94,15.34-81.13,15.34-81.13-7.42-62.82-2-63.81,42.54,58.41,42.54,58.41-2,53.39-3.46,70.21,2,16.32,2,16.32H140c8.91,0,8.91-3.95,8.91-3.95s4-84.1,4.45-89.05c.24-2.39-9.34-23.26-19.31-44.2L87.33,238.75Z"/><path d="M38.89,403.78c-1.25,7.35-2.14,12.38-2.27,12.89-.49,2,27.21,5.93,29.68,4.94.65-.25,2-5.89,3.64-14.07Z"/><path d="M118.69,405.92c-1.34,16.16,2,15.69,2,15.69H140c8.91,0,8.91-3.95,8.91-3.95s.23-5.08.6-12.8Z"/><path class="cls-7" d="M224.51,364.67a5.5,5.5,0,0,1-2.5-1.36L1.74,148.09A5.58,5.58,0,0,1,9.41,140L229.68,355.21a5.58,5.58,0,0,1-5.17,9.46Z"/><path class="cls-2" d="M70.9,149.88c47.93,6.35,48.61,6.35,49.67,6.35a13.56,13.56,0,0,0,1.06-27.07c-3.51-.39-37.38-4.86-59.61-7.81A13.55,13.55,0,0,0,47,132l-6.59,31.22,23,22.45Z"/><path class="cls-2" d="M46,202.22a13.48,13.48,0,0,0,2.81.29c.45,0,.88-.07,1.31-.11L35.34,188A13.52,13.52,0,0,0,46,202.22Z"/><path class="cls-8" d="M361.89,383.9c-.05-1.14.36-5.3,1-10.45-1.31-11.84-1.59-22.27-1.65-26.53v-.05L330,354.4s-11.15,57,7,64.66c6.54,2.76,20.93.85,37.75-3.15-5.24-7.62-8.45-19.76-10.41-31.89C362.76,384.25,361.91,384.23,361.89,383.9Z"/><path class="cls-8" d="M443.82,372.88l-1.48-11.8c-9.17,2.7-21.19,6.45-33.15,10.15.09,3.54.18,6.8.24,9.18C416,379.49,429.91,376.23,443.82,372.88Z"/><path class="cls-9" d="M455.57,370l6.13-1.49a55.42,55.42,0,0,0-1.7-8.31c-.53-1.66-1.12-2.78-1.79-3a1.83,1.83,0,0,0-.59,0l-.37.05-.69.1-.64.13-.85.17-1,.23-.95.23-1.26.32-1,.27-1.55.43-1.08.29-1.74.5-1.21.35-2,.58-1,.28,1.48,11.8Z"/><path class="cls-10" d="M404.59,346.87s.78,33.88,1,37.45,85.79-20.13,89.35-18.73,5.1,23.83,5.1,25.35-94.45,33.64-114.82,28.54c-19.07-4.77-20-72.61-20-72.61Z"/><path class="cls-11" d="M494.9,365.59c-.89-.35-6.88.87-15.39,2.83l3.91,28.86c10-3.41,16.58-5.93,16.58-6.34C500,389.42,498.47,367,494.9,365.59Z"/><path class="cls-9" d="M294.71,317.73h.66a6.16,6.16,0,0,1,5.1,2.7l6.2-10.64a14.45,14.45,0,0,0,1.84-5.49l.58-4.94a41.22,41.22,0,0,1-14.38,3.92Z"/><path class="cls-9" d="M304,222.93a34.86,34.86,0,0,1-2.35,7.54,45,45,0,0,1,16.08-3.73l.1-.87A14.25,14.25,0,0,0,305.39,210a13.18,13.18,0,0,0-1.66,0A31.67,31.67,0,0,1,304,222.93Z"/><path class="cls-9" d="M273.17,326.29v-2.41a6.16,6.16,0,0,1,6.16-6.15h1V303.24c-.91-.1-1.78-.24-2.65-.38L251,348.78a14.23,14.23,0,0,0,9.11,21.05,28.94,28.94,0,0,1-3.41-14.27C256.67,345,263.63,332.81,273.17,326.29Z"/><path class="cls-9" d="M338.31,192.4c1.9,2.2-10.72,13-24.08,7.45-3.69,1.93-7.77,4.05-11.54,6.47A32.14,32.14,0,0,1,304,222.93a34.86,34.86,0,0,1-2.35,7.54q8.37-3.9,20.6-3.92h4v4c0,14.26-4,24.61-11.93,31a64.2,64.2,0,0,1,7.92-.46h4v4c0,16.47-5.36,27.68-15.91,33.59.69,3.81,1.43,7.82,2.24,11.91L330.43,280l8.9-74.68a18.25,18.25,0,0,1,7.6-12.74A75.24,75.24,0,0,0,338.31,192.4Z"/><path class="cls-9" d="M423.89,362.54c-9.19-27.16-24.05-54.45-29.49-74.69-3-11-5.67-22.66-8.18-34.39L375.32,212l-9.06,76.08a18.14,18.14,0,0,1-2.36,7l-31.06,53.33a18.21,18.21,0,0,1-10.36,8.25,16.73,16.73,0,0,1-2.52.58c.65,11.09,1.2,23.65,2.31,35.82C339.52,387.71,405.9,368.14,423.89,362.54Z"/><rect class="cls-7" x="284.38" y="262.54" width="6.32" height="98.68" rx="1.07"/><path class="cls-12" d="M286.34,189c25.35,25.35,11.27,44.65,0,55.92C275.07,233.6,261,214.3,286.34,189Z"/><path class="cls-12" d="M322.27,265.08c0,31.3-20.61,34.51-34.52,34.51C287.75,285.68,291,265.08,322.27,265.08Z"/><path class="cls-12" d="M253.24,265.08c0,31.3,20.6,34.51,34.51,34.51C287.75,285.68,284.53,265.08,253.24,265.08Z"/><path class="cls-12" d="M322.27,230.56c0,31.3-20.61,34.52-34.52,34.52C287.75,251.17,291,230.56,322.27,230.56Z"/><path class="cls-12" d="M261.77,239.1c23.56,0,26,15.51,26,26C277.28,265.08,261.77,262.66,261.77,239.1Z"/><path class="cls-1" d="M299.4,343.89a18.09,18.09,0,0,1,1.5-13.13c-4.1-3.19-8.77-5.23-13.51-5.23-13.56,0-26.71,16.47-26.71,30S269.07,379,287.39,379c16.89,0,25.92-9.12,26.64-21.81a18.16,18.16,0,0,1-14.63-13.33Z"/><path class="cls-1" d="M297.52,328.67H277.18v-4.79a2.14,2.14,0,0,1,2.15-2.14h16a2.14,2.14,0,0,1,2.15,2.14Z"/><path class="cls-9" d="M321.29,352.84a14.15,14.15,0,0,0,8.08-6.44l31.07-53.33a14.27,14.27,0,0,0,1.83-5.49l9.35-78.43a14.25,14.25,0,0,0-28.31-3.37l-9,75.5-29.58,50.78a14.25,14.25,0,0,0,16.55,20.78Z"/><path class="cls-8" d="M339.58,153.18c6.7,15.14,2.87,33.8-9.6,39.31s-28.86-4.18-35.56-19.33-2-31.89,10.45-37.4S332.88,138,339.58,153.18Z"/><path d="M348,148.3l-58.14,18s-11.66-28.86,16.72-40.85S348,148.3,348,148.3Z"/><path d="M352.14,201.71l11.62-6a15.62,15.62,0,0,0,6.74-21l-26.07-33.56c-3.92-7.62-12-7.8-19.6-3.88l-4.58,2.36a15.63,15.63,0,0,0-6.74,21L331.15,195A15.63,15.63,0,0,0,352.14,201.71Z"/></svg>