<svg height="480pt" viewBox="0 0 480 480" width="480pt" xmlns="http://www.w3.org/2000/svg">
<path fill="#bfd9e8" d="m240 0c-132.546875 0-240 107.453125-240 240s107.453125 240 240 240 240-107.453125 240-240c-.148438-132.484375-107.515625-239.851562-240-240zm0 464c-123.710938 0-224-100.289062-224-224s100.289062-224 224-224 224 100.289062 224 224c-.140625 123.652344-100.347656 223.859375-224 224zm0 0"/>
<path fill="#006ba6" d="m359.929688 239.648438c-.03125-.390626-.097657-.773438-.195313-1.152344-.054687-.40625-.148437-.804688-.277344-1.191406-.089843-.234376-.152343-.457032-.257812-.679688-.191407-.34375-.40625-.671875-.640625-.984375-.167969-.242187-.222656-.527344-.414063-.761719l-80-96c-1.804687-2.273437-4.703125-3.390625-7.566406-2.921875-2.867187.472657-5.25 2.460938-6.230469 5.195313-.980468 2.730468-.402344 5.78125 1.507813 7.96875l69.066406 82.878906h-206.921875c-4.417969 0-8 3.582031-8 8s3.582031 8 8 8h206.921875l-69.066406 82.878906c-1.910157 2.1875-2.488281 5.238282-1.507813 7.96875.980469 2.734375 3.363282 4.722656 6.230469 5.195313 2.863281.46875 5.761719-.648438 7.566406-2.921875l80-96c.191407-.234375.246094-.519532.414063-.761719.234375-.3125.449218-.640625.640625-.984375.105469-.222656.167969-.445312.257812-.679688.128907-.386718.222657-.785156.277344-1.191406.097656-.378906.164063-.761718.195313-1.152344 0-.121093.070312-.222656.070312-.351562s-.0625-.230469-.070312-.351562zm0 0"/>
</svg>