<?xml version="1.0" standalone="no"?>
<!DOCTYPE svg PUBLIC "-//W3C//DTD SVG 20010904//EN"
 "http://www.w3.org/TR/2001/REC-SVG-20010904/DTD/svg10.dtd">
<svg version="1.0" xmlns="http://www.w3.org/2000/svg"
 width="512.000000pt" height="512.000000pt" viewBox="0 0 512.000000 512.000000"
 preserveAspectRatio="xMidYMid meet">
<metadata>
Created by potrace 1.14, written by Peter Selinger 2001-2017
</metadata>
<g transform="translate(0.000000,512.000000) scale(0.100000,-0.100000)"
fill="#000000" stroke="none">
<path d="M2437 4963 c-1 -1 -45 -4 -97 -7 -52 -3 -106 -8 -120 -10 -14 -3 -46
-7 -72 -11 -26 -3 -53 -7 -60 -10 -7 -2 -31 -7 -53 -10 -171 -25 -439 -119
-662 -232 -286 -145 -529 -338 -755 -600 -143 -166 -292 -422 -382 -656 -50
-128 -113 -346 -121 -417 -1 -8 -7 -42 -13 -75 -24 -129 -32 -231 -33 -400 -1
-126 6 -284 16 -335 2 -14 7 -45 9 -70 3 -25 8 -57 11 -72 9 -47 14 -72 19
-98 14 -64 17 -76 20 -95 3 -11 16 -60 31 -109 113 -387 292 -684 595 -986
326 -326 722 -551 1190 -676 52 -14 102 -27 110 -29 8 -1 31 -5 50 -9 19 -3
46 -8 60 -11 284 -57 752 -49 1015 18 11 3 34 8 50 12 17 4 62 16 100 27 39
11 75 21 80 23 6 1 19 5 30 9 11 5 63 24 115 43 212 79 468 223 655 370 97 76
283 253 355 338 42 49 143 186 182 245 44 68 147 259 149 275 0 2 13 33 28 67
36 80 102 286 116 363 2 11 4 20 5 20 1 0 3 9 5 20 1 11 5 34 8 50 3 17 9 50
12 75 4 25 9 54 11 65 22 119 22 666 0 704 -2 3 -6 29 -10 56 -3 28 -8 61 -11
75 -21 109 -30 146 -51 225 -22 77 -37 128 -62 195 -3 8 -6 20 -8 25 -18 68
-142 320 -217 441 -307 496 -806 879 -1372 1051 -92 28 -262 69 -319 78 -21 3
-41 7 -45 9 -3 2 -36 7 -73 10 -37 4 -77 9 -89 11 -47 9 -396 25 -402 18z"/>
</g>
</svg>
